<svg id="icons" xmlns="http://www.w3.org/2000/svg" viewBox="0 0 340 340"><title>100_potato</title><path d="M130.773,163.815a164.039,164.039,0,0,0-28.573-1.169q-5.736.231-11.38,1.017c-1.723,1.1-4.207,1.324-7,1.191a118.376,118.376,0,0,0-41.254,16.892,8.521,8.521,0,0,1-5.881,4.087,120.213,120.213,0,0,0-15.342,13.531c-22.534,25.668-7.572,57.042,27.734,72.884,13.33,6.419,16.181,9.877,48.929,10.707,34.791,0,84.8,0,88.394-50.165C190.053,181.739,130.773,163.815,130.773,163.815Z" style="fill:#efc88f"/><path d="M130.773,163.815a146.722,146.722,0,0,0-17.471-1.277c1.518,10.215,7.6,31.954,31.866,52.849,9.547,8.22,9.509,23.274-.367,31.1-5.606,4.439-13.667,7.876-25.236,8.2-29.041.813-85.947-4.435-108.491-24.884,2.654,19.476,18.215,34.109,44.458,45.723,4.529,2.528,16.645,7.433,42.473,7.433,34.791,0,84.8,0,88.394-50.165C190.053,181.739,130.773,163.815,130.773,163.815Z" style="fill:#cc9364"/><path d="M160.993,59.538c-15.041,3.794-27.742,2.676-39.8,23.053-11.956,37.334,8.952,91.843,49.232,112.561,62.282,48.819,115.046,65.806,145.575,24.61a141.615,141.615,0,0,0,9.282-20.111c9.212-24.715-4.464-56.578-18.992-73.159-3-.05-4.552-2.28-5.45-5.49-8.448-8.516-14.007-15.448-29.975-28.21a7.686,7.686,0,0,1-5.96-4.568c-18.829-13.928-43.977-27.781-71.952-30.61a11.377,11.377,0,0,1-7-.47,98.192,98.192,0,0,0-11.85.322,14.082,14.082,0,0,1-8.214,1.08Q163.446,58.975,160.993,59.538Z" style="fill:#efc88f"/><path d="M41.518,205.849a3.462,3.462,0,0,0,6.863-.924,108.82,108.82,0,0,0-5.812-23.173q-3,1.953-5.885,4.081A101.769,101.769,0,0,1,41.518,205.849Z" style="fill:#cc9364"/><path d="M66.713,242.846a3.463,3.463,0,0,1-3.319-2.486c-.862-2.927-3.655-5.7-4.565-6.436-3.482-2.929.785-8.186,4.367-5.375.53.43,5.225,4.367,6.84,9.856A3.478,3.478,0,0,1,66.713,242.846Z" style="fill:#b27952"/><path d="M90.82,163.664c-2.349.326-4.682.731-7,1.2,5.055,13.476,12.722,40,6.849,65.511a3.463,3.463,0,1,0,6.749,1.554C103.573,205.194,96.191,178.223,90.82,163.664Z" style="fill:#b27952"/><path d="M107.583,266.472a3.485,3.485,0,0,1-2.916-5.325c9.361-14.674,8.431-44.7,8.42-45a3.463,3.463,0,0,1,6.921-.242c.045,1.32,1,32.5-9.5,48.965A3.458,3.458,0,0,1,107.583,266.472Z" style="fill:#cc9364"/><path d="M139.664,229.28a3.46,3.46,0,0,1-3.018-1.763c-6.438-11.421-.559-19.726,3.449-22.522,3.76-2.524,7.637,2.972,3.987,5.662-.673.493-6.217,4.922-1.405,13.459A3.484,3.484,0,0,1,139.664,229.28Z" style="fill:#cc9364"/><path d="M165.884,58.558a63.444,63.444,0,0,1-7.075,11.057A3.463,3.463,0,0,0,164.169,74,76.057,76.057,0,0,0,174.1,57.476Q170.016,57.835,165.884,58.558Z" style="fill:#cc9364"/><path d="M128,142.455a3.477,3.477,0,0,1-1.7-6.48,95.472,95.472,0,0,0,17.917-13.151,3.462,3.462,0,0,1,4.7,5.083,102.4,102.4,0,0,1-19.224,14.1A3.449,3.449,0,0,1,128,142.455Z" style="fill:#cc9364"/><path d="M185.946,57.153c-1.67,6.827-7.193,20.066-16.381,30.444a3.463,3.463,0,1,0,5.185,4.591c9.849-11.126,16.457-25.934,18.2-34.566Q189.475,57.27,185.946,57.153Z" style="fill:#cc9364"/><path d="M217.843,102.444a3.451,3.451,0,0,1-2.448-1.014c-1.988-1.989-6.347-.956-7.716-.438-4.261,1.538-6.693-4.743-2.5-6.459.386-.15,9.5-3.605,15.109,2A3.485,3.485,0,0,1,217.843,102.444Z" style="fill:#b27952"/><path d="M207.7,199.869a3.486,3.486,0,0,1-2.625-5.718,158.056,158.056,0,0,0,19.841-29.632c2.173-3.981,8.182-.864,6.135,3.215a165.163,165.163,0,0,1-20.723,30.929A3.454,3.454,0,0,1,207.7,199.869Z" style="fill:#b27952"/><path d="M264.9,88.225a97.993,97.993,0,0,1-10.014,24.79,3.462,3.462,0,0,0,5.984,3.485,103.922,103.922,0,0,0,9.991-23.708Q268,90.521,264.9,88.225Z" style="fill:#cc9364"/><path d="M174.367,199.908a3.479,3.479,0,0,1-2.03-6.269c14.927-10.788,25.674-26.884,25.781-27.046,2.56-3.744,8.225-.028,5.776,3.819-.463.7-11.523,17.291-27.5,28.84A3.455,3.455,0,0,1,174.367,199.908Z" style="fill:#cc9364"/><path d="M301.575,121.68c-.248-.224-.479-.466-.722-.694a51.281,51.281,0,0,1-8.831,16.875,3.462,3.462,0,1,0,5.341,4.407,56.006,56.006,0,0,0,8.922-15.773A57.385,57.385,0,0,0,301.575,121.68Z" style="fill:#b27952"/><path d="M279.346,210.977a3.478,3.478,0,0,1-1.8-6.421,55.851,55.851,0,0,0,22.508-26.865,3.463,3.463,0,0,1,6.576,2.171C306.89,179.8,298.228,202.586,279.346,210.977Z" style="fill:#b27952"/><path d="M263.2,184.73a3.453,3.453,0,0,1-2.685-1.276c-6.112-7.5-2.7-15.878-.039-19.262,2.865-3.519,8.179.629,5.458,4.261-.441.581-4.084,5.678-.052,10.627A3.486,3.486,0,0,1,263.2,184.73Z" style="fill:#cc9364"/><path d="M247.689,226.19a3.463,3.463,0,0,1-3.462-3.452c-.018-5.963-4-7.622-4.454-7.791-4.289-1.571-2.1-7.909,2.257-6.546.37.125,9.087,3.181,9.122,14.316A3.464,3.464,0,0,1,247.689,226.19Z" style="fill:#b27952"/><path d="M117.694,192.533c3.39,3.157-1.22,8.277-4.714,5.238C109.591,194.614,114.2,189.494,117.694,192.533Z" style="fill:#cc9364"/><path d="M163.846,106.452c3.389,3.157-1.22,8.277-4.714,5.237C155.742,108.532,160.352,103.412,163.846,106.452Z" style="fill:#cc9364"/><path d="M250.046,131.751c3.39,3.157-1.22,8.277-4.714,5.237C241.943,133.832,246.552,128.712,250.046,131.751Z" style="fill:#cc9364"/><path d="M280.873,234.613c-26.763,5.765-44.293-3.227-54.948-13.168a150.658,150.658,0,0,0-41.7-27.966c-35.165-15.538-45.954-40.411-49.151-51.876a68.212,68.212,0,0,0-5.347-13.261c-10.739-20.523-10.46-36.368-8.527-45.747-9.983,19.744-10.219,42.442-4.963,55a65.828,65.828,0,0,1,3.139,9.936c2.86,12.815,15.115,43.562,58.291,62.634a205.766,205.766,0,0,1,45.845,28c25.644,19.9,74.353,20.283,92.473-18.413C307.222,225.921,295.77,231.405,280.873,234.613Z" style="fill:#cc9364"/><path d="M303.191,118.263q-.67-.473-1.355-.938c-28.313-34.279-91.339-75.113-141.62-61.16-16.524,3.958-31.14,3.56-43.322,27.355-10.107,22.55-8.63,43.379-3.876,55.355,3.283,8.009,2.765,11.417,6.537,20.434C46.9,150.491-51.579,228.683,51.523,277.068c2.684,2.051,14.487,9.349,46.485,9.349,40.673,1.779,98.977-5.729,91.414-66.669a208.912,208.912,0,0,1,31.936,21.131c13.593,10.848,34.884,16.051,53.3,13.359,29.669-3.607,44.108-27.53,53.864-53.378A70.752,70.752,0,0,0,303.191,118.263ZM182.945,232.543c-3.36,46.949-50.509,46.949-84.94,46.949-32.472,0-42.338-7.971-42.39-8.014C-33.269,232.1,39.533,168.032,102.34,166.106a177.566,177.566,0,0,1,20.588.361c6.836,15.031,28.969,37.826,58.724,49.354A54.888,54.888,0,0,1,182.945,232.543Zm139.092-34.1a128.916,128.916,0,0,1-15.291,29.483c-20.3,27.352-58.55,24-81.085,7.531A210.485,210.485,0,0,0,179.064,207c-51.978-25.484-51.784-49.613-59.611-70.678-8.525-20.677-.5-66.78,30.805-70.995,61.1-19.385,119.422,25.356,146.581,56.816C321.8,138.559,332.717,170.073,322.037,198.441Z" style="fill:#2b2b2b"/></svg>