<svg id="icons" xmlns="http://www.w3.org/2000/svg" viewBox="0 0 340 340"><title>10_cauliflower</title><path d="M39.107,185.262S5.3,130.1,63.307,102.7c0,0-1.668-32.244,37.988-36.3h17.883s8.156-29.893,47.494-30.6c18.372-.332,29.872,9.581,36.911,20.242,13.658-5.753,51.622-7.633,60.631,32.67l1.721,17.2s43.99,13.521,34.382,62.987l-8.541,95.729-32.384,18.15c-91.162,8.552-160.274-7.462-209.253-45.908Z" style="fill:#ffeec8"/><path d="M300.317,168.892c4.79-24.658-3.74-40.383-13.5-49.954,6.847,15.551,2.963,38.986-12.644,36.434-9.768-1.8-19.089,2.219-19.089,2.219-8.292-5.038-16.918-4.245-22.714-2.682a1.742,1.742,0,0,0,.1,3.386,22.09,22.09,0,0,1,14.166,9.239,6.538,6.538,0,0,0,5.835,2.938,34.614,34.614,0,0,1,7.489.322,5.7,5.7,0,0,1,4.306,8.006c-6.017,13.246-5.046,29.393-2.818,39.158,8.844,38.78-41.162,50.346-49.17-1.832-6.682-43.539-45.611-56.169-45.611-56.169s-7.262,1.452-16.722,13c-34.7-15.956-58.637-1.538-70.881,10.083A9.664,9.664,0,0,1,64.007,180.9a104.191,104.191,0,0,0-9.6-13.773c-22.4-26.07-6.589-54.652-6.341-55.071-36.087,28.921-8.956,73.205-8.956,73.205l11.031,51.6c48.979,38.446,118.091,54.46,209.253,45.908l32.384-18.15Z" style="fill:#eab198"/><path d="M162.957,289.431s17.562-19.756,68.539-12.195c36.2,5.689,55.4-16.679,49.979-43.811-11.449-39.735,9.334-72.2,38-73.416a2.385,2.385,0,0,1,2.067,3.8c-14.318,21.76-7.5,53.08-8.143,72.087-4.151,54.59-49.751,59.535-75.916,57.8a90.636,90.636,0,0,0-35.627,5.023c-21.89,7.576-36.5,5.424-36.5,5.424Z" style="fill:#80b297"/><path d="M21.664,156.986c12.872,6.5,39.77,25.788,35.592,72.323L141,273.753l24.354,30.382s-19.8,0-33.866-6.772a33.256,33.256,0,0,0-21.624-2.326c-75.447,17.992-100.439-38.781-88.717-89.86,0,0,5.381-26.664-2.746-45.068A2.392,2.392,0,0,1,21.664,156.986Z" style="fill:#80b297"/><path d="M142.242,182.994c-21.916-12.641-55.988,2.627-59.925,23.569,0,0-26.08-7.4-33.09,25.315-3.433,16.023,1.355,27,7.135,34.031,0,0,18.566,19.932,48.856,6.888,5.388-2.321,13.449-1.863,19.167-.551,6.24,1.432,10.366,1.829,17.073-6.609Z" style="fill:#ffeec8"/><path d="M123.571,276.144c6.239,1.432,14.749,1.168,21.456-7.27,12.072-15.188,8.567-76.328,8.567-76.328A35.653,35.653,0,0,0,142.238,183c-4.28,5.3-24.133,31.563-26.468,65.165-1.558,23.122-35.429,35.771-59.4,17.738a38.925,38.925,0,0,0,13.109,10.37,49.752,49.752,0,0,0,36.9.783A29.686,29.686,0,0,1,123.571,276.144Z" style="fill:#eab198"/><path d="M173.652,302.385a17.806,17.806,0,0,1-17.161-.973c-9.89-6.195-25.233-20.4-27.162-49.512-2.214-33.4,21.1-62.153,31.96-73.628a8.585,8.585,0,0,1,11.71-.685C207.2,202.2,222.5,277.775,173.652,302.385Z" style="fill:#80b297"/><path d="M82.317,206.563a22.245,22.245,0,0,1,13.068,11.349,1.974,1.974,0,0,0,3.743-.66c.665-7.1-1.052-17.342-14.765-21.9Z" style="fill:#eab198"/><path d="M264.208,88.709c-25.391-1.358-36.018,20.047-36.018,20.047l9.322,7.278c13.052-17.639,28.423-10.129,28.423-10.129A77.314,77.314,0,0,0,264.208,88.709Z" style="fill:#eab198"/><path d="M212.313,98.44c30.982-2.29,36.3,17.753,34.1,34.83a2.975,2.975,0,0,1-5.857.245c-3.084-14.018-11.884-24.646-28.785-29.221A2.977,2.977,0,0,1,212.313,98.44Z" style="fill:#eab198"/><path d="M145.683,91.5a44.747,44.747,0,0,0-27.13-.648,67.255,67.255,0,0,1,.625-24.451,95.533,95.533,0,0,0-17.882.007c-2.642,12.153,1.013,23.3,4.456,30.405-6.12,4.485-10.343,12.231-13.184,19.788a3.721,3.721,0,0,0,6.3,3.725C111.2,105.86,126.191,99.082,144.55,98.775A3.729,3.729,0,0,0,145.683,91.5Z" style="fill:#eab198"/><path d="M21,254.105a3.463,3.463,0,0,1-3.409-2.884c-1.817-10.7,1.556-21.53,10.023-32.181a25.272,25.272,0,0,0,5.205-16.648c-.362-4.516,6.265-5.269,6.884-.751a31.9,31.9,0,0,1-6.668,21.707c-7.191,9.046-10.09,18.034-8.618,26.715A3.471,3.471,0,0,1,21,254.105Z" style="fill:#3e6a51"/><path d="M184.555,248.313a3.462,3.462,0,0,0-4.362,2.225c-.6,1.843-2.383,5.522-7.621,9.447a19.4,19.4,0,0,0-2.437,2.181V210.918a3.463,3.463,0,0,0-6.925,0v19.3a33.946,33.946,0,0,0-13.3-10.869,3.463,3.463,0,0,0-2.606,6.416c.651.269,15.905,6.815,15.905,26.813v51.553a3.463,3.463,0,1,0,6.925,0v-23c.189-4.008,1.276-11.632,6.589-15.614C183.066,260.887,190.838,250.687,184.555,248.313Z" style="fill:#3e6a51"/><path d="M289.426,285.975a3.479,3.479,0,0,1-2.094-6.223c11.516-8.72,14.234-24.618,7.652-44.766-7.544-23.095.122-34.47.452-34.943,2.642-3.652,8.191.129,5.7,3.929-.148.231-5.893,9.511.429,28.864C309.159,255.6,305.626,277.9,289.426,285.975Z" style="fill:#3e6a51"/><path d="M78.791,143.11a3.523,3.523,0,0,1-7.046,0A3.523,3.523,0,0,1,78.791,143.11Z" style="fill:#eab198"/><path d="M99.167,130.765a3.523,3.523,0,0,1-7.046,0A3.523,3.523,0,0,1,99.167,130.765Z" style="fill:#eab198"/><path d="M98.568,151.74a3.524,3.524,0,0,1-7.047,0A3.524,3.524,0,0,1,98.568,151.74Z" style="fill:#eab198"/><path d="M187.387,82.209a3.523,3.523,0,0,1-.257-7.041A3.523,3.523,0,0,1,187.387,82.209Z" style="fill:#eab198"/><path d="M200.465,102.122a3.523,3.523,0,0,1-.256-7.041A3.523,3.523,0,0,1,200.465,102.122Z" style="fill:#eab198"/><path d="M179.482,102.287a3.524,3.524,0,0,1-.256-7.042A3.524,3.524,0,0,1,179.482,102.287Z" style="fill:#eab198"/><path d="M226.3,199.158a3.524,3.524,0,0,1-6.923-1.316A3.524,3.524,0,0,1,226.3,199.158Z" style="fill:#eab198"/><path d="M248.616,190.832a3.523,3.523,0,0,1-6.922-1.315A3.523,3.523,0,0,1,248.616,190.832Z" style="fill:#eab198"/><path d="M189.932,238.092a3.524,3.524,0,0,1-6.923-1.315A3.524,3.524,0,0,1,189.932,238.092Z" style="fill:#3e6a51"/><path d="M85.469,237.82a3.524,3.524,0,0,1-6.923-1.315A3.524,3.524,0,0,1,85.469,237.82Z" style="fill:#eab198"/><path d="M100.281,249.715a3.523,3.523,0,0,1-6.922-1.315A3.523,3.523,0,0,1,100.281,249.715Z" style="fill:#eab198"/><path d="M17.772,204.4c-12.827,54.852,16.49,112.563,92.845,94.014a29.914,29.914,0,0,1,19.371,2.067c13.967,6.723,32.772,7.094,35.136,7.113,10.761.751,20.174.119,37.864-5.611a86.864,86.864,0,0,1,34.271-4.843c38.469,3.331,77.1-13.592,79.594-60.989a65.662,65.662,0,0,0-.185-11.419c-2.3-23.715-.741-52.437,10.511-61.929a3.488,3.488,0,0,0-1.708-6.069,43,43,0,0,0-20.485,3.129c1.774-31.06-16.212-48.005-35.605-56.385-.244-44.765-35.253-60.912-64.414-51.526-27.253-37.638-80.253-14.539-88.124,10.8-31.387-2.848-55.57,11.772-56.962,37.762-29.7,14.839-35.347,36.919-33.806,54.907-7.27-3.727-11.521-6.364-13.81-3.236a3.462,3.462,0,0,0-.006,4.024C23.656,172.221,18.137,202.489,17.772,204.4Zm140.554,94.074c-8.745-5.479-23.69-18.844-25.543-46.805-2.37-35.767,26.423-66.611,34.252-74.294A84.221,84.221,0,0,1,201.157,248.9c-1.2,32.23-18.688,45.392-29.005,50.369A14.436,14.436,0,0,1,158.326,298.476Zm-28.183-25.163a20.892,20.892,0,0,1-5.8-.543,33.082,33.082,0,0,0-19.2,1.05A46.753,46.753,0,0,1,71,273.166c-1.265-.561-24.576-10.971-18.392-40.562,2.107-9.83,6.2-16.654,12.174-20.282,7.824-4.753,16.514-2.449,16.586-2.429a3.482,3.482,0,0,0,4.3-2.487c4.912-22.977,43.522-34.3,61.051-17.107C130.917,210.731,118.88,244.065,130.143,273.313ZM317.5,163.6c-10.627,16.722-9.069,47.912-7.723,61.8,4.646,54.476-42.779,68.5-72.059,64.829a93.76,93.76,0,0,0-36.994,5.209,104.362,104.362,0,0,1-16.036,4.2,55.821,55.821,0,0,0,16.464-20.348,136.225,136.225,0,0,1,29.836,1.372c38.3,5.567,57.211-16.642,54.612-43.981-2.209-10.485-4.57-22.35-3.858-30.33C283.859,178.347,304.765,163.814,317.5,163.6ZM64.786,105.83a3.48,3.48,0,0,0,1.979-3.3c.064-21.445,19.263-35.142,48.157-32.95a47.883,47.883,0,0,0,.262,19c-12.713,6.164-17.832,18.59-18.053,19.141-1.611,4.222,4.615,6.779,6.422,2.588,6.206-13.928,22.209-24.129,43.679-14.164A3.462,3.462,0,0,0,150,89.8c-10.284-4.484-19.759-5.672-28.252-3.579-3.532-16.454,4.235-45.272,44.988-46.961,14.153-.263,25.6,6.032,33.959,18.689a3.463,3.463,0,0,0,4.155,1.315c19.921-7.862,55.844-1.782,57.528,42.166-7.6-1.31-18.307-.288-24.836,9.162a34.675,34.675,0,0,0-14.137-6.8,3.462,3.462,0,1,0-1.142,6.83c.176.03,17.664,3.177,20.62,22.968.754,4.493,7.448,3.483,6.849-1.024a34.619,34.619,0,0,0-7.163-16.953c11.489-20.541,61.742,2.6,55.077,48.149-6.108,4.044-12.122,10.305-16.754,19.945-4.359-14.769-20.7-17.911-30.408-16.268-17.459-28.4-51.93-2.933-42.993,3.717a3.467,3.467,0,0,0,4.762-1.112c9.258-13.45,26.413-10.986,33.3,2.7a3.47,3.47,0,0,0,3.894,1.878c12.816-2.5,28.225,1.837,26.153,24.654-1.9,9.392-.474,23.009,2.909,36.925-13.42,16.306-34.694,8.714-35.667,8.354a3.462,3.462,0,0,0-2.431,6.484,48.118,48.118,0,0,0,15.1,2.4,36.276,36.276,0,0,0,23.341-7.84c-3.083,22.272-21.232,32.216-46.853,28.217a147.509,147.509,0,0,0-27.95-1.63,80.371,80.371,0,0,0,4.023-23.028c2.29-52.424-39.986-84.137-43.7-78.8A126.608,126.608,0,0,0,150.94,184.8c-19.61-18.661-62.212-8.988-71.043,17.807-4.169-.627-12.959-.274-19.618,4.385-4.008-24.768-14.507-36.87-26.56-46.533C29.334,136.022,39.784,117.641,64.786,105.83Zm-42.1,55.657c10.988,6.282,28.871,21.049,31.267,51.306-3.767,4.659-6.486,10.794-8.107,18.36-7.267,33.909,20.026,47.268,22.144,48.245A51.489,51.489,0,0,0,89,283.7a52.159,52.159,0,0,0,18.606-3.411,26.2,26.2,0,0,1,15.193-.774,26.69,26.69,0,0,0,10.154.454,60.172,60.172,0,0,0,14.2,18.748c-14.814-2.739-21.2-10.831-38.032-7.063-72.556,17.593-95.653-37.023-84.626-85.578C24.775,204.621,29.575,180.585,22.683,161.487Z" style="fill:#2b2b2b"/></svg>