<svg id="icons" xmlns="http://www.w3.org/2000/svg" viewBox="0 0 340 340"><title>12_aloe vera</title><path d="M211.02,67.7c-19.322,37.911-41.906,98.656-38.781,171.57l28.084,31.969,16.939-81.9s-6.491-56.723,5.9-117.4C224.676,64.531,214.455,60.963,211.02,67.7Z" style="fill:#5b723d"/><path d="M89.784,20.846c-1.705-7.085,8.146-10.739,11.495-4.267,51.073,94.528,47.393,173.088,50.1,286.871,0,0-45.219,2.539-55.375-78.291C96,225.159,113.19,118.109,89.784,20.846Z" style="fill:#719b56"/><path d="M177.573,111.315c.931-7.2-9.1-9.909-11.924-3.217A266.2,266.2,0,0,0,145.11,224.707c.981,19.715.984,35.294.416,47.59a13.239,13.239,0,0,0,2.006,7.663c7.057,11.2,15,19.808,25.937,19.632l19.37-36.838c-1.958-9.32-7.918-47.5-11.04-55.729C170.9,176.084,173.263,143.444,177.573,111.315Z" style="fill:#a9db89"/><path d="M190.524,326.8h36.158c27.278.435,45.793-36.25,54.641-77.912,5.6-28.34,19.409-53.871,38.726-75.351,5.054-5.725-1.429-14.3-8.31-10.982-25.107,12.089-65.144,51.682-85.588,116.64Z" style="fill:#719b56"/><path d="M193.565,300.17c4.593-6.975,7.846-16.354,8.78-28.929a248.442,248.442,0,0,0-15.1-49.845q-1.938-4.489-3.608-9.073c.486,12.679.587,45.352-8.979,74.9a7.37,7.37,0,0,1-10.327,4.284c-9.618-4.884-16.794-11.546-18.8-19.209-2.159,36.161-9.658,45.222-9.658,45.222l22.466,1.683c12.049-.946,26.222-5.352,35.229-19.028l.007,0Z" style="fill:#719b56"/><path d="M133.05,326.8H95.419C65,325.855,56.361,299.019,46.95,268.312a63.856,63.856,0,0,0-8.011-18.1A141.318,141.318,0,0,0,20.2,227.322c-5.319-5.317.625-14.038,7.516-11.023,17.5,7.657,38.086,21.107,51,44.355Z" style="fill:#5b723d"/><path d="M151.377,326.8H133.05c-45.1-.662-73.082-56.339-69.953-125.29a294.108,294.108,0,0,0-5.506-73.583A382.869,382.869,0,0,0,40.975,70.755c-2.913-7.716,7.434-13.378,12.378-6.776A206.671,206.671,0,0,1,94.372,177.963S97.665,282.491,166.7,303.336C165.282,314.541,161.582,323.053,151.377,326.8Z" style="fill:#a9db89"/><path d="M151.377,326.8c20.91-4.3,31.96-20.5,31.96-20.5a101.04,101.04,0,0,1-16.639-2.97C162.392,312.035,158.269,320.347,151.377,326.8Z" style="fill:#719b56"/><path d="M151.377,326.8h39.147a26.761,26.761,0,0,0,21.32-10.482c10.193-13.4,24.808-41.134,26.884-91.5a296.628,296.628,0,0,1,18.977-94.151c10.128-26.4,25.192-55.7,47.167-79.26,4.69-5.028-1.44-12.65-7.386-9.2-56.508,30.168-106.576,119.7-106.058,197.867C190.533,270.8,181.773,313.9,151.377,326.8Z" style="fill:#a9db89"/><path d="M118.731,149.563a3.463,3.463,0,0,1-3.42-2.95l-.436-2.912a3.463,3.463,0,0,1,6.849-1.025l.435,2.912A3.47,3.47,0,0,1,118.731,149.563Z" style="fill:#5b723d"/><path d="M123.268,190.988a3.462,3.462,0,0,1-3.462-3.462v-3.455a3.462,3.462,0,0,1,6.924,0v3.454A3.462,3.462,0,0,1,123.268,190.988Z" style="fill:#5b723d"/><path d="M87.761,228.422c-3.425-.12-3.474-3.287-3.99-5.875a3.462,3.462,0,0,1,6.8-1.317l.595,3.071A3.473,3.473,0,0,1,87.761,228.422Z" style="fill:#719b56"/><path d="M85.139,262.6c-3.112-.026-3.47-3.06-4.241-5.39a3.462,3.462,0,1,1,6.6-2.09l.941,2.971A3.479,3.479,0,0,1,85.139,262.6Z" style="fill:#719b56"/><path d="M109.955,288.945c-1.977.118-3.112-1.809-4.095-3.247a3.462,3.462,0,1,1,5.647-4.007l1.269,1.788A3.485,3.485,0,0,1,109.955,288.945Z" style="fill:#719b56"/><path d="M170.342,238.609c-3.635-.092-3.513-3.848-4.152-6.475a3.463,3.463,0,0,1,6.783-1.4l.764,3.711A3.474,3.474,0,0,1,170.342,238.609Z" style="fill:#719b56"/><path d="M163.469,270.48a3.462,3.462,0,0,1-3.462-3.462v-3.274a3.462,3.462,0,0,1,6.924,0v3.274A3.462,3.462,0,0,1,163.469,270.48Z" style="fill:#719b56"/><path d="M217.572,195.358a3.474,3.474,0,0,1-3.391-4.177l.588-2.794a3.462,3.462,0,0,1,6.776,1.427C221.029,192.338,220.84,195.247,217.572,195.358Z" style="fill:#719b56"/><path d="M222.422,248.516a3.462,3.462,0,0,1-3.462-3.463v-2.2a3.462,3.462,0,1,1,6.924,0v2.2A3.462,3.462,0,0,1,222.422,248.516Z" style="fill:#719b56"/><path d="M204.853,283.808a3.473,3.473,0,0,1-3.4-4.12l.441-2.279a3.462,3.462,0,1,1,6.8,1.315l-.441,2.28A3.463,3.463,0,0,1,204.853,283.808Z" style="fill:#719b56"/><path d="M266.562,250.769a3.48,3.48,0,0,1-3.248-4.663l.832-2.252a3.462,3.462,0,0,1,6.5,2.4C269.9,248.381,269.26,250.762,266.562,250.769Z" style="fill:#5b723d"/><path d="M251.678,286.074a3.483,3.483,0,0,1-3-5.18l1.293-2.265a3.462,3.462,0,1,1,6.013,3.434l-1.294,2.265A3.46,3.46,0,0,1,251.678,286.074Z" style="fill:#5b723d"/><path d="M36.034,252.1a60.347,60.347,0,0,1,7.574,17.118c4.652,17.212,10.567,31.49,17.582,42.436a40.429,40.429,0,0,0,34.229,18.612H226.682a36.465,36.465,0,0,0,26.205-11.119c38.762-40.572,21.7-92.533,69.758-143.314,7.574-8.284-2.28-21.486-12.408-16.393-18.893,9.1-46.745,33.516-68.525,73.915.758-14.752,1.6-29.913,4.02-44.255H252.8c4.551-.077,4.55-6.848,0-6.924h-5.889a286.768,286.768,0,0,1,7.137-29.924h5.884c4.551-.078,4.55-6.848,0-6.925h-3.73c2.787-8.639,6.1-17.271,9.665-25.534h5.655c4.552-.078,4.551-6.848,0-6.925h-2.559C279.781,89.4,292.66,69.574,307.4,53.769a9.423,9.423,0,0,0-11.657-14.553c-21.055,12.222-50.616,36.129-75.617,81.447a372.76,372.76,0,0,1,6.425-48.028,9.951,9.951,0,0,0-18.619-6.505,372.944,372.944,0,0,0-30.485,83.123c.793-13.146,2.169-26.569,3.554-37.478a9.7,9.7,0,0,0-18.55-5.012,268.7,268.7,0,0,0-14.022,43.272c-7.653-55.453-27.611-103.222-44.08-135.047a9.638,9.638,0,0,0-17.935,6.668,412.8,412.8,0,0,1,8.32,47.068c-3.041.29-7.667-.614-7.722,3.862a3.463,3.463,0,0,0,3.455,3.286c.06,0,.12,0,.18,0l4.867-.249c1.062,10.01,1.806,19.9,2.294,29.514l-5.093-.162a3.462,3.462,0,0,0-.22,6.921l5.622.179c.885,22.8.391,43.875-.571,61.3A210.728,210.728,0,0,0,56.124,61.9,10.588,10.588,0,0,0,37.736,71.978,369.1,369.1,0,0,1,56.066,138.6c-3.013.416-7.7-.26-7.54,4.2a3.466,3.466,0,0,0,3.776,3.116l4.829-.462q1.627,11.459,2.331,23.292H53.74a3.463,3.463,0,0,0,0,6.925h6.041c.813,18.169-1.513,39.62.458,56.89a120.54,120.54,0,0,0-31.13-19.436,10.248,10.248,0,0,0-11.351,16.644A137.778,137.778,0,0,1,36.034,252.1Zm277.207-86.422a3.559,3.559,0,0,1,4.213,5.572c-19.54,21.609-33.934,48.428-39.525,76.958-7.343,36.447-20.388,56.087-30.038,66.145-10.625,11.317-24.175,8.753-38.041,8.988,14.34-14.987,22.876-33.084,29.559-69.546C259.8,207.659,291.186,176.3,313.241,165.675ZM299.223,45.205a2.494,2.494,0,0,1,3.117,3.841c-19.2,20.18-36.616,50.542-47.867,80.381a299.728,299.728,0,0,0-19.205,95.249c-2.09,50.717-17.3,77.873-26.179,89.546a23.412,23.412,0,0,1-18.565,9.116h-26.53c26.047-20.355,30.329-63.782,30.892-83.162C193.937,162.815,245.268,73.494,299.223,45.205Zm-85.118,24.07a3.022,3.022,0,0,1,5.666,1.974,391.215,391.215,0,0,0-7.373,64.5,254.944,254.944,0,0,0-22.911,82.024A161.47,161.47,0,0,1,178.8,178.944,361.857,361.857,0,0,1,214.105,69.275Zm-65.537,155.26a263.936,263.936,0,0,1,20.266-115.078,2.766,2.766,0,0,1,5.3,1.432c-6.391,46.032-6.048,78.061,14.114,122.24-.882,17.158-.9,41.979-14.871,68.269a73.809,73.809,0,0,1-25.887-10.6C149.559,274.089,149.925,251.817,148.568,224.535ZM93.149,20.036A2.711,2.711,0,0,1,98.2,18.17c18.452,35.66,41.358,91.632,45.754,155.845-5.638,31.81.954,83.763-2.9,112.057-19.711-14.751-34.917-50.122-39.471-77.336C107.389,166.591,107.821,74.3,93.149,20.036Zm-48.935,49.5a3.659,3.659,0,0,1,6.367-3.477A203.937,203.937,0,0,1,90.912,178.091c.454,41.5,22.423,118.563,78.487,129.514a46.626,46.626,0,0,1-18.761,15.733c-19.918.3-36.276,1.21-51.459-14.022-16.4-16.555-35.37-48.669-32.623-107.645q.7-14.985.011-29.583C65.025,136.783,56.478,102.428,44.214,69.532Zm-21.968,151.1a3.17,3.17,0,0,1,4.087-1.164,109.955,109.955,0,0,1,35.2,23.848c6.8,40.455,22.495,66.128,44.86,80.019-38.64,3.229-45.4-22.073-56.1-55.929a67.225,67.225,0,0,0-8.448-19.079,144.764,144.764,0,0,0-19.191-23.457A3.176,3.176,0,0,1,22.246,220.635Z" style="fill:#2b2b2b"/></svg>