<svg id="icons" xmlns="http://www.w3.org/2000/svg" viewBox="0 0 340 340"><title>13_tomato</title><path d="M62.671,120.668C45.72,141.032,29.734,171.755,30.7,214.729c1.328,81.3,93.492,114.6,155.005,111.673l87.661-71.5-9.621-117.99L166.561,90.088Z" style="fill:#f7616c"/><path d="M296.561,254.675c22.736-47.033,11.16-105.352-24.589-143.1a77.921,77.921,0,0,0-58.82-24.994L100.846,88.543s-19.66,9.893-38.17,32.128c7.217,2.967,19.895,5.08,37.036-4.031,11.722-6.231,27.961-7.612,39.9-7.631a125.343,125.343,0,0,0-18.734,32.88s-2.015,26.763-33.323,32.545c0,0,38.294,18.667,58.635-26.216,0,0,9.341-17.977,27.188-17.85,32.552-2.149,68.041,22.515,76.461,61.143,15.516,91.851-66.675,123.322-133.177,124.59,25.935,8.88,52.009,11.675,69.036,10.3C218.858,323.726,272.225,305.26,296.561,254.675Z" style="fill:#b73d49"/><path d="M170.619,86.777c-15.575-10.849-39.136-26.2-64.922-12.7A236.793,236.793,0,0,0,84.054,86.776c-14.814,9.663-34.24,5.434-49.748-5.249,0,0,1.894,25.335,38.122,28a30.142,30.142,0,0,0,15.426-3c11-5.37,34.849-14.937,52.557-7.319,0,0-24.592,2.763-33.987,35.092-5.314,18.288-21.505,20.837-34.565,19.6,0,0,18.815,22.675,45.065,5.819s16.027-46.144,59.684-46.144c0,0,47.527-.829,79.579,47.526,0,0,.856-49.608-42.372-64.418,0,0,27.96-12.248,60.589,8.276,16.486,10.444,37.284-3.858,34.836-22.884-8.748,9.753-21.984,14.938-34.575,5.718C256.77,74.1,214.329,50.058,170.619,86.777Z" style="fill:#80b297"/><path d="M174.067,13.233,181.481,19a10.976,10.976,0,0,1,3.775,11.759,94.105,94.105,0,0,0-.174,51.494,9.835,9.835,0,0,1-6.4,11.985c-6.034,2.659-20.5,1.152-21.9-8.572C154.961,73.879,151.981,39.193,174.067,13.233Z" style="fill:#3e6a51"/><path d="M101.528,227.245c6.184,12.7,3.223,26.88-6.614,31.669-24.072,10.449-45.459-33.5-22.394-45.994C82.357,208.131,95.344,214.545,101.528,227.245Z" style="fill:#ffe9e9"/><path d="M27.236,214.807c-.906,81.377,98.805,119.7,158.745,115.044,109.531-8.013,169.9-130.735,88.111-221.064,16.208,9.189,37.915-2.9,38.583-21.581-.087-2.7,1.084-7.105-2.236-8.373-3.707-1.05-4.178,2.325-9.873,6.3a19.651,19.651,0,0,1-23.8-.086C253.8,66.388,216.135,55.594,186.331,72.128a91.269,91.269,0,0,1,2.248-40.4,14.367,14.367,0,0,0-4.973-15.462L176.193,10.5a3.463,3.463,0,0,0-4.763.489c-16.758,19.7-19.771,43.844-19.347,60.653-26.168-13.865-47.11-3.012-69.926,12.239-13.856,9.366-33.642,3.611-45.8-5.145a3.486,3.486,0,0,0-5.5,3.05c.02.265,2.273,25.045,34.681,30.411C46.51,132.592,26.141,165.963,27.236,214.807ZM174.623,18.051c3.926,3.11,9.032,5.761,7.31,11.736a97.8,97.8,0,0,0-.181,53.412,6.365,6.365,0,0,1-4.167,7.755c-5.892,2.082-15.9,1.168-17.382-5.817C158.713,75.494,155.519,42.94,174.623,18.051ZM40.479,89.311c13.665,6.781,32.063,9.641,45.472.361,22.931-15.106,40.849-25.01,66.607-10,.489,6.525,1.318,12.748,7.361,16.071,12.719,7.726,34.074.969,27.911-16.593,35.591-19.189,68.261-1.209,84.732,11.4a26.6,26.6,0,0,0,32.683-.276c-2.695,12.355-18.4,18.855-29,11.761-30.456-19.157-56.865-11.134-62.668-8.974a36.507,36.507,0,0,0-7.615-1.08c-4.546.08-4.556,6.844,0,6.924,24.721,2.476,41.751,26.28,45.544,50.031-32.046-39.07-73.1-38.852-74.9-38.817-29.007,0-36.4,12.953-43.551,25.48-10.259,21.187-32.7,34.741-51.774,21.87,14.626-1.182,24.588-8.855,28.466-22.2,8.586-29.547,30.151-32.507,31.048-32.617a3.477,3.477,0,0,0,.982-6.621c-18.64-8.019-42.738,1.186-55.443,7.387a26.712,26.712,0,0,1-13.653,2.661C52.739,104.609,44.156,95.989,40.479,89.311ZM74.325,113.07a33.725,33.725,0,0,0,15.048-3.429c7.44-3.631,23.839-10.592,38.65-9.715-8.477,4.555-19.281,14-24.923,33.411-3.763,12.945-14.158,18.707-30.916,17.121a3.462,3.462,0,0,0-2.99,5.658c.151.182,11.3,13.292,28.37,13.291,18.688.181,34.293-15.7,41.506-30.378,7.013-12.284,12.552-21.987,37.593-21.988.41-.008,46.08-.123,76.639,45.978,1.7,2.806,6.423,1.454,6.347-1.853.455-20.268-11.14-52.156-35.385-63.731a64.625,64.625,0,0,1,23.878.467c51.694,29.03,70.827,103.649,45.3,155.272C247.522,338.1,139.77,342.9,65.989,283.611,10.788,237.361,36.581,146.029,74.325,113.07Z" style="fill:#2b2b2b"/></svg>