<svg id="icons" xmlns="http://www.w3.org/2000/svg" viewBox="0 0 340 340"><title>14_green and red pepper</title><path d="M177.64,108.492c3.866-53.507-40.7-80.251-82.053-53.542-44.7-42.207-81.682,8.309-82.053,53.542,0,9.528-3.446,76.509,26.769,99.312a20.748,20.748,0,0,0,29.526-4.173h51.517a20.748,20.748,0,0,0,29.526,4.173C181.087,185,177.64,118.02,177.64,108.492Z" style="fill:#719b56"/><path d="M100.772,16.049l6.171,5.532a10.388,10.388,0,0,1,3.188,10.177,80.488,80.488,0,0,0,.213,37.319H87.563S83.16,28.875,100.772,16.049Z" style="fill:#3e6a51"/><path d="M138.588,73.759c-8-11.713-22.737-15.961-35-9.595a16.243,16.243,0,0,1-15.691.168C58.908,51.577,41.888,80.978,42.625,111.908V153.03a110.8,110.8,0,0,0,7.567,40.744c5.63,13.7,16.994,35.109,34.373,35.305h22.044a21.453,21.453,0,0,0,13.042-4.4c20.811-17.289,28.52-45.647,28.9-71.648V111.908C148.894,93.647,143.843,81.454,138.588,73.759Z" style="fill:#a9db89"/><path d="M226.062,147.4s-9.264-40.6,21.329-51.029c31.68-10.8,41.527,27.461,41.527,27.461Z" style="fill:#b73d49"/><path d="M326.227,184.689c4.344-65.672-53.2-90.932-100.165-61.754,0,0-38.008-36.09-69.7-7.345a92.251,92.251,0,0,0-30.47,69.1c0,10.99-4.208,88.244,32.677,114.544,11.387,8.169,27.433,6.291,36.044-4.812h62.888c8.612,11.1,24.656,12.981,36.044,4.812C330.435,272.933,326.227,195.679,326.227,184.689Z" style="fill:#b73d49"/><path d="M243.982,52.862c2.834,5.183,7.5,10.021,3.41,16.039-5.752,8.267-15.8,29.414-7.872,69.683l-25.658,1.291S205.384,73.388,243.982,52.862Z" style="fill:#3e6a51"/><path d="M278.554,144.629c-9.842-13.636-28.11-18.486-43.109-10.874a20.845,20.845,0,0,1-19.156-.194c-34.46-13.835-55.654,18.069-54.88,55.068v47.429a121.609,121.609,0,0,0,9.237,46.994c7.035,16.231,21,40.534,41.961,40.72h26.91a27.2,27.2,0,0,0,15.921-5.075c25.082-19.619,34.842-52.268,35.278-82.637V188.63C291.136,167.567,284.97,153.5,278.554,144.629Z" style="fill:#f7616c"/><path d="M216.1,179.775c-3.453,10.98-13.291,17.667-21.975,14.937-20.528-7.44-8.581-45.412,12.5-39.762C215.31,157.68,219.551,168.8,216.1,179.775Z" style="fill:#ffe9e9"/><path d="M90.593,106.052c-2.953,9.392-11.367,15.112-18.8,12.776C54.24,112.465,64.459,79.987,82.492,84.82,89.919,87.155,93.546,96.661,90.593,106.052Z" style="fill:#eaffdc"/><path d="M38.217,210.567a24.365,24.365,0,0,0,19.515,4.626c6.817,9.147,15.054,17.443,26.834,17.348h22.043a25.367,25.367,0,0,0,17.1-6.688c3.827,41.877,21.3,86.395,56.523,81.276,8.356,10.716,18.327,20.221,32.38,20.1,27.713-.6,40.183,5.2,59.283-20.1,44.409,5.874,60.241-62.242,57.8-122.445,1.967-20.389-3.819-59.715-42.658-74.3-10.139-18.89-28.248-24.061-45.848-15.144,1.94-12.137,5.96-19.927,9.051-24.369a12.4,12.4,0,0,0,.517-13.3l-3.78-6.463a3.463,3.463,0,0,0-4.614-1.309c-22.086,11.745-29.613,37.3-31.876,58.257-10.15-5.214-20.035-7.508-29.292-6.912C183.225,68.459,153.761,29.5,111.741,43.8c.5-9.806,5.562-17.425-2.487-24.8l-6.17-5.533a3.463,3.463,0,0,0-4.35-.221C90.127,19.518,86.24,31.124,84.627,42.5c-12.09-6.959-31.28-12.975-48.53,3.588-23.761,23.462-25.98,48.607-26.062,65.1C9.135,162.338,18.616,195.775,38.217,210.567Zm284.589-29.048c2.017,70.461-14.649,118.818-46.529,119.24,22.623-35.333,17.4-72.365,17.9-112.061,1.488-32.408-17.891-69.256-52.921-60.818-.374-2.8-.651-5.484-.848-8.064C289.385,99.2,326.88,138.45,322.806,181.519Zm-74.3-81.873c11.606-3.955,21.206-1.134,28.636,8.327-14.051-2.116-27.56,1.109-37.084,4.573q-.081-4.524.172-8.546A29.2,29.2,0,0,1,248.508,99.646Zm-5.769-42.052c1.7,2.862,4.173,6.054,1.81,9.33-5.938,8.535-15,28.03-9.94,63.391a18.084,18.084,0,0,1-17.98-.411C216.007,112.04,217.789,73.522,242.739,57.594Zm-27.618,79.253a24.418,24.418,0,0,0,21.892,0c32.419-14.523,51.974,21.536,50.239,51.787.174,44.616,4.944,96.876-33.841,127.258a23.575,23.575,0,0,1-13.894,4.421H212.608c-30.928-1.657-48.862-56.053-47.736-84.251v-47.5C163.007,158.37,182.852,122.389,215.121,136.847Zm-5.254-21.253c-.249,4.42-.289,8.483-.224,11.983-34.336-7.09-53.244,29.184-51.695,61.052.506,39.768-4.741,76.738,17.892,112.12-30.324-.393-48.264-44.868-46.481-116.06C127.452,152.72,159.788,85.2,209.867,115.594ZM152.53,55.086c20.656,15.221,21.793,36.267,21.73,47.075-8.071,1.8-15.927,6.443-22.249,12.769,1.59-26.7-10.564-59.921-40.057-56.962-.25-2.37-.384-4.641-.424-6.806C123.015,47.162,138.84,45,152.53,55.086ZM100.71,20.643c3.038,2.764,7.338,5.52,6.057,10.3a82.114,82.114,0,0,0-1.6,28.734c-4.871,2.29-9.243,4.53-14.58,2.089C90.289,51.365,90.992,30.287,100.71,20.643ZM86.272,67.387a19.791,19.791,0,0,0,18.916-.15c26.8-12,41.267,20.232,39.9,44.671v10.356c-27.924,35.152-22.653,62.117-22.1,94.731-4.395,4.727-9.688,8.776-16.382,8.621H84.566c-25.423-1.816-39.39-49.271-38.478-72.586V111.843C44.664,87.366,59.47,54.93,86.272,67.387ZM83.854,50.131c-.2,3.073-.262,6.026-.243,8.742C53.544,51.148,37.87,84.352,39.164,111.908c.375,33.625-3.78,66.633,14.373,96.8C30.8,206.951,16.12,173.1,16.959,111.309,14.6,83.856,40.219,20.581,83.854,50.131Z" style="fill:#2b2b2b"/></svg>