<svg id="icons" xmlns="http://www.w3.org/2000/svg" viewBox="0 0 340 340"><title>16_agave</title><path d="M12.619,189.541c3.147,14.623,15.625,59.07,54,79.249l47.64-10.544S66.941,194.017,16.6,185.427A3.455,3.455,0,0,0,12.619,189.541Z" style="fill:#2b2b2b"/><path d="M17.037,95.2a268.953,268.953,0,0,1,16.157,32.508,34.267,34.267,0,0,1,2.287,17.427C34.156,161.879,45.971,200.125,65.787,235l73.5,51.673c-10.946-55.634-21.014-115.6-38.664-138.194-2.4-2.416-4.711-4.639-6.9-6.626a25.52,25.52,0,0,0-10.52-5.713,25.811,25.811,0,0,1-11.9-7.22c-8.681-9.251-28.295-28.493-49.841-38.59A3.449,3.449,0,0,0,17.037,95.2Z" style="fill:#3e6a51"/><path d="M177.062,242s-45.673-62.556-76.44-93.518c-1.235,15.792-2.753,54.043,5.658,100.661A143.86,143.86,0,0,0,65.792,235c24.929,44.752,67.2,68.992,67.2,68.992l20.34-28.609h0Z" style="fill:#224730"/><path d="M145.513,15.756a273.751,273.751,0,0,0-14.377,55.336,14.343,14.343,0,0,1-4.437,8.423,14.307,14.307,0,0,0-4.5,8.822l-2.788,23.539a14.31,14.31,0,0,1-2.977,7.181,25.168,25.168,0,0,0-5.4,14.946,414.684,414.684,0,0,0,5.556,76.959,75.95,75.95,0,0,1,5.3,25.953c2.164,8.915,4.742,17.989,7.81,27.07l23.625,28.929,52.04-157.931c-.734-4.548-1.549-8.927-2.452-13.1a14.232,14.232,0,0,0-4.742-7.851c-3.283-2.531-6.434-5.628-7.268-9.847l-5-21.4a14.31,14.31,0,0,0-5.011-7.932c-2.954-2.145-5.8-4.853-6.853-8.456a297.483,297.483,0,0,0-22.32-51.135A3.445,3.445,0,0,0,145.513,15.756Z" style="fill:#80b297"/><path d="M205.345,134.851c-12.568,12.611-49.653,56.764-57.812,145.028a141.364,141.364,0,0,0-17.83-15.894h0c4.394,13.006,21.338,47.5,22.439,49.339l57.107-3.984S216.386,203.068,205.345,134.851Z" style="fill:#3e6a51"/><path d="M330.3,171.974c-4.888,18.672-22.07,72.506-61.842,93.087l-46.8,3.729S263.9,194.042,325.607,167.934A3.452,3.452,0,0,1,330.3,171.974Z" style="fill:#2b2b2b"/><path d="M277.924,82.5c-9.876,8.088-33.547,28.972-50.4,55.965a25.747,25.747,0,0,1-11.015,9.692A26.039,26.039,0,0,0,206,157.063a277.362,277.362,0,0,0-30.659,60.823c-.31,5.065-2.582,11.205-5.894,17.916a296.275,296.275,0,0,0-10.9,57.111c1.689,13.382,9.817,19.195,22,26.625l92.4-91.249a236.393,236.393,0,0,0,11.86-52.8,67.786,67.786,0,0,0,.049-15,67.051,67.051,0,0,1-.113-13.408c1.056-11.488,2.618-37.113-1.229-62.447A3.445,3.445,0,0,0,277.924,82.5Z" style="fill:#80b297"/><path d="M218.847,267.407c-14.164,17.013-31.354,29.821-52.511,37.745a103.138,103.138,0,0,0-7.792-12.238c-1,10.108-1.182,22.383-1.182,26.252l15.51,2.087h0l9.333,1.257s62.307-14.469,90.729-94.224A135.561,135.561,0,0,0,218.847,267.407Z" style="fill:#3e6a51"/><path d="M171.187,330.8c24.928.388,49.892.644,73-10.105,26.124-11.4,62.314-34.8,84.239-81.214a3.456,3.456,0,0,0-2.606-4.9c-13.857-3.261-66.454-2.235-100.607,43.695-1.181,5.637-5.429,8.546-13.12,12.944a104.735,104.735,0,0,1-41.188,21.217Z" style="fill:#80b297"/><path d="M170.907,312.433a56.067,56.067,0,0,1-11.19,1.661l8.624,9.639a2.934,2.934,0,0,0,5.064-2.516A43.312,43.312,0,0,0,170.907,312.433Z" style="fill:#3e6a51"/><path d="M174.664,330.8H123.228s-12.613.027-31.976-11.689a78.792,78.792,0,0,0-14.558-10.25C65.859,300.155,53.739,288,41.018,271.011a43.83,43.83,0,0,0-19-14.437,3.445,3.445,0,0,1,.672-6.583c48.4-9.116,78,5.907,118.067,38.533,2.6,5.1,7.482,9.365,13.894,13.069A108.668,108.668,0,0,1,174.664,330.8Z" style="fill:#80b297"/><path d="M154.648,301.593a162.962,162.962,0,0,0-13.894-13.068c-40.826-14.1-67.536-6.042-68.808-5.641a3.463,3.463,0,0,0-2.394,3.743A70.315,70.315,0,0,0,76.7,308.859a134.315,134.315,0,0,0,14.557,10.25c-1.888-2.421-11.418-15.217-14.339-30.3C85.913,287,115.17,283.411,154.648,301.593Z" style="fill:#3e6a51"/><path d="M72.626,183.354c6.206,3.407,19.762,11.412,30.225,21.594a3.462,3.462,0,0,0,4.829-4.963c-14.749-14.352-34.518-24.209-35.352-24.621a3.467,3.467,0,0,0-4.714,1.732c-9.765,27.622-2.219,58-2.219,58l8.3,5.462C71.9,233.472,65.417,204.689,72.626,183.354Z" style="fill:#224730"/><path d="M184.7,170.08c2.3,3.908,8.21.577,6.018-3.425-13.249-23.281-36.543-40.759-37.527-41.491a3.461,3.461,0,0,0-4.72.555c-20.813,24.84-28.857,59.136-31.868,85.242,1.408,8.394,3.15,17.092,5.3,25.952.432-22.192,4.416-71.537,29.763-104.132C158.056,137.987,174.694,152.5,184.7,170.08Z" style="fill:#3e6a51"/><path d="M236.243,189.117c2.752,9.219,10.169,39.068-.506,63.652-1.743,4.157,4.443,6.933,6.352,2.757,13.677-32.613.595-69.654-.517-72.186-.555-5.364-37.972,4.717-66.228,34.548-2.061,5.66-4.039,11.642-5.888,17.917C194.554,201.448,226.6,191.438,236.243,189.117Z" style="fill:#3e6a51"/><path d="M292.305,276.114c-1.547-.445-32.541-9.073-67.095,2.153a116.2,116.2,0,0,1-13.12,12.944c37.973-19.547,77.731-8.6,78.3-8.443A3.462,3.462,0,0,0,292.305,276.114Z" style="fill:#3e6a51"/><path d="M8.209,256.877A41.694,41.694,0,0,1,37.05,271.508l-3.09,1.367c-3.405,1.446-2.233,6.7,1.4,6.63,1.044.132,5.011-1.99,6.007-2.337A235.385,235.385,0,0,0,59.039,297.49l-2.309,1.636c-2.766,1.814-1.234,6.412,2,6.288,1.538.187,4.1-2.273,5.322-2.993,33.056,31.343,57.742,31.841,59.159,31.841h89.257c12.321-.8,53.551-16.448,75.668-36.778,1.32.866,4.105,3.883,5.838,3.679,3.146.119,4.741-4.268,2.156-6.173l-2.714-2.156a166.48,166.48,0,0,0,15.86-16.719c1.134.522,3.812,2.531,5.113,2.387a3.477,3.477,0,0,0,1.714-6.473l-2.486-1.412A169.121,169.121,0,0,0,333.459,236.8a3.463,3.463,0,0,0-2.321-4.756A87.623,87.623,0,0,0,309.2,230.2c18.317-29.473,28.85-66.319,24.913-67.338-4.744-4.478-40.245,18.239-47.457,24.668,1-6.723,2.139-13.715,2.023-20.574l4.162-.72c4.47-.852,3.317-7.523-1.181-6.823l-3.377.584c-1.071-10.608.666-16.426.92-28.767l4.221-.337c4.529-.436,3.993-7.2-.551-6.9l-3.494.279c.13-3.849-.228-47.266-5.583-48.641a3.463,3.463,0,0,0-3.329.446,247.568,247.568,0,0,0-27.967,25.24l-1.711-2.068c-2.961-3.458-8.176.861-5.334,4.415l2.279,2.754c-3.647,4.012-7.354,8.351-10.988,12.977l-2.345-2.228c-3.353-3.079-8.015,1.832-4.769,5.021l2.9,2.754c-5.567,6.8-8.829,16.347-17.488,20.077a29.283,29.283,0,0,0-4.413,2.556c-1.4-10.611-2.614-19.6-4.84-28.22,2.433-1.662,6.025-3.283,3.932-6.838-2.412-3.072-4.99-.857-7.371.8-2.792-3.109-7.3-5.4-8.076-9.918l-5-21.4c-.03-.129-.074-.254-.107-.383l3.551-2.41c3.723-2.62-.082-8.223-3.889-5.729l-2.7,1.834a26.659,26.659,0,0,0-5.26-4.9,10.774,10.774,0,0,1-3.539-5.085c-1.049-3.206-2.728-8.1-5.01-14.029l3.718-2.766c3.6-2.778-.435-8.21-4.134-5.556l-2.23,1.66A267.221,267.221,0,0,0,151.113,7.4,3.463,3.463,0,0,0,145,7.789a221.768,221.768,0,0,0-9.015,25.479l-3.09-1.171c-4.285-1.54-6.68,4.792-2.453,6.476L134.1,39.96c-1.622,6.051-3.208,12.779-4.588,20.029l-3.3-.757a3.463,3.463,0,0,0-4.148,2.6c-.665,4.136,3.353,4.283,6.238,4.982-.5,3.632-.979,7.632-3.953,10.156a17.784,17.784,0,0,0-5.582,10.958l-2.7,22.787-5.68-.741c-4.524-.509-5.4,6.2-.895,6.866l3.91.51c-7.69,10.208-5.713,20.159-5.87,33.278-22.642-25.351-22.118-11.207-36.5-27l1.742-2.642c2.44-3.843-3.213-7.567-5.782-3.811l-.966,1.466a220.269,220.269,0,0,0-17.4-15.2l1.491-3.218c1.843-4.164-4.3-7.008-6.283-2.912L42.958,99.2c-4.3-3.293-30.991-20.516-34-14.8a3.464,3.464,0,0,0-.132,3.992,269.185,269.185,0,0,1,21.165,40.631,30.853,30.853,0,0,1,2.059,15.665,37.348,37.348,0,0,0,.26,11.411l-2.593.222c-4.353.426-4.058,6.864.292,6.912-.086.063,3.653-.326,3.723-.305a263.374,263.374,0,0,0,7.745,27.113c-6.232-3.213-28.554-11.384-32.263-7.652a3.463,3.463,0,0,0-.922,2.885,141.384,141.384,0,0,0,10.245,33.609l-2.176.5a3.468,3.468,0,0,0,.767,6.839c.516.053,3.865-.823,4.43-.922a124.939,124.939,0,0,0,12.121,19.538A135.814,135.814,0,0,0,7.39,250.141,3.474,3.474,0,0,0,8.209,256.877ZM325.3,238.006c-23.8,52.984-77.084,82.671-113.114,89.332H176.845a106.279,106.279,0,0,0-6.393-11.255c22.533-5.087,44.5-19.356,59.836-38.463C252.411,248.363,292.758,232.5,325.3,238.006Zm-40.5-39.987c13.969-11.917,28.114-20.944,42.142-26.886-3.079,11.688-11.092,37.486-26.444,59.661a105.675,105.675,0,0,0-27.331,6.646A219.206,219.206,0,0,0,284.791,198.019ZM217.962,151.3a29.135,29.135,0,0,0,12.5-11c16.489-26.4,39.908-47.1,49.638-55.09,3.826,25.3,2.155,51.118,1.2,61.551a70.67,70.67,0,0,0,.118,14.1c1.273,27.773-7.8,58.077-17.552,80.7-12.821,6.406-26.407,16.341-38.934,31.683-14.8,18.525-37.031,32.713-58.826,36.625q-2.3-3.057-4.864-6.068C164.556,234.536,198.664,162.375,217.962,151.3ZM119.155,121.2a17.755,17.755,0,0,0,3.7-8.918l2.788-23.54a10.856,10.856,0,0,1,3.407-6.687A17.856,17.856,0,0,0,134.56,71.6a271.82,271.82,0,0,1,14.182-54.57,293.659,293.659,0,0,1,22.011,50.452,17.683,17.683,0,0,0,5.8,8.345c2.664,1.93,5.332,4.382,5.982,7.753l5,21.4c1,4.9,4.527,8.765,8.4,11.7a10.827,10.827,0,0,1,3.593,5.94,306.6,306.6,0,0,1,4.819,30.849c-14.463,20.819-43.6,69.541-49.6,143.276A174.889,174.889,0,0,0,141.206,284.4C118.114,233.69,106.74,134.827,119.155,121.2ZM38.912,145.585A37.766,37.766,0,0,0,36.4,126.4,271.259,271.259,0,0,0,20.062,93.5c21.161,9.945,40.625,29.171,48.714,37.79a29.25,29.25,0,0,0,13.5,8.186,22.181,22.181,0,0,1,9.121,4.943c4.666,4.232,10.209,9.87,16.47,16.744,1.313,29.667,6.351,72.716,22.474,114.823-14.525-10.212-33.98-24.249-52.467-28.5C51.274,207.609,38.583,166.163,38.912,145.585ZM16.021,188.842c9.161,1.568,18.88,5.2,28.961,10.806a249.869,249.869,0,0,0,23.21,45.826,126.52,126.52,0,0,0-26.2-1.3C25.027,223.782,18.214,198.918,16.021,188.842Zm82.57,74.589c37.094,22.177,58.564,41.569,70.483,63.907H123.237c-.358,0-36.391-.949-79.4-58.339a47.149,47.149,0,0,0-20.4-15.6C41.083,250.177,72.418,247.785,98.591,263.431Z" style="fill:#2b2b2b"/></svg>