<svg id="icons" xmlns="http://www.w3.org/2000/svg" viewBox="0 0 340 340"><title>17_artichoke</title><path d="M114.129,72.2S131.686,17,168.338,17,221.572,59.63,221.572,59.63l-14.48,41.1H135.156Z" style="fill:#719b56"/><path d="M214,36.945c1.586,12.225-.243,29.332-13.471,49.483l20.656,54.186,41.933-32.071s1.14-49.434-36.144-79.569C221.218,24.322,213.017,29.377,214,36.945Z" style="fill:#719b56"/><path d="M126.011,36.945A58.623,58.623,0,0,0,125.586,47l-11.457,62.705c-17.262-10.8-28.668-24.5-28.164-44.131a93.054,93.054,0,0,1,27.072-36.6C118.793,24.322,126.993,29.377,126.011,36.945Z" style="fill:#a9db89"/><path d="M115.769,67.28c-5.625,13.179-25.356,13.792-29.8-1.7a115.6,115.6,0,0,0-9.075,42.968l41.934,32.071,20.656-54.187c-9.746-14.845-13.3-28.036-13.864-38.843h0S119.9,57.669,115.769,67.28Z" style="fill:#719b56"/><path d="M263.051,74.606a113.548,113.548,0,0,1-17.938,33.343l15.9,81.7s59.118-48.843,15.766-116.726A7.679,7.679,0,0,0,263.051,74.606Z" style="fill:#719b56"/><path d="M155.227,51.823c-8.4,8.319-20.5,22.909-27.437,43.1-2.77,14.318-.749,27.888,8.381,40.349l71.331,1.08,4.353-44.238a108.034,108.034,0,0,0-22.343-35A10.107,10.107,0,0,0,179,54.386c-2.973,1-6.011,2.459-8.23-.786A10.059,10.059,0,0,0,155.227,51.823Z" style="fill:#a9db89"/><path d="M201.989,119.39a52.579,52.579,0,0,0-9.457-13.283,9.349,9.349,0,0,0-10.125-2.1l-4.758,1.893c-5.1,1.873-7.913-1.218-11.069-4.658a9.416,9.416,0,0,0-12.764-.664c-9.5,7.838-15.937,19.313-15.937,19.313-6.521-7.4-9.093-17.391-10.087-24.972-5.447,15.858-7.7,35.17-2.463,57.611h89.353s9.886-27.42-2.833-60.419C210.412,107.112,201.989,119.39,201.989,119.39Z" style="fill:#719b56"/><path d="M116.67,272.658s18.841,13.052,22.908,34.047a17.871,17.871,0,0,0,11.9,13.511c8.266,2.752,20.86,4.521,36.845-.563a18,18,0,0,0,12.443-14.469,38.333,38.333,0,0,1,19.377-28.417S166.725,257.343,116.67,272.658Z" style="fill:#719b56"/><path d="M76.96,74.606c.892,2.6,1.966,5.444,3.252,8.443,5.963,19.165-1.03,44.937-9.052,71.235-10.381-7.273-18.8-16.255-23.747-28.269-.63-15.654,3.366-33.587,15.822-53.092A7.68,7.68,0,0,1,76.96,74.606Z" style="fill:#a9db89"/><path d="M70.174,124.6a11.307,11.307,0,0,1-20.11,5.351,35.853,35.853,0,0,1-2.641-3.94C48.988,164.839,79,189.649,79,189.649l15.9-81.7a110.391,110.391,0,0,1-14.681-24.9h0A219.1,219.1,0,0,0,70.174,124.6Z" style="fill:#719b56"/><path d="M225.407,94.61a182.137,182.137,0,0,1-15.616,35.674l7.179,51.408c22.066-2.469,42.757-7.333,46.269-42.119a99.472,99.472,0,0,0-18.9-48.454A10.684,10.684,0,0,0,225.407,94.61Z" style="fill:#a9db89"/><path d="M114.6,94.61a183.127,183.127,0,0,0,16.441,37.121l-.171,39.543-48.429-3.758-4.657-34.824A98.527,98.527,0,0,1,95.674,91.119,10.684,10.684,0,0,1,114.6,94.61Z" style="fill:#a9db89"/><path d="M81.778,189.649h51.531c9.053-15.471,7.492-32.121,5.522-41.31-1.149-6.134-4.709-11.378-7.781-16.611-3.884,7.51-7.825,17.325-8.688,27.417,0,0-8.94-14.523-25.344-9.887,0,0-6.955,2.5-10.342,9.093,0,0-8.847-9.612-8.884-25.659A119.26,119.26,0,0,0,81.778,189.649Z" style="fill:#719b56"/><path d="M254.923,158.351c-3.388-6.6-10.342-9.093-10.342-9.093-16.4-4.636-25.345,9.887-25.345,9.887-.92-10.753-5.334-21.194-9.449-28.864-3.212,5.727-7.367,11.382-8.607,18.058-1.97,9.189-3.531,25.839,5.522,41.31h51.531a119.227,119.227,0,0,0,5-50.076A39.011,39.011,0,0,1,254.923,158.351Z" style="fill:#719b56"/><path d="M177.071,200.535c-37.928,2.032-42.121-22.652-43.72-49.389,4.057-15.524,12.859-27.673,21.992-36.677a6.753,6.753,0,0,1,9.569.078l2.18,2.227a7.5,7.5,0,0,0,9.4,1.067,10.312,10.312,0,0,1,13.282,1.822A85.36,85.36,0,0,1,207.6,151.074C210.467,175.248,205.268,194.669,177.071,200.535Z" style="fill:#a9db89"/><path d="M40.894,164.129a9.7,9.7,0,0,1,14.18-8.96,106.971,106.971,0,0,1,22.258,15.4c11.287,14.2,13.668,32.064,10.277,52.312-17.066,5.244-30.287-4.344-41.04-23.446A133.777,133.777,0,0,1,40.894,164.129Z" style="fill:#a9db89"/><path d="M207.6,151.075c1.128,19.525-10.133,33.789-19.765,31.518a5.493,5.493,0,0,0-4.677.5l-5.782,3.818a5.062,5.062,0,0,1-6.961-1.358L166.67,180.1a6.166,6.166,0,0,0-8.354-1.767,83.63,83.63,0,0,0-7.807,5.606c-17.715-8.442-17.194-31.287-17.139-32.784-11.547,39.255,16.306,58.833,19.959,60.132l43.832,4.663C200.58,210.344,218.347,184.818,207.6,151.075Z" style="fill:#719b56"/><path d="M77.329,170.57c.009.047,3.7,19.82,2.759,38.815a7.19,7.19,0,0,1-9.824,6.294,61.962,61.962,0,0,1-23.692-16.246c16.854,53.407,64.592,52.708,64.592,52.708l-11.939-46.5C95.408,190.716,86.794,179.2,77.329,170.57Z" style="fill:#719b56"/><path d="M91.778,224.191a59.144,59.144,0,0,1-1.316-17.537c.773-13.067.867-23.7.556-32.312-.463-12.811,14.582-19.952,24.3-11.593a227.478,227.478,0,0,1,27.733,27.941c3.8,16.837-2.492,30.526-13.744,42.67C111.609,240.057,99.764,235.749,91.778,224.191Z" style="fill:#a9db89"/><path d="M146.283,251.125l14.048-31.532c-3.5-9.884-9.782-19.7-17.279-28.9A95.118,95.118,0,0,0,121.66,225.3a8.984,8.984,0,0,1-9.518,5.93,49.973,49.973,0,0,1-20.356-7.045C100.579,260.175,146.283,251.125,146.283,251.125Z" style="fill:#719b56"/><path d="M90.328,239.138a103.33,103.33,0,0,1-30.607-15.125,5.748,5.748,0,0,0-8.776,6.69c7.054,17.959,22.378,42.446,54.278,47.665C131.045,250.624,90.328,239.138,90.328,239.138Z" style="fill:#a9db89"/><path d="M299.117,164.129a9.7,9.7,0,0,0-14.181-8.96c-14.949,7.835-37.292,23.653-44.15,50.474l-11.939,46.5S295.765,253.125,299.117,164.129Z" style="fill:#719b56"/><path d="M247.721,226.1a56.926,56.926,0,0,0,1.828-19.443c-.774-13.067-.868-23.7-.556-32.312.463-12.811-14.582-19.952-24.3-11.593a229.006,229.006,0,0,0-27.28,27.387c3.343,17.145,8.932,32.555,18.824,44.642C230.379,235.794,241.258,233.312,247.721,226.1Z" style="fill:#a9db89"/><path d="M218.223,224.38a95.558,95.558,0,0,0-20.809-34.241c-7.7,9.36-14.16,19.372-17.735,29.454l14.048,31.532s44.07,8.726,53.986-25.03a72.715,72.715,0,0,1-20.182,4.431A9.033,9.033,0,0,1,218.223,224.38Z" style="fill:#719b56"/><path d="M192.086,274.924,201.016,243c38.124,4.518,64.463-8.253,79.273-18.985a5.749,5.749,0,0,1,8.777,6.69C279.4,255.315,254.2,292.189,192.086,274.924Z" style="fill:#719b56"/><path d="M201.016,243l-8.93,31.926a118.566,118.566,0,0,0,23.932,4.246c6.929-11.284,7.57-24.746,6.474-35.392A128.9,128.9,0,0,1,201.016,243Z" style="fill:#719b56"/><path d="M90.329,239.134l0,0s25.727,9.06,14.9,39.226c11.818,1.934,25.908,1.23,42.7-3.438L139,243C119.793,245.274,103.584,243.161,90.329,239.134Z" style="fill:#719b56"/><path d="M166.29,197.681l3.717,3.826a5.2,5.2,0,0,0,7.411.054,8.02,8.02,0,0,1,11.014-.3,66.848,66.848,0,0,1,22.487,50.576c0,37.834-40.837,38.735-40.837,38.735-49.331,1.825-53.387-66.293-14.092-93.634A7.743,7.743,0,0,1,166.29,197.681Z" style="fill:#a9db89"/><path d="M143.089,247.16a5.968,5.968,0,0,0,8.192,4.508c5.838-2.482,13.575-8.147,14.414-20.838.346-5.228-1.692-9.954-3.856-13.41a6.014,6.014,0,0,0-9.723-.682C147.191,222.605,140.794,233.237,143.089,247.16Z" style="fill:#f6fcde"/><path d="M155.82,128.591a5.372,5.372,0,0,1,8.956,2.009c1.161,3.405,1.661,8.192-.349,14.345-2.592,7.935-9.158,9.456-14.219,9.332a5.355,5.355,0,0,1-4.891-7.074C147.052,141.965,150.309,134.339,155.82,128.591Z" style="fill:#f6fcde"/><path d="M154.61,66.791a5.1,5.1,0,0,1,8.759,1.629c3.557,9.8-2.964,19.385-12.85,21.955a5.1,5.1,0,0,1-6.014-7.07A75.749,75.749,0,0,1,154.61,66.791Z" style="fill:#f6fcde"/><path d="M112.343,191.846a61.466,61.466,0,0,1-6.063,8.95,3.211,3.211,0,0,1-5.691-2.3c.627-6.973,1.191-16.518.3-22.184a4.347,4.347,0,0,1,7.485-3.611C113.021,177.382,116.315,185.224,112.343,191.846Z" style="fill:#f6fcde"/><path d="M102.693,103.942c1.131,6.9,1.49,17.531-5.84,22.3a41.706,41.706,0,0,0-4.371,3.639,2.874,2.874,0,0,1-4.858-2.354c.714-7.218,3.041-17.442,10.091-25.065A2.882,2.882,0,0,1,102.693,103.942Z" style="fill:#f6fcde"/><path d="M296.44,152.638a13.2,13.2,0,0,0-5.157-1.912c9.12-26,5.159-53.44-11.59-79.666-4.394-7.321-15.992-6.526-19.414,1.234-4.96-14.682-14.141-32.281-31.129-46.013a11.075,11.075,0,0,0-12.584-1.1,11.974,11.974,0,0,0-6.079,9.857c-20.679-25.788-57.588-31.293-80.942.709a12,12,0,0,0-6.1-10.566,11.078,11.078,0,0,0-12.584,1.1C93.842,40.036,84.671,57.675,79.733,72.3c-3.425-7.758-15.014-8.559-19.415-1.235-16.749,26.226-20.711,53.664-11.59,79.667A13.228,13.228,0,0,0,37.434,164.26c.848,22.535,5.811,41.4,14.742,56.16a9.073,9.073,0,0,0-4.454,11.549c7.122,21.083,32.095,54.237,75.014,50.748,5.084,5.412,11.371,13.951,13.443,24.647a21.326,21.326,0,0,0,14.2,16.137c11.176,3.835,25.656,3.843,38.988-.549a21.56,21.56,0,0,0,14.821-17.273,34.77,34.77,0,0,1,13.277-22.954c42.953,3.342,67.667-29.737,74.82-50.757a9.069,9.069,0,0,0-4.456-11.549c8.932-14.765,13.9-33.622,14.745-56.159A13.031,13.031,0,0,0,296.44,152.638Zm-30.114-76.91c.972-3.268,5.8-3.9,7.531-.941,16.574,25.952,19.769,51.954,9.515,77.294a114.754,114.754,0,0,0-16.294,10.326c1.39-17.7-.529-40.085-12.553-61.833A119.813,119.813,0,0,0,266.326,75.728Zm-24.11,81.785c-12.319-5.656-19.863,2.3-28.193,10.129a76.945,76.945,0,0,0-6.475-26.673c9.089-14.876,16.641-30.336,21.167-45.338a7.46,7.46,0,0,1,5.877-5.342,7.083,7.083,0,0,1,6.964,2.893c19.576,26.392,20.607,55.511,17.865,75.7a87.214,87.214,0,0,0-7.019,7.376C253.186,168.412,249.452,160.912,242.216,157.513ZM87.609,176.264a87.476,87.476,0,0,0-7.061-7.419c-2.582-20.054-1.779-49.1,17.906-75.663a7.086,7.086,0,0,1,6.965-2.893,7.46,7.46,0,0,1,5.877,5.342c4.532,15.236,12.442,30.943,21.523,46.033a79.762,79.762,0,0,0-5.4,27.327q-4.666-4.409-9.842-8.867C105.024,149.2,85.559,159.818,87.609,176.264Zm116.247-42.716a92.787,92.787,0,0,0-11.49-16.182,13.706,13.706,0,0,0-17.74-2.44c-3.133,1.908-5.266-.688-7.241-2.8A10.242,10.242,0,0,0,152.913,112a89.573,89.573,0,0,0-16.531,21.926,200.764,200.764,0,0,1-9.87-18.348c3.732-29.944,21.123-51.474,31.152-61.3a6.634,6.634,0,0,1,10.188,1.179,7.86,7.86,0,0,0,9.063,3.247c3.538-1.325,7.093-2.4,10.068.761,15.238,16.277,24.276,34.76,27.075,54.945A199.293,199.293,0,0,1,203.856,133.548Zm3.306,40.73a173.58,173.58,0,0,0-19.205,22.564,11.5,11.5,0,0,0-12.987,2.27,1.814,1.814,0,0,1-1.244.51,1.732,1.732,0,0,1-1.236-.528l-3.717-3.826c-4.908-5.14-12.569-4.062-17.242.827a171.625,171.625,0,0,0-16.94-20.045,69.862,69.862,0,0,1,1.006-19.04c2.679-14.726,10.141-28.209,22.177-40.076,2.865-2.472,4.928.258,6.845,2.263a11,11,0,0,0,13.744,1.559,6.815,6.815,0,0,1,8.822,1.2C195.066,130.846,208.083,149.418,207.162,174.278ZM93.918,206.859c.717-12.109.9-23.092.56-32.643a11.208,11.208,0,0,1,18.584-8.842c14.212,12.223,25.406,24.136,33.318,35.441-8.3,8.27-18.233,21.664-20.182,39.616a114.708,114.708,0,0,1-22.6-1.68C96.342,231.558,93.071,221.07,93.918,206.859Zm64.2-7.19c4.027-2.938,6.853,1.844,9.408,4.25a8.7,8.7,0,0,0,12.343.09,4.569,4.569,0,0,1,6.264-.164c31.258,28.423,30.29,81.67-16.125,83.264-1.71.167-31.624,3.132-36.729-33.035C129.538,226.454,147.233,208.132,158.115,199.669Zm35.272,1.5c7.923-11.408,19.2-23.439,33.562-35.791a11.208,11.208,0,0,1,18.584,8.842c-.345,9.551-.157,20.534.56,32.643.841,14.2-2.456,24.928-9.784,31.912a114.642,114.642,0,0,1-22.8,1.657A70.054,70.054,0,0,0,193.387,201.165ZM217.433,36.5c-.544-4.132,3.566-7.656,7.364-4.833,19.058,15.4,27.566,36.19,31.356,51.083a111.488,111.488,0,0,1-5.673,11.132c-3.768-6.4-9.036-11.909-17.055-10.418A14.442,14.442,0,0,0,222.1,93.588c-.958,3.1-2.045,6.217-3.225,9.338A101.4,101.4,0,0,0,209.25,78.29C216.434,64.133,219.2,50.079,217.433,36.5ZM168.338,20.457c20.533,0,34.475,14.465,42.614,26.753a66.757,66.757,0,0,1-5.97,23.966,120.612,120.612,0,0,0-12.941-16.435c-4.84-5.088-11.128-5.146-17.273-2.616a.932.932,0,0,1-1.077-.386c-4.3-7.156-15.114-8.409-20.9-2.376a121.67,121.67,0,0,0-17.615,22.142,67.556,67.556,0,0,1-6.039-23.039C137.118,35.571,150.316,20.457,168.338,20.457Zm-53.124,11.21c3.8-2.825,7.908.7,7.364,4.832-1.784,13.745,1.064,27.971,8.441,42.3a106.77,106.77,0,0,0-9.446,25.306q-2.04-5.273-3.661-10.514a14.442,14.442,0,0,0-11.326-10.124c-8.013-1.489-13.292,4.015-17.055,10.417A111.23,111.23,0,0,1,83.855,82.74C87.633,67.948,96.1,47.114,115.214,31.667ZM66.153,74.787c1.727-2.959,6.56-2.329,7.532.941a119.833,119.833,0,0,0,11.8,24.85C73.421,122.431,71.574,144.91,72.94,162.417a114.746,114.746,0,0,0-16.3-10.335C46.385,126.741,49.579,100.74,66.153,74.787ZM44.354,164c-.333-4.615,5.087-8.052,9.114-5.763,10.327,5.349,24.689,15.1,34.223,29.622-.2,15.934-3.282,35.344,5.25,48.432-14.383-4.055-24.084-10.166-32.62-15.933C50.614,206.043,45.216,187.236,44.354,164Zm9.813,65.439a2.279,2.279,0,0,1,3.523-2.621c13.5,9.782,36.172,21.136,68.181,20.548-.073,9.2,2.892,20.894,6.861,27.347C85.553,282.1,63.98,254.418,54.167,229.438Zm143.171,75.251a14.6,14.6,0,0,1-10.067,11.664c-15.4,4.9-27.372,3.017-34.7.578a14.393,14.393,0,0,1-9.592-10.884c-1.922-9.921-6.9-18.124-11.756-24.126q2.923-.389,5.975-.955c16.041,17.744,45.4,17.431,65.712.018q2.681.5,5.26.853A41.864,41.864,0,0,0,197.338,304.689Zm88.505-75.252c-9.747,24.816-31.133,52.351-77.779,45.394,4.527-6.282,7.092-17.442,6.181-27.46,31.924.571,54.552-10.754,68.076-20.554A2.277,2.277,0,0,1,285.843,229.437Zm-6.144-9.143c-.017.025-.027.053-.043.078-8.521,5.78-18.261,11.887-32.61,15.932,8.545-13.087,5.483-32.423,5.275-48.365,9.522-14.712,23.859-24.272,34.222-29.7A6.242,6.242,0,0,1,295.657,164C294.784,187.178,289.415,206.118,279.7,220.294Z" style="fill:#2b2b2b"/></svg>