<svg id="icons" xmlns="http://www.w3.org/2000/svg" viewBox="0 0 340 340"><title>18_asparagus</title><path d="M48.466,80.8s18.024,31.618,35.058,77.309c9.382,20.315,18.588,36.108,27.286,38.757,5.224-11.446,4.843-27,1.436-44.759-1.569-4.7-3.258-9.54-5.069-14.476-5.928-8.646-10.739-21.93-15.243-36.485A291.842,291.842,0,0,0,76.059,71.989Z" style="fill:#a9db89"/><path d="M112.246,152.111a51.354,51.354,0,0,1-4.714,28.32,1.535,1.535,0,0,1-2.945-.305c-.949-5.549-4-10.969-6.965-15.148a6.8,6.8,0,0,0-11.407.506c10,26.106,23.529,77.11,25.8,110.082l16.169-65.611A536.481,536.481,0,0,0,112.246,152.111Z" style="fill:#719b56"/><path d="M185.429,195.571c15.265-25.046,38.566-49.808,73.748-70.507L247.184,101.15s-16.478,8.43-37.048,26.026c-7.858,9.74-15.963,18.181-24.549,24.079q-2.941,3.314-5.857,6.855c-9.563,14-16.06,26.543-12.082,38.76Z" style="fill:#a9db89"/><path d="M184.629,182.077a56.851,56.851,0,0,0-9.231,9.831,2.294,2.294,0,0,1-4.175-1.319c.17-17.386,8.509-32.476,8.509-32.476h0c-31.182,37.923-58.792,95.517-45.977,174.977l10.2-.953a16.618,16.618,0,0,0,14.959-18.266c-2.164-21.331-1.934-60.653,17.443-101.476l0-.006a183.569,183.569,0,0,1,9.088-16.815l4.6-9.328A3.484,3.484,0,0,0,184.629,182.077Z" style="fill:#719b56"/><path d="M126.336,335.77c8.011-.71,14.285-7.6,13.488-15.734-1.507-16.475-2.694-47.835,2.412-85.878-.631-9.338,1.393-18.459,4.649-27.481,7.18-35,20.039-73.544,42.374-110.4,2.42-15.8-4.216-24.451-15.728-29.249-4.468,7.144-9.992,16.53-15.924,27.877-.934,16.224-8.243,29.814-19.269,41.867-12.72,31.735-24.246,70.781-28.626,114.568a61.7,61.7,0,0,1-1.766,28.485,359.96,359.96,0,0,0,1.558,43.192A14.376,14.376,0,0,0,126.336,335.77Z" style="fill:#a9db89"/><path d="M76.059,71.989,48.466,80.805s5.256,9.222,12.772,24.894A39.087,39.087,0,0,0,82.3,82.524C80.29,78.945,78.211,75.424,76.059,71.989Z" style="fill:#719b56"/><path d="M66.445,39.01S56.554,24.954,37.027,15.961a7.785,7.785,0,0,0-10.975,6.624,99.072,99.072,0,0,0,.528,19.288L55.616,62.661Z" style="fill:#719b56"/><path d="M61.439,86.167S29.763,94.4,26.58,41.873a69.733,69.733,0,0,1,17.972,6.505L61.069,78.989Z" style="fill:#a9db89"/><path d="M59.977,57.8a128.5,128.5,0,0,0-15.428-9.415c.215,6.179,1.825,20.908,11.769,32.077a2.3,2.3,0,0,0,4.007-1.567Z" style="fill:#719b56"/><path d="M80.346,69.787c3.3-8.321,3.383-20.712-11.643-35.415a5.9,5.9,0,0,0-9.359,1.571c-4.9,9.534-11.1,28.668,2.095,50.224C69.566,83.885,77.261,77.845,80.346,69.787Z" style="fill:#a9db89"/><path d="M99.854,118.922,86.5,112.214s-4.6,20.059,7.3,25.4a15.764,15.764,0,0,0,13.377.021C104.926,131.5,102.485,125.23,99.854,118.922Z" style="fill:#719b56"/><path d="M84.739,86.953a55.328,55.328,0,0,1,2.235,12.793c2.423,12.468,1.644,21.355,6.868,23.766,7.608,1.652,11.468-1.034,12.116-7.437C104.133,107.189,98.719,96.293,84.739,86.953Z" style="fill:#a9db89"/><path d="M106.39,118.588q-.169-1.225-.434-2.513c-1.781,5.788-12.6,7.561-14.64,1.789a8.22,8.22,0,0,1-.56-3.511c.247-7.637-3.784-14.607-3.784-14.607h0c.937,6.712-2.02,16.1,0,22.829C90.249,134.66,108.118,130.988,106.39,118.588Z" style="fill:#719b56"/><path d="M78.635,145.427c7.939,5.129,26.08,21.9,16.713,40.441-5.5,4.434-9.83,2.693-13.915-.376A28.51,28.51,0,0,1,77.974,174.9C74.912,153.7,78.635,145.427,78.635,145.427Z" style="fill:#a9db89"/><path d="M94.99,163.027c.13.286,6.233,13.78-1.365,20.619-3.685,3.316-8.338,3.032-12.186,1.842a16.622,16.622,0,0,0,5.627,5.831,8.765,8.765,0,0,0,13.261-6.617C101.242,178.771,98.37,168.523,94.99,163.027Z" style="fill:#719b56"/><path d="M184.326,50.943s-4.272,5.654-10.795,16.085c.852,8.05,4.075,21.47,15.738,29.255A303.837,303.837,0,0,1,210.281,65.9Z" style="fill:#719b56"/><path d="M195.919,27.05s10.21-13.826,29.938-22.369a7.786,7.786,0,0,1,10.821,6.874,99.213,99.213,0,0,1-.97,19.27L206.2,50.943Z" style="fill:#719b56"/><path d="M199.842,74.309s31.48,8.958,35.866-43.484a69.559,69.559,0,0,0-17.981,6.027l-15.4,13.157Z" style="fill:#a9db89"/><path d="M208.2,65.489c7.923-9.2,9.3-23.254,9.532-28.631a128.254,128.254,0,0,0-15.776,9.123l.03,17.21A3.535,3.535,0,0,0,208.2,65.489Z" style="fill:#719b56"/><path d="M181.316,57.5c-3.106-8.394-2.907-20.784,12.452-35.138a5.9,5.9,0,0,1,9.32,1.784c4.681,9.644,10.438,28.916-3.246,50.163C191.77,71.842,184.215,65.627,181.316,57.5Z" style="fill:#a9db89"/><path d="M158.571,102.031l-4.862.516c-5.062,10.146-10.305,21.608-15.364,34.228,18.032,4.421,24.811-15.09,27.242-26.993A6.473,6.473,0,0,0,158.571,102.031Z" style="fill:#719b56"/><path d="M149.358,124.679c-12.247-12.243-7.4-23.9-7.4-23.9,10.62-12.361,25.231-22.552,24.388-21.787a59.674,59.674,0,0,1-.844,28.356C163.9,113.434,157.972,119.648,149.358,124.679Z" style="fill:#a9db89"/><path d="M165.5,107.343c-.658,2.154-4.23,11.828-15.051,10.366-8.431-1.139-8.955-10.989-8.483-16.929C127.312,119.178,155.042,145.3,165.5,107.343Z" style="fill:#719b56"/><path d="M138.345,195.31s-16.69,30.148,3.891,38.847l.005,0c1.451-10.819,3.412-22.175,6.018-33.886Z" style="fill:#719b56"/><path d="M156.621,169.018a78.445,78.445,0,0,0-16.244,21.732,40.106,40.106,0,0,0-1.218,25.539c10.289,5.233,17.681-1.9,18.748-12.523C161.318,180.352,156.621,169.018,156.621,169.018Z" style="fill:#a9db89"/><path d="M150.073,218.5a16.126,16.126,0,0,0,5.44-6.492c-2.332,1.3-5.162,1.582-8.5-.292-10.98-6.157-6.766-20.5-6.625-20.966a52.652,52.652,0,0,0-5.473,18.54C134.177,217.455,143.285,223.094,150.073,218.5Z" style="fill:#719b56"/><path d="M117.689,242.029l-7.549,5.263c-1.171,10.571-1.923,21.43-2.185,32.534,21.539-1.523,19.24-23.865,16.693-35.088A4.5,4.5,0,0,0,117.689,242.029Z" style="fill:#719b56"/><path d="M114.629,217.37s7.245,11.982,9.077,25.567c.6,10-8.086,23.819-8.422,23.507-9.516-3.272-14.459-8.829-15.207-16.481C100.886,242.124,104.606,231.415,114.629,217.37Z" style="fill:#a9db89"/><path d="M111.466,258.5c-6.749.318-9.644-3.922-11.387-8.54a27.745,27.745,0,0,0,.671,10.146,10.98,10.98,0,0,0,14.486,7.565c7.922-2.7,9.942-16.068,8.47-24.737C123.706,242.937,123.794,257.921,111.466,258.5Z" style="fill:#719b56"/><path d="M247.184,101.15a153.25,153.25,0,0,0-13.316,8.054c-2.013,6.807-3.689,18.145.236,32.752a242.115,242.115,0,0,1,25.073-16.892Z" style="fill:#719b56"/><path d="M274.361,83.052s15.009-4.744,34.224-.448A7.13,7.13,0,0,1,312.9,93.523a90.81,90.81,0,0,1-11.1,13.753l-32.691-.986Z" style="fill:#719b56"/><path d="M251.817,120.173s18.5,23.589,49.986-12.9A64.05,64.05,0,0,0,284.929,102C270.9,106.715,258.5,112.157,251.817,120.173Z" style="fill:#a9db89"/><path d="M284.928,102.005a118.241,118.241,0,0,0-16.291-1.679l-9.244,12.816a2.752,2.752,0,0,0,2.921,4.278C274.294,114.154,282.064,105.633,284.928,102.005Z" style="fill:#719b56"/><path d="M247.145,97.745c2.22-7.891,9.039-16.962,28.147-19.325a5.407,5.407,0,0,1,5.944,6.342c-1.727,9.664-7.84,27.04-29.419,35.411C247.166,114,244.916,105.326,247.145,97.745Z" style="fill:#a9db89"/><path d="M204.794,131.879a249.633,249.633,0,0,0-19.206,19.377c14.739,5.579,25.422-4.328,31.725-13.443a5.34,5.34,0,0,0-6.1-8.1Z" style="fill:#719b56"/><path d="M226.761,113.938c1.163,6.761-8.4,29.907-27.251,25.112-4.63-3.587-5.432-7.872-2.636-12.811a17.1,17.1,0,0,1,2.2-1.018C216.724,118.5,226.761,113.938,226.761,113.938Z" style="fill:#a9db89"/><path d="M199.452,135.537c-3.184-2.843-3.438-6.084-2.574-9.292-11.84,6-4.9,22.443,7.3,17.649a42.545,42.545,0,0,0,11.3-7.315c1-.953,2.734-2.824,2.734-2.824S206.64,141.956,199.452,135.537Z" style="fill:#719b56"/><path d="M183.654,186.1c8.034-11.162,22.564-18.719,22.423-18.255a233.236,233.236,0,0,0-7.326,25.624c-1.808,8.8-5.327,21.39-16.5,11.029C178.09,198.711,179.4,192.234,183.654,186.1Z" style="fill:#a9db89"/><path d="M190.036,211.254c2.338-1.562,4.139-4.181,5.556-7.368-2.861,2.359-6.6,3.645-10.528.131-8.116-7.255-1.8-17.315-1.375-17.964a32.776,32.776,0,0,0-7.179,16.371C175.5,209.928,183.74,215.46,190.036,211.254Z" style="fill:#719b56"/><path d="M164.848,243.529c-8.871,8.4-17.361,20.04-9.055,35.037,7.854,6.184,12.3,3.9,15.176-2.3C174.37,261.141,164.546,256.1,164.848,243.529Z" style="fill:#a9db89"/><path d="M169.786,279.715a22.444,22.444,0,0,0,1.18-3.449c-2.435,3.085-7.041,4.563-10.521,2.5-11.135-6.6-4.612-24.367-4.612-24.367-5.372,5.94-7.419,17.29-6.427,26.035.591,7.788,10.111,11.528,15.663,6.034A21.737,21.737,0,0,0,169.786,279.715Z" style="fill:#719b56"/><path d="M159.889,92.776c-.2,3.251-.856,8.13-2.877,11.783-3.512,5.831-11.852.4-7.781-5.107a54.5,54.5,0,0,1,7.914-8.12A1.7,1.7,0,0,1,159.889,92.776Z" style="fill:#f6fcde"/><path d="M83.2,156.385c4,4.279,9.031,13.953,1.315,18.358a1.643,1.643,0,0,1-2.615-.707,42.955,42.955,0,0,1-1.4-16.766A1.553,1.553,0,0,1,83.2,156.385Z" style="fill:#f6fcde"/><path d="M113.862,233.645c.053,3.79-.653,8.92-4.1,12.8a2.174,2.174,0,0,1-3.785-1.5,23.165,23.165,0,0,1,3.894-12.478A2.183,2.183,0,0,1,113.862,233.645Z" style="fill:#f6fcde"/><path d="M214.371,122.415a1.271,1.271,0,0,1,1.515,1.58,7.818,7.818,0,0,1-6,5.843c-4.254.992-5.569-.952-5.975-2.287a1.266,1.266,0,0,1,.663-1.521A54.363,54.363,0,0,1,214.371,122.415Z" style="fill:#f6fcde"/><path d="M316.792,85.565a10.5,10.5,0,0,0-7.452-6.339,79.086,79.086,0,0,0-26.784-1.3,8.672,8.672,0,0,0-7.688-2.947c-21.337,2.638-28.665,13.323-31.055,21.823h0q-.357,1.266-.585,2.56a187.616,187.616,0,0,0-18.192,11.551c-1.772.793-11.506,5.095-27.192,11.068-8.26,2.736-13.7,12.266-8.735,19.988a236.271,236.271,0,0,0-27.27,34.225,46.573,46.573,0,0,0-1.567-7.215,322.434,322.434,0,0,1,44.989-90.638c29.179-.209,35.663-38.971,34.876-66.94-.1-7.622-8.723-13.135-15.656-9.9a86.188,86.188,0,0,0-24.523,16.111,9.159,9.159,0,0,0-8.554,2.217c-14.991,14.01-16.487,26.545-14.369,35.451-3.1,4.584-7.79,11.809-13.276,21.271a142.629,142.629,0,0,0-22.979,20.3c-11.432,12.808-5.352,23.462-1.483,28.584a453.966,453.966,0,0,0-17.121,46.875c-3.619-12.411-8.591-27.928-14.871-44.129,7.8-10.676-3.039-32.4-19.92-43.61-1.835-3.38-3.711-6.676-5.593-9.83C87.632,63,89.034,50.4,71.125,31.9a9.157,9.157,0,0,0-8.5-2.412A86.252,86.252,0,0,0,38.475,12.816c-6.857-3.386-15.6,1.919-15.878,9.541C21.511,48,25.5,82.586,48.967,88.981a604.706,604.706,0,0,1,25.97,56.525c-2.886,7.443-4.524,51.679,17.638,50.506,3.644,12.283,6.756,24.431,9.25,36.148-7.231,16.165-8.343,31.665,3.015,38.09a366.7,366.7,0,0,0,1.217,53.1c1.524,14.245,17.147,20.165,28.836,13.111,8.731-.815,16.951-.52,22.981-8.1a20.021,20.021,0,0,0,4.479-14.844c-.543-5.348-.845-10.863-.927-16.417,17.16-8.734,21.723-27.374,11.059-42.83a31.019,31.019,0,0,1-4.441-10.715,180.726,180.726,0,0,1,10.734-29.348c13.044,6.77,20.367-5.164,23.362-20.032,2.157-10.3,5.812-21.95,6.753-24.887a217.622,217.622,0,0,1,49.891-40.061c16.9,5.811,30.021-2.483,45.551-19.594a93.429,93.429,0,0,0,11.449-14.2A10.657,10.657,0,0,0,316.792,85.565ZM227.233,7.859a4.343,4.343,0,0,1,5.985,3.844,96.592,96.592,0,0,1-.626,16.214,82.01,82.01,0,0,0-21.733,8.575A53.155,53.155,0,0,0,205.7,21.738,79.186,79.186,0,0,1,227.233,7.859ZM211.78,43.932a82.821,82.821,0,0,1,19.988-8.7c-2.905,20.478-9.545,35-26.243,36.2A52.257,52.257,0,0,0,211.78,43.932Zm-16.237,87.8a11.278,11.278,0,0,1,4.765-3.271c9.993-3.8,17.616-6.948,22.346-8.958-1.547,6.858-10.367,17.554-19.938,21.255C196.894,143.346,191.544,136.68,195.543,131.728Zm.588-106.837a2.4,2.4,0,0,1,3.842.767c4.175,8.6,9.306,25.527-1.6,44.422C192.112,67.5,186.722,62.4,184.562,56.3h0C180.805,46.144,184.7,35.577,196.131,24.891ZM145.85,101.567a148.833,148.833,0,0,1,17.992-16.5,56.84,56.84,0,0,1-3.422,26.559c-2.179,5.49-5.9,11.99-11.222,11.724a6.679,6.679,0,0,1-5.035-2.9C141.036,116.02,138.79,109.153,145.85,101.567ZM89.924,112.719a63.936,63.936,0,0,0,.126-17.207c8.953,8.318,12.015,17.114,12.912,23.554C104.085,129.053,86.912,131.2,89.924,112.719ZM30.417,46.371A82.774,82.774,0,0,1,50.2,55.525a52.265,52.265,0,0,0,5.622,27.633C39.151,81.571,32.859,66.918,30.417,46.371Zm20.876,1.738A82.036,82.036,0,0,0,29.734,39.03a96.89,96.89,0,0,1-.227-16.218,4.345,4.345,0,0,1,6.072-3.706,79.3,79.3,0,0,1,21.207,14.37A53.143,53.143,0,0,0,51.293,48.109Zm11.13-10.584a2.427,2.427,0,0,1,3.858-.678c17.471,15.925,16.358,36.8-3.271,45.126C52.536,62.834,58.053,46.028,62.423,37.525ZM96.888,184.3a5.328,5.328,0,0,1-8.021,4.059c-9.882-4.768-9.006-31.815-8.1-36.991C87.34,156.16,98.542,171.644,96.888,184.3Zm2.16,9.181c6.174-4.9,5.4-12.511,3.753-20.069-4.169-17.373-17.551-27.654-21.353-30.276-9.326-23.319-18.345-41.884-24.1-53.052,7.92-.215,14.528-4.147,19.925-9.371,1.434,2.464,2.859,5,4.259,7.593a56.925,56.925,0,0,1,1.537,23.4c-2.34,12.908,4.959,25.375,18.468,20.764,7.819,20.424,13.513,39.6,17,52.492q-4.2,15.492-7.171,31.022-2.514,3.566-4.526,6.872C104.616,213.247,102,203.407,99.048,193.483ZM114.233,224.1c3.252,6.884,8.164,19.791,5.815,31.094-1.027,4.943-3.078,8.061-6.1,9.266C97.912,268.005,101.791,241.693,114.233,224.1Zm22.144,96.253a10.966,10.966,0,0,1-8.958,11.708c-6.636,1.985-13.865-2.3-14.469-9.377a359.47,359.47,0,0,1-1.25-50.809c7.155-.615,12.45-4.1,15.128-15.273,3.458-16.642-5.87-35.011-8.553-39.834A433.316,433.316,0,0,1,145.1,129.479c8.268,2.374,15.452-.431,21.752-15.3a63.454,63.454,0,0,0,3.168-34.624c3.9-6.706,7.371-12.238,10.124-16.449,3.514,6.377,10.447,11.666,17.43,14.11a330.443,330.443,0,0,0-43.97,89.869c-3.726,3.51-20.191,20.155-22.146,41.9a13.441,13.441,0,0,0,8.95,13.864C132.967,269.026,135.09,306.294,136.377,320.352ZM138.359,209.6c1.339-14.893,10.824-27.507,16.431-33.767.891,4.888,3.251,33.492-6.656,39.8A6.386,6.386,0,0,1,138.359,209.6Zm32.114,68.021c-1.914,6.271-7.408,10.451-10.881,12.551-5.337-13.96-4.673-26.688,3.525-38.993C166.513,259.927,173.765,264.868,170.473,277.625Zm24.89-84.866c-2.115,9.594-5.694,19.291-12.8,15.662a5.6,5.6,0,0,1-2.625-5.536c.686-9.578,11.349-21.838,19.9-27.673C198.394,180.2,196.643,186.647,195.363,192.759Zm8.366-28.081c-8.948,3.546-35.925,26.5-29.835,43.729a187.263,187.263,0,0,0-12.551,33.406c-11.66,13.815-16.692,32.986-6.862,54,.05,6.223.374,12.411.983,18.4.918,8.118-5.861,14.79-13.848,14.657a17.575,17.575,0,0,0,1.656-9.158c-1.268-13.856-3.363-50.7,4.077-96.386,14.206-3.15,15.1-23.531,15.257-35.288a226.5,226.5,0,0,1,31.509-41.29c8.052,4.753,18.41-2.985,23.751-7.672,10.472-9.99,12.191-19.241,12.378-23.367,5.351-3.745,9.752-6.486,12.779-8.27,1.058,6.837,3.544,13.078,9.019,17.762A222.751,222.751,0,0,0,203.729,164.678Zm46.749-66h0c2.65-9.422,11.141-15.083,25.24-16.825a1.911,1.911,0,0,1,1.6.58,1.978,1.978,0,0,1,.513,1.716,42.053,42.053,0,0,1-24.7,31.72C250,110.674,248.849,104.216,250.478,98.682Zm17.989,25.53a18.812,18.812,0,0,1-10.318-3.072,48.075,48.075,0,0,0,19.018-16.732A75.982,75.982,0,0,1,296,108.538C286.267,118.818,276.816,124.212,268.467,124.212Zm41.547-32.6a88.7,88.7,0,0,1-9.009,11.5,75.223,75.223,0,0,0-20.238-5.249,49.55,49.55,0,0,0,3.963-13.208,72.163,72.163,0,0,1,23.1,1.33A3.687,3.687,0,0,1,310.014,91.609Z" style="fill:#2b2b2b"/></svg>