<svg id="icons" xmlns="http://www.w3.org/2000/svg" viewBox="0 0 340 340"><title>19_sweet potato</title><path d="M213.379,27.954a19.343,19.343,0,0,0,.5,10.893,123.254,123.254,0,0,1,5.5,24.078,21.455,21.455,0,0,0,1,10.53,157.175,157.175,0,0,1,.137,15.759c-57.654,88.173-176.87,88.838-183.364,14.362a105.473,105.473,0,0,1,6.491-12.289c2.214-1.075,3.367-3.194,3.911-5.912Q50.658,81,54.382,76.7a8.541,8.541,0,0,0,5.006-5.411C78.6,51.957,107.567,35.466,127.354,28.23c3.923-.171,6.823-1.244,8.838-3.1,21.407-6.9,38.3-7.927,46.868-7.886a24.876,24.876,0,0,0,12.319-3.188C204.452,8.859,216.051,17.855,213.379,27.954Z" style="fill:#f980a0"/><path d="M214.833,126.326a172.96,172.96,0,0,0,5.684-37.112c-17.286,1.217-60.2,7.661-96.765,41.01C100.939,151.029,65,147.477,47.165,122.272a87.3,87.3,0,0,1-10.008-18.7c-23.912,61.014,4.738,84.66,2.367,118.7a17.024,17.024,0,0,0,6.066,13.507h0a10.507,10.507,0,0,0,14.038-.437,10.5,10.5,0,0,1,7.868-2.89C147.748,237.112,200.491,180.652,214.833,126.326Z" style="fill:#b2446b"/><path d="M308.647,117.924c3.69-11.423-8.284-22.067-19.184-17.019a25.423,25.423,0,0,1-12.992,2.724c-3.476.978-7.5.943-12.471-.855-22.4-.914-51.875,1.336-79.722,13.454a14,14,0,0,1-7.561,3.561,127.667,127.667,0,0,0-32.162,23.119c-.148,2.224-2.189,3.786-4.886,5.118a161.571,161.571,0,0,0-11.88,14.763c.17,2.672-1.294,4.494-3.9,5.724-30.881,47.514-29.778,100.112-28,119.826a23.064,23.064,0,0,1-2.977,13.46,37.785,37.785,0,0,0-3.764,9.539,9.843,9.843,0,0,0,9.312,12.2,59.05,59.05,0,0,0,10.273-.685,23.09,23.09,0,0,1,8.75.316,169.633,169.633,0,0,0,39.63,4.094,16.339,16.339,0,0,1,7.613-.251c4.767-.261,9.747-.73,14.889-1.466A15.468,15.468,0,0,1,186.6,324.4a154.705,154.705,0,0,0,58.461-23.841,7.432,7.432,0,0,1,5.713-4.043,163.018,163.018,0,0,0,15.022-12.628,12.239,12.239,0,0,1,5.195-5.138c15.986-17.843,23.574-24.238,36.214-68.139-.338-4.344.406-7.458,2.1-9.491.828-4.263,1.533-8.705,2.075-13.307a23.729,23.729,0,0,1,.976-11.5,167.873,167.873,0,0,0-3.937-46.073A25.182,25.182,0,0,1,308.647,117.924Z" style="fill:#f980a0"/><path d="M98.007,98.6c-3.2-3.353,1.71-8.19,5.017-4.948C106.22,97.009,101.314,101.846,98.007,98.6Z" style="fill:#b2446b"/><path d="M231.13,161.763c-3.2-3.353,1.71-8.19,5.017-4.948C239.342,160.168,234.437,165.005,231.13,161.763Z" style="fill:#b2446b"/><path d="M134.964,295.439c-3.2-3.353,1.71-8.19,5.017-4.948C143.177,293.844,138.271,298.681,134.964,295.439Z" style="fill:#b2446b"/><path d="M164.726,327.012A155.267,155.267,0,0,0,150.087,303.1a3.462,3.462,0,0,0-5.543,4.15,153.816,153.816,0,0,1,12.569,20.015Q160.817,327.221,164.726,327.012Z" style="fill:#b2446b"/><path d="M186.6,324.4a162.015,162.015,0,0,0-34.079-53.9,3.462,3.462,0,0,0-5.045,4.743,155.484,155.484,0,0,1,32.142,50.308Q183.061,325.05,186.6,324.4Z" style="fill:#b2446b"/><path d="M236.577,271.034c-2.474-3.82-8.217-.241-5.877,3.662,4.334,6.954,10.192,17.549,14.352,25.854,1.911-1.29,3.818-2.63,5.717-4.038C246.548,288.167,240.84,277.876,236.577,271.034Z" style="fill:#b2446b"/><path d="M151.325,179.721c-7.816-6.009-17.2-12.637-23.531-16.929q-2.029,2.847-3.895,5.725c6.223,4.221,15.488,10.761,23.206,16.694a3.462,3.462,0,0,0,4.22-5.49Z" style="fill:#b2446b"/><path d="M270.979,278.74A371.77,371.77,0,0,0,246,236.271a3.462,3.462,0,1,0-5.672,3.971,370,370,0,0,1,25.464,43.641Q268.4,281.4,270.979,278.74Z" style="fill:#b2446b"/><path d="M176.886,173.891c3.61,2.753,7.818-2.556,4.285-5.44a437.524,437.524,0,0,0-36.614-25.541c-1.655,1.642-3.311,3.358-4.882,5.121A428.9,428.9,0,0,1,176.886,173.891Z" style="fill:#b2446b"/><path d="M216.3,147.529a3.462,3.462,0,1,0,4.391-5.353,327.958,327.958,0,0,0-36.412-25.944q-3.8,1.656-7.561,3.561A319.115,319.115,0,0,1,216.3,147.529Z" style="fill:#b2446b"/><path d="M295.115,180.9c-2.819-3.571-8.2.528-5.508,4.2,4.963,6.514,12.6,17.616,17.594,25.509q1.14-4.577,2.1-9.491C304.616,194.036,299.045,186.061,295.115,180.9Z" style="fill:#b2446b"/><path d="M312.348,176.316a253.708,253.708,0,0,0-27.69-33.878,3.462,3.462,0,0,0-4.96,4.832c10.1,10.365,23.317,26.082,31.675,40.541Q312.033,182.216,312.348,176.316Z" style="fill:#b2446b"/><path d="M285.146,120.109c3.274,3.163,8.06-1.625,4.9-4.9a164.55,164.55,0,0,0-13.57-11.6c-3.973-.319-7.987-.678-12.472-.841C276.607,112.241,282.462,117.426,285.146,120.109Z" style="fill:#b2446b"/><path d="M79.563,100.578a294.664,294.664,0,0,0-32-15.2q-2.09,2.946-3.914,5.91a286.943,286.943,0,0,1,32.6,15.368,3.463,3.463,0,0,0,3.317-6.079Z" style="fill:#b2446b"/><path d="M80.111,80.7c-6.938-3.409-15.045-7.009-20.718-9.408q-2.642,2.683-5,5.413c5.472,2.258,14.826,6.358,22.668,10.21A3.462,3.462,0,1,0,80.111,80.7Z" style="fill:#b2446b"/><path d="M153.872,70.376a3.479,3.479,0,0,0,2.089-6.226c-7.922-5.984-16.215-11.7-24.648-16.983a3.462,3.462,0,1,0-3.676,5.868c8.262,5.178,16.388,10.777,24.151,16.641A3.446,3.446,0,0,0,153.872,70.376Z" style="fill:#b2446b"/><path d="M152.883,43.947c3.8,2.475,7.6-3.135,3.864-5.746-7.04-4.732-14.194-9.422-20.554-13.066q-4.3,1.386-8.837,3.1C135.821,32.48,147.074,40.042,152.883,43.947Z" style="fill:#b2446b"/><path d="M220.381,73.483c-.222-3.755-.57-7.279-1-10.557C213.517,57.4,206.853,51.377,201.606,46.9c-3.5-2.893-7.91,2.249-4.5,5.267C204.121,58.143,213.675,66.914,220.381,73.483Z" style="fill:#b2446b"/><path d="M208.291,10.87c-10.757-5.489-15.069,3.111-25.115,2.914C108.534,14.1-1.483,80.676,29.146,182.719c6.126,19.145,7.144,32.021,6.919,39.45a20.365,20.365,0,0,0,7.293,16.258,13.943,13.943,0,0,0,18.663-.581,7.07,7.07,0,0,1,5.274-1.935,157.464,157.464,0,0,0,27.357-.761,210.952,210.952,0,0,0-2.212,53.5A19.549,19.549,0,0,1,89.9,300.09,41.152,41.152,0,0,0,85.788,310.5C83.6,318.453,90.114,327.033,98.38,327a62.547,62.547,0,0,0,10.874-.723,19.54,19.54,0,0,1,7.44.264c60.391,15.122,135.722-9.045,173.34-65.03,17.069-26.648,34.348-82.469,21.758-132.039a21.846,21.846,0,0,1,.327-11.115c4.144-14.836-11.782-27.369-25.345-20.038a21.245,21.245,0,0,1-10.773,1.8,214.006,214.006,0,0,0-52.979,1.481c3.5-30.591-2.1-53.021-5.874-63.887a15.849,15.849,0,0,1-.4-8.943A15.844,15.844,0,0,0,208.291,10.87Zm67.053,96.143a28.2,28.2,0,0,0,14.288-2.384,10.879,10.879,0,0,1,12.711,1.214A10.579,10.579,0,0,1,305.31,117a28.745,28.745,0,0,0-.268,14.012C333.392,292.029,188.218,340.945,118.271,319.8a26.515,26.515,0,0,0-10.06-.365c-4.864.316-11.15,2.358-14.578-1.857-3.171-4.313.407-10.055,2.291-14.069a26.46,26.46,0,0,0,3.414-15.48C89.863,187.013,156.789,92.757,275.344,107.013Zm-59.453-4.138c-65.279,10.385-109.42,68.4-119.881,125.116A149.745,149.745,0,0,1,67.7,229a14.035,14.035,0,0,0-10.462,3.844C50.345,239,42.37,229.55,42.986,222.378c.241-7.971-.821-21.689-7.273-41.846C23.938,144.566,34.367,92.357,72.685,63.948,121.5,24.843,165.14,20.717,183.043,20.708a28.547,28.547,0,0,0,14.034-3.633,8.385,8.385,0,0,1,8.2.029,8.883,8.883,0,0,1,4.74,10.034,22.743,22.743,0,0,0,.591,12.844C213.552,48.476,219.873,71.423,215.891,102.875Z" style="fill:#2b2b2b"/></svg>