<svg id="icons" xmlns="http://www.w3.org/2000/svg" viewBox="0 0 340 340"><title>1_carrot</title><path d="M186.6,167.27s17.952-15.166,41.568,2.218c0,0,27.686,22.425,45.412-9.032a19.625,19.625,0,0,1,14.961-9.942c11.94-1.268,29.577-6.492,27.931-26.432-2.481-30.068-37.87-18.333-37.87-18.333s-12.871-31.263-45.517,5.028Z" style="fill:#719b56"/><path d="M190.94,123.271A60.23,60.23,0,0,0,187,110.529c-14.876-34.859-16.9-43.058,2.012-56.74,0,0-8.45-31.791,16.3-39.638,19.18-6.082,27.866,8.725,28.735,22.259a36.473,36.473,0,0,0,7.9,20.032c7.805,9.973,15.476,27.154-.907,46.558a37.977,37.977,0,0,0-8.8,18.842c-1.169,7.918-6,19.655-22.044,31.717C200.8,152.476,194.78,142.66,190.94,123.271Z" style="fill:#a9db89"/><path d="M186.6,167.27a128.376,128.376,0,0,0,23.586-13.715c-12.848-8.612-19.245-30.283-19.245-30.283h0c4.528,24.664-12.791,35.547-12.791,35.547Z" style="fill:#719b56"/><path d="M190.741,163.494s-23.113-32.281-62.462.955-56.54,59.979-71.63,79.653c0,0-30.072,38.7-33.164,70.232a11.842,11.842,0,0,0,14.753,12.659c21.247-5.559,61.549-23.7,113.154-71.43C151.392,255.563,218.438,196.54,190.741,163.494Z" style="fill:#fc997e"/><path d="M195.132,151.981a3.364,3.364,0,0,1-.335-4.356C219.11,114.3,211.488,85.586,211.408,85.3a3.362,3.362,0,0,1,6.468-1.833c.368,1.29,8.7,32.008-17.648,68.121A3.372,3.372,0,0,1,195.132,151.981Z" style="fill:#719b56"/><path d="M149.017,168.587c-3.007-2.651-8.086-6.817-12.475-10.338q-2.768,1.817-5.658,4.085c4.6,3.67,10.465,8.455,13.687,11.3C147.93,176.493,152.286,171.57,149.017,168.587Z" style="fill:#e0625c"/><path d="M115.519,175.7a247.854,247.854,0,0,1,26,24.768,3.361,3.361,0,1,0,5.041-4.448,250.341,250.341,0,0,0-26-24.876Q117.968,173.44,115.519,175.7Z" style="fill:#e0625c"/><path d="M75.675,264.5a3.361,3.361,0,0,0-.006-4.754c-5.378-5.368-12.929-11.949-18.438-16.406-1.025,1.362-1.171,1.465-4,5.412,5.329,4.323,12.538,10.614,17.688,15.753A3.363,3.363,0,0,0,75.675,264.5Z" style="fill:#e0625c"/><path d="M84.444,306.489c-3.819-4.907-9.508-11.741-13.879-16.425a3.361,3.361,0,1,0-4.915,4.586c4.028,4.317,9.212,10.52,12.9,15.215Q81.436,308.26,84.444,306.489Z" style="fill:#e0625c"/><path d="M131.859,227.627c-3.358-2.865-7.715,2.059-4.447,5.041a228.581,228.581,0,0,1,22.927,23.856c1.657-1.532,1.372-1.18,4.941-4.572A235.55,235.55,0,0,0,131.859,227.627Z" style="fill:#e0625c"/><path d="M132.758,250.982c-3.111-3.153-7.855,1.44-4.842,4.664,3.2,3.325,7.152,7.777,10.342,11.64q2.511-2.163,5.064-4.427C140.049,258.9,136.027,254.378,132.758,250.982Z" style="fill:#e0625c"/><path d="M161.741,185.374c-3.233,3.125-7.962-1.6-4.837-4.838C160.137,177.411,164.867,182.141,161.741,185.374Z" style="fill:#e0625c"/><path d="M25.352,327.188c11.707,25.751,204.731-96.1,171.31-161.256,24.812-6.9,27.635,13.751,52.542,14.767,11.731-.143,20.479-6.473,27.389-18.543a16.173,16.173,0,0,1,12.31-8.2c21.109-2.24,32.414-13.233,31.017-30.159-.735-8.905-4.182-15.453-10.245-19.461-9.758-6.451-23.42-4.126-29.307-2.675-4.984-9.053-16.386-15.329-28.527-9.858,6.192-16.176-1.22-29.886-7.175-37.495a32.893,32.893,0,0,1-7.167-18.12c-.644-10.043-4.964-18.729-11.554-23.236-4.09-2.8-11.172-5.433-21.682-2.1-20.739,6.577-21.763,28.819-19.141,41.516-38.359,25.14,22.447,67.273-3.7,98.661-18.2-9.925-36.736-4.816-55.382,10.777-33.611,28.39-51.016,51.833-65,70.669-9.066,13.8-33.821,38.8-41.007,81.522A15.38,15.38,0,0,0,25.352,327.188ZM275.4,107.068a3.468,3.468,0,0,0,4.287,1.969c7.06-2.33,32.218-7.037,33.334,15.329,1.09,13.2-7.269,20.839-24.846,22.7a23.109,23.109,0,0,0-17.612,11.687c-11.229,21.087-29.943,15.944-40.216,8.04-7.643-5.687-14.973-8.218-21.241-8.9,20.282-14.15,25.418-27.865,26.552-35.549a35.123,35.123,0,0,1,8.425-17.611C257.934,92.768,269.935,95.1,275.4,107.068Zm-85.213,2.1c-14.814-34.712-15.843-40.5.857-52.576a3.469,3.469,0,0,0,1.318-3.69c-.307-1.169-7.28-28.706,14-35.453,6.3-2,11.577-1.588,15.68,1.217,4.846,3.314,8.043,10.029,8.553,17.964a39.777,39.777,0,0,0,8.624,21.944c7.636,9.757,13.691,25-.826,42.191a41.479,41.479,0,0,0-9.582,20.569c-1.161,7.87-7.481,23.245-36.454,38.639a41.288,41.288,0,0,0-5.2-5.019C193.378,147.094,200.006,132.187,190.184,109.17ZM26.931,314.671c6.9-40.338,31.608-65.677,39.672-78.071,13.773-18.548,30.912-41.634,63.91-69.506,21.2-18.772,44.123-18.217,57.417-1.578C230.787,220.759,19.642,358.817,26.931,314.671Z" style="fill:#2b2b2b"/></svg>