<svg id="icons" xmlns="http://www.w3.org/2000/svg" viewBox="0 0 340 340"><title>21_shallot</title><path d="M128.33,63.683s.353,18.574,29.99,41.109C192.4,130.7,202.245,171.885,189.07,207.6c-9.422,25.538-36.429,40.793-51.053,47.412a40.934,40.934,0,0,0-16.559,13.612Z" style="fill:#b2446b"/><path d="M85.763,63.683s-4.872,20.453-39.2,44.031-37.1,72.119-35.02,85.988,8.695,40.009,34.673,51.316,39.545,27.391,39.545,27.391Z" style="fill:#b2446b"/><path d="M92.027,19.787l5.559,4.031a11.625,11.625,0,0,1,4.8,9.413v12.1l11.318-25.122a2.018,2.018,0,0,1,3.839.56l.828,6.152a13.137,13.137,0,0,0,4.369,8.135,13.171,13.171,0,0,1,4.487,9.9c.023,12.2,1.555,40.894,14.339,61.4,16.643,26.7,45.075,88.762-7.975,150.826,0,0-7.521,9.547-10.673,21.241a1.914,1.914,0,0,1-3.226.831l-5.729-5.933a1.918,1.918,0,0,0-2.883.14l-5.041,6.356a1.918,1.918,0,0,1-3.057-.067l-4.345-6a1.919,1.919,0,0,0-3.031-.1l-6.213,7.5a1.919,1.919,0,0,1-3.291-.6c-2.252-6.439-8.745-21.478-24.63-38.624C39.55,218.26,19.719,164.242,65.9,105.12c18.988-23.876,24.111-52.7,21.989-83.071A2.612,2.612,0,0,1,92.027,19.787Z" style="fill:#f980a0"/><path d="M290.048,178.851c-13.366-10.522-22.741-25.313-28.843-41a13.245,13.245,0,0,0-24.516,0c-1.52,3.7-3.2,7.459-5.035,11.2a88.514,88.514,0,0,1-23.808,29.8c-15.5,12.513-43.9,42.145-38.033,87.909,7.993,62.316,79.134,59.151,79.134,59.151s71.141,3.165,79.134-59.151C333.951,221,305.55,191.364,290.048,178.851Z" style="fill:#b2446b"/><path d="M247.293,166.153a105.379,105.379,0,0,1-24.3,31.8c-10.485,9.42-26.627,23.735-32.658,46.249-10.245,38.8,14.318,81.427,58.612,81.712,0,0,45.9,2.309,56.121-45.733a79.533,79.533,0,0,0-12.606-61.862A121.6,121.6,0,0,0,268,192.456C256.044,182.968,248.854,169.538,247.293,166.153Z" style="fill:#f980a0"/><path d="M285.7,272.409c-3.22-33.948-36.752-58.474-36.752-58.474s-33.532,24.526-36.752,58.474c-2.69,28.354,7.54,53.528,36.752,53.5C279.154,325.233,288.389,300.763,285.7,272.409Z" style="fill:#f9cadc"/><path d="M248.947,252.206s-22.194,13.229-22.194,40.978c0,32.753,22.194,32.727,22.194,32.727s22.194.026,22.194-32.727C271.141,265.435,248.947,252.206,248.947,252.206Z" style="fill:#ffeef5"/><path d="M122.552,129.623c4.415,21.155,7.954,55.177-3.605,88.79-1.314,3.82,3.313,6.738,5.808,3.658,8.211-10.135,17.369-26.022,17.369-46.463,0-19.04-6.71-36.292-13.233-48.566C126.948,123.385,121.7,125.521,122.552,129.623Z" style="fill:#f9cadc"/><path d="M88.9,243.105c2.775,2.721,7.53-.273,5.926-3.731-9.859-21.259-20.653-61.769-1.945-119.827A96.554,96.554,0,0,0,97.124,96.7c.2-2.991-4.282-3.788-5.27-.933a159.473,159.473,0,0,1-17.431,34.967S35.177,190.419,88.9,243.105Z" style="fill:#f9cadc"/><path d="M292.13,176.271c-12.953-10.247-21.869-24.339-27.859-39.683-5.351-13.618-25.287-13.653-30.648,0-1.574,3.826-3.237,7.526-4.944,11a85.723,85.723,0,0,1-22.915,28.686c-2.491,2.011-5.211,4.375-8.017,7.072,3.765-85.471-72.817-76.888-67.2-138.4a16.5,16.5,0,0,0-5.619-12.385,9.819,9.819,0,0,1-3.267-6.082L119.89,13.336c-.324-3.213-5.081-3.926-6.309-.92l-8.136,18.058a14.99,14.99,0,0,0-5.913-9.34L89.425,13.8a3.339,3.339,0,0,0-5.249,2.97c1.228,16.315,1.362,32.692-2.5,48.506-16.331,37.274-55.631,36.244-69.469,88.172-11.495,39.176-.464,79.773,32.684,94.6a123.484,123.484,0,0,1,31.772,20.006c5.576,9.9,7.212,16.469,7.237,16.574a3.337,3.337,0,0,0,5.781,1.356l7.326-8.841,4.772,6.59a3.342,3.342,0,0,0,5.283.116l5.622-7.089,7.078,7.332a3.339,3.339,0,0,0,5.646-1.7c1.946-10.563,8.565-20.147,10.341-22.573,9.7-4.681,19.384-9.112,30.82-18.051-10.964,70.849,58.518,102.654,120.1,81.036,25.8-9.614,41.26-28.85,44.695-55.63C337.36,220.475,309.356,190.176,292.13,176.271ZM130.989,255.129a71.051,71.051,0,0,0-10.58,20.09l-5.581-5.779a3.338,3.338,0,0,0-4.982.243l-5.257,6.628L99.872,269.8a3.337,3.337,0,0,0-5.238-.17l-6.24,7.53c-2.952-7.607-9.827-21.662-24.488-37.487-5.6-6.04-18.953-22.97-22.11-49.653a3.315,3.315,0,0,0-6.584.778c2.507,24.051,14.456,44.367,30.021,60.538a131.835,131.835,0,0,0-17.692-9.356c-42.827-18.152-46.155-95.724.9-131.532a149.792,149.792,0,0,0,22.444-18.6,101.26,101.26,0,0,1-7.6,11.231c-10.966,14.041-18.911,28.655-23.615,43.437a3.315,3.315,0,1,0,6.318,2.01c4.464-14.029,12.042-27.946,22.523-41.365,19.128-23.74,24.838-54.134,22.767-83.824,3.468,2.513,7.979,4.947,7.8,9.894V45.122A92.4,92.4,0,0,0,99.1,66.285c.65,4.316,7.071,3.459,6.574-.865a86.81,86.81,0,0,1-.054-19.194c1.778-3.949,7.379-16.379,9.244-20.518.874,11.74,8.784,10.642,9.049,19.25.142,19.471,3.31,44.472,14.84,63.15C157.362,137.888,181,196.768,130.989,255.129Zm14.056-7.288c33.4-44.424,25.754-103.3-.665-143.241a74.845,74.845,0,0,1-7.051-15.134,110.667,110.667,0,0,0,18.984,17.965c26.873,20.426,39.453,51.847,33.73,84.033a99.652,99.652,0,0,0-21.4,39.847A114.112,114.112,0,0,1,145.045,247.841Zm104.136,74.744c-12.23-.553-19.532-13.466-19.113-29.4,0-21.361,13.917-33.378,18.879-36.982,4.962,3.6,18.879,15.621,18.879,36.982C267.826,320.62,251.416,322.462,249.181,322.585Zm32.467-9.982c6.4-9.871,8.944-23.726,7.352-40.507-3.323-35.029-36.677-59.8-38.1-60.837a3.316,3.316,0,0,0-3.914,0,113.831,113.831,0,0,0-17.3,16.52,3.316,3.316,0,1,0,5.035,4.315,115.387,115.387,0,0,1,14.216-13.94c7.05,5.779,30.858,27.184,33.456,54.568,1.408,13.782.1,34-13.207,43.682,3.494-5.977,5.264-13.75,5.264-23.22,0-29.3-22.839-43.246-23.811-43.826-3.14-3.154-27.169,14.846-27.208,43.826,0,9.463,1.768,17.231,5.258,23.206-13.342-10.1-16.391-33.826-11.379-53.4a3.315,3.315,0,0,0-6.387-1.779c-4.771,17.06-2.528,39.292,5.393,51.157-20.722-14.972-29.651-41.894-22.786-67.31,5.827-21.582,21.234-35.245,31.671-44.641A113.468,113.468,0,0,0,247.336,173.2c3.412,5.739,9.651,14.747,18.6,21.851a119.081,119.081,0,0,1,23.8,25.158C309.549,246.081,308.158,294.747,281.648,312.6Zm43.145-46.265c-2.885,22.488-14.572,38.57-34.754,47.89,25.22-21.619,25.808-70.654,5.141-97.806a125.691,125.691,0,0,0-25.118-26.563c-12.764-10.128-19.69-24.946-19.758-25.094a3.342,3.342,0,0,0-6.04.04,103.2,103.2,0,0,1-23.488,30.679c-11.03,9.926-27.305,24.37-33.645,47.857-7.054,26.274,1.053,53.861,21.028,71.027-20.369-9.3-32.159-25.426-35.058-48.03-5.581-43.508,20.678-71.872,36.827-84.907,13.807-10.943,23.434-25.95,29.827-42.32a9.93,9.93,0,0,1,18.384,0c6.393,16.373,16.02,31.376,29.827,42.32C304.115,194.466,330.373,222.83,324.793,266.338Z" style="fill:#2b2b2b"/><path d="M97.778,84.657a262.861,262.861,0,0,1-10.4,37.879c-13.683,36.8-10.97,79.6,8.294,130.837a3.315,3.315,0,1,0,6.206-2.334C83.2,201.364,80.487,160.086,93.589,124.846A264.663,264.663,0,0,0,104.3,85.86C105.027,81.627,98.653,80.337,97.778,84.657Z" style="fill:#2b2b2b"/></svg>