<svg id="icons" xmlns="http://www.w3.org/2000/svg" viewBox="0 0 340 340"><title>22_beet</title><polygon points="163.141 171.4 197.536 162.143 189.123 197.382 137.42 226.985 163.141 171.4" style="fill:#719b56"/><path d="M285.438,202.146s8.905,20.938-13,34.176c0,0-8.609,22.231-31.767,18.771a28.956,28.956,0,0,1-18.453-10.011,15.407,15.407,0,0,0-16.089-4.677c-4.206,1.215-9.545.4-15.554-5.88-14.644-15.292-19.446-14.341-32.694-10.719C157.884,223.806,222.864,155.456,285.438,202.146Z" style="fill:#719b56"/><path d="M254.643,128.115a20.307,20.307,0,0,1-17.706,4.426,38.91,38.91,0,0,0-6.685-.865c-39.095,15.229-62.26,77.385-33.5,79.385a74.6,74.6,0,0,0,7.917-3.4c16.722-8.361,26.566-5.528,38.352,2,9.17,5.857,20.188,10.476,31.628-1.577,0,0,14.16,12.367,31.139-11.052a77.267,77.267,0,0,1,10.81-11.873c5.256-4.755,11.879-13.115,11.192-24.673-.828-13.907-16.921-23.845-25.382-28.131a60.614,60.614,0,0,1-8.769-5.481C286.79,121.771,271.23,113.609,254.643,128.115Z" style="fill:#a9db89"/><path d="M193.619,198.6l-9.745-7.424c-6.617,8.721-13.792,16.916-21.736,23.386,0,0,15.383,3.465,34.613-3.508C185.444,206.277,193.619,198.6,193.619,198.6Z" style="fill:#719b56"/><path d="M230.252,131.679c-10.046-.405-22.825,3.215-33.284,19.609-17.035,26.7-9.115,32.8-22.917,50.428,33.638-11.76,38.732-34.164,39.49-41.508a5.683,5.683,0,0,1,2.211-3.9A38.832,38.832,0,0,0,230.252,131.679Z" style="fill:#719b56"/><path d="M139.315,222.107s45.388-40.475,96.011-48.462c0,0-42.462,17.733-82.683,61.791Z" style="fill:#b2446b"/><path d="M129.169,116.218c-30.263-11.887-52.827,35.422-10.5,43.378,0,0-.676,13.754,18.028,22.911,7.229,3.634,12.31,11.44,9.162,19.888C145.86,202.4,173.907,170.02,129.169,116.218Z" style="fill:#719b56"/><path d="M161.469,11.058S126.223,9.044,119.174,44.29c-1.754,8.767.948,16.755,6,23.809a9.406,9.406,0,0,1-2.08,13.2c-7.219,5.107-15.673,14.558-13.735,30.209,1.686,13.62,11.26,21.359,20.144,25.661a17.961,17.961,0,0,1,10.294,15.636c.072,3.769,1.561,8.715,5.816,15.1,0,0,9.315,12.84,6.042,27.694,0,0,12.84-16.868,33.987-18.882,15.465-1.473,18.636-12.546,19.224-18.391a9.461,9.461,0,0,1,2.906-5.963c6.405-6.029,19.97-23.106-.35-46.064a26.358,26.358,0,0,1-5.01-26.266C216.639,43.013,186.438,8.762,161.469,11.058Z" style="fill:#a9db89"/><path d="M174.751,134.538s-3.651,38.8-46.787,76.219l13.592,13.591S183.392,180.646,174.751,134.538Z" style="fill:#b2446b"/><path d="M38.949,210.332a59.911,59.911,0,0,0-3.378,8.55,16.623,16.623,0,0,1-1.848,7.583c-2.737,13.956-.7,33.91,7.288,54.629,0,0,21.044,59.153,98.208,37.021,52.987-15.2,27.663-73.985,27.663-73.985.027-1.133-44.127-44.555-46.267-46.883-22-22-57.838-19.165-76.04,4.073-1.049,2.465-2.243,4.543-3.813,5.62Q39.8,208.584,38.949,210.332Z" style="fill:#f980a0"/><path d="M65.762,230.588c.107-4.46,6.741-4.413,6.786.047C72.441,235.094,65.806,235.047,65.762,230.588Z" style="fill:#b2446b"/><path d="M58.65,215.391,44.593,201.334a49.76,49.76,0,0,0-3.817,5.614l13.158,13.158A3.335,3.335,0,0,0,58.65,215.391Z" style="fill:#b2446b"/><path d="M73.259,256.566,35.576,218.884a64.539,64.539,0,0,0-1.849,7.582l34.816,34.816A3.335,3.335,0,0,0,73.259,256.566Z" style="fill:#b2446b"/><path d="M166.766,243.984c3.071,10.848.961,29.207-20.59,50.758-31.33,31.33-80.69,24.968-105.011-13.179h0c2.042,6.288,5.175,19.669.182,32.161a3.317,3.317,0,0,0,3.993,4.445,48.685,48.685,0,0,1,35.292,2.985c13.712,6.513,39.478,10.808,64.222,1.545C177.26,310.568,187.255,270.4,166.766,243.984Z" style="fill:#b2446b"/><path d="M159.867,292.135,143.912,276.18A3.334,3.334,0,0,0,139.2,280.9l15.955,15.954Z" style="fill:#b2446b"/><path d="M113.243,316.467,87.1,290.326a3.334,3.334,0,1,0-4.715,4.716l26.141,26.141Z" style="fill:#b2446b"/><path d="M171.706,282.417l-33.071-33.07a3.334,3.334,0,1,0-4.715,4.715l33.07,33.071Z" style="fill:#b2446b"/><path d="M91.164,217.9c-5.728,3.118-12.669,1.425-15.5-3.781-6.306-12.756,13.453-23.51,20.741-11.293C99.236,208.03,96.891,214.779,91.164,217.9Z" style="fill:#ffeef5"/><path d="M207.058,243.608a12.071,12.071,0,0,1,12.613,3.622,32.173,32.173,0,0,0,20.51,11.16c19.585,2.927,31.107-11.108,34.929-19.8,11.908-7.593,15.06-17.4,15.414-24.894,6.27-1.969,12.3-6.894,17.964-14.71,8.849-12.394,23.585-18.53,22.631-38.7C328.9,139.822,308.5,133.161,295.631,124.2c-6.752-5.026-24.477-14.949-43.183,1.41a17.048,17.048,0,0,1-14.8,3.678,39.271,39.271,0,0,0-16.184-.236c-.362-8.311-4.222-16.685-11.545-24.959A22.972,22.972,0,0,1,205.55,81.15c14.795-37.92-15.834-75.872-44.172-73.43-3.5-.088-38.288-.014-45.474,35.916-1.788,8.943.417,17.826,6.554,26.4a6.1,6.1,0,0,1-1.293,8.539c-8.539,5.526-18.258,18.634-14.768,35.575-22.888,13.764-16.939,43.55,9.175,48.3.823,5.107,4.406,15.584,19.66,23.053a15.12,15.12,0,0,1,6.846,6.52c-3.223,3.7-6.817,7.447-10.778,11.2l-8.327-8.327C98.085,168.9,51.028,175.858,35.952,208.872c-22.9,48.986,20.033,80.6-1.766,110.77-1.593,1.746-6.375,5.992-10.75,6.115-5.357-.033-8.839-6.1-7.757-11.288A3.334,3.334,0,0,0,9.1,313.4a16.539,16.539,0,0,0,4.649,14.91c8.537,8.92,20.709,1.164,25.131-3.922,2.559-1.435,19.538-10.1,40.325-.226,15.63,7.424,42.354,10.815,66.822,1.656,39.71-15.15,46.37-66.789,14.245-93.637q3.591-3.72,7.179-7.166C182.481,222.282,189.814,248.656,207.058,243.608Zm63.658-10.14c-2.92,1.966-6.981,20.959-29.55,18.327a25.7,25.7,0,0,1-16.4-8.863,18.742,18.742,0,0,0-19.563-5.73c-3.872,1.118-7.976-.558-12.221-4.983-7.747-8.092-13.186-12.131-18.8-13.464l.027-.025a75.216,75.216,0,0,0,12.2-1.368c32.131-5.06,51.062,11.845,51.21,12.021a3.334,3.334,0,0,0,4.539-4.885c-.657-.612-13.025-11.855-35.1-14.295,14.706-7.1,23.114-4.794,34.167,2.264,9.316,5.949,21.451,11.14,33.85-.139a19.649,19.649,0,0,0,8.687,2.321C283.008,222.355,278.637,228.68,270.716,233.468ZM236.23,135.8a23.739,23.739,0,0,0,20.608-5.174c14.507-12.687,28.038-6.123,34.812-1.081,10.879,8.372,29.891,12.932,32.813,31.135.68,17.566-13.884,22.879-21.374,34.391-7.307,10.653-18.322,16.6-26.245,10.5a3.334,3.334,0,0,0-4.612.216c-9.108,9.6-17.547,7.365-27.416,1.063-27.036-17.616-35.455-.281-61.9,4.37A266.647,266.647,0,0,1,226.9,181.491c13.72-4.686,25.653,5.371,25.782,5.482,3.358,2.8,7.617-2.1,4.37-5.037a38.615,38.615,0,0,0-14.368-7.315c25.559-7.9,46.251-2.214,46.473-2.151a3.334,3.334,0,0,0,1.84-6.41c-.621-.178-9.537-2.656-22.922-2.326a23.491,23.491,0,0,0,5-8.949c.977-4.273-5.352-5.834-6.474-1.6-.02.082-2.125,8.141-11.826,11.768a100.863,100.863,0,0,0-20.326,5.457q-3.431.552-6.811,1.3a26.831,26.831,0,0,0,4.555-11.252c.392-4.34-6.041-5.051-6.627-.736-.051.417-1.362,10.234-12.333,15.977a180.363,180.363,0,0,0-27.728,12.056c.887-2.658,1.545-5.267,2.268-7.943,16.416-2.43,20.606-15.407,20.575-23.508,3.2-2.665,10.53-9.761,12.6-20.3A32.2,32.2,0,0,1,236.23,135.8Zm-60.443,57.464c-5.507,3.309-10.566,6.662-15.1,9.866a136.471,136.471,0,0,0,10.074-18.61,44.071,44.071,0,0,1,9.811-3.591A47.573,47.573,0,0,1,175.787,193.263ZM125.016,84.024c5.725-3.881,6.993-12.348,2.865-17.865-5.02-7.016-6.85-14.154-5.438-21.215,6.927-32.232,37.2-30.573,39.364-30.569,23.545-1.844,50.627,30.9,37.459,64.54-8.859,27.695,17.7,31.439,15.415,54.048-1.353,11.644-11.549,18.969-11.645,19.037a3.333,3.333,0,0,0-1.411,3.04c.062.68,1.333,16.677-16.3,18.357a47.972,47.972,0,0,0-11.154,2.447,92.134,92.134,0,0,0,4.649-20.421c2.754-15.768,16.364-25.583,16.579-25.736,3.539-2.571-.2-7.915-3.829-5.46a53.324,53.324,0,0,0-12.894,13.9q-.237-1.881-.576-3.772a152.859,152.859,0,0,0-1.77-33.4c-1.023-9.677,6.165-17.159,6.274-17.27,3.023-3.159-1.6-7.749-4.736-4.7a31.307,31.307,0,0,0-4.928,6.982,86.1,86.1,0,0,0-6.651-17.056c-2.218-3.772-7.887-.577-5.809,3.276.112.2,9.419,17.146,10.966,45.612-7.568-7.4-17.762-8.5-18.345-8.554a3.334,3.334,0,0,0-.654,6.636c.611.063,14.843,1.682,19.147,14.411-.648,7.667-.729,18.82-17.952,46.6-4.062-12-10.082-14.984-10.512-24.146a21.418,21.418,0,0,0-12.175-18.573C107.367,123.808,107.374,95.393,125.016,84.024Zm13.148,95.489c-16.3-7.984-16.175-19.309-16.164-19.753a3.332,3.332,0,0,0-2.886-3.468C98.266,153.884,91.4,133,108.359,120.727c3.4,8.159,10.071,14.789,19.687,19.446a14.692,14.692,0,0,1,8.413,12.7c.095,5,2.24,10.681,6.375,16.884a37.169,37.169,0,0,1,5.73,14.275q-.974,1.287-2,2.585A22.143,22.143,0,0,0,138.164,179.513Zm33.654-22.332c-3.71,26.029-20.436,48.632-28.412,58.141l-7.39-7.389C155.67,189.315,166.218,170.884,171.818,157.181ZM160.049,241.4a47.819,47.819,0,0,1,12.935,44.141c-7.873,41.252-64.026,45.785-90.922,32.6a51.816,51.816,0,0,0-37.586-3.222c7.012-17.506-.693-36.245-1.558-38.243-9.005-25.9-9.332-47.733-.972-64.884,13.22-28.874,54.578-35.112,76.312-12.187Zm-4.489-13.92-6.779-6.78c9.369-7.832,31.9-25.19,59.087-35.914A284.406,284.406,0,0,0,155.56,227.477Z" style="fill:#2b2b2b"/></svg>