<svg id="icons" xmlns="http://www.w3.org/2000/svg" viewBox="0 0 340 340"><title>26_cucumber</title><path d="M198.267,19.862a57.834,57.834,0,0,0-6.488,4.537c-8.151-8.508-20.144,3.9-11.4,11.765C172.593,46.919,171,53.089,159.993,66.121c-8.245-6.366-18.19,4.834-10.925,12.264a233.7,233.7,0,0,1-23.959,21.621c-6.671-8.3-19.159.781-13.264,9.7a137.289,137.289,0,0,1-26.452,13.9c-4.685-8.824-18.093-4.209-16.232,5.726-10.013,3.609-22.142,8.886-32.253,16.773-8.1-8.447-20.122,3.712-11.606,11.716a44.785,44.785,0,0,0-8.952,27.211c0,50.551,74.852,21.665,74.852,21.665S175.961,151.2,224.612,85.827c0,0,13.54-16.38,15.629-39.315C242.325,23.646,217.967,8.069,198.267,19.862Z" style="fill:#3e6a51"/><path d="M299.485,18.117q-1.574-.54-3.094-.957l-12.2-1.623c-20.689.359-31.16,17.3-31.16,17.3a395.532,395.532,0,0,1-23.512,35.79c-10.565-6.056-20.929,7.793-12.28,16.219-8.716,11.05-18.932,23.065-30.552,35.224-9.841-8.623-23.081,4.634-14.461,14.463A392.336,392.336,0,0,1,137.9,163.836c-8.2-10.105-23.52.653-16.688,11.835a295.312,295.312,0,0,1-35.885,20.5c-5.919-11.5-23.062-4.236-18.777,8.106-6.269,2.8-11.647,2.825-27.767,15.88a11.911,11.911,0,0,1-9.554,2.654c-10.914-1.414-16.019,12.924-6.925,18.769-4.735,9.634-7.268,23.493-5.267,34.85a27.246,27.246,0,0,1,2.654,10.162c13.612,34.315,47.515,41.682,84.543,30.81,4.83,13.181,24.044,6.272,19.217-7.053,17.1-7.465,32.851-17.612,49.885-31.045,8.881,8.025,21.939-2.9,15.547-13.075a474.857,474.857,0,0,0,40.956-41.436c10.106,6.238,20.9-6.612,13.1-15.482,11.717-14.376,22.732-29.36,32.678-44.432,10.947,4.9,19.91-9.519,10.846-17.177a386.232,386.232,0,0,0,24.264-46.724c10.663,2.217,16.314-12.2,6.839-17.675,4-13.374,12.13-30.59-.366-51.994l-7.948-8.221A37.328,37.328,0,0,0,299.485,18.117Z" style="fill:#80b297"/><path d="M234.165,169.145c-3.195-3.353,1.71-8.19,5.018-4.948C242.378,167.55,237.472,172.387,234.165,169.145Z" style="fill:#3e6a51"/><path d="M176.967,82.286c-3.2-3.353,1.71-8.19,5.017-4.948C185.179,80.691,180.274,85.528,176.967,82.286Z" style="fill:#224730"/><path d="M296.39,17.166A42.917,42.917,0,0,0,284.2,15.549c-26.26,22.069-18.008,34.5-53.748,88.145A6.012,6.012,0,0,1,225,106.349a13.529,13.529,0,0,0-3.376.2,13.073,13.073,0,0,0-9.6,17.826,5.98,5.98,0,0,1-.683,6.04c-6.975,8.951-14.311,17.542-21.8,25.533a5.789,5.789,0,0,1-5.934,1.591c-7.753-2.633-16.494,3.242-16.978,11.443-.309,3.713,2.012,7.475-1.466,10.311a252.675,252.675,0,0,1-28.6,20.837,5.717,5.717,0,0,1-5.676.376,13.076,13.076,0,0,0-19.03,9.543,5.987,5.987,0,0,1-3.421,5.427c-10.257,4.89-21.529,8.93-31.448,13.839a6.186,6.186,0,0,1-5.588-.282,13.074,13.074,0,0,0-19.013,9.737c-.062,2.322-.654,4.868-2.592,6.086C38.7,252.548,25.985,261.1,17.052,276.425a54.547,54.547,0,0,0,2.642,10.164c7.781-18.162,21.512-27.354,34.037-36.034a13.242,13.242,0,0,0,5.509-10.814,6.15,6.15,0,0,1,8.936-4.574,13.041,13.041,0,0,0,11.813.39c9.908-4.9,21.164-8.924,31.4-13.815a12.654,12.654,0,0,0,7.261-10.224,6.15,6.15,0,0,1,8.994-4.889,12.655,12.655,0,0,0,12.6-.628,259.777,259.777,0,0,0,29.386-21.411,12.858,12.858,0,0,0,4.069-13.083,6.153,6.153,0,0,1,7.82-7.363,12.752,12.752,0,0,0,13.077-3.456c7.635-8.145,15.109-16.9,22.213-26.013a12.991,12.991,0,0,0,1.62-12.942,6.271,6.271,0,0,1-.328-3.637,6.129,6.129,0,0,1,6.444-4.837,12.942,12.942,0,0,0,11.7-5.768c22.018-33.579,32.569-59.962,33.547-62.46C279.723,25.165,290.049,19,296.39,17.166Z" style="fill:#3e6a51"/><path d="M309.249,23.088C313.324,39.663,305,53.5,293.513,74.605c-3.832,7.1-8.175,15.153-12.972,24.3a3.462,3.462,0,0,0,1.425,4.657,4.711,4.711,0,0,1-2.226,8.862,4.645,4.645,0,0,1-2.312-.61,3.463,3.463,0,0,0-4.7,1.283c-5.477,9.488-11.416,18.887-17.654,27.934a3.462,3.462,0,1,0,5.7,3.931c5.789-8.4,11.326-17.093,16.483-25.883,11.227,2.472,18.825-11.413,10.772-19.533,4.246-8.055,8.122-15.239,11.58-21.65,11.353-21.655,16.917-28.691,17.581-46.58A31.92,31.92,0,0,0,309.249,23.088Z" style="fill:#3e6a51"/><path d="M52.9,297.625c-2.645.159-5.649-.283-5.637-3.663a3.467,3.467,0,0,1,3.612-3.306c17.849.8,44.705-9.415,75.623-28.736a3.463,3.463,0,0,1,4.693.983,4.706,4.706,0,0,0,7.87-5.162,3.463,3.463,0,0,1,.957-4.7c16.035-11.278,26.991-18.739,41.4-30.894a3.461,3.461,0,0,1,4.687.217c4.153,4.09,10.587-1.493,7.073-6.183a3.462,3.462,0,0,1,.41-4.675c9.326-8.491,18.333-17.491,26.767-26.749,3.054-3.281,8.164,1.207,5.119,4.663-7.968,8.746-16.436,17.264-25.2,25.352,4.035,10.07-7.087,19.769-16.51,14.434-12.574,10.528-23.876,18.31-37.483,27.909,3.068,10.829-9.845,19.273-18.529,12.174C105.944,282.676,76.344,297.625,52.9,297.625Z" style="fill:#3e6a51"/><path d="M108.14,136.7c-.064-2.667,3.421-4.382,5.519-2.854a9.17,9.17,0,0,0,9.723.227,218.964,218.964,0,0,0,22.17-14.8,9.064,9.064,0,0,0,3.34-8.87,3.594,3.594,0,0,1,2.825-4.138,3.637,3.637,0,0,1,1.925.151,9.423,9.423,0,0,0,9.405-2.016,77.276,77.276,0,0,0,8.085-8.007,3.462,3.462,0,0,0-5.284-4.476,70.423,70.423,0,0,1-7.378,7.287,2.586,2.586,0,0,1-2.452.707,10.563,10.563,0,0,0-13.914,7.859c-.712,1.914.83,4.661-.744,5.992a211.948,211.948,0,0,1-21.466,14.327,2.314,2.314,0,0,1-2.425-.027,10.441,10.441,0,0,0-5.764-1.727c-5.441-.069-10.676,4.8-10.49,10.4a2.181,2.181,0,0,1-1.286,1.869,237.474,237.474,0,0,1-28.621,11.476,2.2,2.2,0,0,1-2.342-.547C63.8,143,53.12,146.356,51.24,153.843a2.252,2.252,0,0,1-1.654,1.531c-9.129,2.137-24.2,10.872-32.947,24.42a43.6,43.6,0,0,0,.886,15.172c4.3-18.681,24.6-30.734,33.638-32.849a9.2,9.2,0,0,0,6.71-6.286,3.81,3.81,0,0,1,3.625-2.883,2.6,2.6,0,0,1,2.183,1.057,9.07,9.07,0,0,0,9.716,2.674,245.4,245.4,0,0,0,29.567-11.854A9.106,9.106,0,0,0,108.14,136.7Z" style="fill:#224730"/><path d="M214.081,15.879c-7.049,4.141-13.547,14.342-16.5,25.027a2.534,2.534,0,0,1-2.224,1.509A10.466,10.466,0,0,0,188.1,59.132c1.186,1.764-.917,3.7-1.637,5.309a3.463,3.463,0,0,0,1.23,4.74c3.558,1.868,5.133-1.786,6.532-4.37a9.061,9.061,0,0,0-.6-9.851,3.533,3.533,0,0,1-.716-2.143,3.45,3.45,0,0,1,3.046-3.5,9.359,9.359,0,0,0,8.116-6c3.8-13.974,12.04-22.7,20.563-24.671A27.591,27.591,0,0,0,214.081,15.879Z" style="fill:#224730"/><path d="M37.093,217.037c-1.24,1.063-2.48,2.193-3.708,3.392-13.761-6.022-25.792,11.437-15.32,22.143-14.771,32.362,3.287,73.113,38.246,80.867,13.769,3.243,29.247,2.6,46.046-1.918,7.77,12.408,27.224,5.386,25.2-9.211,14.966-6.82,29.753-16.14,45.863-28.666,10.871,6.483,24.244-4.759,19.736-16.59A478.3,478.3,0,0,0,230.7,229.046c11.717,4.358,22.818-8.774,16.577-19.593,10.6-13.125,20.59-26.714,29.761-40.461,12.3,2.8,21.55-11.913,13.746-21.775a389.72,389.72,0,0,0,22.108-42.538c11.721.085,17.467-14.887,8.757-22.659,1.923-5.813,3.507-11.422,4.731-16.761.079-.388,7.531-38.984-25.773-50.416-33.046-11.346-50.35,15.9-50.52,16.171-.244.338-2.122,3.853-6.366,10.542-1.886-25.8-31.957-38.175-51.848-21.594-10.65-6.736-22.97,5.985-15.948,16.417-6.653,9.7-5.94,11.573-16.777,25.276-9.981-4.123-19.854,7.009-14.618,16.421A231.044,231.044,0,0,1,125.3,95.428c-8.914-6.434-21.275,2.553-17.886,13.038a132.532,132.532,0,0,1-20.789,10.9c-7.035-7.934-20.721-2.993-21.09,7.608-11.489,4.319-20.865,9.155-28.513,14.708-10.622-6.751-23.014,5.86-16.1,16.36C7.248,178.026,9.881,212.231,37.093,217.037ZM256.01,34.606c.759-1.174,15.1-22.572,42.351-13.214,27.521,9.447,21.5,41.146,21.253,42.4a182.568,182.568,0,0,1-5.323,18.38,3.463,3.463,0,0,0,1.563,4.135A6.113,6.113,0,0,1,311.489,97.6a3.461,3.461,0,0,0-3.946,2.014,381.938,381.938,0,0,1-24.047,46.3,3.463,3.463,0,0,0,.758,4.454,6.782,6.782,0,0,1-4.319,12.012c-2.7-.019-5.055-2.436-7.209.591a547.757,547.757,0,0,1-32.471,44.152,3.462,3.462,0,0,0,.109,4.5,6.77,6.77,0,0,1-8.665,10.245,3.461,3.461,0,0,0-4.459.637,470.8,470.8,0,0,1-40.654,41.132,3.462,3.462,0,0,0-.6,4.474,6.747,6.747,0,0,1,1.094,3.683c.166,5.744-7.279,9.021-11.385,4.967a3.461,3.461,0,0,0-4.5-.173c-17.468,13.74-32.539,23.329-49.122,30.586a3.462,3.462,0,0,0-1.812,4.5,6.781,6.781,0,1,1-12.722,4.668,3.467,3.467,0,0,0-4.266-2.262c-16.739,4.888-32,5.77-45.368,2.625-31.941-7.215-47.086-44.749-32.462-73.639a3.464,3.464,0,0,0-1.259-4.4c-7.561-5.108.13-16.566,7.711-11.127a3.464,3.464,0,0,0,4.584-.381A76.691,76.691,0,0,1,63.82,209.013c2.805-1.1,7.311-1.919,5.966-5.973a6.807,6.807,0,0,1,6.33-9.2,6.733,6.733,0,0,1,6.1,3.835,3.463,3.463,0,0,0,4.611,1.611,299.716,299.716,0,0,0,36.307-20.736,3.463,3.463,0,0,0,.982-4.776c-2.965-4.312.42-10.622,5.679-10.482a6.738,6.738,0,0,1,5.368,2.653,3.462,3.462,0,0,0,4.829.649,396.861,396.861,0,0,0,34.631-29.564,3.462,3.462,0,0,0,.148-4.857,6.756,6.756,0,0,1-1.814-4.6c-.169-5.749,7.28-9.017,11.383-4.969a3.463,3.463,0,0,0,4.856-.148c10.6-11.093,20.952-23.027,30.768-35.473a3.463,3.463,0,0,0-.333-4.653,6.719,6.719,0,0,1-2.117-4.91,6.79,6.79,0,0,1,6.783-6.782c3-.114,5.46,3.272,8.03.017A398.875,398.875,0,0,0,256.01,34.606ZM28.089,159.873a3.462,3.462,0,0,0-.523-4.674,4.8,4.8,0,1,1,6.744-6.809,3.461,3.461,0,0,0,4.727.441c7.964-6.212,18.2-11.526,31.3-16.244a3.462,3.462,0,0,0,2.218-3.952,5.224,5.224,0,0,1,9.763-3.445,3.463,3.463,0,0,0,4.35,1.633c4.63-1.74,27.706-12.209,28.584-16.484.486-2.007-1.613-3.372-1.439-5.356-.132-4.441,5.97-6.493,8.545-2.877a3.483,3.483,0,0,0,4.892.622,237.5,237.5,0,0,0,24.314-21.942,3.462,3.462,0,0,0-.076-4.878,4.726,4.726,0,0,1-1.439-3.406,4.789,4.789,0,0,1,7.761-3.695,3.462,3.462,0,0,0,4.861-.489,140.651,140.651,0,0,0,14.2-20.337,76,76,0,0,1,6.262-9.72,3.463,3.463,0,0,0-.555-4.77,4.758,4.758,0,1,1,6.6-6.81,3.46,3.46,0,0,0,4.772.418c21.081-19.013,49.481-.333,41.751,26.708-2.209,3.256-4.66,6.782-7.35,10.529C216.31,60.448,205.8,74.388,212.793,84.881c-8.525,10.687-17.44,20.972-26.555,30.635-11.847-6.431-24.991,6.719-18.562,18.561-9.668,9.1-19.562,17.553-29.476,25.178-10.57-8.277-25.707,2.432-21.4,15.179a293.3,293.3,0,0,1-30.254,17.3c-8.581-10.19-25.55-2.917-24.05,10.391-2.059.835-7.66,2.429-17.752,9.1C15.814,210.077,14.364,178.541,28.089,159.873Z" style="fill:#2b2b2b"/></svg>