<svg id="icons" xmlns="http://www.w3.org/2000/svg" viewBox="0 0 340 340"><title>28_cacao</title><path d="M118.165,46.1s19.775.778,35.338,11.842c29.752,21.15,62.787,16.271,62.787,16.271,34.074-3.313,59.085-24.793,65.129-54.824a5.757,5.757,0,0,0-7.744-6.473C268.254,14.994,259.857,16.5,247.3,15,247.3,15,145.77-7.277,118.165,46.1Z" style="fill:#80b297"/><path d="M249.835,29.586a3.381,3.381,0,0,0-4.7-.881c-6.866,4.7-18.092,6.306-31.387,6.646,3.828-3.788,9.308-5.616,13.8-8.887a3.382,3.382,0,1,0-4.173-5.324,15.709,15.709,0,0,1-2.266,1.458c-4.336,2.315-8.213,4.367-11.216,7.141-3.644,3.357-9.3,5.4-15.137,5.466-3.5-.1-23.541-.823-29.99-.919A31.285,31.285,0,0,0,171.1,23.554a3.381,3.381,0,0,0-1.8-4.431c-2.456-1.011-4.389.854-4.974,3.155-3.595,8.643-8.9,12.382-14.793,12.115-42.814,1.519-51.667,30.486-52.024,31.718A3.383,3.383,0,0,0,104,68c.312-1.041,8.051-25.511,45.769-26.849.53-.019,21.007-.016,30.527.322,1.309,5.386,6.787,21.135,26.665,25.481a3.382,3.382,0,0,0,1.444-6.609c-14.537-3.178-19.482-13.484-21.07-18.62,25.261.9,48.772,1.347,61.615-7.44A3.383,3.383,0,0,0,249.835,29.586Z" style="fill:#3e6a51"/><path d="M236.349,274.459a28.709,28.709,0,0,1-1.261,11.79l-7.8,13.816-40.276.848a17.978,17.978,0,0,1,5.234-24.564c8.607-5.731,18.843-9.346,30.021-11.735A11.653,11.653,0,0,1,236.349,274.459Z" style="fill:#473030"/><path d="M272.282,255.784a10.482,10.482,0,0,0-12.92,1.59c-6.47,6.755-1.415,28.576,11.4,38.359l19.489-.747c7.306-6.258,7.4-18.7.149-25.338A102.5,102.5,0,0,0,272.282,255.784Z" style="fill:#473030"/><path d="M226.028,287.627c1.819-15.554,21.85-15.791,36.205-6.256,7.568,9.366,1.753,13.851-7.63,17.035C242.515,300.809,232.763,297.744,226.028,287.627Z" style="fill:#6d4b4b"/><path d="M193.43,323.9H176.047a7.168,7.168,0,0,1-6.961-8.944c1.9-7.262,6.58-16.888,18.153-20.615,7.294-2.348,12.243-1.5,15.582.489C201.1,306.667,198.578,317.294,193.43,323.9Z" style="fill:#6d4b4b"/><path d="M58.84,19.921l4.389-3.749a10.656,10.656,0,0,1,12-1.26c10.547,5.707,29.5,20.108,29.5,49.912H86.7S86.371,35.325,58.84,19.921Z" style="fill:#8e3e3e"/><path d="M99.634,60.21h-7.61a19.081,19.081,0,0,0-18.71,15.336A114.814,114.814,0,0,1,61.463,110.03C24.336,179.151,13.8,257.763,69.991,305.839A97.091,97.091,0,0,1,83.27,320.326c37.144-5.113,55.607-58.236,71.254-118.6C125.662,79.541,111.93,64.78,99.634,60.21Z" style="fill:#cb6b67"/><path d="M97.443,293.725c-7.954-57.732-8.318-120.167-3.675-181.574.422-5.581,8.629-5.535,8.975.051,2.905,46.876,5.517,118.342.282,181.363A2.81,2.81,0,0,1,97.443,293.725Z" style="fill:#8e3e3e"/><path d="M135.325,110.03A111.935,111.935,0,0,1,124.185,79.1l-.711-3.558a19.082,19.082,0,0,0-18.71-15.336h-5.13c9.268,7.915,10.208,26.806,10.208,26.806s.651,5.14,2.435,12.974a167.494,167.494,0,0,0,10.533,31.233c9.377,20.933,34.632,88.84,5.013,143.773-8.9,16.508-24.289,36.351-44.557,45.333,5.671,10.708,21.068,12.788,28.348,2.629A97.7,97.7,0,0,1,126.8,305.84C183.017,257.737,172.425,179.1,135.325,110.03Z" style="fill:#8e3e3e"/><path d="M262.228,281.379c3.254,12.187-5.92,12.68-10.987,12.092a6.634,6.634,0,0,1-4.322-2.335c-5.524-6.587-16.908-4.5-20.89-3.509-.672,6.463,2.053,12.963,2.053,12.963,12.079,9.825,40.128,7.814,40.128,7.814L273.5,292.91A40.88,40.88,0,0,0,262.228,281.379Z" style="fill:#473030"/><path d="M202.819,294.83c-8.714,2.606-21.2,19.424-9.389,29.067h13.25l2.826-19.09S208.455,298.191,202.819,294.83Z" style="fill:#473030"/><path d="M285.022,321.169c4.658,2.327,10.952,3.618,16.085,1.625,7.877-2.442,10.813-12.447,5.73-19.939-3.434-5.209-10.985-14.345-23.386-17.822-1.634-.78-13.906-2.283-15.2,8.957Z" style="fill:#6d4b4b"/><path d="M268.251,294.1c-.654,8.562,7.39,19.681,7.39,19.681a27.568,27.568,0,0,0,9.385,7.38C292.121,305.68,269.3,294.6,268.251,294.1Z" style="fill:#473030"/><path d="M244.085,321.1a17.943,17.943,0,0,0,9.668,2.8h17.861a8.494,8.494,0,0,0,7.658-12.161c-3.119-6.532-9.081-13.288-20.414-13.437a48.443,48.443,0,0,0-8.031.512Z" style="fill:#6d4b4b"/><path d="M235.088,308.4c.021,1.029,4.04,10.054,9.01,12.671,9.538-7.249,7.672-18.545,6.73-22.258C237.454,300.883,235.088,308.4,235.088,308.4Z" style="fill:#473030"/><path d="M206.68,323.9h18.145a16.115,16.115,0,0,0,5.945-1.1c4.818-1.912,12.658-6.962,14.038-19.788a9.135,9.135,0,0,0-9.5-10.094c-12.872.558-34.667,4.281-36.1,22.969A7.475,7.475,0,0,0,206.68,323.9Z" style="fill:#6d4b4b"/><path d="M80.669,296.223a2.846,2.846,0,0,1-4.789,3C28.639,241.108,48.751,175.132,62.139,145.9c7.947-17.354,14.485-39.666,18.812-56.489a2.581,2.581,0,0,1,5.074.832C84.762,107,80.21,128.087,72.207,149.619,48.874,212.39,67.588,268.454,80.669,296.223Z" style="fill:#8e3e3e"/><path d="M102.2,92.263c-.127,5.02-7.486,5.019-7.612,0C94.715,87.243,102.073,87.244,102.2,92.263Z" style="fill:#8e3e3e"/><path d="M292.746,267.21a106.4,106.4,0,0,0-18.725-14.327,13.922,13.922,0,0,0-17.1,2.152c-4.774,5.388-3.936,10.331-2.914,18.543a34.878,34.878,0,0,0-14.764-1.77c-1.917-7.439-10.2-12.251-17.683-10.5-18.321,4.52-42.288,11.271-40.616,32.08-9.2,5.022-13.311,13.748-15.129,20.712-1.864,6.433,3.547,13.367,10.235,13.18h48.777c5.754-.146,9.535-1.788,14.421-5.7a21.133,21.133,0,0,0,14.507,5.7h17.861a11.79,11.79,0,0,0,9.3-4.51c26.844,15.188,46.387-12.76,17.3-34.057A20.969,20.969,0,0,0,292.746,267.21Zm-32.582-4.034c.439-4.712,6.433-7.02,10.38-4.491a99.508,99.508,0,0,1,17.513,13.4,14.245,14.245,0,0,1,4.166,12.824c-6.725-3.2-13.719-6.276-21.8-1.125a43.058,43.058,0,0,0-8.529-6.6A36.022,36.022,0,0,1,260.164,263.176Zm5.952,25.868a14.091,14.091,0,0,0-1.268,6.557c-5.676-1.267-12.952-.673-18.076.591-3.482-6.826-10.745-7.267-17.452-6.212C229.028,273.585,252.955,275.341,266.116,289.044Zm-72-9.88c7.556-5.03,16.994-8.708,28.854-11.242a8.356,8.356,0,0,1,9.711,5.533c-7,2.938-10.514,9.178-10.108,17.55a46.708,46.708,0,0,0-13.6,4.8c-3.26-4.083-9.64-8.406-21.359-5.111A14.594,14.594,0,0,1,194.118,279.164Zm2.5,41.351H176.048a3.8,3.8,0,0,1-3.025-1.487,3.7,3.7,0,0,1-.664-3.221c1.706-6.536,5.852-15.008,15.917-18.249,6.927-2.231,12.016-1.49,15.173,2.187C198.114,304.708,194.127,313.044,196.623,320.515Zm44.822-17.863c-1.141,10.6-7.112,15.1-11.923,17-3,1.612-19.346.59-22.842.859a4.111,4.111,0,0,1-4.1-4.369c1.231-16.083,21.124-19.338,32.872-19.847A5.782,5.782,0,0,1,241.445,302.652Zm34.486,15.482a5.012,5.012,0,0,1-4.317,2.381H253.753a14.328,14.328,0,0,1-10.028-4.031A29.039,29.039,0,0,0,248.2,302.8c10.769-2.684,22.83-1.467,28.019,10.39A5.03,5.03,0,0,1,275.931,318.134Zm28.082-13.417c3.524,5.183,2.4,12.827-4.071,14.9-5.37,1.992-11.8-.1-16.5-3.269.352-7.4-6.006-14.514-11.425-17.894-2.46-9.722,6.014-11.75,10.52-10.166C293.9,291.477,300.87,299.949,304.013,304.717Z" style="fill:#2b2b2b"/><path d="M67.745,308.37A94.53,94.53,0,0,1,82.4,324.9a19.882,19.882,0,0,0,31.981,0,94.576,94.576,0,0,1,14.659-16.527c18.642-16.537,48.528-53.1,39.224-112.205a276.684,276.684,0,0,0-29.961-87.734A108.449,108.449,0,0,1,127.5,78.44c-1.181-10.934-8.791-20.011-19.834-21.4-2.971-26.271-20.486-39.5-30.828-45.1A13.952,13.952,0,0,0,61.033,13.6l-4.39,3.749a3.4,3.4,0,0,0,.545,5.523C75.572,33.159,81.01,50.359,82.605,58.91c-7.821,3.551-12.241,10.945-13.319,19.531a108.518,108.518,0,0,1-10.8,29.99C18.785,182.008,12.081,261.284,67.745,308.37Zm-3.172-288.9a7.5,7.5,0,0,1,9.048-1.585c9.038,4.891,24.256,16.351,27.21,38.941-2.175.05-9.673-.157-11.7.208C87.317,47.878,81.717,30.959,64.573,19.472Zm-.13,92.156A118.05,118.05,0,0,0,76.631,76.21,15.741,15.741,0,0,1,92.024,63.592h12.74A15.741,15.741,0,0,1,120.157,76.21a118.048,118.048,0,0,0,12.187,35.418c37.675,69.687,45.719,146.721-7.792,191.681a101.347,101.347,0,0,0-15.71,17.711,13.128,13.128,0,0,1-20.9,0,101.2,101.2,0,0,0-15.713-17.71C18.669,258.23,26.8,181.317,64.443,111.628Z" style="fill:#2b2b2b"/><path d="M281.689,11.313a9.192,9.192,0,0,0-9.226-1.556c-6.26,2.4-14.766,3.061-24.605,1.908-34.494-8.014-112.742-10.274-132.7,32.882a3.408,3.408,0,0,0,2.868,4.932c35.139,2.079,42.23,28.666,89.326,28.629,36.949.124,70.232-21.822,77.379-58.053A8.977,8.977,0,0,0,281.689,11.313ZM278.1,18.72c-9.2,46.714-68.85,71.116-122.64,36.465-11.288-8.026-24.481-10.9-31.728-11.921C153.125-1.549,245.618,18.1,246.576,18.309c11.135,1.422,20.865.626,28.31-2.236A2.352,2.352,0,0,1,278.1,18.72Z" style="fill:#2b2b2b"/></svg>