<svg id="icons" xmlns="http://www.w3.org/2000/svg" viewBox="0 0 340 340"><title>29_olive</title><path d="M24.375,282.61c-15.494-45.651,3.2-99.231,48.155-118.724,0,0,64.194-2.7,36.532,79.619S24.375,282.61,24.375,282.61Z" style="fill:#a9db89"/><path d="M130.6,302.564l12.771-124.7c-8.591-15.993-29.255-22.5-46.192-20.65a86.3,86.3,0,0,0-24.643,6.68c12.206,4.812,29.872,18.286,24.983,55.774C90.584,272.827,57.2,289.4,24.386,282.607c4.642,13.062,12.827,24.706,26.311,31.412C99.508,338.3,130.6,302.564,130.6,302.564Z" style="fill:#719b56"/><path d="M236.416,84.773s-31.177,44.128,15.412,107c12.611,17.02,24.594,28.351,35.364,35.825a21.388,21.388,0,0,0,33.6-18.092c-.407-18.863-6.25-44.814-27.867-73.452C252.513,82.522,236.416,84.773,236.416,84.773Z" style="fill:#80b297"/><path d="M183.027,72.3s-15,1.7-41.762,20.817c-23.875,17.054-69.751,39.49-109.44,11.354a19.521,19.521,0,0,1-1.9-30.325c10-9.067,27.751-18.232,58.691-18.38,22.829-.109,39.395,1.761,57.554,8.14C146.174,63.9,166.557,71.709,183.027,72.3Z" style="fill:#80b297"/><path d="M196.69,170.214c-44.621-14.23-86.425,21.569-85.5,77.208a99.7,99.7,0,0,0,3.441,25.655s16.785,57.521,90.177,30.6c18.2-6.677,26.823-20.444,27.241-67.3C232.445,192.148,202.169,172.154,196.69,170.214Z" style="fill:#a9db89"/><path d="M172.676,202.419a36.906,36.906,0,0,1-8.3-.965,3.462,3.462,0,0,1,1.579-6.742c2.334.546,8.386,1.6,14.154-.389a3.462,3.462,0,0,1,2.261,6.545A29.7,29.7,0,0,1,172.676,202.419Z" style="fill:#3e6a51"/><path d="M242.154,241.8c-2.858-39.159-20.036-61.432-45.467-71.543,35,17.888,36.74,118.085-32.445,126.086a52.811,52.811,0,0,1-36.69-7.989c-5.418-3.632-10.5-8.611-12.9-15.248,7.873,28.267,27.7,41.949,43.611,48.5C200.951,338,246.347,303.424,242.154,241.8Z" style="fill:#719b56"/><path d="M157.5,238.9c0,9.779-6.328,17.707-14.133,17.707-18.707-.8-18.7-34.616,0-35.413C151.175,221.19,157.5,229.117,157.5,238.9Z" style="fill:#eaffdc"/><path d="M59.41,225.277c-2.828,7.613-10.047,11.955-16.124,9.7-14.333-6.034-4.548-32.358,10.241-27.571C59.6,209.661,62.238,217.663,59.41,225.277Z" style="fill:#eaffdc"/><path d="M144.528,172.963c-21.7-29.3-65.638-21.622-91.365-1.685C31.968,187.24,18.476,212,16.147,239.211c-1.184,13.837-2.3,60.347,33.008,77.909,31.171,16.687,64.5,6.955,81.337-9.551,20.607,20,49.8,28.708,75.444,15.226,59.551-25.186,54.369-156.268-28.2-159.345,7.219-52.283,28.1-87.776,57.511-116.035a103.951,103.951,0,0,0-2.408,36.507c-15.984,30.252-15.362,65.52,16.2,109.916,12.036,15.668,33.687,41.586,50.363,41.077,13.535.229,25.45-11.828,24.844-25.48-.382-17.667-5.647-45.1-28.565-75.463C264.269,92.349,246.739,83.481,239.6,81.716c-2.05-33.345,4.176-47.2,27.687-64.774,3.539-2.836-.59-8.207-4.244-5.472-12.392,9.7-24.216,22.272-35.524,34-11.368,11.924-28.067,19.867-44.877,23.345-15.6-.7-35.038-8.069-35.324-8.177C114.344,47.829,49.247,48.38,27.6,71.579c-10.766,9.267-9.581,27.817,2.219,35.714,37.106,28.113,87.95,7.972,113.453-11.363,31.927-21.852,33.143-16.96,55.515-24.518-20.285,19.126-49.341,49.03-64.394,76.15a3.463,3.463,0,1,0,6.055,3.361c13.451-24.235,39.205-51.445,58.839-70.341-12.371,20.573-23.811,45.81-28.568,83.244A62.754,62.754,0,0,0,144.528,172.963Zm149.9,29.577c3.077,3.35,8.135-1.238,5.147-4.632-33.5-38.031-52.5-70.216-59.057-108.612,6.685,2.79,22.446,12.819,49.641,48.847,21.805,28.887,26.81,54.795,27.17,71.442a17.926,17.926,0,0,1-28.163,15.172c-37.6-26.6-73.1-84.682-54.515-128.728C242.175,132.375,261.571,165.583,294.428,202.54ZM51.786,88.9a3.467,3.467,0,0,0,4.849.643c27.374-17.935,57.189-8.693,100.052-10.373-29.8,17.441-71.033,55.367-122.86,22.478a16.03,16.03,0,0,1-6.748-12.179C26.1,70.85,59.366,58.765,90.372,59.22c32.573-.072,41.851,3.987,69.925,12.767-15.695,1.187-31.684.523-46.337-.616C74.106,68.381,45.834,83.674,51.786,88.9Zm.453,222.023C20.84,295.3,21.957,252.537,23.047,239.8c3.029-40.258,34.484-74.865,74.542-79.146,14.392-1.906,33.055,4.107,41.235,16.265-33.536,22-43.153,90.332-13.008,125.545C118.294,309.45,91.174,330.282,52.239,310.92ZM176.216,197.807a218.168,218.168,0,0,1,.773-27.423c94.767,5.093,74.392,180.339-17.413,148.025-59.685-18.533-63.532-134.488,10.413-147.5a225.774,225.774,0,0,0-.694,27.138,3.463,3.463,0,0,0,6.921-.237Z" style="fill:#2b2b2b"/></svg>