<svg id="icons" xmlns="http://www.w3.org/2000/svg" viewBox="0 0 340 340"><title>2_lettuce</title><path d="M238.374,81.606a83.7,83.7,0,0,1,38.436-15.54,10.414,10.414,0,0,1,11.926,10.179c.1,13.924-3.875,38.394-29.266,57.245C259.47,133.49,229.252,120.091,238.374,81.606Z" style="fill:#719b56"/><path d="M28.133,283.864l11.151-52.2S126.142,60.6,252.266,50.773a10.693,10.693,0,0,1,11.107,13.45,86.526,86.526,0,0,0-2.34,24.864c.966,28.644-17.7,102.346-130.024,161.565l-51.173,56C55.627,311.782,37.248,306.274,28.133,283.864Z" style="fill:#719b56"/><path d="M51.052,304.5s26.533-.263,37.492-30.567a76.553,76.553,0,0,1,20.81-30.337c4.336-3.946,8.768-10.016,12.233-19.352,17.644-36.9,60.189-56.279,104.366-85.64a118.774,118.774,0,0,0,27.534-18.057c10.22-8.946,26.694-18.582,51.225-20.385a16.221,16.221,0,0,1,17.314,16.093c.133,13.808-1.7,34.033-11.434,50.7a50.889,50.889,0,0,0-7.1,23.108c-.665,13.652-7.1,36.1-38.27,53.5a67.45,67.45,0,0,0-23.618,22.426c-16.049,24.838-57.9,68.85-142.329,39.659C78.769,310.6,60.734,312.583,51.052,304.5Z" style="fill:#a9db89"/><path d="M225.952,138.6a116.5,116.5,0,0,1-13.631,5.414c-58.852,19.169-83.868,51.9-90.742,80.226,3.752-7.838,8.838-12.471,16.9-14.4C191.894,198.737,216.916,163.183,225.952,138.6Z" style="fill:#719b56"/><path d="M206.4,21.524a14.092,14.092,0,0,1,14.876,14.681c-.386,8.675-.151,21.766,1.94,40.8,0,0,9.426,94.475-87.165,116.4-25.632,5.956-23.359,25.977-52.857,34.406a77.363,77.363,0,0,0-25.8,12.868c-12.719,2.316-22.788,15.1-31.591,32.888-2.092-11.381-4.253-30.75-.164-50.687a39.329,39.329,0,0,0-.366-17.784c-3.906-15.029-5.471-47.52,44.336-67.3,0,0-10.1-35.875,26.594-52.226a75.1,75.1,0,0,0,31.25-26.4C138.183,43.462,160.636,23.942,206.4,21.524Z" style="fill:#a9db89"/><path d="M44.94,293.094c7.661,5.9,21.844,9.966,48.038,3.514,65.455-19.873,100.778-74.8,149.527-113.912l24.8-21.556a2.184,2.184,0,0,1,3.188,2.948c-32.4,43.592-130.241,164.867-208.481,153.791C45.046,314.5,37.971,302.506,44.94,293.094Z" style="fill:#f6fcde"/><path d="M80.837,192.536a3.317,3.317,0,0,0-4.59-4.69C45.54,210.651,28.356,264.991,25.8,273.562c.054.3.109.6.163.889l8-4.3c6.151-11.75,13.147-21.629,23.434-29.46C62.421,219.812,72.735,203.153,80.837,192.536Z" style="fill:#719b56"/><path d="M62.013,317.873c-16.595-6.045-17.656-18.606-17.073-24.779a22.817,22.817,0,0,1-8.918-14.605L22.8,298.413C34.944,309.819,48.172,315.914,62.013,317.873Z" style="fill:#c8d39c"/><path d="M30.665,299.767a10.338,10.338,0,0,0,7.948-11.279c-1.755-15-1.42-46.676,23.805-80.028a139.565,139.565,0,0,1,27.869-27.428c17.249-12.9,61.912-50.354,74.508-96.691a2.186,2.186,0,0,0-4.043-1.593c-10.052,18.908-33.418,51.858-86.4,92.376,0,0-57.7,39.258-56.359,114.671A10.369,10.369,0,0,0,30.665,299.767Z" style="fill:#f6fcde"/><path d="M117.717,147.657a3.485,3.485,0,0,1-2.379-5.978c18.036-17.05,8.557-48,8.459-48.313a3.462,3.462,0,0,1,6.6-2.08c.453,1.437,10.845,35.43-10.306,55.425A3.449,3.449,0,0,1,117.717,147.657Z" style="fill:#f6fcde"/><path d="M45.856,214.876a3.485,3.485,0,0,1-2.8-5.493c.589-.823,14.378-20.548-.914-40.431-5.352-6.958-7.125-12.383-7.67-15.708a3.463,3.463,0,0,1,6.834-1.12c.416,2.541,1.851,6.79,6.325,12.607C66.116,188.683,49.208,216.4,45.856,214.876Z" style="fill:#f6fcde"/><path d="M88.386,180.35a3.485,3.485,0,0,1-2.288-6.061c8.945-7.873,25.268-9.724,28.449-10.015,23.913-2.187,43.349-17.526,43.543-17.68A3.462,3.462,0,0,1,162.413,152c-.857.685-21.274,16.793-47.235,19.168-1.719.157-17.018,1.728-24.506,8.317A3.448,3.448,0,0,1,88.386,180.35Z" style="fill:#f6fcde"/><path d="M125.569,290.65a3.474,3.474,0,0,1-1.316-6.669c11.281-5.211,12.973-13.282,15.114-23.489,1.08-5.983,4.149-16.7,5.655-19.668a3.462,3.462,0,0,1,6.337,2.79,78.933,78.933,0,0,0-3.914,12.43C144.267,269.328,143.5,284.314,125.569,290.65Z" style="fill:#f6fcde"/><path d="M153.838,283.7a3.479,3.479,0,0,1-1.979-6.306c10.677-7.21,18.647-6.9,26.739-7.468,24.26-1.806,36.263-11.421,36.381-11.518,3.526-2.809,7.869,2.364,4.417,5.333-.175.759-17.746,12.452-42.771,13.24-5.812.313-13.046.7-20.814,6.1A3.446,3.446,0,0,1,153.838,283.7Z" style="fill:#f6fcde"/><path d="M217.182,224.757a3.485,3.485,0,0,1-2.484-5.873c13.229-13.635,29.855-19.383,44.479-15.371a3.462,3.462,0,0,1-1.832,6.678c-12.15-3.332-26.233,1.721-37.678,13.515A3.45,3.45,0,0,1,217.182,224.757Z" style="fill:#f6fcde"/><path d="M175.035,138.937a3.523,3.523,0,0,1-7.046,0A3.523,3.523,0,0,1,175.035,138.937Z" style="fill:#f6fcde"/><path d="M14.529,289.856a13.832,13.832,0,0,0,6.134,11.29c25.606,24.687,60.362,25.616,91.9,12.168,53.443,15.258,104.4-1.736,131.947-45.451a64.226,64.226,0,0,1,22.4-21.281c33.357-18.626,39.4-43.3,40.04-56.356a47.669,47.669,0,0,1,6.631-21.53c10.092-17.286,12.044-38.079,11.906-52.478.109-11-10.027-20.594-21.03-19.512a102.01,102.01,0,0,0-15.705,2.384A74.652,74.652,0,0,0,292.2,76.22,13.775,13.775,0,0,0,287.429,65.9c-5.759-5.3-13.793-3.028-20.591-1.378,2.21-8.924-5.635-18.2-14.841-17.2a156.583,156.583,0,0,0-27.253,4.621c-.216-5.7-.221-10.9-.014-15.578a17.561,17.561,0,0,0-18.523-18.3c-47.033,2.488-70.344,22.658-81.618,39.141A71.646,71.646,0,0,1,94.78,82.4c-32.525,14.5-30.7,43.755-29.139,53.266-38.77,15.1-54.109,47.957-41.206,77.762a107.909,107.909,0,0,0-4.408,34.655A140.641,140.641,0,0,0,14.529,289.856Zm66.357,24.791C63.2,316.593,47.24,312.514,33.3,302.557a13.773,13.773,0,0,0,7.914-7.884c8.086,6.862,23.517,12.458,52.588,5.3,34.973-8.614,70.556-38.412,94.249-61.892,23.921-23.823,47.55-45.041,72.087-66.126C225.46,216.915,148.039,307.261,80.886,314.647ZM42.714,261.673c23.415-36.12,50.354-23.22,72.669-51.528a38.226,38.226,0,0,1,13.24-10.494c-12.367,20.193-8.523,28.983-21.6,41.38a80.415,80.415,0,0,0-21.735,31.72c-3.877,10.722-10.211,18.62-18.818,23.5-15.28-.777-22-7.237-24.724-11.274A98.354,98.354,0,0,1,42.714,261.673ZM304.965,103.611c7.134-.689,13.672,5.548,13.6,12.673.131,13.529-1.665,33-10.961,48.921a54.591,54.591,0,0,0-7.567,24.684c-.691,14.194-7.585,34.5-36.5,50.647a71.172,71.172,0,0,0-24.837,23.57c-14.948,23.132-49.471,58.563-115.822,44.555,52.961-21.318,142.1-126.2,161.455-157.886,2.246-3.235-2.122-7.222-5.132-4.559-31.3,27.141-66.291,57.039-96.018,86.944-21.386,21.368-64.84,59.06-104.461,62.587A52.49,52.49,0,0,0,91.8,275.106a73.485,73.485,0,0,1,19.884-28.954c17.029-16.438,8.912-24.076,27.748-50.012,36.244-8.894,57.286-28.086,69.488-47.32,17.224-5.283,33.187-13.567,46.847-25.672C264.826,115.219,280.715,105.393,304.965,103.611Zm-39.641-31.5a82.008,82.008,0,0,1,11.965-2.62,6.989,6.989,0,0,1,7.985,6.775,67.087,67.087,0,0,1-4.691,25.107,87.5,87.5,0,0,0-18.054,8.281C266,93.606,263.311,85.4,265.324,72.115Zm-40.218-13.1a150.225,150.225,0,0,1,27.429-4.792c4.829-.516,8.863,4.485,7.489,9.119A90.608,90.608,0,0,0,257.573,89.2c.256,7.592-1.013,16.958-3.565,26.409-11.864,10.5-25.112,19.02-39.944,24.149C230.994,104.989,226.7,78.385,225.106,59.017ZM70.878,141.008a3.462,3.462,0,0,0,2.054-4.156c-4.394-17.4,2.794-39.24,24.667-48.124a78.575,78.575,0,0,0,32.706-27.611c10.392-15.195,32.059-33.8,76.268-36.136a10.685,10.685,0,0,1,11.24,11.077c-.494,11.106.165,25.01,1.954,41.288,3.545,46.593-23.549,100.984-84.483,112.677a45.417,45.417,0,0,0-25.3,15.792c-18.8,23.86-40.246,14.926-63.441,39.968,6.792-22.373,24.967-47,45.822-61.978,17.672-13.215,75.6-60.8,79.085-118.324.2-4.192-5.931-5.1-6.848-.9-.09.441-9.958,44.767-92.281,107.742-1.346.93-15.4,10.865-29.43,29.8a147.834,147.834,0,0,0-14.279,23.6,95.1,95.1,0,0,1,2.829-11.5,3.468,3.468,0,0,0-.218-2.613C19.083,184.972,32.565,155.1,70.878,141.008ZM48.292,206.454c13.748-18.624,27.866-28.373,28-28.467,44.468-33.941,68.558-62.9,81.186-82.7-16.26,40.692-55.47,72.657-69.27,82.976a143.07,143.07,0,0,0-28.556,28.113C33.921,240.4,33.274,272.7,35.179,288.924a6.854,6.854,0,0,1-5.292,7.469,6.948,6.948,0,0,1-8.435-6.659A135.435,135.435,0,0,1,48.292,206.454Z" style="fill:#2b2b2b"/></svg>