<svg id="icons" xmlns="http://www.w3.org/2000/svg" viewBox="0 0 340 340"><title>30_Coffea</title><path d="M31.494,25.3S-10.23,78.81,17.161,138.371c6.028,13.107,12.733,23.728,28.887,33.77A105.228,105.228,0,0,1,69.78,192.68S103.537,135.9,79.588,80.4C59.522,33.9,31.494,25.3,31.494,25.3Z" style="fill:#80b297"/><path d="M157.979,13.85c-32.242,28.681-68.071,76.794-48.816,158.766,0,0,69.771-27.7,72.94-81.534S157.979,13.85,157.979,13.85Z" style="fill:#80b297"/><path d="M256.517,53.091a22.572,22.572,0,0,1-22.572,22.572c-29.908-1.107-29.9-44.042,0-45.144A22.572,22.572,0,0,1,256.517,53.091Z" style="fill:#b73d49"/><path d="M332.03,63.564a25.255,25.255,0,0,1-25.255,25.255c-33.464-1.238-33.455-49.277,0-50.51A25.255,25.255,0,0,1,332.03,63.564Z" style="fill:#b73d49"/><path d="M206.143,186.466A29.194,29.194,0,0,1,176.95,215.66c-38.683-1.431-38.672-56.962,0-58.387A29.193,29.193,0,0,1,206.143,186.466Z" style="fill:#b73d49"/><path d="M238.514,250.752a28.077,28.077,0,0,1-28.077,28.077c-37.2-1.376-37.194-54.783,0-56.154A28.077,28.077,0,0,1,238.514,250.752Z" style="fill:#b73d49"/><path d="M256.517,204.3a27.054,27.054,0,0,1-6.1,17.159c-13.574,10.089-23.684,6.662-29.6-13.132,1.171-15.474,9.257-23.743,21.052-28.146A27.163,27.163,0,0,1,256.517,204.3Z" style="fill:#f7616c"/><path d="M250.41,221.46c-8.666,3.7-21.082,2.276-23.344-9.586a18.723,18.723,0,0,1,2.968-14.033l11.827-17.65c-17.481-9.5-40.057,4.083-39.676,24.112C202.183,229.852,234.579,241.049,250.41,221.46Z" style="fill:#b73d49"/><path d="M237.9,140.669a587.073,587.073,0,0,1-55.2,64.757c-18.46,25.761-39.084,46.286-63.781,56.958q-10.823,8.488-22.539,16.948l-6.7-4.158c-7.871-5.091-18.4.78-19.786,9.654l-1.55,8.632a13.6,13.6,0,0,1-4.56,7.96A179.6,179.6,0,0,1,32.03,322.886a2.632,2.632,0,0,0,1.239,4.955H70.088a26.566,26.566,0,0,0,16.292-5.579c6.405-4.97,16.643-13.1,29.226-23.73,27.662-34.131,56.542-63.3,87.513-83.937,20.706-22.925,40.57-47.922,56.417-73.6C252.911,138.189,245.7,138.059,237.9,140.669Z" style="fill:#e89e85"/><path d="M270.433,88.819s-9.755,20.651-32.538,51.848a130.11,130.11,0,0,0,21.638.33,276.234,276.234,0,0,0,23.845-47.553Z" style="fill:#aa5b4f"/><path d="M115.605,298.532c24.074-20.342,56.722-49.849,87.512-83.938L186.327,204.3l-3.629,1.119a661.582,661.582,0,0,1-63.779,56.96C120.108,270.625,120.922,284.978,115.605,298.532Z" style="fill:#b76553"/><path d="M197.325,264.043a27.361,27.361,0,0,1-27.36,27.361c-9.7-1.294-17.595-6.646-21.87-20.139l10.448-18.737c15.467-3.456,29.417-4.159,37.981,4.916A27.446,27.446,0,0,1,197.325,264.043Z" style="fill:#f7616c"/><path d="M167.567,236.785c-34.532,4.124-32.264,53.633,2.4,54.619-14.61-4.043-17.119-20.71-10.5-29.709a14.853,14.853,0,0,1,17.086-5.351,34.65,34.65,0,0,0,19.97,1.1A27.369,27.369,0,0,0,167.567,236.785Z" style="fill:#b73d49"/><path d="M160.956,248.389c-17.231,15.8-45.81,3.359-45.712-20.293-.4-18.9,19.957-32.645,37.322-25.49Z" style="fill:#f7616c"/><path d="M152.563,202.613c-5.83,9.2-8.433,32.576,8.392,45.775C176.04,235.159,171.218,209.572,152.563,202.613Z" style="fill:#b73d49"/><path d="M220.021,217.749a31.283,31.283,0,0,1-31.283,31.282c-41.45-1.534-41.439-61.037,0-62.565A31.283,31.283,0,0,1,220.021,217.749Z" style="fill:#f7616c"/><path d="M318.75,105.63a26.321,26.321,0,0,1-7.99,18.922c-12.713,5.784-22.979,5.125-25.524-15.86l9.811-29.329A26.407,26.407,0,0,1,318.75,105.63Z" style="fill:#f7616c"/><path d="M298.085,121.965c-10.863-6.327-4.281-18.971-4.281-18.971l-.027.02c4.326-8.826,3.207-17.674,1.441-23.63-15.437-1.771-30.124,10.662-29.532,26.246,1.506,27.155,31.488,32.922,45.07,18.918A19.862,19.862,0,0,1,298.085,121.965Z" style="fill:#b73d49"/><path d="M288.265,83.769a29.846,29.846,0,0,1-29.845,29.846c-32.2-.322-41.105-43.846-12.288-57.052l40.38,17.1A29.789,29.789,0,0,1,288.265,83.769Z" style="fill:#f7616c"/><path d="M127.105,229.18a3.485,3.485,0,0,1-2.385-5.973,19.219,19.219,0,0,0,3.717-5.162c2.153-4.007,8.173-.908,6.155,3.173a26.058,26.058,0,0,1-5.1,7.011A3.453,3.453,0,0,1,127.105,229.18Z" style="fill:#b73d49"/><path d="M244.851,211.851a3.463,3.463,0,0,1-3.184-2.1,16.762,16.762,0,0,1-1.139-10.445c1.26-4.345,7.758-2.617,6.692,1.78a10.2,10.2,0,0,0,.812,5.938A3.481,3.481,0,0,1,244.851,211.851Z" style="fill:#b73d49"/><path d="M244.839,94.982a3.477,3.477,0,0,1-3.369-4.275,9.485,9.485,0,0,0-1.139-7.233c-2.506-3.726,2.912-7.637,5.625-4.039A16.537,16.537,0,0,1,248.2,92.33,3.465,3.465,0,0,1,244.839,94.982Z" style="fill:#b73d49"/><path d="M258.42,53.924a29.717,29.717,0,0,0-12.285,2.647c4.085,16.1,22.938,24.072,40.373,17.1A29.853,29.853,0,0,0,258.42,53.924Z" style="fill:#b73d49"/><path d="M303.694,39.236a27.287,27.287,0,0,1-27.287,27.287c-36.157-1.338-36.147-53.242,0-54.574A27.287,27.287,0,0,1,303.694,39.236Z" style="fill:#f7616c"/><path d="M272.714,27.885c4.157,7.036-6.98,14.017-11.5,7.212C257.056,28.062,268.192,21.08,272.714,27.885Z" style="fill:#ffe9e9"/><path d="M183.3,203.122c6.079,6.487-3.932,16.494-10.417,10.416C166.8,207.051,176.812,197.044,183.3,203.122Z" style="fill:#ffe9e9"/><path d="M44.22,175.081a103.649,103.649,0,0,1,22.274,19.076A131.163,131.163,0,0,1,68,225.971a169.323,169.323,0,0,0,3.717,48.575c-5.134,4.338-5.629,12.164-6.774,18.3-.648,7.65-27.41,24.072-44.527,31.827-4.128,1.9-1.388,8.114,2.8,6.333a180.278,180.278,0,0,0,42.822-26.953,17.12,17.12,0,0,0,5.724-9.984l1.55-8.632c.969-6.473,8.747-11.14,14.551-7.323l2.608,1.619-5.406,4.476c-3.444,2.9.882,8.22,4.417,5.333,13.413-11.332,28.613-21.5,41.94-32.736a30.571,30.571,0,0,0,8.193,1.963,30.614,30.614,0,0,0,.671,13.553c-35.116,31.856-62.995,52.525-63.276,52.733-2.7,1.847-1.146,6.371,2.061,6.246,3.19-.363,27.573-19.952,64.029-52.185,11.319,20.805,42.348,20.83,53.706.059,28.431,13.525,56.992-18.591,40.309-45.244,28.68-7.521,30.809-47.979,2.865-58.36a397.933,397.933,0,0,0,31.649-48.5c25.58,23.815,63.818-6.881,46.2-37.01,28.609-12.174,20.267-54.812-10.985-55.215-4.982-32.5-50.423-35.635-59.918-4.316-16.812-10.1-39.358,2.914-39.009,22.559a26.19,26.19,0,0,0,17.745,24.664c-3.371,17.292,8.312,34.593,24.929,38.382a529.185,529.185,0,0,1-43.5,57.7c-17.3-38.312-73.894-16.546-60.868,23.671-31.753-3.578-47.121,37.477-21.406,55.735-9.269,7.5-18.847,14.862-28.577,21.925C90.419,271.247,85,268.2,77.957,270.677a162.691,162.691,0,0,1-2.99-21.845c.221-36.262,31.943-69.091,36.137-73.27,30.451-12.049,73.924-46.338,74.455-84.278,3.234-54.92-24.159-79.062-25.327-80.063-3.618-6.979-58.473,47-59.6,105.364a230.281,230.281,0,0,0,4.757,54.889c-4.819,4.875-20.683,21.959-30.12,44.446a132.973,132.973,0,0,0-1.866-22.612c14.626-27.137,27.32-73.4,9.361-114.277-20.649-47.088-51.175-60.915-54-55.859-.442.566-10.877,14.086-17.989,35.225C-1.944,89.184,3.257,151.686,44.22,175.081Zm125.744,112.86c-15.151.192-26.859-14.6-23.285-29.295a30.889,30.889,0,0,0,21.289-13.061,34.625,34.625,0,0,0,22.885,6.838C199.83,267.721,187.772,288.378,169.964,287.941Zm-9.046-70.193c1.309-36.823,54.34-36.807,55.641,0C215.252,254.569,162.22,254.56,160.918,217.748Zm49.519,57.619a24.6,24.6,0,0,1-10.925-2.564A30.909,30.909,0,0,0,198,251.231a34.891,34.891,0,0,0,21.751-17.842,30.485,30.485,0,0,0,9.523,1.54C242.745,250.505,231.043,275.627,210.437,275.367ZM253.054,204.3c.26,15.722-15.923,27.534-30.809,22.621a34.881,34.881,0,0,0-2.9-25.6q8.526-10.046,16.167-19.9A23.718,23.718,0,0,1,253.054,204.3Zm39.293-75.733a23.037,23.037,0,0,1-21.135-14.052,33.3,33.3,0,0,0,20.475-31.807C322.485,82.923,323.119,127.443,292.347,128.57Zm14.695-86.792c24.686.651,29.66,34.954,6.237,42.575a29.747,29.747,0,0,0-22.515-8.535,32.877,32.877,0,0,0-3.11-7.973A30.806,30.806,0,0,0,307.042,41.778ZM276.407,15.411a23.851,23.851,0,0,1,23.824,23.825c-1.119,31.532-46.535,31.523-47.649,0A23.852,23.852,0,0,1,276.407,15.411Zm-61.572,37.68c-.3-15.6,18.774-24.9,30.853-15.053a30.47,30.47,0,0,0,2.749,13.948,33.251,33.251,0,0,0-20.832,19.119A19.225,19.225,0,0,1,214.835,53.091Zm17.2,30.678a26.332,26.332,0,0,1,20.152-25.62,30.821,30.821,0,0,0,28.521,11.529c11.225,16.974-1.913,40.854-22.29,40.474A26.413,26.413,0,0,1,232.036,83.769Zm26.174,33.3a32.585,32.585,0,0,0,6.327-.567,29.528,29.528,0,0,0,2.371,4.726c-12.4,23.31-29.758,48.238-51.612,74.15a34.98,34.98,0,0,0-10.511-8.433A540.755,540.755,0,0,0,258.21,117.071Zm-81.26,43.664a25.9,25.9,0,0,1,24.856,19.144q-1.917,2.165-3.9,4.361c-15.438-4.529-32.87,3.469-39.836,17.209a30.618,30.618,0,0,0-3.109-1.587C144.467,183.236,157.234,160.386,176.95,160.735ZM118.706,228.1c-.347-18.483,21.345-30.376,36.71-20.166a34.9,34.9,0,0,0,7.4,32.915C150.174,260.922,118.7,251.862,118.706,228.1Zm-11.15-111.308c1.481-50.613,40.2-89.045,50.254-98.184,6.112,6.753,23.34,29.763,20.837,72.275-2.08,35.323-34.921,59.26-55.125,70.723,10.552-13.9,18.311-30.235,23.843-46.507a9.8,9.8,0,0,1,4.983-5.693c13.387-6.765,16.662-17.534,16.794-17.989,1.189-4.349-5.24-6.269-6.639-1.964-.1.317-2.35,7.3-11.126,12.576a279.294,279.294,0,0,0,9.479-60.463,3.463,3.463,0,0,0-6.921-.258,265.33,265.33,0,0,1-3.386,32.208c-3.27-8.017-8.255-11.833-8.608-12.095-3.678-2.622-7.7,2.739-4.146,5.545.476.258,11.408,9.244,8.014,29.207a221.057,221.057,0,0,1-7.509,23.769,47.86,47.86,0,0,0-9.781-19.912c-2.966-3.443-8.177.873-5.323,4.428,4.04,4.848,12.816,17.824,7.2,33.221a127.54,127.54,0,0,1-19.142,27.845A225.891,225.891,0,0,1,107.556,116.788ZM17.261,60.829A129.061,129.061,0,0,1,32.71,29.538c6.832,3.179,27.854,15.516,43.7,52.237,17.62,40.832,2.71,82.979-5.309,100.6-3.959-15.987-11.01-32.4-17.237-48.5C51.3,124.012,57.7,115.306,63.1,106.161a27.046,27.046,0,0,0,4.048-12.822c.066-4.535-6.684-4.763-6.92-.213-.422,8.681-8.479,16.424-11.379,24.6A284.968,284.968,0,0,1,40.69,65.264a3.463,3.463,0,0,0-6.919.3c.034.791.462,10.009,2.262,22.965a24.735,24.735,0,0,0-12-6.485c-4.463-.609-5.531,5.991-1.1,6.837.488.086,11.945,2.289,16.533,19.367a196.442,196.442,0,0,0,9.5,32.185c-8.262-5.795-15.632-6.624-16.094-6.671a3.462,3.462,0,0,0-.694,6.89c.137.014,13.8,1.561,23.5,16.83a249.458,249.458,0,0,1,7.959,23.826A105.947,105.947,0,0,0,47.876,169.2C12.381,146.756,4.167,99.168,17.261,60.829Z" style="fill:#2b2b2b"/></svg>