<svg id="icons" xmlns="http://www.w3.org/2000/svg" viewBox="0 0 340 340"><title>31_radish</title><path d="M243.07,50.265s-11.462-12.627-24.089-5.051C211.663,49.6,212.5,56.54,214.5,61.6a12.3,12.3,0,0,1-.93,11.075c-2.618,4.15-3.946,10.712,4.635,18.39a16.485,16.485,0,0,1,5.615,14.994S256.28,86.009,243.07,50.265Z" style="fill:#719b56"/><path d="M302.573,59.087a30.778,30.778,0,0,1,13.958,5.349c22.162,15.1,10.6,39.794,10.6,39.794s-6.1,19.368-30.385,6.991c0,0-3.753,17.35-28.538,11.03-14.069-3.71-27.038,2.4-35.834,13.415-10.557-6.91,3.392-25.483,28.694-49.458Z" style="fill:#a9db89"/><path d="M290.419,94.8a3.428,3.428,0,0,0-3.8-2.736,90.089,90.089,0,0,0-29.648,8.854.951.951,0,0,1-1.045-1.574A111.969,111.969,0,0,1,277.513,84.7c19.647-9.987,24.075-21.449,25.059-25.6-15.233-1.74-27.319,9.091-27.319,9.091-54.775,34.154-67.127,74.277-67.127,74.277l10.1,10.095a192.584,192.584,0,0,1,14.15-16.893s38.756-35.19,55.149-37.038A3.313,3.313,0,0,0,290.419,94.8Z" style="fill:#719b56"/><path d="M286.959,28.834C283.681.541,239.375,4.776,249.1,40.379c0,0-15.2,6.284-9.612,27.764a28.207,28.207,0,0,1,.187,4.33c1.275,6.4-.5,13.049-7.92,20.158-2.435,2.562-23.327,23.006-24.869,25.179A11.722,11.722,0,0,0,212.8,126.2c5.371,3.007,13.7-7.243,13.7-7.243a376.054,376.054,0,0,1,34.37-36.293,62.939,62.939,0,0,1,17.306-11.21c11.53-4.545,28.26-20.124,18.508-35.518A16.56,16.56,0,0,0,286.959,28.834Z" style="fill:#a9db89"/><path d="M300.375,92.986c.107-4.432,6.7-4.385,6.744.047C307.013,97.465,300.419,97.418,300.375,92.986Z" style="fill:#719b56"/><path d="M231.754,92.631c19.028-13.958,29.78-34.574,34.429-43.759a1.428,1.428,0,0,0-2.364-1.566c-5.927,6.991-15.277,17.478-24.145,25.167C239.431,84.14,231.754,92.631,231.754,92.631Z" style="fill:#719b56"/><path d="M206.885,117.81c-3.6,4.394-8.4,11.9-5.418,18l6.659,6.659s7.113-10.05,18.373-23.513C226.478,118.974,217.391,128.175,206.885,117.81Z" style="fill:#719b56"/><path d="M22.608,282.784l.006.007Z" style="fill:#eab198"/><path d="M212.129,140.311s-23.236-27.244-58.623-.557a11.051,11.051,0,0,1-5.274,4.306,555.478,555.478,0,0,0-50.8,48.71c-1,2.566-2.355,4.482-4.494,5q-3.169,3.577-6.309,7.286a8.3,8.3,0,0,1-4.267,5.132c-3.633,4.449-7.187,9.01-10.6,13.653-11.273,19.716-19.3,39.674-7.955,61.073,11.778,10.45,24.785,15.856,39.956,12.374,3.77-3.229,3.912-3.318,13.884-12.069.5-2.31,2.486-3.563,5.012-4.428q2.655-2.354,5.631-5.012a15.15,15.15,0,0,1,4.98-4.464c14.38-12.933,32.675-29.76,50.433-47.146a7.414,7.414,0,0,1,4.79-4.716c9.833-9.74,19.374-19.56,27.85-28.881a14.054,14.054,0,0,1,4.208-5.615C229.444,170.083,223.572,152.526,212.129,140.311Z" style="fill:#ffeec8"/><path d="M100.618,261.49c.107-4.432,6.7-4.385,6.744.047C107.256,265.969,100.662,265.922,100.618,261.49Z" style="fill:#eab198"/><path d="M103.763,297.281c-7.489-1.366-16.965-6.316-27.915-19-19.624-22.74-4.078-54.434-4.078-54.434C54.88,246.828,41.494,271.8,39.421,294.949a11.04,11.04,0,0,1-3.1,6.8c-2.228,2.246-5.71,3.823-10.371.2,0,0-8.941-7.975-4.591-21.992,0,0-17.458,13.7-9.5,32.363A28.9,28.9,0,0,0,38.99,329.678C52.386,329.421,73.5,322.9,103.763,297.281Z" style="fill:#eab198"/><path d="M169.555,152.73c-4.271-3.684-10.874-8.98-16.045-12.971-1.251.94-1.47,1.13-5.278,4.3,5.213,3.986,12.45,9.768,16.993,13.688A3.314,3.314,0,0,0,169.555,152.73Z" style="fill:#eab198"/><path d="M198.59,161.766a3.314,3.314,0,0,0-.366,4.672,288.279,288.279,0,0,1,18.122,24.131,34.494,34.494,0,0,0,4.2-5.622c-4.752-6.944-11.491-16.037-17.281-22.814A3.322,3.322,0,0,0,198.59,161.766Z" style="fill:#eab198"/><path d="M188.5,219.45c-3.086-4.394-7.12-9.836-9.958-13.4a3.313,3.313,0,0,0-5.183,4.128c2.915,3.661,7.295,9.591,10.352,13.986Q186.109,221.814,188.5,219.45Z" style="fill:#eab198"/><path d="M117.677,208.954c-6.4-5.871-12.463-11.22-20.242-16.183q-2.247,2.463-4.494,5c7.806,4.859,13.845,10.188,20.256,16.069C116.487,216.715,120.836,211.972,117.677,208.954Z" style="fill:#eab198"/><path d="M82.366,210.187a46.886,46.886,0,0,1,7.44,6.435,3.314,3.314,0,0,0,4.686-4.686,56.05,56.05,0,0,0-7.861-6.883Q84.483,207.591,82.366,210.187Z" style="fill:#eab198"/><path d="M133.273,271.312a258.924,258.924,0,0,0-19.7-25.32,3.314,3.314,0,1,0-4.932,4.427,250.5,250.5,0,0,1,19.652,25.357Q130.691,273.632,133.273,271.312Z" style="fill:#eab198"/><path d="M122.662,280.788c-1.983-2.959-4.744-6.969-6.75-9.7a3.314,3.314,0,1,0-5.342,3.922c2.065,2.811,5.118,7.259,7.08,10.206Q119.971,283.175,122.662,280.788Z" style="fill:#eab198"/><path d="M217.276,42.373c-7.159,4.3-9.3,11.746-5.859,20.441a9,9,0,0,1-.651,8.088c-2.7,4.286-5.613,12.928,5.228,22.627a13.423,13.423,0,0,1,4.069,6.108l-12.095,12.094c-1.072,1.01-7.972,7.739-10.112,15.5-33.842-11.152-57.95,18.12-101.848,62.189-37.1,40.391-57.251,75.8-59.888,105.234a7.713,7.713,0,0,1-2.147,4.76c-4.836,5.225-13.364-5.966-9.446-18.478a3.313,3.313,0,0,0-5.21-3.589c-11.245,8.346-20,30.19-3.837,46.107,24.79,22.889,61.36.806,92.623-25.517.686-.589,69.07-59.341,110.793-105.244,11.738-12.915,11.219-28.548,4.682-41.711a229.334,229.334,0,0,1,15.65-17.737,29.162,29.162,0,0,1,28.157-7.782c13.413,3.618,25.663.807,31.138-9.748,14.858,6.84,27.64,1.037,31.7-10.285,1.1-2.557,11.268-28-11.823-43.731a33.644,33.644,0,0,0-17.8-6.082c5.42-10.729.738-25.081-10.682-29.285-5.689-30.077-52.623-24.441-44.624,12.44a23.526,23.526,0,0,0-5.187,4.816C232.5,38.636,224.307,38.154,217.276,42.373Zm-3.285,145.861c-41.442,45.6-109.519,104.085-110.212,104.679-36.792,31.265-73.652,47.45-88.873,18.1-3.65-8.567-1.158-15.957,2.054-21.059,1.941,15.012,13.475,22.186,21.717,14.123a14.358,14.358,0,0,0,4.044-8.838c6-66.981,111.113-151.538,112.13-152.35C200.286,107.443,237.881,163.353,213.991,188.234ZM296.045,62.41a26.79,26.79,0,0,1,18.62,4.765c20.65,14.032,10.954,41.021,1.968,43.882-4.739,1.953-10.925,1.014-18.387-2.789a3.356,3.356,0,0,0-4.737,2.224c-2.447,8.821-12.948,11.833-24.486,8.548a36.361,36.361,0,0,0-14.036-.775c8.956-6.649,14.77-7.782,14.952-7.815a3.313,3.313,0,0,0,2.747-3.774c-.484-6.858-18.634-.32-38.279,22.02-5.567,5.761-10.4,11.175-14.42,16.153a56,56,0,0,0-4.913-6.222c8.312-10.247,40.581-53.727,64.418-64.138A45.287,45.287,0,0,0,296.045,62.41ZM253.579,20.734c3.814-5.757,10.793-6.981,11.413-7.079,16.28-1.328,18.477,13.808,18.672,15.53a3.311,3.311,0,0,0,2.4,2.839c9.572,2.477,12.978,14.331,7.638,22.419a37.37,37.37,0,0,1-16.842,13.965,66.091,66.091,0,0,0-18.218,11.8c-21.593,19.635-40.094,42.864-48.447,53.888a45.939,45.939,0,0,0-6.181-4.074c1.018-5.453,6.379-11.471,8.6-13.566.006,0,21.488-21.489,21.494-21.5,24.9-25.195,35.046-45.966,35.466-46.838,1.819-3.942-4.006-6.772-5.97-2.877-.078.161-6.353,12.953-20.8,30.291a34.9,34.9,0,0,0-.043-7.875c-5-17.887,7.043-24.23,7.6-24.219a3.315,3.315,0,0,0,1.931-3.93C250.146,31.581,250.577,25.263,253.579,20.734ZM220.686,48.055c6.058-3.634,11.866-1.593,16.09,1.258-1.909,4.734-2.685,11.091-.549,19.459.181,1.45,1.274,13.46-6.829,21.53l-4.276,4.275a21.023,21.023,0,0,0-4.709-5.986c-5.574-4.988-6.9-9.621-4.042-14.153a15.651,15.651,0,0,0,1.21-14.061C214.586,52.8,217.919,49.716,220.686,48.055Z" style="fill:#2b2b2b"/></svg>