<svg id="icons" xmlns="http://www.w3.org/2000/svg" viewBox="0 0 340 340"><title>32_avocado</title><path d="M115.171,57.5s3.015-40.284,45.96-46.234a73.649,73.649,0,0,1,42.91,6.485c4.752,2.263,9.109,2.73,14.606,2.271a2.2,2.2,0,0,1,2.327,2.863c-5.933,20.088-31.383,43.7-66.161,43.934C143.415,67.127,124.329,64,115.171,57.5Z" style="fill:#a9db89"/><path d="M75.056,31.705l8.968-3.182a9.879,9.879,0,0,1,11.963,4.5c4.428,8.036,9.725,23.1,5.974,45.769H89.146S89.543,51.108,75.056,31.705Z" style="fill:#a9db89"/><path d="M156.325,172.192A185.328,185.328,0,0,1,133.9,114.33c-3.824-19.272-13.361-41.3-36.979-41.3s-33.156,22.024-36.98,41.3a185.328,185.328,0,0,1-22.421,57.862c-53.614,87-17.521,157.994,59.4,156.872C172.857,326.7,210.842,260.12,156.325,172.192Z" style="fill:#80b297"/><path d="M48.706,215.487c-3.2-3.353,1.71-8.19,5.017-4.948C56.918,213.892,52.013,218.729,48.706,215.487Z" style="fill:#3e6a51"/><path d="M47.087,239.892c-3.2-3.353,1.71-8.19,5.017-4.948C55.3,238.3,50.394,243.134,47.087,239.892Z" style="fill:#3e6a51"/><path d="M70.62,231.425c-3.2-3.353,1.71-8.19,5.017-4.948C78.833,229.83,73.927,234.667,70.62,231.425Z" style="fill:#3e6a51"/><path d="M46.763,274.864c-12.991-4.063-25.7-11.723-34.94-25.478C9.91,381.6,262.509,345.725,156.323,172.193a198.058,198.058,0,0,1-10.582-20.616h0a179.907,179.907,0,0,1,4.571,49.874C147.379,253.693,96.7,290.479,46.763,274.864Z" style="fill:#3e6a51"/><path d="M194.373,311.507s47.088,36.567,97.639,6.16c37.83-22.754,35.856-77.862,32.466-104.158-2.8-17.568.8-38.674,3.26-56.21,2.064-15.018-6.226-25.911-18.216-34.186Z" style="fill:#3e6a51"/><path d="M309.522,123.113a21.905,21.905,0,0,1,7.885,25.236c-4.058,11.374-8.834,27.838-10.021,44.846-.233,3.334-.565,7.782-1.1,13.02-10.9,53.758-105.171,152.931-149.543,39.056,1.165-42.283,29.431-67.256,70.813-80.123,0,0,25.137-6.7,40.128-24.593C287.152,117.321,300.131,116.574,309.522,123.113Z" style="fill:#f0f4c3"/><path d="M306.287,206.215c-29.927,40.021-79.95,78.737-149.537,39.056-1.518,40.97,28.526,71.549,67,74.743C287.83,325.128,302.394,244.541,306.287,206.215Z" style="fill:#d3d385"/><path d="M248.593,198.113c-24.338-12.245-56.5,8.282-63.237,36.036,0,0,9.017,59.829,75.844,15.055C261.2,249.2,273.053,211.521,248.593,198.113Z" style="fill:#b77c6a"/><path d="M248.591,198.119c.709.5,23.177,16.508,1.8,45.381a37.7,37.7,0,0,1-26.144,15.088c-16.948,2.192-34.035-7.566-38.887-24.438-5.171,25.055,15.919,50.536,43.712,47.1,15.861-1.962,33.742-10.025,41.238-34.6C276.555,227.327,266.3,205.59,248.591,198.119Z" style="fill:#7a504b"/><path d="M228.575,209.452c2.923,4.113,1.035,10.473-4.218,14.205-12.859,8.591-22.924-5.579-10.584-14.894C219.025,205.031,225.652,205.339,228.575,209.452Z" style="fill:#efd1cb"/><path d="M58.794,326.1c27.313,10.065,79.89,12.967,112.6-28.438,29.619,30.117,78.193,49.438,122.407,22.968,34.619-18.914,39.424-73.752,34.114-107.568a124.464,124.464,0,0,1,.176-32.708c3.7-27.132,9.2-41.872-16.587-60.087-13.318-9.272-28.517-3.365-46.467,18.06-14.272,16.927-37.994,23.346-38.5,23.511-23.938,7.542-41.872,18.086-54.553,32.86a254.559,254.559,0,0,0-12.67-24.267A181.544,181.544,0,0,1,137.3,113.656c-4.641-23.389-14.7-37.834-29.376-42.46a70.732,70.732,0,0,1,7.745-9.3c49.7,23.724,101.872-5.839,109.652-41.668a3.485,3.485,0,0,0-4.055-4.077,28.328,28.328,0,0,1-13.849-.575c-41.477-20.8-89.689-3.15-95.539,40.247a79.216,79.216,0,0,0-5.562,6.04c-.33-14.033-4.13-24.12-7.652-30.51a13.283,13.283,0,0,0-16.153-6.089l-8.968,3.182a3.462,3.462,0,0,0-1.617,5.334c9.191,12.309,12.1,28.168,13.013,37.757C70.8,76.489,61.085,90.8,56.549,113.656a181.55,181.55,0,0,1-22.008,56.779C-3.644,230.715-2.575,304.16,58.794,326.1ZM186.888,15.485a70.346,70.346,0,0,1,17.858,6.483,32.05,32.05,0,0,0,12.323,1.638c-11.822,32.938-58.09,49.946-95.956,33.314a89.5,89.5,0,0,1,29.279-15.7c1.429-.182,5.2-.418,7.37,1.692,3.421,3.324,6.514,5.7,10.489,6.48,4.454.811,5.8-5.833,1.336-6.8-2.3-.451-4.454-2.18-6.983-4.636a111.016,111.016,0,0,1,23.158-2.536c4.532.05,4.772-6.694.216-6.921a92.351,92.351,0,0,0-10.354.407C178.048,20.916,184.484,16.784,186.888,15.485ZM161.606,14.7a75.649,75.649,0,0,1,15.472-.571,28.525,28.525,0,0,0-8.789,15.651,122.812,122.812,0,0,0-19.542,4.509,19.494,19.494,0,0,0,1.321-6.343c-.085-4.551-6.855-4.539-6.925.011a14.677,14.677,0,0,1-6.55,11.052,91.66,91.66,0,0,0-15.972,9.381C124.241,36.88,134.255,18.487,161.606,14.7ZM322.121,141.669a27.871,27.871,0,0,1,2.187,15.162c-2.538,17.89-6.1,39.378-3.263,57.121,2.956,22.94,5.873,78.679-30.817,100.748-18.98,11.416-39.55,14.427-61.188,9,50.829-1.606,74.623-46.258,81.8-130.26,1.173-16.83,5.991-33.176,9.827-43.925A25.287,25.287,0,0,0,322.121,141.669Zm-93.6,26.8c1.837-.5,26.56-7.485,41.817-25.7,22.7-26.947,33.395-19.46,37.331-16.722a18.526,18.526,0,0,1,6.474,21.129c-3.981,11.158-8.985,28.157-10.214,45.769-6.816,81.18-29.723,126.063-79.9,123.61-34.813-2.118-64.051-31.771-63.846-66.971C159.551,210.08,182.542,182.788,228.524,168.474ZM80.1,33.464c4.577-1.67,9.232-4.046,12.5,1.228,3.723,6.756,7.78,18.223,6.6,34.95a38.793,38.793,0,0,0-7.463.276C90.745,60.448,87.948,45.937,80.1,33.464ZM40.508,173.949A188.451,188.451,0,0,0,63.341,115C68.411,89.452,79.71,76.5,96.924,76.5S125.438,89.452,130.507,115a188.5,188.5,0,0,0,22.834,58.945,240.486,240.486,0,0,1,13.818,26.99c-17.739,24.9-19.284,65.357-.239,91.029-28.994,38.992-79.8,37.452-105.939,27.563C.04,294.643,7.064,229.992,40.508,173.949Z" style="fill:#2b2b2b"/><path d="M224.158,285.014c20.417.026,45.944-12.785,50.917-44.324a42.81,42.81,0,0,0-14.416-38.917c-23.875-21.066-59.247-7.975-73.637,18.627C170,248.028,191.98,285.67,224.158,285.014ZM192.994,223.9c8.883-15.109,22.883-25.374,39.645-25.745,23.741-.889,42.1,25.668,34.357,47.479-7.508,32.139-53.793,45.428-72.92,16.07A35.149,35.149,0,0,1,192.994,223.9Z" style="fill:#2b2b2b"/></svg>