<svg id="icons" xmlns="http://www.w3.org/2000/svg" viewBox="0 0 340 340"><title>34_wasabi</title><path d="M215.28,167.148s42.921-14.579,52.837,6.068a16.462,16.462,0,0,0,7.692,7.5c7.995,3.933,19.15,13.6,1.775,33.644C277.584,214.361,258.394,169.666,215.28,167.148Z" style="fill:#719b56"/><path d="M306.022,84.906S298.6,59.176,270.439,65l-41.726,41.464a93.082,93.082,0,0,0-1.949,10.493c-1.669,13.018-10.381,25.132-17.749,33.323,0,0,41.2-13.282,75.541-9.7,11.133,1.108,19.523-6.411,22.72-17.133a21.5,21.5,0,0,1,5.514-8.847C318.73,108.8,326.688,96.627,306.022,84.906Z" style="fill:#a9db89"/><path d="M262.225,76.36a34.388,34.388,0,0,1,8.216-11.351c-7.5,1.551-16.473,5.334-27.172,12.452,0,0-9.64,9.153-14.549,29C243.361,99.706,255.637,89.949,262.225,76.36Z" style="fill:#719b56"/><path d="M220.389,13.7C215,18.181,209.2,25.46,206.255,37.043c0,0-17.832-2.515-15.83,27.992s-3.341,58.825-3.341,58.825,12.141-16.921,39.14-28.4A51.7,51.7,0,0,0,257.98,55.123c1.523-10.044-4.627-20.06-14.5-22.547a42.025,42.025,0,0,0-2.4-13.246A13.105,13.105,0,0,0,220.389,13.7Z" style="fill:#a9db89"/><path d="M88.647,32.563s14.831,3.9,20.4,13.642c0,0,5.644,18.606,36.411,23.877A44.323,44.323,0,0,1,173.231,86.3s6.121-44.613-24.055-46.229a20.7,20.7,0,0,1-14.735-6.945C127.551,25.094,113.139,15.842,88.647,32.563Z" style="fill:#719b56"/><path d="M166.834,183.114c-5.591-8.223-28.4-25.107-49.34-7.261-13.868,11.118-52.793,49.709-66.637,74.139-7.424,11.745-18.863,29.677-27.06,41.75-4.253,6.069-3.793,13.645-.555,20.115,4.756,7.316,11.568,11.371,19.52,13.616L107.014,276.3l57.094-50.724C172.556,207.89,176.318,196.059,166.834,183.114Z" style="fill:#cdd68a"/><path d="M48.012,273.828a52.021,52.021,0,0,0,9.8,2.541c9.843,1.717,13.7,10.925,11.532,20.2a54.238,54.238,0,0,0-9.669-2.366A14.914,14.914,0,0,1,48.012,273.828Z" style="fill:#8b9958"/><path d="M78.13,232.857c.109-4.528,6.845-4.48,6.89.048C84.912,237.433,78.175,237.385,78.13,232.857Z" style="fill:#8b9958"/><path d="M42.742,306.045c.109-4.527,6.845-4.48,6.89.048C49.523,310.621,42.787,310.573,42.742,306.045Z" style="fill:#8b9958"/><path d="M146.763,199.879c.109-4.528,6.845-4.48,6.89.048C153.545,204.455,146.808,204.407,146.763,199.879Z" style="fill:#8b9958"/><path d="M137.858,192.34,120.41,174.893a3.386,3.386,0,0,1,4.788-4.788l17.448,17.448A3.385,3.385,0,0,1,137.858,192.34Z" style="fill:#8b9958"/><path d="M127.267,259.7l-12.78-12.78a3.385,3.385,0,0,1,4.788-4.787l12.78,12.78A3.385,3.385,0,0,1,127.267,259.7Z" style="fill:#8b9958"/><path d="M72.653,304.665l-12.531-12.53a3.386,3.386,0,0,1,4.788-4.788l12.53,12.53A3.385,3.385,0,0,1,72.653,304.665Z" style="fill:#8b9958"/><path d="M49.663,280.266,38.085,268.688a3.385,3.385,0,0,1,4.788-4.787L54.45,275.478A3.385,3.385,0,0,1,49.663,280.266Z" style="fill:#8b9958"/><path d="M33.916,298.586l-9.023-9.023a3.385,3.385,0,0,1,4.788-4.787L38.7,293.8A3.385,3.385,0,0,1,33.916,298.586Z" style="fill:#8b9958"/><path d="M46.181,328.154c9.673-4.059,26.165-13.11,47.239-32.863q3.227-3.026,6.64-5.841c9.835-8.089,37.361-30.991,51.271-45.236,0,0,30.518-25.248,19.967-52.791.379,1.114,3.943,13.893-21.732,39.568-26.9,26.9-95.773,82.685-95.773,82.685s-14.575,12.152-30.543-1.822a61.8,61.8,0,0,0,7,12A13.364,13.364,0,0,0,46.181,328.154Z" style="fill:#8b9958"/><path d="M140.069,222.764c3.829.377,10.78,1.919,18.487,7.728a10.1,10.1,0,1,1-14.244,14.054c-2.924-4.068-6.687-10.746-7.285-18.755A2.8,2.8,0,0,1,140.069,222.764Z" style="fill:#8b9958"/><path d="M91.764,272.976a4.328,4.328,0,0,1,5.657-4.478,32.483,32.483,0,0,1,16.407,9.475c1.8,1.462,3.421,7.913-4.682,14.936a9.483,9.483,0,0,1-15-4.937A60.908,60.908,0,0,1,91.764,272.976Z" style="fill:#8b9958"/><path d="M94.892,225.717a2.394,2.394,0,0,1,3.1-2.951,46.422,46.422,0,0,0,7.067,1.912c11.42,1.9,18.02,13.14,16.227,24.259,0,0-9.595,5.439-19.922-4.82C94.844,237.637,96.952,232.641,94.892,225.717Z" style="fill:#8b9958"/><path d="M104.769,211.323a75.441,75.441,0,0,1,13.223-2.2l-9.965-9.965s-4.834-3.352-9.181-6.259c-3.105,3-6.406,6.275-9.83,9.792C93.014,209.676,99.857,212.654,104.769,211.323Z" style="fill:#8b9958"/><path d="M110.454,182.055c-1.943-1.8-8.9-3.769-14.794,3.139q-2.808,9.222,8.04,17.226c8.6,2.141,16.132,3.288,15.425-3.253a22.289,22.289,0,0,1-.475-2.947C117.849,187.175,110.454,182.055,110.454,182.055Z" style="fill:#cdd68a"/><path d="M66.346,232.626a52.132,52.132,0,0,1,7.369,9.928c.951,5.839-4.771,6.86-13.151,5.961-8.327-3.664-10.9-8.568-8.408-14.566C55.761,229.359,62.219,228.268,66.346,232.626Z" style="fill:#cdd68a"/><path d="M117.992,209.124a2.8,2.8,0,0,0,3.189-3.844,35.3,35.3,0,0,1-2.049-6.115l-.007,0s-1.58,5.667-10.453,1.671c-8.811-3.967-12.924-12.342-13-15.629-4.089,4.751-3.744,10.386-2.333,13.108,4.365,5.95,10.766,9.674,16.9,9.665A32.482,32.482,0,0,1,117.992,209.124Z" style="fill:#8b9958"/><path d="M65.5,251.5A24.469,24.469,0,0,1,76.1,253.947a1.336,1.336,0,0,0,1.88-1.567,47.8,47.8,0,0,0-4.27-9.825c-.013.045-1.9,6.64-10.548,3.546-8.673-3.1-11.211-7.523-11-12.145-6.961,7.208-.737,15.029-.587,14.9C53.805,251.086,61.293,251.467,65.5,251.5Z" style="fill:#8b9958"/><path d="M82.749,30.572a3.39,3.39,0,0,0,2.469,2.7c.133.036,13.257,3.6,18.176,11.788,1.111,3.078,8.721,20.62,38.932,25.795a40.857,40.857,0,0,1,24.933,14.089c-.195,7.284-2.027,46.274-18.682,81.256-14.611-4.639-27.8.876-38.576,11.714C98.3,173,86.193,187.048,89.442,197.44a347.659,347.659,0,0,0-26.41,29.435c-5.228-1.491-10.33,1.019-13.748,5.213-5.551,6.464-4.094,13-1.792,16.889C39.629,261.41,28.833,278.3,21,289.841a21.52,21.52,0,0,0-2.6,18.882c4.478,12.176,12.982,28.912,29.093,22.552,10.056-3.987,29.07-15.167,49.482-34.644,11.824,7.122,24.557-8.955,21.184-17.888,9.316-7.9,21.474-18.458,30.572-27.2,10.182,3.135,20.153-7.4,16.47-17.381,10.539-14.091,13.966-28.331,10.123-41.283,10.22-6.291,18.465-4.041,18.879-3.921,4.267,1.2,6.187-5.109,1.965-6.479a28.155,28.155,0,0,0-14.237.267c52.359-33.138,86.869,18.809,93.439,33.846a3.409,3.409,0,0,0,5.669.881c13.2-15.047,14.475-30.017-2.838-38.9a13.156,13.156,0,0,1-6.136-5.929c-10.582-22.037-51.192-9.689-56.469-7.975-2.619.084-13.458.829-27.406,7.142,7.491-5.7,15.037-11.76,22.527-18.514,5.325-1.635,42.538-12.578,73.49-9.349,12.647,1.489,22.921-7.658,26.3-19.477a18.192,18.192,0,0,1,4.654-7.449c11.72-11.094,9.952-25.152-6.34-34.407-6.728-18.5-26.44-27.893-49.763-17.572,5.389-13.642,1.98-29.331-12.292-34.973a46.1,46.1,0,0,0-2.5-11.891C240.712,7.624,226.634,3.789,218.225,11.1a45.975,45.975,0,0,0-14.556,22.61C190.142,35.8,186.01,48.525,187.047,65.257c1.866,28.433-2.806,55.294-3.254,57.774a120.044,120.044,0,0,1-28.232,44.231c17.753-38.5,18.465-79.678,18.492-83.294,1.727-10.65,1.5-48.92-27.259-49.835a17.227,17.227,0,0,1-12.345-5.769C127.275,20,111.219,8.742,84.175,27.2A3.386,3.386,0,0,0,82.749,30.572ZM263.461,172.053a12.767,12.767,0,0,1,2.5,3.523,19.929,19.929,0,0,0,9.25,9.073c10.524,4.958,11.831,13.769,3.937,24.335-5.513-10.205-20.454-33.16-46.786-41.412C243.657,165.72,256.965,165.557,263.461,172.053ZM100.337,185.459c4.582-3.276,7.323-1.241,8.19-.621.061.043,6.108,4.421,6.751,11.681a32.512,32.512,0,0,0,2.354,9.047,31.766,31.766,0,0,0-7.4-.974c-4.908.006-10.241-3.071-13.989-8.045C95.309,194.437,95.141,189.313,100.337,185.459ZM54.422,236.5c2.359-3.14,6.461-4.672,9.473-1.538a47.955,47.955,0,0,1,9.362,14.272,28.662,28.662,0,0,0-7.735-1.12c-7.835-.06-10.929-1.171-11.517-1.621C53.166,245.505,50.218,241.394,54.422,236.5Zm52.584,53.785c-3.177,2.767-8.615.788-9.6-3.231a55.079,55.079,0,0,1-2.255-15.593c4.1.8,11.367,3.226,16.367,8.987C112.492,281.329,112.156,285.867,107.006,290.285Zm50.106-46.974a6.632,6.632,0,0,1-10.052-.742,34.55,34.55,0,0,1-6.6-16.343C144.262,226.389,166.1,233.321,157.112,243.311ZM288.331,69.45c10.848,4.617,14.407,16.289,14.439,16.395a3.39,3.39,0,0,0,1.582,2.006c12.731,6.986,15.289,15.574,6.071,24.33-5.873,4.972-6.359,13.571-10.956,19.052a16.617,16.617,0,0,1-14.56,5.981c-22.08-2.3-46.554,2.1-61.854,5.742,29.51-22.737,55.5-28.952,55.938-29.054a3.385,3.385,0,1,0-1.5-6.6c-1.172.266-24.34,5.727-52.3,25.621a49.654,49.654,0,0,0,4.927-15.532,82.757,82.757,0,0,1,6.541-23.653,55.039,55.039,0,0,0,18.275-19.349C268.143,67.544,279.617,65.658,288.331,69.45ZM198.115,108.2c14.67-29.409,27.856-45.256,28.011-45.44,2.807-3.438-2.251-7.721-5.179-4.362-.637.755-13.265,15.911-27.747,44.482a252.716,252.716,0,0,0,.6-38.062c-.947-12.935,2.1-24.637,11.977-24.419a3.387,3.387,0,0,0,3.755-2.517c2.3-9.048,6.68-16.308,13.017-21.575,4.889-4.327,13.324-2.025,15.344,4.177a39.063,39.063,0,0,1,2.2,12.054c-.067,2.03,1.641,3.27,3.476,3.59,14.074,5.3,12.67,19.754,7.23,31.451a49.027,49.027,0,0,1-25.9,24.77A114.787,114.787,0,0,0,198.115,108.2Zm-7.99,17.259c1.954-2.5,13.9-16.862,37.375-26.857a92.415,92.415,0,0,0-4.094,17.93c-5.431,30.3-34.923,45.582-55.867,62.159-.608-.67-1.34-1.437-2.206-2.27l37.154-37.153a3.386,3.386,0,1,0-4.788-4.788l-31.937,31.937A125.238,125.238,0,0,0,190.125,125.455Zm-26.063,59.6c11.062,15.769,5.087,31.71-2.931,43.181-11.61-9.5-24.49-9.155-24.5-8.926a3.386,3.386,0,0,0-3.05,3.26,38.656,38.656,0,0,0,9.15,25.339C134,256.2,122.781,265.937,114.02,273.375c-9.283-8.412-21.244-9.137-21.791-9.166a3.386,3.386,0,0,0-3.532,2.935c-.876,9.345.409,17.767,3.452,24.724-19.785,18.84-37.706,29.339-47.277,33.164a9.95,9.95,0,0,1-11.9-3.189,56.094,56.094,0,0,1-8.165-15.291A14.711,14.711,0,0,1,26.6,293.644c7.737-11.4,18.315-27.928,26.16-40.326,2.357.8,6.224,1.517,12.712,1.567a21.441,21.441,0,0,1,11.344,3.356,3.407,3.407,0,0,0,5.3-3.478,53.326,53.326,0,0,0-13.23-24.379,340.6,340.6,0,0,1,24.268-27.058c4.678,5.036,11.039,8.061,17.094,8.037,3.064-.117,9.613,1.725,12.838,2.41a3.409,3.409,0,0,0,3.632-5.092c-.041-.067-4.158-6.736-4.692-12.759a23.282,23.282,0,0,0-6.5-13.852C134.75,161.984,156.259,174.688,164.062,185.059ZM129.309,32.772c10.854,12.605,21.963,3.643,31.229,14.856,6.352,7.678,7.346,20.152,7.241,28.126A47.6,47.6,0,0,0,143.47,64.182c-28.827-5.161-33.26-20.705-34.045-22.22-3.238-5.873-10.309-10.419-15.644-12.734C111.877,19.322,123.006,25.422,129.309,32.772Z" style="fill:#2b2b2b"/><path d="M94.334,217.223c-2.88-2.382-7.026,1.269-5,4.429,5.913,9.62.441,15.553,9.578,24.8,11.886,11.958,23.6,5.734,24.042,5.428,2.715-1.688,1.654-5.731,1.881-8.35a23.37,23.37,0,0,0-19.05-22.163C98.032,219.915,94.388,217.294,94.334,217.223Zm23.736,26.513c.028.92.022,1.869-.019,2.838-2.624.749-8.331,1.14-14.35-4.911-5.044-4.939-3.714-9.252-5.1-15.118a52.646,52.646,0,0,0,5.994,1.489A16.55,16.55,0,0,1,118.07,243.736Z" style="fill:#2b2b2b"/><path d="M58.347,273.026a49.273,49.273,0,0,1-9.1-2.35,3.385,3.385,0,0,0-2.619.061c-2.109.942-2.331,3.708-2.831,5.639a17.848,17.848,0,0,0,5,15.918,18.728,18.728,0,0,0,10.369,5.256,51.7,51.7,0,0,1,9,2.192,3.382,3.382,0,0,0,2.844-.226c2.778-1.653,2.134-7.623,2.2-10.282A17.745,17.745,0,0,0,58.347,273.026Zm8.107,16.644a22.159,22.159,0,0,1,.017,2.49,62.2,62.2,0,0,0-6.283-1.3c-5.973-.8-10.756-6.7-9.821-12.694a58.292,58.292,0,0,0,6.912,1.55A10.927,10.927,0,0,1,66.454,289.67Z" style="fill:#2b2b2b"/></svg>