<svg id="icons" xmlns="http://www.w3.org/2000/svg" viewBox="0 0 340 340"><title>35_jicama</title><path d="M146.876,25.651A4.112,4.112,0,0,1,149.8,20.4c8.861-2.124,29.215-3.581,48.376,19.613,25.418,30.769-.233,60.724-.233,60.724A86.9,86.9,0,0,0,179.2,92.5,39.184,39.184,0,0,1,161.25,81.048c-7.07-8.018-13.848-21.611-13-44.009A38.612,38.612,0,0,0,146.876,25.651Z" style="fill:#a9db89"/><path d="M230.6,111.225s10.445-6.056,18.951-21.841c0,0,14.5-27.48,50.19-8.287,14.092,7.579,22.269,19.156,27,30.391a6.281,6.281,0,0,1-1.311,6.792c-6.652,6.867-25.337,21.359-54.584,6.67C260.678,118.721,249.2,111.236,230.6,111.225Z" style="fill:#a9db89"/><path d="M200.345,153.666c14.837-18.156,62.651-24.518,83.933,20.2a6.344,6.344,0,0,1-1.439,7.571c-12.371,11.8-37.071,19.129-54.562-.741a49.941,49.941,0,0,1-7.4-10.713A29.976,29.976,0,0,0,200.345,153.666Z" style="fill:#a9db89"/><path d="M123.716,285.517c11.388,1.118,23.96.358,35.05-4.258a12.483,12.483,0,0,1,7.733-4.042,44.675,44.675,0,0,0,11.492-10.658,7.723,7.723,0,0,1,4.049-5.76,60.289,60.289,0,0,0,7.548-15.527c-1.144-2.215-.452-4.377,1.317-6.509,1.156-11.361-4.283-19.85-11.767-27.607a19.425,19.425,0,0,1-3.8-21.1,15.365,15.365,0,0,0-3.5-16.232l-3.364-3.364c-15.2-10.045-19.668,4.53-38.244,5.014C46.734,122.414,45.753,275.438,123.716,285.517Z" style="fill:#ffeac5"/><path d="M95.85,215.687c.107-4.452,6.729-4.405,6.774.047C102.517,220.185,95.894,220.138,95.85,215.687Z" style="fill:#ebb699"/><path d="M147.575,218.2c.107-4.451,6.73-4.4,6.774.048C154.242,222.694,147.62,222.647,147.575,218.2Z" style="fill:#ebb699"/><path d="M108.84,197.033a81.763,81.763,0,0,1-17.307-24.8c-1.049-3-4.71-6.127-1.139-8.705,4.077-2.254,5.823,3.128,7.252,6.072,7.715,17.915,23.735,29.62,23.9,29.736a3.328,3.328,0,0,1-3.888,5.4A78.318,78.318,0,0,1,108.84,197.033Z" style="fill:#ebb699"/><path d="M190.9,238.763c-8.678-1.922-18.916-8.248-22.883-11.119a3.332,3.332,0,0,0-4.309,5.046c1.057.873,13.333,9.735,25.868,12.579A35.431,35.431,0,0,0,190.9,238.763Z" style="fill:#ebb699"/><path d="M178.133,266.372c1.438-1.921,2.726-3.774,3.9-5.577A51.673,51.673,0,0,1,165.7,253.1a3.328,3.328,0,1,0-3.837,5.439,58.5,58.5,0,0,0,16.126,8.017C178.036,266.494,178.085,266.435,178.133,266.372Z" style="fill:#ebb699"/><path d="M166.5,277.211c-8.541-3.262-23.839-10.431-35.806-23.317a3.342,3.342,0,0,0-4.7-.175c-2.564,2.653-.062,4.994,1.948,6.907a102.433,102.433,0,0,0,30.831,20.629A48.85,48.85,0,0,0,166.5,277.211Z" style="fill:#ebb699"/><path d="M85.085,206.265C73.249,194.429,68.168,182.342,67.134,177.6a3.328,3.328,0,1,1,6.5-1.416c.688,3.253,5.1,14.383,16.219,25.444A3.328,3.328,0,1,1,85.085,206.265Z" style="fill:#ebb699"/><path d="M123.716,285.515c-44.055-12.76-46.249-45.791-46.249-45.791a148.611,148.611,0,0,0-5.325-32.15c-8.026-20.4,9.944-31.96,9.944-31.96,23.386-15.6,37.781,3.2,37.781,3.2,11.716,16.012,22.667,21.923,31.062,23.648a2.953,2.953,0,0,0,1.935-5.514,34.986,34.986,0,0,1-9.557-7.128,9.574,9.574,0,0,1,2.183-14.915c13.109-7.4,22.988-4.452,22.989-4.451-4.549-5.266-10.977-8.11-17.912-6.416a49.147,49.147,0,0,0-15.708,6.674S112.5,136.508,80.34,155.2C51.589,171.91,54.322,198.46,57.912,211.615a54.678,54.678,0,0,1,2.07,14.025c.04,6.255,1.938,17.189,11.39,32.191a13.316,13.316,0,0,1,.758,11.834,2.42,2.42,0,0,0,2.745,3.18c4.13-.723,10.231-.515,17.28,3.776,5.538,3.371,17.67,7.531,31.561,8.9Z" style="fill:#ebb699"/><path d="M87.409,247.644a256.822,256.822,0,0,1-20.615-23.6,3.329,3.329,0,0,1,5.305-4.021c.129.171,13.082,17.19,26.643,29.167,3.247,2.942-1.085,7.832-4.406,4.989C91.977,252.1,89.651,249.885,87.409,247.644Z" style="fill:#ebb699"/><path d="M185.374,142.587c9.483-13.39,14.782-26.963,15.823-40.6,4.157-5.489,23.889-34.618-.455-64.087-18.026-22.226-41.354-25.391-56.891-19.062a3.35,3.35,0,0,0-1.467,4.738c2.384,3.973,2.644,10.963,2.543,13.34-.516,32.823,11.28,51.263,33.713,58.9a87.326,87.326,0,0,1,15.816,6.754c-1.883,19.75-13.708,39.579-35.242,59.059-8.606-3.576-18.75.615-26.212,4.636-36.206-46.728-96.32-1.991-81,46.206a50.921,50.921,0,0,1,1.953,13.17c.044,6.937,2.145,18.457,11.9,33.944.192.318,3.647,5.291-1.8,12.9-5.644,5.367-25.439,9.273-38.469.763a3.335,3.335,0,0,0-4.105,5.185,32.152,32.152,0,0,0,7.9,3.977,26.965,26.965,0,0,0-8.239,9.617,8.478,8.478,0,0,0-1.5,3.13,55.246,55.246,0,0,0-3.06,9.723c-.989,4.446-3.441,9.053-7.286,13.693-2.735,3.421,2.281,7.568,5.124,4.247,4.835-5.832,7.637-11.454,8.9-17.488,6.74,5.559.748,7.271,3.809,11a3.348,3.348,0,0,0,5.453-1.142,11.645,11.645,0,0,0,.776-3.615,12.679,12.679,0,0,0-4.447-10.12c-2.112-1.834-2.847-3.325-2.85-4.341,3.7-8.08,9.415-12.1,17.307-12.244a54.933,54.933,0,0,0,9.816-.811,30.778,30.778,0,0,0-3.145,5.259c-3.546,7.847-5.16,11.149-8.063,14.721-2.7,3.448,2.352,7.545,5.165,4.2,3.386-4.165,5.24-7.936,8.964-16.18,2.842-6.085,9.935-12.465,12.38-14.6,1.391-.738,9.039-4.227,19.231,1.976,15.524,9.449,66.824,20.348,90.373-11.1,22.4-29.909,12.939-46.872.736-59.522a16.165,16.165,0,0,1-3.074-17.634,18.746,18.746,0,0,0-3.947-19.4,53.131,53.131,0,0,1,28.233-14.738A26.048,26.048,0,0,1,217.9,171.462c5.135,10.475,15.629,20.741,26.96,23.643,23.926,7.082,47.658-14.945,44.435-18.328-19.078-47.7-70.4-48.092-90.615-26.174a59.212,59.212,0,0,0-18.091,6.413c19.535-20.67,36.606-34,51.023-42.465,12.419-.11,26.524,6.062,31.457,9.5,35.923,25.121,65.661-2.041,67.814-7.029a3.326,3.326,0,0,0,.41-3.05c-10.945-36.473-63.982-60.8-84.67-26.169-6.568,12.186-14.386,18.272-16.887,20.008Q208.407,119.976,185.374,142.587ZM169.045,40.849a3.328,3.328,0,0,0,.518,4.677c.243.194,24.213,19.772,25.136,49.64a94.147,94.147,0,0,0-14.075-5.7c-22.261-7.486-29.511-27.18-29.047-52.272a40.851,40.851,0,0,0-1.8-13.346c30.68-9.157,70.784,31.449,51.21,66.01-3.28-30.025-26.239-48.7-27.27-49.526A3.326,3.326,0,0,0,169.045,40.849Zm87.234,107.625c10.722,5.036,19.46,14.764,26,28.93-10.962,11.317-34.666,20.577-51.885.659-6.517-7.186-8.569-16.319-16.539-21.8,18.608.073,45.209,14.156,48.832,17.383,3.6,2.46,7.382-2.837,3.844-5.435-5.963-4.895-34.889-19.559-55.824-18.646C219.479,144.145,235.257,138.6,256.279,148.474Zm-86.756,40.4a22.814,22.814,0,0,0,4.523,24.574c10.036,10.4,19.044,23.776-1.275,50.91-11.591,15.479-30.3,18.472-43.956,18.258-17.257-.271-32.238-5.577-37.627-8.857-7.131-4.34-13.455-4.965-18.128-4.427a16.521,16.521,0,0,0-1.585-13.318c-8.907-14.147-10.823-24.346-10.862-30.414a57.442,57.442,0,0,0-2.187-14.88c-3.565-13.062-5.59-37.272,20.89-52.662,29-16.856,49.216,13.178,50.062,14.462a3.346,3.346,0,0,0,4.629.945c7.417-4.626,19.915-10.535,27.516-2.579C166.882,176.205,172.422,180.319,169.523,188.871Zm154.861-74.35c-5.768,8.424-30.564,23.029-57.509,4.074-3.784-2.639-13.685-7.51-24.672-9.654,21.808-11.083,45.742-10.182,55.441-2.609,3.447,2.651,7.525-2.421,4.147-5.207-8.105-6.782-31.188-11.247-54.693-1.594a75.634,75.634,0,0,0,5.389-8.582C265.321,66.723,310.329,77.22,324.384,114.521Z" style="fill:#2b2b2b"/></svg>