<svg id="icons" xmlns="http://www.w3.org/2000/svg" viewBox="0 0 340 340"><title>37_chard</title><path d="M304.163,131.3a43.721,43.721,0,0,1,19.522,14.759c11.974,15.449,5.5,31.411-.216,40.407,0,0,7.785,47.511-51.6,65.561,0,0-2.393,31.238-43.086,25.036s-88.792.873-88.792.873,21.28-14.186,22.991-47.422Z" style="fill:#a9db89"/><path d="M191.025,231.807c48.535,6.655,71.609-48.031,71.609-48.031,38.143-19.9,41.53-44.384,41.528-52.471a40.34,40.34,0,0,0-22.98-1.546L160.949,206.324a95,95,0,0,1,2.024,24.192A138.559,138.559,0,0,1,191.025,231.807Z" style="fill:#719b56"/><path d="M39.992,207.893s10.422-27.1-.232-68.785,6.485-58.362,17.6-65.31c0,0,3.668-42.875,42.808-38.474,0,0,25.281-32.395,55.157-19.194C169.2,22.262,174.686,34.088,176.579,45L102.2,179.909c-6.333,1.745-35.149,3.912-57.575,32.616Z" style="fill:#a9db89"/><path d="M107.452,132.092c.311,22.633-2.284,36.556-5.257,47.8,63.4-13.687,73.976-110.958,73.976-110.958A68.065,68.065,0,0,0,176.577,45c-6.746,3.6-18.852,11.806-29.733,28.382C146.844,73.38,106.669,75.2,107.452,132.092Z" style="fill:#719b56"/><path d="M100.867,216.425C152.792,182.5,88.553,98.876,153.361,83.6c0,0,23.264-40.763,53.29-32.212,0,0,33.405-36.189,73.969.8,20.281,18.492,17.8,40.067,10.24,57.018,0,0,17.886,34.653-39.137,66.413,0,0-12.685,51.41-83.648,36.72a18.744,18.744,0,0,0-13.52,2.3c-5.1,3.089-14.974,5.994-32.8,1.764C115.383,214.647,107.367,215.826,100.867,216.425Z" style="fill:#a9db89"/><path d="M29.85,299.017a61.4,61.4,0,0,0,9,6.792S74.47,254.9,122.087,215.066c48.005-40.162,76.352-59.765,94.124-89.911,0,0-67.279,52.384-102.418,78.195-34.17,25.1-72.477,70.884-84.688,85.949A7.085,7.085,0,0,0,29.85,299.017Z" style="fill:#e54871"/><path d="M67.222,322.076l6.425,6.425s21.589-17.86,65.9-36.2c47.413-19.623,86.955-32.375,119.61-79.852,0,0-39.711,39.149-120.458,63.48-4.959,1.494-9.862,3.212-14.656,5.173-20.831,8.521-38.318,17.581-56.168,31.212A6.5,6.5,0,0,0,67.222,322.076Z" style="fill:#b73463"/><path d="M13.922,265.378l7.2,4.608s14.719-23.306,36.492-76.97S112.506,79.86,112.506,79.86s-46,57.038-66.851,106.716c-14.068,33.515-27.3,55.306-34.419,65.938A9.193,9.193,0,0,0,13.922,265.378Z" style="fill:#b73463"/><path d="M326.956,187.235c17.035-26.181-.136-55.749-30.221-61.3a38.065,38.065,0,0,0-2.2-16.729c22.573-47.152-31.879-87.753-67.162-74.488a60.51,60.51,0,0,0-21.733,12.936c-9.135-2.057-17.561-.112-24.943,3.7C179.74,15.7,143.652-1.842,114.726,17.942a77.224,77.224,0,0,0-16,13.859c-28.387-2.988-42.3,21.662-44.516,40.027-14,9.38-27.777,28.721-17.71,68.115a141.558,141.558,0,0,1,3.941,50.28c-13.325,30.83-25.657,50.943-32,60.417A12.468,12.468,0,0,0,6.576,260.2c.974,6.452,7.965,9.422,12.731,12.626a3.387,3.387,0,0,0,4.663-1.038c.569-.9,13.341-21.317,32.731-67.705,32.137-24.948,39.836-15.281,62.835-26.762a63.747,63.747,0,0,1-7.949,23.476c-34.717,25.574-73.9,72.568-85.1,86.385a10.459,10.459,0,0,0,.722,13.974,63.061,63.061,0,0,0,9.883,7.528,3.369,3.369,0,0,0,4.52-.941c.347-.5,34.626-49.161,80.054-87.908,21.137,4.56,28.528.869,37.461-3.645,3.247,28.485-7.837,45.607-15.024,53.479-28.066,8.23-56.354,22.677-76.726,38.426a9.932,9.932,0,0,0-.991,14.819l6.424,6.425a3.369,3.369,0,0,0,4.527.215c.213-.175,21.811-17.791,65.044-35.683q6.322-2.618,12.457-5.1c8.791-3.578,17.328-7.056,25.615-10.72,18-.535,34.084.253,47.819,2.347,23.675,4.3,42.971-6.208,46.6-25.781C315.806,240.841,328.227,214.425,326.956,187.235ZM251.69,171.758c-14.7-8.326-43.6-14.516-63.341-8.037,12.591-11.772,22.529-23.056,30.424-36.294,4.028-3.15,7.645-6.249,10.7-9.006a10.865,10.865,0,0,1,9.9-2.679c4.1.97,8.874.926,11.834,4.443,11.346,12.13,23.692,12.254,24.212,12.253a3.368,3.368,0,0,0,.008-6.736c-.379,0-8.824-.191-17.479-8.3a155.9,155.9,0,0,0,30.874-4.217C291.383,121.138,295.284,146.807,251.69,171.758ZM278.35,54.671c15.268,13.927,18.64,31.3,10.069,51.676-6.437,1.732-32.344,7.048-49.112,2.542,17.065-17.019,22.34-32.749,15.442-33.246a3.384,3.384,0,0,0-3.644,3.045c-1.316,12.892-25.242,35.732-47.257,51.8,3.892-10.17,5.235-22.149,4.312-33.29,3.7-20.22,17.925-27.931,18.553-28.261a3.368,3.368,0,0,0-3.1-5.982c-.575.3-11.322,6-17.944,20.014a44.539,44.539,0,0,1,3.7-29.556C212.575,50.117,242.15,21.665,278.35,54.671ZM97.68,38.484a93.732,93.732,0,0,1,3.833,20.823,21.33,21.33,0,0,0-4.6-3.576A21.815,21.815,0,0,0,89.4,52.986c-4.371-.475-5.215,6-.873,6.68a15.781,15.781,0,0,1,5.031,1.908A15.516,15.516,0,0,1,101.1,76.217a72.346,72.346,0,0,1-5.6,20.475c-7.2,9.86-16.287,22.829-25.3,37.129a79.844,79.844,0,0,0-2.194-18.028c11.949-12.96,10.364-29.1,10.288-29.808a3.368,3.368,0,1,0-6.7.725,34.487,34.487,0,0,1-5.991,21.355C53.326,79.732,61.644,36.212,97.68,38.484ZM43.024,138.275c-6.7-26.2-3.153-45.479,10.5-57.449a71.351,71.351,0,0,0,5.132,28.005c6.883,16.364,4.465,34.276,3.972,37.375-5.283,8.929-10.341,18.15-14.75,27.282A153.428,153.428,0,0,0,43.024,138.275Zm-23.017,127-4.27-2.732a5.853,5.853,0,0,1-1.7-8.153c6.813-10.174,20.384-32.343,34.726-66.509,9.965-23.74,25.894-49.387,39.65-69.5-7.652,15.119-16.443,33.173-24.55,51.405-3.261,7.331-6.423,14.707-9.367,21.964C37.348,234.009,24.5,257.511,20.007,265.273Zm41.739-73.465c2.659-6.474,5.481-13.029,8.382-19.546,4.225-10.4,13.858-10.83,23.285-14.308,11.753-4.214,17.053-9.427,17.273-9.647,3.055-3.162-1.549-7.809-4.75-4.777-.044.044-4.606,4.429-14.8,8.082-4.626,1.676-9.234,2.711-13.67,4.575C106.617,98.551,116.556,67.842,143.684,51.9a3.365,3.365,0,0,0,1.552-4.5c-3.585-7.684-24.654,12.171-35.485,30.511-.315.394-1.2,1.5-2.545,3.234a97.433,97.433,0,0,0-3.224-45.111c5.1-5.76,26.29-27.292,49.984-16.823,16.458,7.273,20.09,23.45,20.119,36.2-12.086,8.626-20.4,21.2-22.9,25.26-30.149,7.28-36.314,32.51-31.787,68.185a113.817,113.817,0,0,1,.9,20.391C97.52,182.137,93.986,172.181,61.746,191.808Zm61.107.629c4.364-12.431,5.455-27.32,3.227-44.45-6.3-48.411,12.426-56.961,24.967-60.331,3.18,11.91,12.38,57.883-20.883,99.3Q126.41,189.778,122.853,192.437ZM158.216,144.7c.457-1.011,5.051-10.839,13.473-16.5a34.963,34.963,0,0,0,13.8-18.455c1.041-4.28-5.291-5.961-6.513-1.72A28.609,28.609,0,0,1,167.929,122.6a39.939,39.939,0,0,0-7.062,6.145c.382-3.9.557-7.565.584-10.939a118.211,118.211,0,0,0-4.416-33.766c3.855-6.14,22.173-33.1,44.693-30.233a51.79,51.79,0,0,0-2.116,32.833c4.883,18.9,1.384,46.04-12.773,57-11.867,9.158-26.218,20.191-40.148,30.791A116.066,116.066,0,0,0,158.216,144.7Zm-38.291,67.788C78.7,246.975,46.053,290.2,38,301.227c-2.733-2.306-9.411-5.4-6.281-9.807,11.1-13.687,49.946-60.292,84.066-85.355,23.789-17.5,58.641-44.307,84.185-64.055C181.887,163.5,147.009,189.542,119.925,212.483Zm32.885-.729c-4.064,2.462-11.509,4.7-24.53,2.533,7.45-6.2,14.342-11.846,21.035-17.328,7-5.731,13.486-11.048,19.518-16.111a63.132,63.132,0,0,1,23.6-11.211,12.529,12.529,0,0,1,11.327,5.12,41.738,41.738,0,0,0,18.321,14.25,3.368,3.368,0,1,0,2.558-6.231c-10.448-4.316-12.956-9.468-18.092-14.957,18.985-.478,35.2,6.526,41.094,9.45-10.757,28.667-42.518,40.113-78.881,31.765A22.05,22.05,0,0,0,152.81,211.754Zm13.009,3.639c50.265,10.066,77.192-7.624,88.748-37.515,23.169-13.155,36.952-28.388,41.059-45.3,7.242,1.1,17.044,4.768,25.4,15.548,18.332,23.493-7.75,60.247-43.818,49.529,12.429-15.456,15.508-25.095,15.667-25.614a3.369,3.369,0,0,0-6.437-1.988c-8.882,20.281-28.433,46.435-80.222,73.805,4.54-7.942,3.754-14.4,3.694-14.824-.684-4.33-7.127-3.464-6.677.894.053,20.535-25.968,27.93-47.8,35.979C162.147,255.442,168.508,238.893,165.819,215.393ZM152.3,282.53c-30.114,10.638-73.115,35.622-76.828,39.941l-4.322-4.323a3.133,3.133,0,0,1,.316-4.7c16.032-12.243,32.6-21.446,55.4-30.772,4.562-1.866,9.39-3.57,14.352-5.065,45.054-13.576,77.292-31.554,97.255-45.059C213.43,257.652,184.6,269.384,152.3,282.53Zm106.886-14.039c-6.916,5.45-16.975,7.215-29.9,5.245a248.444,248.444,0,0,0-34.167-2.559,200.427,200.427,0,0,0,29.145-17.536c13.243-10.776,31.49-9.217,43.951-.112A26.07,26.07,0,0,1,259.186,268.491ZM272.5,248.3c-7.095-5.382-20.846-10.569-31.564-8.7a173.547,173.547,0,0,0,22.36-26.527c4.236-4.019,8.093-10.549,14.693-8.425,19.551,5.921,34.64-3.491,42.389-10.242C319,220.165,301.16,239.435,272.5,248.3Z" style="fill:#2b2b2b"/></svg>