<svg id="icons" xmlns="http://www.w3.org/2000/svg" viewBox="0 0 340 340"><title>38_celeriac</title><path d="M149.618,135.717s-5.03-12.676-15.281-11.15c0,0-12.562,1.271-7.3,15.513,0,0-6.546-2.954-11.228,6.478-2.618,5.274,1.2,10.487,5.08,14.059,7.972,7.21,6.6,18,2.194,27.083C123.082,187.7,158.215,163.3,149.618,135.717Z" style="fill:#3e6a51"/><path d="M247.1,200.548s2.662,8.952-7.983,12.823c0,0,5.217,9.353-3.6,14.511-8.723,5.1-18.615-4.969-18.615-4.969s-10.045,8.518-20.043-.028-29.533-9.5-44.8-4.548C152.05,218.337,215.647,172,247.1,200.548Z" style="fill:#3e6a51"/><path d="M243.906,195.9s-67.7-3.321-129.753,46.87l45.124-51.661,71.37-21.532Z" style="fill:#719b56"/><path d="M159.761,162.081,92.808,237.868,106.536,251.6c29.436-34,57.53-52.238,73.613-60.851Z" style="fill:#a9db89"/><path d="M242.018,149.017,225,135.39l-65.242,26.691-45.508,51.513a56.38,56.38,0,0,0,11.1-6.919c22.8-17.141,45.63-16.91,54.793-15.929a113.929,113.929,0,0,1,13.869-6.5Z" style="fill:#719b56"/><path d="M141.114,160.97s-17.792,35.873-65.937,74.148l14.2,11.6s27.3-31.714,56.229-61.3c0,0,22.672-20.311,11.745-51.8Z" style="fill:#719b56"/><path d="M206.687,176.655s12.859-.086,24.065,15.255S263.317,213.119,280,202.344c0,0,8.268-7.265-.826-14.494,7.76.208,13.509-3.549,13.11-10.522-2.889-13.848-21.327-10.191-21.327-10.191Z" style="fill:#3e6a51"/><path d="M287.544,72.849c15.562-4.142,28.277,17.486,14.014,28.1l-35.982,13.933L249.193,96.05S268.63,76.6,287.544,72.849Z" style="fill:#3e6a51"/><path d="M203.191,74.546c-.436-.436,7.611-30.272,23.586-37.353,18.46-8.181,29.217,2.575,29.217,2.575L224.542,79.361Z" style="fill:#3e6a51"/><path d="M311.438,91.9a82.351,82.351,0,0,0-25.323,8.731,80.879,80.879,0,0,0-23.765,34.141c2.563,9.016,7.93,14.768,16.634,16.634a56.588,56.588,0,0,1,23.37-1.017s8.535,1.272,12.221-4.738c3.6-6.254-.81-13.065-7.576-15.229,0,0,14.127,1.529,16.442-7.147,3.118-11.687-9.092-14.086-9.092-14.086C326.886,102.535,319.853,90.588,311.438,91.9Z" style="fill:#80b297"/><path d="M237.069,56.16c7.7-10.9,32.665-38.906,45.172-27.688,5.054,4.848-.516,11.036-.516,11.036s12-8,20.319,1.754c0,0,10,10.623-12.068,20.937,0,0,8.767,2.785,5.879,11.242-1.849,5.415-9.406,6.952-14.384,8.355a68.812,68.812,0,0,0-11.516,4.314l-29.695-.644Z" style="fill:#80b297"/><path d="M270.7,139.741a10.186,10.186,0,0,1,4.545-6.417c8.2-4.674,19.741-7.577,23.187-8.134a3.375,3.375,0,1,0-1.077-6.663,127.053,127.053,0,0,0-16.69,4,11.707,11.707,0,0,0-2.365-5.21c8.854-6.921,8.5-13.773,7.814-16.68-17.036,8.927-34.591,24.133-49.962,45.415l6.47,22.924s16.233-12.756,36.36-17.567C272.39,148.289,269.9,142.863,270.7,139.741Z" style="fill:#3e6a51"/><path d="M177.365,33.531c-3.929-12.243-18.212-14.089-22.738,0,0,0-6.287-9.229-14.847-2.274-7.929,6.442-.134,13.242-.134,13.242-8.38,1.275-12.549,12.308-7.058,19.172,4.623,6.121,12.97,11.5,21.638,16.808l24.8,2.333S186.461,56,177.365,33.531Z" style="fill:#3e6a51"/><path d="M215,54.52a119.748,119.748,0,0,1,15.891-20.342,11.349,11.349,0,0,0,3-7.753,7.977,7.977,0,0,0-10.611-7.35,12.823,12.823,0,0,0-5.686,4.2,16.059,16.059,0,0,0,.915-5.217,8.391,8.391,0,0,0-13.034-6.868A30.53,30.53,0,0,0,192.738,29.91a8.868,8.868,0,0,0-11.411-4.254s-14.591,7.17-6.646,27.38a33.558,33.558,0,0,1,2.169,10.011c.469,8.008,5.871,33.308,10.31,55.228C196.076,93.46,204.87,67.458,215,54.52Z" style="fill:#80b297"/><path d="M269.96,86.119c-13.8-13.722-28.907-3.7-28.907-3.7,10.907-13.444.012-23.3-3.983-26.256a230.663,230.663,0,0,0-21.664,36.464c18.953,20.759,31.347,21.015,31.347,21.015C248.859,109.7,250.8,95.468,269.96,86.119Z" style="fill:#3e6a51"/><path d="M189.631,78.86c-3.426-5.607.5-22.873,4.028-32.149a3.376,3.376,0,0,1,6.321,2.372c-3.762,10.026-5.442,19.867-4.608,27A3.392,3.392,0,0,1,189.631,78.86Z" style="fill:#3e6a51"/><path d="M167.125,99.985l20.035,18.29L206.618,72.9s1.659-7.4,8.382-18.377c-5.034-2.266-18.458-5.862-25.1,16.029,0,0-.909,3.383-2.334,7.865a2.33,2.33,0,0,1-4.07.715,33.527,33.527,0,0,1-6.653-16.084C178.081,81.08,167.125,99.985,167.125,99.985Z" style="fill:#3e6a51"/><path d="M176.687,61.309l0,.005c.009.08.015.16.024.241C176.7,61.472,176.692,61.392,176.687,61.309Z" style="fill:#3e6a51"/><path d="M188.985,96.835a60.248,60.248,0,0,0,6.193-19.353c1.1-8.61,5.165-13.484,9.052-16.219a7.066,7.066,0,0,1,11.159,5.968,12.08,12.08,0,0,1-1.245,4.787,17.764,17.764,0,0,1,11.572-8.639,8.314,8.314,0,0,1,9.79,10.565c-1.38,4.3-4.663,9.28-11.879,13.664a12.644,12.644,0,0,1,7.76,1.661L198.4,126.2Z" style="fill:#80b297"/><path d="M233.474,90.612a16.608,16.608,0,0,0-2.09-1.338c-10.679,3.415-21.9,15.1-28,22.241a2.233,2.233,0,0,1-3.924-1.342c-.6-8.54-6.981-12.048-10.482-13.339a67.925,67.925,0,0,1-7.707,12.069c-14.547,15.67-4.979,27.321-4.979,27.321,27.388,1.222,50.378-26.017,58.415-36.863A6.3,6.3,0,0,0,233.474,90.612Z" style="fill:#3e6a51"/><path d="M101.049,241.239c-29.493-31.723-91.886-7.032-80.809,39.993,0,0,25.16,53.938,67.583,31.234,50.464-27.009,15.05-69.332,15.05-69.332A21.192,21.192,0,0,0,101.049,241.239Z" style="fill:#ffeac5"/><path d="M250.4,135.28s-20.87,3.747-40.6,34.148a55.009,55.009,0,0,1-15.784,14.821s17.339-4.906,34.714-2.077,30.9,2.123,27.767-10.5c19.755,6.852,24.34-22.638,1.414-20.2,2.093-.979,10.577-8.409,3.6-14.388C259.566,135.518,255.873,133.652,250.4,135.28Z" style="fill:#80b297"/><path d="M208.179,119.1c10.125-12.816,22.6-25.148,35.671-29.882,9.061-3.184,12.344.657,9.883,6.681,0,0,13.086-5.649,20.6,1.856,8.976,8.961-5.342,18.534-5.342,18.534s12.585,3.342-4.442,15.265A203.678,203.678,0,0,1,239.706,144C215.025,152.437,210.934,136.558,208.179,119.1Z" style="fill:#80b297"/><path d="M239.705,144c-6.841,1.8-12.246,1.162-16.357-.378a6.251,6.251,0,0,1-1.526-10.835c14.236-10.8,23.2-14.257,23.323-14.3a3.375,3.375,0,0,0-2.351-6.328c-.534.2-9.638,3.665-24.091,14.5a3.294,3.294,0,0,1-4.944-1.141,18.866,18.866,0,0,0-5.578-6.417,248.149,248.149,0,0,0-23.909,37.155c19.192.873,39.87-5.682,55.434-12.257Z" style="fill:#3e6a51"/><path d="M180.54,126.661,182.845,131s11.235-13.516,19.223-5.528,2.893,16.506-4.594,20.57c0,0,15.669,12.86-10.815,22.226-5.1,1.8-9.767,3.552-13.967,5.2-15.243,2.621-16.382-10.646-11.073-31.176C165.99,132.177,172.471,127.41,180.54,126.661Z" style="fill:#80b297"/><path d="M172.333,125.185a61.257,61.257,0,0,1,7.072-4.858,20.381,20.381,0,0,0,8.648-8.694,7.835,7.835,0,0,0-4.4-10.748,20.739,20.739,0,0,0-7.638-1.017s11.42-9.765-1.406-12.631c3.381-9.566-3.394-15.662-7.547-18.189a12.425,12.425,0,0,0-13.722.7c-3.121,2.2-6.528,5.783-7.134,11.16a7.08,7.08,0,0,1-4.928,5.88c-3.716,1.216-7.866,4.359-6.629,12.43a18.7,18.7,0,0,0,5.027,10.039c1.928,2.015,3.186,5.17,3.957,8.952,1.534,7.089,3.984,13.236,7.766,18.013C157.783,135.3,164.3,131.022,172.333,125.185Z" style="fill:#80b297"/><path d="M43.4,279.815c.108-4.514,6.824-4.467,6.869.048C50.157,284.377,43.441,284.329,43.4,279.815Z" style="fill:#ebb699"/><path d="M198.065,34.461c.109-4.514,6.825-4.467,6.869.048C204.826,39.023,198.11,38.975,198.065,34.461Z" style="fill:#3e6a51"/><path d="M235.77,86.847a3.376,3.376,0,0,1-.3-4.427c14.4-18.947,35.474-30.588,36.364-31.074a3.375,3.375,0,0,1,3.238,5.923c-.2.112-20.719,11.467-34.228,29.237A3.384,3.384,0,0,1,235.77,86.847Z" style="fill:#3e6a51"/><path d="M42.266,233.193l21.173,21.173a3.375,3.375,0,1,0,4.773-4.774L48.764,230.144A49.884,49.884,0,0,0,42.266,233.193Z" style="fill:#ebb699"/><path d="M98.1,300.444l-18.711-18.71a3.376,3.376,0,0,1,4.773-4.774l18.711,18.711A3.375,3.375,0,0,1,98.1,300.444Z" style="fill:#ebb699"/><path d="M87.757,310.783,76.525,299.551a3.375,3.375,0,1,1,4.773-4.773L92.53,306.01A3.375,3.375,0,0,1,87.757,310.783Z" style="fill:#ebb699"/><path d="M20.72,258.5l11.673,11.673a3.375,3.375,0,0,0,4.773-4.773L23.585,251.82A41,41,0,0,0,20.72,258.5Z" style="fill:#ebb699"/><path d="M115.2,285.032c2.6-11.623,1.588-26.849-12.33-41.894,4.138,7,9.021,19.552,2.305,33.191a11.089,11.089,0,0,1-5.689,5.373,8.932,8.932,0,0,0-4.1,3.452c-5.753,9.273-8.233,18.98-21.184,22.19-13.06,3.149-34.942,2.552-53.953-26.113,2.288,8.421,7.449,17.458,16.7,26.7,0,0,7.041,7.781,14.266,7.6C70.254,331.534,107.193,319.1,115.2,285.032Z" style="fill:#ebb699"/><path d="M152.62,145.3c5.448-6.715,12.362-14.322,19.715-20.111l0,0a35.67,35.67,0,0,1-10.562,5,2.972,2.972,0,0,1-3.628-3.666c4.98-17.492,4.643-29.492,4.614-30.266-.238-4.422-6.835-4.192-6.745.252.006.173.313,11.111-4.15,27.27a2.806,2.806,0,0,1-5.034.81,29.551,29.551,0,0,1-3.2-6.372h0c2.319,17.209-6.678,49.985-6.678,49.985Z" style="fill:#3e6a51"/><path d="M169.845,173.131A3.59,3.59,0,0,1,167.8,167.1l15.608-16.314c2.96-3.3-1.715-7.807-4.877-4.667l-12.408,12.97a1.842,1.842,0,0,1-3.158-1,25.465,25.465,0,0,0-.544-2.678c-2.53-9.786,5.172-17.853,5.172-17.853l-.192.091a117.981,117.981,0,0,1,13.139-10.986c-4.506-5.855-13.668-4.873-18.292,1.5-2.912,4-6.234,12-6.4,23.568a64.351,64.351,0,0,1-6.161,26.279,2.738,2.738,0,0,0,3.629,3.651c4.55-2.1,11.058-4.95,19.375-8.2C171.7,173.384,170.749,173.27,169.845,173.131Z" style="fill:#3e6a51"/><path d="M221.988,174.166c-.095-.1-.171-.221-.259-.33a197.1,197.1,0,0,1,27.4-9.183,3.375,3.375,0,1,0-1.528-6.574,196.582,196.582,0,0,0-26.621,8.768,29.64,29.64,0,0,1,13.1-12.913c9.9-4.534,23.826-11.641,29.37-14.5-2.168-3.657-6.51-5.916-13.038-4.159,0,0-20.87,3.747-40.6,34.148a55.009,55.009,0,0,1-15.784,14.821s17.339-4.906,34.714-2.077q2.043.332,4,.592A42.815,42.815,0,0,1,221.988,174.166Z" style="fill:#3e6a51"/><path d="M281.832,205.18c2.365-1.452,7.179-8.705,3.872-14.723,6.342-1.679,10.683-7.126,9.885-13.819-1.758-8.424-8.753-13.229-19.008-13.312a14.229,14.229,0,0,0-1.358-7.4c9.667-2.961,18.576-3.705,26.634-2.205.439.066,10.8,1.51,15.594-6.313a12.64,12.64,0,0,0-.946-14.311c12.153-2.288,14.692-18.445,4.53-24.711,8.283-8.508.662-21.174-9.807-19.861-.077-6.873-5.4-14.778-11.444-17.6a10.878,10.878,0,0,0-3.164-8.435c20.274-11.246,9.519-32.377-8.863-29.023a9.554,9.554,0,0,0-3.18-7.432c-10.279-9.273-23.843,1.478-31.655,7.643a28.978,28.978,0,0,0-16.345-2.712c3.413-9.2-5.5-18.653-14.862-14.91C220.572,8.012,210.208,3.615,203.6,8.382A33.382,33.382,0,0,0,191.3,23.425a12.021,12.021,0,0,0-14.98,1.717c-6.734-8.074-18.574-5.277-22.806,2.6-9.373-7.555-25.544,4.027-19.273,15.208-7.853,4.35-9.927,15.747-4.35,22.751,3.807,4.85,7.5,7.694,13.563,11.909-.68,2.286-.41,5.171-3.323,6-6.7,2.235-9.943,7.964-8.884,15.718.8,5.749,4.769,9.535,7.275,14.116a43.376,43.376,0,0,1,3.468,8.951c-8.318-4.174-21.723,1.644-19.411,14.041-3.264.64-6.98,2.94-9.8,8.617-1.614,3.252-3,9.924,5.816,18.043,6.762,5.933,5.053,15.608,1.627,22.711a274.749,274.749,0,0,1-20.492,22.9c1.621-8.327,1.317-14.676-3.714-13.79a3.374,3.374,0,0,0-2.428,4.11c.03.117,2.579,10.8-9.262,24.079-.969.846-1.965,1.695-2.964,2.544C38.5,212.974-3.746,258.108,24.593,298.376a9.888,9.888,0,0,1-7.175-.425c-3.358-1.565-6.4,2.934-3.771,5.466,5.237,3.6,12.2,2.033,15.138.544q2.418,2.937,5.264,5.832a23.621,23.621,0,0,0-3.638,15.077,3.351,3.351,0,0,0,.97,2.044,3.4,3.4,0,0,0,5.745-2.726,16.762,16.762,0,0,1,2.026-9.8A24.377,24.377,0,0,0,47,318.349a35.873,35.873,0,0,0,0,12.456,3.375,3.375,0,0,0,6.646-1.185,28.711,28.711,0,0,1-.212-8.563c36.218,21,83.3-28.513,60.24-68.839a48.752,48.752,0,0,1,41.24-13.443,3.375,3.375,0,0,0,1.317-6.62,55.025,55.025,0,0,0-24.011,1.589A206.675,206.675,0,0,1,153.58,221.4c15.185-4.768,32.766-3.055,41.083,4.055,8.128,6.948,16.906,4.754,21.995,1.743,3.887,3.105,12.368,8.393,20.559,3.6,6.862-4.013,7.6-10.677,6.212-15.7a14.4,14.4,0,0,0,5.821-5.828A38.346,38.346,0,0,0,281.832,205.18Zm-15.906-36.665c-3.6,1.671-8.2.009-8.227,0a3.375,3.375,0,0,0-4.476,3.967c.917,3.694-.188,4.892-.55,5.286-1.785,1.937-7.293,3.7-23.4,1.075a84.619,84.619,0,0,0-22.72-.311,48.407,48.407,0,0,0,6.078-7.265,94.446,94.446,0,0,1,20.179-22.837,223.743,223.743,0,0,0,24.905-9.738c1.392.623,2.736,1.626,3.022,3.055.708,3.56-4.494,6.784-4.534,6.809a3.375,3.375,0,0,0,2.085,6.264,14.015,14.015,0,0,1,7.754.928C271.152,158,271.1,166.379,265.926,168.515ZM108.322,244.3a74.137,74.137,0,0,0-6.313-6.877c9.808-11.065,27.438-30.634,45.636-49.263,2.63-1.356,16.765-8.445,40.139-16.712,11.35-4.221,17.259-8.9,17.653-16.51,4.5-.65,8.94-1.527,13.249-2.549a113.681,113.681,0,0,0-11.714,15.2A52.288,52.288,0,0,1,192.6,181.163C190.708,180.457,143.233,201.931,108.322,244.3Zm77.119-111.144c1.913-2.271,9.866-10.082,14.241-5.3,5.709,5.521,2.715,11.557-3.817,15.218a3.407,3.407,0,0,0-.545,5.564c.039.034,3.945,3.422,3.31,6.933-.609,3.363-5.26,6.741-13.1,9.513-14.157,5.007-24.89,9.539-31.9,12.717a62.515,62.515,0,0,0,6.01-25.928,57.253,57.253,0,0,1,.954-10.75,107.455,107.455,0,0,1,15.046-14.231,6.448,6.448,0,0,1,1.852,1.4,10.28,10.28,0,0,1,2.087,3.584A3.4,3.4,0,0,0,185.441,133.154Zm44.124,9.191a159.177,159.177,0,0,1-25.918,6.021,18.012,18.012,0,0,0-1.058-1.672c6.747-5.79,9.493-12.732,4.048-21.048,12.421-16.524,31.973-35.316,44.387-33.886.148.153.3,1.1-.415,2.865A3.4,3.4,0,0,0,255.064,99c.11-.047,11.1-4.632,16.888,1.143,5.49,4.975-1.978,11.247-4.833,13.339a3.41,3.41,0,0,0,.98,6.06c.835.238,1.919.9,1.992,1.341.273,1.8-5.572,7.692-13,10.62C250.41,130.708,242.479,132.9,229.565,142.345Zm82.391-47.113a5.215,5.215,0,0,1,5.609,3.441c.9,2.693-.853,5.438-4.8,7.531a3.4,3.4,0,0,0,.912,6.289c3.1.635,8.522,3.65,6.5,9.907-1.514,5.676-12.711,4.674-12.817,4.663-3.954-.457-5.2,5.354-1.413,6.563,4.236,1.167,8.31,6.085,5.748,10.256-2.359,3.847-8.316,3.229-8.813,3.169-9.879-1.8-20.83-.662-32.56,3.38a15,15,0,0,0-4.612-1.936c2.611-3.764,2.523-9.745-1.1-13.155,9.26-5.361,15.778-13.075,10.159-19.461a20.7,20.7,0,0,0,5.211-7.8C290.743,101.256,301.788,96.812,311.956,95.232ZM297.551,77.4c3.8,2.155,7.441,8.012,6.89,12.491a95.573,95.573,0,0,0-24.517,10.319c-1.487-4.546-7.173-8.67-11.727-9.309a61.015,61.015,0,0,1,14.189-5.856C287.514,83.6,293.988,82.233,297.551,77.4ZM271.486,29.974c3.55-2.181,13.467.048,7.731,7.277-2.619,2.872,1.141,7.238,4.37,5.073.98-.642,9.736-6.076,15.888,1.127a5.85,5.85,0,0,1,1.356,4.873c-.688,3.595-5.05,7.437-12.284,10.817a3.406,3.406,0,0,0,.382,6.267,7.12,7.12,0,0,1,3.736,3c2.494,6.568-6.644,8.727-12.109,10.134-9.35,2.634-17.057,6.529-22.962,11.585-2.3-8.119-13.2-5.744-21.083-1.335a17.485,17.485,0,0,0-4.744-3.111c6.138-5.744,10.893-15.342,4.273-22.237C248.126,45.812,260.354,34.243,271.486,29.974ZM247.474,38.71a147.756,147.756,0,0,0-17.312,21.377c-4.019-1.069-9.088.944-12.135,2.971a10.2,10.2,0,0,0-2.167-3.292,109.892,109.892,0,0,1,14.924-20.525C237.961,36.7,243.613,37.38,247.474,38.71Zm-41.3,25.313c4.554-2.515,7.356,2.274,4.916,6.561h0c-1.809,4,4.086,6.848,6.089,2.914a14.351,14.351,0,0,1,9.314-6.835c3.5-.957,7.034,2.831,5.8,6.25-1.448,4.517-4.953,8.49-10.417,11.81-3.181,1.856-1.294,6.942,2.332,6.209a9.769,9.769,0,0,1,6.051,1.582c-9.321,6.255-18.88,15.785-28.56,28.476-5.9-3.641-13.861.449-17.956,4.316a14.526,14.526,0,0,0-2.1-2.395c7.558-4.418,13.975-13.142,8.493-21.115a66.012,66.012,0,0,0,8.388-23.889C199.315,71.71,201.888,67.038,206.172,64.023Zm-23.51-35.256c4.582-1.5,6.536,1.6,7.014,2.562a3.375,3.375,0,0,0,6.344-.631c1.769-8.524,10.775-20.271,16.515-16.921,3.493,1.57,2.634,6.511,1.916,8.263a3.375,3.375,0,0,0,5.77,3.349,9.586,9.586,0,0,1,4.193-3.135,4.628,4.628,0,0,1,6.1,4.227,7.944,7.944,0,0,1-1.99,5.286,120.852,120.852,0,0,0-18.692,24.95c-8.661-1.082-16.417,8.519-18,20.338a58.655,58.655,0,0,1-7.12,20.628,18.413,18.413,0,0,0-2.049-.6c2.729-4.4,1.418-10.047-3.989-12.091a16.365,16.365,0,0,0-.009-5.708c2.5-10.442,2.158-19.847-.841-27.485C171.509,35.744,180.945,29.707,182.662,28.767ZM146.555,71.555c-3.846-2.647-8.431-6.155-11.275-9.918-3.854-4.71-1.152-12.719,4.727-13.782a3.406,3.406,0,0,0,1.875-5.884c-.65-.581-2.332-2.523-2.285-4.43-.029-2.683,4.782-6.067,7.262-5.459,2.39.332,4.414,2.542,4.978,3.349a3.4,3.4,0,0,0,6.064-1.082c.016-.063,1.746-6.416,7.016-7.248,2.705-.427,5.059.707,7.024,3.348-2.986,5.061-4.739,12.79-.4,23.822a34.118,34.118,0,0,1,1.863,15.5C165.381,61.155,153.431,62.493,146.555,71.555Zm-4.948,34.159c-4.607-5.538-5.755-13.837.664-15.7a10.642,10.642,0,0,0,7.287-8.752c.413-6.475,9.435-13.534,15.746-9.334,4.581,2.912,8.452,7.211,6.119,14.18a3.4,3.4,0,0,0,2.446,4.419c2.675.6,3.393,1.4,3.439,1.583.222.885-1.543,3.506-3.491,5.189a3.4,3.4,0,0,0,2.29,5.939c3.789.1,7.364-.067,9,3.3,1.482,4.52-3.344,8.362-7.392,10.862-10.294,5.969-20.247,16.55-27.581,25.57C151.507,129.719,149.04,116.128,141.607,105.714Zm-18.432,52.421c-2.922-2.693-6.054-6.631-4.344-10.076,2.986-6.015,6.267-5.112,6.817-4.9a3.256,3.256,0,0,0,3.7-.509,3.405,3.405,0,0,0,.85-3.737c-.915-2.478-1.714-5.909-.32-8.186,1.456-2.377,4.789-2.8,4.794-2.8,3.277-.53,6.26.925,8.968,4.33.356,17.924-2.217,22.809-13.585,40.272A21.344,21.344,0,0,0,123.175,158.135Zm20.872,4.516c.569-.874,3.907-5.935,8.885-12.317.347,13.163-5.192,25.7-9.993,32.98-18.446,18.878-36.316,38.722-46.154,49.825A51.1,51.1,0,0,0,88.64,228.4C126.472,195.382,142.97,165.164,144.047,162.651ZM111.906,284.3c-5.709,26.982-36.989,43.845-56.838,29.873a30.194,30.194,0,0,1,3.2-6.609c2.507-3.658-2.864-7.477-5.5-3.916a35.706,35.706,0,0,0-4.05,8.179c-4.077-1.17-7.89-4.642-9.408-6.3-23.981-23.981-19.3-46.87-6.92-60.3C64.082,211.09,120.712,240.4,111.906,284.3Zm56.715-76.974a219.094,219.094,0,0,0-25.185,11.773C171.912,195.252,194.019,187.8,195,187.481a93.12,93.12,0,0,1,23.839-2.791,40.28,40.28,0,0,1,8.641,8.483A219.244,219.244,0,0,0,168.621,207.321Zm65.188,17.648c-6.3,3.687-14.364-4.283-14.5-4.42a3.393,3.393,0,0,0-4.578-.222c-.814.675-8.174,6.409-15.681-.008-5.884-5.03-14.3-7.551-23.146-8.172,18.2-4.509,35.177-1.565,41.982.021a3.376,3.376,0,0,0,1.532-6.575,101.777,101.777,0,0,0-14.218-2.206,195.175,195.175,0,0,1,27.739-3.869,42.05,42.05,0,0,0,10.013,7.155,9.7,9.7,0,0,1-4.988,3.525,3.414,3.414,0,0,0-1.8,4.8C236.746,216.087,239.405,221.7,233.809,224.969Zm-.331-35.05a51.609,51.609,0,0,0-3.35-4.12c17.114,2.264,28.507,1.858,30.177-9.894,4.6.705,11.09-1.368,13.826-5.757,5.161-.387,13.093.28,14.8,7.619.032,5.186-4.363,6.718-9.66,6.709a3.375,3.375,0,0,0-2.191,6.016c1.934,1.538,2.941,3.091,2.99,4.614a7.005,7.005,0,0,1-2.145,4.563C263.583,208.733,244.109,204.478,233.478,189.919Z" style="fill:#2b2b2b"/></svg>