<svg id="icons" xmlns="http://www.w3.org/2000/svg" viewBox="0 0 340 340"><title>39_kale</title><path d="M311.565,113.126s20.7,25.264.489,45.842c0,0,13.507,13.01,4.639,27.313-5.261,8.486-14.148,9.823-20.506,9.507A7.894,7.894,0,0,0,288,202.222a7.575,7.575,0,0,0,3.141,8.477c2.6,1.777,4.99,5.047,5.24,11.054.21,5.035-3.349,9.186-7.942,12.423a8.392,8.392,0,0,0-3.181,9.385c4.474,13.274-5.052,29.483-22.731,26.188a11.827,11.827,0,0,0-9.8,3.116c-5.082,4.765-15.3,10.858-30.891,4.576a5.82,5.82,0,0,0-7.567,3.248c-2.474,7-13.467,8.948-19.448,5.987a5.7,5.7,0,0,0-7.417,2.98c-1.893,4.425-5.843,9.279-14.02,8.477a27.8,27.8,0,0,1-10.469-3.12c-19.725-10.648-34.865-1.751-54.266,3.208,0,0,6.45-25.717-8.332-54.475L293.021,101.837Z" style="fill:#3e6a51"/><path d="M84.647,328.481h15.674a8.974,8.974,0,0,0,7.61-4.2c8.936-14.245,38.96-61.163,61.936-85.857H149.455S105.569,289.437,84.647,328.481Z" style="fill:#3e6a51"/><path d="M196.86,30s-2.822-12.8,10.885-16.275,22.98,10.026,22.98,10.026L233.547,54.6S204.117,61.046,196.86,30Z" style="fill:#3e6a51"/><path d="M65.128,247.361s9.973-10.966,6.606-22.75c0,0-9.764,1.683-10.1-9.764s8.753-13.467,8.753-13.467-25.25,3.367-23.23-15.487c1.01-9.427,7.107-10.892,12.578-12.457,0,0-17.522-3.03-12.693-17.17A14.474,14.474,0,0,1,61.97,146.5l-5.248-7.19c-2.131-8.35,5.127-18.053,14.366-13.562,0,0-.109-4.038,3.384-9.278a14.15,14.15,0,0,0-6.245-4.449c-4.079-3.9-7.93-10.3-3.688-18.909,0,0,3.6-9.933,12.771-7.75a22.445,22.445,0,0,1,8.376,3.879,5.492,5.492,0,1,0,5.483-9.428c-4.268-1.76-9.086-5.145-8.4-11.37C82.272,54.671,98.62,56.322,104.38,61.9c0,0-4.245-12.432,7.1-20.176,10.621-7.185,23.56,1.541,22.495,13.934.711,5.706,6.2,8.7,10.464,6.9,0,0-6.549-16.7,7.095-20.958,7.534-2.35,13.2,2.37,16.759,7.069a7.547,7.547,0,0,0,12.557-8.31c-3.012-5.213-6.108-13.534.987-18.3,6.967-4.708,22.626-2.506,24.9,13.676.716,6.253,6.317,10.144,12.394,10.359a6.969,6.969,0,0,0,7.5-.131s1.126-4.314-2.1-11.118a17.979,17.979,0,0,1-1.859-7.891c.052-4.076,1.575-9.253,7.89-12.645,11.174-5.921,22.287,2.862,23.272,13.936a8.922,8.922,0,0,0,10.082,7.894c8.134-.2,10.549-7.1,11.858-14.665a11.864,11.864,0,0,1,8.182-9.392c16.071-3.768,34.528,12.164,26.865,24.674a8.468,8.468,0,0,0,2.249,10.974c6.84,4.651,9.485,16.88,4.472,24.89L320.1,83.851a11.2,11.2,0,0,1-2.287,5.182,8.313,8.313,0,0,0-.013,10.11,14,14,0,0,1,2.463,8.709c-.073,6.11-8.1,12.075-18,8.454.993,4.257-.39,8.256-2.161,12.214a15.361,15.361,0,0,1-4.839,3.717c2.893,5.143,2.606,17.844-12.774,21.891l-15.469-2.58s9.414,12.794-.483,24.863c-3.594,4.384-9.769,5.265-16.175,4.609,8.014,16.566.363,44.3-32.01,31.391l-.345,7.915c-2.585,6.1-10.445,8.9-16.179,5.087a10.347,10.347,0,0,1-2.387-2.283c-1.559-2-6.134-7.087-10.645-4.654-6.621,3.572-3.137,10.695-.329,13.653,3.986,4.565,4.95,11.128-3.277,15.232a8.907,8.907,0,0,1-10.048-1.228c-3.582-2.838-9.633-2.859-11.484,1.32-2.741,6.188-10.5,9.843-16.408,8.069-4.795-1.435-12.971-3.854-13.977,1.195-1.459.96-3.663,1.88-7.948,2.249-6.327.546-11.816-1.965-15.932-4.882A12.416,12.416,0,0,0,90.084,261.4c-2.421,12.27-12.516,18.924-26.784,17.88Z" style="fill:#80b297"/><path d="M19.065,328.481H32.246A11.849,11.849,0,0,0,42.9,321.813c12.4-25.477,60.372-118.9,130.48-191.724C173.382,130.089,76.418,202,19.065,328.481Z" style="fill:#3e6a51"/><path d="M321.481,72.629c4.3-9,1.948-21.73-6.287-27.635-4.565-3.743-.1-7.354.526-11.38,3.252-13.338-14.951-29.093-32.746-24.856a15.382,15.382,0,0,0-10.612,12.116,34.261,34.261,0,0,1-2.205,7.749c-1.252,3.035-4.536,4.364-7.689,4.05a5.226,5.226,0,0,1-5.213-5.013c-1.4-15.935-19.791-24.75-32.047-13.853-8.99-6.655-23.732-4.795-29.195,3.683-15.993-5.01-28.467,8.188-18.16,24.594,2.428,4.283-3.766,8.471-6.8,4.487-12.409-17.45-35.539-7.48-31.206,12.1-3.449-.769-2.094-5.168-2.705-7.614a17.617,17.617,0,0,0-10.315-13.842c-13.173-6.008-26.742,6.361-26.679,18.305C88.482,51.539,78.823,57.494,79.3,68.37c-.574,6.406,3.163,11.6,10.553,14.646,2.7,1.3.207,5.207-2.081,3.461-11.056-8.224-22.181-5.512-26.415,5.271a18.223,18.223,0,0,0-1.17,14.313c1.949,5.625,6.48,9.516,9.6,11.638a23.356,23.356,0,0,0-1.429,3.656C55.947,119.25,49.2,135.422,54.94,143.94c-14.055,5.242-16.471,22.847-4.547,29.55-3.235,2.15-6,5.688-6.68,12.034-1.563,11.4,6.965,18.16,16.942,19.189-4.97,7.854-2.774,22.583,8.23,23.364C69.4,235.2,66.217,240,62.65,244.935a531.162,531.162,0,0,0-46.738,82.116,3.462,3.462,0,0,0,3.153,4.892H39.728a3.462,3.462,0,0,0,3.15-2.024c.209-.458,8.889-19.295,24.522-47.114,13.708-.432,23.371-7.919,25.989-20.315a8.878,8.878,0,0,1,8.171-7.217,83.944,83.944,0,0,1,4.927,32.5c-9.266,12.985-18.21,26.6-24.892,39.07a3.487,3.487,0,0,0,3.052,5.1h20.667a3.461,3.461,0,0,0,2.951-1.652c.156-.253,9.732-15.825,22.609-34.852a37.834,37.834,0,0,1,30.409,2.628c11.911,6.293,25.816,4.964,30.1-9.2,8.815,5.4,24.429,2.426,26.86-9.2,22.051,10.2,35.285-2.069,39.64-7.292,24.9,7.111,37.778-16.33,29.359-33.32,10.656-6.232,12.793-12.829,12.6-17.439-.245-7.316-3.652-12.966-9.755-15.359a20.409,20.409,0,0,0,2.079-7.345c24.883,4.381,40.341-20.458,24.551-39.927,12.93-15.476,6.681-32.644,1.812-41.493,6.827-4.768,6.266-14.681,2.061-20.39a4.854,4.854,0,0,1-.059-5.921C325.979,84.253,323.209,76.218,321.481,72.629ZM208.6,17.084a15.435,15.435,0,0,1,12.359,2.22c-2.562,5.3-2.216,11.5.446,17.021a19.507,19.507,0,0,1,1.909,6.42c-5.7.339-12.318-1.026-13.142-7.442A21.812,21.812,0,0,0,202.3,20.65,11.671,11.671,0,0,1,208.6,17.084ZM37.528,325.019H24.47c27.767-59.48,67.774-113.33,110.116-155.657-5.306,6.7-10.439,13.38-15.387,20.114C92.68,222.485,42.131,311.9,37.528,325.019Zm58.924-75.635a15.762,15.762,0,0,0-9.835,11.66c-1.652,7.822-6.991,12.854-15.024,14.383,23.328-41.068,35.79-62.556,73.373-65.845,4.523-.07,4.564-6.82.022-6.925-1.637,0-17.271.236-34.219,10.539q6.961-10.078,14.531-20.335c15.756-18.58,43.96-16.258,44.25-16.231a3.462,3.462,0,0,0,.64-6.895,71.664,71.664,0,0,0-30.94,4.89c7.911-9.993,16.224-19.907,24.912-29.548,17.875-12.956,51.133-2.612,51.469-2.5a3.462,3.462,0,0,0,2.1-6.6c-1.172-.374-22.932-7.156-42.286-3.034,1.384-1.436,15.811-15.355,39.3-31.891,11.89-6.994,27.117-5.564,35.175-4.072a3.462,3.462,0,1,0,1.261-6.808,77.251,77.251,0,0,0-17.747-1.245A250.412,250.412,0,0,1,257.1,76.354c4.088-1.962,1.279-8.129-2.9-6.289-22.767,10.6-42.234,23.7-60.594,38.081,2.4-13.38-4.163-24.687-4.534-25.309a3.462,3.462,0,0,0-5.955,3.532c.393.668,9.44,16.447-.729,30.979-6.416,5.48-10.423,9.294-11.261,10.1-1.012.763-6.341,4.834-14.619,12,2.7-16.244-5.173-29.753-5.6-30.462a3.462,3.462,0,0,0-5.95,3.542c.109.184,10.659,18.459,1.153,36.192-9.346,8.536-22.351,21.33-33.914,34.021,2.247-13.244-1.915-22.665-2.165-23.214a3.463,3.463,0,0,0-6.305,2.865c.289.645,6.908,15.97-4.148,34.61-7.618,8.9-15.675,18.84-23.884,29.8-.229-2.614-1.161-6.1-4.521-5.606-3.2.472-6.159-1.536-6.086-6.447-.241-8.176,5.437-9.834,6.044-9.986,4.248-1,3.112-7.319-1.2-6.812-6.192.814-21.268.07-19.336-11.686.732-6.834,4.456-7.894,9.61-9.361,4.711-1.428,13.494,1.43,14.566,11.52.285,4.551,7.051,4.226,6.917-.316-.969-13.256-12.887-19.979-21.919-18.2-5.143-1.124-12.505-5.1-9.425-12.618A10.834,10.834,0,0,1,61.7,149.959a9.347,9.347,0,0,1,6.633,5.264,13.035,13.035,0,0,0,11.525,7.025c2.359.256,4.8-1.348,4.468-3.923a3.46,3.46,0,0,0-3.841-3.037,6.16,6.16,0,0,1-5.963-3.171,16.351,16.351,0,0,0-11.175-8.884c-1.629-1.27-5.884-5.457-1.918-12.178a5.55,5.55,0,0,1,6.244-2.8c.531,4.7,3.466,11.2,12.267,13.7,3.929,1.117,6.41,3.337,7.374,6.6a3.462,3.462,0,1,0,6.64-1.963c-1.156-3.91-4.2-9.043-12.12-11.295-15.263-4.6-4.588-25.467,12.723-26.769a10.43,10.43,0,0,1,7.86,2.5c-6.967,11.532-2.9,21.272,8.046,25.817,4.047,1.346,4.732,4.595,3.569,7.083-1.89,4.056,4.145,7.095,6.229,3.023,2.66-5.21,1.155-13.626-7.283-16.558-8.368-3.307-9-10.474-3.356-17.593,4.479-5.768,3.231-14.041,1.709-21.343-2.829-11.621,7.032-14.667,12.8-14.784a3.463,3.463,0,0,0,0-6.925c-.442,0-10.9.081-16.619,7.117-7.217,8.471-.783,18.581-1.889,27.9-10.7-7.854-26.788.329-31.992,7.181-5.536-3.5-9.971-10.412-5.846-17.634.27-.719,2.819-6.984,8.721-5.58,5.293.79,8.685,6.221,14.248,4.9,8.514-1.609,9.782-13.773,1.732-17.022-6.826-2.815-6.414-6.56-6.279-7.79.068-1.6-.457-6.5,4.961-7.423a13.57,13.57,0,0,1,10.762,2.943,3.475,3.475,0,0,0,5.724-3.567c-.033-.1-3.289-10.01,5.776-16.2,6.391-4.645,16.043-.5,16.848,7.419-.068,8.731,2.947,13.7,12.286,13.994,4.273,6.154,16.57,10.175,25.558,5.03,3.364-1.713,6.445-1.187,9.415,1.606a3.451,3.451,0,0,0,2.371.94,3.486,3.486,0,0,0,2.372-5.985c-5.058-4.758-11.363-5.755-17.3-2.732-6.662,3.917-15.625-.088-17.372-3.7C145.918,56.774,144.7,46.8,152.566,44.9c4.576-1.43,8.94.541,12.967,5.854a10.947,10.947,0,0,0,7.955,4.3c8.548.813,14.824-9.1,10.36-16.437-3.8-6.571-3.824-11.177-.081-13.69,1.984-1.331,6.342-3.045,13.186.4.219.12,5.371,3.023,6.346,10.831,1.259,9.794,10.322,14.054,19.536,13.514a11.771,11.771,0,0,1-9.171,9.111A3.462,3.462,0,0,0,215.37,65.5C227.5,62.414,230.3,51.8,230.109,46.2c.277-1.673.625-6.361-2.451-12.845-2.942-5.977-1.738-12.864,4.542-16,8.168-4.627,17.532,2.177,18.186,11.209A12.291,12.291,0,0,0,263.916,39.6,13.713,13.713,0,0,0,276.5,31.392a41.168,41.168,0,0,0,2.68-9.328,8.41,8.41,0,0,1,5.751-6.665c13.095-2.941,28.934,10,22.9,19.6a11.991,11.991,0,0,0,3.11,15.459c5.958,4.126,7.357,14.068,3.777,20.119a10.111,10.111,0,0,1-10.347,2.588c-5.756-1.683-5.2-6.044-4.888-7.35a3.462,3.462,0,0,0-6.7-1.735c-1.27,4.818.251,12.984,9.648,15.731a17.129,17.129,0,0,0,13.806-1.685c.766,2.526,1.091,5.924-1.144,8.763a11.707,11.707,0,0,0-.084,14.3,10.767,10.767,0,0,1,1.793,6.621c-.517,5.094-7.12,7.138-11.984,5.669-2.384-4.968-8.049-11.734-16.649-9.643s-10.32,8.046-10.029,10.9l6.889-.7a.732.732,0,0,1,.011.142c0-.25.122-2.484,4.766-3.614,5.965-1.453,9.08,6.6,9.208,6.934.288.827,2.407,7.7-5.326,11.655a3.488,3.488,0,0,0-1.506,4.662c.435.865,4,8.618-4.632,14.369a17.306,17.306,0,0,1-18.359.635,10.192,10.192,0,0,0-1.136-.983c6.384-5.643,6.563-14.984,5.435-20.086a3.462,3.462,0,0,0-6.764,1.482c.108.5,2.5,12.261-6.912,15.452a14.173,14.173,0,0,0-13.96,8.722c-1.028,2.5-3.261,3.842-6.825,4.109-2.6.193-5.136-.284-6.028-5.064-.905-4.458-7.57-3.217-6.807,1.271,2.04,14.45,21.486,13.524,26.063,2.32,1.788-4.766,8.674-5.994,12.093-2.273,1,1.483,7.062,11.238-.489,20.446-2.363,2.881-6.788,4.011-13.145,3.36a3.463,3.463,0,0,0-3.432,5.028c.076.147,7.445,14.847-3.08,26.215-4.35,4.7-16.378,4-24.45.426-3.727-1.35-6.715-7.253-1.2-12.242,6.356-5.1,3.916-15.892-4.055-17.674a28.039,28.039,0,0,0-4.45-.733c-1.865-.111-1.865-2.261-1.865-2.967,0-2.959,2.042-3.612,2.864-3.747,4.5-.643,3.651-7.372-.872-6.87a10.3,10.3,0,0,0-8.916,10.616c0,5.182,2.675,7.6,4.269,8.577,3.462,2.4,8.545.2,9.674,4.228a3.266,3.266,0,0,1-1.115,3.279,14.9,14.9,0,0,0-4.361,5.956c-3.236,8.252,1.131,14.317,5.589,17.051,1.3,6.185-6.436,11.4-11.573,7.811A6.855,6.855,0,0,1,202.17,221c-4.824-6.151-10.534-8.223-15.366-5.371a25.487,25.487,0,0,1,2.549-7.949,3.463,3.463,0,0,0-6.181-3.123c-3.021,4.841-6.792,20.179,2.784,29.956,2.556,3.145,3.611,6.789-2.282,9.735a5.463,5.463,0,0,1-6.383-.829c-5.033-4.168-14.057-3.76-16.8,2.632a11.318,11.318,0,0,1-14.424,5.535c-1.279-.649-3-2.141-3.736-5.567a14.45,14.45,0,0,0-14.292-11.394c-2.872-.03-7.079.573-6.429,4.459a3.467,3.467,0,0,0,4.063,2.732c4.271-1.142,8.974,1.156,9.886,5.65a18.7,18.7,0,0,0,.982,3.2c-4.986,1.565-3.94,4.372-11.514,4.851C113.272,256.8,109.275,244.6,96.452,249.384Zm29.017,13.037c-3.9,5-8,10.358-12.131,15.935a91.3,91.3,0,0,0-3.441-19.832A26.13,26.13,0,0,0,125.469,262.421Zm-22.083,62.6H90.519c13.062-23.142,32.927-48.728,47.475-67.474.864-.352,2.28-.341,5.792.59a21.231,21.231,0,0,0,4.376,1.117C128.1,285.662,108.073,317.486,103.386,325.019Zm206.2-168.476a3.481,3.481,0,0,0,.069,4.919c13.416,13.015,5.093,35.261-18.11,30.272a12.088,12.088,0,0,0-7.783-8.174c-4.4-1.137-6.272,5.362-1.9,6.658.276.067,2.824,1.088,3.382,4.927.879,4.725-1.814,14.514-13.625,14.878-4.543.07-4.555,6.851,0,6.925a22.17,22.17,0,0,0,13.7-4.84c2.406.263,7.275,1.779,7.607,9.789.226,5.431-6.4,9.9-12,12.7a3.474,3.474,0,0,0-1.276,5.1c.335.476,8.1,11.8-1.58,22.663-5.093,5.713-14,4.643-20.577,2.741a3.46,3.46,0,0,0-3.914,1.517c-.474.774-11.8,18.609-36.141,4.829-1.713-2.346-1.172-5.6,1.823-7.68,2.179-1.7,7.263-1.545,13.952.441,8.078,2.734,17.176-5.055,15.41-13.4,9.743-3.924,12.008-15.248,12.11-15.787.761-4.469-5.854-5.735-6.8-1.3-.082.411-2.085,10.082-10.377,11.34-6.255.954-8.357-3.1-8.582-3.6-1.858-4.115-8.055-1.479-6.366,2.722a14.11,14.11,0,0,0,13.219,7.944,5.117,5.117,0,0,1-6.642,5.442c-9.255-2.747-16.049-2.5-20.189.744a12.2,12.2,0,0,0-3.243,17.094c.1,1.828-.2,6.712-6.2,8.545-8.06,2.464-13.721-3.155-13.943-3.38-.955-.933-8.805-8.489-16.049-5.676-4.2,1.739-1.732,8.038,2.539,6.442,1.711-.677,4.966,1.083,7.322,2.987-2.069,11.648-11.158,12.514-20.872,7.633a44.874,44.874,0,0,0-27.857-5.008c6.789-9.848,14.247-20.026,21.438-29.322a18.09,18.09,0,0,0,8.7-8.773,1.97,1.97,0,0,1,1.5-1.135,5.818,5.818,0,0,1,4.665,1.126,12.4,12.4,0,0,0,13.714,1.628c12.154-6.348,8.631-16.315,3.247-22.034-1.451-2.6-2.765-5.057.488-6.917,3.578-1.258,6.607,5.2,9.47,6.773,8.56,6.019,21.705-.4,22.353-10.849,9.018,2.485,20.919,2.666,27.021-3.923,9.5-10.257,8.07-22.191,6.134-28.877,15.244.056,21.611-16.016,18.208-26.953,14.482,3.055,30.35-9.809,25.894-23.992a15.734,15.734,0,0,0,6.9-12.916,18.321,18.321,0,0,0,5.824-.364C317.159,129.083,322.094,143.8,309.584,156.543Z" style="fill:#2b2b2b"/></svg>