<svg id="icons" xmlns="http://www.w3.org/2000/svg" viewBox="0 0 340 340"><title>3_cabbage</title><path d="M109.493,64.256s15.983-21.9,46.312-30.795a14.765,14.765,0,0,1,13.854,3.1l8.149,7.131s26.286-11.948,47.261,8.4a38.677,38.677,0,0,0,11.651,7.847c10.09,4.325,27.518,15.646,23,41.266l-62.39,30.323Z" style="fill:#719b56"/><path d="M71.455,199.487S10.86,105.841,99.173,41.541a20.257,20.257,0,0,1,27.173,3.007,51.938,51.938,0,0,1,6.571,9.446,23.61,23.61,0,0,0,19.838,12.533c10.893.44,26.142,6.343,34.871,23.206L95.433,199.778A151.3,151.3,0,0,1,71.455,199.487Z" style="fill:#a9db89"/><path d="M123.977,74.3c-.39.462-6.378,7.708-11.053,21.924a47.311,47.311,0,0,0-7.043-8.66c-6.119-6.173-4.555-12.982-4.469-13.333a3.463,3.463,0,0,0-6.7-1.767C90.86,93.258,112.415,93.484,109,112.4a124.955,124.955,0,0,0-1.508,14.9,3.463,3.463,0,0,0,6.919.292c1.36-32.282,14.683-48.621,14.857-48.831C132.131,75.253,126.982,70.869,123.977,74.3Z" style="fill:#f6fcde"/><path d="M124.636,141.289s-8.932-47.8-52.831-50.646a37.076,37.076,0,0,1-11.343-4.1C34.419,142.245,71.455,199.487,71.455,199.487a151.3,151.3,0,0,0,23.978.291l27.528-32.859Z" style="fill:#719b56"/><path d="M138.083,118.409c-14.31,8-39.765,29.41-42.651,81.363,88.385-6.072,128.887-90.711,128.887-90.711-15.126-3.708-27.891-4.42-36.693-19.328-7.022-.611-22.228.188-34.3,15.671A50.528,50.528,0,0,1,138.083,118.409Z" style="fill:#719b56"/><path d="M131.309,259.341,124.9,153.388a57.965,57.965,0,0,1,25.556-26.43,33.555,33.555,0,0,0,12.875-12.6c4.943-8.3,16.108-19.446,40.055-17.656a33.711,33.711,0,0,0,19.858-4.63c11.228-6.713,31.7-15.063,52.745-4.107A37.335,37.335,0,0,1,294.314,108.5S249.724,268.814,131.309,259.341Z" style="fill:#a9db89"/><path d="M223.015,116.974a3.462,3.462,0,0,0-3.521,3.4c0,.3-.63,30.239-10.707,58.008a3.462,3.462,0,1,0,6.509,2.362c10.484-28.89,11.1-58.987,11.122-60.254A3.462,3.462,0,0,0,223.015,116.974Z" style="fill:#f6fcde"/><path d="M175.819,160.08a3.462,3.462,0,0,0-6.767-1.467c-.246,1.13-5.806,27.929,13.358,49.033a3.462,3.462,0,1,0,5.125-4.655C170.822,184.585,175.768,160.322,175.819,160.08Z" style="fill:#f6fcde"/><path d="M294.938,145.231s5.882-19.275-.595-36.655c-13.415,1.593-37.25,9.443-53.05,45.019a18.293,18.293,0,0,1-11.787,10.269,73.41,73.41,0,0,0-46.187,38.06,30.911,30.911,0,0,1-15.566,14.443c-10.8,4.569-27.164,15.544-37.029,41.521.369.938.585,1.453.585,1.453C249.724,268.814,294.938,145.231,294.938,145.231Z" style="fill:#719b56"/><path d="M152.016,183.187a33.207,33.207,0,0,0-12.425-9.871,25.665,25.665,0,0,1-14.683-19.925c-20.451,42.246,6.4,105.95,6.4,105.95a159.084,159.084,0,0,0,16.3.477c4.918-5.352,8.285-9.268,8.285-9.268C170.125,216.185,160.179,194.074,152.016,183.187Z" style="fill:#719b56"/><path d="M157.928,306.845s119.49,7.274,157.357-115.266c6.054-19.728,7.887-40.479,3.7-60.842a14.282,14.282,0,0,0-16.333-11.032c-14.6,2.692-38.287,11.979-51.843,43.29a26.121,26.121,0,0,1-15.058,14.2c-12.266,4.436-31.618,14.556-41.013,36a25.98,25.98,0,0,1-19.113,15.1c-16.352,2.983-40.567,13.36-42.267,48.558C133.354,276.858,137.434,299.227,157.928,306.845Z" style="fill:#a9db89"/><path d="M133.354,276.858a37.877,37.877,0,0,0,1.688,5.74c3.875,10.455,19.334,7.336,18.909-3.806-.749-19.658.536-45.656,21.67-50.492C148.075,231.074,134.844,246.021,133.354,276.858Z" style="fill:#719b56"/><path d="M43.089,83.333a40.47,40.47,0,0,1,12.566,9.2A23.75,23.75,0,0,0,69.064,99.86c13.5,2.362,38.985,12.93,43.9,58.7a31.636,31.636,0,0,0,15.122,23.6c12.565,7.673,27.293,26.157,16.486,70.176-5.192,21.149,1.48,39.369,13.359,54.513,0,0-90.621,6.157-124.277-91.626-22.612-65.7-13.564-107.262-6.864-125.176A12,12,0,0,1,43.089,83.333Z" style="fill:#a9db89"/><path d="M76.737,140.1a3.524,3.524,0,0,1-7.047,0A3.524,3.524,0,0,1,76.737,140.1Z" style="fill:#f6fcde"/><path d="M132.549,303.676c-6.312-3.492-14.368-11.083-19.136-16.464-1.021-2.5-6.183-16.33-.842-28.941,6.819-16.1,5.779-29.517,5.732-30.081a3.463,3.463,0,0,0-6.9.576,63.353,63.353,0,0,1-5.207,26.8,39.72,39.72,0,0,0-2.879,17.695,144.454,144.454,0,0,1-12.77-28.637c-4.885-15.2-12.873-30.007-22.382-43.677-.594-2.129-3.084-12.546,2.68-19.638,12.061-14.839,9.38-26.764,9.259-27.264a3.442,3.442,0,0,0-4.13-2.548,3.48,3.48,0,0,0-2.612,4.125c.081.375,1.863,9.319-7.891,21.319A23.517,23.517,0,0,0,60.609,188C38.261,145.538,34.4,95.611,33.809,84.874l-6.79,2.748c1.066,16.917,6.91,75.73,37.793,120.8a153.671,153.671,0,0,1,17.476,33.561c-10.2-7.943-22.931-12.686-31.35-15.184a56.886,56.886,0,0,1-14.617-6.4l4.248,10.012a75.324,75.324,0,0,0,8.4,3.024c50.816,15.489,33.69,35.037,67.2,66.679,4.718,1.388,11.084,3.133,17.454,4.488A3.434,3.434,0,0,0,132.549,303.676Z" style="fill:#f6fcde"/><path d="M272.854,211.584a22.11,22.11,0,0,1,12.374-8.122,81.149,81.149,0,0,0,30.621-15.408c1.27-4.426,2.213-8.323,2.906-11.536-6.974,5.83-17.9,15.987-35.126,20.205A254.385,254.385,0,0,0,306.667,153.6a3.529,3.529,0,0,0-1.18-4.27,3.466,3.466,0,0,0-5.171,1.51c-17.948,42.907-42.934,71.157-64.735,89.177,9.625-23.3,1.122-50.356-3.12-61.208l-6.3,3.023c4.891,12.99,15.478,49.015-7.427,70.7-15.99,10.691-29.61,25.049-40.482,42.688a32.676,32.676,0,0,1-8.939,9.74,3.443,3.443,0,0,0-1.195.747c4.057-.178,8-.477,11.845-.871,5.856-8.213,12.168-18.647,18.936-25.852a30.24,30.24,0,0,1,18.713-8.828c31.5-2.964,54.624-13.175,66.3-19.476,2.93-3.623,5.632-7.3,8.123-10.988a3.453,3.453,0,0,0-3.6.218c.369.108-30.656,20.186-72.958,23.525C234.958,249.708,252.509,237.427,272.854,211.584Z" style="fill:#f6fcde"/><path d="M107.131,300.918c96.5,35.7,217.367-29.931,217.363-154.72a107.934,107.934,0,0,0-2.128-16.187,17.863,17.863,0,0,0-22.333-13.31c-2.731-20.226-19.424-34.541-38.484-36.99-4.975-13.293-16.735-20.071-23.465-22.957a35.1,35.1,0,0,1-10.6-7.149c-18.828-18.265-41.9-12.327-48.954-9.887l-6.586-5.762a18.129,18.129,0,0,0-17.108-3.818,96.887,96.887,0,0,0-25.937,12.07,23.843,23.843,0,0,0-31.759-3.465C77.848,52.785,64.045,69.339,56.025,88-8.406,30,.726,270.276,107.131,300.918ZM303.276,123.11a10.76,10.76,0,0,1,12.32,8.353C332.21,226.1,243.651,307.823,159.7,303.44c-14.837-19.109-15.752-38.1-9.9-58.942,8.208-8.061,18.873-11.411,26.443-12.792a29.359,29.359,0,0,0,21.664-17.119c9.07-20.707,28.339-30.277,39.018-34.138a29.684,29.684,0,0,0,17.059-16.078C266.493,135.472,287.694,125.983,303.276,123.11Zm-9.965-4.618c-14.41,4.6-33.859,15.814-45.683,43.127a22.729,22.729,0,0,1-13.059,12.318c-11.723,4.239-32.9,14.8-43.006,37.872A22.445,22.445,0,0,1,175,224.894a61.556,61.556,0,0,0-23.726,9.452c3.3-32.189-9.195-47.7-21.387-55.145a29,29,0,0,1-7.539-6.617c3.716-19.7,13.71-34.023,29.739-42.571a37.074,37.074,0,0,0,14.22-13.887c4.873-8.179,15.215-17.588,36.823-15.975a37.033,37.033,0,0,0,21.893-5.111C245.622,80.824,287.505,81.37,293.311,118.492ZM156.779,36.784a11.23,11.23,0,0,1,10.6,2.383l8.15,7.131a3.472,3.472,0,0,0,3.705.549c.989-.444,24.457-10.671,43.424,7.729a42,42,0,0,0,12.7,8.542c6.263,2.686,14.143,7.584,18.456,16.1-13.49.183-25.179,5.59-32.342,9.874a30.156,30.156,0,0,1-17.824,4.149,66.147,66.147,0,0,0-9.168-.073,31.1,31.1,0,0,1-4.718-6.726C180.2,67.968,164.433,63.534,152.9,63.067c-10.641-.619-14.865-6.824-19.767-15.362A89.833,89.833,0,0,1,156.779,36.784ZM101.211,44.34a16.874,16.874,0,0,1,22.523,2.48,48.506,48.506,0,0,1,6.134,8.815,26.9,26.9,0,0,0,22.747,14.351c17.359.578,26.121,9.878,33.857,24.3-14.822,3.254-22.5,12.237-26.113,18.3a30.16,30.16,0,0,1-11.53,11.321c-15.7,8.374-26.222,21.608-31.381,39.389C112.8,115.509,88.424,99.059,69.66,96.45a20.155,20.155,0,0,1-8.214-3.427C68.8,74.589,82.155,58.215,101.211,44.34ZM36.927,214.091C14.893,150.08,23.148,109.655,30.03,91.256c5.214-11.443,17.4-2.5,23.076,3.615a27.392,27.392,0,0,0,15.362,8.4c13.351,2.336,36.437,12.672,41.05,55.658a34.92,34.92,0,0,0,16.76,26.183c12.389,7.565,25.037,25.225,14.929,66.4-4.413,17.976-1.072,35.4,9.927,51.868C101.823,302.38,53.225,267.439,36.927,214.091Z" style="fill:#2b2b2b"/></svg>