<svg id="icons" xmlns="http://www.w3.org/2000/svg" viewBox="0 0 340 340"><title>40_fennel</title><path d="M164.829,225.564l28.691,14.411,9.687-45.048C224.452,119.1,222.175,39.242,220.929,15.945a7.122,7.122,0,0,0-7.12-6.739H200.246S211.342,149.826,164.829,225.564Z" style="fill:#a9db89"/><path d="M198.14,209.423a104.2,104.2,0,0,1-8.1,16.381c-3.595,6.375-9.074,5.662-11.6-.329-2.835-2.259-6.656-5.1-11.7-8.486a74.452,74.452,0,0,1-10.457-8.469,7.355,7.355,0,0,0-11.33,1.306,172.838,172.838,0,0,0-25.7,72.453,48.951,48.951,0,0,0,8.713,28.179,20.05,20.05,0,0,1,9.526,9.63c13.113,10.871,42.664,13.1,61.581,8.317,27.6-17.85,38.441-47.63,23.938-95.464C216.372,218.339,208.434,209.057,198.14,209.423Z" style="fill:#f3f7e2"/><path d="M85.883,23.187c15.777,27.919,57.229,109.747,56.278,197.322l-26.38-79.2s-21.022-73.66-54.7-116.4c0,0,3.537-2.718,8.153-5.749A11.725,11.725,0,0,1,85.883,23.187Z" style="fill:#719b56"/><path d="M63.029,59.359c6.725,2.841,132.661,147.5,56.225,222.92,14.041-78.852-5.305-133.513-57.346-195.376a10.5,10.5,0,0,1-2.386-7.422A104.158,104.158,0,0,1,63.029,59.359Z" style="fill:#a9db89"/><path d="M201.252,275.2a3.523,3.523,0,0,1,1.438,6.9A3.523,3.523,0,0,1,201.252,275.2Z" style="fill:#c6ccaa"/><path d="M150.731,326.9a71.929,71.929,0,0,0,18,3.564c10.384-6.363,20.752-18.226,28.156-33.376a3.332,3.332,0,0,0-5.5-3.674C181.379,305.015,166.579,319.686,150.731,326.9Z" style="fill:#c6ccaa"/><path d="M220.812,213.45l-17.605-18.523s-1.871,6.552-5.067,14.5c20.408,23.448,32.572,79.372.933,118.979,24.258-6.171,38.9-20.15,39.008-43.311a218.6,218.6,0,0,1,2.236-37.442Z" style="fill:#c6ccaa"/><path d="M280.065,13.061l-11.689,8.113a9.307,9.307,0,0,0-4.006,7.847c.418,19.489-1.123,94.468-43.558,184.429,0,0-5.851,25.31,19.5,34.2C243,220.45,287.451,121.385,280.065,13.061Z" style="fill:#719b56"/><path d="M179.849,241.548A128.755,128.755,0,0,0,190.037,225.8h0a6.321,6.321,0,0,1-9.405,1.469c-.652-.549-1.392-1.153-2.2-1.8-9.556,14.881-21.549,25.812-29.881,35.279-18.3,21.728-20.821,40.185-20.583,49.7a42.605,42.605,0,0,0,9.525,9.631c-1.865-13.052,3.795-35.724,21.053-54.285C163,261.013,172.787,251.465,179.849,241.548Z" style="fill:#c6ccaa"/><path d="M283.509,12.7a3.487,3.487,0,0,0-5.418-2.486L262.2,21.243a3.467,3.467,0,0,0-1.479,3.092,210.177,210.177,0,0,1-.1,21.1c-.431,2.785-2.733,14.292-12.184,22.374a3.461,3.461,0,0,0-.381,4.881c3.991,4.155,8.665-3.658,10.965-6.139-.518,4.951-1.175,10.28-2,15.939A25.2,25.2,0,0,0,242.464,90.8c-.566-21.992-.916-39.991-1.077-48.888-.613-9.275,7.584-16.469,12.492-19.908,3.7-2.641-.147-8.226-3.939-5.695-7.048,4.879-16.073,13.858-15.475,25.728.2,11.161.7,36.628,1.549,66.346a22.2,22.2,0,0,0-2.813-2.169c-3.861-2.405-7.542,3.274-3.761,5.814a15.314,15.314,0,0,1,7.064,12.685c.148,10.216.8,8.73.28,24.883a21.489,21.489,0,0,0-5.952-6.16c-3.821-2.468-7.6,3.142-3.861,5.748,16.947,12.1-.148,41.47-7.153,58.195l-12.755-13.421a480.971,480.971,0,0,0,12.856-65.426l1.749,1.876c3.162,3.277,8.111-1.341,5.066-4.721l-5.726-6.144c6.883-60.689,3-109.936,2.942-110.623A3.462,3.462,0,0,0,220.5,5.744H200.246A3.462,3.462,0,0,0,196.8,9.478c.085,1.086,6.8,91.034-14.1,164.662a117.529,117.529,0,0,0-8.262-28.981c-5.1-16.107.588-32.588,8.188-39.917,3.251-3.157-1.366-8.1-4.741-5.046a40.858,40.858,0,0,0-8.543,12.955,25.484,25.484,0,0,1-2.6-12.069c.1-4.55-6.662-4.8-6.919-.263a31.82,31.82,0,0,0,6.8,20.838A47.918,47.918,0,0,0,165.552,132a57.279,57.279,0,0,1-12.179-24.143c.044-3.8.044-7.951.006-12.337a12.24,12.24,0,0,1,2.937-9.059c7.284-8.3,7.957-20.993,7.982-21.53a3.462,3.462,0,0,0-6.916-.329c0,.093-.46,8.172-4.274,14.527-.226-9.779-.556-19.87-.9-29.141.626-3.882,3.94-12.911,10.311-13.942,2.406,2.746,10.624,7.03,17.847,5.849,4.513-.554,3.815-7.277-.725-6.886a15.537,15.537,0,0,1-10.287-2.368,21.425,21.425,0,0,0,6.7-7.248c1.921-4.078-4.063-7.061-6.194-3.094-.112.215-2.828,5.3-10.45,7.481a15.951,15.951,0,0,0-7.8,5.237c-.425-10.127-1.041-22.5-1.029-22.14-.314-4.544-7.074-4.189-6.915.361.006.114.1,1.988.258,5.182a33.133,33.133,0,0,0-9.175-6.943c-4.154-1.855-7.022,4.279-2.929,6.275.1.048,10.144,4.855,12.8,15.842.229,5.289.475,11.308.713,17.694-4.408-4.03-16.985-9.8-17.836-3.028a3.469,3.469,0,0,0,3.141,3.749c.543.049,13.246,1.364,15.2,14.206.137,4.476.261,8.989.362,13.432a31.242,31.242,0,0,0-14.346-9.824,3.462,3.462,0,0,0-1.856,6.67c.536.155,13.1,3.935,16.466,19.376.022,2.734.03,5.372.02,7.888a29.52,29.52,0,0,0-8.947-7.93c-4.06-2-7.155,3.969-3.188,6.147.4.213,9.843,5.361,11.791,18.4a165.61,165.61,0,0,0,2.581,31.421,50.8,50.8,0,0,0-11.183-8.952c-1.716-7.311-3.6-14.4-5.6-21.232l2.147,1.38c3.853,2.4,7.538-3.294,3.742-5.827l-9.031-5.8C124.382,97.6,119.638,85.128,115.145,74.4,99.252,36.45,82.956,11.412,82.793,11.164a3.465,3.465,0,0,0-4.34-1.25C69.79,13.886,59.407,21.833,58.969,22.17a3.463,3.463,0,0,0-.609,4.888C72.4,44.872,84.239,68.141,93.366,89.545A333.38,333.38,0,0,0,65.458,56.893a3.462,3.462,0,0,0-5.767,1.546A98.079,98.079,0,0,0,55.9,83.915a3.456,3.456,0,0,0,.815,2.169C65.5,96.5,73.528,106.961,80.741,117.368v13.123c.077,4.551,6.847,4.551,6.924,0v-2.757a238.291,238.291,0,0,1,12.687,21.845C89.5,138.821,72.51,136.007,65.616,137.557c-4.437.9-3.236,7.522,1.241,6.812.784-.137,12.056-1.908,24.212,6.525-3.1,1-10.89,4.526-7.233,9.007a3.462,3.462,0,0,0,4.895.114c2.945-2.813,7.16-3.252,9.139-3.291,27.969,31.358,24.01,85,17.927,125.374-.343,29.674,22.37,53.014,61.065,52.134,34.884.014,64.264-15.148,64.681-49.227C237.538,216.035,290.254,151.377,283.509,12.7ZM255.882,89.948a448.452,448.452,0,0,1-11.954,52.713c-.185-14.205-.695-20.758-.965-33.6C242.647,100.44,247.737,92.523,255.882,89.948Zm-52.176-4.922a632.383,632.383,0,0,0,.236-72.358h13.324c.862,16.525,6.329,149.051-32.019,214.036a129.378,129.378,0,0,0-11.847-9.322C193.965,177.875,201.416,123.447,203.706,85.026Zm-50.5,84.874c3.947,7.7,6.934,16.676,8.177,28.9a3.462,3.462,0,1,0,6.89-.684c-1.341-12.5-5.172-20.115-.31-30.51,1.859-4.145-4.272-7.032-6.272-2.936a30.75,30.75,0,0,0-1.462,3.8c-1.882-4.367-6.279-18.637-7.141-42.276a60.413,60.413,0,0,0,8.236,11.478c10.538,11.944,16.3,35.63,15.254,55.265a191.332,191.332,0,0,1-8.915,20.474c-7.213-4.35-11.809-13.819-21.347-9.288a326.927,326.927,0,0,0-6.579-51.3A55.61,55.61,0,0,1,153.208,169.9ZM65.981,25.605a120.844,120.844,0,0,1,12.648-8.048C86.517,30.4,120.8,89.16,134.242,160.774a270,270,0,0,0-23.887-46.754C101.032,87.8,85.738,51.945,65.981,25.605Zm21.128,88.8q-10.943-15.89-24.273-31.8a93.507,93.507,0,0,1,2.063-16.3c38.119,39.722,106.026,141.681,59.3,205.445C133.637,214.743,121.006,160.825,87.109,114.4Zm35.6,169.273c20.11-19.033,24.708-43.378,23.873-69.946,1.438-3.012,4.265-5.361,7.292-2.718a77.793,77.793,0,0,0,10.93,8.851A136.076,136.076,0,0,1,180.992,232.2c-4.628,6.37-17.48,23.849-25.277,32.415-14.514,15.945-22.732,30.823-24.534,44.363C123.7,298.843,122.8,287.382,122.712,283.676Zm111.907,1.5c-.579,30.935-28.252,42.549-60.214,42.1,10.174-7,19.2-18.137,26.934-33.265a3.462,3.462,0,1,0-6.165-3.152c-9.359,18.31-20.527,30.173-33.2,35.313-9.808-1.641-17.9-5.073-24.2-10.255-.555-13.521,7.179-29.2,23.058-46.645,9.647-10.6,26.053-33.4,27.433-35.321,7.727-8.6,13.654-24.045,16.47-32.391l12.438,13.086a296.229,296.229,0,0,1-8.4,40.493,3.462,3.462,0,1,0,6.662,1.889,295.075,295.075,0,0,0,8.752-42.63c19.142-39.2,34.573-93.348,39.194-127.632a3.424,3.424,0,0,0,.235-1.563c3.279-22.187,4.641-42.522,4.112-59.369l9.416-6.536C280.571,157.449,230.71,214.376,234.619,285.176Z" style="fill:#2b2b2b"/><path d="M109.067,19.3a3.465,3.465,0,0,0,2.006,4.464c.1.04,10.338,4.019,13.693,11.691a3.462,3.462,0,0,0,6.344-2.776c-4.537-10.371-17.057-15.191-17.588-15.391A3.459,3.459,0,0,0,109.067,19.3Z" style="fill:#2b2b2b"/><path d="M180.132,65.731a21.634,21.634,0,0,1-7.741,8.23A3.462,3.462,0,1,0,175.785,80a28.48,28.48,0,0,0,10.573-11.233C188.264,64.65,182.207,61.7,180.132,65.731Z" style="fill:#2b2b2b"/></svg>