<svg id="icons" xmlns="http://www.w3.org/2000/svg" viewBox="0 0 340 340"><title>41_watermelon</title><path d="M100.194,86.938s-2.665-12.11,8.17-24.263A11.243,11.243,0,1,0,89.425,51.234c-3.008,7.905-10.259,20.112-26.251,19.489C39.616,69.805,44.4,43.148,44.4,43.148h5.929a5.2,5.2,0,0,1,5.223,5.258,8.941,8.941,0,0,0,13.754,8.4c2.668-1.605,5.834-4.732,7.563-10.8,3.531-12.4,17.243-20.177,29.693-16.832,17.235,4.508,26.317,26.565,14.764,40.968-3.736,4.507-5.056,8.637-3.048,16.8Z" style="fill:#719b56"/><path d="M187.009,282.834a104.228,104.228,0,0,1-45.888,25.632,41.189,41.189,0,0,0-20.29,3.017,101.384,101.384,0,0,1-11.164-.113c-5.2-2.459-11.313-3.347-18.214-2.9a105.15,105.15,0,0,1-51.979-31.866C1.97,224.424,17.114,128.341,72,92.562a100.89,100.89,0,0,1,24.5-8.324l35.2-.771C207.533,91.659,237.636,237.9,187.009,282.834Z" style="fill:#a9db89"/><path d="M9.472,196.932c0,30.956,11.432,59.043,30.006,79.671a61.386,61.386,0,0,1-1.507-16.119c.515-12.507-2.127-20.282-5.373-25.094a24.687,24.687,0,0,1-3.145-20.7c2.665-9.14,1.175-18.062-1.106-24.887a25.367,25.367,0,0,1,4.238-23.483C56.126,134.646,37.139,125.369,72,92.565,35.113,110.628,9.472,150.564,9.472,196.932Z" style="fill:#3e6a51"/><path d="M152.334,88.986c40.3,36.119,18.6,43.708,43.295,77.332a25.362,25.362,0,0,1,4.239,23.482,44.051,44.051,0,0,0-1.106,24.887C208.948,253.944,187,282.828,187,282.828,247.3,227.241,228.544,117.382,152.334,88.986Z" style="fill:#3e6a51"/><path d="M102.148,114c.7-10.212,6.327-23.977,29.558-30.526a100.619,100.619,0,0,0-35.2.771A45.112,45.112,0,0,0,82.04,113.012a30.969,30.969,0,0,1-6.727,16.015,51.992,51.992,0,0,0-10.552,45.939,43.187,43.187,0,0,1-.451,21.483,56.042,56.042,0,0,0,3.325,39.806,49.881,49.881,0,0,1,4.544,26c-1.087,12.852,1.159,31.853,19.276,46.208a99.918,99.918,0,0,0,18.212,2.894c-8.841-7.531-23.029-24.63-19.455-55.063a37.7,37.7,0,0,0-5.388-24.5c-4.695-7.477-8.232-18.962-.636-32.982a36.344,36.344,0,0,0,2.848-27.392c-2.786-9.6-3.293-22.746,6.905-35.538A39.22,39.22,0,0,0,102.148,114Z" style="fill:#3e6a51"/><path d="M162.464,169.977c4.361-17.021-1.594-29.475-7.27-36.866a34.313,34.313,0,0,1-7.1-18.417c-.03-6.085-2.966-11.786-9.271-13.1a5.043,5.043,0,0,0-6,6.272,25.22,25.22,0,0,1,.928,9.311c-2.015,21.1,13.459,25.476,8.795,46.982A50.754,50.754,0,0,0,146,196.251c5.89,12.92,4.039,23.159.313,30.457A62.809,62.809,0,0,0,139.424,260c1.917,25.518-11.319,43.589-18.593,51.478a99.943,99.943,0,0,0,20.289-3.015c15.314-12.746,17.391-35.226,16.839-50.061a39.024,39.024,0,0,1,6.41-23.28c10.649-15.817,5.016-34.939-.082-46.167A28.723,28.723,0,0,1,162.464,169.977Z" style="fill:#3e6a51"/><path d="M277.958,123.7l-5.555,8.9c-20.748,57.239-50.505,107.641-92.758,148.56L173.87,290.4a6.019,6.019,0,0,0,2.217,8.487A104.039,104.039,0,0,0,223.1,310.91C325.776,313.2,368.8,180.944,286.611,122A6.039,6.039,0,0,0,277.958,123.7Z" style="fill:#eff4b0"/><path d="M272.372,132.572,179.645,281.151c55.72,35.743,132.928-5.6,133.589-72.291A87.493,87.493,0,0,0,272.372,132.572Z" style="fill:#f7616c"/><path d="M55.811,183.6c-1.139,6.383-6.635,10.741-12.277,9.735-13.432-2.958-9.5-24.985,4.123-23.114C53.3,171.222,56.949,177.212,55.811,183.6Z" style="fill:#eafcde"/><path d="M90.617,311.75a104.15,104.15,0,0,0,79.963-12.116C293.5,367.5,399.78,193.052,283.071,115.529A3.4,3.4,0,0,0,278.4,116.6c-5.327,8.48-45.7,73.12-51.993,83.234C228.281,137.627,181.744,81.321,120.8,79.028a11.9,11.9,0,0,1,3.135-6.728c12.807-15.214,3.6-41.329-16.491-46.391-14.283-3.835-29.769,4.943-33.822,19.172-1.665,5.868-6.168,11.693-12.041,9.025-4.315-2.173-.973-8.009-5.094-11.761-2.8-3.309-8.262-2.515-12.082-2.578a3.38,3.38,0,0,0-3.328,2.784c-6.095,38.075,40.31,42.473,51.511,9.885,2-5.882,10.649-6.974,13.867-1.586a7.752,7.752,0,0,1-.612,9.575,34.961,34.961,0,0,0-9.2,20.363C-20.045,105.47-24.869,280,90.617,311.75Zm48.913-6.378a96.656,96.656,0,0,1-10.959,2.044c24.952-34.219,5.632-48.785,20.757-79.171,5.177-10.138,5.091-21.686-.247-33.4-11.488-24.641,5.311-34.739-7.585-57.262a34.114,34.114,0,0,1-4.373-20.108,28.654,28.654,0,0,0-1.046-10.552,1.569,1.569,0,0,1,.4-1.558,1.71,1.71,0,0,1,1.571-.485,7.952,7.952,0,0,1,6.273,6.521c.6,8.532,2.644,16.827,8.2,23.765,5.26,6.851,10.688,18.307,6.675,33.968a32.2,32.2,0,0,0,2.02,21.211c4.4,9.683,10.288,28.129.356,42.88a42.113,42.113,0,0,0-6.984,25.295C155.138,273.506,152.956,293.692,139.53,305.372Zm142.778-182.26c104.709,76.075,6.663,231.228-107.048,171.445l5.5-8.8C283.41,339.814,370.262,200,277.016,131.588ZM273.4,137.3c85.926,63.441,5.745,192.288-89.068,142.716Zm-53.714,59.628a127.105,127.105,0,0,1-.936,15.166l-13.929,22.319a86.818,86.818,0,0,0-2.791-20.579c-5.534-21.5,10.771-29.451-3.729-49.587-19.245-25.025-8.824-40.079-29.268-63.032C199.959,121,219.691,157.258,219.691,196.932ZM131.948,86.937a97.087,97.087,0,0,1,18.583,4.98c38.42,34.278,17.31,42.258,42.421,76.467a21.941,21.941,0,0,1,3.709,20.344,47.375,47.375,0,0,0-1.172,26.808,81.957,81.957,0,0,1,1.937,30.738c-6.023,9.65-23.55,37.736-29.3,46.937a99.675,99.675,0,0,1-16.379,8.265c8.542-13.114,10.078-30.027,9.587-43.2a35.408,35.408,0,0,1,5.837-21.266c11.766-17.477,5.171-38.486.192-49.453a25.416,25.416,0,0,1-1.626-16.737c4.687-18.3-1.689-31.722-7.864-39.765-4.917-6.046-6.292-13.3-6.88-20.7-.919-8.4-12.377-16.576-19.424-9.637-4.76,4.678-.258,10.637-1.184,16.166-2.272,21.693,13.2,26.572,8.862,46.552-7.027,29.64,14.994,39.251,4.056,61.744-16.661,33.051,4.735,49.574-24.029,82.978-2.745.084-5.519.052-8.258-.1-8.316-7.411-20.729-23.435-17.449-51.362A41.267,41.267,0,0,0,87.687,230c-5.895-9.388-6.071-19.338-.526-29.573,13.845-25.629-9.6-37.962,9.424-62.434a42.472,42.472,0,0,0,8.937-23.756C106.416,101.164,115.559,91.744,131.948,86.937ZM110.887,64.925c9.095-10.091.088-26.5-13.268-24.185a14.58,14.58,0,0,0-11.354,9.292c-3.114,8.184-9.629,17.836-22.959,17.312-13.092-.1-16.564-11.27-15.86-20.815,1.593.123,4.645-.674,4.728,1.821A12.324,12.324,0,0,0,71.05,59.708c2.992-1.8,7-5.476,9.074-12.775,3.009-10.57,14.952-17.341,25.563-14.493,14.539,3.915,23.2,22.266,13.038,35.545a18.36,18.36,0,0,0-4.7,10.945,104,104,0,0,0-10.438.77A28.814,28.814,0,0,1,110.887,64.925ZM98.1,87.38a96.788,96.788,0,0,1,19.2-1.715c-26.071,15.363-12.386,31-26,48.108-11.334,14.216-10.34,28.831-7.51,38.587a33.144,33.144,0,0,1-2.572,24.84c-8.464,15.62-4.267,28.411.744,36.391A34.483,34.483,0,0,1,86.854,255.9c-2.906,24.739,5.433,41.162,13.672,51.01q-3.8-.624-7.531-1.547c-16.273-13.242-18.484-30.562-17.447-42.824a53.337,53.337,0,0,0-4.871-27.763c-12.831-27.131,2.759-37.941-2.626-60.595-4.695-19.785,2.783-34.316,9.882-43.021C90.019,116.086,81.128,103.625,98.1,87.38ZM73.972,95.372A98.2,98.2,0,0,1,86.854,90.24a49.49,49.49,0,0,0-8.172,22.379,27.59,27.59,0,0,1-5.99,14.271,55.638,55.638,0,0,0-11.221,48.856,39.873,39.873,0,0,1-.42,19.8c-9.01,34.617,9.79,39.342,7.759,66.427-.935,11.048.478,25.729,10.421,38.87A102.985,102.985,0,0,1,42.6,275a57.983,57.983,0,0,1-1.246-14.376c.47-11.448-1.531-20.574-5.948-27.123a21.223,21.223,0,0,1-2.7-17.867c2.425-8.321,2.04-17.374-1.146-26.9a21.943,21.943,0,0,1,3.708-20.344C59.105,136.359,40.905,126.214,73.972,95.372ZM53.749,108.3A67.66,67.66,0,0,0,43.388,134.56c-1.208,7.144-4.527,18.094-13.479,29.691a28.694,28.694,0,0,0-4.769,26.621c2.741,8.2,3.1,15.895,1.067,22.869a27.964,27.964,0,0,0,3.588,23.54c4.6,6.019,5.172,17.731,4.787,27.893C-.609,219.108,8.6,143.392,53.749,108.3Z" style="fill:#2b2b2b"/><path d="M211.253,270.76l2.029,4.043c2.074,3.963,7.967.94,6.044-3.032l-2.028-4.043C215.238,263.791,209.328,266.753,211.253,270.76Z" style="fill:#2b2b2b"/><path d="M226.677,258.234c3.313,2.958,7.8-1.9,4.587-4.97-2.207-1.917-4.792-5.621-7.85-2.644C220.692,253.905,224.593,256.188,226.677,258.234Z" style="fill:#2b2b2b"/><path d="M236.841,236.57c2.343,1.711,5.182,5.007,7.922,1.816a3.381,3.381,0,0,0-.625-4.741l-3.181-2.441C237.386,228.561,233.359,233.8,236.841,236.57Z" style="fill:#2b2b2b"/><path d="M277.341,177.077c.132.026,4.313.515,4.263.478,4.176-.037,4.565-6.205.39-6.74l-3.863-.454C273.71,169.925,272.934,176.481,277.341,177.077Z" style="fill:#2b2b2b"/><path d="M266.181,194.947c2.86.467,6.749,2.058,7.761-2a3.381,3.381,0,0,0-2.707-3.942l-3.819-.709C263.032,187.56,261.826,194.062,266.181,194.947Z" style="fill:#2b2b2b"/><path d="M251.569,215.325c1.1.481,3.958,2.526,5.2,2.382a3.4,3.4,0,0,0,1.63-6.346l-3.578-1.965C250.891,207.326,247.708,213.119,251.569,215.325Z" style="fill:#2b2b2b"/><path d="M272.685,234.929c-2.542-1.332-5.483-3.531-7.56-.142a3.38,3.38,0,0,0,1.427,4.563c1.032.443,3.4,2.08,4.561,1.956A3.4,3.4,0,0,0,272.685,234.929Z" style="fill:#2b2b2b"/><path d="M256.09,257.093c-2.865-3.4-7.992.776-5.244,4.271l1.517,1.863a3.381,3.381,0,1,0,5.244-4.27Z" style="fill:#2b2b2b"/><path d="M278.721,215.476l3.952.482a3.386,3.386,0,0,0,3.766-2.947c.245-4.221-4-3.813-6.9-4.248C275.12,208.3,274.317,214.863,278.721,215.476Z" style="fill:#2b2b2b"/></svg>