<svg id="icons" xmlns="http://www.w3.org/2000/svg" viewBox="0 0 340 340"><title>42_pineapple</title><path d="M216.36,27.1c-6.333,11-13.625,27.448-15.08,46.575H170.014s3.024-38.462,38.21-55.267A6.234,6.234,0,0,1,216.36,27.1Z" style="fill:#719b56"/><path d="M194.516,87.439l15.739-1.97c10.316-16.937,30.979-24.637,41.353-27.551a2.559,2.559,0,0,0,.42-4.766c-14.637-6.988-29.246-4.478-46.935,9.473a56.316,56.316,0,0,1-13.374,7.825Z" style="fill:#a9db89"/><path d="M135.468,12.9c10.976,3.821,24.936,10.91,35.214,23.835,6.127,9.608,2.117,18.175-2.554,26.674-13.173,6.107-22.761,4.3-28.578-5.838-1.675-10.81-5.061-23.711-11.8-35.5A6.4,6.4,0,0,1,135.468,12.9Z" style="fill:#a9db89"/><path d="M163.02,58.743a19.041,19.041,0,0,1-23.471-1.173A123.526,123.526,0,0,1,141.018,82.1h43.841c.281-20.064-5.7-34.693-14.189-45.36C175.311,47.281,169.3,54.45,163.02,58.743Z" style="fill:#719b56"/><path d="M147.686,87.439l.624-16.989a56.341,56.341,0,0,1-13.375-7.825C117.247,48.674,102.638,46.164,88,53.152a2.559,2.559,0,0,0,.42,4.766c10.373,2.914,31.037,10.614,41.353,27.551Z" style="fill:#a9db89"/><path d="M195.932,80.675a44.765,44.765,0,0,0-4.213-10.225,56.894,56.894,0,0,1-43.409,0A44.765,44.765,0,0,0,144.1,80.675a5.393,5.393,0,0,1-5.341,3.96,46.723,46.723,0,0,0-8.982.834A41.6,41.6,0,0,1,135.5,101.56l30.145,11.581h8.733l30.145-11.581a41.6,41.6,0,0,1,5.729-16.091,46.723,46.723,0,0,0-8.982-.834A5.393,5.393,0,0,1,195.932,80.675Z" style="fill:#719b56"/><path d="M168.076,61.343c-10.874,7.178-15.622,17.382-17.614,26.1L170.076,101.9l19.491-14.466c-1.992-8.713-6.74-18.917-17.614-26.095A3.531,3.531,0,0,0,168.076,61.343Z" style="fill:#a9db89"/><path d="M170.014,109.459l20.606-4.7a52.3,52.3,0,0,0-1.059-17.32,29.094,29.094,0,0,0-9.621,4.671,3.6,3.6,0,0,1-4.642-.193,27.565,27.565,0,0,0-3.562-2.792,3.118,3.118,0,0,0-3.443,0,27.565,27.565,0,0,0-3.562,2.792,3.6,3.6,0,0,1-4.642.193,29.094,29.094,0,0,0-9.621-4.671,52.3,52.3,0,0,0-1.059,17.32Z" style="fill:#719b56"/><path d="M154.545,116.173l3.958-16.7c-9.177-5.9-23.039-10.608-38.62-1.486a2.558,2.558,0,0,0,.608,4.69,45.746,45.746,0,0,1,19.835,10.689Z" style="fill:#a9db89"/><path d="M181.526,99.472l3.752,16.7,14.425-2.808a45.746,45.746,0,0,1,19.835-10.689,2.558,2.558,0,0,0,.608-4.69C204.565,88.864,190.7,93.571,181.526,99.472Z" style="fill:#a9db89"/><path d="M186.5,110.238a40.9,40.9,0,0,0-4.976-10.766,52.745,52.745,0,0,0-11.512,9.987A52.723,52.723,0,0,0,158.5,99.472a40.9,40.9,0,0,0-4.976,10.766,4.306,4.306,0,0,1-4.578,3.132,41.555,41.555,0,0,0-8.623-.005,38.447,38.447,0,0,1,10.975,19.51h37.427a38.447,38.447,0,0,1,10.975-19.51,41.555,41.555,0,0,0-8.623.005A4.306,4.306,0,0,1,186.5,110.238Z" style="fill:#719b56"/><path d="M172.366,97.519a3.615,3.615,0,0,0-4.7,0c-12.7,10.674-13.259,31.506-10.244,40.613H182.61C185.625,129.025,184.869,107.976,172.366,97.519Z" style="fill:#a9db89"/><path d="M168.391,130.593c-4.2-5.222-16.812-16.982-40.556-8.872a2.556,2.556,0,0,0-.008,4.834c8.4,2.858,21.216,9.69,22.346,24.94h39.683c1.13-15.25,13.945-22.082,22.345-24.94a2.556,2.556,0,0,0-.007-4.834c-23.744-8.11-36.351,3.65-40.556,8.872A2.086,2.086,0,0,1,168.391,130.593Z" style="fill:#719b56"/><path d="M176.975,142.609c-1.541.016-25.264-.045-25.957.049-3.175,1.827-6.465,2.5-9.97,1-11.794,1.985-22.243,6.768-30.1,14.1a8.111,8.111,0,0,1-4.715,5.109c-10.1,12.256-10.525,27.044-10.578,43.3a35.53,35.53,0,0,1-.1,14.11c.019,4,.081,8.025.2,12.061a9.865,9.865,0,0,1,.262,7.141c.827,14.948,1.791,29.256,5.152,43.118a15.527,15.527,0,0,1,3.108,8.514c5.694,12.413,15.411,21.544,27.126,27.524a11.125,11.125,0,0,1,6.643,2.976,80.62,80.62,0,0,0,12.917,3.8s81.527,8.145,81.527-91.4C232.486,146.031,176.975,142.609,176.975,142.609Z" style="fill:#ffd066"/><path d="M240.193,276.724c4.736-26.872,4.76-58.533,3.771-85.033-1.5-36.2-33.1-51.34-66.989-49.082,10.1,5.938,35.883,25.4,38.837,70.581,3.618,55.334-1.566,108.029-64.851,112.208C187.738,332.992,232.934,318.45,240.193,276.724Z" style="fill:#ed9d3e"/><path d="M145.28,179.286a3.462,3.462,0,0,1-3.462-3.462v-4.073a3.462,3.462,0,0,1,6.924,0v4.073A3.462,3.462,0,0,1,145.28,179.286Z" style="fill:#ed9d3e"/><path d="M118.6,226.434a3.462,3.462,0,0,1-3.45-3.215l-.265-3.711a3.463,3.463,0,0,1,6.907-.494l.265,3.711A3.467,3.467,0,0,1,118.6,226.434Z" style="fill:#ed9d3e"/><path d="M144.3,256.464a3.461,3.461,0,0,1-3.446-3.18l-.351-4.3a3.462,3.462,0,0,1,6.9-.563l.351,4.3A3.466,3.466,0,0,1,144.3,256.464Z" style="fill:#ed9d3e"/><path d="M124.485,294.961a3.463,3.463,0,0,1-3.446-3.165l-.272-3.154a3.462,3.462,0,1,1,6.9-.595l.272,3.154A3.466,3.466,0,0,1,124.485,294.961Z" style="fill:#ed9d3e"/><path d="M194.749,179.286a3.462,3.462,0,0,1-3.462-3.462v-4.073a3.462,3.462,0,0,1,6.924,0v4.073A3.462,3.462,0,0,1,194.749,179.286Z" style="fill:#ed9d3e"/><path d="M195.726,256.464a3.467,3.467,0,0,1-3.455-3.743l.351-4.3a3.462,3.462,0,0,1,6.9.564l-.351,4.3A3.461,3.461,0,0,1,195.726,256.464Z" style="fill:#ed9d3e"/><path d="M170.015,216.652a3.462,3.462,0,0,1-3.463-3.462v-4.575a3.463,3.463,0,0,1,6.925,0v4.575A3.462,3.462,0,0,1,170.015,216.652Z" style="fill:#ed9d3e"/><path d="M170.015,287.216a3.462,3.462,0,0,1-3.463-3.462v-4.99a3.463,3.463,0,0,1,6.925,0v4.99A3.462,3.462,0,0,1,170.015,287.216Z" style="fill:#ed9d3e"/><path d="M258.446,59.83a3.485,3.485,0,0,0,1.276-6.321c-17.056-10.985-33.253-10.174-51.9,2.787A118.316,118.316,0,0,1,219.36,28.827a9.7,9.7,0,0,0-12.628-13.543,67.853,67.853,0,0,0-28.8,25.844c-11.263-18.284-29.237-27.291-41.324-31.5a9.829,9.829,0,0,0-10.88,3.031,9.722,9.722,0,0,0-.982,11.126c6.79,11.883,10.031,25.005,11.563,35.526-20.4-15.8-37.707-17.586-56-5.8a3.462,3.462,0,0,0,1.274,6.32c.368.066,35.272,6.53,47.015,30.741A44.92,44.92,0,0,0,112.5,98.824a3.464,3.464,0,0,0,1.821,6.185c.153.013,13.513,1.321,23.572,10.826a61.313,61.313,0,0,0-18.825,5.727,3.464,3.464,0,0,0,.988,6.559c.161.023,14.607,2.226,22.163,11.838-29.112,4.117-48.581,23.812-49.618,51.6-.507,13.578-.635,26.051-.387,37.524.384,18.165,1.8,34.676,4.209,48.239a61.863,61.863,0,0,0,5.521,16.887,3.463,3.463,0,0,0,1.2,2.28c25.477,45.914,108.241,45.931,133.735,0a3.463,3.463,0,0,0,1.2-2.28,61.863,61.863,0,0,0,5.521-16.887c2.407-13.557,3.825-30.079,4.209-48.241.248-11.473.119-23.945-.387-37.522-1.037-27.789-20.5-47.483-49.611-51.6,7.558-9.608,21.993-11.816,22.151-11.839a3.462,3.462,0,0,0,.993-6.559,61.308,61.308,0,0,0-18.825-5.726c10.059-9.506,23.418-10.814,23.565-10.827a3.461,3.461,0,0,0,1.828-6.185,44.765,44.765,0,0,0-16.105-8.243C223.153,66.357,258.082,59.894,258.446,59.83Zm-48.73-38.3a2.761,2.761,0,0,1,3.643,3.841,118.547,118.547,0,0,0-14.07,37.143,51.114,51.114,0,0,1-11.823,5.676,71.9,71.9,0,0,0-5.709-19.858A61.547,61.547,0,0,1,209.716,21.532ZM177.659,97.908c-7.4-7.6-7.747-7.733-15.288,0a51.1,51.1,0,0,0-9.334-5.251c1.219-9.145,5.261-20.724,16.978-28.445,11.732,7.732,15.765,19.337,16.979,28.455A50.888,50.888,0,0,0,177.659,97.908Zm3.217,21.183a35.874,35.874,0,0,0-10.861,8.149,35.867,35.867,0,0,0-10.856-8.146,34.687,34.687,0,0,1,10.855-19.021A34.693,34.693,0,0,1,180.876,119.091ZM130.757,20.349a2.93,2.93,0,0,1,3.573-4.182c17.529,6.1,38.6,19.1,45.077,46.591a45.826,45.826,0,0,0-7.637-5.607,3.462,3.462,0,0,0-3.51,0,44,44,0,0,0-13.24,11.793,52.069,52.069,0,0,1-11.113-4.512C142.722,52.566,139.47,35.6,130.757,20.349ZM91.791,55.271c13.018-5.225,25.71-1.987,41,10.074a57.6,57.6,0,0,0,18.447,9.7,51,51,0,0,0-4.879,15.38,36.568,36.568,0,0,0-10.648-.982C126.859,68.7,104.45,59.139,91.791,55.271Zm31.752,44.657c13.716-7.025,25.886-2.632,34.593,3.464a39.49,39.49,0,0,0-5.566,13.287,36.755,36.755,0,0,0-5.507-.967C140.013,106.469,130.419,102.025,123.543,99.928ZM146.7,149.281c4.15,2.1,16.735,9.977,19.571,29.461a48.105,48.105,0,0,0-24.04,29.449c-5.44-11.6-13.5-16.585-17.84-18.523C125.747,179.225,130.329,158.341,146.7,149.281Zm23.314,92.756c-3.373-7.518-10.021-16.334-23.125-21.114,2.04-24.647,18.432-34.095,23.112-36.3,4.6,2.21,21.089,11.8,23.136,36.3C180.035,225.7,173.387,234.519,170.015,242.037Zm26.446-14.944c5.788,2.218,20.628,18.6,17.374,36.948A43.56,43.56,0,0,0,196.1,277.666c-5.179-14.315-17.209-21.707-22.4-24.322C174.541,247.749,178.438,233.184,196.461,227.093Zm-41.793-81.022h30.693a44.131,44.131,0,0,0-15.346,19.837A44.138,44.138,0,0,0,154.668,146.071Zm-18.641,2.285c-6.9,6.154-11.326,14.417-14.136,22.09a26.674,26.674,0,0,0-8.067-10.506A53.5,53.5,0,0,1,136.027,148.356Zm-36.5,43.464c.411-11.015,3.96-19.9,9.51-26.817,9.026,7.175,9.178,17.434,8.266,24.645a42.987,42.987,0,0,0-18.185,17.257C99.2,202.032,99.331,197.018,99.525,191.82Zm-.376,37.467c.294-3.487,2.836-24.467,21.62-33.641,3.471,1.35,14.576,7.071,18.615,25.882-4.6,2.784-14.282,10.21-18.693,25.37a44.682,44.682,0,0,0-21.45-14.034Q99.189,231.094,99.149,229.287Zm.378,10.96a38.476,38.476,0,0,1,19.794,16.744c1.377,3.017,6.2,2.233,6.534-1.071,2.56-18.948,14.08-26.8,17.712-28.828,18.291,6.182,22.034,21.091,22.795,26.487-4.953,3.072-17.43,12-22.539,26.639A43.357,43.357,0,0,0,124.5,263.38a3.464,3.464,0,0,0-3.259.231,47.32,47.32,0,0,0-16.375,19.321C101.319,269.3,100.532,256.68,99.527,240.247Zm9.5,52.747c2-11.825,10.841-19.709,14.407-22.449,12.9,7.083,16.772,16.021,19.318,24.453a30.226,30.226,0,0,0-9.936,20.532C123.111,310.614,114.6,303.286,109.032,292.994Zm30.728,25.58a22.926,22.926,0,0,1,7.275-18.112c13.044,7.2,17.4,17.688,18.836,23.251A84.1,84.1,0,0,1,139.76,318.574Zm60.508.012a83.842,83.842,0,0,1-26.082,5.131c1.444-5.192,5.772-14.787,18.651-21.755A18.983,18.983,0,0,1,200.268,318.586Zm6.933-3.043a25.951,25.951,0,0,0-12.466-20.631,3.461,3.461,0,0,0-3.2-.071c-11.931,5.876-18.167,13.782-21.426,20.3-3.1-6.769-9.07-15.067-20.474-21.13-.211-.9-.531-2.089-.992-3.49,1.518-17.413,16.835-28.226,21.581-31.173,4.785,2.145,19.387,11.243,21.235,28.6a3.478,3.478,0,0,0,5.963,1.255,35.624,35.624,0,0,1,19.029-18.758C219.931,273.087,228.973,281.02,231,293,225.429,303.289,216.915,310.623,207.2,315.543Zm29.582-39.42a59.428,59.428,0,0,1-1.619,6.808A47.344,47.344,0,0,0,220.7,264.959a50.263,50.263,0,0,0,.419-8.7A38.749,38.749,0,0,1,240.5,240.247,285.638,285.638,0,0,1,236.783,276.123ZM231,165.008c9.747,11.4,9.864,26.663,9.914,41.9a42.981,42.981,0,0,0-18.185-17.257C221.816,182.447,221.979,172.184,231,165.008Zm-4.8-5.077a26.6,26.6,0,0,0-8.058,10.511c-2.81-7.672-7.237-15.933-14.134-22.086A53.508,53.508,0,0,1,226.194,159.931Zm-10.556,29.75a34.711,34.711,0,0,0-13.684,11.448c-2.61,3.728,2.866,7.706,5.6,4.068a27.084,27.084,0,0,1,11.7-9.551c20.361,10.953,21.654,30.1,21.526,37.218A44.683,44.683,0,0,0,219.338,246.9c-4.594-15.789-14.9-23.19-19.238-25.693-1.913-27.555-19.615-39.065-26.342-42.463,2.837-19.494,15.433-27.372,19.569-29.462C209.679,158.333,214.274,179.291,215.638,189.681Zm-7.071-65.488c-6.359,2.529-14.091,7.083-18.589,15.044-5.475-.156-34.458-.156-39.935,0-4.5-7.949-12.208-12.506-18.561-15.036,24.873-7.18,35.066,9.6,35.527,10.392a3.487,3.487,0,0,0,6.011,0C179.192,124.691,193.822,119.348,208.567,124.193Zm7.916-24.263c-6.876,2.1-16.468,6.54-23.517,15.782a36.787,36.787,0,0,0-5.511.967,39.506,39.506,0,0,0-5.563-13.287C190.516,97.365,202.72,92.892,216.483,99.93ZM204.315,89.456a36.645,36.645,0,0,0-10.645.989,51.016,51.016,0,0,0-4.884-15.394,57.62,57.62,0,0,0,18.449-9.706c15.292-12.061,27.987-15.3,41-10.073C235.579,59.14,213.171,68.7,204.315,89.456Z" style="fill:#2b2b2b"/></svg>