<svg id="icons" xmlns="http://www.w3.org/2000/svg" viewBox="0 0 340 340"><title>43_kiwifruit</title><path d="M97.54,38.579c-9.888,1.3-14.627,8.825-20.717,15.594C-.852,73.956-1.67,210.282,31.054,261.925,43.817,283.349,66.3,296.156,90.3,296.156c35.79-3.039,55.951-14.639,69.758-29.719,38.877-94.824,32.953-158.356-37.4-223.411C117.647,40.6,112.835,38.124,97.54,38.579Z" style="fill:#bc8875"/><path d="M56.609,105.924a3.479,3.479,0,0,1-3.289-4.548l.994-3.012a3.462,3.462,0,1,1,6.575,2.169C60.1,102.826,59.689,105.923,56.609,105.924Z" style="fill:#7f4c45"/><path d="M45.831,135.589a3.474,3.474,0,0,1-3.405-4.114l.767-4a3.462,3.462,0,0,1,6.8,1.3l-.767,4A3.463,3.463,0,0,1,45.831,135.589Z" style="fill:#7f4c45"/><path d="M42.164,205.718a3.464,3.464,0,0,1-3.4-2.812l-.766-4a3.462,3.462,0,0,1,6.8-1.3l.766,4A3.473,3.473,0,0,1,42.164,205.718Z" style="fill:#7f4c45"/><path d="M66.906,135.588a3.467,3.467,0,0,1-3.45-3.792l.383-4a3.462,3.462,0,0,1,6.892.66l-.383,4A3.461,3.461,0,0,1,66.906,135.588Z" style="fill:#7f4c45"/><path d="M41.046,169.168a3.462,3.462,0,0,1-3.462-3.462v-4a3.463,3.463,0,0,1,6.925,0v4A3.462,3.462,0,0,1,41.046,169.168Z" style="fill:#7f4c45"/><path d="M63.639,169.168a3.462,3.462,0,0,1-3.462-3.462v-4a3.462,3.462,0,0,1,6.924,0v4A3.462,3.462,0,0,1,63.639,169.168Z" style="fill:#7f4c45"/><path d="M87.544,135.588a3.462,3.462,0,0,1-3.462-3.462v-4a3.462,3.462,0,0,1,6.924,0v4A3.462,3.462,0,0,1,87.544,135.588Z" style="fill:#7f4c45"/><path d="M197.953,122.418c-9.606-40.765-34.127-58.779-55.209-66.7,0,0,.2.09.56.282l-.56-.282a19.521,19.521,0,0,1-9.534-7.788c-8.281-13.252-23.607-10.772-35.67-9.351,0,0,11.885-.285,18.107,6.887,2.833,3.264,2.3,8.606-2.11,8.913l-4.527.314a1.708,1.708,0,0,0-.317,3.357c21.8,5.622,60.654,24.745,61.224,89.661a60.741,60.741,0,0,1-8.578,31.823c-8.751,14.451-19.107,37.469-19.111,66.248-.484,29.964-23.382,46.071-51.931,50.374h34.524C201.856,293.193,214.252,194.06,197.953,122.418Z" style="fill:#7f4c45"/><path d="M259.591,125.79c10.311,2.808,95.939,48.374,61.827,124.4C292.126,313.423,228,315.407,180.5,277.1Z" style="fill:#bc8875"/><path d="M244.911,273.863l-45.719-32.526L180.5,277.1c34.046,26.945,79.077,36.609,113.431,9.048C269.845,291.242,244.911,273.863,244.911,273.863Z" style="fill:#7f4c45"/><path d="M230.846,124.688a31.368,31.368,0,0,1,43.927,21.569c4.59,20.368,4.481,50.989-16.184,89.816-10.524,19.775-22.972,32.69-35.327,41.064-29.052,19.692-60.9-2.949-57.869-39.8,1.2-14.522,5.423-32.088,14.742-51.6C198.19,147.942,214.887,132.256,230.846,124.688Z" style="fill:#a9db89"/><path d="M221.243,181.621c-7.83,6.875-17.3,19.072-20.54,39.261a7.092,7.092,0,0,0,12.15,5.969c1.988-2.089,3.405-6.067,5.065-9.9,5.776-13.337,12.733-12.406,13.975-29.924C232.342,180.694,226.014,177.431,221.243,181.621Z" style="fill:#eaffdc"/><path d="M231.727,169.268c1.986,1.2,4-.454,4.578-1.737a50.34,50.34,0,0,0,3.531-11.359A3.463,3.463,0,0,0,233,155.06a43.889,43.889,0,0,1-3.01,9.629A3.63,3.63,0,0,0,231.727,169.268Z" style="fill:#333"/><path d="M219.7,157.943a3.462,3.462,0,0,0-6.878.8l.809,6.949c.206,1.764,1.979,3.495,3.84,3.039a3.637,3.637,0,0,0,3.039-3.84Z" style="fill:#333"/><path d="M204.521,170.683c-2.649-3.7-8.222.148-5.7,3.936l2.73,3.951a4.168,4.168,0,0,0,4.817.881c1.737-.8,1.968-3.243.881-4.816Z" style="fill:#333"/><path d="M191.187,192.253l3.678,2.18a3.462,3.462,0,0,0,3.53-5.957l-3.678-2.18C190.765,184.043,187.31,189.866,191.187,192.253Z" style="fill:#333"/><path d="M192.674,227.035a3.463,3.463,0,0,0-4.61-1.647l-5.178,2.453a3.472,3.472,0,0,0,1.484,6.592c.5,0,6.657-2.787,6.657-2.787A3.461,3.461,0,0,0,192.674,227.035Z" style="fill:#333"/><path d="M200.279,238.742a3.465,3.465,0,0,0-4.734,1.251l-4.36,7.5c-2.239,4.477,4,7.163,5.985,3.482l4.361-7.494A3.463,3.463,0,0,0,200.279,238.742Z" style="fill:#333"/><path d="M216.809,241.179a3.463,3.463,0,0,0-6.836,1.11,48.785,48.785,0,0,0,2.4,9.088c1.905,4.756,7.885.525,6.391-2.662A42.423,42.423,0,0,1,216.809,241.179Z" style="fill:#333"/><path d="M229.367,229.924c-3.221-3.216-8.084,1.5-4.973,4.818l4.223,4.36c.68.7,2.643,1.454,4.9.078,1.632-1,1.408-3.523.078-4.9Z" style="fill:#333"/><path d="M250.638,203.284c-4.125-.55-7.391-.825-7.527-.836a3.462,3.462,0,0,0-.576,6.9,33.265,33.265,0,0,0,7.187.8C254.384,210.221,255.079,204.089,250.638,203.284Z" style="fill:#333"/><path d="M254.623,188.05a35.918,35.918,0,0,0-11.61,0,3.462,3.462,0,0,0,1.248,6.811,28.045,28.045,0,0,1,9.108,0C258.224,195.791,258.8,188.739,254.623,188.05Z" style="fill:#333"/><path d="M247.384,176.892c3.243-3.308-1.6-8.212-4.948-5.017C239.2,175.183,244.033,180.088,247.384,176.892Z" style="fill:#333"/><path d="M234.762,218.242c-3.242,3.308,1.6,8.213,4.948,5.017C242.952,219.951,238.114,215.046,234.762,218.242Z" style="fill:#333"/><path d="M192.019,211.93c3.242-3.308-1.6-8.213-4.948-5.017C183.829,210.221,188.667,215.126,192.019,211.93Z" style="fill:#333"/><path d="M90.3,299.618c32.431-.111,60.679,4.142,85.8-21.737,99.673,86.294,212.241-45.744,125.251-128.848a147.73,147.73,0,0,0-40.208-26.348c-20.64-11.593-41.362,1.256-56.179,17.536-5.751-48.27-31.725-77.655-61-87.743a16.17,16.17,0,0,1-7.836-6.415c-8.758-13.962-24.77-12.937-39.1-10.907-10.5,1.432-15.74,8.581-22.175,16.017C52.633,58.511,24.38,76.7,13.8,121.624-2.255,193.685,8.729,295.989,90.3,299.618Zm233.615-68.445c-12.309,56.6-69.33,85.785-120.095,56.645,25.076-2.589,45.046-26.933,57.829-50.117,22.682-45.27,22.4-74.107,14-99.493C308.8,157.757,332.976,193.685,323.912,231.173ZM232.33,127.816c15.477-7.818,35.713,2.239,39.065,19.2,9.923,30.477-9.914,101.661-50.078,127.253-27.669,19.053-55.8-5.333-52.473-36.654C170.646,196.341,209.036,134.807,232.33,127.816Zm-211.795-4.6C30.926,79.189,57.845,64.7,79.424,56.458l7.19-8.185c6.944-8.036,18.443-7.1,28.165-7.264A19.084,19.084,0,0,1,130.295,49.8a23.13,23.13,0,0,0,11.231,9.162c31.316,11.2,52.562,41.006,57.462,88.383-21.983,29.677-53.07,91.218-27.558,125.4-23.448,24.568-50.883,19.6-81.133,19.948C14.44,289.3,5.458,190.429,20.535,123.212Z" style="fill:#2b2b2b"/><path d="M203.009,231.414c8.8,4.051,14.435-2.953,17.211-11.024a43.851,43.851,0,0,1,7.14-12.121c3.673-4.668,7.142-9.078,7.987-21a10.055,10.055,0,0,0-5.342-10.026,9.9,9.9,0,0,0-11.047,1.773c-7.986,7.013-18.228,19.873-21.674,41.314A10.336,10.336,0,0,0,203.009,231.414Zm1.113-9.983c3.118-19.407,12.273-30.946,19.4-37.209,2.36-2.187,5.221-.588,4.913,2.561-.695,9.8-3.14,12.905-6.523,17.205a50.688,50.688,0,0,0-8.083,13.728c-1.644,4.027-3.73,9.586-7.752,7.493A3.477,3.477,0,0,1,204.122,221.431Z" style="fill:#2b2b2b"/></svg>