<svg id="icons" xmlns="http://www.w3.org/2000/svg" viewBox="0 0 340 340"><title>44_melon</title><path d="M73.783,47.744a9.852,9.852,0,0,0-6.347,10.592l1.357,9.888,36.044-15.986v34h31.081a29.867,29.867,0,0,0-10.839-13.87,10.825,10.825,0,0,1-4.558-8.964l.028-9.384a13.517,13.517,0,0,1,8.036-12.315l15.241-6.759a14.393,14.393,0,0,0,8.557-13.157V10.077A485.619,485.619,0,0,1,73.783,47.744Z" style="fill:#84994a"/><path d="M117.728,326.526c-22.178-1.3-61.975-8.653-86.656-42.759a11.356,11.356,0,0,0-4.637-7.037,114.721,114.721,0,0,1-13.522-35.44,13.4,13.4,0,0,0-1.342-7.23c-.941-5.878-2.764-30.908-1.871-42.426a25.216,25.216,0,0,0,.855-10.314,139.96,139.96,0,0,1,9.936-39.593A18.806,18.806,0,0,0,25.428,131.6,95.847,95.847,0,0,1,68.7,90.972,42.551,42.551,0,0,0,81.85,85.7a125.755,125.755,0,0,1,32.879-6.068,9.9,9.9,0,0,0,7.061-.1c1.01.027,1.553.065,1.553.065s80.254.585,104.192,81.19C224.072,270.1,183.834,323.7,117.728,326.526Z" style="fill:#aecc76"/><path d="M159.63,172.915a3.465,3.465,0,0,0-4.348-2.25c-.193.061-19.656,6.1-52.636,5.3-6.84-.163-14.681-.606-22.172-.993A321.945,321.945,0,0,1,88.391,133.6c12.395.08,24.009-.117,32.641-.34.407,9.234.89,20.494.367,30.678a3.462,3.462,0,0,0,6.921.221c.529-10.292.048-21.766-.354-31.1,4.836-.157,7.736-.287,7.842-.291a3.463,3.463,0,0,0-.314-6.918c-.107,0-3.037.136-7.915.294a356.131,356.131,0,0,0-5.741-46.459c-1.452-.039-3.881-.053-7.06.1a351.1,351.1,0,0,1,5.858,46.561c-8.122.208-18.859.392-30.375.342a254.428,254.428,0,0,1,8.239-24.89,3.462,3.462,0,0,0-6.4-2.651,265.458,265.458,0,0,0-9,27.479c-8.844-.035-17.7-.566-26.42-.768,9.259-20.545,19.82-33.92,25.22-40a111.207,111.207,0,0,0-13.148,5.273,178.853,178.853,0,0,0-19.77,35.033,79.723,79.723,0,0,0-23.489,5.6,108.471,108.471,0,0,0-4.943,10.119c19.327-10.948,34.975-9.153,60.725-8.359a328.674,328.674,0,0,0-7.721,41.111c-7.811-.361-15.635-.612-23.084-.467a3.462,3.462,0,0,0,.137,6.923c7.108-.14,14.645.1,22.2.44a244.708,244.708,0,0,0,.15,51.262c-11.551-.163-23.541-.679-32.713-1.211-5.05-28.2-.083-62.423,9.465-88.851a3.462,3.462,0,0,0-6.511-2.358A197.2,197.2,0,0,0,34.148,175.2c-10.356.154-17.6,1.975-23.522,6.27q-.555,4.994-.859,10.312c5.61-6.769,11.948-9.336,23.344-9.646-2.2,15.679-2.578,34.315.05,48.991-2.018-.142-3.756-.277-5.13-.4a29.381,29.381,0,0,0-16.39,3.476c.4,2.47.831,4.891,1.327,7.232a23.122,23.122,0,0,1,14.45-3.811c1.8.16,4.213.343,7.077.533a132.993,132.993,0,0,0,15.292,39.236c-8.939-.181-17.246-.377-23.287-.527q2.213,3.695,4.632,7.04c6.532.156,14.666.339,23.1.5A104.773,104.773,0,0,0,63.8,296.536a3.463,3.463,0,0,0,5.071-4.716,91.454,91.454,0,0,1-6.03-7.258c8.578.143,17.01.247,23.962.262q2.531,5.662,5.46,11.02a3.462,3.462,0,0,0,6.07-3.331,156.9,156.9,0,0,1-15.825-43.742,3.463,3.463,0,0,0-6.782,1.4,171.6,171.6,0,0,0,8.193,27.714c-7.719-.041-16.891-.173-25.938-.338a125.079,125.079,0,0,1-16.3-38.959c16.028.888,39.336,1.67,54.837.774a3.462,3.462,0,1,0-.4-6.913c-4.786.276-10.337.388-16.186.386a237.441,237.441,0,0,1-.22-50.975c14.04.75,27.8,1.546,41.359.788.053,11.34.223,29.413.572,33.358a3.462,3.462,0,0,0,6.9-.61c-.293-3.314-.487-19.253-.548-33.205,18.437-1.511,28.8-4.744,29.389-4.933A3.462,3.462,0,0,0,159.63,172.915Z" style="fill:#e6f4ce"/><path d="M124.291,232.375c-3.242,3.308,1.6,8.212,4.948,5.017C132.481,234.084,127.643,229.179,124.291,232.375Z" style="fill:#e6f4ce"/><path d="M233.947,200.465a167.629,167.629,0,0,0-6.293-39.25,23.524,23.524,0,0,0-7.5,16.522,7.43,7.43,0,0,1-3.142,5.789c-3.571,2.532-8.7,7.61-8.121,15.62A5.989,5.989,0,0,1,205.22,205c-4.719,2.076-11.281,7.69-10.544,22.837a7.908,7.908,0,0,1-3.759,7.112c-5.8,3.58-15.265,11.372-12.691,23.029a15.014,15.014,0,0,1-1.57,10.863l-16.863,28.8s-13.022,25.1-42.065,28.883a115.608,115.608,0,0,0,16.257-.046S240.029,326.77,233.947,200.465Z" style="fill:#84994a"/><path d="M271.667,122.287l-8.042,15.645c-16.72,61.753-42.921,117.417-83.586,163.962l-8.568,16.547c73.888,36.613,164.988-21.5,159.143-105.239A109.516,109.516,0,0,0,271.667,122.287Z" style="fill:#aecc76"/><path d="M263.591,137.915l-9.936,19.5c-6.493,44.917-27.181,82.241-58.127,114.079l-15.489,30.4c14.157,7.3,29.474,10.514,46.529,9.52C320,305.477,345.338,180.423,263.591,137.915Z" style="fill:#f5ffde"/><path d="M253.655,157.415l-8.4,16.488c-6.444,32-15.413,61.353-38.6,75.753l-11.128,21.838c5.413.523,9.058-1.367,13.957-.141a54.7,54.7,0,0,0,19.288,1.056c31.833-4.087,20.416-24.913,20.416-24.913,20.369-15.68,7.581-30.041,7.581-30.041,7.762-2.464,6.76-9.753,5.273-14.26a9.857,9.857,0,0,1,.547-7.408C270.919,179.146,261.619,163.507,253.655,157.415Z" style="fill:#c9d6a3"/><path d="M225.775,206.339s-13.06,3.044-10.183,19.334l13.285,10.2,13.492-19.029Z" style="fill:#eda483"/><path d="M229.159,225.039a34.9,34.9,0,0,1,8.229-7.886,7.96,7.96,0,0,1,11.729,3.1,16,16,0,0,1,1.342,8.721c-.476,4.128-2.736,8.4-6.088,12.009C236.448,242.815,228.008,234,229.159,225.039Z" style="fill:#fcda9f"/><path d="M244.359,240.971a11.6,11.6,0,0,0-7.838-4.893,5.208,5.208,0,0,1-3.984-3.522,44.1,44.1,0,0,0-3.377-7.516,30.227,30.227,0,0,0-5.815,19.373C225.1,255.708,240.314,245.649,244.359,240.971Z" style="fill:#eda483"/><path d="M206.1,223.534a37.52,37.52,0,0,0-.126,9.2c3.225,9.053,15.873,12.345,21.672,7.9-1.245-7.506-4.506-17.074-12.92-21.414A5.981,5.981,0,0,0,206.1,223.534Z" style="fill:#fcda9f"/><path d="M205.976,232.738c.751,7.947,2.59,13.408,5.575,18.464l16.817-.219a53.327,53.327,0,0,0-.722-10.345c-2.436-.38-4.721.616-6.2-1.462C216.535,231.832,209.794,231.955,205.976,232.738Z" style="fill:#eda483"/><path d="M198.831,262.971c-7.719-.734-11.044-10.278-5.21-15.385,6.854-5.991,16.308-12.589,22.777-4.4l-12.68,19.643A19.349,19.349,0,0,1,198.831,262.971Z" style="fill:#fcda9f"/><path d="M232.04,186.244c-.329-8.656,1.218-24.357,14.254-19.7a15.435,15.435,0,0,1,9.342,10.824c1.094,4.5,1.877,10.7.008,16.182Q240.679,196.456,232.04,186.244Z" style="fill:#fcda9f"/><path d="M246.626,185.951c-4.756-2-11.275-.636-14.584.293a34.632,34.632,0,0,0,1.467,8.375l17.069,6.288a15.936,15.936,0,0,0,5.051-7.366C253.56,190.9,250.37,187.523,246.626,185.951Z" style="fill:#eda483"/><path d="M226.528,192.542a33.807,33.807,0,0,1,11.92-.254c7.523,2.5,10.212,9.916,11.221,19.036-8.309,4.564-16.34,4.857-24.016-.275a19.689,19.689,0,0,1-5-8.658A7.664,7.664,0,0,1,226.528,192.542Z" style="fill:#fcda9f"/><path d="M252.763,203.442c-1.976-6.307-7.915-10.4-14.318-11.139a10.277,10.277,0,0,1,5.914,14.036c-4.978,11.865-16.921,5.93-18.7,4.7,2.808,2.976,9.131,4.983,13.482,5.191a9.351,9.351,0,0,1,5.074-.172C254,214.651,254.7,208.536,252.763,203.442Z" style="fill:#eda483"/><path d="M217.877,248.613a8.411,8.411,0,0,0-1.491-5.414c-5.377,1.786-18.24,7.468-12.669,19.63C210.185,262.245,217.862,254.821,217.877,248.613Z" style="fill:#eda483"/><path d="M212.574,252.842c4.332-2.9,13.562-7.982,23.1-6.4,9.948,2.42,5.887,15.4-3.541,17.545a39.533,39.533,0,0,1-17.381.127,6.231,6.231,0,0,1-2.183-11.273Z" style="fill:#fcda9f"/><path d="M191.859,134.425c2.555,8.654-.666,17.233-7.194,19.16-15.845,3.926-24.685-26.036-9.253-31.34C181.94,120.317,189.3,125.771,191.859,134.425Z" style="fill:#e6f4ce"/><path d="M43.512,302.513c38.371,31.506,89.6,33.916,127.806,19.715,134.52,59,231.1-131.682,101.943-203.015a3.484,3.484,0,0,0-4.674,1.491l-7.87,15.311c-.391.133-13.533,26.839-13.836,27.07-15.6-5.453-18.322,15.8-15.792,25.411-10.427-.279-17.666,7.84-12.611,17.8a17.5,17.5,0,0,0-5.92,8.842c-11.822-.249-11.014,13.393-9.427,22.033-4.264,1.639-7.858,4.471-11.79,7.809-6.86,5.538-4.643,17.38,3.376,20.479-5.4,10.617-20.421,40.134-25.726,50.241-61.808,23.963-154.757-5.153-155.82-100.431C-1.793,65.422,178.984,37.49,223.2,158.509a3.461,3.461,0,1,0,6.58-2.15c-19.326-54.009-55.449-71.575-94.765-78.984a33.058,33.058,0,0,0-7.97-7.853,7.348,7.348,0,0,1-3.066-6.108c.309-6.914-1.838-14.944,6.006-18.544l15.24-6.759a17.869,17.869,0,0,0,10.616-16.322V10.077a3.487,3.487,0,0,0-5.283-2.945A486.536,486.536,0,0,1,72.59,44.494a13.386,13.386,0,0,0-8.584,14.313l1.357,9.888A3.462,3.462,0,0,0,70.2,71.389l31.177-13.828V77.6c-17.258,2.617-41.48,9.857-61.382,29.34C-4.475,145.511-7.7,262.7,43.512,302.513ZM238.718,172.32c1.031-2.675,2.451-4.036,6.338-2.546a11.93,11.93,0,0,1,7.217,8.408c1.216,5,1.873,11.569-.942,16.538-3.4-3.527-8.214-5.333-13.062-5.94C237.232,184.811,236.346,178.48,238.718,172.32Zm-14.39,25.636c1.812-2.9,6.089-2.366,8.984-2.626,6.727-.135,14.192,2.384,16.247,9.423,3.309,8.256-6.7,8.63-15.045,6.114-7.27-2.124-9.373-5.839-10.563-9.536A4.092,4.092,0,0,1,224.328,197.956Zm12.116,45.115a24.607,24.607,0,0,0-5.015-.37,50.963,50.963,0,0,0-2.373-10.608c1.389-3.639,9-14.137,14.076-12.743,3.752,1.16,4.15,5.768,3.888,9.227C246.432,233.677,242.191,239.475,236.444,243.071Zm-5.174,17.565a36.1,36.1,0,0,1-15.824.086,2.787,2.787,0,0,1-.947-5c4.153-2.777,12.351-7.23,20.614-5.861C241.606,251.76,235.849,260.089,231.27,260.636Zm-8.8-48.662a22.958,22.958,0,0,0,9.222,5.262,35.972,35.972,0,0,0-6.339,7.242,24.7,24.7,0,0,0-6.349-6.663A10.7,10.7,0,0,1,222.475,211.974Zm-12.946,12.053a2.481,2.481,0,0,1,3.61-1.727c8.046,4.149,10.62,14.375,11.429,21.326a37.536,37.536,0,0,0-3.661,1.113,12.354,12.354,0,0,0-10.963-8.8A36.057,36.057,0,0,1,209.529,224.027ZM195.9,250.194c5.972-5.3,16.119-12.273,18.522-2.515-1.445.794-2.722,1.583-3.77,2.284h0a9.711,9.711,0,0,0-4.283,8.511,14.483,14.483,0,0,1-7.207,1.049A5.373,5.373,0,0,1,195.9,250.194Zm6.065,16.3a20.436,20.436,0,0,0,7.193-1.665c4.755,4.728,17.134,4.119,23.848,2.515,8.482-1.812,15.564-12.551,9.851-20.313,9.605-7.468,14.661-19.437,8.549-29.72,7.188-3.522,6.2-12.118,4.081-16.433,7.644-9.315,5.792-27.325-2.587-34.35l12.161-23.865c95.739,59.133,23.174,200.364-80.341,157.676Zm-20.406,40C293.7,352.9,371.842,200.321,268.247,136.513l4.882-9.5c116.3,71.971,28.219,240.015-96.958,189.881ZM71.6,63.193c-.633-4.727-2.26-9.847,3.378-12.2A500,500,0,0,0,148.92,16.148c.164,6.626.391,12.331-6.5,15.633l-15.24,6.759a17,17,0,0,0-10.095,15.469c.032,9.269-1.518,16.547,7.457,22.3a103.188,103.188,0,0,0-16.245.42v-24.5a3.486,3.486,0,0,0-4.866-3.165Z" style="fill:#2b2b2b"/></svg>