<svg id="icons" xmlns="http://www.w3.org/2000/svg" viewBox="0 0 340 340"><title>45_strawberry</title><path d="M265.544,129.119l55.915,44.566c8.048,32.406-13.773,68.273-28.571,81.78a100.826,100.826,0,0,0-18.229,25.82,76.171,76.171,0,0,1-15.01,21.089A32.173,32.173,0,0,1,213.4,300.6c-5.025-5.616-10.193-13.588-14.852-24.9,0,0-1.738-3.533-4.731-8.767C174.348,171.1,210.4,139.124,265.544,129.119Z" style="fill:#f7616c"/><path d="M256.875,129.893l-49.056,4.383h0l-11.934,1.066c-39.64,17.495-25.17,99.8-25.17,99.8,9.683,9.683,18.125,23.086,23.1,31.788a260.947,260.947,0,0,1,9.012-53.61,135.985,135.985,0,0,1,5.834-16.846c4.678-11.006,8.13-21.864,8.49-30.493.045-1.079.012-2.329-.066-3.628a12.5,12.5,0,0,1,11.268-13.2c8.544-.779,19.215,1.05,24.3,13.1a48.135,48.135,0,0,1,3,28.234A2.543,2.543,0,0,0,259.71,193a105.952,105.952,0,0,0,13.423-12.737Z" style="fill:#b73d49"/><path d="M272.236,130.37l.9,19.076s17.1-.642,27.371,14.332a22.158,22.158,0,0,0,20.946,9.909C314.464,143.631,285.5,133.482,272.236,130.37Z" style="fill:#b73d49"/><path d="M270.374,66.91,276.5,77.693a15.343,15.343,0,0,1-1.177,17.044c-5.055,6.435-11.135,17.575-11.767,34.382H250.81S242.9,86.474,270.374,66.91Z" style="fill:#a9db89"/><path d="M264.249,123.7a13.393,13.393,0,0,1-11.222-1.8c-7.277-5.008-21.769-12.478-37.918-7.016-21.766,7.363-16.425,19.544-36.691,17.556a2.233,2.233,0,0,0-2.065,3.485c2.56,3.6,7.98,8.272,18.8,7.949a36.876,36.876,0,0,0,11.36-2.26c11.9-4.274,55.764-16.2,62.933,37.233a2.238,2.238,0,0,0,3.684,1.416c5.116-4.484,13.65-16.042,5.406-39.525,0,0,18.252-.274,28.874,14.448,4.532,6.281,12.615,9.2,19.865,6.472a17.01,17.01,0,0,0,7.895-6.175,1.916,1.916,0,0,0-1.7-3.033c-4.3.269-11.5-1.8-19.365-14.773C314.1,137.68,298.631,114.017,264.249,123.7Z" style="fill:#a9db89"/><path d="M231.246,194.032a3.47,3.47,0,0,1-3.446-3.838c.4-3.009.781-8.4,5.173-7.379a3.462,3.462,0,0,1,2.449,4.24,26.521,26.521,0,0,0-.738,3.889A3.463,3.463,0,0,1,231.246,194.032Z" style="fill:#b73d49"/><path d="M247.888,218.33c-4.232-.244-3.616-4.514-2.982-7.55a3.463,3.463,0,0,1,6.793,1.346,19.437,19.437,0,0,0-.356,2.895A3.461,3.461,0,0,1,247.888,218.33Z" style="fill:#b73d49"/><path d="M267.136,238.793a3.467,3.467,0,0,1-3.458-3.7c.151-2.784.27-6.561,4.179-6.28a3.462,3.462,0,0,1,3.015,3.857c-.131,1.067-.229,2.068-.285,2.894A3.464,3.464,0,0,1,267.136,238.793Z" style="fill:#b73d49"/><path d="M243.7,256.126c-3.6-.085-3.8-3.84-3.365-6.72a3.462,3.462,0,0,1,6.874.832,9.863,9.863,0,0,0-.059,2.088A3.469,3.469,0,0,1,243.7,256.126Z" style="fill:#b73d49"/><path d="M222.372,271.79c-3.576,0-3.741-4.149-3.9-6.867a3.462,3.462,0,0,1,6.915-.359,21.77,21.77,0,0,0,.381,3.092A3.474,3.474,0,0,1,222.372,271.79Z" style="fill:#b73d49"/><path d="M221.284,233.778c-4.474-.281-3.622-5.315-3.131-8.754a3.457,3.457,0,0,1,3.988-2.839c4.348,1.049,2.279,4.994,2.6,7.843A3.467,3.467,0,0,1,221.284,233.778Z" style="fill:#b73d49"/><path d="M195.156,143.877c5.887-.075,10.474-2.085,16.207-3.809a54.688,54.688,0,0,0-12.374-15.591c-5.335,5.066-8.131,9.186-20.571,7.966a2.233,2.233,0,0,0-2.065,3.485C178.913,139.532,184.333,144.2,195.156,143.877Z" style="fill:#719b56"/><path d="M25.248,144.345C12.764,167.4,2.862,209.964,41.74,244.332a238.361,238.361,0,0,1,34.335,33.461c8.639,10.315,20.012,21.883,32.757,29.754,19.4,11.983,45.058,6.6,57.089-12.77a61.2,61.2,0,0,0,6.452-14.559s7.49-25.761,10.316-50.92a147.19,147.19,0,0,1,7.931-33.309c10.054-25.856,7.5-61.266-25.018-81.869C112.58,108.11,64.876,115.815,25.248,144.345Z" style="fill:#f7616c"/><path d="M165.6,114.127c-34.968-22.673-82.484-12.733-82.484-12.733s-38.283,8.262-57.858,42.955c9.393-1.336,21.557-3.907,28.746-8.722,0,0-1.5,8.582-6.892,14.875a2.346,2.346,0,0,0,2.215,3.833c8.713-1.684,22.54-6.388,32.37-19.531a19.575,19.575,0,0,1,21.2-6.873C120.655,133.132,150.3,137.282,165.6,114.127Z" style="fill:#b73d49"/><path d="M89.271,26.1,96.7,35.9a9.281,9.281,0,0,1,.569,10.3c-4.534,7.766-11.153,24.753-4.765,51.55l-12.483,4.6S52.764,57.657,89.271,26.1Z" style="fill:#a9db89"/><path d="M84.955,93.62S56.1,84.431,38.538,102.126c-13.559,13.659-19.48,23.866-27.827,27.331a1.9,1.9,0,0,0,.4,3.609c1.628.319,3.434.609,5.373.821,0,0,15.492,1.655,33.234-8.659,0,0,2.18,11.1-3.775,17.467a1.761,1.761,0,0,0,1.373,3c5.76-.405,15.373-3.685,22.256-19.433,10.448-23.907,35.522-13.214,35.522-13.214s36.592,15.816,52.086-11.327a1.829,1.829,0,0,0-2.145-2.649,31.015,31.015,0,0,1-25.355-2.94c5.914-3.506,10.516-7.67,12.774-13.006a26.5,26.5,0,0,0,.445-8.951,1.826,1.826,0,0,0-3.242-.967c-2.434,3-7,6.762-14.918,7.621C111.085,82.3,97.182,77.226,84.955,93.62Z" style="fill:#a9db89"/><path d="M142.452,83.121c-7.983,11.73-30.189-4.245-34.763,12.068a.864.864,0,0,0,1.359.909c3.15-2.4,10.395-6.052,20.634.03A17.356,17.356,0,0,0,142.452,83.121Z" style="fill:#719b56"/><path d="M40.218,191.005a3.464,3.464,0,0,1-3.456-3.29c-.155-3.125-.007-7.35,0-7.528.261-4.565,6.967-4.322,6.92.247,0,.04-.144,4.109,0,6.935A3.466,3.466,0,0,1,40.218,191.005Z" style="fill:#b73d49"/><path d="M72.762,183.773a3.462,3.462,0,0,1-3.364-2.66,30.227,30.227,0,0,1-.694-7.439,3.463,3.463,0,0,1,6.918.309h0a23.335,23.335,0,0,0,.511,5.525A3.475,3.475,0,0,1,72.762,183.773Z" style="fill:#b73d49"/><path d="M106.776,175.8a3.465,3.465,0,0,1-3.3-2.408,35.932,35.932,0,0,1-1.379-7.425,3.462,3.462,0,0,1,6.907-.48h0a29.322,29.322,0,0,0,1.068,5.795A3.478,3.478,0,0,1,106.776,175.8Z" style="fill:#b73d49"/><path d="M59.915,222.605a3.463,3.463,0,0,1-3.009-1.745,29.077,29.077,0,0,1-2.847-8,3.463,3.463,0,0,1,6.808-1.267,22.1,22.1,0,0,0,2.052,5.832A3.484,3.484,0,0,1,59.915,222.605Z" style="fill:#b73d49"/><path d="M97.5,214.252A3.465,3.465,0,0,1,94.261,212a26.493,26.493,0,0,1-1.656-7.38c-.113-4.559,6.572-4.906,6.915-.358a20.377,20.377,0,0,0,1.225,5.307A3.48,3.48,0,0,1,97.5,214.252Z" style="fill:#b73d49"/><path d="M135.529,205.61a3.462,3.462,0,0,1-3.173-2.075,38.037,38.037,0,0,1-1.952-6.615,3.463,3.463,0,0,1,2.715-4.073c4.765-.575,3.928,4.461,5.58,7.912A3.482,3.482,0,0,1,135.529,205.61Z" style="fill:#b73d49"/><path d="M89.584,251.842c-3.974.278-6.158-8.741-6.138-9a3.462,3.462,0,0,1,6.8-1.318,12.387,12.387,0,0,0,2.012,4.656A3.485,3.485,0,0,1,89.584,251.842Z" style="fill:#b73d49"/><path d="M123.575,241.473A3.465,3.465,0,0,1,120.4,239.4a62.753,62.753,0,0,1-2.168-6.178,3.462,3.462,0,0,1,2.355-4.293c4.755-.765,4.1,3.319,6.158,7.7A3.482,3.482,0,0,1,123.575,241.473Z" style="fill:#b73d49"/><path d="M116.662,279.352a3.452,3.452,0,0,1-2.705-1.3c-3.689-5.065-5.454-10.2-.825-11.469a3.462,3.462,0,0,1,4.044,2.73,11.764,11.764,0,0,0,2.187,4.414A3.485,3.485,0,0,1,116.662,279.352Z" style="fill:#b73d49"/><path d="M55.545,105.412C35.7,113.261,35.6,132.294,16.487,133.884c9.641,1.052,22.563.164,33.233-8.656a21.32,21.32,0,0,1,6.941-17.714C57.646,106.643,56.767,104.928,55.545,105.412Z" style="fill:#719b56"/><path d="M171.6,160.48c1.791,7.664-1.737,15.042-7.881,16.478-14.872,2.813-21.062-23.688-6.488-27.755C163.37,147.766,169.8,152.815,171.6,160.48Z" style="fill:#ffe9e9"/><path d="M299.354,199.2c0,6.44-4.185,11.66-9.347,11.66-12.373-.528-12.369-22.795,0-23.321C295.169,187.534,299.354,192.755,299.354,199.2Z" style="fill:#ffe9e9"/><path d="M25.266,137.683C8.575,164.16-1.813,210.505,39.584,247.041A235.313,235.313,0,0,1,73.42,280.016c17.036,19.132,33.81,37.032,57.658,37.335A44.272,44.272,0,0,0,168.863,296.6a65.123,65.123,0,0,0,6.835-15.418c.05-.172,3.338-11.561,6.383-26.51a209.546,209.546,0,0,1,13.312,22.452c17.159,46.826,60.5,51.689,82.366,5.7a97.265,97.265,0,0,1,17.6-24.934c16.046-14.46,40.928-56.558,27.414-91.8,8.109-.512,14.355-5.4,17.957-13.373a3.482,3.482,0,0,0-.872-4.079,3.416,3.416,0,0,0-4.118-.284c-.336.2-8.3,4.635-18.677-12.468-.324-.465-15.664-23.383-48.9-16.678a51.986,51.986,0,0,1,9.886-22.331,18.713,18.713,0,0,0,1.464-20.893L273.384,65.2a3.462,3.462,0,0,0-5.018-1.11c-18.2,12.961-21.888,35.084-22.066,50-16.861-8.636-38.535-4.373-51.186,9.321-2.832,2.765-4.8,4.68-8.566,5.432a76.744,76.744,0,0,0-28.086-22.665c1.458-2.668,6.453-8.681,3.183-11.467a3.473,3.473,0,0,0-4.008-.424,26.916,26.916,0,0,1-19.678,1.695c8.211-6.266,10.107-15.765,7.483-27.5a3.453,3.453,0,0,0-3.134-2.664,3.5,3.5,0,0,0-3.484,2.224c-.127.331-3.259,8.133-14.455,9.345-10.429,1.043-20.45-1.39-30.864,4.089-1.086-17.037,3.637-28.183,6.754-33.525a12.718,12.718,0,0,0-.8-14.141l-7.43-9.795a3.483,3.483,0,0,0-5.022-.527C62.552,44.62,65.055,71.256,70.082,87.784c-21.989-.805-32.039,8.161-46.246,25.264-9.173,10.528-13.2,14.784-21.159,14.177A3.462,3.462,0,0,0,1.141,133.9,64.072,64.072,0,0,0,25.266,137.683ZM290.419,253.04a104.2,104.2,0,0,0-18.861,26.7c-7.708,14.916-17.915,28.743-35.349,28.1C217.4,306.78,209.122,291,201.653,274.166a207.466,207.466,0,0,0-17.788-28.911c2.607-16.317,3.734-31.846,10.014-48.094,4.087-11.375,8.533-30.493,2.305-49.87a40.862,40.862,0,0,0,11.5-2.416c28-10.178,55.565-2.549,58.746,38.044,1.583,10.351,26.006-7.477,16.966-38.222,5.632.976,14.974,3.881,21.206,12.518a21.562,21.562,0,0,0,10.183,7.692C329.519,195.98,308.193,236.966,290.419,253.04ZM269.353,72.12l4.139,7.284a11.814,11.814,0,0,1-.887,13.193,59.594,59.594,0,0,0-11.727,28.142c-2.9.193-5.336-1.2-7.623-2.837C252.9,105.474,254.8,84.809,269.353,72.12Zm-69.4,56.24c15.063-15.933,36.738-14.2,51.11-3.607a16.81,16.81,0,0,0,14.13,2.28c31.024-8.74,45.125,11.228,45.99,12.506,5.931,9.589,11.875,14.9,19.172,16.2-5.818,5.573-15.358,4.164-20.134-2.58-11.539-16-30.879-15.9-31.732-15.883a3.485,3.485,0,0,0-3.215,4.608c6.725,19.159,1.564,29.4-2.737,34.155-5.734-41.7-39.375-48.174-67.192-37.684a32.559,32.559,0,0,1-11.836,2.065,61.336,61.336,0,0,0-2.893-5.52C194.709,133.477,197.275,130.974,199.952,128.36ZM179.7,131.307c27.559,35.242,2.516,64.244-.448,97.6-2.758,24.559-10.125,50.086-10.187,50.3a58.124,58.124,0,0,1-6.081,13.74C152.1,310.474,128.623,315.7,110.651,304.6c-10.456-6.458-21.2-16.225-31.921-29.031A242.4,242.4,0,0,0,43.9,241.623C4.611,206.474,16.026,161.2,34.714,136.39a42.655,42.655,0,0,0,11.876-4.745c-.758,11.6-7.838,8.979-7.653,14.01.731,3.268,2.458,3.247,6.869,3.483,6.484,0,18.748-2.749,26.941-21.494,8.922-20.416,30.1-11.79,30.975-11.422,4.469,2.467,34.565,11.454,50.1-4.577A71.07,71.07,0,0,1,179.7,131.307ZM88.811,31.225l5.132,6.765a5.815,5.815,0,0,1,.337,6.465c-3.786,6.486-9.682,20.464-7.311,41.712a38.211,38.211,0,0,0-3.311,3.506c-1.467-.363-3.552-.814-6.069-1.19C72.821,74.645,68.964,50.627,88.811,31.225ZM41,104.565c15.78-15.9,42.477-7.782,42.91-7.646a3.47,3.47,0,0,0,3.825-1.23c13.645-19.972,36.937-3.8,51.882-17.459.183,6.694-4.465,12.7-9.507,14.168-12.4-6.592-22.013-.995-25.452,3.042a3.462,3.462,0,0,0,5.251,4.514c.67-.782,7.077-7.382,18.034-.834a34.288,34.288,0,0,0,23.962,4.306c-12.072,17.263-40.631,8.856-45.447,6.433-9.765-4.166-30.7-6.385-40.052,15.012-4.719,10.8-10.669,15.026-15.346,16.584,6.672-13.4-3.681-22.849,8.378-28.95a3.462,3.462,0,1,0-2.909-6.283c-3.366,1.558-10.8,6.288-10.388,17.4-9.665,7.183-21.244,7.75-29.87,6.727C25.062,123.845,31.879,113.337,41,104.565Z" style="fill:#2b2b2b"/></svg>