<svg id="icons" xmlns="http://www.w3.org/2000/svg" viewBox="0 0 340 340"><title>46_physalis</title><path d="M115.028,196.594a47.6,47.6,0,0,1-7.347,12.282s-24.03,29.2,2.218,71.35a117.867,117.867,0,0,1,15.729,39.334,1.767,1.767,0,0,0,2.6,1.187c5.313-3.006,18.118-13.416,12.767-42.169a31.329,31.329,0,0,1,4.838-23.313,78.741,78.741,0,0,0,4.154-6.831C141.905,223.561,130.852,205,115.028,196.594Z" style="fill:#be9553"/><path d="M203.556,250.839a66.5,66.5,0,0,0,7.08,16.129c9.014,14.3,9.4,30.489,5.967,46.859a1.774,1.774,0,0,0,2.833,1.753c7.929-6.284,25.937-23.852,31.093-56.9C244.147,222.411,218.454,222.736,203.556,250.839Z" style="fill:#be9553"/><path d="M125.252,274.065a3.451,3.451,0,0,1-3.106-1.938c-.394-.8-9.491-19.885,2.36-38.481,8-12.56,6.139-26.595,6.119-26.736a3.462,3.462,0,0,1,6.857-.966c.095.676,2.226,16.731-7.136,31.423-9.723,15.257-2.3,31.06-1.977,31.725A3.485,3.485,0,0,1,125.252,274.065Z" style="fill:#8e6335"/><path d="M230.709,271.824a3.477,3.477,0,0,1-3.344-4.366c.033-.127,3.475-13.477-3.01-22.566-14.228-19.941-8.847-33.58-8.611-34.151,1.8-4.144,8.029-1.63,6.413,2.612-.2.514-3.948,11,7.834,27.518,8.408,11.784,4.24,27.719,4.059,28.392A3.465,3.465,0,0,1,230.709,271.824Z" style="fill:#8e6335"/><path d="M122.339,168.185s-1.58,15.077-7.312,28.408c.931,15.064,7.133,38.867,34.959,51.839,3.82-7.084,7.083-15.9,7.233-25.508C157.589,199.264,122.339,168.185,122.339,168.185Z" style="fill:#8e6335"/><path d="M250.751,202.221s-38.448-3.7-48.429,18.115c0,0-3.674,13.4,1.242,30.5,6.291-1.633,15.944-4.691,24.187-9.659a8.884,8.884,0,0,1,12.206,2.884,114.177,114.177,0,0,0,10.567,14.613,131.42,131.42,0,0,0,.227-36.86Z" style="fill:#8e6335"/><path d="M162.893,23.228l5.1-3.367c15.822-8.577,22.131,17.777,18.5,35.448-5.271,29.332-14.445,36.665,1.027,66.684l-21.193,2.979s-14.547-25.266-.956-56.9C171.623,53.563,171.059,36.766,162.893,23.228Z" style="fill:#8e6335"/><path d="M133.106,53.58c34.58,28.269,16.316,51.669,42.985,74.89l-45.329,31.009a77.8,77.8,0,0,0-4.866-29.951,16.626,16.626,0,0,0-28.434-4.318c-5.107,6.386-9.794,15.808-11.5,29.559L72.146,132.907S95.983,34.042,133.106,53.58Z" style="fill:#be9553"/><path d="M149.566,143.823c-7.562-1.81-12.113-19.792-13.746-35.736-1.545-15.026-11.552-16.115-11.977-16.154a3.48,3.48,0,0,1-3.155-3.727,3.435,3.435,0,0,1,3.669-3.178c5.592.385,16.624,5.552,18.351,22.351,2.011,19.555,6.171,27.4,9.307,30.533A3.486,3.486,0,0,1,149.566,143.823Z" style="fill:#8e6335"/><path d="M209.52,46.031s-7.128,5.265-15.167,29.2a46.857,46.857,0,0,1-8.311,14.919c-5.551,6.721-13.417,18.941-14.078,34.794l43.673,3.529Z" style="fill:#be9553"/><path d="M147.4,227.012c-53.118-37.768-18.49-121.249,46.411-109.451l20.738,85.4Z" style="fill:#ffbc6c"/><path d="M193.813,117.571h0a286.479,286.479,0,0,0,4.555,63.407,25.336,25.336,0,0,1-20.161,29.467c-9.494,1.761-20.342,6.361-30.794,16.555,38.495,27.608,94.527-.521,95.341-48.249A60.729,60.729,0,0,0,193.813,117.571Z" style="fill:#ea8b57"/><path d="M209.52,46.031S201.976,86.2,210,136.623c1.958,4.593,2.484,9.187,2.875,15.312,7.163,32.95,21.449,68.809,48.68,100.046a76.574,76.574,0,0,1,13.307,21.582c4.422,10.924,15.112,27.631,40.482,37.064a2.407,2.407,0,0,0,3.087-3.117c-3.679-9.486-10.228-32.666-5.232-68.957,5.453-39.6-.512-101.8-20.732-146.683a19.071,19.071,0,0,1-4.571-9.374q-2.118-4.013-4.413-7.773a15.781,15.781,0,0,0-17.736-6.915c-7.237,2.033-16.481,4.8-26.034,3.485-2.615.525-5.327-.285-8.118-2.2C223.819,65.842,216.161,59.012,209.52,46.031Z" style="fill:#efdb8f"/><path d="M133.106,53.58S112.037,50.27,109.258,76.4a34.8,34.8,0,0,1-8.7,19.5c-7.459,8.362-16.662,26.254-14.391,62.869a57.7,57.7,0,0,1-.8,13.655c-1.219,8.074-5.376,24.783-9.457,37.68-2.48,2.314-3,5.888-2.191,10.32-2.241,15.517-.458,29.959-4.519,46.682a81.2,81.2,0,0,0-2.163,19.441,86.208,86.208,0,0,0,1.09,12.795,1.9,1.9,0,0,1-3.269,1.622,176.965,176.965,0,0,1-30.689-47.821,14.639,14.639,0,0,0-4.128-10.3,175.044,175.044,0,0,1-10.6-56.111c1.446-5.707,2.352-11.251.1-15.841,1.015-38.558,7.026-57.481,11.946-66.6a15.671,15.671,0,0,1,13.557-8.222,35.178,35.178,0,0,0,16.413-3.692c3.548.722,7.026-2.6,10.466-8.134C86.846,66.085,112.044,36.028,133.106,53.58Z" style="fill:#efdb8f"/><path d="M54.657,197.143c10.086,7.03,16.227,17.472,19.069,23.282a102.633,102.633,0,0,1,2.2-10.317,64.549,64.549,0,0,0-17.3-18.646,19.526,19.526,0,0,1-8.168-15.4C54.6,127.655,65.215,98.45,71.913,84.232a34.255,34.255,0,0,1-10.461,8.134c-5.02,12.2-10.538,27.961-13.385,43.76a37.36,37.36,0,0,1-14.495,20.5,52.923,52.923,0,0,0-14.028,14.261c-.117,4.957-.228,10.615-.081,15.841a48.389,48.389,0,0,1,18.032-24.4,42.489,42.489,0,0,0,7.623-6.708c-3.331,24.108-1.16,57.636-1.136,58.009.236,3.575-.26,13.821-5.313,18.238a35.071,35.071,0,0,0-8.617,10.963q1.956,5.362,4.124,10.305c.528-4.562,2.666-10.472,9.051-16.055a17.576,17.576,0,0,0,3.068-3.551c1.428,11.2,4.184,24.6,6.58,36.141a3.462,3.462,0,1,0,6.785-1.385c-5.666-25.139-9.486-53.465-9.474-75.095A25.743,25.743,0,0,0,54.657,197.143Z" style="fill:#be9553"/><path d="M293.709,200.944c1.164,2.625,2.588,5.625,5.954,4.128,3.188-1.843,1.615-4.695.251-7.2-4.314-8.713-9.684-19.558-21.714-25.959-13.872-7.38-17.534-15.829-18.008-17.067-3.927-29.485-13.87-64.314-20.483-83.556a32.434,32.434,0,0,1-8.117-2.2c1.422,4.221,3.134,9.465,4.98,15.467C242.42,106.376,217.705,115.3,210,136.623c.8,5.011,1.755,10.126,2.882,15.31,4.6-27.228,19.734-29.616,28.975-49.226,7.251,21.174,11.534,61.437,18.32,80.307,1.733,6.657,3.915,19.186-.706,29.028a43.906,43.906,0,0,0-3.959,13.6,3.462,3.462,0,0,0,6.878.8c.453-6.921,5.145-13.532,6.114-20.484,3.633,8.92,7.388,17.072,10.8,23.994a3.465,3.465,0,0,0,4.635,1.577,3.39,3.39,0,0,0,1.577-4.635C273.262,205.48,264.2,172.264,263.7,170.4a59.867,59.867,0,0,0,11.249,7.63C285.012,183.382,289.632,192.712,293.709,200.944Z" style="fill:#be9553"/><path d="M292.452,91.875q-2.175-4.828-4.572-9.372c-.879,5.428-3.453,12.175-9.712,19.392a27.378,27.378,0,0,0-4.895,8.425,150.316,150.316,0,0,0-4.342-14.875,3.462,3.462,0,0,0-6.487,2.419c3.745,10.045,9.913,38.279,11.578,53,.592,4.509,7.317,3.755,6.881-.779-.483-4.323-1.417-10.084-2.551-16.26-.034-.177-3.292-17.778,5.047-27.394A50.625,50.625,0,0,0,292.452,91.875Z" style="fill:#be9553"/><path d="M286.328,243.557c-3.242,3.308,1.6,8.213,4.948,5.017C294.518,245.266,289.68,240.362,286.328,243.557Z" style="fill:#be9553"/><path d="M164.03,164.389c-2.009,7.3-8.563,11.866-14.639,10.194-14.4-4.616-7.452-29.842,7.275-26.441C162.742,149.813,166.039,157.087,164.03,164.389Z" style="fill:#ffedd9"/><path d="M157.567,80.1c-29.305-58.45-59.521-33.854-87.627,1.123A30.927,30.927,0,0,1,46.469,92.582,19.412,19.412,0,0,0,28.44,102.645c-5.707,10.575-12.51,33.02-12.51,79.89-1.054,53.348,27.581,103.543,51.547,126.048a3.476,3.476,0,0,0,5.588-3.723c-1.543-4.346-2.431-10.7-2.57-18.376a77.053,77.053,0,0,1,2.079-18.611c2.636-11.6,3.3-24.445,3.4-33.178a97.072,97.072,0,0,1,4.649-28.378,264.787,264.787,0,0,0,8.152-33.276,70.468,70.468,0,0,0,.66-18.092c1.776-12.921,8.409-34.493,22.929-32.35,11.353,1.828,12.56,14.486,14.331,24.214-11.74,18.7-6,40.23-21.684,59.863-.267.325-6.573,8.1-9.444,21.337-8.424,39.451,20.908,55.905,27.08,94.382a3.486,3.486,0,0,0,4.515,2.67c1-.338,24.392-8.7,17.242-47.12a28.039,28.039,0,0,1,4.3-20.735,73.692,73.692,0,0,0,9.253-18.519,64.483,64.483,0,0,0,40.137,2.687c5.257,34.916,24.489,31.075,14.179,76.126a3.464,3.464,0,0,0,1.321,3.592c3.969,4.111,37.6-21.234,41.439-71.478,6.7,7.6,13.011,15.82,16.621,25.245,4.512,11.146,16.742,31.277,47.952,40.861a3.487,3.487,0,0,0,4.032-5.009c-.135-.241-13.488-24.62-7.008-71.69,6.446-46.812-3.083-121.739-30.184-166.095a19.392,19.392,0,0,0-22.51-8.209c-15.175,4.512-36.392,9.678-51.622-20.74-4.428-5.411-12.452,5.2-21.239,30.144a44.283,44.283,0,0,1-8.4,14.682c1.421-10.962,5.168-20.482,7.23-32.885,4.149-21.657-4.276-49.254-23.82-38.951l-5.1,3.368A3.462,3.462,0,0,0,159.919,25c7.38,12.246,8.19,27.9,2.274,41.7A92.249,92.249,0,0,0,157.567,80.1Zm-74.86,78.873C84.1,182,68.743,209.307,69.046,234.62c-.091,8.4-.724,20.714-3.225,31.719a85.255,85.255,0,0,0-1.8,28.367c-13.99-16.586-41.162-56.031-41.162-112.171C23.338,138.383,28.266,99.3,45.1,99.528A38.042,38.042,0,0,0,75.3,85.61c10.2-12.046,28.069-35.2,45.961-33.766-9.418,4.062-14.075,12.251-15.442,24.194A31.213,31.213,0,0,1,97.969,93.6C89.759,101.258,79.908,126.531,82.707,158.971Zm30.682-43.22c-10.222-1.715-18.322,4.855-22.864,13.5,4.358-32.2,19.114-29.1,22.177-52.481,1.016-12.8,8.743-20.482,19.047-19.835,3.627,3.017,19.648,17.333,22.551,37.009a65.789,65.789,0,0,0,8.54,24.038,64.38,64.38,0,0,0-30.545,20.759C130.091,127.848,125.5,117.487,113.389,115.751ZM142.97,253.32a35.014,35.014,0,0,0-5.377,25.892c4.373,23.5-3.953,33.473-9.077,37.259A121.737,121.737,0,0,0,112.838,278.4c-24.531-39.388-3.389-66.206-2.538-67.255,4.063-4.7,7.108-10.77,9.377-16.849a64.42,64.42,0,0,0,31.947,41.425A66.143,66.143,0,0,1,142.97,253.32ZM248.441,242.8c-.8,36.782-17.756,57.809-27.621,66.972,6.522-38.805-12.27-40-15.988-70.538a64.106,64.106,0,0,0,28.646-21.608,210.141,210.141,0,0,0,15.244,23.9A3.422,3.422,0,0,0,248.441,242.8ZM211.579,56.276c17.6,25.435,40.208,19.061,54.231,15.11a12.475,12.475,0,0,1,14.722,5.154c26.3,43.037,35.513,115.931,29.233,161.541-4.755,34.538.688,57.449,4.59,68.458-21.9-8.794-31.808-23.21-36.288-34.275a79.919,79.919,0,0,0-13.906-22.558C212.221,187.878,206.055,116.389,211.579,56.276ZM229.86,210.759c-30.893,47.026-105.134,24.756-105.063-31.537-.587-40.3,43.1-69.447,80.336-52.4C208.168,151.38,215.05,181.326,229.86,210.759ZM188.712,92.352a50.172,50.172,0,0,0,8.923-16.022,129.614,129.614,0,0,1,6.547-16.214,312.53,312.53,0,0,0,.091,58.9,63.562,63.562,0,0,0-27.416-3.744A59.057,59.057,0,0,1,188.712,92.352ZM168.555,69.433c6.43-14.97,6.021-31.313-1.078-45.083l2.423-1.6a6.521,6.521,0,0,1,9.1,1.958c14.083,21.816-5.973,50.818-3.128,74.32a61.111,61.111,0,0,0-6.232,16.751C159.764,101.221,160.753,87.961,168.555,69.433Z" style="fill:#2b2b2b"/><path d="M178.358,225.591c4.024,3.94,4.439-1.427,10.7-.407,4.481.783,5.764-5.864,1.308-6.8C182.66,217.122,175.306,221.344,178.358,225.591Z" style="fill:#2b2b2b"/></svg>