<svg id="icons" xmlns="http://www.w3.org/2000/svg" viewBox="0 0 340 340"><title>47_apple</title><path d="M139.6,77.366C105.328,68.285,13.4,87.5,14.23,171.462,15.246,204.918,25.164,261.047,57.787,303c0,0,23.23,26.655,70,6.748,56.268-23.952,115.835-67.645,121.97-138.4C254.722,107.194,225.225,84.558,139.6,77.366Z" style="fill:#f7616c"/><path d="M252.235,114.84c-11.951-23.724-48.063-48.6-112.631-37.474l-1.229,11.567c-12.106,1.007-20.636-.887-28.643.825-8.317,1.5-11.428,12.483-5.151,18.14,8.888,8.936,24.789,12.773,37.979,12.507a71.1,71.1,0,0,0,22.541-3.5,23.626,23.626,0,0,1,24.36,5.764c7.839,8.129,16.441,21.768,20.5,45.008a42.066,42.066,0,0,1-27.387,46.688c-19.564,7.068-42.6,21.705-47.614,51.809a64.68,64.68,0,0,1-14.909,32.174c-10.647,12.117-40.825,21.646-62.243,4.645a150.832,150.832,0,0,0,12.463,14.174c13.393,13.577,35.062,13.185,49.833,1.623a15.111,15.111,0,0,1,17.166-.726c12.52,7.936,32.339,14.18,47.72,4.586,23.231-13.5,67.566-52.083,77.164-162.779C263.337,146.191,258.411,127.1,252.235,114.84Z" style="fill:#b73d49"/><path d="M159.776,87.765c4.083-43.246,42.992-93.8,118.125-69.22,0,0,7.782,2.642,14.708,2.321a1.908,1.908,0,0,1,1.815,2.7C287.165,39.529,249.138,111.107,159.776,87.765Z" style="fill:#80b297"/><path d="M195,240.623l9.679-6.247c39.831-9.327,69.5-25.99,80.717-74.408,8.947-10.439,26.068-8.345,31.75,4.5,7.8,17.632,13.388,43.718,4.555,77.532-17.667,67.629-90.54,73.15-90.54,73.15s-39.651,7-47.755-30.088C176.224,252.217,195,240.623,195,240.623Z" style="fill:#ffeac5"/><path d="M195,240.623c-20.252,37.079.976,73.656,45.025,70.264,30.092-2.391,44.588-17.668,60.646-29.55,0,0-21.857,42.919-72.1,46.183,0,0-46.8,3.157-59.24-30.1C154.692,258.322,195,240.623,195,240.623Z" style="fill:#f7616c"/><path d="M285.392,159.969s-27.3,59.19-80.719,74.406a13.347,13.347,0,0,1,5.72,2.874c9.224,7.875,22.724,32.4,53.547,17.549,14.128-6.806,20.788-17.487,23.857-27.062a49.6,49.6,0,0,0,.869-26.445C286.643,192.655,283.319,175.1,285.392,159.969Z" style="fill:#ebb699"/><path d="M267.043,222.649a3.873,3.873,0,0,0-5.182-4.64c-3.239,1.021-10.531,7.625-10.65,13.974.074,2.3,1.111,5.559,5.957,6.227,5.543.765,7.837-8.283,7.837-8.283Z" style="fill:#2b2b2b"/><path d="M82.572,167.169c0,11.126-8.388,20.145-18.735,20.145-24.817-.965-24.81-39.33,0-40.291C74.184,147.023,82.572,156.043,82.572,167.169Z" style="fill:#ffe9e9"/><path d="M131.3,115.182l10.237,1.841c5.826-47.655-7.922-82.478-16.772-94.441a8.453,8.453,0,0,0-11.716-1.858L102.33,28.378C129.038,48.184,131.286,99.627,131.3,115.182Z" style="fill:#bc8875"/><path d="M122.113,321.5a11.688,11.688,0,0,1,13.338-.593c16.372,10.192,37.222,14.864,54.372,2.751,57.09,25.131,103.659-19.178,113.633-40.372,30.676-31.519,30.917-93.323,16.771-120.179-6.236-14.865-27.223-17.7-37.4-5.334-.99,1.311-6.8,14.7-20.91,31.822,7.141-35.74,5.145-77.867-29.035-101.038A108.681,108.681,0,0,0,267.7,66.417C289.022,45.932,301.891,20,298.308,18.284a3.379,3.379,0,0,0-3.269-1.105c-6.437,1.375-15.96-1.8-16.1-1.848-52.577-17.872-104.5,1.248-119.331,56.27-4.012.253-8.119.651-12.272,1.192-3.269-25.659-12.9-42.813-19.858-52.219a11.893,11.893,0,0,0-16.393-2.6l-10.716,7.655a3.376,3.376,0,0,0-.049,5.459c12.6,9.341,19.487,25.5,23.239,41.211-49.119-3.7-115.519,33.46-112.7,99.262C8.083,212.035,51.715,370.705,122.113,321.5Zm106.224,2.653c-.443.029-44.449,2.566-55.853-27.913-9.328-24.931,5.138-40.7,15.193-48.167-21.844,74.984,54.731,74.927,99.2,46.639C276.08,306.858,256.921,322.3,228.337,324.152Zm60.285-162.717c7.127-7.788,21.446-5.579,25.432,4.4,13.188,24.923,13.121,83.474-15.657,112.978-39.926,33.805-133.013,48.258-101.237-36.542,1.515-.9,4.88-2.842,8.393-4.473,12.065,9.267,18.969,24.644,40.13,25.054,18.806.035,40.188-15.188,45.329-34.088a52.976,52.976,0,0,0,.941-28.245C289.947,191.961,286.911,175.677,288.622,161.435Zm-7.192,12.671a151.294,151.294,0,0,0,3.949,27.955c4.842,19.936-3.889,41-22.9,49.7-27.352,12.421-36.975-4.828-49.465-16.7C248.232,221.3,270.835,191.3,281.43,174.106ZM242.441,15.679a118.672,118.672,0,0,1,34.374,6.061,52.839,52.839,0,0,0,13.555,2.506c-20.676,44.557-69.385,75.967-124.6,61.493a123.578,123.578,0,0,1,21.408-20.027c11.807-5.812,15.852,3.582,28.255,3.361,2.8.06,6.907-.084,6.589-3.937a3.377,3.377,0,0,0-3.73-2.979,20.171,20.171,0,0,1-12.019-2.027,25.207,25.207,0,0,0-6.693-2.493c14.674-8.392,33.331-15.232,56.64-17.51a3.375,3.375,0,1,0-.656-6.719,158.517,158.517,0,0,0-28.03,5.247C231.725,27.685,231.425,20.2,242.441,15.679ZM171.826,58.2c11.517-24.84,32.381-39.128,58.092-41.9-6.766,6.492-5.962,20.513-13,25.823a138.365,138.365,0,0,0-18.256,8.289,23.616,23.616,0,0,1,5.5-11.233c3.107-3.149-1.485-7.863-4.714-4.834-.319.31-7.481,7.435-8.124,20.375a134.679,134.679,0,0,0-25.9,21.27A100.113,100.113,0,0,1,171.826,58.2ZM157.883,78.476c-.807,3.743-1.2,6.547-1.363,7.972A133.339,133.339,0,0,0,148.3,98.436a152.645,152.645,0,0,0-.282-18.924C151.348,79.076,154.648,78.722,157.883,78.476Zm-50-49.918,7.123-5.087a5.105,5.105,0,0,1,7.04,1.119c9.6,12.983,24.62,41.744,18.064,89.024q-2.61-.085-5.4-.362C134.913,99.3,133.606,51.555,107.885,28.558ZM45.138,106.422c28.152-25.334,61.318-28.15,79.868-27.309a182.829,182.829,0,0,1,2.96,33.131,38.453,38.453,0,0,1-18.775-9.278,3.883,3.883,0,0,1,1.849-6.584c2.942-.748,7.862.147,7.723-4.209-.531-4.564-5.906-2.9-9.031-2.415-8.279,1.422-11.43,12.567-5.151,18.14,8.89,8.942,24.788,12.769,37.979,12.507,27.1,0,40.951-13.6,41.6-14.258a3.376,3.376,0,0,0-4.784-4.765c-.527.522-10.879,10.519-31.4,12.068A119.784,119.784,0,0,1,161.12,91.57c21.915,5.45,43.682,5.712,63.582-.224,10.959,6.5,19.655,15.359,24.518,25.012,5.645,11.206,10.745,29.65,9.568,43.217a390.481,390.481,0,0,1-5.4,39.587c-12.4,12.843-28.754,25.359-49.016,31.786a97.038,97.038,0,0,0-11.467,6c-3.208,1.583-41.728,21.613-26.746,61.653a43.465,43.465,0,0,0,16.946,21.228c-13.553,8.432-31.8,3.126-44.024-4.618a18.394,18.394,0,0,0-20.992.86c-13.195,10.509-33.5,11.106-45.438-1.3-38.545-38.5-53.71-99.326-55.049-143.416A83.678,83.678,0,0,1,45.138,106.422Z" style="fill:#2b2b2b"/></svg>