<svg id="icons" xmlns="http://www.w3.org/2000/svg" viewBox="0 0 340 340"><title>48_lemon</title><path d="M146.693,75.829H129.477V16.71A8.608,8.608,0,0,1,138.085,8.1h2.9a5.709,5.709,0,0,1,5.71,5.71Z" style="fill:#3e6a51"/><path d="M221.275,168.354c-11.991-30.238-32.487-49.1-47.294-64.668a45.185,45.185,0,0,1-10.444-17.863l-4.3-13.984a8.427,8.427,0,0,0-12.686-4.365,15.333,15.333,0,0,1-16.928,0,8.427,8.427,0,0,0-12.686,4.365l-4.3,13.984a45.178,45.178,0,0,1-10.444,17.863L48.537,233.063c8.126,34.019,34.071,55.731,49.525,65.994a87.241,87.241,0,0,1,18.728,17.026c11.239,13.513,21.3,11.983,21.3,11.983s10.056,1.53,21.294-11.983a87.289,87.289,0,0,1,18.728-17.026C201.766,283.346,250.008,240.805,221.275,168.354Z" style="fill:#ffd066"/><path d="M110.708,90.948h0a45.128,45.128,0,0,1-8.514,12.737C69.121,134.64,36.3,182.23,48.542,233.062,126.193,203.517,110.708,90.948,110.708,90.948Z" style="fill:#ed9d3e"/><path d="M103.175,67.8c.689,38.767-6.211,132.016-87.206,144.112C-16.4,136.017,55.089,58.12,113.594,35.323A53.076,53.076,0,0,0,103.175,67.8Z" style="fill:#80b297"/><path d="M331.664,250.329a81.78,81.78,0,0,1-81.78,81.779c-108.363-4.009-108.333-159.566,0-163.559A81.78,81.78,0,0,1,331.664,250.329Z" style="fill:#fff7e1"/><path d="M313.086,250.329a62.952,62.952,0,0,1-6.573,28.1,8.729,8.729,0,0,0-3.42,6.023,63.164,63.164,0,0,1-49.747,28.988,7.2,7.2,0,0,0-6.925,0,63.166,63.166,0,0,1-49.747-28.988,7.616,7.616,0,0,0-3.419-6.023c-8.687-16.694-8.687-39.5,0-56.2a8.678,8.678,0,0,0,3.419-6.023,63.165,63.165,0,0,1,49.747-28.987c2.521.877,4.9,1.169,6.925,0a63.166,63.166,0,0,1,49.748,28.987,7.584,7.584,0,0,0,3.419,6.024A62.946,62.946,0,0,1,313.086,250.329Z" style="fill:#ffe18d"/><path d="M86.089,245.848a3.463,3.463,0,0,1-3.942-2.2,15.862,15.862,0,0,0-2.891-4.747c-3.044-3.353,1.842-7.994,5.025-4.763C84.908,234.761,92.837,244.012,86.089,245.848Z" style="fill:#ed9d3e"/><path d="M107.371,252.59a3.461,3.461,0,0,1-4.086-2.7,7.264,7.264,0,0,0-1.782-3.525,3.462,3.462,0,0,1,4.6-5.175C106.891,241.452,113.82,250.909,107.371,252.59Z" style="fill:#ed9d3e"/><path d="M99.432,273.4a3.469,3.469,0,0,1-4.147-3.087,7.6,7.6,0,0,0-1.956-4.079,3.463,3.463,0,1,1,4.8-5C98.878,261.448,106,271.614,99.432,273.4Z" style="fill:#ed9d3e"/><path d="M306.5,278.421l-49.592-28.092L306.5,222.237a63.254,63.254,0,0,0-3.422-6.02l-49.732,28.172V187.224a62.007,62.007,0,0,0-6.925,0v57.164L196.69,216.217a63.038,63.038,0,0,0-3.422,6.02l49.592,28.092-49.592,28.092a62.9,62.9,0,0,0,3.422,6.019l49.731-28.171v57.164a62.007,62.007,0,0,0,6.925,0V256.269l49.732,28.171A63.238,63.238,0,0,0,306.5,278.421Z" style="fill:#fff7e1"/><path d="M232.977,225.459c2.479,3.833,8.215.245,5.883-3.651l-2.312-3.725a3.462,3.462,0,1,0-5.883,3.651Z" style="fill:#ed9d3e"/><path d="M263.78,226.576a3.465,3.465,0,0,0,4.768-1.117l2.311-3.725c2.335-3.906-3.42-7.479-5.883-3.651l-2.312,3.725A3.463,3.463,0,0,0,263.78,226.576Z" style="fill:#ed9d3e"/><path d="M237.744,272.379a3.461,3.461,0,0,0-4.767,1.117l-2.312,3.725c-2.33,3.9,3.4,7.485,5.883,3.651l2.312-3.725A3.462,3.462,0,0,0,237.744,272.379Z" style="fill:#ed9d3e"/><path d="M268.548,273.5c-2.463-3.826-8.219-.257-5.883,3.651l2.311,3.725c2.48,3.833,8.215.246,5.883-3.651Z" style="fill:#ed9d3e"/><path d="M221.476,252.751a3.462,3.462,0,0,0,0-6.924h-4.059a3.462,3.462,0,1,0,0,6.924Z" style="fill:#ed9d3e"/><path d="M279.411,245.827a3.462,3.462,0,0,0,0,6.924h4.059a3.462,3.462,0,0,0,0-6.924Z" style="fill:#ed9d3e"/><path d="M185.971,145.186c2.374,8.455-1.4,16.91-8.427,18.883-17.045,4.025-25.242-25.192-8.6-30.621C175.976,131.475,183.6,136.73,185.971,145.186Z" style="fill:#fff7e1"/><path d="M16.48,215.34a100,100,0,0,0,26.148-7.5c-1.825,49.582,32.447,80.1,53.519,94.1A83.985,83.985,0,0,1,114.128,318.3c10.726,12.487,19.266,13.291,23.957,13.246,2.442.174,12.92.024,23.956-13.246A84.74,84.74,0,0,1,181.4,301.015c48.074,65.282,153.531,31.462,153.729-50.688.939-56.187-56.672-98.665-109.992-81.564-12.047-31.3-31.263-49.278-48.644-67.463a41.957,41.957,0,0,1-9.644-16.495l-4.3-13.984a11.839,11.839,0,0,0-12.389-8.166V13.812a9.182,9.182,0,0,0-9.172-9.172h-2.9a12.084,12.084,0,0,0-12.012,10.908,154.725,154.725,0,0,1-14.22,16.7c-16.76,2.623-93.479,55.6-104.129,112.771-6.546,24.129-.574,57.169,5.1,68.331A3.467,3.467,0,0,0,16.48,215.34Zm233.405-43.329c103.662,3.684,103.619,152.975,0,156.635C146.23,324.967,146.256,175.674,249.885,172.011ZM132.939,16.71a5.152,5.152,0,0,1,5.146-5.146c1.926.061,5.027-.6,5.146,2.248v51.57a11.84,11.84,0,0,1-10.292,0Zm-17,21.284c4.236-4.377,7.56-8.125,10.073-11.124V62.654a11.84,11.84,0,0,0-12.388,8.167c-1.829,5.511-4.693,17-7.689,21.9C107.874,71.678,103.194,55.283,115.941,37.994Zm4.3,34.864c.848-3.026,4.93-4.306,7.466-2.5a18.767,18.767,0,0,0,20.75,0,5.031,5.031,0,0,1,4.508-.534,4.688,4.688,0,0,1,2.957,3.031l4.3,13.983a48.9,48.9,0,0,0,11.244,19.231c16.876,17.681,35.535,35.033,47.128,64.988-47.935,17.6-69.733,80.583-41.093,124.227a91.571,91.571,0,0,0-20.789,18.582c-9.663,11.617-17.828,10.806-18.112,10.775-1.954-.259-8.5,1.533-19.154-10.775a90.837,90.837,0,0,0-19.475-17.7c-20.377-13.532-53.859-43.42-50.2-91.9,36.785-20.574,50.256-62.926,54.795-98.09C113.665,97.4,116.706,84.494,120.244,72.858ZM94.565,123.422c-2.343-8.779-6.362-16.321-9.878-22.89-5.03-8.158-6.151-15.644-4.392-19.843,7.685-10.57,14.953-19.542,20.888-26.481a56.016,56.016,0,0,0-1.47,13.656C99.958,81.67,99.227,102.22,94.565,123.422ZM33.751,105.014C58.2,71.809,83.815,54.137,99.506,45.578,93.036,52.945,84.379,63.36,75.1,76.088a3.443,3.443,0,0,0-.914,1.264c-4.009,5.541-8.121,11.5-12.213,17.822-3.752,5.944-8.8,10.885-15.538,13.484a76.08,76.08,0,0,0-24.295,15.694A118.454,118.454,0,0,1,33.751,105.014ZM14.2,147.457c8.815-19.25,23.889-27.957,36.054-32.929-12.276,21.811-22.424,44.9-28.326,69.867a3.462,3.462,0,1,0,6.742,1.579,230.046,230.046,0,0,1,12.14-36.753A45.764,45.764,0,0,0,43.3,159.407a91.988,91.988,0,0,1,5.05,22.767c.5,4.523,7.24,3.9,6.894-.641A98.975,98.975,0,0,0,49.794,157a39.813,39.813,0,0,1-.27-26.513A361.25,361.25,0,0,1,73.166,90.805c.671,4.041,3.176,8.971,5.416,12.995,5.391,10.071,12.08,22.589,10.891,38.008-10.487,30.766-31.188,59.17-71.325,66.245C12.5,194.809,9.3,166.037,14.2,147.457Z" style="fill:#2b2b2b"/><path d="M249.884,316.993a66.74,66.74,0,0,0,66.664-66.664c-3.131-88.232-130.211-88.21-133.329,0A66.74,66.74,0,0,0,249.884,316.993Zm0-126.4a59.808,59.808,0,0,1,59.74,59.741c-2.807,79.067-116.686,79.046-119.48,0A59.807,59.807,0,0,1,249.884,190.588Z" style="fill:#2b2b2b"/></svg>