<svg id="icons" xmlns="http://www.w3.org/2000/svg" viewBox="0 0 340 340"><title>49_pear</title><path d="M162.547,74.36c8.465-48.227,51.437-82.347,124.206-56.48-.319,17.09-19.036,47.766-58.206,51.921-8.733,1.012-21.478,1.867-31.86.031C184.425,67.665,165.761,72.213,162.547,74.36Z" style="fill:#80b297"/><path d="M113.865,39.223s23.525,30.858,22.3,62.632l15.276-3.361s3.085-34.7-15.739-62.845a9.275,9.275,0,0,0-12.915-2.488Z" style="fill:#7f4c45"/><path d="M148.432,92.517c-15.507,4.214-31.7,14.567-36.39,31.659-3.113,10.273-8.783,27.772-15.387,42.505a83.855,83.855,0,0,1-16.632,24.53C50.53,218.244,35.142,291.357,90.577,318.934c76.819,19.988,110.693-22.87,127.2-91.139L174.409,98.628A27.367,27.367,0,0,0,148.432,92.517Z" style="fill:#aecc76"/><path d="M75.531,238.153c-3.2-3.353,1.71-8.19,5.018-4.948C83.744,236.558,78.838,241.4,75.531,238.153Z" style="fill:#84994a"/><path d="M91.812,221.338c-3.195-3.353,1.71-8.19,5.018-4.948C100.025,219.743,95.12,224.58,91.812,221.338Z" style="fill:#84994a"/><path d="M93.814,247.9c-3.2-3.353,1.71-8.19,5.017-4.948C102.027,246.3,97.121,251.137,93.814,247.9Z" style="fill:#84994a"/><path d="M200.33,160.578c-2.866-14.612-10.956-37.313-20.277-54.7a27.2,27.2,0,0,0-5.649-7.25l7.968,73.2a47.919,47.919,0,0,0,9.961,24.651,21.694,21.694,0,0,1,1.032,24.924l-45.2,70.636S127.916,322.4,90.578,318.931c21.707,11.948,43.489,12.418,67.541,11.9l80.816-97.447S241,216.06,212.788,185.393A51.118,51.118,0,0,1,200.33,160.578Z" style="fill:#84994a"/><path d="M173.269,302.734l18.068-33.513c9.595-7.521,12.73-15,17.469-32.4l55.263-102.5s21.3,23.538,9.469,60.625a36.749,36.749,0,0,0-.782,20.019c9.549,33.494,1.481,72.843-26.894,89.119C217.92,319.2,190.6,322.722,173.269,302.734Z" style="fill:#ffeac5"/><path d="M256.081,310c22.074-21.47,23.131-53.5,20.138-76.608-.706,20.5-7.312,49.764-36.876,63.575-27.52,12.856-51.011,10.3-66.074,5.772l-15.15,28.1c30.956,0,51.221-2.05,62.824-3.784A63.761,63.761,0,0,0,256.081,310Z" style="fill:#aecc76"/><path d="M209.3,264.456c5.355-6.519,5.179-18.158,4.084-26.8a2.447,2.447,0,0,0-4.581-.84l-17.469,32.4C197.509,270.32,204.748,270,209.3,264.456Z" style="fill:#915351"/><path d="M229.017,235.421l.525,13.13c.468,12.361,20.366,15.844,17.748.42a10.893,10.893,0,0,0-3.8-6.858L233.159,233.4A2.519,2.519,0,0,0,229.017,235.421Z" style="fill:#915351"/><path d="M141.295,147.943c-1.68,8.327-7.371,14.2-12.71,13.126-12.657-3.236-6.829-32.084,6.086-30.154C140.01,131.992,142.976,139.616,141.295,147.943Z" style="fill:#ecf7d5"/><path d="M108.728,123.172c-5.32,16.74-14.961,50.483-31.174,65.612C27.585,240.2,43.231,333,139.356,334.3c26.375.576,71.1-1.335,82.1-3.822,58.46-9.215,66.828-71.929,54.661-116.34a33.336,33.336,0,0,1,.72-18.135c12.043-38.688-8.936-66.1-13.183-65.115a3.467,3.467,0,0,0-2.632,1.794L226.58,196.558c-10.193-13.659-19.027-18.7-23.217-38.422-3.387-15.8-11.718-37.96-20.258-53.889a30.994,30.994,0,0,0-25.726-16.188,74.885,74.885,0,0,1,7.491-11.042c3.5-1.735,20.1-5.742,31.214-3.775,10.748,1.9,23.8,1.048,32.863,0,38.987-3.867,61.013-35.159,61.266-55.271a3.46,3.46,0,0,0-2.327-3.361c-59.715-21.883-116.227-4.435-128.62,58.361q-2.643,3.273-4.9,6.7c-.84-9.842-11.063-63.145-33.524-49.373l-8.926,6.063a3.484,3.484,0,0,0-.808,4.962c.2.262,19.6,26.083,21.481,53.855C121.282,100.948,112.414,110.72,108.728,123.172ZM228.15,66.362c-8.6,1-20.934,1.816-30.86.061-6.984-1.235-15.865-.456-23.218.941,11.369-10.286,25.142-17.83,38.27-23.292,18.612.931,15.425,14.67,30.087,19.233A75.448,75.448,0,0,1,228.15,66.362Zm-27.2-44.747c25.528-13.7,53.854-10.155,82.088-1.337-.926,6.328-5.2,23.214-24.751,35.627-1.88.759-15.074,5.543-22.642-6.217A26.287,26.287,0,0,0,223.89,39.7a202.813,202.813,0,0,1,35.217-8.773c4.5-.653,3.644-7.373-.878-6.868-.414.053-5.361.7-13.021,2.4a16.985,16.985,0,0,0,1.345-3.639c.991-4.441-5.593-6.03-6.731-1.62-.586,2.431-2.409,5.874-7.705,8.585a199.051,199.051,0,0,0-32.339,12.3A32.333,32.333,0,0,0,200.95,21.615Zm-24.7,25.306a69.2,69.2,0,0,1,18.575-21.3c1.049,5.662.971,16.1-10.24,25.013A122.373,122.373,0,0,0,169.24,62.421,88.954,88.954,0,0,1,176.25,46.921Zm77.417,260.592c-21.709,20.608-49.544,18.126-89.735,19.834L175,306.822c28.894,9.256,84.137-1.875,98.013-40.412C271,281.156,265.515,295.99,253.667,307.513Zm10.846-166.72c5.086,7.98,14.046,27.013,5.725,53.1a40.261,40.261,0,0,0-.843,21.9,161.782,161.782,0,0,1,3.353,17.727c-.754,20.493-7.436,47.484-34.87,60.3-24.194,11.3-45.124,10.241-59.493,6.716l14.856-27.556c25.707,3,26.3-24.484,22.6-41.909ZM196.861,266.271l13.444-24.935C211.055,254.958,209.817,265.937,196.861,266.271ZM118.741,40.1l5.994-4.071a5.8,5.8,0,0,1,4.4-.9,5.729,5.729,0,0,1,3.694,2.45c12.146,18.16,14.854,39.148,15.276,51.451a74.685,74.685,0,0,0-8.822,3.011C136.869,68.624,123.929,47.676,118.741,40.1Zm30.644,55.75A24,24,0,0,1,177,107.519c8.27,15.421,16.325,36.832,19.591,52.068,1.809,8.439,6.226,20.137,13.2,27.662a155.909,155.909,0,0,1,13.139,16.081L156.051,327.372c-19.89.528-40.9-.181-58.639-8.918-59.041-24.636-44.144-98.212-14.919-124.815,17.031-15.733,27.3-50.813,32.862-68.46C120.075,109.194,133.772,100.334,149.385,95.846Z" style="fill:#2b2b2b"/><path d="M231.2,259.193c8.822,7.092,21.809,3.224,19.524-10.681a14.33,14.33,0,0,0-5-9.045l-14.7-12.408a3.486,3.486,0,0,0-5.693,2.785l.753,18.846A14.587,14.587,0,0,0,231.2,259.193Zm10.057-14.434c3.748,2.853,3.622,11.012.324,10.842A7.563,7.563,0,0,1,233,248.413l-.44-10.992Z" style="fill:#2b2b2b"/></svg>