<svg id="icons" xmlns="http://www.w3.org/2000/svg" viewBox="0 0 340 340"><title>50_banana</title><path d="M308.337,88.177l-6.29,11.1A35.8,35.8,0,0,0,297.4,117.4c3.758,94.543-63.952,228.238-171.319,198.5,0,0-43.048-8.734-46.168-52.406L292.973,76.635Z" style="fill:#ed9d3e"/><path d="M255.633,56.831A20.907,20.907,0,0,1,241.7,62.913c-7.091.205-19.211,3.888-33.42,22.067-22.734,29.087-61.851,47.141-96.622,26.413A122.088,122.088,0,0,1,74.144,76.016c-5.4-7.879-14.861-11.468-24.342-10.092l-25.409,7.69s-10.03,17.05,2.674,48.812c0,0,35.1,57.461,120.694,49.626,59.657-5.461,100.147-55.357,119.206-85.091C266.409,74.363,262.976,64.045,255.633,56.831Z" style="fill:#ffd066"/><path d="M190.073,138.641C105.117,175.833,49.8,112.2,49.8,112.2c-8.824-12.3-21.4-11.09-28.264-9.2a91.725,91.725,0,0,0,5.529,19.432s35.025,56.524,120.694,49.626c21.342-1.718,37.841-11.359,49.708-21.776C203.476,145,197.394,135.436,190.073,138.641Z" style="fill:#ed9d3e"/><path d="M241.7,62.913c-10.256-.089-23.515,8.394-37.385,26.834-5.522,57.726-60.089,60.346-60.089,60.346l4.722,21.837c59.008-6.008,99.091-55.432,118.024-84.969-.558-12.6-3.991-22.916-11.334-30.13A20.907,20.907,0,0,1,241.7,62.913Z" style="fill:#ed9d3e"/><path d="M279.488,64.921,264.443,48.2l-8.81,8.627L266.965,86.96A208.632,208.632,0,0,0,279.488,64.921Z" style="fill:#ed9d3e"/><path d="M225.678,116.334c-49.467,55-118.982,56.677-184.959,6.464l-7.874,3.4A29.668,29.668,0,0,0,15.03,155.309,91.417,91.417,0,0,0,31.749,202.5s132.493,5.795,133.8,6.112C182.066,212.6,262.627,124.678,225.678,116.334Z" style="fill:#ffd066"/><path d="M212.648,163.2c-48.639,34.706-94.443,30.732-125.492,13.935C64.819,164.5,48.871,168.105,42,170.891a9.831,9.831,0,0,1-8.123-.284,15.31,15.31,0,0,0-10.852-1.078l-5.615,1.524A92.327,92.327,0,0,0,31.749,202.5s132.478,5.866,133.8,6.112c22.587,4.173,44.4-13.026,58.919-33.848C229.917,166.96,220.313,157.556,212.648,163.2Z" style="fill:#ed9d3e"/><path d="M261.448,72.292c-15.068,14.5-19.978,27.474-36.029,44.315.423,14.422-2.959,44.917-36.3,60.767-17.784,8.455-25.132,20.1-27.544,31.042,2.676.127,4.118.2,3.973.2-1.14,0,75.259-45.414,107.769-104.762C274.327,89.322,270.175,78.958,261.448,72.292Z" style="fill:#ed9d3e"/><path d="M275.647,57.807l-14.2,14.485,11.87,31.558a117.744,117.744,0,0,0,12.7-33.808Z" style="fill:#ed9d3e"/><path d="M40.719,122.8s1.756,8.791-8.814,13.948c-9.827,4.793-13.9,3.619-13.9,3.619l-1.018-11.276A12.814,12.814,0,0,1,23.6,117.25C29.929,113.589,36.075,118.584,40.719,122.8Z" style="fill:#2b2b2b"/><path d="M267.23,87.669A68.979,68.979,0,0,0,256.1,107.5c-8.286,23.148-35.286,76.256-111.609,91.09-25.677,4.991-45.939.138-61.865-9.763-15.915-9.948-39.7-13.226-54.829.5-16.362,16.054-8.027,41.369,1.235,52.174s40.133,43.837,116.077,32.106c72.78-11.242,129.115-79.19,133.683-155.206C277.5,105.543,274.128,94.81,267.23,87.669Z" style="fill:#ffd066"/><path d="M291.639,83.382l-7.3-15.375c-1.28,1.5-16.388,18.63-17.109,19.663l11.561,30.736a53.339,53.339,0,0,1,5.645-20.636Z" style="fill:#ed9d3e"/><path d="M18.626,185.526c4.172-3.505,7.94-6.359,13.7-4.752l4.362,1.231a3.554,3.554,0,0,1,2.137,5.146c-2.785,5.061-8.786,13.349-18.967,15.351a28.277,28.277,0,0,1-3.226-12.638A5.247,5.247,0,0,1,18.626,185.526Z" style="fill:#2b2b2b"/><path d="M255.8,44.493l35.839,38.889,19.895-32.744L283.305,23.406a10.718,10.718,0,0,0-14.4-.437L256.451,33.6A7.572,7.572,0,0,0,255.8,44.493Z" style="fill:#ffd066"/><path d="M311.534,50.638,291.639,83.382l11.884,11.395a6.511,6.511,0,0,0,10.229-1.6L323.8,74.641a10.657,10.657,0,0,0-1.522-12.124Z" style="fill:#ed9d3e"/><path d="M49.8,65.924c-4.189-3.594-7.828-8.566-14.093-6.365l-3.387,1.184c-6.083,2.15-6.632,7.427-7.929,12.871C24.393,73.614,40.614,80.073,49.8,65.924Z" style="fill:#2b2b2b"/><path d="M65.857,227.072c5.285,6.6,5.666,15.074.85,18.931-11.951,8.721-30.256-14.14-19.138-23.893C52.384,218.253,60.572,220.475,65.857,227.072Z" style="fill:#fff7e1"/><path d="M57.531,146.474c3.591,4.482,3.849,10.24.578,12.86-8.086,5.947-20.569-9.643-13-16.231C48.379,140.482,53.941,141.992,57.531,146.474Z" style="fill:#fff7e1"/><path d="M148.723,222.518a3.523,3.523,0,0,1,6.884,1.5A3.523,3.523,0,0,1,148.723,222.518Z" style="fill:#2b2b2b"/><path d="M11.574,155.524a93.963,93.963,0,0,0,5.642,26.707c-1.334,1.18-4.165,2.625-4.048,4.735a34.8,34.8,0,0,0,3,15.919c-7.225,38.88,28.975,63.256,62.156,72.377,12.871,44.917,60.357,50.306,90.343,47.033,96.447-9.731,136.474-145.648,132.2-204.942a32.909,32.909,0,0,1,4.88-17.571A9.983,9.983,0,0,0,316.8,94.83l10.069-18.573a14.167,14.167,0,0,0-2.017-16.063L314.1,48.315c-.113-.149-28.245-27.242-28.391-27.4a14.127,14.127,0,0,0-19.053-.579L254.2,30.971a11.085,11.085,0,0,0-.95,15.868h0l3.621,3.929c-4.272,4.507-8.893,8.658-15.28,8.683-8.29.241-21.274,4.5-36.048,23.4-41.426,50.605-94,41.371-128.556-8.8-5.67-8.485-16.142-12.731-26.043-11.739-6.64-6.525-10.758-8.59-19.769-4.83-7.128,2.566-8.662,8.177-10.047,14.9-1.48,2.882-7.9,17.56-.36,42.557-9.46,6.758-7.128,14.988-6.3,24.839A33.356,33.356,0,0,0,11.574,155.524ZM20.067,188.8c6.683-5.437,7.349-6.125,15.777-3.433-2.207,4.028-6.739,10.5-14.057,13.038A28.68,28.68,0,0,1,20.067,188.8Zm11.594,50.456c-6.526-7.614-11.626-21.771-8.951-33.891C36.5,201.42,42.668,187.6,43.788,184.8c12.447-2.718,25.564-.2,37.011,6.968,18.777,11.934,42.153,14.739,64.354,10.222C206.6,190.05,236.837,153.6,251,127.338c-7.126,41.387-35.559,74.067-78.877,88.455a3.463,3.463,0,0,0,2.263,6.545c63.031-21.369,85.166-72.974,85.206-114.262C263.343,96.538,273,86,281.062,77.013l6.411,6.957c-5.37,10.458-11.9,22.479-12.136,34.228-5.063,82.969-70.7,151.605-149.508,154.012C93.752,274.263,56.826,268.508,31.661,239.253Zm216.424,26.221c-29.118,42.321-82.118,59.265-120.89,47.141-1.126-.328-31.09-6.418-41.158-35.635a154.831,154.831,0,0,0,33.849,2.48c.585.245,3.83-.171,4.511-.19,4.827-.557,9.846-.02,14.054,2.5,13.606,8.623,39.2,10.557,59.73,3.8,4.33-1.35,2.45-7.851-1.952-6.643-25.347,7.446-42.488,2.722-51.645-1.741C218.24,266.384,277.468,198,282.249,118.614a49.606,49.606,0,0,1,5.285-19.294l5.1-10.188,7.248,6.95a39.948,39.948,0,0,0-5.94,21.361C294.267,143.026,290.451,208.66,248.085,265.474ZM319.713,64.84a7.206,7.206,0,0,1,1.046,8.151L310.708,91.53a3.065,3.065,0,0,1-4.789.748l-9.878-9.473,16.04-26.4ZM258.7,36.237,271.153,25.6a7.229,7.229,0,0,1,9.749.3l26.234,25.309L291.068,77.654,258.345,42.146h0A4.129,4.129,0,0,1,258.7,36.237ZM29.12,68.806c.832-3.868,4.436-4.927,7.733-5.979,3.442-1.326,5.975,1.447,8.26,3.55C39.725,72.367,32.5,72,28.542,71.195Zm-2.778,9.021c9.049,1.856,18.258.563,25.394-8.627,7.414-.712,15.3,2.386,19.561,8.787a126.3,126.3,0,0,0,38.583,36.379C144.934,135.643,186.958,118.3,211,87.112c13.809-17.668,25.22-20.577,30.793-20.739,8.089-.112,14.346-4.631,19.774-10.51l5.395,5.854c-9.13,9.1-18.949,19.042-26.054,29.935-13.787,20.507-47.7,61.545-99.016,64.25-46.636.114-81.78-30.589-88.675-66.217-.761-4.448-7.51-3.4-6.836,1.116.959,9,11.976,36.125,30.946,50.269a175.277,175.277,0,0,1-34.417-20.953c-3.781-3.381-9.757-8.376-15.619-7.531C21.923,94.509,24.629,82.665,26.342,77.827ZM25.27,120.282c4.346-2.691,9.139,1.735,12.113,4.166.225,7.059-10.093,11.312-16.218,12.416C20.745,130.669,18.609,124.11,25.27,120.282Zm-5.039,23.64c7.073-.389,20.916-5.921,23.228-14.735,77.642,54.782,151.526,41.63,203.2-33.672C253.4,85.1,263.03,75.5,271.664,66.816l4.678,5.076c-9.073,10.075-19.378,21.481-23.5,34.446-7.829,21.868-34.122,74.3-109.011,88.858-22.446,4.363-42.427,1.233-59.377-9.305-13.85-8.73-30.8-11.477-45.679-6.895-5.03-1.554-10.653-3.325-15.662-.809C19.866,167.59,16.224,154.7,20.231,143.922Z" style="fill:#2b2b2b"/><path d="M134.954,225.15a3.462,3.462,0,0,0-3.462-3.463c-27.015,0-42.046-.833-62.109-18.733-5.479-4.89-10.922-7.229-16.222-6.93a3.462,3.462,0,1,0,.382,6.914c3.34-.192,7.224,1.608,11.231,5.182,21.9,19.54,38.775,20.492,66.718,20.492A3.462,3.462,0,0,0,134.954,225.15Z" style="fill:#2b2b2b"/></svg>