<svg id="icons" xmlns="http://www.w3.org/2000/svg" viewBox="0 0 340 340"><title>52_coconut</title><path d="M78.106,84.226S10.2,105.491,7.133,205.614c-1.128,36.821,9.073,62.3,22.524,79.594,54.625,50.757,146.506,29.715,151.425-44.405,35.664-88.864,22.441-145.576-60.289-156.577Z" style="fill:#aecc76"/><path d="M161.784,86.764H78.106a64.841,64.841,0,0,0-10.8,4.911l-1.247,3.134s1.131,10.575,15.484,13.813a24.913,24.913,0,0,1,9.921,4.655c7.333,5.764,26.222,14.889,65.748,3.7h0c14.228-4.1,20.175,3.677,27.058,15.341a24.43,24.43,0,0,1-2.9,27.506c-18.186,21.559-58.183,76.724-41.247,127.955,2.073,6.158-2.809,12.289-9.181,12.377a25.7,25.7,0,0,1-18.954-5.721A120.247,120.247,0,0,1,90.723,271.71a2.872,2.872,0,0,0-5.105,2.468,83,83,0,0,0,8.028,18.655,6.362,6.362,0,0,1-4.513,9.594c-13.48,1.837-40.338-3.4-59.471-16.915,20.173,26.752,56.722,39.279,79.968,32.234a15.418,15.418,0,0,1,10.259.847c4.627,2.131,13.429,4.749,28.752,4.749,25.848,0,52.135-31.106,52.135-31.106l25.41-141.07S212.605,98.155,161.784,86.764Z" style="fill:#84994a"/><path d="M68.426,97.777c4.266,3.3,11.814,5.78,24.307,4.516,10.181,14.956,56.635,12.633,70.816-5.953a9.011,9.011,0,0,0-3.144-14.016c-16.639-7.664-54.553-20.27-91.056,1.869A8.294,8.294,0,0,0,68.426,97.777Z" style="fill:#84994a"/><path d="M47.817,12.976h5.332a10.506,10.506,0,0,1,9.827,6.976c2.095,5.7,7.075,13.357,18.905,16.747A27.568,27.568,0,0,1,97.845,48.828c3.006,4.949,9.892,10.782,19.933,13.609.629,6.22-1.089,11.285-5.512,15.02-8.525-2-18.5-6.43-25.394-16.053A27.6,27.6,0,0,0,72.494,51.079C61.807,47.834,46.069,38.682,47.817,12.976Z" style="fill:#aecc76"/><path d="M112.267,77.451a58.449,58.449,0,0,0,16.867,1.486V64.126a46.315,46.315,0,0,1-11.355-1.694C114.81,64.745,110.945,69.4,112.267,77.451Z" style="fill:#84994a"/><path d="M144.884,56.42A28.939,28.939,0,0,1,134.289,59.7c-5.251.642-12.463,3.159-13.287,12.048-1.035,13.111,11.24,15.583,19.967,12.484a14.322,14.322,0,0,1,6.758-2.669,38.819,38.819,0,0,0,8.806-5.9,20.572,20.572,0,0,1,4.445-3.047,5.638,5.638,0,0,1,4.708-1.7c6.3-1.03,11.236.008,18-4.621a10.041,10.041,0,0,1,6.1-4.711c5.511-3.3,11.635-6.024,17.111-8.607a10.1,10.1,0,0,1,5.675-2.518A325.934,325.934,0,0,1,250.419,36.9c2.349-1.821,4.594-2.84,6.586-1.879,5.629-1.564,10.722-2.882,15.22-4.1a13.508,13.508,0,0,0,9.836-10.953l.948-6.058a203.2,203.2,0,0,0-29.661,4.912c-1.614,1.726-4.5,2.288-8.218,2.075-6.084,1.648-12.62,3.673-19.391,6.156-2.154,1.8-4.425,2.98-6.975,2.693a192.982,192.982,0,0,0-26.988,13.418,46.034,46.034,0,0,1-10.624,4.686c-1.95,1.154-3.876,1.816-5.747,1.329a48.03,48.03,0,0,1-7.236.649A50.271,50.271,0,0,0,144.884,56.42Z" style="fill:#aecc76"/><path d="M40.229,254.586a3.454,3.454,0,0,1-2.792-1.413c-9.834-13.384-7.585-31.391-7.484-32.15a3.462,3.462,0,0,1,6.865.9c-.027.214-1.946,16.062,6.2,27.146A3.485,3.485,0,0,1,40.229,254.586Z" style="fill:#84994a"/><path d="M56.883,252.855a3.455,3.455,0,0,1-2.517-1.084c-5.494-5.818-6.016-14.91-6.035-15.295a3.462,3.462,0,0,1,6.915-.361h0c0,.07.433,6.96,4.154,10.9A3.485,3.485,0,0,1,56.883,252.855Z" style="fill:#84994a"/><path d="M73.231,246.944c-3.195-3.353,1.71-8.19,5.018-4.948C81.444,245.349,76.538,250.186,73.231,246.944Z" style="fill:#84994a"/><path d="M169.113,297.151c24.877,22.164,81.905,46.623,127.342,13.738a16.7,16.7,0,0,1,8.949-7.149,87.867,87.867,0,0,0,10.009-10.779c1.356-4.37,3.531-7.5,6.469-9.475a82.273,82.273,0,0,0,7.422-16.231,46.587,46.587,0,0,1,3.4-18.356,67.624,67.624,0,0,0-1.983-19.411c-13.631-54.832-55.593-79.046-55.593-79.046Z" style="fill:#bc8875"/><path d="M187.773,184.856s-35,45.045-30.462,87.5c3.381,31.63,30.687,34.836,44.39,34.415a13.641,13.641,0,0,0,11.009-6.09c4.733-7.2,14.289-19.249,26.034-20.857a19.6,19.6,0,0,0,10.616-4.808C262.4,263.137,294,230.868,293.742,197.17a91,91,0,0,0-3.854-26.567c-6.578-21.046-29.516-32.366-50.371-25.2C224.679,150.5,206.107,161.535,187.773,184.856Z" style="fill:#7f4c45"/><path d="M231.443,166.217s-43.824,24.137-54.607,84.055c-1.633,9.234-1.132,18.672,2.886,27.33,5.51,11.939,22.3,13.94,30.5,3.564,4.109-25.664,35.324-60.817,65.238-95.514-3.913-24.738-20.656-25.026-20.656-25.026S244.8,158.113,231.443,166.217Z" style="fill:#fff"/><path d="M215.628,289.519s8.362,6.77,18.638,13.724a3.369,3.369,0,0,1-2.824,6.027,50.861,50.861,0,0,1-21.57-12.384Z" style="fill:#7f4c45"/><path d="M305.393,303.728c-38.074-3.414-63.782-31.235-63.782-31.235l-10.176,4.2s26.621,29.744,65.017,34.188A88.4,88.4,0,0,0,305.393,303.728Z" style="fill:#7f4c45"/><path d="M321.87,283.479a27.8,27.8,0,0,0-11.526-10.253,2.933,2.933,0,0,0-3.573,4.444c3.4,4.469,6.837,9.969,8.63,15.281A87.79,87.79,0,0,0,321.87,283.479Z" style="fill:#7f4c45"/><path d="M269.692,247.518a151.752,151.752,0,0,1,17.016,12.539,2.372,2.372,0,0,0,3.826-2.423c-1.713-6.248-5.475-15.283-13.578-21.334Z" style="fill:#7f4c45"/><path d="M329.3,267.254a68.709,68.709,0,0,0,3.4-18.355c-11.222-29.364-42.074-48.447-42.074-48.447l-2.93,13.639S318.871,230.172,329.3,267.254Z" style="fill:#7f4c45"/><path d="M246.61,315.483c-3.2-3.353,1.71-8.19,5.017-4.948C254.823,313.888,249.917,318.725,246.61,315.483Z" style="fill:#7f4c45"/><path d="M244.494,257.61c14.153-12.808,37.082-42.787,30.952-71.956-7.113-.436-16.111,1.968-27.488,9.1-36,22.58-47.339,63.171-37.755,86.395a18.561,18.561,0,0,0,2.491-3.976,30.063,30.063,0,0,1,17.985-12.268A29.369,29.369,0,0,0,244.494,257.61Z" style="fill:#e9eff4"/><path d="M289.7,185.5a104.032,104.032,0,0,1,12.353,10.217,1.9,1.9,0,0,0,3.048-2.137c-3.476-7.876-9.383-14.513-16.692-22.05Z" style="fill:#7f4c45"/><path d="M63.559,175.016C61.311,185.256,52.381,192,43.614,190.073c-20.832-5.477-13.064-40.836,8.139-37.082C60.52,154.915,65.806,164.776,63.559,175.016Z" style="fill:#e8f4c9"/><path d="M62.106,315.518c17.82,8.24,36.471,9.733,52.772,4.268,3.684,2.468,13.256,7.017,33.763,7.017,10.873,0,22.871-4.914,35.672-14.58,27.555,16.89,65.45,25.586,98.141,10.461,35.516-14.8,61.821-56.377,51.626-94.032C317.019,168.458,282,151.27,271.844,144.445c-13.9-7.37-30.011-5.283-43.553,1.854-4.137-11.977-20.175-49.839-60.6-61.585-1.65-3.412-5.053-5.425-8.543-6.727,9.288-7.857,17.154-.023,30.022-11.591a23.281,23.281,0,0,1,4.9-3.306c33.5-17.269,56.724-22.777,79.064-28.819A16.991,16.991,0,0,0,285.482,20.51l.948-6.057a3.486,3.486,0,0,0-3.65-3.99c-1.994.133-49.323,3.541-92.791,29.742a43.571,43.571,0,0,1-21.869,6.168,54.111,54.111,0,0,0-24.918,7.02h0c-5.385,3.349-14.881,2.465-19.641,6.748-11.272-1.765-19.527-7.792-22.756-13.111a30.885,30.885,0,0,0-17.97-13.66C72.451,30.4,68.071,23.783,66.226,18.759A14.042,14.042,0,0,0,53.149,9.514H47.817a3.461,3.461,0,0,0-3.454,3.227c-1.938,28.485,16.163,38.322,27.125,41.65a24.226,24.226,0,0,1,12.57,9.03,40.749,40.749,0,0,0,7.264,7.753A88.808,88.808,0,0,0,67.553,81.232a11.831,11.831,0,0,0-5.681,9.6C-10.5,130.778-20.791,281.077,62.106,315.518Zm265.255-85.195c13.525,55.167-47.422,105.068-100.847,91.383a126.285,126.285,0,0,1-31.729-11.62c7.962.856,16.268-.312,20.817-7.506,4.345-6.6,13.19-17.9,23.612-19.329a23.02,23.02,0,0,0,12.477-5.678c23.934-21.808,57.313-61.248,41.554-107.824A131.4,131.4,0,0,1,327.361,230.323Zm-86.719-81.648c18.322-6.76,40.507,4.154,45.941,22.961a88.1,88.1,0,0,1,3.7,25.56c.246,32.156-30.164,63.342-43.251,75.257a16.117,16.117,0,0,1-8.755,3.937c-13.134,1.8-23.467,14.8-28.457,22.385a10.2,10.2,0,0,1-8.222,4.533c-78.846.346-22.69-105.3-11.091-116.321C205.577,167.815,222.447,154.924,240.642,148.675ZM278.9,17.809c-.426,7.295-5.868,9.825-12.291,11.035-3.73.992-7.882,2.1-12.371,3.367a18.922,18.922,0,0,0-2.742-9.335A229.652,229.652,0,0,1,278.9,17.809ZM193.563,46.136a187.536,187.536,0,0,1,25.431-12.712,4.092,4.092,0,0,1,2.335,2.564,3.468,3.468,0,0,0,4.341,2.264c3.684-1.248,2.391-5.44.57-7.661,6.265-2.316,12.34-4.236,18.044-5.827a12.229,12.229,0,0,1,2.98,9.472,331.191,331.191,0,0,0-35.621,12.869,3.469,3.469,0,1,0-6.915.376,5.732,5.732,0,0,1-.389,2.874c-4.732,2.2-9.779,4.579-14.643,7.242a10,10,0,0,1-5.081-7.232A49.384,49.384,0,0,0,193.563,46.136Zm-48.334,14q.682-.331,1.338-.7h0A47.044,47.044,0,0,1,168.218,53.3a51.511,51.511,0,0,0,9.71-1.071,16.9,16.9,0,0,0,5.859,9.64c-4.636,4.077-10.19,5.191-16.066,5.208a12.231,12.231,0,0,1-.375-4.455c.542-4.508-6.147-5.447-6.858-.958a18.941,18.941,0,0,0,.518,7.14c-4.763,1.746-8.387,6.261-12.726,8.54C141.13,69.9,144.978,60.844,145.229,60.141ZM124.45,72.064c.229-4.412,2.96-8.469,12.949-9.364a21.914,21.914,0,0,0,4.295,17.643C134.339,83.609,123.206,82.333,124.45,72.064ZM73.5,47.766C63.055,44.6,50.994,36.571,51.147,16.438c3.707-.337,7.2.9,8.579,4.709,2.4,6.529,8.024,15.105,21.2,18.88,17.583,5.366,11.327,19.441,37.9,26.242a18.616,18.616,0,0,0-1.289,8.67C88.2,70.231,93.912,54.514,73.5,47.766ZM71.144,87.153A81.5,81.5,0,0,1,99.472,76.482a58.192,58.192,0,0,0,20.542,5.734c8.336,10.571,21.1,7.1,32.626.584,22.266,6.459.252,20.108-12.23,23.387a50.578,50.578,0,0,0-4.242-4.883c-3.322-3.111-8.033,1.756-4.815,4.975.021.021.565.558,1.428,1.537-13.165,2.407-29.966-.266-35.266-5.5,1.082-1.047,1.8-1.627,1.842-1.659,3.537-2.858-.622-8.194-4.256-5.462a39.653,39.653,0,0,0-4,3.76c-11.616.9-22.4-1.655-22.314-7.851A4.942,4.942,0,0,1,71.144,87.153Zm-60.55,119.76c2.036-65.765,33-96.207,53.2-109.124,4.155,5.328,10.234,7.75,21.706,8.28a45.573,45.573,0,0,0-4.458,8.688c-1.543,4.264,4.762,6.7,6.472,2.461a39.906,39.906,0,0,1,5.43-9.714c7.636,7.438,28.769,10.146,44.556,6.491a61.657,61.657,0,0,1,7.514,15.424,3.462,3.462,0,1,0,6.6-2.108,68.094,68.094,0,0,0-7.043-15.146c9.74-3.271,22.591-10.17,24.438-19.782,36.2,12.313,50.017,47.834,53.082,57.192-27.238,15.449-70.957,62.984-68.224,123.146,3.043,20.188,8.869,24.61,24.16,35.529-10.651,7.613-20.753,11.629-29.386,11.629-23.533,0-30.652-6.4-30.666-6.407-8.447-6.18-15.43-13.179-20.1-20.9a3.462,3.462,0,0,0-5.9,3.621,75.587,75.587,0,0,0,16.144,18.33C65.159,323.3,8.457,288.246,10.594,206.913Z" style="fill:#2b2b2b"/><path d="M173.432,269.35c2.909,23.285,31.145,30.792,42.3,9.5a27,27,0,0,1,15.726-10.574c19.626-3.5,49.176-43.913,48.273-71.417-3.3-80.961-92.481-27.55-106.3,52.793A52.594,52.594,0,0,0,173.432,269.35Zm6.812-18.465c10.486-57.588,52.236-81.272,53-81.708,18.082-10.464,39.238-8.6,39.568,27.683,1.075,23.78-26.126,61.579-42.907,64.675a33.466,33.466,0,0,0-20.168,13.849,15.263,15.263,0,0,1-8.063,7.959C182.224,289.932,177.142,265.682,180.244,250.885Z" style="fill:#2b2b2b"/></svg>