<svg id="icons" xmlns="http://www.w3.org/2000/svg" viewBox="0 0 340 340"><title>53_orange</title><path d="M44.806,287.328C-24.033,215.864,16.813,92.618,114.255,76,230.908,100.525,241,166.783,230.578,241.073,177.933,295.611,109.918,345.058,44.806,287.328Z" style="fill:#ffa750"/><path d="M139.11,73.988a127.34,127.34,0,0,0-24.854,2.017c-.146,11.4,5.273,17.886,5.273,17.886s7.491,9.953,24.354,9.879a32.246,32.246,0,0,1,17.824,5.106c15.634,10.2,44.515,34.923,52.767,81.969a19.6,19.6,0,0,1-13.36,22.14L82.758,250.225a9.463,9.463,0,0,0-5.649,13.216,103.179,103.179,0,0,0,12.035,18.7,7.8,7.8,0,0,1-5.223,12.687c-10.487,1.039-25.3.429-39.11-7.5,77.092,82.757,219.239,27.53,218.736-87.072C263.388,131.582,207.771,75.13,139.11,73.988Z" style="fill:#f47b5b"/><path d="M172.875,26.833S188,28.856,194.18,50.6c0,0,16.771,61.241,103.334,46.918C295.183,29.528,230.945-11.711,172.875,26.833Z" style="fill:#80b297"/><path d="M126.391,264.1l18.151-5.791c65.892-13.5,126.267-29.138,165.772-52.883l15.273-4.872C352.788,329.078,177.905,377.7,126.391,264.1Z" style="fill:#ffe5c5"/><path d="M310.314,205.424,144.542,258.307c12.472,24.069,45.439,64.585,108.027,46.7C314.279,287.378,312.218,223.6,310.314,205.424Z" style="fill:#ffa750"/><path d="M214.908,235.86c2.477,5.222,7.808,11.923,18.646,10.609,12.142-1.472,14.2-13.138,14.172-21.079Z" style="fill:#ffe5c5"/><path d="M34.025,212.261c-3.2-3.353,1.71-8.19,5.017-4.948C42.238,210.666,37.332,215.5,34.025,212.261Z" style="fill:#f47b5b"/><path d="M58,205.924c-3.2-3.353,1.71-8.19,5.017-4.948C66.216,204.328,61.311,209.166,58,205.924Z" style="fill:#f47b5b"/><path d="M45.158,185.028c-3.2-3.353,1.71-8.19,5.017-4.948C53.371,183.433,48.465,188.27,45.158,185.028Z" style="fill:#f47b5b"/><path d="M181.2,306.994a3.486,3.486,0,0,1-2.784-5.516l46.9-63.649c2.735-3.6,8.224.376,5.574,4.107l-46.9,63.65A3.458,3.458,0,0,1,181.2,306.994Z" style="fill:#ffe5c5"/><path d="M257.9,309.128a3.465,3.465,0,0,1-3.252-2.273l-24.072-65.782a3.463,3.463,0,0,1,6.5-2.381l24.073,65.783A3.481,3.481,0,0,1,257.9,309.128Z" style="fill:#ffe5c5"/><path d="M306.814,268.492a3.471,3.471,0,0,1-1.346-.273l-67.216-28.393a3.462,3.462,0,0,1,2.695-6.379l67.216,28.392A3.472,3.472,0,0,1,306.814,268.492Z" style="fill:#ffe5c5"/><path d="M274.549,236c-.222.076-4.893-.36-5.256-.379a3.462,3.462,0,0,1,.568-6.9l4.641.382A3.467,3.467,0,0,1,274.549,236Z" style="fill:#ffe5c5"/><path d="M261.1,266.943a3.444,3.444,0,0,1-2.2-.794l-4.257-3.516a3.462,3.462,0,1,1,4.409-5.338l4.257,3.516A3.485,3.485,0,0,1,261.1,266.943Z" style="fill:#ffe5c5"/><path d="M225.826,279.45a3.472,3.472,0,0,1-3.425-3.992l.624-4.033a3.462,3.462,0,0,1,6.843,1.059l-.624,4.032A3.464,3.464,0,0,1,225.826,279.45Z" style="fill:#ffe5c5"/><path d="M193.853,259.244a3.472,3.472,0,0,1-1.1-6.674l3.5-1.4c4.252-1.619,6.767,4.672,2.567,6.431C197.793,257.918,194.933,259.418,193.853,259.244Z" style="fill:#ffe5c5"/><path d="M134.706,95.591c3.567,1.131,8.824,2.334,9.925-2.859,7.334-44.551-3.743-77.834-3.743-77.834l-9.3,4.133A11.8,11.8,0,0,0,125.32,33.5c6.329,17.262,5.5,45.016,4.9,55.661A6.356,6.356,0,0,0,134.706,95.591Z" style="fill:#3e6a51"/><path d="M85.731,150.45c-6.217,8-16.577,10.34-23.139,5.237-15.214-12.894,6.279-40.521,22.516-28.953C91.669,131.837,91.949,142.455,85.731,150.45Z" style="fill:#ffe5c5"/><path d="M328.964,199.788a3.483,3.483,0,0,0-4.429-2.534l-15.269,4.871L266.1,215.9c9.8-69.76-45.306-138.753-115.389-144.668,1.647-9.881,6.828-28.432,22.95-40.656,3.408,1.029,12.708,5.217,17.18,20.946,1.729,8.159,14.912,31.1,35.25,40.971,19.257,10.835,48.066,12.838,71.99,8.446a3.46,3.46,0,0,0,2.9-3.491c-.051-2.321-1.74-57.092-44.443-79-44.1-22.15-90.09-3.688-106.3,30.731-1.845-21.665-5.117-36.691-7.944-37.444a3.466,3.466,0,0,0-2.8,0l-9.454,4.2A15.008,15.008,0,0,0,122.1,34.76c4.057,11.123,5.274,24.649,5.4,36.093C-66.306,93.619-5.3,380.317,180.123,323.042c20.922,9.431,48.266,10.613,72.981,3.883C325.764,310.147,337.977,239.745,328.964,199.788Zm-35.108-105.2a137.765,137.765,0,0,1-30.119,1.352c-12.843-7.758-10.784-23.027-10.683-23.726a3.462,3.462,0,0,0-6.844-1.047c-.1.665-1.869,13.017,5.636,23.208a79.48,79.48,0,0,1-21.466-7.368c-10.429-10.228-.2-29.608-4.126-42.573,13.367,7.956,28.965,20.006,46.42,38.18a3.463,3.463,0,0,0,5-4.8c-5.4-5.621-10.631-10.669-15.695-15.224,6.876-.834,18.135-.34,27.334,8.871A116.223,116.223,0,0,1,293.856,94.589ZM253.372,24.6c.942.483,1.854.991,2.753,1.511a46.005,46.005,0,0,0-22.309,2.6,3.462,3.462,0,0,0,2.746,6.357,39.954,39.954,0,0,1,35.278,3.922,79.785,79.785,0,0,1,13.079,20.666c-12.258-6.434-24.815-4.125-29.594-2.852-30.812-25.842-54.6-32.685-68.765-34.006C200.228,16.47,224.8,9.944,253.372,24.6Zm-37.913,14.02c9.687,8.539.961,28.835,3.624,41.083-14.046-10.283-21.911-29.345-21.573-30.051-2.815-9.9-7.38-16.08-11.792-19.944C192.783,30.359,202.844,32.567,215.459,38.624Zm91.777,171.417c10.565,99.786-113.177,131.07-157.654,50.293ZM132.84,22.263l5.81-2.582c4.076,12.281,7.656,50.966,1.873,76.5a11.055,11.055,0,0,1-7.206-1.833c.89-7.9,3.658-39-4.716-61.958A8.066,8.066,0,0,1,132.84,22.263Zm4.125,301.41c-156.9-4.237-165.336-229.9-9.518-245.879-.253,10.089-1.194,17.3-1.215,17.461a3.47,3.47,0,0,0,.914,2.84,16.739,16.739,0,0,0,12.457,5.037c4.353-.283,6.257-.124,7.245-3.2a192.941,192.941,0,0,0,3.1-21.815c68.155,6.662,119.32,72.089,108.869,140.1L125.339,260.8a3.482,3.482,0,0,0-2.153,4.6c2.922,8.9,22.85,40.537,48.261,53.364A123.123,123.123,0,0,1,136.965,323.673Zm184.379-71.4c-11.658,69.028-116.408,95.163-164,48.042A117.677,117.677,0,0,1,131.2,266.2l11.662-3.72c21.2,39.17,62.922,60.52,110.663,45.858,61.234-17.5,62.316-78.071,60.5-100.461l8.862-2.827C324.093,212.844,326.11,231.816,321.344,252.27Z" style="fill:#2b2b2b"/></svg>