<svg id="icons" xmlns="http://www.w3.org/2000/svg" viewBox="0 0 340 340"><title>54_cherry</title><path d="M110.057,47.269s26.341.975,51.706,23.658c64.842,57.359,127.432,2.222,147.8-35.122C246.057,1.865,172.8-8.667,110.057,47.269Z" style="fill:#aecc76"/><path d="M53.015,42.694l6.508-2.937a10.411,10.411,0,0,1,13.855,5.43,47.642,47.642,0,0,0,5.109,9.065A14.757,14.757,0,0,0,89.22,60.3c15.782,1.271,62.943,9.735,96.333,64.66a170.149,170.149,0,0,0,11.388,16.555c-5.956,4.91-13.46,4.189-22.646-2.646-14.885-22.509-41.514-52.795-82.471-62.529A13.165,13.165,0,0,0,75.817,91.233c1.055,6.533,3.854,15.212,9.912,26.51,10.189,19,16.831,37.372,19.927,53.127-6.239,1.719-11.682-.542-16.642-5.229a113.461,113.461,0,0,0-11.7-28.895c-19.373-34.133-16.629-60-14.673-69.219a11.379,11.379,0,0,0-.933-7.456Z" style="fill:#aecc76"/><path d="M90.54,199.046l16.116,1.924c1.645-8.021,1.3-18.333-1.006-30.1a32.3,32.3,0,0,1-16.645-5.227C93.973,185.845,90.54,199.046,90.54,199.046Z" style="fill:#84994a"/><path d="M196.943,141.513a46.047,46.047,0,0,1-22.65-2.643c9.795,14.812,14.509,26.26,14.868,26.26.962,0,26.97-3.886,26.97-3.886A119.958,119.958,0,0,1,196.943,141.513Z" style="fill:#84994a"/><path d="M225.257,151.443c-9.628,6.263-13.234,8.547-21.073,8.566-9.2.022-21.622,2.009-32.218,10.52l32,81.837c26.471,41.646,56.512,34.671,87.482,15.037,17.731-19.537,23.927-49.086,15.393-76.718C300.458,170.016,271.568,121.317,225.257,151.443Z" style="fill:#f7616c"/><path d="M227.01,233.579c-.093.086-.174.177-.265.264-2.138-44.774-37.068-61.548-54.774-63.308-16.25,12.4-20.278,35.24-17.35,54.837,4.189,33.5,37.118,81.938,95.25,64.612,17.277-4.851,30.338-9.971,41.565-22.592C223.869,282.75,227.01,233.579,227.01,233.579Z" style="fill:#b73d49"/><path d="M176.5,225.759c2.95,7.27,4.771,17.014,2.9,29.484" style="fill:none;stroke:#000;stroke-linecap:round;stroke-linejoin:round;stroke-width:7px"/><path d="M166.375,214.48c-3.2-3.353,1.71-8.19,5.017-4.948C174.588,212.885,169.682,217.722,166.375,214.48Z"/><path d="M124.139,186.421a35.371,35.371,0,0,1-24.932,4.035c-13.686-2.727-34.777-3.062-52.014,13.587-11.282,10.9-15.855,26.646-17.293,41.575-3.9,40.537,24.164,77.588,64.336,84.267a146.145,146.145,0,0,0,23.982,1.875c49.829,1.942,90.351-37.919,85.364-87.82-1.707-17.361-7.734-39.191-25.3-55.585C163.207,174.982,142.189,176.5,124.139,186.421Z" style="fill:#f7616c"/><path d="M124.7,320.409a3.463,3.463,0,0,1-1.9-6.356,32.163,32.163,0,0,1,15.464-5.119,3.462,3.462,0,0,1,.52,6.9,25.322,25.322,0,0,0-12.18,4A3.448,3.448,0,0,1,124.7,320.409Z" style="fill:#b73d49"/><path d="M92.5,240.5a16.492,16.492,0,0,1-16.492,16.492c-21.853-.808-21.847-32.179,0-32.984A16.492,16.492,0,0,1,92.5,240.5Z" style="fill:#ffe9e9"/><path d="M26.453,245.286C16.689,340.474,157.589,368.721,198,290.334c23.806,11.078,57.822,5.3,79.815-7.372C327.433,253.7,327.653,168.8,268.609,141c-14.348-5.193-29.569-2.656-45.24,7.54a100.574,100.574,0,0,1-9.814,5.931c-8.94-8.152-17.361-18.673-25.043-31.312-14.682-24.149-33.575-42.229-56.156-53.736A117.01,117.01,0,0,0,89.5,56.848a11.256,11.256,0,0,1-7.662-3.961c9.378,2.055,17.514,1.179,28.618-2.122,3.712.3,26.854,2.937,49,22.743,65.782,57.621,129.918,5.99,153.152-36.052a3.46,3.46,0,0,0-1.38-4.688C251.441,1.109,176.353-15.378,108.271,44.194c-20.614,6.4-30.137.35-32.111-1.183A13.9,13.9,0,0,0,58.1,36.6l-6.508,2.937a3.484,3.484,0,0,0-1.673,4.705L58.606,61.62a7.939,7.939,0,0,1,.644,5.188C49.365,117.4,87.482,141.4,88.23,185.633,55.578,183.575,28.812,207.773,26.453,245.286ZM242.428,89.224a69.724,69.724,0,0,1-28.64,2.552c-2.1-.574-12.938-4.111-22.461-17.844a131.848,131.848,0,0,0-25.046-27.267,3.463,3.463,0,0,0-4.224,5.488,127.236,127.236,0,0,1,23.58,25.724,62.985,62.985,0,0,0,7.014,8.477,97.977,97.977,0,0,1-28.579-18.008,99.985,99.985,0,0,0-38.091-21.532,391.681,391.681,0,0,1,67.345-8.886c6.865.025,28.918,1.532,41.823,19.13,10.325,14.079,20.86,20.077,27.936,22.635A89.934,89.934,0,0,1,242.428,89.224ZM197.753,11.2a113.362,113.362,0,0,1,20.71-.25,36.613,36.613,0,0,0-8.86,8.96,3.462,3.462,0,0,0,5.661,3.988c6.638-9.42,14.755-11.055,16.73-11.32,32.463,5.29,63,19.707,72.719,24.612-4.278,6.849-16.018,23.941-34.087,37.373-3.788-.547-16.762-3.692-29.893-21.6A50.321,50.321,0,0,0,222.963,37.9a291.564,291.564,0,0,1,39.6,4.336,3.462,3.462,0,0,0,1.24-6.812c-33.008-5.825-62.548-5.765-93.341-2.76A60.66,60.66,0,0,0,183.03,13.641,139.727,139.727,0,0,1,197.753,11.2Zm-23.482,4.661c-3.392,6.3-9.757,15.443-19.232,18.678-12.269,1.729-22.657,3.763-30.447,5.5A165.156,165.156,0,0,1,174.271,15.859Zm52.873,138.486c36.476-25.193,66.767,7.555,76.39,37.362,10.285,33.3-2.014,69.174-29.245,85.3-19.969,11.5-51.695,17.115-73.357,7.073,12.455-30.747,7.57-70.632-20.283-98.252A38.2,38.2,0,0,0,168.8,178.37c10.636-12.171,24.923-14.873,35.4-14.9C213.15,163.448,217.535,160.6,227.144,154.345Zm-65.529,21.868c-13.192-2.68-28.15.678-39.24,7.229a30.661,30.661,0,0,1-11.284,3.938c-.614-20.038-8.638-45.776-22.311-71.274-5.164-9.631-8.376-18.185-9.545-25.425-1.282-6.545,5.349-12.733,11.789-10.973,49.254,11.706,78.2,54.3,91.778,80.641A48.412,48.412,0,0,0,161.615,176.213ZM80.321,135.037c-18.7-32.952-16.228-57.687-14.3-66.791A14.915,14.915,0,0,0,64.8,58.522L57.723,44.368l3.224-1.455A6.98,6.98,0,0,1,70.2,46.566a50.958,50.958,0,0,0,5.488,9.727A18.208,18.208,0,0,0,88.942,63.75c13.653,1.1,60.756,8.894,93.652,63.008a153.945,153.945,0,0,0,23.049,29.75,67.939,67.939,0,0,0-16.143,1.748c-23.178-45.67-57.511-75.929-96.875-85.286C81.478,70.048,70.294,80.452,72.4,91.785c1.291,8,4.749,17.284,10.277,27.594,13.2,24.618,20.935,49.274,21.493,68.253-3.056-.184-5.908-.98-9.008-1.366C95.073,174.208,92.275,156.1,80.321,135.037ZM85.245,192.5a68.3,68.3,0,0,1,13.285,1.355A38.75,38.75,0,0,0,125.9,189.4,53.181,53.181,0,0,1,150,182.264c32.779-3.156,49.109,41.081,50.139,62.016,3.523,35.829-18.394,69.393-52.113,79.808C17.3,357.824-.116,194.606,85.245,192.5Z" style="fill:#2b2b2b"/></svg>