<svg id="icons" xmlns="http://www.w3.org/2000/svg" viewBox="0 0 340 340"><title>55_fig</title><path d="M123.486,48.842C119.9,30.526,111.419,20.1,104.948,14.584a11.923,11.923,0,0,0-14.909-.395l-5.281,3.988,6.227,6.99c8.64,10.955,6.945,27.2-2.992,36.826-4.628,4.559-9.912,9.662-12.44,11.74C16.375,121.756-20.074,206.879,41.12,257.274,64.068,271.2,162.435,282.749,167.31,213.4c19.752-38.827-22.541-117.257-38.817-147.706C124.684,58.567,123.486,48.842,123.486,48.842Z" style="fill:#7b7091"/><path d="M152.936,171.979A111.785,111.785,0,0,0,129,233.805a26.088,26.088,0,0,1-21.072,23.975c-17.7,3.385-43.655,6.043-66.794-.525A67.148,67.148,0,0,0,82.222,271.2h54.061a66.649,66.649,0,0,0,50-22.265c48.776-52.566,12.149-129.7-43.334-175.2-2.772-2.28-8.073-7.375-12.266-11.484-3.707-3.632-5.3-7.535-7.2-13.407,0,0-.991,18.124,11.328,43.627,6.707,13.885,17.453,30.1,23.432,46.525A34.314,34.314,0,0,1,152.936,171.979Z" style="fill:#4b4763"/><path d="M258.528,121.849s12.076,27.977,33.644,47.456c29.966,25.588,49.92,74.886,31.876,116.64-19.82,29.27-53.809,33.411-91.9-9.128Z" style="fill:#7b7091"/><path d="M324.044,285.943c-12.51,11.254-27.772,7.391-27.772,7.391s-31.979-9.144-64.088-16.742l-8.464,49.716C281.079,334.571,311.593,315.018,324.044,285.943Z" style="fill:#4b4763"/><path d="M251.324,103.885a8.418,8.418,0,0,1,6.856,8.469,87.5,87.5,0,0,0,19.46,56.478C327.721,224,317.377,334.121,223.719,326.308c-38.833-3.444-77.487-29.281-73.2-87.487,2.939-39.927,36.145-68.678,56.6-82.954,23.466-16.376,31.652-35.593,34.526-45.969A8.412,8.412,0,0,1,251.324,103.885Z" style="fill:#ffedd2"/><path d="M224.944,182.053c.178-.036-33.879,2.437-49.818,33.908-9.835,28.73,1.364,78.884,35.921,60.588,50.359,27.149,81.463-22.933,56.72-72.936C251.574,180.858,224.944,182.053,224.944,182.053Z" style="fill:#f7616c"/><path d="M278.841,233.285c-1.854-12.835-5.944-22.453-11.079-29.668h0c26.648,70.446-41.949,95.577-55.983,60.2-2.5,7.749-10.246,12.368-17.921,9.277-29.171-11.56-18.729-57.126-18.727-57.135a73.847,73.847,0,0,0-7.03,22.949c-3.567,24.577,5.41,39.073,17.2,47.72,8.375,6.091,18.917,3.143,24.6-5.019,4.126,10.8,22.18,19.855,39.168,11.24C262.117,286.467,284.151,270.048,278.841,233.285Z" style="fill:#b73d49"/><path d="M181.172,235.69a3.462,3.462,0,0,0,6.9-.566,9.329,9.329,0,0,1,3.822-8.782c4.733-1.557,10.711-9.347,10.177-15.9a15.633,15.633,0,0,0,6.082-1,11.19,11.19,0,0,0,2.757,3.733c-2.874,8.076,1.447,13.839,7.722,15.731-5.5,5.715-3.43,16.228-.074,23.162-4.816.842-8.065,5-9.685,9.506-2.474-1.607-6.461-2.374-10.773-1.744-1.521-10.336,1.679-20.209,9.612-21.887a3.463,3.463,0,0,0-1-6.853c-2.662.171-10.822,3.83-13.742,11.72a28.347,28.347,0,0,0-21.8,13.244,44.445,44.445,0,0,0,2.856,9.457c2.463-6.371,7.362-13.543,17.088-15.443A46.239,46.239,0,0,0,191.56,263c-4.5,2.63-5.9,8.909-5.987,9.094a3.462,3.462,0,0,0,6.246,2.988c.082-.167,2.866-9.208,8.72-8.964,3.657.152,6.43,2.769,6.206,6.423-.137.3-.169,4.179,3.684,3.725l1.756-1.007s.039.1.116.276c1.641-1,1.377-3.685,1.5-5.338.657-4.991,3.008-12.72,8.175-11.334A4.943,4.943,0,0,1,225.9,263c.95,4.684.312,11.8-2.476,14.073a3.486,3.486,0,0,0,2.222,6.122,3.45,3.45,0,0,0,2.3-.873c4.872-3.832,6.454-14.261,4.482-21.808a12.92,12.92,0,0,0,6.01-1.962,15.855,15.855,0,0,0,4.514,5.66c-4.623,5.291-3.617,14.274-2.5,22.933a48.287,48.287,0,0,0,6.7-2.215c-.769-7.592-2.089-15.47,2.869-17.374,3.932-1.162,6.732,1.616,7.134,4.923,0,.054.01.108.017.162l.791,6.034a41.69,41.69,0,0,0,6.18-6.139c-.214-7.087-6.993-13.241-14.087-12.071-5.366-2.419-6.342-6.631-6.307-9.492a42.32,42.32,0,0,0,.554-4.733,15.045,15.045,0,0,0,10.291-.808c1.985,4.513,7.193,7.093,12.213,6.336a44.387,44.387,0,0,1,7.382.25c.638-2.438,1.1-4.741,1.425-6.818a51.2,51.2,0,0,0-9.777-.289c-2.206.509-5.485-1.392-5.069-3.449,2.3-7.083,9.934-8.631,15.328-8.8l-.87-6.932a29.12,29.12,0,0,0-12.577,3.334c-.519-3.1-.852-10.162-5.744-9.109a3.461,3.461,0,0,0-2.338,4.428c1.1,3.283,3.089,11.251-2.1,14.361-2.416,1.448-5.282,1.454-8.525.057a45.835,45.835,0,0,0-3.234-12.326c7.761-3.105,7.962-9.081,8.021-11.487,11.357,1.553,13.9-6.707,15.158-16.179a49.121,49.121,0,0,0-6.547-5.987c-.222,6.6-1.38,13.094-3.259,14.56-.689.538-7.921,3.22-8.418-4.823-.317-5.124,1.236-11,2.674-15.2a54.5,54.5,0,0,0-6.361-2.535,72.5,72.5,0,0,0-3.152,19c-.212-.021-5.837-.181-8.139-.074a23.329,23.329,0,0,0,1.432-10.117,3.462,3.462,0,0,0-6.886.729c.008.077.692,7.7-4.133,10.772a15.4,15.4,0,0,0-5.772,2.679c-4.578-6.131.962-20.382,3.345-24.732a70.261,70.261,0,0,0-8.752,2.574,43.2,43.2,0,0,0-3.158,16.827,8.86,8.86,0,0,1-6.191.81,40.5,40.5,0,0,0-5.707-9.912,61.757,61.757,0,0,0-5.448,4.209c3.459,4.473,7.34,11.28,5.165,16.308-2.892,6.685-10.631,9.061-19.448,2.06A66.509,66.509,0,0,0,172,223.179a26.407,26.407,0,0,0,10.518,4.065A16.976,16.976,0,0,0,181.172,235.69Zm79.581,5.822.014-.042a.446.446,0,0,1-.021.065Zm-23.377,5.038a17.548,17.548,0,0,0-.525,3.383c-2.237,5.735-9.567,4.256-11.879-.5-3.827-8.288-4.8-16.294,3.61-19.162a24.662,24.662,0,0,0,5.813-.936A41.353,41.353,0,0,1,237.376,246.55Zm-20.3-30.107c2.082-5.34,9.23-5.613,17.139-5.845q1.769,0,3.689.08a4.014,4.014,0,0,1,3.574,2.459c1.875,3.506-3.908,7.458-6.75,8.733C228.813,224.652,215.487,223.913,217.077,216.443Z" style="fill:#b73d49"/><path d="M120.358,126.053c-5.339-10.3-18.6-7.419-21.49,4.686-2.55,11.389.333,22.062,12.6,20.14,5.167-.686,9.617-5.295,10.739-11.38A20.611,20.611,0,0,0,120.358,126.053Z" style="fill:#d8ceef"/><path d="M302.413,317.563c33.208-21.482,39.467-71.85,23.393-107.459a125.28,125.28,0,0,0-31.314-43.368c-19.254-17.389-30.918-42.138-32.575-45.791a79.106,79.106,0,0,1-.276-8.511,11.886,11.886,0,0,0-23.334-3.46c-2.669,9.635-10.49,28.107-32.88,43.847-10.736-29.328-32.559-58.974-60.277-81.762-2.142-1.763-6.307-5.664-12.042-11.283a22.107,22.107,0,0,1-6.225-11.6C122.366,25.387,105.5-.787,87.953,11.427l-5.281,3.988a3.484,3.484,0,0,0-.5,5.066c2.386,2.771,7.45,7.751,8.747,11.168,3.41,8.595,3.123,19.6-5.356,27.878-6.006,5.915-10.228,9.9-12.21,11.532-45.4,37.325-72.308,90.1-66.96,131.328,4.278,36.024,36.158,73.533,75.829,72.277,10.458-.383,58.5,1.156,67.91-1.353,9.165,33.446,37.894,53.185,73.162,56.432C250.12,334.08,282.654,331.61,302.413,317.563ZM289.852,171.876c48.2,40.76,59.724,137.721-23.532,151.733,60.638-26.461,53.561-112.476,14.02-156.944a85.251,85.251,0,0,1-12.277-20.624A137.178,137.178,0,0,0,289.852,171.876Zm-149.1-95.469c27.377,22.508,48.765,51.849,58.826,80.641a169.787,169.787,0,0,0-28.25,26.254c-.66-40.729-27.413-79.17-39.789-115.392C135.775,72,138.881,74.867,140.753,76.407Zm7.781,190.139c-8.368,2.129-40.313.886-49.339,1.194-25.356-17.224-39.274-41.561-41.358-72.358a3.462,3.462,0,1,0-6.909.467c2.014,29.756,14.332,53.888,36.639,71.891C47.623,270.573,18.461,237.7,13.261,201.5c-5.053-38.951,20.864-89.22,64.491-125.088,1.946-1.716,7.8-6.93,13.483-12.812A83.781,83.781,0,0,1,81.153,86.7a226.418,226.418,0,0,0-24.921,59.217,3.462,3.462,0,1,0,6.7,1.731A219,219,0,0,1,87.044,90.344c15.406-26.333,19.527-54.959,2.8-71.666,3.86-3.441,8.481-4.978,12.86-1.458,6.043,5.149,13.953,14.912,17.364,32.181.249,2.123,2.655,20.242,14.587,44.944,14.207,29.417,32.227,65.582,29.517,98.293C149.221,212.6,143.258,241.868,148.534,266.546Zm5.435-27.471c2.688-36.5,31.464-63.852,55.131-80.368,24.4-17.027,32.952-37.309,35.881-47.885a4.961,4.961,0,0,1,9.737,1.454c-1.631,63.275,60.756,72.527,47.347,153.9C290.427,351.72,143.665,340.31,153.969,239.075Z" style="fill:#2b2b2b"/><path d="M224.788,178.594v.015c-4.021.33-52.3,5.992-60.114,59.806-3.254,22.419,3,39.581,18.577,51.009a20.12,20.12,0,0,0,26.035-1.962c8.287,12.193,27.651,15.73,41.521,8.394C305.076,271.647,287.521,178.015,224.788,178.594Zm.5,112.558c-9.192-3.406-12.037-10.473-12.146-10.748a3.484,3.484,0,0,0-6.136-.693c-.472.695-1.666,1.8-2.3,2.51a13.1,13.1,0,0,1-17.363,1.619c-13.355-9.794-18.678-24.744-15.82-44.43,7.2-49.579,52.157-53.782,53.581-53.9,23.758-.315,46.907,17.457,50.3,48.269C282.048,272.678,248.735,299.406,225.289,291.152Z" style="fill:#2b2b2b"/></svg>