<svg id="icons" xmlns="http://www.w3.org/2000/svg" viewBox="0 0 340 340"><title>56_pomegranate</title><path d="M139.3,86.682l-7.359-37.448S129.26,33.6,120.081,25.787C110.9,33.6,108.217,49.234,108.217,49.234,100.1,25.787,79.112,35.585,79.112,35.585s14.376,9.307,14.376,30.276V85.018c-33.024,9.936-84.736,37.709-82,114.068,1.529,42.62,22.534,68.058,44.664,82.2,0,0,130.748,58.4,157.33-89.672C225.642,123.892,172.328,96.617,139.3,86.682Z" style="fill:#f7616c"/><path d="M120.461,83.233a1.808,1.808,0,0,0-.59,3.518c26.744,9.076,83.665,39.448,72.024,131.822,0,0-15.056-3.037-24.561,13.722a26.1,26.1,0,0,0-3.556,15.048,20.519,20.519,0,0,1-6.417,16.766c-14.462,13.244-48.025,34.838-101.207,17.18a124.489,124.489,0,0,0,37.531,14.927,18.58,18.58,0,0,1,10.8,6.96c4.125,5.533,9.451,10.5,19.123,10.5,9.784,0,13.25-9.5,17.062-16.263,30.758-5.689,85.412-25.976,88.007-98.329,2.738-76.358-48.974-104.132-82-114.067V65.861a39.533,39.533,0,0,1,15.474-31.729s-22.087-8.345-30.2,15.1V71.749A11.484,11.484,0,0,1,120.461,83.233Z" style="fill:#b73d49"/><path d="M296.718,149.324l-56.06,47.426c-26.394,15.19-45.527,50.678-63.5,89.4,1.727.406,80.315,30.383,112.341-15.813S311.022,164.209,296.718,149.324Z" style="fill:#b73d49"/><path d="M302.79,169.781a16.935,16.935,0,0,1-16.936,16.935c-22.44-.83-22.434-33.044,0-33.871A16.935,16.935,0,0,1,302.79,169.781Z" style="fill:#b73d49"/><path d="M267.438,191.328c8.477-10.9,26.348-6.958,29.478,6.465C295.946,207.069,261.986,217.228,267.438,191.328Z" style="fill:#f7616c"/><path d="M185.869,262.218c-9.713-11.815,1.818-29.255,16.567-24.83C212.955,250.69,201.183,263.654,185.869,262.218Z" style="fill:#f7616c"/><path d="M185.855,262.2c8.359,10.405,25.823,5.661,27.5-7.9a15.594,15.594,0,0,0-10.924-16.907,24.22,24.22,0,0,0-4.266,15.188,2.81,2.81,0,0,1-2.078,2.824A18.579,18.579,0,0,0,185.855,262.2Z" style="fill:#b73d49"/><path d="M257.543,199.962a15.449,15.449,0,0,1-15.449,15.449c-20.471-.757-20.465-30.144,0-30.9A15.449,15.449,0,0,1,257.543,199.962Z" style="fill:#b73d49"/><path d="M236.617,250.69a16.938,16.938,0,0,1-16.938,16.938c-22.445-.83-22.439-33.05,0-33.877A16.939,16.939,0,0,1,236.617,250.69Z" style="fill:#b73d49"/><path d="M207.1,291.931A16.863,16.863,0,0,1,186.9,275.467c-.2-13.215,15.233-21.422,26.053-14.036Z" style="fill:#f7616c"/><path d="M212.951,261.437c-11.118,5.573-14.22,20.8-5.9,30.5C221.633,289.07,225.389,269.5,212.951,261.437Z" style="fill:#b73d49"/><path d="M276.449,236.394c2.028,4.845.537,12.462-3.045,15.8,0,0-20.507,4.313-18.873-9.09C256.2,229.4,276.449,236.394,276.449,236.394Z" style="fill:#f7616c"/><path d="M276.449,236.394c-5.915-13.792-26.441-10.695-27.8,4.556-.285,3.957,1.468,15.239,14.449,15.555a14.045,14.045,0,0,0,10.306-4.312,18.913,18.913,0,0,0-10.745-3.865,3.069,3.069,0,0,1-1.922-.716,2.857,2.857,0,0,1,1.87-4.946C265.82,242.559,273.382,241.724,276.449,236.394Z" style="fill:#b73d49"/><path d="M239.9,279.3a15.026,15.026,0,0,1-15.027,15.026c-19.91-.737-19.9-29.319,0-30.052A15.026,15.026,0,0,1,239.9,279.3Z" style="fill:#f7616c"/><path d="M275.928,267.628a13.66,13.66,0,0,1-13.66,13.661c-18.1-.67-18.1-26.654,0-27.321A13.66,13.66,0,0,1,275.928,267.628Z" style="fill:#f7616c"/><path d="M289.5,270.342a114.727,114.727,0,0,0,14.606-29.452c-6.579.223-14.734,4.546-24.811,15.615-35.268,38.739-82.241,21.516-95.437,15.534q-3.387,6.954-6.7,14.116C178.885,286.561,257.473,316.538,289.5,270.342Z" style="fill:#b73d49"/><path d="M293.219,116.755l-7.523,9.819a16.748,16.748,0,0,0,.077,20.432c19.276,24.965,20.339,50.4,16.348,69.934L291.6,245.726c-30.728,55.614-86.879,46.568-110.56,33.474a12.355,12.355,0,0,0-15.1,3.661l-7.8,10.174C285.009,373.928,385.368,201.7,293.219,116.755Z" style="fill:#ffeac5"/><path d="M267.448,191.335c-8.193,9.9-1.745,25.851,11.264,27.135A16.83,16.83,0,0,0,296.9,197.8a18.926,18.926,0,0,0-17.116,4.18c-1.924,1.758-4.633,1.573-6.907.679-6.018-1.431-.881-12.257-.576-12.352Z" style="fill:#b73d49"/><path d="M254.146,241.242c-3.91,15.662-26.323,14.641-28.752-1.362,2.145-7.872,6.055-13.586,14.376-13.9C248.217,226.8,251.673,232.247,254.146,241.242Z" style="fill:#f7616c"/><path d="M239.9,223.256a14.643,14.643,0,0,0-14.486,16.621c2.552-.143,9.577-1.063,14.632-6.718a2.817,2.817,0,0,1,4.426.374,20.316,20.316,0,0,0,9.664,7.706A14.668,14.668,0,0,0,239.9,223.256Z" style="fill:#b73d49"/><path d="M250.663,232.244C238.131,216.4,259.006,196.65,274.129,210,279.187,229.768,262.268,238.056,250.663,232.244Z" style="fill:#f7616c"/><path d="M224.013,232.279c-15.51.864-19.517-21.759-4.622-26.166a15.355,15.355,0,0,1,15.842,4.628c4.234,8.69,3.26,16.963-6.082,20.709A26.672,26.672,0,0,1,224.013,232.279Z" style="fill:#f7616c"/><path d="M250.651,190.064c-12.5-15.121,5.618-35.779,22.253-25.318C287.69,179.614,266.416,202.4,250.651,190.064Z" style="fill:#f7616c"/><path d="M89.436,156.48c0,11-8.29,19.91-18.516,19.91-24.528-.954-24.52-38.871,0-39.821C81.146,136.569,89.436,145.484,89.436,156.48Z" style="fill:#ffe9e9"/><path d="M274.117,210.009c-2.867,2.6-2.818,7.5-2.441,10.581a10,10,0,0,1-2.349,7.847c-2.864,3.243-8.387,6.393-18.66,3.8,6.005,7.575,18.495,7.7,24.644.231C281.017,226.363,280.4,215.445,274.117,210.009Z" style="fill:#b73d49"/><path d="M300.951,221.315c-8.047,23.7-21.058,6.218-21.058,6.218-5.993-9.842.259-25.668,11.842-24.948C291.735,202.585,306.268,205.657,300.951,221.315Z" style="fill:#f7616c"/><path d="M261.986,175.834c-.152,5.994-8.938,5.993-9.089,0C253.049,169.84,261.835,169.842,261.986,175.834Z" style="fill:#ffe3e8"/><path d="M224.869,216.264c-.145,5.745-8.565,5.743-8.71,0C216.3,210.52,224.725,210.521,224.869,216.264Z" style="fill:#ffe3e8"/><path d="M225.26,272.754c-.132,5.188-7.736,5.187-7.867,0C217.525,267.567,225.129,267.568,225.26,272.754Z" style="fill:#ffe3e8"/><path d="M262.7,263.616c-.142,5.6-8.355,5.6-8.5,0C254.342,258.013,262.555,258.014,262.7,263.616Z" style="fill:#ffe3e8"/><path d="M193.687,248.322a3.584,3.584,0,0,1-7.168,0A3.584,3.584,0,0,1,193.687,248.322Z" style="fill:#ffe3e8"/><path d="M262.19,218.593c-.156,6.128-9.139,6.127-9.293,0C253.052,212.464,262.035,212.466,262.19,218.593Z" style="fill:#ffe3e8"/><path d="M291.6,216.264c-.146,5.745-8.566,5.743-8.711,0C283.03,210.52,291.45,210.521,291.6,216.264Z" style="fill:#ffe3e8"/><path d="M295.442,114.267a3.354,3.354,0,0,0-4.871.459l-7.524,9.818c-7.187,9.7-4.289,20.045,3.085,28.608a17.649,17.649,0,0,0-15.152,8.134c-14.453-8.924-32.514,5.744-26.7,21.753a16.789,16.789,0,0,0-12.269,4.906c-2.394-68.887-50.737-95.421-82-105.386v-16.7a35.92,35.92,0,0,1,14-28.962,3.359,3.359,0,0,0-.685-5.888c-6.129-2.518-22.4-3.71-30.5,8.934-.87-3.116-9.312-21.352-14.912-16.7-5.333,4.542-8.641,11.289-10.584,16.7-8-12.462-23.754-10.352-29.633-7.379a3.359,3.359,0,0,0-.4,5.823c.128.084,12.852,8.54,12.852,27.476v16.7c-107.1,27.949-114.028,194.07,3.079,216.974a14.811,14.811,0,0,1,8.575,5.637c4.111,5.515,10.3,11.844,21.8,11.844,11.259-.135,15.439-9.589,19.231-16.616a145.45,145.45,0,0,0,14.789-3.719C285.113,377.46,391.149,203.367,295.442,114.267Zm-9.588,45.549a10.96,10.96,0,0,1,5.212,1.335,80.327,80.327,0,0,1,5.444,12.3c-1.6,7.322-10.9,10.774-16.925,6.354a18.144,18.144,0,0,0-3.526-13.956A10.987,10.987,0,0,1,285.854,159.816Zm-8.078,72.125a17.824,17.824,0,0,0,1.707-3.087,18.322,18.322,0,0,0,12.8,7.861,85.811,85.811,0,0,1-6.972,13.015,110.078,110.078,0,0,1-7.9,10.216,17.028,17.028,0,0,0-2.992-4.175C281.412,250.272,283.041,239.224,277.776,231.941Zm5.21-13.368c-.209-8.6,9.7-14.483,17.142-10.247A97.709,97.709,0,0,1,294.9,230.2,11.643,11.643,0,0,1,282.986,218.573Zm15.75-17.843a17.59,17.59,0,0,0-5.227-14.032,17.579,17.579,0,0,0,5.52-4.146,78.025,78.025,0,0,1,1.622,18.738A18.1,18.1,0,0,0,298.736,200.73Zm-17.564-12.416a10.964,10.964,0,0,1,10.879,12.152,18.34,18.34,0,0,0-13.546,9.431C266.156,206.585,268.278,188.559,281.172,188.314Zm-12.733,63.491a16.988,16.988,0,0,0-11.315-.373,11.22,11.22,0,0,1-3.732-3.933,16.473,16.473,0,0,0,3.066-9.114,17.867,17.867,0,0,0,16.44-1.659A11.2,11.2,0,0,1,268.439,251.805Zm3.894,13.524a77.517,77.517,0,0,1-14.844,11.448c-9.477-4.918-5.935-19.458,4.779-19.473A10.357,10.357,0,0,1,272.333,265.329Zm-9.239-32.321c-14.758-.524-14.753-21.781,0-22.3C277.854,211.23,277.848,232.487,263.094,233.008Zm1.128-28.918a15.562,15.562,0,0,0-3.92.184,16.729,16.729,0,0,0-.122-9.1,16.153,16.153,0,0,0,3.895-.131A17.387,17.387,0,0,0,264.222,204.09Zm-2.7-38.792a11.65,11.65,0,0,1,11.636,11.637c-.546,15.4-22.729,15.4-23.273,0A11.65,11.65,0,0,1,261.524,165.3Zm-17.585,24.4a10.279,10.279,0,0,1,10.267,10.267c-.482,13.59-20.054,13.586-20.535,0A10.28,10.28,0,0,1,243.939,189.7Zm6.9,90.529a66.074,66.074,0,0,1-8.238,3.065,17.775,17.775,0,0,0-9.489-20.62,18.757,18.757,0,0,0,4.8-8.319,16.423,16.423,0,0,0,10.5-2.252,17.9,17.9,0,0,0,2.5,2.923C243.543,261.2,243.444,273.955,250.842,280.224Zm-41.892,4.6a99.527,99.527,0,0,1-17.892-4.979c-4.819-12.8,11.852-22.718,20.788-12.428A17.77,17.77,0,0,0,208.95,284.828ZM202.183,256.5a18.858,18.858,0,0,0-10.789,3.639,11.137,11.137,0,0,1-8.614-10.809c-.112-10.115,12.917-14.968,19.447-7.289A18.987,18.987,0,0,0,202.183,256.5Zm5.252-7.17a12.282,12.282,0,0,1,15.883-11.675,16.552,16.552,0,0,0,8.252,14.559C227.976,266.173,207.668,263.712,207.435,249.331ZM240.823,216.6a16.28,16.28,0,0,0,5.2.158,16.942,16.942,0,0,0-.733,5.461,16.455,16.455,0,0,0-4.3-.863A16.794,16.794,0,0,0,240.823,216.6Zm8.987,21.288c-.523,14.67-22.418,11.9-19.559-2.294a17.455,17.455,0,0,0,8.588-7.564A9.941,9.941,0,0,1,249.81,237.891ZM225.529,267.61c8.863-.17,14.271,10.536,8.881,17.557a72.168,72.168,0,0,1-17.2.7C210.943,278.868,216.312,267.509,225.529,267.61Zm8.885-48.092a10.7,10.7,0,0,1-10.692,10.691c-14.152-.5-14.147-20.884,0-21.384A10.7,10.7,0,0,1,234.414,219.518Zm-78.272,70.637c-12.324,3.35-15.536,4.882-31.661,5.185-4.383-.037-4.566,6.473-.182,6.671a84.756,84.756,0,0,0,10.329-.448c-3.039,5.389-5.883,8.779-11.025,8.779-15.94-.015-14.968-14.569-28.908-17.318C-17.82,270.3-6.988,112.349,94.4,88.23l9.627-2.548c4.2-1.142,2.569-7.52-1.706-6.451l-5.5,1.454c.435-19.386.166-31.736-10.916-43.549,8.763-1.541,16.067,3.449,19.156,13.189a3.35,3.35,0,0,0,6.442-.526c.022-.131,2.115-11.934,8.574-19.323,6.432,7.372,8.554,19.2,8.576,19.323a3.35,3.35,0,0,0,6.442.526c3.058-9.792,10.9-15.135,19.868-14.233-13.041,13.782-11.814,28.089-11.628,48.927a3.335,3.335,0,0,0,2.375,3.194c31.457,8.439,84.76,39.875,79.468,114.013-16.283-1.485-25.236,18.955-13.348,29.914a18.994,18.994,0,0,0-5.864,4.2c-11.011-10.556-30.055-2.315-29.862,13a17.854,17.854,0,0,0,10.343,16.123,18.585,18.585,0,0,0-2.818,11.272,15.934,15.934,0,0,0-20.346,4.105Zm145.471-21.046c-34.9,51.976-95.012,49.445-138.591,23.038l5.561-7.257a9.062,9.062,0,0,1,11.022-2.674c37.964,19.049,84,13.328,111.19-28.687,15.934-22.531,27.724-72.067-2.382-108.561a13.437,13.437,0,0,1-.069-16.365l5.228-6.823C330.529,159.207,339.721,219.426,301.613,269.109Z" style="fill:#2b2b2b"/></svg>