<svg id="icons" xmlns="http://www.w3.org/2000/svg" viewBox="0 0 340 340"><title>59_mango</title><path d="M254.4,15.9l7.464,7.059s-20.713,5.261-20.076,41.252L218.537,49.557a218.841,218.841,0,0,1,21.593-32.6A9.692,9.692,0,0,1,254.4,15.9Z" style="fill:#3e6a51"/><path d="M232.067,49.2c-55.344-31.01-136.3,2.621-148.934,105.256a78.621,78.621,0,0,1-27.92,49.969c-10.039,9.566-28.639,14.92-31.44,48.006,7.1,85.213,202.528,79.856,229.281-26.307,8.25-62.958,11.51-121.077-2.36-162.585A73.769,73.769,0,0,0,232.067,49.2Z" style="fill:#ffd066"/><path d="M250.686,63.55A59.414,59.414,0,0,1,238.7,88.337c-11.955,14.229-42.337,47.168-23.922,123.46.034.115,5.767,61.1-67.417,84.852-55.762,18.1-115.285-9.117-123.579-44.214-.2,61.039,57.625,76.745,97.342,74.448,105.338-3.084,134.434-80.1,140.744-99.759C261.864,227.124,299.472,115.513,250.686,63.55Z" style="fill:#ed9d3e"/><path d="M261.864,22.956s15.585,18.536-6.829,67.317c0,0-38.514,76.841,2.719,167.367a47.744,47.744,0,0,1,4.207,19.405,3.133,3.133,0,0,0,5.27,2.26c13.153-12.27,44.187-45.851,47.909-92.445C320.4,121.005,303.328,57.59,261.864,22.956Z" style="fill:#80b297"/><path d="M159.955,113.173c-5.041,8.731-15.571,12.088-23.52,7.5C117.806,108.914,135.2,78.8,154.689,89.055,162.638,93.645,165,104.443,159.955,113.173Z" style="fill:#fff7e1"/><path d="M263.505,287.151c2.051-1.6,50.28-39.857,55.087-100.016,6.68-68.589-15.837-139.1-61.815-173.752a13.236,13.236,0,0,0-19.364,1.432,243.4,243.4,0,0,0-17.573,25.4C145.543,14.145,86.686,81.7,79.7,153.982a74.978,74.978,0,0,1-26.69,47.771c-3.675,3.022-7.738,6.2-12.076,9.438C24.98,223.538,13.2,248.518,25.128,280.319c25.007,72.964,181.006,66.625,228.146-24.275,4.31,8.8,6.461,18.48,4.691,27.784C257.342,286.8,261.139,289.151,263.505,287.151Zm48.773-136.512a38.825,38.825,0,0,0-6.783-4.826c-9.9-5.677-10.357-11.378-10.574-12.2-.073-31.457-4.142-59.4-15.075-86.145C298.955,73.863,310.281,109.843,312.278,150.639ZM270.584,43.774a162.106,162.106,0,0,1,10.894,30.985c2.819,15.37,11.513,32.992-12.149,45.17-11.825,5.536-19.47,11.9-24.42,17.682C253.943,86.072,270.623,77.5,270.584,43.774ZM260.417,27.289c2.28,4.743,6.3,17.678-.873,41.568A77.493,77.493,0,0,0,245.7,54.191C247.769,36.129,256.258,29.487,260.417,27.289Zm-17.569-8.183a6.254,6.254,0,0,1,9.173-.694l3.775,3.57c-5.444,3.34-13.554,10.98-16.429,27.573-5.457-3.354-4.8-3.252-12.936-6.861A237.494,237.494,0,0,1,242.848,19.106ZM121.23,322.438c-31.532,0-75.127-4.611-89.594-44.48C16.106,229.213,46.063,217.58,57.411,207.1a81.88,81.88,0,0,0,29.151-52.17c3.749-50.889,44.87-118.969,106.465-113.11,34.617,3.732,50.5,15.714,63.739,35.286-21.866,45.073-31.273,108.473-6.923,170.553C215.388,317.031,142.722,322.438,121.23,322.438Zm121.617-166.8c.385-2.182,3.955-17.516,29.418-29.437,7.39-3.459,12.1-8,15.079-12.662a308.264,308.264,0,0,1-.315,44.333c-.769,3.633-3.8,11.05-15.639,17.688-15.54,8.822-17.944,22.606-11.4,22.693a3.432,3.432,0,0,0,3.461-3.428c1.258-10.054,14.015-12.986,22.047-21.184a458.547,458.547,0,0,1-13.128,66.133,3.462,3.462,0,1,0,6.681,1.816,482.838,482.838,0,0,0,11.295-52.451c3.015,3.553,5.64,7.382,5.916,12.19.5,4.528,7.237,3.9,6.9-.632-.978-13.9-12.259-14.847-10.442-29.27.942-8.524,1.649-16.946,1.924-25.1a35.369,35.369,0,0,0,7.453,5.516c5.37,3.032,9.439,7.223,10.51,10.778,2.65,54.19-24.1,91.813-47.109,113.532a50.707,50.707,0,0,0-4.58-19.938A208.116,208.116,0,0,1,242.847,155.637Z" style="fill:#2b2b2b"/></svg>