<svg id="icons" xmlns="http://www.w3.org/2000/svg" viewBox="0 0 340 340"><title>5_yellow onion</title><path d="M169.944,330.722a3.463,3.463,0,0,1-3.462-3.463v-18.25a3.463,3.463,0,0,1,6.925,0v18.25A3.463,3.463,0,0,1,169.944,330.722Z" style="fill:#2b2b2b"/><path d="M144.954,330.723a3.469,3.469,0,0,1-.886-6.81c11.621-3.087,9.8-13.017,9.551-14.139a3.461,3.461,0,0,1,6.747-1.55C162.07,314.229,159.79,327.921,144.954,330.723Z" style="fill:#2b2b2b"/><path d="M191.724,330.723c-11.771-3.187-14.532-16.984-13.552-22.146a3.463,3.463,0,0,1,6.867.894c-.056.466-1.133,10.447,8.114,14.634A3.473,3.473,0,0,1,191.724,330.723Z" style="fill:#2b2b2b"/><path d="M120.112,25.876c11.97.364,44.817,5.674,48.249,52.659L149.24,83.308s-2.353-38.146-29.787-55.259A1.176,1.176,0,0,1,120.112,25.876Z" style="fill:#719b56"/><path d="M161.909,81.557S166.8,32.4,214.323,28.328c18.648-1.6,26.592,13.319,29.361,32.037a1.181,1.181,0,0,1-2.079.933C234.592,52.6,214.462,34.225,190.7,71.509l-13.851,20.1C170.806,94.917,165.655,92.647,161.909,81.557Z" style="fill:#719b56"/><path d="M151.686,103.84s-17.875-76.017,41.5-90.119a1.184,1.184,0,0,1,1.076,2.024c-7.518,6.746-24.027,25.179-25.761,58.136l-9.21,31.592Z" style="fill:#a9db89"/><path d="M216.392,161.083c-9.882-6.536-18.988-15.535-23.574-26.46-8.178-19.484-43.071-16.956-43.071-16.956-4.485,17.488-15.232,31.514-30,41.316C57.737,196.422,36.256,287.8,139.857,307.746c16.9,3.31,107.724,5.792,122.72-51.887C275.832,204.874,232.024,171.423,216.392,161.083Z" style="fill:#fc997e"/><path d="M168.5,73.881c-5.04,7.936-8.333,19.57-9.21,31.592l12.414,2.666A141.366,141.366,0,0,1,168.5,73.881Z" style="fill:#719b56"/><path d="M188.2,103.84a28.923,28.923,0,0,1,.556-6.015c3.444-18.175,29.208-18.483,33.27-.477a1.178,1.178,0,0,0,2.307-.094C230.79,56.13,170.4,46.17,164.979,106.7Z" style="fill:#a9db89"/><path d="M269.959,256.177c13.256-50.984-34.183-86.854-49.814-97.194C201.251,146.09,189.431,128.16,188.2,103.84H151.686a65,65,0,0,1-1.944,13.825l16.059,3.026a18.315,18.315,0,0,1,14.232,12.968,60.223,60.223,0,0,0,17.926,28.833c18.845,16.551,26.915,34.5,26.915,34.5,19.305,38.3,9.625,88.846-39.221,104.512a159.6,159.6,0,0,1-45.8,6.244C160.845,312.9,251.51,319.182,269.959,256.177Z" style="fill:#e0625c"/><path d="M143.38,173.458a3.524,3.524,0,0,1-7.047,0A3.524,3.524,0,0,1,143.38,173.458Z" style="fill:#e0625c"/><path d="M163.317,281.815c-7.242-36.582-7.55-75.432-.369-116.73a3.289,3.289,0,0,1,6.489.053c3.908,25.421,9.15,74.383.329,116.73A3.29,3.29,0,0,1,163.317,281.815Z" style="fill:#e0625c"/><path d="M139.6,278.781c-15.5-37.105-9.419-71.454-4.049-89.411a3.046,3.046,0,0,0-5.338-2.73c-19.628,26-18.431,66.8,4.122,95.113A3.046,3.046,0,0,0,139.6,278.781Z" style="fill:#e0625c"/><path d="M189.186,278.781c15.5-37.105,9.42-71.454,4.049-89.411a3.046,3.046,0,0,1,5.339-2.73c19.628,26,18.43,66.8-4.123,95.113A3.046,3.046,0,0,1,189.186,278.781Z" style="fill:#e0625c"/><path d="M109.242,273.664c-16.566-32.257-9.007-61.694-1.174-79.025a2.3,2.3,0,0,0-3.884-2.39c-22.912,28.345-23.692,56.065,1.3,84A2.3,2.3,0,0,0,109.242,273.664Z" style="fill:#e0625c"/><path d="M124.334,307.525c54.165,16,133.578,5.681,148.977-50.475C285.7,215.7,252.239,175.044,222.054,156.1c-18.028-11.805-29.772-31.2-30.39-52.368-.376-9.06,4.9-16.03,13.283-16.26a13.213,13.213,0,0,1,13.585,10.176c1.148,2.75.06,8.253,4.211,8.719a3.466,3.466,0,0,0,3.612-2.355c5.84-17.517-.648-39.029-22.887-43.2,16.585-17.172,31.794-3.627,37.822,5.957a3.462,3.462,0,0,0,6.413-2.134c-3.569-34.938-20.29-40.9-33.676-39.755-12.429,1.066-23.268,5.28-32.1,12.359,6.847-13.16,17.937-21.864,17.963-21.612a3.474,3.474,0,0,0-2.513-6.286c-19.136,3.267-33.261,12.537-41.949,27.653-16.517-16.675-39-14.576-40.01-14.473-3.336.245-4.256,5.089-1.223,6.525,26.523,13.6,30.972,48.15,31.521,53.718a122.73,122.73,0,0,0,2.484,21.364c-3.193,48.42-39.439,48.19-67.012,86.174C47.162,236.336,64.916,292.083,124.334,307.525Zm97-219.531A20.579,20.579,0,0,0,184.9,100.377H173.691c-.645-3.716-1.1-7.294-1.405-10.735a42.383,42.383,0,0,1,9.8-15.6C195.431,60.381,219.9,68.9,221.329,87.994Zm-6.711-56.216c4.859-.419,18.375-1.573,24.178,21.581-13.782-12.573-31.328-9.5-44.519,7.283-9,1.052-17.218,7.088-22.347,14.773a94.665,94.665,0,0,1,2.837-19.7C183.729,41.332,197.134,33.277,214.618,31.778ZM185.561,19.733c-15.736,20.149-24.31,40.88-18.9,80.644H154.528C150.418,80.961,149.8,32.508,185.561,19.733ZM147.407,59.388c-3.532-9.718-9.383-20.631-19.053-29.051a42.561,42.561,0,0,1,23.775,13.275A76.579,76.579,0,0,0,147.407,59.388ZM121.655,161.871c18.919-12.411,31.561-32.431,33.3-54.569h29.975c1.74,22.146,14.384,42.151,33.3,54.569,18.643,12.332,60.674,46.122,48.373,93.435-14.119,54.308-95.726,52.309-96.551,52.283-.983.064-83.183-.61-96.776-52.287C60.933,208.024,103,174.213,121.655,161.871Z" style="fill:#2b2b2b"/></svg>