<svg id="icons" xmlns="http://www.w3.org/2000/svg" viewBox="0 0 340 340"><title>60_tamarind</title><path d="M124.309,69.425a21.646,21.646,0,0,1-8.5-6.181s-20.117,20.386-29.448,2.9c0,0-16.736,18.6-26.384,2.424,0,0-14.364,16.7-27.018,8.429-6.688-4.371-2.5-9.542,2.943-13.445,0,0-10.77,4.833-19.714,4.2a8.745,8.745,0,0,1-6.094-14.5c3.134-3.579,8.971-6.847,19.826-7.078,0,0-17.648-2.219-9.623-14.407s34.829-.484,34.829-.484-4.375-19.747,24.195-8.056c0,0,3.993-18.275,32.72-.934,0,0,3.392-14.663,24.768.925,0,0,9.168-13.286,24.233,3.208,11.838-20.293,23.774,7.012,32.1,21.63l10.746,18.087-30.038,7.485A165.953,165.953,0,0,1,124.309,69.425Z" style="fill:#80b297"/><path d="M280.2,44.846l7.183,2.741a8.671,8.671,0,0,1,5.546,8.878l-.447,4.975a29.8,29.8,0,0,1-4.75,13.781c-3.628,5.487-8.447,15.5-8.52,30.024l-13.181-3.917s.866-18.265,9.047-31.3a29.038,29.038,0,0,0,4.338-13.506Z" style="fill:#6d5046"/><path d="M293.246,119.818s-8.7-24.324-31.891-21.7c-21.843,2.472-36.913,19.652-28.92,42.675a3.076,3.076,0,0,1-2.831,4.118c-8.156.1-24.947,2.53-31.332,19.927a31.9,31.9,0,0,0,2.308,27.24,3.079,3.079,0,0,1-2.953,4.569c-16.819-2.021-34.16,9.728-36.791,27.053a3.071,3.071,0,0,1-5.142,1.733,30.262,30.262,0,0,0-27.238-7.74c-22.076,4.17-31.464,22.222-29.172,36.829,2.952,18.8,23.744,20.672,23.744,20.672L241.9,245.857Z" style="fill:#c4948d"/><path d="M214.248,236.028c-2.133,2.39-9.1,7.456-14.813,7.468A43.977,43.977,0,0,0,165.314,259.1a20.28,20.28,0,0,1-20.354,6.272c-12.173-3.019-30.086-3.538-41.212,14.035-8.478,13.426-5.762,30.863,8.591,39.765a49.471,49.471,0,0,0,31.214,3.1c9.081-13.718,34.384-14.967,65.106-19.836,0,0,37.236-35,39.137-52.5C249.613,233.211,214.248,236.028,214.248,236.028Z" style="fill:#a86862"/><path d="M244.019,278.087a28.236,28.236,0,0,0,18.065-16.735l-30.233-36.184s-9.081.482-17.6,10.862v15.055a5.729,5.729,0,0,0,5.1,5.695l11.47,1.275,1.478,8.4a9.158,9.158,0,0,1-3.155,8.635,123.933,123.933,0,0,0-11.806,11.082c-6.5,7.092-19.629,13.151-29.243,13.434-13.541.4-24.759-2.4-41.733,12.434-8.75,7.951-21.157,10.507-34.02,7.134,14.068,8.687,35.771,8.424,47.974-4.114a17.769,17.769,0,0,1,15.048-5.092c13.345,1.764,36.459,1.8,47.7-16.021A38.2,38.2,0,0,1,244.019,278.087Z" style="fill:#7c3e35"/><path d="M238.107,247.253a106.936,106.936,0,0,1-10.91,10.4v0l1.841.2a2.389,2.389,0,0,1,2.089,1.962l.548,3.115a110.918,110.918,0,0,0,11.686-11.172C246.267,248.258,241.13,243.851,238.107,247.253Z" style="fill:#7c3e35"/><path d="M317.765,69.69l4.853.116a9.733,9.733,0,0,1,9.51,9.819c-.082,8.169-1.034,19.763-5.213,27.415,0,0-10.074,14.783-11.972,29.18l-12.321-6.946s1.712-11.364,10.452-24.508a27.655,27.655,0,0,0,3.658-7.782C318.531,90.589,320.918,78.915,317.765,69.69Z" style="fill:#966f64"/><path d="M308.952,117.594s-26.147-10.925-40.114,14.341a25.393,25.393,0,0,0-1.422,22.708,4.223,4.223,0,0,1-3.219,5.715c-6.28,1.139-16,5.291-21.435,19.589-3.194,8.4-2.947,15.232-1.4,20.488a4.259,4.259,0,0,1-3.11,5.386,31.1,31.1,0,0,0-21.481,17.54l10.94,6.512-2.12,16.316,15.043,3.319-1.6,9.989a12.427,12.427,0,0,0,.864,6.9s40.744,2.8,34.059-38.472c19.13,2.3,35.156-19.841,25.279-45.32,0,0,17.635.539,24.595-25.051C329.7,135.959,324.284,125.447,308.952,117.594Z" style="fill:#fcd9ca"/><path d="M217.594,68.354a166.119,166.119,0,0,0-25.649,39.889,11.052,11.052,0,0,1-19.354,1.641s-1.58,20.8-21.585,11.055c0,0-4.738,16.847-19.742,10,0,0-6.455,20.672-22.542,9.09,0,0-7.2,19.339-23,9.073,0,0-5.527,21.322-20.532,19.479-7.93-.974-6.448-7.463-3.287-13.365,0,0-7.536,9.088-15.842,12.462A8.744,8.744,0,0,1,34.2,157.357c1.234-4.595,5.032-10.1,14.672-15.1,0,0-16.817,5.791-14.989-8.687S64.93,117.781,64.93,117.781,52.3,101.987,83.093,99.881c0,0-4.475-18.163,28.955-15.267,0,0-3.422-14.657,22.638-10.092,0,0,2.369-15.968,23.164-7.808,0,0-1.232-20.464,22.416-11.342C206.661,65.553,217.594,68.354,217.594,68.354Z" style="fill:#80b297"/><path d="M328.829,158.314c5.875-21.6-3.464-35-19.876-40.72,0,0,18.2,10.748,8.422,34.454-4.089,9.91-11.514,14.3-20.418,15.882a8.293,8.293,0,0,0-6.518,10.046c2.021,9.011,2.839,22.217-7.168,28.567-9.056,6.04-17.752,8.373-26.342,4.617a2.441,2.441,0,0,0-2.823,3.8,35.725,35.725,0,0,0,4.454,4.525,18.925,18.925,0,0,1,6.646,12.684c1.1,12.422-2.811,27.577-25.289,34.222a12.4,12.4,0,0,0,3.107,4.345l11.034,9.852s31.278-8.419,24.593-49.69c14.772.979,33.4-23.431,25.1-45.652C303.748,185.247,321.869,183.9,328.829,158.314Z" style="fill:#c4948d"/><path d="M302.054,140.787a9.093,9.093,0,0,1-9.093,9.092c-12.037-.415-12.034-17.771,0-18.185A9.093,9.093,0,0,1,302.054,140.787Z" style="fill:#fff2ee"/><path d="M207.36,277.569c-.14,5.514-8.222,5.513-8.361,0C199.139,272.056,207.221,272.057,207.36,277.569Z" style="fill:#2b2b2b"/><path d="M323.008,121.438a92.466,92.466,0,0,1,6.946-12.738c4.5-8.241,5.548-20.342,5.636-29.041A13.247,13.247,0,0,0,322.7,66.345l-4.853-.116a3.481,3.481,0,0,0-3.359,4.581c2.869,8.393.548,19.413-1.09,25.236-1.7,5.856-6.466,11.018-8.811,16.724a42.008,42.008,0,0,0-11.419-.819,40.96,40.96,0,0,0-10.28-11.456,49.629,49.629,0,0,1,7.728-23.365c4.038-5.763,5.409-13.3,5.757-20.355a12.178,12.178,0,0,0-7.759-12.422l-7.183-2.742a3.486,3.486,0,0,0-4.689,3c-.583,7.173-.239,17.506-4.6,23.572-5.52,8.8-7.879,19.753-8.854,26.317-25.275,1.1-43.01,22.636-34.3,46.889-25.123-.529-45.648,24.857-31.77,51.74-17.916-1.94-36.678,11-39.7,29.36-32.029-29.11-84.82,18.9-52.12,49.12a37.073,37.073,0,0,0-8.826,15.709c-2.18-.91-5-.555-5.688,2.048-.789,3.146,2.043,4.42,4.643,4.823-1.966,27.461,34.08,43.214,59.017,29.459,7.75-3.95,10.7-11.58,20.623-10.215,13.708,1.778,38.539,1.84,50.823-17.64,4.728-7.964,13.375-12.818,22.365-15.659,1.352,1.007,3.8,4.116,5.7,3.914a3.467,3.467,0,0,0,.9-.119c.332-.09,32.292-9.2,27.621-49.893,16.449-2.668,30.875-26.308,25.592-46.227C329.22,183.1,345.873,139.529,323.008,121.438Zm-7.05-14.755c5.446-8.48,7.824-21.117,6.257-33.424a6.316,6.316,0,0,1,6.451,6.331c-.111,11.089-1.785,20.19-4.716,25.656a95.23,95.23,0,0,0-6.751,12.23,44.873,44.873,0,0,0-5.893-2.7A72.776,72.776,0,0,1,315.958,106.683Zm-37.95-34.817c4.276-6.265,5.056-14.656,5.33-22.116,7.363,2.324,6.277,4.779,5.693,11.38a26.4,26.4,0,0,1-4.191,12.182,55.8,55.8,0,0,0-8.507,23.431,29.215,29.215,0,0,0-6.108-1.8C271.159,88.923,273.291,79.381,278.008,71.866Zm-175.3,182.12c-2.062-13.137,6.487-29.129,26.394-32.89,19.03-3.6,28.172,11.336,28.546,11.963a3.475,3.475,0,0,0,6.4-2.312c-1.84-22.011,21-35.092,39.315-29.643a3.483,3.483,0,0,0,3.735-5.447c-5.109-6.526-10.224-16.963-5.577-29.625,7.494-20.418,31.2-17.617,32.2-17.486a3.486,3.486,0,0,0,3.6-4.879c-4.665-10.15-4.816-19.618-.437-27.381,4.563-8.087,13.623-13.455,24.856-14.727,12.035-1.369,19.7,5.609,24.019,11.713-15.841,4.108-29.825,26.007-21.174,43.574-17.457,1.414-32.777,25.549-26.28,45.405a34.413,34.413,0,0,0-24.672,19.641c-1.379,3.3,1.611,4.638,3.961,5.989-6.154,4.792-9.141,12.293-18.17,12.152a47.2,47.2,0,0,0-36.745,16.821,16.72,16.72,0,0,1-16.89,5.16c-13.843-3.432-25.879-1.671-35.075,4.911A18.932,18.932,0,0,1,102.705,253.986ZM220.131,292.1c-10.232,16.226-32.009,16.029-44.076,14.469a21.862,21.862,0,0,0-18.287,6.142c-16.163,17.049-55.576,8.872-55.349-16.881a145.392,145.392,0,0,0,87.569-7.588,3.463,3.463,0,1,0-2.639-6.4c-26.838,11.063-55.074,13.44-84.048,7.107,5.561-20.236,26.669-24.61,40.825-20.21a23.609,23.609,0,0,0,23.82-7.383,40.446,40.446,0,0,1,31.5-14.4,22.291,22.291,0,0,0,17.289-8.5,30.882,30.882,0,0,1,7.236-6.629l-1.808,13.91a3.462,3.462,0,0,0,2.688,3.827l9,1.986A143.222,143.222,0,0,1,216.9,265.533c-2.768,1.811-1.24,6.415,2,6.29a3.445,3.445,0,0,0,2-.635,154.1,154.1,0,0,0,14.652-11.723c-.886,6.111,2.17,11.813,6.983,15.472A41.733,41.733,0,0,0,220.131,292.1ZM325.489,157.4c-6.175,22.706-21.38,24.334-22,24.39a3.484,3.484,0,0,0-2.953,4.751c7.188,18.721-8.562,41.46-21.55,40.908a3.483,3.483,0,0,0-3.756,4c5.268,32.524-14.316,42.83-20.377,45.207l-9.526-8.5a8.924,8.924,0,0,1-2.88-8.108c.051-.922,2-10.75,1.536-11.388a3.534,3.534,0,0,0-2.6-2.532l-11.947-2.635,1.712-13.172a3.464,3.464,0,0,0-1.662-3.422l-8.115-4.83a27.567,27.567,0,0,1,21.906-13.506,3.487,3.487,0,0,0,3.038-5.048c-3.364-6.527-3.469-14.04-.315-22.335,7.36-19.354,23.076-17.789,23.722-17.714a3.486,3.486,0,0,0,3.383-5.249c-5.186-8.429-5.6-16.707-1.235-24.6,12.433-22.2,34.681-13.251,35.945-12.747C319.32,124.873,331.727,134.467,325.489,157.4Z" style="fill:#2b2b2b"/><path d="M110.145,144.973c10.373,5.679,19.338-1.272,23.046-9.63,8.723,2.877,16.665-2.936,19.7-9.838,9.811,3.989,18.692-.246,21.672-9.074,7.118,4.292,17.353,1.006,20.547-6.778a165.168,165.168,0,0,1,24.4-38.238c23.734-6.393,30.107-22.044,22.7-23.725a3.433,3.433,0,0,0-3.889,2.924c-.017.091-1.913,8.966-20.73,14.149-1.794-.507-6.437-1.882-14.4-4.641-3.428-7.124-9.182-18.309-17.489-31.985-7.172-12.4-17.418-16.6-25.243-7.165-7.426-7.132-17.561-8.426-24.12-2.3-10.655-6.8-19.293-9.045-25.755-1.213C96.514,9.96,84.6,8.056,77.468,18.8c-13.427-4.8-23.49-3.978-25.855,7.42-8.907-3.074-26.884-7.487-34.212,3.639-4.19,6.973-3.123,10.766.354,14.673C9.263,47.028,1.7,54.691,5.354,63.61A12.293,12.293,0,0,0,15.939,71.2a37.268,37.268,0,0,0,10.281-.924c-1.872,6.835,7.743,12.88,14.366,12.524,7.944,0,15.132-5.385,19.012-8.942,7.962,9.1,20.091,3.274,26.209-2.374,8.7,10.636,23.392,2.461,29.85-3.406a24.635,24.635,0,0,0,3.724,2.739c-5.577,1.054-10.02,4.964-10.765,10.1-15.95-.528-27.466,3.018-29.134,15.808-14.165,1.615-22.835,6.789-19.933,18.062-9.347,1.169-27.43,5.132-29.1,18.352-.713,8.044,1.99,11.093,6.789,13.015a22.424,22.424,0,0,0-6.38,10.3c-2.818,9.573,7.408,18.411,16.511,14.431a37.155,37.155,0,0,0,8.818-5.364c.7,3.843,5.346,6.81,10.915,6.64,11.865,0,18.073-11.644,20.6-18.074C97.214,158.561,106.222,152.4,110.145,144.973Zm6.716-87.856c-4.672,5.075-18.224,18.751-26.1,9.5l3.986-4.023c3.145-3.284-1.656-8.053-4.919-4.874C84.739,62.491,72.6,78.135,64.359,68.8L69.4,63.029c2.925-3.486-2.163-7.93-5.219-4.552C59.947,62.7,47.869,81.306,34.85,74.1c-3.6-2.165-1.507-4.136,3.067-7.735,3.346-2.367.29-7.669-3.434-5.972.635-.366-19.566,8.766-22.725.586a5.146,5.146,0,0,1,.937-5.444c3.227-3.687,9.208-5.726,17.294-5.9,4.221-.123,4.553-6.318.366-6.9-2.284-.3-7.359-1.7-8.472-4.13-.5-14.606,24.709-7.475,31.8-4.175,1.07.388,7.311,3.956,8.407,3.736,3.549.087,4.815-5.033,1.529-6.571l-5.264-2.585c-.136-6.81,5.1-8.182,19.448-2.662l9.778,5.7c3.945,2.225,7.393-3.614,3.486-5.983L83.746,21.8c5.273-8.574,24.378.124,34.793,9.85,3.448,2.954,7.951-2.113,4.585-5.188a82.785,82.785,0,0,0-6.618-5.331c3.751-5.536,20.246,4.132,25.14,12.271,2.561,3.773,8.22.062,5.8-3.783a35.1,35.1,0,0,0-5.563-6.5c9.142-5.786,18.678,7.061,23.342,15.636,2.286,3.951,8.192.655,6.059-3.354a72.455,72.455,0,0,0-6.031-9.276c4.864-6.687,9.376-2.609,14.535,5.607,6,9.882,10.638,18.423,14.011,25.035C152.574,34.949,54.967,43.668,46.93,44.934c-4.479.538-3.844,7.278.723,6.884.784-.082,67.867-6.95,111.859,1.339a16.09,16.09,0,0,0-4.711,8.884c-8.965-2.562-16.974-.795-21.285,6.189-5.412-.692-9.724-2.381-12.875-5.04l1.234-1.295C124.957,58.546,120.06,53.877,116.861,57.117ZM97,148.253a9.447,9.447,0,0,1-7.286-.866,31.222,31.222,0,0,1,3.478-8.381,3.462,3.462,0,0,0-5.76-3.843c-3.264,4.892-4.86,12.117-5.075,13.137-.346,1.236-5.335,18.244-16.74,16.848-1.4-.172-2.352-.563-2.615-1.071-.434-.835-.182-3.229,1.957-7.224a3.462,3.462,0,0,0-5.718-3.843c-.07.084-7.066,8.452-14.479,11.463-3.926,1.78-8.494-2.047-7.217-6.218,1.271-4.732,5.74-9.2,12.921-12.92,3.742-1.972,1.295-7.683-2.711-6.349-2.183.739-7.356,1.718-9.427.028-6.883-12.884,18.858-17.6,26.689-17.771H71.85c4.541-.065,4.556-6.853,0-6.925H66.831c-6.1-10.65,16.309-11.126,27.371-11.481a3.462,3.462,0,0,0-.317-6.917l-7.38.339c2.347-10.938,22.8-8.852,36.757-6.708,4.241-.032,4.69-6.3.447-6.895l-8.158-1.073c1.4-3.917,5.911-5.6,18.443-3.666.14,0,10.5,2.614,10.206,2.356a3.468,3.468,0,0,0,.807-6.829l-5.73-1.379c4.774-8.345,17.387-2.3,25.06,1.38,4.149,1.808,6.984-4.355,2.852-6.31l-5.783-2.613c.9-8.751,7.972-9.716,17.615-5.919,10.773,4.155,18.959,7.08,24.919,9.1-27.047,6.355-90.546,24.619-137.786,64.4a3.485,3.485,0,0,0,2.232,6.11C116.742,99.327,184.064,78.271,208.72,73.705a168.973,168.973,0,0,0-19.937,33.127c-1.985,4.925-9.122,6.184-12.555,2.118.405-2.19,1.594-6.848,4.745-10.186a3.462,3.462,0,0,0-5.035-4.753c-5.95,6.313-6.76,15.191-6.8,15.6-.72,6.569-4.605,13.118-13.776,9.413,1.3-3.374,3.411-8.1,5.633-10.589a3.461,3.461,0,0,0-.28-4.888c-6.386-5.641-13.116,17.1-13.009,16.342-.636,2.637-4.838,11.275-12.347,8.861.955-3.464,2.688-8.5,5.015-11.507a3.462,3.462,0,0,0-5.48-4.233c-4.431,5.734-6.63,15.393-6.978,17.024-1.768,5.331-7.183,13.508-15.119,8.488,1.253-3.816,3.616-9.843,6.4-12.993,2.955-3.457-2.113-7.947-5.187-4.587-4.984,5.64-8.117,16.35-8.575,17.988C105.059,139.846,102.153,146.551,97,148.253Z" style="fill:#2b2b2b"/></svg>