<svg id="icons" xmlns="http://www.w3.org/2000/svg" viewBox="0 0 340 340"><title>62_date palm</title><path d="M146.741,214.88s9.7,20,23.82,32.745c12.791,11.544,13.392,22.857,7,30.471s-26.284,10.3-34.389-4.682S146.741,214.88,146.741,214.88Z" style="fill:#993636"/><path d="M131.242,266.533c-3.032,11.371-5.577,26.83-2.529,40.8a18.187,18.187,0,0,0,12.452,13.748C163,324.539,169.241,308,151.388,267.453,144.33,262.8,137.549,261.661,131.242,266.533Z" style="fill:#db6767"/><path d="M164.675,311.668c6.524-13.1-8.659-44.459-27.776-61.854a125.4,125.4,0,0,0-5.656,16.719c5.091-.636,18.01-.532,22.333,15.815,5.427,20.523.439,39.756-12.408,38.721C151.551,324.165,161.49,320.329,164.675,311.668Z" style="fill:#993636"/><path d="M47.66,257.917c-.266,1.707-16.1,42.984-8.858,58.874,4.222,11.515,20.548,12.339,25.713,1.215C73.11,300.616,56.408,276.171,47.66,257.917Z" style="fill:#993636"/><path d="M44.792,247.726C30.5,255.18,11.617,266.85,12.6,284.207c0,0,8.134,24.724,38.167-17C51.586,257.834,49.882,251.046,44.792,247.726Z" style="fill:#db6767"/><path d="M32.155,283.521c-8.425,4.64-17.769,4.212-19.522.859a13.477,13.477,0,0,0,16.426,10.612c20.834-4.484,26.238-33.212,33.357-54.971a162.182,162.182,0,0,0-17.623,7.706C46.551,255.471,49.319,274.068,32.155,283.521Z" style="fill:#993636"/><polygon points="87.069 194.411 66.001 218.687 65.513 238.435 87.069 244.614 101.773 215.671 87.069 194.411" style="fill:#993636"/><path d="M67.243,234.1c-5.331,6.435-9.748,13.621-14.388,23.642-2.158,7.825-6,15.089.834,24.956,6.743,3.819,13.171,2.041,19.544-.7,3.124-3.126,6.54-6.413,8.358-13.835C88.456,240.137,67.243,234.1,67.243,234.1Z" style="fill:#db6767"/><path d="M66.927,228.71a141.528,141.528,0,0,0-14.068,29.031c.344-.952,2.487-4.5,8.083-8.18,6.457-4.243,12.573-1.911,13.49,5.455a21.245,21.245,0,0,1-1.458,10.153C67.94,279.333,58.848,282.242,53.7,282.687a14.714,14.714,0,0,0,21.75,1.247c3.124-3.127,6.06-7.947,7.878-15.369C90.194,240.541,66.927,228.71,66.927,228.71Z" style="fill:#993636"/><path d="M59.78,195.346s-19.8-3.9-24.024,11.544c0,0-2.806,14.309,12.012,18.862,22.206-7.457,43.154-6.984,45.256-34.454Z" style="fill:#993636"/><path d="M94.944,145.328c-23.77-22.638-47,4.692-28.641,20.911a17.9,17.9,0,0,0,11.242,3.578c16.105-.052,23.09-3.09,23.09-3.09Z" style="fill:#993636"/><path d="M86.087,166.738a87.392,87.392,0,0,1-14.154.3,27.2,27.2,0,0,0-8.914.881c-5.738,1.566-12.926,5.519-13.144,15.5,0,0,2.9,15.473,20.058,13.072,9.029-1.263,24.946-3.8,36.092-24.624C106.025,171.865,92.723,166.077,86.087,166.738Z" style="fill:#db6767"/><path d="M113.6,170.305,97.22,164.939a84.213,84.213,0,0,1-11.133,1.8h0s8.952,15.707-8.677,22.158c-14.461,5.291-24.475,1.439-27.521-5.477-.783,8.428,6.379,19.175,21.637,16.14C80.451,197.7,102.455,191.125,113.6,170.305Z" style="fill:#993636"/><path d="M85.011,228a27.557,27.557,0,0,0-4.071,9.22c-4.981,21.466,18.468,21.076,29.641,13.81,8.917-8.157,9.225-19.748,1.456-29.585C102.957,216.674,93.024,219.513,85.011,228Z" style="fill:#993636"/><path d="M126.035,230.759c-2.025-10.525-7.846-16.523-16.5-19.146,0,0-16.189,4.108-24.518,16.387.225-.162,10.873-7.713,21.8.71,6.366,4.909,5.627,14.769,3.862,22.243C119.8,244.505,126.035,230.759,126.035,230.759Z" style="fill:#993636"/><path d="M125,220.726c.006,1.248-9.987,23.434-20.835,31.054-3.322,2.68-14.115,12.743-10.357,27.774,2.333,9.333,8.7,11.757,14.2,11.964,18.046.036,30.065-19.431,27.554-45.366Z" style="fill:#993636"/><path d="M100.462,181.427c-4.219,4.807-10.511,8.5-11.711,15.329-5.68,27.254,44.081,44.168,42.854-27.5C122.926,169.8,112.037,169.513,100.462,181.427Z" style="fill:#db6767"/><path d="M137.775,173.7a94.482,94.482,0,0,1-3.347-10.836v0c-2.264-8.951-3.534-17.535-3.534-17.535l-16.943,12.677a122.862,122.862,0,0,1-13.494,23.419c3.747-3.759,7.865-3.741,11.092-3.618,6.619.253,11.722,6.3,11.107,12.2-1.2,11.54-6.577,30.232-21.112,29.508a21.622,21.622,0,0,0,21.978-4.632C133.6,205.241,142.1,184.8,137.775,173.7Z" style="fill:#993636"/><path d="M174.916,185.483c16.464,35.736-53.1,45.9-43.074-43.122C148.735,156.349,164.2,164.859,174.916,185.483Z" style="fill:#993636"/><path d="M271.672,221.967c-3.716,11.121-5.5,46.992,29.185,60.627,15.223,6.412,31-3.284,25.612-21.475C319.374,239.777,272.847,221.918,271.672,221.967Z" style="fill:#993636"/><path d="M310.761,296.529c6.712,33.707-20.2,26.7-20.2,26.7-7.642-5.737-14.033-17.117-12.373-32.544l1.339-16.511S306.741,276.343,310.761,296.529Z" style="fill:#db6767"/><path d="M281.883,284.551c-5.21,16.4-19.349,22.586-27.777,9.118-2.488-13.08,9.359-34.551,13.86-39.9C277.193,258.163,284.128,265.489,281.883,284.551Z" style="fill:#db6767"/><path d="M266.005,201.832s-19.267,17.739-25.044,49.821a16.92,16.92,0,0,0,.6,8.666c1.539,4.318,5.394,9.436,14.978,10.27,21.391,1.859,18.086-48.456,18.086-48.456Z" style="fill:#993636"/><path d="M271.771,220.8s6.965,16.353,25.163,18.469c8.643,1,11.125-1.818,14.068-7.536,1.407-2.733,1.407-10.35,1.407-10.35-2.9-14.449-25.468-29.617-42.641-32.528C269.768,188.859,259.184,199.841,271.771,220.8Z" style="fill:#db6767"/><path d="M312.793,231.972a26.176,26.176,0,0,0-.391-10.583c-2.3,5.811-7.526,10.5-19.262,5.769-16.835-6.787-21.873-27.4-23.373-38.294a28.1,28.1,0,0,0-7.325-.147s-5.258,13,7.329,33.963c0,0,9.266,16.728,27.464,18.844C305.878,242.529,311.714,238.312,312.793,231.972Z" style="fill:#993636"/><path d="M214.577,132.974c.363,1.072,30.587,38.751,30.587,38.751l33.012-11.509s7.525-7.078,2.452-20.368c-6.267-16.421-37.879-10.648-37.879-10.648Z" style="fill:#993636"/><path d="M247.272,154.026c6.579-5.929,12.8-2.729,21.511-.134,12.022,4.258,19.654,13.165,20.677,22.807,0,0,.115,13.837-16.555,19.093-6.792,2.141-14.529-2.047-20.507-10.167C245.347,176.045,245.391,155.792,247.272,154.026Z" style="fill:#db6767"/><path d="M213.016,162.91s-15.42,27.757-8.719,42.348c9.056,19.716,28.469,3.025,28.469,3.025l6.291-17.082Z" style="fill:#993636"/><path d="M226,236.374c-5.986-7.247-1.815-22.187,3.043-33.981,10.948-12.676,29.6-8.951,27.665,8.665C251.964,235.543,237.918,244.449,226,236.374Z" style="fill:#db6767"/><path d="M246.686,173.53l-9.514,12.149a153.722,153.722,0,0,0-8.129,16.715,25.343,25.343,0,0,0,15.449-.977,4.754,4.754,0,0,1,6.533,3.7c1.193,7.945,1.046,21.038-10.363,28.67-5.566,3.723-10.51,3.956-14.657,2.582a10.5,10.5,0,0,0,3.188,2.6c9.484,5.066,16.947,1.345,21.86-3.256,4.136-3.874,7.832-9.17,9.339-14.634C269.486,188.09,246.686,173.53,246.686,173.53Z" style="fill:#993636"/><path d="M237.593,156.493c4.4,6.792,11.464,21.838,5.313,32.058-8.849,10.348-22.06,5.179-27.152-8.718l1.366-32.961C225.5,146.894,232.238,150.284,237.593,156.493Z" style="fill:#db6767"/><path d="M210.35,134.38s-1.774,27.811,5.405,45.452a25.549,25.549,0,0,0,8-22.263c-.324-2.45,2.44-5.28,4.88-5.678,2.981-.487,5.4.708,8.955,4.607A60.166,60.166,0,0,0,210.35,134.38Z" style="fill:#993636"/><path d="M212.361,106.722a71.008,71.008,0,0,0,9.023-.969c14.361-2.457,31.7,2.164,34.114,15.44-2.352,16.247-23.243,19.877-35.91,9C212.32,122.636,209.952,114.809,212.361,106.722Z" style="fill:#db6767"/><path d="M244.574,138.466A15.456,15.456,0,0,0,255.5,121.193c-2.009,6.064-7.8,12.04-20.711,11.352-20.881-1.112-22.424-25.823-22.424-25.823l-.006,0c-16.06.648-23.4-5.214-23.4-5.214C190.673,123.546,215.631,146.106,244.574,138.466Z" style="fill:#993636"/><path d="M180.928,94.972c4.034-3.4,7.571,2.371,10.75,5.658,5.581,8.772,4.3,20.407.788,32.969-10.715,4.656-19.279,4.4-25.079-2.174C165.755,122.792,165.607,109.56,180.928,94.972Z" style="fill:#db6767"/><path d="M195.243,139.938c10.372-12.032,4.254-30.54-3.567-39.307,2.015,8.366,4.744,28.027-12.842,31.779-4.842,1.033-8.57.491-11.446-.985C168.762,144.528,187.292,150.446,195.243,139.938Z" style="fill:#993636"/><path d="M197.836,125.147a8.917,8.917,0,0,1,14.208,2.031c8.6,16.215,10.292,52.638-14.448,49.422-15.086-1.37-18.835-21.617-8.125-40.134A57.245,57.245,0,0,1,197.836,125.147Z" style="fill:#db6767"/><path d="M137.987,131.56c-1.908,13.059-7.151,27.781-20.289,35.915-11.667,7.224-20.432,2.674-25.161-1.437-9.9-9.157-8.793-23.947,5.259-30.892Z" style="fill:#db6767"/><path d="M138.242,105.451s-17.2,20.935-37.267,28.341a33.6,33.6,0,0,0-3.176,1.361c2.618,2.01,6.648,3.913,12.849,4.817a31.956,31.956,0,0,0,27.338-8.41A100.175,100.175,0,0,0,138.242,105.451Z" style="fill:#993636"/><path d="M133.311,181.3s17.719,16.454,23.381,38.021c0,0,4.891,37.055-20.786,33.476-25.953-3.618-13.285-41.654-9.612-49.091C129.57,197.077,132.619,190.054,133.311,181.3Z" style="fill:#db6767"/><path d="M56.037,221.939a124.891,124.891,0,0,1-15.077.886c-10.628.2-16.763,6.1-19.186,13.732,0,0,2.158,15.7,10.458,14.469C66.841,245.883,56.037,221.939,56.037,221.939Z" style="fill:#db6767"/><path d="M44.985,243.73c-12.106,4.247-20.917-.052-23.208-7.172-1.86,7.62,2.863,15.894,11.154,17.185a31.434,31.434,0,0,0,15.136-1.863c13.779-5.854,23.462-33.193,23.462-33.193a75.831,75.831,0,0,1-15.492,3.25h0S59.369,238.684,44.985,243.73Z" style="fill:#993636"/><path d="M158.265,235.679a48.748,48.748,0,0,0-1.583-16.352,32.158,32.158,0,0,1-2.709,12.565c-6.816,14.4-28.256,10.666-30.586-5.092-1.611-10.892,2.907-23.091,2.907-23.091h0c-3.674,7.438-7.633,14.385-8.876,22.726C113.251,260.642,155.472,267.465,158.265,235.679Z" style="fill:#993636"/><path d="M68.727,176.987c-.141,5.12-9.619,5.119-9.76,0C59.109,171.867,68.587,171.869,68.727,176.987Z" style="fill:#fcdede"/><path d="M141.35,304.191c-.151,6.44-8.426,6.439-8.576,0C132.925,297.751,141.2,297.753,141.35,304.191Z" style="fill:#fcdede"/><path d="M27.967,271.724c3.52,3.72-3.183,10.421-6.9,6.9C17.546,274.9,24.249,268.2,27.967,271.724Z" style="fill:#fcdede"/><path d="M273.565,197.593c9.983-.735,17.268-11.183,15.891-20.894a12.535,12.535,0,0,1-9.706,9.066c-10.507,2.452-17.472-3.2-21.39-8.186a28.012,28.012,0,0,1-4.7-9.444,59.909,59.909,0,0,0-6.388-14.106c-7.181,5.808-2.379,25.027,4.754,34.512C258.007,196.661,266.466,198.153,273.565,197.593Z" style="fill:#993636"/><path d="M198.52,159.984c-.166,7.221-9.155,7.22-9.321,0C189.366,152.764,198.355,152.765,198.52,159.984Z" style="fill:#fcdede"/><path d="M234.545,226.566c-.125,5.3-6.93,5.3-7.054,0C227.615,221.269,234.421,221.27,234.545,226.566Z" style="fill:#fcdede"/><path d="M278.33,165.554c4.176,4.313-1.359,9.847-5.671,5.671C268.483,166.912,274.018,161.378,278.33,165.554Z" style="fill:#fcdede"/><path d="M271.308,249.745a44.207,44.207,0,0,0-3.342,4.023l1.029,3.8S288.3,273.635,274.81,289.9c-9.211,11.106-20.68,3.789-20.7,3.764,1.363,11.661,14.94,17.279,23.314,8.517,3.629-3.875,7.015-10,8.273-19.643C288.87,258.209,271.308,249.745,271.308,249.745Z" style="fill:#993636"/><path d="M313.16,295.346C304.852,276.513,280.1,267.2,280.1,267.2l-.565,6.976c8.971,4.673,22.53,14.319,25.686,30.959,2.588,13.645-6.076,17.468-14.646,18.088C306.947,335.539,323.931,318.244,313.16,295.346Z" style="fill:#993636"/><path d="M295.264,310.139c2.346,5.253-4.33,8.424-6.919,3.287C286,308.173,292.674,305,295.264,310.139Z" style="fill:#fcdede"/><path d="M141.468,109.5l9.317-1.282c7.5,5.623,16.681,14.4,18.991,24.858,2.669,12.088-1.781,20.875-8.535,24.733-5.736,2.517-15.578,1.647-19.128-9.262Z" style="fill:#db6767"/><path d="M161.24,157.807c-13.338,1.33-18.787-7.113-14.8-16.254,6.428-13.088,5.313-27.1,4.343-33.334a84.2,84.2,0,0,0-10.392-6.716s-7.769,20.244-7.644,31.811,4.778,23.65,16.722,26.278A16.479,16.479,0,0,0,161.24,157.807Z" style="fill:#993636"/><path d="M144.3,81.407a1.512,1.512,0,0,1,2.4,1.269c.233,7.259-5.017,37.41-23.448,46.831-17.484,8.295-33.433-13.7-19.743-27.373C115.873,91.06,134.588,89.682,144.3,81.407Z" style="fill:#db6767"/><path d="M113.6,112.36c-.148,6.441-8.167,6.44-8.315,0C105.435,105.92,113.453,105.921,113.6,112.36Z" style="fill:#fcdede"/><path d="M25.868,298.823a21.473,21.473,0,0,0,8.127-1.787c-7.431,47.772,49.8,40.026,33.6-5.574,14.552-2.059,20.395-20.037,20.449-33.524a24.136,24.136,0,0,0,5.554.9c-12.261,20.766,4.547,46.94,29.05,31.857a72.567,72.567,0,0,0,1.4,17.99c6.937,30.4,60.318,22.355,41.864-21.265,20.122-3.132,27.364-23.909,6.964-42.367a86.341,86.341,0,0,1-11.022-12.343,55.334,55.334,0,0,0-2.839-17.783,19.968,19.968,0,0,0,17.473-6.651c12.766-14-4.412-36.392-15.347-46.551a21.754,21.754,0,0,0,12.259-15.769,20.779,20.779,0,0,0,7.572,2.618c-4.082,16.114,3.182,33.3,21.037,31.523-3.512,11.253-3.809,20.19-.863,26.6,4.04,8.841,11,12.787,19.288,11.343C216.83,234.174,223.59,244.8,238.9,244.8c-3.587,11.814-2.088,25.366,14.722,28.884-3.117,8.386-4.977,19.067-1.01,26.651,3.89,8.762,15.437,12.281,23.55,7.239,14.083,42.567,61.852,20.289,36.819-19.641,13.588-.935,21.379-15.147,16.778-27.9-3.383-8.24-9.182-14.318-16.825-20.365a14.555,14.555,0,0,0,3.276-7.113c2.876-19.062-10.632-31.074-27.223-40.761,7.519-10.422,4.119-24.657-5.476-33.2,2.089-4,3.882-10.742.356-19.979-3.133-8.209-11.674-12.913-24.772-13.725.537-19.026-21.3-25.523-38.287-22.55-11.512,1.955-19.442.6-24.192-.965a48.6,48.6,0,0,0-11.078-11.308c-19.854-17-22.9-37.3-22.12-58.209C179.24,47.607,199.441,57.5,204.6,94.837a3.462,3.462,0,1,0,6.878-.791c-6.26-55.735-51.77-57.308-45.463-80.3,1.143-4.386-5.393-6.219-6.675-1.839a98.036,98.036,0,0,0-2.612,15.736c-11.57,17.558-30.978,21.461-37.187,49.324-.9,4.431,5.694,5.939,6.763,1.483,2.585-11.779,9.448-21.847,20.983-30.778a73.161,73.161,0,0,0,9.016-8.242c1.863,19.107-4.178,39.285-29.406,46.9-6.039,2.243-20.237,7.275-25.83,13.356-9.725,10.059-7.021,22.576,1.026,29.928-4.847,1.742-10.132,4.385-12.855,7.263-20.57-12.333-42.167,8.746-28.862,28.234-11.937,3.723-16.835,15.478-12.447,26.973-12.481,2.646-20.306,13.763-13.157,27.993-16.216,3.7-23.976,25.136-8.279,34.99-9.695,7.461-13.654,11.751-17.042,23.016C6.65,288.355,15.361,299.111,25.868,298.823Zm35.507,17.725a10.5,10.5,0,0,1-19.322-.949,28.626,28.626,0,0,1-1.362-5c-.785-3.914-.42-10.2,1.053-18.2a40.326,40.326,0,0,0,8.116-9.1,18.361,18.361,0,0,0,10.183,7.571C63.993,301.287,64.449,309.926,61.375,316.548Zm18.591-48.807c-1.458,5.955-3.8,10.581-6.964,13.746-5.1,5.419-14.965,3.607-18.008-3.14a16.676,16.676,0,0,1-1.517-9.545c2.752-14.375,10.906-29.18,14.549-35.287a33.543,33.543,0,0,1,8.763,9.41c.069,5.336,1.957,8.663,3.963,10.765A35.77,35.77,0,0,1,79.966,267.741ZM71.23,227.3c1.391-2.673,2.4-4.84,2.972-6.1,6.036-3.123,9.965-6.7,12.631-10.783a21.242,21.242,0,0,0,4.267,6.445,35.286,35.286,0,0,0-12.7,16.7A40.821,40.821,0,0,0,71.23,227.3Zm13.081,10.706c1.539-6.556,5.771-12.185,12.57-16.754a25.386,25.386,0,0,0,17.556,2.283,32.456,32.456,0,0,0-.454,11.548c-4.23,7.031-8.73,11.3-14.809,16.554C88.184,253.177,81.5,249.279,84.311,238.006ZM116.97,215.3c-12.454,6.441-28.031-3.554-24.839-17.794a14.993,14.993,0,0,1,5.172-8.153,62.371,62.371,0,0,0,12.682-15.034c6.121-1.1,13.191-5.681,17.671-10.569a144.676,144.676,0,0,0,2.16,17.711C128.588,194.881,121.594,203.768,116.97,215.3Zm18.683-26.472c7.4,8.5,20.763,26.826,19.155,46.663-.04.7-1.148,17.116-15.84,17.116-13.95.55-19.781-14.991-18.126-25.662C123.107,213.165,132.645,202.954,135.653,188.829Zm-27.516,99.229c-5.866-.221-9.454-3.276-10.97-9.343-3.683-20.03,12.195-23.66,19.135-34.745,2.733,6.974,8.523,12.874,15.892,14.7C130.28,275.573,121.614,287.976,108.137,288.058Zm53.289,23.131c-2.362,5.635-6.594,8.456-12.939,8.622-15.2.3-17.351-10.977-17.648-12.5a72.38,72.38,0,0,1-.692-23.813c4-5.2,7.84-12.921,8.921-23.963.86,0,1.685-.053,2.486-.132C154.8,275.369,166.814,299.63,161.426,311.189Zm-.816-68.929a83.684,83.684,0,0,0,7.632,7.936c14.894,12.544,12.5,29.218-5.086,30.545a108.842,108.842,0,0,0-14.276-23.367C155.447,254.162,158.988,247.894,160.61,242.26Zm11.2-55.239c6.877,12.9-2.974,24.756-15.857,20.077a99.512,99.512,0,0,0-19.444-27.515c-.686-3.83-2.9-17.329-1.712-26.009l.078-.149a22.072,22.072,0,0,0,17.842,10.012C161.43,171.013,167.179,178.115,171.814,187.021Zm50.623,23.323c-6.972,2.6-11.754.523-14.993-6.531-2.528-5.453-1.566-14.518,2.645-25.981a17.448,17.448,0,0,0,1.773-1.1c3.7,10.325,8.089,16.523,16.01,19.645A123.787,123.787,0,0,0,222.437,210.344Zm-1.867-66.535c2.722,3.266,30.21,32.226,22.572,41.992-10.2,10.9-21.882,1.7-25.863-15.038C220.994,164.964,221.992,153.489,220.57,143.809Zm10.254,92.1c-6.987-3.732-5.4-18.084,4.209-38.516a19.735,19.735,0,0,0,14.614-8.851,29.18,29.18,0,0,0,7.434,7.38c2.692,11.106,1.008,28.509-8.4,37.258C243.073,238.44,237.23,239.333,230.824,235.912Zm14,23.245c-1.813-5.12.5-11.139,1.744-16.232,9.474-4.39,15.448-14.541,17.315-24.921a75.6,75.6,0,0,0,7.458,12c-.445,18.391-2.8,37.441-14.5,37.132C250.559,266.594,246.516,263.908,244.824,259.157Zm21.321,43.707c-12.871-2.921-8.982-19.774-5.176-29.131,7.818-1.9,11.62-8.848,14.063-16.828,4.378,4.443,8.912,12.3,7.231,25.189C280.842,291.852,276.4,304.078,266.145,302.864Zm45.671,13.573c-9.31,17.664-28.031.439-29.845-14.322,4.948-6.245,7.839-17.311,7.558-26.3,7.171,4.325,16.23,11.335,20.463,20.931C313.426,304.526,314.056,311.337,311.816,316.437ZM318.4,254.5c10.821,11.426,5.591,29.419-11.33,26.225a76.19,76.19,0,0,0-18.683-13.491,33.133,33.133,0,0,0-11.6-18.013,107.372,107.372,0,0,0,1.3-12.362c6.375,5.553,19.409,10.789,28.873,6.988A55.277,55.277,0,0,1,318.4,254.5ZM303.082,211.24c7.948,7.983,11.721,28.835-5.448,26.845-21.675-2.9-31.512-28.348-31.7-38.4,6.106,1.268,12.571.53,17.692-2.889A75.261,75.261,0,0,1,303.082,211.24Zm-17.421-28.349c-3.673,14.039-22.972,13.1-30.178,1.923-5.376-7-7.42-17.2-6.675-24.925,1.65-9.517,11.971-4.789,18.819-2.733C280.675,161.778,288.091,172.36,285.661,182.891Zm-28.338-51.166c8,.3,17.362,2.261,20.071,9.358,2.306,6.042,1.624,10.454.452,13.287-5.885-3.663-14.834-6.238-21.022-7.1a13.315,13.315,0,0,0-14.919,12.088,167.283,167.283,0,0,0-12.527-16.127C241.772,143.923,252.123,142.139,257.323,131.725Zm-35.359-22.56c12.451-2.271,31.923,1.9,30.088,16.458a11.886,11.886,0,0,1-8.478,9.529c-5.753,1.738-15.294,2.22-25.128-1.455-2.059-7.269-6.078-15.08-14.638-14.657a38.663,38.663,0,0,0-2.643-9.483A63.659,63.659,0,0,0,221.964,109.165Zm-7.889,39.11c.805,15.16-1.819,25.886-16.166,24.877A10.791,10.791,0,0,1,188.851,167c-6.01-10.535,1.839-30.085,11.469-39.438C210.082,119.891,213.466,140.378,214.075,148.275ZM183.52,97.283c3.975,3.376,12.3,11.821,13.572,23.986a12.4,12.4,0,0,0-1.74,1.464h0a61.34,61.34,0,0,0-12.3,19.093c-5.149-.343-10.657-3.692-11.921-9.368C169.1,123.331,168.763,111.187,183.52,97.283ZM150.207,81a44.275,44.275,0,0,0,10.135-16.059c3.881,11.108,6.776,16.9,17.928,27.788-8.486,8.154-12.522,15.967-14.148,22.992a80.655,80.655,0,0,0-17.077-14.3A74.231,74.231,0,0,0,150.207,81Zm13.045,45.2c.443,5.164.979,9.789,3.838,13.938-1.2,27.274-39.757,20.536-28.971-19.954a64.372,64.372,0,0,0,6.542-12.058C150.1,111.754,158.493,118.224,163.252,126.207Zm-57.3-21.623c11.107-9.807,25.433-10.551,36.981-18.065-.9,9.054-5.938,31.5-21.169,39.86C108.012,132.839,94.876,116.071,105.957,104.584Zm-3.783,32.455a61.594,61.594,0,0,0,7.165-3.213c6.594,2.376,14.4.275,20.1-3.953a41.179,41.179,0,0,0,1.588,15.223c-3.315,8.722-8.409,15.262-15.15,19.436C94.646,177.977,76.581,145.9,102.174,137.039Zm-37.429,9.818c3.9-7.587,13.968-8.085,20.258-4.387a21.158,21.158,0,0,0,.761,20.819c-4.858.685-11.585.273-17.26.291A13.315,13.315,0,0,1,64.745,146.857Zm-.814,24.4a23.674,23.674,0,0,1,7.778-.765,94.685,94.685,0,0,0,19.67-.924,24.2,24.2,0,0,0,10.264,4.813c-4,6.41-10.4,9.77-14.04,15.923-9.394,4.26-18.035,7.75-25.9,5.589-8.34-2.684-8.3-9.857-8.345-10.974C52.981,177.77,56.438,173.3,63.931,171.256Zm-24.794,36.4c1.6-5.621,6.075-8.712,13.288-9.211,9.15,7.937,20.6,5.173,31.772.943-4.883,15.961-16.265,18.9-41.177,19.956C38.178,215.026,38.993,208.569,39.137,207.657ZM26.505,234.17a16.141,16.141,0,0,1,14.454-7.882,118.714,118.714,0,0,0,24.215-2.335c-4.658,8.952-12.626,21.6-20.528,24.954a20.2,20.2,0,0,1-11.182,1.415C26.181,249.42,22.455,240.13,26.505,234.17ZM16.18,279.7c3.353-10.894,8-14.893,19.257-22.252a25.924,25.924,0,0,0,15.241-3.964,89.182,89.182,0,0,0-3.992,13.964,22.3,22.3,0,0,0,.046,7.539C41.9,284.3,35.7,289.893,28.274,291.619,21.29,293.479,14.235,286.754,16.18,279.7Z" style="fill:#2b2b2b"/></svg>