<svg id="icons" xmlns="http://www.w3.org/2000/svg" viewBox="0 0 340 340"><title>66_starfruit</title><path d="M182.45,325.124h36.1c12.568,0,22.6-11.976,27.264-26.956L234.7,278.95Z" style="fill:#ed9d3e"/><path d="M238.694,156.956h12.56c10.116.258,14.87,7.715,19.614,16.756l4.539,24.6s38.752-6.039,56.367,25.416c-17.312,22.2-37.736,37.393-63.151,41.361C258.311,232.875,243.021,186.823,238.694,156.956Z" style="fill:#ffd066"/><path d="M260.02,238.293c13.78,43.921,29.024,86.857,29.024,86.857l10.705-8.408a16.508,16.508,0,0,0,6.252-14.3c-1.817-22.64-9.96-33.166-9.96-33.166,30.952-13.085,35.733-45.546,35.733-45.546l-15.959,2.243Z" style="fill:#ed9d3e"/><path d="M103.59,16.029a13.756,13.756,0,0,1,17.828-3.911c3.555,1.981,6.748,3.828,6.473,3.919-.6.2-16.271,16.473-8.638,46.605H90.527S90.384,34.215,103.59,16.029Z" style="fill:#6d5046"/><path d="M275.407,198.313a50.741,50.741,0,0,0-4.544-24.6c-.032,22.569-19.8,27.947-21.7,28.41,1.3,4.609,2.683,9.35,4.118,14.169l8.987-2.356Z" style="fill:#ed9d3e"/><path d="M100.655,57.132C60.93,29.993,1.3,45.881,8.966,181.538c8.77,111.32,88.624,147.1,88.624,147.1Z" style="fill:#ffd066"/><path d="M104.278,57.132c51.514-34.555,104.967,10.593,89.94,139.991L107.1,306.991Z" style="fill:#ffd066"/><path d="M107.343,328.643s72.332-32.42,86.871-131.521c-8.1.466-29.325,4.195-48.7,29.1l-38.259,94.79Z" style="fill:#ed9d3e"/><path d="M138.09,82.632c-19.574-35.16-49.027-39-71.247,0C28.407,144.526,47.571,284.9,95.369,324.134h14.195C157.63,284.642,175.959,145.055,138.09,82.632Z" style="fill:#ed9d3e"/><path d="M113.715,58.519a14.791,14.791,0,0,0-22.5,0c-27,31.47-22.327,121.216-17.982,174.987,2.735,33.833,11.608,66.537,18.868,88.72a10.9,10.9,0,0,0,20.724,0C134.543,264.49,150.2,104.058,113.715,58.519Z" style="fill:#ffd066"/><path d="M164.275,227.937s2.355,27.754,32.738,35.368c0,0-22.914,13.362-14.563,61.819,0,0,38.315,2.284,52.069-36.522,0,0,8.161,38.465,54.525,36.548,0,0,14-34.583-13.263-60.863,0,0,28.49-2.7,40.034-38.315,0,0-20.631-24.561-53.543-12.035,0,0,5.649-38.806-23.578-56.981,0,0-30.7,14.737-27.754,57.227C210.94,214.183,181.959,206.569,164.275,227.937Z" style="fill:#ffde9c"/><path d="M242.535,259.921s-2.49,21.258,17.417,22.884C259.952,282.805,262.88,263.291,242.535,259.921Z" style="fill:#fff7e1"/><path d="M227.628,260.789s2.489,21.258-17.418,22.884C210.21,283.673,207.283,264.159,227.628,260.789Z" style="fill:#fff7e1"/><path d="M225.938,245.944s-17.772,11.928-28.314-5.037C197.624,240.907,213.644,229.387,225.938,245.944Z" style="fill:#fff7e1"/><path d="M245.235,245.944s17.772,11.928,28.314-5.037C273.549,240.907,257.529,229.387,245.235,245.944Z" style="fill:#fff7e1"/><path d="M235.817,233.517s14.872-15.394.028-28.759C235.845,204.758,221.684,218.5,235.817,233.517Z" style="fill:#fff7e1"/><path d="M89.969,97.606c-1.935,7.37-6.116,26.452-3.941,46.974a3.1,3.1,0,0,0,5.549,1.563l5.5-7.2a17.377,17.377,0,0,0,3.553-11.406L98.814,90.5A1.852,1.852,0,0,0,95.62,89.31C93.373,91.631,90.7,94.254,89.969,97.606Z" style="fill:#fff7e1"/><path d="M30.688,90.61C26.183,98.7,20.7,111.956,19.2,130.2a2.924,2.924,0,0,0,4.7,2.533l3.671-2.835a21.908,21.908,0,0,0,8.507-16.66l.652-20.958A3.226,3.226,0,0,0,30.688,90.61Z" style="fill:#fff7e1"/><path d="M5.516,181.81c5.838,77.2,48.024,127.959,90.659,149.994a14.822,14.822,0,0,0,12.584,0c1.786-.8,43.4-19.931,70.049-73.123a46.832,46.832,0,0,0,11.27,6.083c-6.818,7.246-17.347,25.629-10.966,61.234a3.494,3.494,0,0,0,2,2.32c.537.634,35.866.106,37.436.27,11.068.177,19.449-7.908,24.985-16.744,7.054,8.534,26.968,19.537,47.27,16.28.133-.076.255-.166.381-.25l10.7-8.408a19.919,19.919,0,0,0,7.566-17.3c-1.29-16.07-5.675-26.361-8.41-31.38,29.118-14.535,33.957-45.2,34.156-46.551-11.12-28.178-46.218-30.572-56.249-29.7-.3-19.967-11.536-41.073-27.7-41.038-.785.114-13.739-.306-14,.321-1.385.647-30.694,15.178-29.968,56.156a61.393,61.393,0,0,0-11.7-.527c19.046-113.907-20.4-181.972-74.937-164.268.447-16.639,8.565-25.588,9.3-26.356a3.5,3.5,0,0,0,1.406-2.478c.235-2.519-.731-3.057-8.251-7.248-22.691-11.415-32.312,22.6-34.6,37.615C48.8,31.558-1.818,55.718,5.516,181.81ZM229,318.057c-4.823,4.274-12.022,3.632-18.04,3.6a54.052,54.052,0,0,0,23.283-23.668,55.112,55.112,0,0,0,4.642,8.061A38.872,38.872,0,0,1,229,318.057Zm31.58-153.56c5.671,6.169,12.248,17.012,11.373,33.634a3.489,3.489,0,0,0,3.986,3.6c1.469-.224,35.741-5.115,52.2,22.611-1.194,5.642-7.883,30.936-33.44,41.741a3.5,3.5,0,0,0-1.4,5.294c.075.1,7.56,10.188,9.257,31.337.517,6-2.9,10.177-7.6,13.388,2.084-11.917,2.477-32.124-12.5-49.767,9.669-2.972,27.825-12.061,36.654-39.3a3.461,3.461,0,0,0-.643-3.294c-.211-.251-20.44-23.771-52.321-14.738.41-10.3-.829-32.908-17.327-48.589C253.118,160.11,257.652,161.155,260.576,164.5Zm-50.515,53.034a3.486,3.486,0,0,0,4.333-3.588c-2.384-34.37,18.047-49.288,24.148-52.95,25.027,17.173,20.355,52.092,20.3,52.446a3.487,3.487,0,0,0,4.658,3.735c26.036-9.911,43.585,4.866,48.368,9.648-11,31.064-35.378,33.912-36.418,34.018a3.485,3.485,0,0,0-2.076,5.939c21.786,21,15.6,47.369,13.19,54.973-40.67.451-48.354-32.45-48.663-33.869a3.462,3.462,0,0,0-6.65-.437c-10.788,30.306-36.949,33.872-45.858,34.216-6.463-42.79,12.554-54.878,13.36-55.367a3.461,3.461,0,0,0-.9-6.348c-24.1-6.041-29.026-25.5-29.94-30.931C184.024,211.05,209.8,217.464,210.061,217.531ZM157.173,54.42C191.222,75.1,201,149.933,188.328,210.293a44.31,44.31,0,0,0-26.72,15.437,3.457,3.457,0,0,0-.783,2.5A46.8,46.8,0,0,0,173.4,253.975a165.981,165.981,0,0,1-50.486,60.974c22.244-24.386,34.964-77.711,37.742-116.838a3.462,3.462,0,1,0-6.9-.581c-2.23,32.648-13.363,84.534-32.026,107.431,18.1-63.907,26.78-183.484,1.73-237.087,19.3,22.177,27.369,52.138,30.531,84.638a3.462,3.462,0,0,0,6.9-.571c-3.1-35.826-16.042-81.668-44.164-97.911C126.619,49.7,141.553,46.333,157.173,54.42ZM106.392,18.063c4.2-5.679,11.083-5.01,16.268-1.269-6.019,9.358-8.641,15.721-8.941,31a68.719,68.719,0,0,0-6.2,3.134,20.034,20.034,0,0,0-5.048-.189,20.017,20.017,0,0,0-5.05.19c-.7-.4-1.484-.831-2.356-1.28C96.426,40.178,99.494,27.563,106.392,18.063ZM93.843,61.654a11.431,11.431,0,0,1,17.247,0c36.958,49.7,17.836,207.155-.648,256.733-.779.813-1.536,1.58-2.263,2.285H96.754c-.726-.705-1.484-1.472-2.262-2.284C76.045,268.832,56.842,111.568,93.843,61.654ZM27.113,78.389c17.27-32.5,40.268-32.744,61.1-24.361-25.144,13.624-39.141,56.2-43.1,87.731a3.463,3.463,0,1,0,6.869.882c3.954-28.2,12.338-55.492,29.581-74.939C56.387,121.164,65.091,241.033,83.2,304.961,65.113,282.541,54.262,234.185,51.572,201.9a3.463,3.463,0,0,0-6.893.677c3.292,38.873,15.92,88.775,37.426,112.48C13.319,268.92-6.976,148.437,27.113,78.389Z" style="fill:#2b2b2b"/><path d="M243.1,256.505a3.484,3.484,0,0,0-4,3.013c-.055.463-1.255,11.434,5.177,19.285,3.609,4.406,8.79,6.912,15.4,7.452a3.466,3.466,0,0,0,3.706-2.936C264.564,275.4,261.854,259.611,243.1,256.505Zm6.554,17.94c-2.559-3.1-3.409-7.134-3.661-10.1,8.573,3.013,10.389,10.046,10.646,14.4A13.189,13.189,0,0,1,249.655,274.445Z" style="fill:#2b2b2b"/><path d="M229.71,258.022a3.471,3.471,0,0,0-2.648-.649c-18.754,3.107-21.464,18.9-20.276,26.814a3.462,3.462,0,0,0,3.42,2.948c6.659-.438,12.045-3.007,15.683-7.464C232.4,271.432,232.048,258.964,229.71,258.022Zm-9.177,17.26a13.17,13.17,0,0,1-6.994,4.333c.279-4.313,2.1-11.37,10.622-14.39C223.907,268.181,223.059,272.2,220.533,275.282Z" style="fill:#2b2b2b"/><path d="M208.348,253.025c7.614,2.15,18.565-3.19,19.519-4.207a3.482,3.482,0,0,0,.85-4.938C217.385,228.617,202.1,233.423,195.6,238.1a3.464,3.464,0,0,0-.92,4.639C198.182,248.366,202.78,251.828,208.348,253.025Zm12.07-8.135c-5.117,2.454-13.428,2.529-17.674-2.887C206.741,240.238,213.823,238.642,220.418,244.89Z" style="fill:#2b2b2b"/><path d="M242.455,243.88a3.484,3.484,0,0,0,.85,4.939,30.106,30.106,0,0,0,15.165,4.659c7.5-.009,13.686-3.739,18.02-10.743a3.462,3.462,0,0,0-.919-4.639C269.072,233.422,253.788,228.617,242.455,243.88ZM268.429,242c-4.242,5.417-12.564,5.343-17.674,2.888C257.352,238.64,264.437,240.239,268.429,242Z" style="fill:#2b2b2b"/><path d="M235.8,236.979c2.42.679,10.267-9.025,10.09-19.53-.2-5.692-2.8-10.827-7.723-15.263a3.464,3.464,0,0,0-4.728.088c-5.744,5.574-13.166,19.772-.138,33.616A3.46,3.46,0,0,0,235.8,236.979Zm.226-26.988c4.584,5.13,3.048,13.309-.269,17.907C230.761,220.3,233.583,213.61,236.021,209.991Z" style="fill:#2b2b2b"/></svg>