<svg id="icons" xmlns="http://www.w3.org/2000/svg" viewBox="0 0 340 340"><title>68_passion fruit vine</title><path d="M53.782,150.426C35.291,166-2.029,205.778,8.254,266.729c5.116,30.326,22,47.162,41.021,56.375,0,0,133.617,55.985,117.252-128.571C137.1,155.967,99.4,141.615,53.782,150.426Z" style="fill:#7b7091"/><path d="M177.93,193.458S151.912,133.7,63.573,143.009a100.6,100.6,0,0,0-9.79,7.418l-9.45,13s10.028,5.369,21.5-3.01c0,0,.543,7.469,12.594,14.316a2.653,2.653,0,0,0,3.056-.285c1.931-1.686,5.065-5.486,5.667-12.708,0,0,6.985,1.071,12.129-1.852a11.477,11.477,0,0,1,12.508,1.012C181.931,213.421,165.5,350.874,49.275,323.1,128.567,361.062,220.954,288.641,177.93,193.458Z" style="fill:#4b4763"/><path d="M59.942,43.539a9.863,9.863,0,0,1,8.607-5.159h5.612a2.236,2.236,0,0,1,2.022,3.2c-4.626,9.787-16.961,40.946-7.139,77.954l-14.887,5.236S39.977,79.519,59.942,43.539Z" style="fill:#84994a"/><path d="M59.948,115.772A13.4,13.4,0,0,1,76.7,123.858c1.636,4.213,2.612,10.295,6.821,13.189,4.94,4.079,12.646,2.448,14.633-3.453a1.226,1.226,0,0,1,2.311.144c1.648,5.75,2.818,16.074-8.568,19.229-6.089,1.687-11.475-1.274-15.082-4.223a27.071,27.071,0,0,1,.654,22.667,2.187,2.187,0,0,1-2.519,1.251c-3.622-.88-11.656-4.437-13.9-18.761-4.222,11.082-22.222,14.457-28.714.322a.61.61,0,0,1,.521-.853c2.966-.223,12.988-1.518,16.728-8.944,1.867-3.706,1.839-9.354,1.273-14.343A13.424,13.424,0,0,1,59.948,115.772Z" style="fill:#aecc76"/><path d="M178.238,142.848c-12.486,8.021-28.806,22.79-23.008,42.895a34.03,34.03,0,0,0,24.188,23.477c13.72,3.49,33.548-.01,46.759-39.474a2.534,2.534,0,0,1,4.915.427c2.882,19.7,14.157,52.982,57.362,54.507,0,0,24.321.973,25.125-21.6a25.777,25.777,0,0,0-13.222-23.06,50.828,50.828,0,0,1-17.208-15.733,2.54,2.54,0,0,1,2.927-3.805c57.1,18.641,59.373-37.51,24.1-37.552,0,0-59.383.363-75.315-61.193-3.646-14.087-6.609-26.563-9.012-37.426a19.343,19.343,0,0,0-5.234-9.692c-3.287-3.22-8.566-6.156-16.532-5.023-14.39,2.047-18.146,18.711-13.4,36.859a2.531,2.531,0,0,1-3.8,2.767,73.092,73.092,0,0,1-17.185-15.1c-12.108-14.676-36.273-5.377-34.964,13.568.934,17.681,12.581,28.11,27.328,38.185a2.536,2.536,0,0,1-1.141,4.676,126.129,126.129,0,0,1-23.189-.27c-14.594-1.66-25.849,12.906-20.823,26.581a30.863,30.863,0,0,0,26.113,21.178,156.023,156.023,0,0,0,33.556.165A2.534,2.534,0,0,1,178.238,142.848Z" style="fill:#e0dcf9"/><path d="M227.276,63c-24.76,12.442-17.261,51.551,15.113,61.558,19.546,6.19,44.341-2.9,37.549-32.849Z" style="fill:#8e88bf"/><path d="M253.037,70.3s-12.935-12.93.616-24.268c9.076-7.593,22.256,2.193,29.972,9.486,7.768,7.341,4.538,20.64-5.881,23.024a23.344,23.344,0,0,1-10.083-.211Z" style="fill:#b2abd8"/><path d="M252.563,75.445s-17.181-6.271-21.742,10.8c-3.054,11.432,11.381,19.252,21.248,23.17,9.934,3.944,20.627-4.6,18.391-15.048a23.332,23.332,0,0,0-4.445-9.053Z" style="fill:#b2abd8"/><path d="M254.3,65.4s-3.614-15.465-15.754-16.477c-5-.416-9.053,1.9-12.093,4.764A22.292,22.292,0,0,0,219.808,74.9a16.867,16.867,0,0,0,5.876,9.576c11.78,9.364,24.57-8.093,24.57-8.093Z" style="fill:#b2abd8"/><path d="M266.3,85.234A21.613,21.613,0,0,0,266.1,92.6a12.306,12.306,0,0,0,17.925,9.079c5.091-2.6,10.418-7.616,12.329-17.308,4.047-20.523-25-10.55-25-10.55Z" style="fill:#b2abd8"/><path d="M50.763,217.639c-5.339-10.305-18.6-7.42-21.49,4.685-2.55,11.39.333,22.063,12.6,20.14,5.167-.686,9.618-5.294,10.739-11.38A20.608,20.608,0,0,0,50.763,217.639Z" style="fill:#d8ceef"/><path d="M310.9,19.391a10.042,10.042,0,0,1-10.041,10.041c-13.306-.492-13.3-19.593,0-20.083A10.042,10.042,0,0,1,310.9,19.391Z" style="fill:#e2ed9d"/><path d="M312.229,43.438s-10.324-1.974-11.97,8.35S311.78,62.262,311.78,62.262s9.277,1.047,9.876-8.828S312.229,43.438,312.229,43.438Z" style="fill:#e2ed9d"/><path d="M271.589,9.135c-6.166-5.552-15.676-.327-14.5,8.349.506,4.624,3.454,7.748,6.368,9.742a8.537,8.537,0,0,0,13.393-7.2A15.151,15.151,0,0,0,271.589,9.135Z" style="fill:#e2ed9d"/><path d="M271.367,83.206c-4.316,6.064-13.041,7.261-19.488,2.672-15.083-11.559-.228-32.424,15.629-21.961C273.955,68.506,275.683,77.141,271.367,83.206Z" style="fill:#e2ed9d"/><path d="M310.163,119.469a81,81,0,0,1-27.833-6.17,27.856,27.856,0,0,0,1.872-6.84,60.389,60.389,0,0,0,18.648-2.081c4.364-1.294,2.557-7.808-1.851-6.673a51.046,51.046,0,0,1-8.116,1.531c5.823-5.624,11.669-22.993,2.45-28.643l6.942-7.415c6.379,3.319,13.525,3.766,18.609-.265,4.971-3.63,5.77-14.47,1.166-18.778-4.671-4.9-14.239-5.827-19.963-1.921-3.87,2.123-7.1,10.736-4.5,15.846L291.367,64.7c-.055-6.019-4.1-11.191-8.781-14.753l13.7-17.865c8.524,3.277,18.253-3.527,18.074-12.69a13.518,13.518,0,0,0-13.5-13.5c-11.371-.161-17.737,13.813-10.27,22.248l-13.5,17.607c-6.411-4.337-12.3-6.3-17.408-5.824l5.1-8.249c7.487,2.538,16.012-3.788,15.531-11.75a18.489,18.489,0,0,0-6.388-13.344,11.955,11.955,0,0,0-16.479.172c-5.99,5.733-4.68,15.815,1.471,21.242L246.538,48A17.349,17.349,0,0,0,234.4,45.683c-1.848-7.559-3.586-14.993-5.163-22.119a22.731,22.731,0,0,0-6.191-11.417C219.485,8.663,213.226,4.8,203.6,6.17c-17.811,3.246-20.615,21.2-16.833,38.84a69.875,69.875,0,0,1-14.4-13.1c-13.248-16.476-41.314-7.187-41.113,14.255-.038,18.2,11.456,30.427,26.68,41.119a122.524,122.524,0,0,1-19.832-.448c-14.816-1.933-28.352,12.084-25.51,26.819,6.334,29.442,33.433,30.111,60.621,28.334-6.707,4.687-13.9,11.109-18.342,19.145-14.046-10.716-30.815-17.682-49.913-20.76a31.877,31.877,0,0,0-2.8-12.08,3.466,3.466,0,0,0-6.583,1.334c.021,3.921-4.141,8.88-9.944,4.671-3.51-2.46-4.141-8.025-5.68-11.646a16.861,16.861,0,0,0-8.843-9.508C62.66,72.79,80.627,40.416,80.809,40.094A3.486,3.486,0,0,0,77.8,34.918c-8.139.109-16.075-1.53-20.887,6.941-16.371,29.5-10.737,64.586-7.483,78.526a16.956,16.956,0,0,0-2.009,10.088c.63,5.557.3,9.96-.925,12.4-3.4,6.758-14.432,7.082-14.534,7.084a3.464,3.464,0,0,0-3.239,4.514,19.748,19.748,0,0,0,6.749,9.1c-50.592,53.567-46.256,161.656,43.612,172.014,67.965,9.363,127.073-44.878,110.083-121.9,20.272-2.039,30.264-16.787,39.071-39.355,2.015,10.871,6.539,24.547,16.591,35.482,14.883,18.857,69.572,31.973,72.21-6.6a29.154,29.154,0,0,0-14.959-26.184,48.774,48.774,0,0,1-14.447-12.4C347.122,182.235,350.454,119.9,310.163,119.469Zm-6.485-67.136c.571-6.888,9.734-6.742,13.325-3.457,1.9,1.794,1.464,7.2-.543,8.709a6.563,6.563,0,0,1-4.291,1.237C309.719,58.713,302.416,57.86,303.678,52.333Zm-2.821-39.522c8.676.228,8.675,12.932,0,13.159C292.182,25.742,292.185,13.038,300.857,12.811Zm-38.538-1.15c6.667-5.907,15.534,9.1,8.468,12.975C263.98,27.934,257.1,16.294,262.319,11.661ZM292.962,83.7c-1.387,7.032-4.922,12.043-10.506,14.893-6.353,3.389-13.748-1.889-13.088-8.934a16.254,16.254,0,0,0,7.825-13.832C287.168,73.988,295.012,73.778,292.962,83.7Zm-42.17,28.935a17.319,17.319,0,0,0,21.261-7.386,15.827,15.827,0,0,0,5.136,1.217c-1.346,6.956-5.694,11.885-12.965,14.674-22.582,8.9-55.564-15.332-46.834-42.393a19.192,19.192,0,0,0,9.554,10.564C226.894,98.362,235.075,106.39,250.792,112.632ZM234,90.652c3.984-.227,8.161-2.013,12.291-5.31A18.4,18.4,0,0,0,262.55,92a15.74,15.74,0,0,0,3.819,9.175,10.343,10.343,0,0,1-13.022,5.025C247.691,103.95,235.373,98.235,234,90.652Zm44.369-35.207c4.006,3,7.191,7.339,5.8,12.483a45.29,45.29,0,0,0-8.328,1.1,18.171,18.171,0,0,0-3.616-5.576Zm-5.5-4.213L266.6,59.406a17.991,17.991,0,0,0-11.392-1.328,29.154,29.154,0,0,0-3.083-4.99C256.78,44.634,264.665,45.5,272.873,51.232ZM265.5,66.738c11.452,8.681.34,24.3-11.615,16.32C242.322,74.214,253.773,58.79,265.5,66.738ZM238.259,52.37c5.4.449,8.747,4.869,10.614,8.507a16.527,16.527,0,0,0-5.924,18.244c-8.6,8.223-17.376,4.568-19.772-5.021C220.573,65.047,228.188,51.76,238.259,52.37ZM62.969,45.219c1.995-3.713,5.681-3.465,9.259-3.377a120.8,120.8,0,0,0-8.484,69.789,16.8,16.8,0,0,0-8.547,2.6C52.235,99.028,49.3,69.847,62.969,45.219ZM52.682,145.983c1.878-3.73,2.423-9.211,1.62-16.291a10.018,10.018,0,0,1,6.731-10.632,9.913,9.913,0,0,1,12.422,6.006c1.76,5.037,3.268,11.566,7.961,14.729,4.731,3.91,12.359,3.982,16.6,0,.9,10.355-11.566,13.3-19.013,6.267-2.865-2.405-7.07,1.123-5.214,4.369a23.421,23.421,0,0,1,.925,18.559c-3.08-1.1-8.516-4.579-10.243-15.625-.426-3.407-5.491-3.971-6.647-.721-2.065,5.679-12.251,11.749-20.205,3.52C42.533,155.108,49.407,152.486,52.682,145.983Zm106.37,158.054c-20.211,19.9-49.715,29.13-78.929,24.7C-5.861,318.55-5.524,214.921,42.1,166.543c6.255,1.731,14.32-1.031,17.451-4.594,5.26,14,16.531,14.44,17.2,14.462a3.46,3.46,0,0,0,3.083-1.889,29.761,29.761,0,0,0,2.911-18.506c7.9,2.812,18.262-1.215,21.032-8.823,18.617,2.99,34.832,9.883,48.253,20.513-6.692,19.591,9.3,42.979,29.854,45.56C192.988,252.68,176.623,286.736,159.052,304.037ZM322.638,156.9c-16,9.631-41.161-1.867-41.41-1.983a3.462,3.462,0,0,0-4.638,4.522c5.256,12.043,14.887,19.472,22.041,23.583a22.251,22.251,0,0,1,11.488,19.935c-.669,18.771-20.676,18.292-21.544,18.262-45.24-.506-55.811-43.5-54.959-65.168.207-4.134-5.852-4.986-6.821-.995-8.049,31.011-20.452,56.484-46.523,50.81a30.546,30.546,0,0,1-21.715-21.082c-8.083-28.025,33.389-45.441,33.807-45.612,3.838-1.56,2.023-7.447-2.014-6.595a150.636,150.636,0,0,1-46.933,2.019c-16.374-1.133-32.058-21.736-19.852-35.748a16.437,16.437,0,0,1,13.807-5.128,120.928,120.928,0,0,0,31.864-.7,3.483,3.483,0,0,0,.937-6.489c-55.708-29.554-26.308-72.331-3.142-50.21C178.155,49.755,190.593,55.27,191.117,55.5a3.483,3.483,0,0,0,4.642-4.338c-4.549-12.739-4.743-25.01-.508-32.024,4.445-8,17.208-8.136,22.944-2.043a15.841,15.841,0,0,1,4.277,7.967c1.65,7.458,3.473,15.246,5.416,23.164a25.255,25.255,0,0,0-6.781,6.269,23.266,23.266,0,0,1-5.068-11.643c-.648-4.508-7.367-3.648-6.868.875a30.383,30.383,0,0,0,8.36,17.146,25.707,25.707,0,0,0-1.509,5.884,16.183,16.183,0,0,1-7.957-7.109c-2.029-4.056-8.123-1.162-6.253,2.975a23.35,23.35,0,0,0,10.734,10.15,28.994,28.994,0,0,0-2.239,5.282,29.359,29.359,0,0,1-19.789-9.3c-2.957-3.447-8.169.857-5.336,4.412A36.359,36.359,0,0,0,209.05,84.9a34.022,34.022,0,0,0,.309,7.132c-12.028,2.148-20.207-.516-20.373-.572-4.315-1.411-6.542,4.967-2.275,6.54a43.458,43.458,0,0,0,13.337,1.814,59.865,59.865,0,0,0,10.894-1.026,42.151,42.151,0,0,0,2.6,6.4c-7.909,6.882-18.563,7.305-18.767,7.312-4.492.184-4.4,6.855.087,6.923.666-.015,12.559-.369,22.346-8.27a42.422,42.422,0,0,0,7.163,7.539c-5.045,8.006-13.573,15.491-13.668,15.573a3.486,3.486,0,0,0,2.277,6.073,3.451,3.451,0,0,0,2.272-.852c.414-.36,9.171-8.04,14.786-16.81a55.211,55.211,0,0,0,8.375,4.111A53.041,53.041,0,0,0,240.272,150a3.463,3.463,0,0,0,6.623-2.023,46.8,46.8,0,0,1-1.772-19.067,38.309,38.309,0,0,0,9.365,1,30.587,30.587,0,0,0,8.968,20.271c3.3,3.136,8.048-1.684,4.859-4.934a23.7,23.7,0,0,1-6.944-16.095,33.546,33.546,0,0,0,7.86-2.65c2.152,3.834,8.249,11.55,17.2,13.734,3.743.066,4.8-5.408,1.221-6.7A23.9,23.9,0,0,1,275.1,122.844a25.046,25.046,0,0,0,3.6-3.556,86.122,86.122,0,0,0,31.533,7.106C327.548,125.005,337.866,147.112,322.638,156.9Z" style="fill:#2b2b2b"/></svg>