<svg id="icons" xmlns="http://www.w3.org/2000/svg" viewBox="0 0 340 340"><title>69_custard apple</title><path d="M102.567,102.06s8.3-57.552,45.823-79.9c6.218-3.372,12.761-1.384,19.543.459a14.252,14.252,0,0,0,13.674-2.752c7.83-6.817,22.865-15.173,41.259-2.056,0,0,15.635-6.924,36.63,14.071,0,0-5.706,26.571-28.432,29.52a23.112,23.112,0,0,0-14.788,8.052C206.93,80.605,187.1,98.226,161,87.942,161,87.942,133.613,117.025,102.567,102.06Z" style="fill:#80b297"/><path d="M91.818,28.616l8.053-3.042a10.3,10.3,0,0,1,13.263,5.838c1.827,4.738,3.4,11.764,3.4,21.919V88.8c-9.063,5.545-18.872,6.049-29.651,0C86.882,88.8,108.066,53.56,91.818,28.616Z" style="fill:#6d5046"/><path d="M328.7,244.2a12.137,12.137,0,0,1,.409-10.12,12.5,12.5,0,0,0,.044-8.639c-3.489-9.737-6.561-13.875-16.872-21.018L210.749,253.706c16.409,33.209,33.544,63.7,56.769,71.381a23.8,23.8,0,0,1,11-2.054c6.319.28,16.183-2.048,20.962-17.633,2.563-8.357,5.843-14.254,16.946-13.056,5.491.712,10.11-5.389,11.218-10.109C330.144,270.745,333.523,254.693,328.7,244.2Z" style="fill:#84994a"/><path d="M76.506,88.916s-15.912-1.768-29.571-.566a11.124,11.124,0,0,0-7.92,4.419,87.566,87.566,0,0,0-16.227,39.343l-8.4,4.373a10.94,10.94,0,0,0-5.827,8.437C7.224,153.306,7,192.133,27.131,193.71l4.794.426c-3.244,5.564-7.558,10.879-5.986,17.774a89.618,89.618,0,0,0,13.075,32.04,12.569,12.569,0,0,0,8.273,5.339A13.21,13.21,0,0,1,57.6,255.566a105.215,105.215,0,0,0,15.334,20.083c5.38,2.812,11.938,3.227,19.091,2.435l31.649-15.438,51.53-3.412,22.543-118.1-12.977-34.217s-7.518-13-17.332-21.257c-8.638-6.813-17.912-2.355-23.649,6.305Z" style="fill:#aecc76"/><path d="M129.312,202.293s.526,25.553-24.307,22.219V194.577l22.966,1.757Z" style="fill:#84994a"/><path d="M97.052,280.528a16.31,16.31,0,0,0,12.59-5.942l2.86-3.473h17.167L133,274.564a14.066,14.066,0,0,0,10.125,4.3h30.851c5.783-9.077,46.117-79.457,34.467-149.1a19.643,19.643,0,0,0-10.11-15.409l-13.558-7.441,2.568,23.965c.526,5.748-4.107,9.634-9.653,9.315a13.5,13.5,0,0,1-10.7-4.6c-11.257-12.608-29.229-10.287-29.229-10.287l-17.037,47.1v27.142a26.038,26.038,0,0,0,22.737,6.714,2.021,2.021,0,0,1,2.429,2.164c-.3,3.148,8,49.951-35.892,46.784-4.018-.29-7.354,3.1-8.632,6.924-2.3,6.864-8.981,16.212-28.43,13.51a16.361,16.361,0,0,0,11.641,4.879Z" style="fill:#84994a"/><path d="M35.009,164.2,34,174.36a13.767,13.767,0,0,0,6.57,13.132l2.985,1.806a13.769,13.769,0,0,1,6.276,8.643l1.789,7.656a13.926,13.926,0,0,0,11.491,10.6l14.517,2.182L73.79,178.347,39.94,161.474A3.421,3.421,0,0,0,35.009,164.2Z" style="fill:#84994a"/><path d="M67.7,192.057l-1.391,19.76c-.876,13.831,4.233,25.846,13.646,36.581,3.371,3.8,8.239,3.483,12.856,3.407a11.153,11.153,0,0,0,10.89-8.78c1.937-8.844,4.38-23.045,3.765-36.328V191.266Z" style="fill:#84994a"/><path d="M105.947,87.968c-1.081-2.881-4.972-10.244-11.321-9.852H82.444a9.773,9.773,0,0,0-8.014,4.138A77.155,77.155,0,0,0,61.875,114.93H55.746A12.171,12.171,0,0,0,45.2,120.994c-3.787,6.535-9.09,20.147-9.706,38.265A18.392,18.392,0,0,0,45.959,176.44l7.741,3.708a8.091,8.091,0,0,1,3.932,4.087l3.8,8.788a10.647,10.647,0,0,0,9.773,6.422h5.828A7.459,7.459,0,0,0,83.145,196a1.772,1.772,0,0,1,3.159.578c1.233,4.8,3.946,11.717,9.621,14.239a55.5,55.5,0,0,0,11.427,3.8,10.8,10.8,0,0,0,12.872-8.86,41.251,41.251,0,0,0,.52-6.2c-4.014-8.059-3.079-17.068,0-26.488-.007-12.49-.015-24.692-.015-24.692L144.316,132.3V91.962a24.812,24.812,0,0,0-1.764-7.007A13.865,13.865,0,0,0,129.7,76.561h-9.979A13.814,13.814,0,0,0,105.947,87.968Z" style="fill:#aecc76"/><path d="M182.742,300.238c5.089,1.131,7.89,5.856,8.39,9.214a16.036,16.036,0,0,0,6.626,10.7,51.064,51.064,0,0,0,21.26,8.9c3.946.566,6.746-1.615,8.558-3.933a6.21,6.21,0,0,1,7.758-1.747c14.44,7.409,25.922,4.587,32.184,1.708a43.155,43.155,0,0,1-12.176-16.836l-40.354-53.115-4.239-1.43L165.81,274.393C166.485,289.461,171.691,297.782,182.742,300.238Z" style="fill:#aecc76"/><path d="M158.66,227.5v11.157c0,7.138,6.465,7.476,10.212,12.67,2.041,2.39,2,5.924,1.912,8.893a9.362,9.362,0,0,1-3.127,6.982,6.663,6.663,0,0,0-1.847,7.187,28.01,28.01,0,0,0,5.023,8.711,9.3,9.3,0,0,0,9.866,2.7c5.177-1.078,9.451,1.51,13.743,4.313,4.487,3.017,5.885,6.625,6.217,9.316a11.377,11.377,0,0,0,5.506,8.265,47.252,47.252,0,0,0,11.28,4.871c4,1.189,7.47-.63,10.129-3.573a12.069,12.069,0,0,1,7.55-3.285l11.207-.7a12.074,12.074,0,0,1,9.011,3.241h0c28.23-20.129,59.35-67.241,28.962-138.492l-2.879.331a10.767,10.767,0,0,1-10.5-5.212l-2.162-3.654a8.794,8.794,0,0,0-5.566-4.084l-5.381-1.259a8.8,8.8,0,0,0-6.668,1.107,13.711,13.711,0,0,1-7.691,2.844,12.307,12.307,0,0,1-7.531-1.792c-2.4-1.738-5.346-2.95-8.326-2.155l-15.209,3.554c-3.984.866-6.493,4.419-6.937,8.337a14.078,14.078,0,0,1-14.341,11.113,9.017,9.017,0,0,0-7.249,2.414l-5.558,5.348a8.8,8.8,0,0,0-2.673,6.986l.215,2.909a20.753,20.753,0,0,1-2.076,10.7l-1.657,3.368a20.755,20.755,0,0,1-8.281,8.831A8.985,8.985,0,0,0,158.66,227.5Z" style="fill:#fff7e1"/><path d="M236.056,191.983c-2.513,6.2-3.377,15.6,5.255,26.69a1.957,1.957,0,0,0,3.283-.342c2.5-4.943,6.942-16.193,2.254-26.6A5.885,5.885,0,0,0,236.056,191.983Z" style="fill:#353535"/><path d="M263.163,310.443a55.4,55.4,0,0,0,11.739-3.826,10.213,10.213,0,0,0,5.72-7.363c.754-3.9,2.626-9.4,7.278-12.776,2.431-1.764,4.64-4.416,7.323-6.442a26.55,26.55,0,0,1,12.253-5.087,8.768,8.768,0,0,0,7.383-6.76,76.641,76.641,0,0,0,1.648-15.493c.134-3.48-2.048-6.274-4.779-8.182a9.437,9.437,0,0,1-3.469-7.309v-3.239a9.433,9.433,0,0,1,5.053-8.355,5.985,5.985,0,0,0,3.207-5.3v-9.848c-.182-10.145-13.938-8.456-14.105-21.154V184.94a8.794,8.794,0,0,0-2.386-6.023l-6.279-6.68c-2.428-2.688-6.038-3.143-9.444-2.479-71.484,65.156-28.962,138.493-28.962,138.493A8.81,8.81,0,0,0,263.163,310.443Z" style="fill:#efddbb"/><path d="M208.266,224.421c3.84,4.07,10.288,7.649,20.912,6.5a1.967,1.967,0,0,0,1.468-3c-2.507-3.926-8.149-11.178-16.684-13.313A5.9,5.9,0,0,0,208.266,224.421Z" style="fill:#353535"/><path d="M276.161,211.445c-5.144.461-11.289,3.032-16.8,10.768a1.97,1.97,0,0,0,1.31,3.091c4.269.649,12.385,1.117,19.106-2.961A5.893,5.893,0,0,0,276.161,211.445Z" style="fill:#353535"/><path d="M276.133,249.029c-3.333-3.944-8.969-7.5-18.464-7.553a1.97,1.97,0,0,0-1.777,2.849c1.923,3.865,6.2,10.776,13.405,13.931A5.892,5.892,0,0,0,276.133,249.029Z" style="fill:#353535"/><path d="M244.668,270.814c1.512-4.937,1.447-11.6-3.642-19.614a1.971,1.971,0,0,0-3.358.048c-2.21,3.709-5.7,11.05-4.459,18.812A5.893,5.893,0,0,0,244.668,270.814Z" style="fill:#353535"/><path d="M202.478,259.234c5.054-.019,11.137-1.926,17.433-8.18a1.966,1.966,0,0,0-.727-3.26c-3.9-1.328-11.327-3.157-18.524-1.038C193.5,248.863,195.018,259.263,202.478,259.234Z" style="fill:#353535"/><path d="M123.676,146.362c-.248-.017-.39-.024-.39-.024l-25.559-3.946A13.819,13.819,0,0,0,81.8,156.05v16.818s0,13.805,16.185,12.534c0,0,16.976-1.795,22.739,14.151l.02-.037c.012-.843-.02-51.143-.02-51.143Z" style="fill:#84994a"/><path d="M105.892,105.781H98.675c-12.488.424-16.641,11.669-16.875,23.753v18.912a27.165,27.165,0,0,0,4.278,14.88c3.626,5.963,10.577,8.792,17.41,8.279a17.919,17.919,0,0,0,17.236-12.681v13.487s.246,5.4,5.47,11.073c8.117,9.017,23.306,7.762,28.966-3.064a18.474,18.474,0,0,0,2.127-8.855V150.409a30.17,30.17,0,0,0-3.8-14.917c-2.894-5.092-7.775-10.185-15.727-10.185-15.9,0-18.217,6.441-18.217,6.441l-.688-13.64A12.98,12.98,0,0,0,105.892,105.781Z" style="fill:#aecc76"/><path d="M96.768,131.705l-1.858-.131a4.165,4.165,0,0,1-3.863-4.447l.35-4.986c.178-6.088,10.128-8.243,10.3-1.143l-.481,6.844A4.166,4.166,0,0,1,96.768,131.705Z" style="fill:#f1fcd4"/><path d="M43.518,220.814l-1.771.578a4.165,4.165,0,0,1-5.252-2.667l-1.552-4.751c-2.126-5.707,6.282-11.448,9.113-4.935l2.129,6.522A4.166,4.166,0,0,1,43.518,220.814Z" style="fill:#f1fcd4"/><path d="M53.856,146.332l-1.9-.257a4.284,4.284,0,0,1-3.671-4.818l.689-5.092c.584-6.235,10.936-7.791,10.644-.494l-.945,6.991A4.283,4.283,0,0,1,53.856,146.332Z" style="fill:#f1fcd4"/><path d="M47.372,113.018l-1.8-.435a4.133,4.133,0,0,1-3.044-4.991l1.167-4.821c1.181-5.928,11.274-6.391,10.268.585l-1.6,6.618A4.133,4.133,0,0,1,47.372,113.018Z" style="fill:#f1fcd4"/><path d="M334.09,228.166,317.906,203.8c-1.329-2.452-6.072-5.275-8.265-6.964-7.425-5.477-.543-13.641-7.156-20.233l-6.278-6.679c-8.253-8.708-16.865,1.655-22.376-6.767-2.253-4.182-4.861-8.283-9.863-9.306-6.44-1.605-10.4-2.918-16.3,1.33a9.908,9.908,0,0,1-9.943,0c-3.113-2.28-7.064-3.56-10.9-2.588l-13.01,3.042c.022-6.391-1.47-19.68-2.023-26.187-1.489-14.992-13.347-18.666-24.6-25.055a108.323,108.323,0,0,0-7.033-10.122c18.251-1.505,31.873-14.513,38.7-22.655A19.728,19.728,0,0,1,231.5,64.746c24.806-3.218,31.044-30.977,31.3-32.158a3.377,3.377,0,0,0-.913-3.094c-18.369-18.37-33.305-16.752-38.466-15.4C203.571.9,187.377,10.368,179.391,17.32A10.929,10.929,0,0,1,168.956,19.4c-6.619-2.15-16.562-3.964-22.293-.142-10.325,6.149-19.372,15.318-27,27.313A57.587,57.587,0,0,0,116.283,30.2a13.692,13.692,0,0,0-17.605-7.78l-8.053,3.042a3.375,3.375,0,0,0-1.634,5c9.053,13.9,5.555,31.5.732,44.284-10.919-.26-15.3-.286-20.984,10.167a156.7,156.7,0,0,0-22.1.08,14.525,14.525,0,0,0-10.324,5.755,90.9,90.9,0,0,0-16.6,39.164c-6.817,3.513-13.458,5.937-14.5,14.627-1.493,10.437-1.455,49.913,21.074,52.48-3.1,4.56-4.843,10.077-3.657,15.547a93.738,93.738,0,0,0,13.586,33.271c6.243,9.347,14.142,4.305,18.481,11.446A108.224,108.224,0,0,0,70.534,278.02,19.855,19.855,0,0,0,84.577,283.9c12.39-.2,21.134,2.135,29.518-9.414h14.14c3.777,4.472,8.838,7.872,14.887,7.752h20.506c3.177,11.325,11.931,16.128,19.209,20.114a9.761,9.761,0,0,1,4.957,7.594c1.011,14.531,25.8,22.628,32.447,22.572,3.782,0,7.281-1.847,9.994-5.317a2.831,2.831,0,0,1,3.559-.823c16.027,8.222,28.891,4.641,35.132,1.773a20.633,20.633,0,0,1,9.447-1.75c6.681.306,18.785-1.908,24.337-20.013,2.317-7.556,4.676-11.081,11.705-10.811,9.078,1.871,16.147-7.029,17.077-15.313,1.386-6.786,3.111-15.232,3.111-22.163a40.549,40.549,0,0,0-2.774-15.173,8.866,8.866,0,0,1-.306-5.844C335.344,235.867,336.466,231.559,334.09,228.166ZM119.908,59.7c7.075-14.091,25.178-38.663,38.96-35.711l-2.255,18.73A17.286,17.286,0,0,1,147.1,54.66c-6.659,2.923-10.505,5.023-11,5.3-3.85,2.217-.632,7.987,3.267,5.906.207-.114,11.324-6.167,29.928-12.446,1.991,1.6,6.08,5.048,11.866,10.729,2.682,2.424,11.264,9.949,13.79,4.414a3.374,3.374,0,0,0-1.809-4.416,22.954,22.954,0,0,1-7.252-4.813c-3.7-3.629-6.715-6.372-9-8.353a270.774,270.774,0,0,1,27.507-6.833A14.477,14.477,0,0,1,215.88,47.4a20.032,20.032,0,0,0,9.471,4.147,3.381,3.381,0,0,0,.751-6.665,14.728,14.728,0,0,1-6.595-3.206c4.873-.65,9.9-1.18,15.072-1.558a3.374,3.374,0,1,0-.491-6.73,268.657,268.657,0,0,0-30.232,3.956,40.914,40.914,0,0,0,6.08-15.639c.541-4.39-5.971-5.324-6.682-.95-.024.164-2.48,16.163-13.811,19.712a271.007,271.007,0,0,0-27.785,8.391,20.31,20.31,0,0,0,1.646-5.266l2.189-18.174a18.147,18.147,0,0,0,18.33-3c8.151-7.1,21.2-13.179,37.083-1.854a3.443,3.443,0,0,0,3.291.353c.549-.227,13.383-5.262,31.53,12.008-1.673,5.612-8.177,22.941-25.1,25.137a26.453,26.453,0,0,0-16.939,9.231c-6.716,8.105-21,21.432-39.238,20.356-7.588-9.166-19.417-12.171-28.512-3.3A17.163,17.163,0,0,0,129.7,73.186h-9.787ZM101.064,28.731c16.313-5.147,11.209,36.015,12.1,45.737a17.492,17.492,0,0,0-7.646,5.955,13.229,13.229,0,0,0-8.681-5.483c4.556-12.987,7.41-29.9-.1-44.572Zm66.345,231.492a5.993,5.993,0,0,1-2,4.466,10,10,0,0,0-2.941,10.317c.009.163.02.324.031.485H143.122c-4.807.2-8.06-3.5-11.024-6.721-4.447-4-5.126-8.126-4.858-13.848-.073-4.43-6.675-4.439-6.749,0-.155,4.328.126,9.035,2.293,12.817H112.5a3.377,3.377,0,0,0-2.606,1.229c-3.342,4.416-6.845,8.273-12.844,8.185H84.577a13.065,13.065,0,0,1-9.239-3.873A101.378,101.378,0,0,1,60.51,253.853c-6.226-10.283-13.985-5.081-18.7-11.786-7.832-11.963-16.1-32.615-11.07-39.347l4.01-6.737,4.646-6.5c2.527-3.616-2.855-7.509-5.491-3.924L30.3,190.6c-5.357-.088-10.214-1.9-12.713-6.978-7.144-14.233-6.621-30.116-5.674-38.316a7.553,7.553,0,0,1,4.035-5.831l8.4-4.374a3.376,3.376,0,0,0,1.782-2.511,83.987,83.987,0,0,1,15.585-37.8,7.774,7.774,0,0,1,5.518-3.082,141.5,141.5,0,0,1,18.1-.223,84.631,84.631,0,0,0-6.311,20.066c-6.808-.51-13.184,1.6-16.734,7.747-2.194,3.788-9.411,17.854-10.159,39.843A21.755,21.755,0,0,0,44.5,179.483l9.333,4.471,4.5,10.408a13.993,13.993,0,0,0,5.38,6.283c-1.009,11.418-1.936,22.648,3.043,33.273,4.334,9,10.6,21.457,21.222,21.261,4.12.084,9.311.214,12.7-2.3,1.392,3.911,4.695,8.844,9.151,9.734a3.39,3.39,0,0,0,1.744-6.266,10.339,10.339,0,0,1-4.9-10.5c1.408-7.89,3.4-16.6,4.037-27.752a14.32,14.32,0,0,0,7.645-3.057l.488,6.385a21.588,21.588,0,0,0,20.508,19.95,3.4,3.4,0,1,0,.3-6.742,14.832,14.832,0,0,1-14.073-13.722l-1.515-19.815c.085-2.862.784-7.563-3.434-7.614a3.376,3.376,0,0,0-3.277,3.47,42.972,42.972,0,0,1-.456,8.251c-2.279,9.829-13.191,5.442-19.543,2.556-6.137-2.789-7.633-9.239-7.474-15.463a37.2,37.2,0,0,0-2.8-14.2,3.374,3.374,0,0,0-6.243,2.563,31.074,31.074,0,0,1,2.3,12.681c-1.717,1.321-3.79,2.878-6.1,2.734-4.68-.058-10.2.972-12.5-4.386l-5-11.567a3.372,3.372,0,0,0-1.641-1.7c-8.981-4.569-19.056-6.688-19.017-19.038.552-16.227,5.141-29.593,9.252-36.689,2.969-5.269,8.662-4.36,13.752-4.382a3.375,3.375,0,0,0,3.337-2.873c2.149-14.255,10.354-34.8,17.231-33.94H94.626c4.473-.5,7.694,6.316,8.166,7.674,1.08,3.181,6.026,2.673,6.481-.627a10.461,10.461,0,0,1,10.443-8.6H129.7c7.452-.076,10.833,6.606,11.246,12.172v22.632a3.375,3.375,0,1,0,6.749,0V92.385c4.179-5.925,11.461-9.182,17.579-4.146,9.085,7.641,16.279,19.846,16.568,20.341l4.646,8.4a14.844,14.844,0,0,1-2.435,17.546l-8.705,8.778a3.375,3.375,0,0,0,4.793,4.753l8.7-8.778a21.644,21.644,0,0,0,4.383-23.875c6.39,3.018,11.153,7.267,11.857,14.675.659,7.614,2.164,20.631,2.018,28.2a12.2,12.2,0,0,0-4.614,7.224,11.539,11.539,0,0,1-4.321,7.873,10.9,10.9,0,0,1-7.649,2.108,12.188,12.188,0,0,0-8.988,3.387c-6.207,6.069-10.4,8.268-9.04,17.923.444,7.074-4.117,16.182-10.329,19.72a12.341,12.341,0,0,0-6.872,10.991v11.157C155.631,251.583,168.787,247.7,167.409,260.223ZM69.677,212.054l.652-9.267c4.3.014,9.883.6,13.681-1.828,2.074,9.753,11.106,14.155,19.99,16.321a165.266,165.266,0,0,1-3.594,25.022,7.732,7.732,0,0,1-7.593,6.128H87.98c-6.554.344-12.2-11.269-15.043-17.224A40.714,40.714,0,0,1,69.677,212.054ZM229.464,317.1l-4.548,5.948c-2.423,3.1-4.68,2.776-5.418,2.669a47.116,47.116,0,0,1-19.8-8.32c-8.347-5.974-2.442-14.715-13.621-20.962-3.822-2.093-7.538-4.143-10.518-7a14.655,14.655,0,0,0,5.761-.316c4.23-.891,7.793,1.62,11.236,3.8,2.82,1.895,4.418,4.228,4.753,6.93a14.654,14.654,0,0,0,7.109,10.74c6.8,3.827,17,9.119,23.874,2.374a17.181,17.181,0,0,1,3.339-2.788A10.8,10.8,0,0,1,229.464,317.1Zm5.066-14.719a15.465,15.465,0,0,0-9.276,4.162c-1.756,1.9-4.095,3.7-6.87,2.782-5.535-2-13.338-3.851-14.375-10.309-.4-3.252-2.063-7.922-7.684-11.7-4.911-3.3-10.251-6.105-16.246-4.829-2.321.648-5.064.493-6.664-1.555-10.485-13.667.429-8.678.744-20.708.206-3.771-.139-7.942-2.612-10.948a23.628,23.628,0,0,0-6.852-5.952,5.419,5.419,0,0,1-2.661-4.662V227.5a5.7,5.7,0,0,1,3.484-5.139c9.474-5.477,15.115-18.241,13.482-28.977a5.4,5.4,0,0,1,1.648-4.306l5.558-5.348a5.461,5.461,0,0,1,4-1.51c9.2.951,17.791-6.218,18.879-15.335a5.442,5.442,0,0,1,4.073-4.164l15.209-3.556c2.072-.6,4.112.572,5.755,1.724a16.6,16.6,0,0,0,17.125.012c1.65-1.1,3.715-2.372,5.8-1.739,2.554.779,7.462.949,8.811,3.775l2.162,3.655a14.148,14.148,0,0,0,13.788,6.845c2.769-.208,7.357-1.59,9.479,1.108l6.279,6.679a5.4,5.4,0,0,1,1.469,3.712c-.382,6.96.682,13.036,6.655,17.373l5.2,3.753a5.432,5.432,0,0,1,2.25,4.4v9.849a2.605,2.605,0,0,1-1.4,2.312,12.769,12.769,0,0,0-6.863,11.344c-.9,14.154,7.881,11.857,8.249,18.679-1.161,31.161-5.027,8.657-27.215,31.1-5.515,4-7.726,10.293-8.609,14.865a6.842,6.842,0,0,1-3.815,4.938,52.4,52.4,0,0,1-11.015,3.588,5.448,5.448,0,0,1-4.83-1.351,15.525,15.525,0,0,0-11.529-4.148l-11.206.7C234.785,302.349,234.658,302.371,234.53,302.382ZM327.854,258.1c0,6.249-1.65,14.324-2.975,20.812-.373,3.777-2.58,8.157-6.066,9.836-1.455.733-16.207-1-18.566-.976-4.415-.264-4.92,6.335-.493,6.73l1.142.084a30.139,30.139,0,0,0-4.639,9.821c-4.007,13.069-11.767,15.494-17.586,15.252a27.221,27.221,0,0,0-12.563,2.358c-6.216,3.207-17.969,4.576-30.381-2.132a19.087,19.087,0,0,0,2.691-11l8.123-.508c7.078-.345,8.042,7.245,17.307,5.371,27.855-6.317,14.29-14.122,26.033-24.537,2.643-1.911,4.812-4.531,7.376-6.482A23.269,23.269,0,0,1,308,278.283c12.081-2.073,11.25-15.255,11.878-25.536.155-4.478-2.431-8.346-6.021-10.848-2.5-1.8-2.292-5.211-2.227-7.933.3-7.2,8.743-4.477,8.26-14.975l7.945,11.961a3.368,3.368,0,0,0-1.73,1.583C321.324,242.013,328.261,246.859,327.854,258.1Z" style="fill:#2b2b2b"/><path d="M160.661,171.565V150.409c.38-13.355-9.083-28.958-22.9-28.477-7.163,0-11.976,1.266-15.19,2.836l-.345-6.829a16.343,16.343,0,0,0-16.334-15.533H98.676c-14.252-.024-20.257,14.057-20.238,26.645l-5.254.638A18.316,18.316,0,0,0,57.894,142.4a53.292,53.292,0,0,0-2.351,18.653,3.375,3.375,0,0,0,6.74-.361,46.524,46.524,0,0,1,2.059-16.3A11.557,11.557,0,0,1,74,136.389l4.428-.537c.033,10.51-1.182,21.66,5.595,30.438,7.1,10.3,24.015,11.605,33.329,3.681.055,3.462-.412,7.886,6.362,15.8C136.557,200.1,161.176,191.245,160.661,171.565Zm-6.749,0c.3,13.66-16.311,19.5-25.236,9.633-4.049-4.4-4.534-8.437-4.577-8.9V158.924a3.375,3.375,0,0,0-2.825-3.33c-3.478-.593-3.878,3.272-5.183,5.487-2.794,5.2-8.912,7.647-14.837,7.15-10.477.094-16.171-10.227-16.079-19.785.812-12.1-4.364-38.148,13.5-39.291h7.216a9.6,9.6,0,0,1,9.594,9.123l.688,13.64a3.385,3.385,0,0,0,6.545.971c.015-.042,2.735-4.208,15.042-4.208,5.292,0,9.6,2.853,12.793,8.479a26.822,26.822,0,0,1,3.358,13.249Z" style="fill:#2b2b2b"/></svg>