<svg id="icons" xmlns="http://www.w3.org/2000/svg" viewBox="0 0 340 340"><title>6_leek</title><path d="M17.267,322.657a3.428,3.428,0,0,1,0-4.847l11.85-11.849c3.235-3.129,7.98,1.6,4.847,4.846l-11.85,11.85A3.428,3.428,0,0,1,17.267,322.657Z" style="fill:#2b2b2b"/><path d="M34.5,333.524c-6.17-9.09,4.7-21.744,5.109-21.709,3.233-3.126,7.973,1.6,4.854,4.839h0c-.07.07-6.905,7.085-4.377,13.124A3.436,3.436,0,0,1,34.5,333.524Zm9.956-16.863.006.007Z" style="fill:#2b2b2b"/><path d="M6.23,305.252a3.436,3.436,0,0,1,3.746-5.586c6,2.511,13.048-4.3,13.117-4.37a3.427,3.427,0,0,1,4.847,4.847C27.941,300.548,15.341,311.423,6.23,305.252Z" style="fill:#2b2b2b"/><path d="M210.149,71.8l26.208.832s-4.792,46.792-24.752,78.833l-28.649,1.3Z" style="fill:#3c5647"/><path d="M268.32,129.967l-.832-26.208s-46.791,4.793-78.833,24.752l-1.3,28.649Z" style="fill:#3c5647"/><path d="M220.452,47.97l-25.787-.133L151.9,196.354l49.717-71.736A638.483,638.483,0,0,0,220.452,47.97Z" style="fill:#4e6d5d"/><path d="M164.543,152.439,151.9,196.354l24.919-10.1s12.863-21.628,24.8-61.632C192.25,129.261,174.722,141.343,164.543,152.439Z" style="fill:#3c5647"/><path d="M293.611,121.129l-.366,22.331L145.227,189.684l10.1-24.919S202.129,137.962,293.611,121.129Z" style="fill:#4e6d5d"/><path d="M187.285,12.536l15.963-3.592s-8.1,75.327-39.973,151.753c-12.53,20.244-33.112,37.87-56.2,54.682,0,0,65.064-76.387,69.719-190.289A13.443,13.443,0,0,1,187.285,12.536Z" style="fill:#80b297"/><path d="M108.219,248.592l9.81-9.811-17.346-17.346c-12.57,13.211-26.7,26.03-43.24,33.965-10.981,5.529-23.387,12.1-26.2,14.913C18.7,282.852,17.027,301.5,27.494,311.97s29.118,8.789,41.657-3.75c2.811-2.811,9.384-15.217,14.913-26.2A129.864,129.864,0,0,1,108.219,248.592Z" style="fill:#eaefda"/><path d="M163.275,160.7c-23.82,16.729-38.119,34.243-49.181,45.53-4.326,5.992-7.018,9.152-7.018,9.152l37.546-15.489A343.9,343.9,0,0,0,163.275,160.7Z" style="fill:#4e6d5d"/><path d="M100.683,221.435a165.117,165.117,0,0,1,52.143-35.214C193.5,168.927,267.208,141.65,331.311,139.75l-1.966,11.677a14.394,14.394,0,0,1-12.912,11.956c-33.929,3.036-138.075,16.905-198.4,75.4A27.691,27.691,0,0,1,100.683,221.435Z" style="fill:#80b297"/><path d="M44.851,322.307c9.878-.037,19.329-4.258,26.748-11.639.955-.955,3.862-3.862,15.557-27.09,46.559-89.594,179.825-112.766,229.586-116.746A17.871,17.871,0,0,0,332.76,152l1.965-11.678a3.488,3.488,0,0,0-3.517-4.035,300.529,300.529,0,0,0-34.435,3.163l.3-18.266a3.486,3.486,0,0,0-4.088-3.462q-11.172,2.055-21.453,4.3l-.583-18.375a3.483,3.483,0,0,0-3.813-3.334,246,246,0,0,0-33.764,6.415,247.253,247.253,0,0,0,6.43-33.749,3.485,3.485,0,0,0-3.335-3.814l-16.592-.526q2.111-9.875,3.982-20.045a3.463,3.463,0,0,0-3.388-4.089l-19.4-.1c4.078-21.208,5.588-34.741,5.626-35.094a3.489,3.489,0,0,0-4.2-3.748L186.524,9.158a16.926,16.926,0,0,0-13.188,15.791c-3.77,79.572-37.675,154.8-75.1,194.039L88.424,228.8a126.168,126.168,0,0,1-32.538,23.511C32.657,264,29.751,266.91,28.8,267.865,9.14,286.712,14.66,321.635,44.851,322.307ZM290.08,125.312l-.25,15.223c-49.691,8.23-99.633,26.441-131.352,39.563q3.93-8.39,7.464-16.838C181.629,155.808,223.8,137.917,290.08,125.312Zm-25.932-17.644.5,15.883a589.748,589.748,0,0,0-65.276,18.676q3.228-9.124,6.2-18.68C228.79,113.263,254.7,108.972,264.148,107.668Zm-31.7-31.7a257.852,257.852,0,0,1-6.838,32.929c-5.679,1.69-11.569,3.685-17.421,6.034q5.583-18.973,10.177-39.41ZM216.286,51.411c-6.472,34.09-15.007,65.654-25.383,93.9-8.614,3.227-15.69,6.17-21.151,8.587,15.057-38.082,24.416-75.391,29.944-102.573ZM143.28,164.51c15.526-30.72,34.544-79.821,36.974-139.279a9.995,9.995,0,0,1,7.79-9.318L199.2,13.4c-2.707,20.066-15.106,99.072-50.364,170.79a167.855,167.855,0,0,0-24.719,13.59A343.947,343.947,0,0,0,143.28,164.51Zm10.9,24.9c37.811-16.077,109.844-43.082,173.009-46.035l-1.259,7.48a10.943,10.943,0,0,1-9.806,9.083c-55.057,2.939-157.586,31.122-198.878,74.8a23.693,23.693,0,0,1-12.491-12.456A160.857,160.857,0,0,1,154.181,189.407ZM24.19,292.229a31.891,31.891,0,0,1,9.5-19.468c.924-.924,5.24-4.164,25.307-14.268,15.438-7.569,28.822-18.651,40.585-31.064a30.273,30.273,0,0,0,12.45,12.45l-6.264,6.265a133.074,133.074,0,0,0-24.8,34.32c-10.1,20.067-13.345,24.383-14.269,25.308C51.342,321.875,22.561,317.689,24.19,292.229Z" style="fill:#2b2b2b"/></svg>