<svg id="icons" xmlns="http://www.w3.org/2000/svg" viewBox="0 0 340 340"><title>70_elderberries</title><path d="M288.975,78.468c22.86,17.761,35.538,53.576,38.186,70.3C325.445,149.825,255.9,150.707,225,80.945,241.268,74.711,263.671,75.038,288.975,78.468Z" style="fill:#aecc76"/><path d="M288.971,78.473c-37.153-30.355-87.263-14.925-87.263-14.925s12.842-.48,23.22,17.28C240.713,83.269,268.991,85.978,288.971,78.473Z" style="fill:#84994a"/><path d="M323.5,16.779s-3.849,2.678-23.268,19.487C280.1,53.7,247.219,69.859,220.239,66.756a72.456,72.456,0,0,0-10.8-.527c-7.279.25-18.769,1.353-28.718,5.432C180.723,71.661,214.59-10.273,323.5,16.779Z" style="fill:#aecc76"/><path d="M316.119,259.005A17.723,17.723,0,0,1,298.4,276.728c-23.484-.869-23.478-34.581,0-35.447A17.723,17.723,0,0,1,316.119,259.005Z" style="fill:#2b2b2b"/><path d="M309.563,288.769a17.555,17.555,0,0,1-17.555,17.555c-23.261-.86-23.255-34.252,0-35.109A17.555,17.555,0,0,1,309.563,288.769Z" style="fill:#2b2b2b"/><path d="M292.275,307.067a20.439,20.439,0,0,1-20.44,20.439c-27.083-1-27.075-39.881,0-40.879A20.439,20.439,0,0,1,292.275,307.067Z" style="fill:#2b2b2b"/><path d="M264.755,297.529A20.271,20.271,0,0,1,244.484,317.8c-26.861-.994-26.853-39.553,0-40.543A20.272,20.272,0,0,1,264.755,297.529Z" style="fill:#464156"/><path d="M224.291,295.779a17.783,17.783,0,0,1-17.782,17.783c-23.563-.872-23.556-34.7,0-35.565A17.782,17.782,0,0,1,224.291,295.779Z" style="fill:#464156"/><path d="M259.563,238.47a17.675,17.675,0,0,1-17.675,17.675c-23.421-.867-23.414-34.488,0-35.351A17.675,17.675,0,0,1,259.563,238.47Z" style="fill:#2b2b2b"/><path d="M197.449,240.331A15.554,15.554,0,0,1,181.9,255.885c-20.611-.762-20.605-30.349,0-31.109A15.555,15.555,0,0,1,197.449,240.331Z" style="fill:#464156"/><path d="M227.315,230.387a16.909,16.909,0,0,1-16.909,16.91c-22.406-.829-22.4-32.994,0-33.82A16.909,16.909,0,0,1,227.315,230.387Z" style="fill:#464156"/><path d="M208.363,269.469a18.573,18.573,0,0,1-18.573,18.573c-24.611-.911-24.6-36.24,0-37.146A18.572,18.572,0,0,1,208.363,269.469Z" style="fill:#464156"/><path d="M162.138,306.124a18.351,18.351,0,0,1-18.352,18.352c-24.318-.9-24.311-35.808,0-36.7A18.351,18.351,0,0,1,162.138,306.124Z" style="fill:#2b2b2b"/><path d="M58.618,302.753a18.074,18.074,0,0,1-18.075,18.075c-23.95-.886-23.944-35.267,0-36.15A18.075,18.075,0,0,1,58.618,302.753Z" style="fill:#2b2b2b"/><path d="M60.146,197.809a15.428,15.428,0,0,1-15.428,15.428c-20.443-.757-20.437-30.1,0-30.857A15.428,15.428,0,0,1,60.146,197.809Z" style="fill:#464156"/><path d="M61.041,226.987A16.323,16.323,0,0,1,44.718,243.31c-21.629-.8-21.623-31.849,0-32.646A16.323,16.323,0,0,1,61.041,226.987Z" style="fill:#2b2b2b"/><path d="M88.367,209.725a16.2,16.2,0,0,1-16.2,16.2c-21.467-.794-21.461-31.61,0-32.4A16.2,16.2,0,0,1,88.367,209.725Z" style="fill:#464156"/><path d="M111.956,232.069A16.858,16.858,0,0,1,95.1,248.927c-22.337-.826-22.331-32.893,0-33.716A16.859,16.859,0,0,1,111.956,232.069Z" style="fill:#464156"/><path d="M40.543,250.6a15.756,15.756,0,0,1-15.756,15.756c-20.878-.772-20.872-30.743,0-31.512A15.756,15.756,0,0,1,40.543,250.6Z" style="fill:#464156"/><path d="M62.073,269.239a16.839,16.839,0,0,1-16.839,16.839c-22.312-.826-22.306-32.856,0-33.678A16.839,16.839,0,0,1,62.073,269.239Z" style="fill:#464156"/><path d="M81.966,290.547a15.577,15.577,0,0,1-15.577,15.577c-20.64-.764-20.635-30.394,0-31.154A15.577,15.577,0,0,1,81.966,290.547Z" style="fill:#464156"/><path d="M118.606,265.91a18.024,18.024,0,0,1-18.024,18.024c-23.882-.884-23.876-35.167,0-36.047A18.024,18.024,0,0,1,118.606,265.91Z" style="fill:#464156"/><path d="M98.856,314.518a13.493,13.493,0,0,1-13.493,13.493c-17.879-.662-17.874-26.327,0-26.986A13.493,13.493,0,0,1,98.856,314.518Z" style="fill:#2b2b2b"/><path d="M129.8,297.684a17.844,17.844,0,0,1-17.843,17.844c-23.645-.875-23.638-34.817,0-35.688A17.844,17.844,0,0,1,129.8,297.684Z" style="fill:#464156"/><path d="M171.852,275.351A18.154,18.154,0,0,1,153.7,293.505c-24.055-.89-24.048-35.422,0-36.308A18.153,18.153,0,0,1,171.852,275.351Z" style="fill:#464156"/><path d="M244.484,263.152A18.988,18.988,0,0,1,225.5,282.14c-25.159-.931-25.152-37.048,0-37.975A18.987,18.987,0,0,1,244.484,263.152Z" style="fill:#464156"/><path d="M287.617,266.261a20.9,20.9,0,0,1-20.9,20.895c-27.687-1.024-27.68-40.77,0-41.791A20.9,20.9,0,0,1,287.617,266.261Z" style="fill:#464156"/><path d="M302.651,234.482a16.346,16.346,0,0,1-16.346,16.347c-21.66-.8-21.654-31.9,0-32.693A16.346,16.346,0,0,1,302.651,234.482Z" style="fill:#464156"/><path d="M331.671,216.808a17.359,17.359,0,0,1-17.359,17.359c-23-.851-23-33.871,0-34.719A17.359,17.359,0,0,1,331.671,216.808Z" style="fill:#464156"/><path d="M157.514,31.872h5.568S159.714,59,160.144,81.91a40.253,40.253,0,0,0,9.318,25.147,137.89,137.89,0,0,1,14.972,21.909,2.486,2.486,0,0,1-3.331,3.412,106.241,106.241,0,0,1-16.177-10.48,13.649,13.649,0,0,0-18.325,1.235,196.062,196.062,0,0,0-14.947,17.285,1.347,1.347,0,0,1-2.357-1.226c2.551-7.777,7.178-19.977,13.767-29.955a30.317,30.317,0,0,0,4.877-18.726,316.035,316.035,0,0,1,.679-50.594A8.935,8.935,0,0,1,157.514,31.872Z" style="fill:#e54871"/><path d="M45.789,194.742c-.175,6.919-10.317,6.918-10.492,0C35.473,187.823,45.615,187.825,45.789,194.742Z" style="fill:#b5afd8"/><path d="M25.922,247.154c-.175,6.919-10.317,6.918-10.492,0C15.606,240.235,25.748,240.236,25.922,247.154Z" style="fill:#b5afd8"/><path d="M48.19,266.352c-.176,6.919-10.318,6.918-10.493,0C37.873,259.433,48.015,259.435,48.19,266.352Z" style="fill:#b5afd8"/><path d="M98.207,229.275c-.176,6.919-10.318,6.918-10.493,0C87.89,222.356,98.032,222.358,98.207,229.275Z" style="fill:#b5afd8"/><path d="M74.953,206.943c-.176,6.919-10.318,6.918-10.492,0C64.636,200.024,74.778,200.025,74.953,206.943Z" style="fill:#b5afd8"/><path d="M113.118,294.214c-.175,6.919-10.317,6.918-10.492,0C102.8,287.3,112.944,287.3,113.118,294.214Z" style="fill:#b5afd8"/><path d="M156.549,273.144c-.176,6.919-10.318,6.918-10.493,0C146.232,266.225,156.374,266.226,156.549,273.144Z" style="fill:#b5afd8"/><path d="M184.2,237.157c-.176,6.919-10.318,6.918-10.492,0C173.882,230.238,184.024,230.24,184.2,237.157Z" style="fill:#b5afd8"/><path d="M226.884,258.976c-.176,6.92-10.318,6.918-10.492,0C216.567,252.057,226.709,252.059,226.884,258.976Z" style="fill:#b5afd8"/><path d="M213.609,227.4c-.175,6.92-10.318,6.918-10.492,0C203.292,220.478,213.435,220.48,213.609,227.4Z" style="fill:#b5afd8"/><path d="M208.363,291.873c-.175,6.919-10.318,6.918-10.492,0C198.046,284.954,208.189,284.956,208.363,291.873Z" style="fill:#b5afd8"/><path d="M246.475,291.743c-.176,6.919-10.318,6.918-10.493,0C236.158,284.824,246.3,284.825,246.475,291.743Z" style="fill:#b5afd8"/><path d="M267.824,261.391c-.175,6.919-10.317,6.918-10.492,0C257.508,254.472,267.65,254.473,267.824,261.391Z" style="fill:#b5afd8"/><path d="M287.805,231.643c-.176,6.919-10.318,6.918-10.492,0C277.488,224.724,287.63,224.725,287.805,231.643Z" style="fill:#b5afd8"/><path d="M316.119,212.89c-.175,6.919-10.317,6.918-10.492,0C305.8,205.971,315.945,205.972,316.119,212.89Z" style="fill:#b5afd8"/><path d="M69.707,287.772c-.176,6.919-10.318,6.917-10.493,0C59.39,280.853,69.532,280.854,69.707,287.772Z" style="fill:#b5afd8"/><path d="M103.453,263.763c-.176,6.919-10.318,6.917-10.493,0C93.136,256.844,103.278,256.845,103.453,263.763Z" style="fill:#b5afd8"/><path d="M24.787,269.814c.058,0,.116,0,.175,0A20.228,20.228,0,0,0,31,283.691c-19.4,10.549-12.058,40.327,10.261,40.476a21.534,21.534,0,0,0,20.575-15.155,18.276,18.276,0,0,0,7.032.393c-6.1,25.2,30.9,32.285,34.6,6.69a20.329,20.329,0,0,0,20.1-1.79,21.837,21.837,0,0,0,20.217,13.633c17.148.327,27.927-20.042,18.072-34.017a20.365,20.365,0,0,0,11.384-13.166,20.063,20.063,0,0,0,13.08,8.435c-7.135,22.905,22.7,38.2,37.141,19.337,4.982,10.136,18.367,15.579,29.254,11.261,10.819,19.218,40.288,11.987,41.04-10.09,15.588-.92,24.741-19.884,15.693-32.639,15.089-9.134,12.7-32.164-3.895-37.987a19.681,19.681,0,0,0,.533-4.1c12.7,6.13,28.515-3.983,28.185-18.168a19.977,19.977,0,0,0-19.8-19.952c-6.677-16.931-25.307-33.887-52.853-34.657-27.632-.773-38.713-8.47-38.924-8.619-3.677-2.622-7.724,2.785-4.12,5.564.5.373,12.581,9.13,42.851,9.978,23.487.656,39.889,15.017,46.05,28.957a19.967,19.967,0,0,0-13.1,18.33,19.572,19.572,0,0,0-9.852-1.644,98.582,98.582,0,0,0-27.6-17.63c-21.364-9.31-35.436-24.344-42.406-33.262a235.284,235.284,0,0,0-23.738-30.193c-11.985-26.416-32.085-31.807-7.957-59.119,9.3-3.611,19.649-4.643,27.066-4.878,5.5,3.216,10.224,8.8,14.047,16.612,25.779,50.19,64.846,65.944,103.5,65.932a3.487,3.487,0,0,0,3.124-4.134C321.9,108.151,303,75.24,265.918,61.686a144.79,144.79,0,0,0,36.583-22.8c20.17-18.109,25.094-19.057,24.407-22.732a3.465,3.465,0,0,0-2.571-2.733c-76.971-19.04-124.543,13.528-146.5,56.2-6.929,7.9-10.682,13.755-12.708,22.106-4.473-17.371,1.845-60.267,1.388-59.423a3.484,3.484,0,0,0-3.435-3.889h-5.569a12.35,12.35,0,0,0-12.34,11.169,318.252,318.252,0,0,0-.687,51.163,27,27,0,0,1-4.313,16.588,116.507,116.507,0,0,0-10.341,20.263c-17.69,22.675-52.525,23.663-69.583,59.883a18.9,18.9,0,0,0-17.2-11.13c-18.9.1-25.87,24.8-10.137,34.805a19.85,19.85,0,0,0-7.475,20.261C-.421,231.427-1.054,268.872,24.787,269.814ZM322.9,145.384c-36.433.181-76.146-24.734-92.745-62.134a53.525,53.525,0,0,0-8.605-12.9,71.036,71.036,0,0,0,13.909-.222c4.347,1.527,31.238,12.164,56.7,49.207a3.462,3.462,0,0,0,5.707-3.922c-19.006-27.65-38.618-41.236-50.342-47.456,2.578-.639,5.153-1.387,7.712-2.223C293.508,75.116,313.609,106.765,322.9,145.384ZM285.768,26.035a3.47,3.47,0,0,0-4.1-2.683c-41.912,8.733-69.181,20.228-86.836,32.017,26.628-36.19,76.724-47.681,120.9-36.827-3.555,2.931-9.141,7.636-17.771,15.106-18.939,16.393-51.222,32.682-77.333,29.667a75.025,75.025,0,0,0-11.313-.546,109.634,109.634,0,0,0-14.93,1.52c16.117-11.966,43.2-24.678,88.692-34.158A3.463,3.463,0,0,0,285.768,26.035ZM41.261,317.243c-17.534-.346-20-25.181-2.9-28.926a20.035,20.035,0,0,0,9.045,1.1,18.934,18.934,0,0,0,8.04,16.684A14.6,14.6,0,0,1,41.261,317.243Zm-9.4-48a13.391,13.391,0,0,1,13.376-13.377c8.982-.158,15.7,9.235,12.659,17.671a19.137,19.137,0,0,0-8.46,8.4C41.007,284.884,31.7,278.183,31.858,269.239Zm34.531,33.422c-16.036-.569-16.028-23.662,0-24.229C82.423,279,82.42,302.1,66.389,302.661Zm19.438,22.651a10.806,10.806,0,0,1-10.794-10.794c.507-14.287,21.082-14.282,21.588,0A10.806,10.806,0,0,1,85.827,325.312Zm1.81-59.4c.609-17.134,25.285-17.128,25.89,0C112.919,283.044,88.243,283.038,87.637,265.91ZM81.7,232.069c.63-17.731,26.165-17.724,26.791,0C107.864,249.8,82.329,249.794,81.7,232.069Zm30.254,78.987a13.387,13.387,0,0,1-13.372-13.373c.627-17.7,26.119-17.693,26.743,0A13.387,13.387,0,0,1,111.956,311.056Zm4.439-33.164a19.8,19.8,0,0,0,3.958-13.936c15.661-10.781,13.138-31.433,13.018-32.342a3.463,3.463,0,0,0-6.866.9c.089.693,1.852,15.631-8.259,24.337a19.972,19.972,0,0,0-10.037-9.285c16.13-13.721,2.961-40.122-17.855-35.238A317.764,317.764,0,0,1,115.268,168.4c-5.054,40.42,24.81,50.834,32.684,87.5-12.239,3.252-18.612,18.824-11.71,29.757A21.767,21.767,0,0,0,130.274,289,20.345,20.345,0,0,0,116.4,277.892ZM129.1,308.5a19.839,19.839,0,0,0,3.107-11.7,14.819,14.819,0,0,1,9.176-5.349,19.956,19.956,0,0,0,12.924,4.169,14.9,14.9,0,0,1,4.369,10.508C158.264,324.353,132.365,326.383,129.1,308.5Zm24.6-19.777a13.387,13.387,0,0,1-13.373-13.371c.628-17.7,26.12-17.694,26.744,0A13.386,13.386,0,0,1,153.7,288.722Zm36.09-6.136c-17.361-.617-17.354-25.622,0-26.235C207.151,256.968,207.146,281.972,189.789,282.586ZM169.8,240.331c-.126-10.392,12.758-16.019,20.285-8.887a20.238,20.238,0,0,0,3.743,10.743,12.14,12.14,0,0,1-3.992,7.242,19.839,19.839,0,0,0-10.18,2.777A12.084,12.084,0,0,1,169.8,240.331Zm27.156-9.944c.631-17.8,26.267-17.793,26.9,0C223.221,248.186,197.586,248.179,196.958,230.387ZM207,250.45a22.422,22.422,0,0,0-2.677,5.256,20.117,20.117,0,0,0-6.707-4.688,19.163,19.163,0,0,0,1.864-3.467A20.215,20.215,0,0,0,207,250.45Zm-.49,59.65c-10.536.25-17.768-11.828-12.668-21a20.056,20.056,0,0,0,11.954-7.617C225.178,281.227,225.934,309.34,206.508,310.1Zm3.463-46.947c.729-20.549,30.325-20.544,31.051,0C240.292,283.7,210.7,283.693,209.971,263.153Zm20.771-33.471c11.011-13.469,31.581.363,23.613,15.606a24.536,24.536,0,0,0-8.5,8.42,22.5,22.5,0,0,0-17.99-12.88A19.884,19.884,0,0,0,230.742,229.682Zm35.979,19.145c23.076.82,23.066,34.052,0,34.867C243.649,282.876,243.654,249.642,266.721,248.827Zm-22.237,65.51c-24.184-1.252-21.107-36.273,2.846-33.358a24.437,24.437,0,0,0,11.875,8.447C265.463,300.19,256.975,314.64,244.484,314.337Zm27.351,9.706a14.919,14.919,0,0,1-13.052-7.587,23.839,23.839,0,0,0,8.392-25.849,24.29,24.29,0,0,0,3.889-.384,21.028,21.028,0,0,0,15.781,18.895A15.029,15.029,0,0,1,271.835,324.043Zm20.173-21.181a14.114,14.114,0,0,1-14.06-15,24.491,24.491,0,0,0,11.533-12.941C309.663,272.257,312.348,301.814,292.008,302.862Zm22.3-99.091a13.052,13.052,0,0,1,13.037,13.037c-.613,17.254-25.463,17.249-26.073,0A13.051,13.051,0,0,1,314.312,203.771Zm-11.523,41.674c12.169,3.817,13.285,21.065,1.7,26.454a20.858,20.858,0,0,0-13.46-4.118,24.217,24.217,0,0,0-3.15-13.57A19.808,19.808,0,0,0,302.789,245.445ZM286.305,221.6c17.054.606,17.047,25.166,0,25.768C269.253,246.761,269.257,222.2,286.305,221.6Zm-32.153-18.115a94.135,94.135,0,0,1,22.576,13.672c-8.413,4.357-12.7,15.794-8.764,24.78a24.249,24.249,0,0,0-5.286.31c2.5-12.88-8-25.276-21.123-24.9a218.045,218.045,0,0,0-12.545-29.031A113.235,113.235,0,0,0,254.152,203.483Zm-108.2-92.339A33.969,33.969,0,0,0,151.4,90.281a311.169,311.169,0,0,1,.67-50.025c.409-3.724,3.675-5.3,7.139-4.923-.905,8.39-2.857,28.864-2.521,46.642a43.851,43.851,0,0,0,10.126,27.308A134.5,134.5,0,0,1,179.7,127.649a98.451,98.451,0,0,1-12.6-8.449,17.045,17.045,0,0,0-23,1.537c-2.106,2.18-4.555,4.805-7.131,7.742A106.182,106.182,0,0,1,145.953,111.144Zm3.772,98.174C151.84,174.4,125.614,175.751,127.309,152c1.792-2.219,2-2.4,2.541-3.1a176.119,176.119,0,0,1,19.232-23.354,10.149,10.149,0,0,1,13.692-.938,113.878,113.878,0,0,0,22.748,13.817,41.905,41.905,0,0,1,2.347,34.925c-6.186,16.97-5.163,30.923-4,37.73.834,4.468,7.513,3.344,6.826-1.163-.842-4.937-2.167-18.149,3.681-34.2a49.726,49.726,0,0,0,2.68-23.982c15.13,19.8,27.76,39.626,37.621,66.873a21.323,21.323,0,0,0-5.8,3.223c-7.547-16.532-31.863-15.287-37.7,1.911-23.309-11.775-40.4,21.731-17.417,33.755a19.961,19.961,0,0,0-3.228,6.509,20.29,20.29,0,0,0-15.647-8.9c-7.255-38.3-39.537-49.22-32.258-89.447,8.041,18.449,21.32,16.787,20.192,43.276C142.635,213.481,149.4,213.863,149.725,209.318Zm-49.487-52a126.938,126.938,0,0,0,24.485-15.134c-.414,1.388-.716,2.469-.9,3.148-3.2,3.772-19.681,23.851-35.346,55.017A19.139,19.139,0,0,0,66.384,190.8,72.364,72.364,0,0,1,100.238,157.316ZM83.714,209.131c-.572,16.073-23.72,16.065-24.287,0C60,193.058,83.146,193.061,83.714,209.131ZM64.5,226.822a18.982,18.982,0,0,0,10.732,1.016,20.41,20.41,0,0,0,12.345,23.09c-12.215,10.241-7.085,30.839,8.4,34.29a20.106,20.106,0,0,0-4.306,12.59,17.283,17.283,0,0,0-7.342-.932c4.688-12.347-5.7-26.364-18.932-25.318C66.966,259.193,56.37,248,43.925,249a19.232,19.232,0,0,0-.313-2.283A19.774,19.774,0,0,0,64.5,226.822ZM31.08,195.236c.563-15.839,23.373-15.832,23.932,0C54.45,211.072,31.639,211.068,31.08,195.236Zm26.5,31.752c.171,8.863-9.344,15.34-17.523,11.985a19.317,19.317,0,0,0-6.377-5.4C23.854,214.164,55.925,205.135,57.579,226.988ZM24.787,238.3a12.3,12.3,0,0,1,12.29,12.359,20.391,20.391,0,0,0-11.088,12.159C8.944,263.774,7.732,239.045,24.787,238.3Z" style="fill:#2b2b2b"/></svg>