<svg id="icons" xmlns="http://www.w3.org/2000/svg" viewBox="0 0 340 340"><title>71_mangosteen</title><path d="M19.136,133.911c-36.582,65.043,2,128.781,74.116,136.933C145.477,257,171.5,227.625,128.239,157.213,97.583,131.889,62.745,119.414,19.136,133.911Z" style="fill:#7b7091"/><path d="M161.139,106.47H42.324S29.5,116,18.971,134.2a26.49,26.49,0,0,0,15.578,4.413A12.43,12.43,0,0,1,45.777,145.5c5.284,10.6,18.644,28.625,49.184,31.827a28.423,28.423,0,0,1,25.106,24.159c2.912,20.232.791,49.04-26.815,69.358,51.238,8.929,103.225-32.172,107.854-73.173C206.921,153.706,194.2,127.181,161.139,106.47Z" style="fill:#4b4763"/><path d="M113.131,17.605l8.966,11.11a10.7,10.7,0,0,1-.082,13.468c-5.678,7.022-12.99,20.95-11.408,45.173H90.863S81.367,35.288,113.131,17.605Z" style="fill:#719b56"/><path d="M82.473,73.6c-24.195-15.6-63.782,3.727-62.3,30.022,5.188,10.652,14.53,13.152,26.812,9.88Z" style="fill:#aecc76"/><path d="M119.858,75.184c19.492-11.121,46.814-6.307,58.042,15.94,2.274,15.972-8.06,28.374-30.012,21.582C131.114,103.756,124.1,90.135,119.858,75.184Z" style="fill:#aecc76"/><path d="M258.365,163.666c-8.915-7.9-23.886-8.446-33.823-1.825-14.428-3.08-43.441-4.061-58.24,31.847,0,0,15.494,34.039,84.441,24.546s54.236-40.659,54.236-40.659C294.937,164.994,279.736,155.151,258.365,163.666Z" style="fill:#f4edef"/><path d="M150.071,204.216s-16.563,118.168,91.891,118.168c49.762-7.514,70.008-54.164,38.1-96.418C244.038,232.4,195.132,232.569,150.071,204.216Z" style="fill:#7b7091"/><path d="M82.472,73.6c-7.088,1.219-26.087,6.225-35.924,25.658a16.326,16.326,0,0,1-26.369,4.364c-1.053,20.439,23.889,24,36.8,12.908L93.252,83.073A38.954,38.954,0,0,0,82.472,73.6Z" style="fill:#719b56"/><path d="M177.893,91.127c-.654,17.1-22.167,23.177-29.576,9.215-8.012-15.375-21.33-22.368-28.456-25.152a60.459,60.459,0,0,0-12.873,8.94l29.936,38.585a57.272,57.272,0,0,0,18,3.746C173.326,126.911,185.448,107.557,177.893,91.127Z" style="fill:#719b56"/><path d="M57.824,102.244c14.806-28.162,65.223-28.145,80.013,0,7.781,24.931-13.846,38.068-40.006,39.73C63.619,137.9,51.324,120.137,57.824,102.244Z" style="fill:#aecc76"/><path d="M137.829,102.25c.095.508,5.837,32-40,32-45.862,0-40.087-31.531-40-32-12.994,24.821,10.229,50.092,40,49.853C127.6,152.343,150.827,127.068,137.829,102.25Z" style="fill:#719b56"/><path d="M44.746,180.514c-5.34-10.305-18.6-7.42-21.491,4.686-.7,2.933-1.719,19.4,12.6,20.14,5.206.269,9.618-5.3,10.74-11.381A20.615,20.615,0,0,0,44.746,180.514Z" style="fill:#d8ceef"/><path d="M333.853,209.631s-26.854,13.072-64.607,18l8.73,10.2s19.688,66.444-36.014,84.547C241.962,322.384,342.806,328.457,333.853,209.631Z" style="fill:#4b4763"/><path d="M320.741,208.251s-4.821-16.962-15.765-30.674c-.5,11.2-9.771,16.993-20.85,16.358a9.263,9.263,0,0,1-7.233-4.246,66.981,66.981,0,0,0-10.013-12.083,1.811,1.811,0,0,0-2.945,1.956,88.687,88.687,0,0,1,3.231,10.045,16.968,16.968,0,0,1-9.511,19.923c-8.7,3.749-20.972,4.117-31.754,1.175A17.093,17.093,0,0,1,213.8,189.971a89.7,89.7,0,0,1,3.316-10.382,1.817,1.817,0,0,0-2.942-1.975,63.667,63.667,0,0,0-14.576,20.645,8.93,8.93,0,0,1-6.216,5.167c-12.709,2.918-24.318-2.955-27.071-9.736a95.34,95.34,0,0,0-3.609,10.526s14.719,18.755,49.509,22.47c35.049,9.239,72.085-1.462,72.085-1.462Z" style="fill:#d6c8cd"/><path d="M150.071,204.216c6.172-1.823,12.212-5.281,17.9-.179,8.23,9.453,43.434,22.714,87.274,19.656,11.032,4.709,12.33,10.048,8.2,15.738-6.547.5-13.693.777-21.491.777C165.678,240.208,150.071,204.216,150.071,204.216Z" style="fill:#f7616c"/><path d="M333.853,209.631l-2.829-2.924a9.676,9.676,0,0,0-12.847-.981c-8.441,6.507-26.889,16.228-62.928,17.966,3.794,2.617,7.936,7.383,8.2,15.738C325.764,234.668,333.853,209.631,333.853,209.631Z" style="fill:#b73d49"/><path d="M192.226,258.864c-4.649-6.4-13.288-3.1-14,5.35-.172,2.047.822,13.246,10.546,12.283C195.693,275.136,196.514,264.43,192.226,258.864Z" style="fill:#d8ceef"/><path d="M333.513,204.3a13.168,13.168,0,0,0-11.811-3.813c-7.929-22.034-30.289-53.191-62.648-40.767-9.114-7.349-25.072-7.793-35.185-1.547a61.129,61.129,0,0,0-19.974-.546c-3.436-16.307-11.389-29.952-24.247-41.616,10.746-18-1.537-38.582-19.808-46.3-18.516-8.414-35.7-1.414-45.758,4.794,1.123-15.226,6.219-24.693,10.625-30.142a14.078,14.078,0,0,0,.084-17.82l-8.966-11.109a3.459,3.459,0,0,0-4.378-.85C89.335,26.891,85.836,54.2,86.093,71.805,77.5,66,63.451,60.8,44.525,67.961,11.929,80.292,16.83,107.531,17.3,109.8A19.192,19.192,0,0,0,23.7,120.885C-5.3,156.251-9.682,224.034,39.482,254.9c31.259,20.864,77.342,28.109,112.671,9.936,12.122,38.849,44.54,61.616,89.711,61.007,13.006.073,43.559-.8,69.843-26.421,19.964-20.264,28.585-50.594,25.594-90.081C337.33,207.6,334.508,205.5,333.513,204.3Zm-4.976,4.816,1.139,1.177c-25.9,36.65-148.126,36.069-174.374-4.107,3.544-1.288,7.275-2.432,10.352.421C191.7,233.9,292,233.736,320.291,208.466A6.2,6.2,0,0,1,328.537,209.115Zm-41.966-42.376c15.84,7.293,25.069,26.832,28.859,36.721-5.118,3.8-14.2,8.9-29.077,12.524-2.593-14.035-8.586-37.112-21.279-50.875A31.454,31.454,0,0,1,286.571,166.739Zm-47.916-5.979c27.261-2.211,37.827,39.98,40.923,56.684-18.683,4.119-55.4,3.967-73.569-.419C206.643,201.558,211.02,162.961,238.655,160.76Zm-22.313,3.353c-13.455,13.968-16.532,38.529-17.19,51.3-19.223-5.269-24.228-10.556-31.4-15.755C178.849,167.572,200.688,162.8,216.342,164.113Zm-59.367-88.1c31.692,13.012,22.726,55.3-12.4,45.448,2.738-17.882-9.466-33.9-27.614-40.59C125.624,75.342,140.859,68.687,156.975,76.012Zm-44.632-53.87,7.06,8.747c7.054,9.445-11.718,12.163-12.439,47.35a56.772,56.772,0,0,0-13.707-.555C92.275,63.189,93.127,35.01,112.343,22.142ZM97.831,84.422c22.171,0,40.209,14.4,40.209,32.11-1.725,42.446-78.7,42.431-80.419,0C57.621,98.826,75.659,84.422,97.831,84.422ZM46.975,74.437c17.822-6.744,30.48-.706,37.41,4.688C64.908,83.936,50.662,98.908,50.7,116.591c-9.467,4.837-24.311,3.592-26.6-8.124C23.812,107.259,18.707,85.282,46.975,74.437Zm103.2,183.635C58.822,300.359-34.755,207.609,29.706,124.426c6.822,2.618,14.986,2.166,21.827-.606,9.669,40.022,76.779,42.44,91.294,4.341,11.574,3.261,24.2,2.344,32.61-6.622,11.638,10.685,18.584,22.7,21.69,37.539-13.483,3.881-27.742,14.259-36.082,38.786-3.043-.26-9.088,2.241-12.023,3.053a3.584,3.584,0,0,0-2.008,1.705C146.129,205.4,143.062,229.653,150.173,258.072Zm156.651,36.442c-26.2,26.459-64.063,24.4-64.862,24.408-69.519,1.491-91.838-54.7-89.179-104.72,27.547,38.374,149.528,38.026,178.115,5.588C331.7,252.323,323.619,277.432,306.824,294.514Z" style="fill:#2b2b2b"/></svg>