<svg id="icons" xmlns="http://www.w3.org/2000/svg" viewBox="0 0 340 340"><title>72_jackfruit</title><path d="M66.928,31.034,80.3,17.091S99.449,37.336,96.963,79.246c0,0-4.09,12.6-23.082,13.376,0,0,7.036-24.265-7.915-44.839A13.217,13.217,0,0,1,66.928,31.034Z" style="fill:#9d8044"/><path d="M84.914,85.345,69.727,87.3l-2.54,13.545-12.3.785-.5,10.736L44.369,117.53l4.2,9.884-8.38,9.344,8.5,9.613-8.5,9.893,6.966,6.827-3.9,14.769-12.122,1.811,2.787,15.745L19.846,206.283l2.648,16.163-8.221,11.146,4.32,9.2-6.549,10.171,8.638,8.639L16.5,274c18.413,5.775,70.722,27.154,89.3,34.746l61.85-28.414,47.671-71.121-17.416-13.793,7.8-12.692-8.354-9.6,5.177-13.258-10.209-10.547,3.918-15.208-12.122-7.245-.836-16.3-11.843-2.787-.7-13.933L158.2,92.033,155,77.4l-14.63,6.409-6.548-12.958L121.7,77.4l-8.012-9.753L104,77.4,93.314,72.983Z" style="fill:#d6bf6c"/><path d="M70.676,142.325a3.342,3.342,0,0,1-3.335-3.524l.756-13.6a3.338,3.338,0,0,1,2.646-3.08l8.33-1.752L79,112.871a3.338,3.338,0,0,1,2.959-3.35l9.265-1.056,1.754-8.45a3.337,3.337,0,0,1,3.268-2.658H107.2a3.338,3.338,0,0,1,0,6.675H98.96c-2.763,12.9-.437,10.035-13.257,11.781l.073,7.222a3.336,3.336,0,0,1-2.651,3.3l-8.5,1.788-.614,11.05A3.339,3.339,0,0,1,70.676,142.325Z" style="fill:#9d8044"/><path d="M176.952,189.242a3.35,3.35,0,0,1-3.278-3.986l2.138-10.818-9.061-4.841a3.338,3.338,0,0,1-1.665-3.752l3.013-12.077-9.123-3.621a3.335,3.335,0,0,1-2.056-3.678l1.94-11.063-8.272-3.6c-3.989-1.817-1.39-7.806,2.665-6.12l10.681,4.65a3.339,3.339,0,0,1,1.955,3.637l-1.925,10.974,9.312,3.695a3.338,3.338,0,0,1,2.007,3.911l-3.09,12.385,8.945,4.779a3.34,3.34,0,0,1,1.7,3.591l-2.617,13.244A3.339,3.339,0,0,1,176.952,189.242Z" style="fill:#9d8044"/><path d="M47.156,285.227l7.086,3.4.846-25.82a3.334,3.334,0,0,0-1-2.575l-8.48-8.271,6.979-12.022a3.337,3.337,0,0,0,.181-2.993l-4.413-10.271,10.624-7.569a3.335,3.335,0,0,0,1.387-3.018l-1.012-11.195,8.789-2.977A3.338,3.338,0,0,0,66,195.594l-11.279,3.82a3.336,3.336,0,0,0-2.254,3.461l1.076,11.906L42.287,222.8a3.338,3.338,0,0,0-1.13,4.036l4.812,11.2-7.442,12.819a3.338,3.338,0,0,0,.556,4.066l9.256,9.027Z" style="fill:#9d8044"/><path d="M100.947,295.577l-8.439-6.225a3.341,3.341,0,0,1-1.316-3.209l1.183-7.452-11.142-7.129a3.336,3.336,0,0,1-1.25-4.169l4.032-9.055-7.343-7.617a3.338,3.338,0,0,1-.283-4.3l8.065-10.933c2.661-3.484,7.918.385,5.372,3.963l-6.391,8.664,6.946,7.207A3.335,3.335,0,0,1,91.027,259l-3.779,8.487,10.564,6.76a3.344,3.344,0,0,1,1.5,3.334L98.1,285.185l6.805,5.02C108.4,292.869,104.521,298.121,100.947,295.577Z" style="fill:#9d8044"/><polygon points="197.911 195.416 192.695 210.232 177.532 206.88 170.523 218.053 152.826 216.008 152.513 229.065 137.589 234.134 140.826 249.187 127.303 253.72 131.684 268.957 115.915 272.174 110.54 285.227 98.011 282.309 85.933 289.908 73.592 282.29 60.155 287.229 51.689 278.481 39.88 279.814 32.621 270.258 16.503 273.998 26.395 279.432 26.534 291.971 39.91 295.594 41.721 308.134 57.048 309.248 61.646 320.674 75.997 315.379 84.914 322.624 97.593 313.986 113.337 322.624 125.459 314.264 146.498 311.896 215.327 209.209 197.911 195.416" style="fill:#9d8044"/><path d="M144.96,297.067l-3.222,22.127,13.113-5.638,7.85,6.39,12.233-5.478,10.407,6.756,12.415-7.121,12.05,4.93,10.59-7.3,13.328,4.2,8.4-8.581,14.971,1.8,6.755-12.934,14.059,1.46,3.469-14.788H295.8l.366-16.067,12.1-4.747-1.17-14.222,11.484-8.524L315.466,225.6l9.547-9.358-5.72-11.961,7.363-9.144-5.469-11.929,6.747-10.967-7.7-8.764,1.672-16.432a66.068,66.068,0,0,1-17.344,6.575s8.215,71.02-50.392,106.44S144.96,297.067,144.96,297.067Z" style="fill:#d6bf6c"/><path d="M157.965,229.284c42.305,1.786,72.611-29.582,82.486-71.35C261.5,208.71,210.151,264.38,157.965,229.284Z" style="fill:#ebb699"/><path d="M320.237,163.477l1.672-16.432a66.068,66.068,0,0,1-17.344,6.575s3.864,33.427-12.633,65.852A156.928,156.928,0,0,1,307.1,247.847l11.484-8.524L315.466,225.6l9.547-9.358-5.72-11.961,7.363-9.144-5.469-11.929,6.747-10.967Z" style="fill:#9d8044"/><path d="M240.451,157.934c13.313,54.783-29.834,95.542-82.486,71.35,0,0-6.305,19.311-13,67.783,22.487,7.475,127.011,13.085,155.387-63.6-2.323-32.571-11.659-58.777-31.514-75.43A224.138,224.138,0,0,1,240.451,157.934Z" style="fill:#ffeac5"/><path d="M304.565,153.62a261.715,261.715,0,0,1-35.732,4.409,73.026,73.026,0,0,0,17.641,55.8,114.038,114.038,0,0,1,13.867,19.63C313.354,199.543,306.978,163.54,304.565,153.62Z" style="fill:#ebb699"/><path d="M296.314,219.431a11.668,11.668,0,0,1-10.891,6.869s5.7,8.533-2.01,18.458c-5.74,7.393-12.4,6-12.4,6s-8.48,25.767-30.293,11.041l38.416-58.456S292.293,208.708,296.314,219.431Z" style="fill:#ebb699"/><path d="M266.215,189.474a12.067,12.067,0,0,0-7.428,3.683s-7.639,16.695,11.752,25.5c9.66,4.387,15.165-8.073,14.525-17.574-.479-7.126-7.5-10.2-7.5-10.2C273.527,189.747,269.211,189.1,266.215,189.474Z" style="fill:#ffd066"/><path d="M277.562,190.894c3.308,2.795,6.9,9.984,4.265,15.027-3.254,5.778-11.305,3.345-11.305,3.345-11.338-2.837-12.437-10.72-11.729-16.1-6.917,7.351-2.364,18.27,5.029,24.512h0c16.952,12.167,24.957-1.547,25.885-8.141C289.707,209.534,293.541,195.535,277.562,190.894Z" style="fill:#ed9d3e"/><path d="M257.773,213.976a10.339,10.339,0,0,0-9.112,4.905c-1.718,7.321,2.012,14.531,7.776,21.7C281.842,244.344,286.38,214.176,257.773,213.976Z" style="fill:#ffd066"/><path d="M276.637,222.435a15.075,15.075,0,0,0-3.435-3.779c2.023,3.336,4.083,8.655.714,13.331a10.891,10.891,0,0,1-9.116,4.721c-11.172.107-16.344-14.761-16.133-17.823-3.669,6.808-1.2,18,6.087,23.7C267.946,253.081,285.763,236.613,276.637,222.435Z" style="fill:#ed9d3e"/><path d="M238.351,256.805c4.425,3.685,9.795,4.873,15.82,4.328,3.828-6.927,7.078-13.84,2.731-20.567a59.438,59.438,0,0,0-8.449-6.882,10.117,10.117,0,0,0-14.309,3.33S234.95,250.958,238.351,256.805Z" style="fill:#ffd066"/><path d="M204.162,249.25c-9.965-2.775-14.667,7.733-16.668,17.63,1.619,13.02,8.91,15.407,20.321,10.072C212.319,265.176,212.894,255.146,204.162,249.25Z" style="fill:#ffd066"/><path d="M259.57,220.841a36.281,36.281,0,0,1,15.718,11.146l-4.235,5.194a113.678,113.678,0,0,0-12.483-14.716A.973.973,0,0,1,259.57,220.841Z" style="fill:#ed9d3e"/><path d="M258.256,196.455a56.613,56.613,0,0,1,14.819,5.244,1.086,1.086,0,0,1-.611,2.042L259.5,202.434A12.291,12.291,0,0,1,258.256,196.455Z" style="fill:#ed9d3e"/><path d="M256.9,240.568c1.149,5.011.009,8.628-2.954,11.34-2.4,1.974-7.644,5.032-13.224.252-5.5-4.714-6.465-11.657-6.576-15.145-3.223,5.659-.226,14.85,3.556,21.648C248.322,273.883,273.4,256.237,256.9,240.568Z" style="fill:#ed9d3e"/><path d="M242.5,240.957c3.275,3.991,8.718,9.569,15.082,11.912L251,255.91a31.741,31.741,0,0,1-10.2-13.949A1,1,0,0,1,242.5,240.957Z" style="fill:#ed9d3e"/><path d="M208.785,252.379a10.277,10.277,0,0,0-4.655-3.137c8.9,9.491,4.669,29.4-11.306,23.483-2.746-1.089-3.868-2.844-5.324-5.844-1.242,6.272-1.365,13.8,5.282,16.952a16.323,16.323,0,0,0,9.894,1.215c10.322-1.811,16.663-7.94,13.04-20.895A45.068,45.068,0,0,0,208.785,252.379Z" style="fill:#ed9d3e"/><path d="M214.5,250.548a31.053,31.053,0,0,0-1.174,8.6c2.482,12.35,9.221,16.38,20.117,12.286,5.387-5.675,6.518-12.067,1.134-19.557C229.574,246.033,218.428,240.092,214.5,250.548Z" style="fill:#ffd066"/><path d="M195.564,274.625c0-.2,1.286-7.457,2.036-11.667a.5.5,0,0,1,.981.011c.645,4.2,1.756,11.488,1.823,12.226C200.5,276.239,195.564,274.625,195.564,274.625Z" style="fill:#ed9d3e"/><path d="M234.577,251.874c2.271,5.9,2.22,16.317-7.014,17.731-8.686,1.33-13.664-9.206-14.224-10.461-.832,11.361,7.618,21.07,19.366,17.576,8.35-2.727,9.991-13.028,5.731-19.714A35.967,35.967,0,0,0,234.577,251.874Z" style="fill:#ed9d3e"/><path d="M223.7,251.606c3.843,2.712,9.208,7.823,10.217,15.677l-6.707,3.508a30.988,30.988,0,0,0-4.437-18.247A.669.669,0,0,1,223.7,251.606Z" style="fill:#ed9d3e"/><path d="M323.705,162.368l1.525-14.985a3.362,3.362,0,0,0-5.02-3.211c-13.48,7.266-37.1,11.968-79.522,10.433a3.318,3.318,0,0,0-2.319.738c-2.4,2.06-6.528,28.911-24.777,48.235l-11.287-8.94,6.246-10.167a3.339,3.339,0,0,0-.326-3.939l-7.028-8.077,4.442-11.376a3.338,3.338,0,0,0-.711-3.536l-8.909-9.2,3.452-13.4a3.336,3.336,0,0,0-1.52-3.7l-10.592-6.332-.745-14.522a3.339,3.339,0,0,0-2.568-3.078l-9.4-2.211-.571-11.426a3.337,3.337,0,0,0-2.856-3.136L160.967,89.06l-2.71-12.371a3.337,3.337,0,0,0-4.6-2.343l-11.737,5.141c-7.855-14.948-4.219-14.429-19.391-6.328l-6.265-7.628a3.36,3.36,0,0,0-4.947-.234l-8.111,8.164-2.7-1.115C99.875,33.915,83.688,9.38,77.886,14.781L64.477,28.769a16.6,16.6,0,0,0-1.212,20.976c8.847,12.174,9.394,25.894,8.721,33.9-2.232.27-5.027.254-5.54,3.04L64.384,97.674l-9.706.62a3.337,3.337,0,0,0-3.121,3.177l-.409,8.808-8.309,4.284a3.338,3.338,0,0,0-1.542,4.273l3.37,7.93c-9.953,11.565-10.753,7.872-.406,19.638l-6.6,7.684a3.34,3.34,0,0,0,.2,4.56l5.58,5.468-2.844,10.768-9.949,1.486a3.339,3.339,0,0,0-2.793,3.884l2.434,13.755-12.473,9.632a3.339,3.339,0,0,0-1.254,3.181l2.42,14.775-7.386,10.014a3.337,3.337,0,0,0-.335,3.4l3.534,7.524c-8.126,13.039-8.689,8.94,2.072,19.958L13.34,272.931a3.337,3.337,0,0,0,1.555,3.992l8.184,4.5.117,10.591a3.34,3.34,0,0,0,2.466,3.184l11.258,3.05,1.5,10.367a3.34,3.34,0,0,0,3.061,2.853l13.25.963,3.82,9.493A3.337,3.337,0,0,0,62.8,323.8l12.567-4.636,7.441,6.047a3.339,3.339,0,0,0,3.984.168L97.781,317.9l13.951,7.654a3.335,3.335,0,0,0,3.5-.178l11.432-7.885,12.149-1.368-.378,2.594a3.361,3.361,0,0,0,4.621,3.547l11.256-4.84,6.282,5.115a3.338,3.338,0,0,0,3.471.457l10.576-4.735,8.883,5.766a3.334,3.334,0,0,0,3.477.1l11-6.309,10.541,4.312a3.337,3.337,0,0,0,3.159-.342l9.246-6.377,11.773,3.71a3.335,3.335,0,0,0,3.389-.849l7.248-7.406,13.338,1.6a3.317,3.317,0,0,0,3.357-1.769l5.706-10.926c18.518,1.743,13.594,3.988,18.263-13.543H295.8a3.338,3.338,0,0,0,3.337-3.262l.315-13.847,10.036-3.936A3.339,3.339,0,0,0,311.6,261.8l-1.018-12.373L320.572,242a3.339,3.339,0,0,0,1.266-3.419l-2.7-11.9c11.75-12.114,11.167-6.5,4.077-21.942l6.045-7.506a3.338,3.338,0,0,0,.434-3.484l-4.725-10.309,5.812-9.448a3.336,3.336,0,0,0-.335-3.951Zm-79.094-.841a265.12,265.12,0,0,0,57.4-4.01C324.005,272.407,227.03,310.6,148.692,294.479c4.841-34.221,9.44-53.258,11.423-60.594C218.9,256.391,254.589,209.205,244.611,161.527Zm-5.486,11.63c3.07,38.377-25.349,66.895-63.955,58.26C205.25,226.408,228.852,203.181,239.125,173.157ZM68.665,45.82a9.9,9.9,0,0,1,.672-12.477l10.7-11.165C84.3,28.2,93.335,43.985,93.821,69.694a3.33,3.33,0,0,0-3.267,1.413L83,82.226l-4.257.547C79.3,73.618,78.243,59,68.665,45.82Zm72.993,250.764-1.851,12.706-14.722,1.657c-.807-.381-11.091,7.34-11.948,7.76L99.2,311.06a3.34,3.34,0,0,0-3.485.167l-10.624,7.239L78.1,312.788a3.339,3.339,0,0,0-3.26-.54L63.532,316.42,60.144,308a3.34,3.34,0,0,0-2.854-2.083L44.641,305l-1.428-9.883a3.334,3.334,0,0,0-2.43-2.744l-10.94-2.964-.11-10.015A3.341,3.341,0,0,0,28,276.506l-7.444-4.089,3.287-9.753a3.334,3.334,0,0,0-.8-3.426L16.308,252.5,21.4,244.6a3.338,3.338,0,0,0,.215-3.226l-3.474-7.4,7.04-9.547a3.337,3.337,0,0,0,.608-2.52l-2.326-14.2,12.5-9.65a3.336,3.336,0,0,0,1.246-3.224l-2.189-12.367c5.055-.754,16.248-2.43,21.387-3.2a3.337,3.337,0,0,0,2.57-1.976l3.377-7.8c13.41.754,10.724,2.145,14.058-10.587l11.108.494c4.372.159,4.684-6.411.3-6.668l-13.841-.616a3.316,3.316,0,0,0-3.389,2.534l-2.1,8.513-8.073-.469a3.328,3.328,0,0,0-3.257,2.007l-3.568,8.244-5.807.868,2.606-9.867a3.337,3.337,0,0,0-.891-3.236l-4.734-4.639c9.667-11.5,9.746-7.94-.1-19.3l6.4-7.131a3.337,3.337,0,0,0,.587-3.534l-2.988-7.031c10.473-5.673,8.807-2.273,9.433-14.311l9.313-.595a3.339,3.339,0,0,0,3.068-2.716L72.559,90.3l12.78-1.641a3.343,3.343,0,0,0,2.336-1.435L94.549,77.1l8.174,3.381a3.339,3.339,0,0,0,3.643-.732l7.084-7.131,5.667,6.9a3.336,3.336,0,0,0,4.166.817l9.1-4.918,5,9.9a3.34,3.34,0,0,0,4.318,1.552l10.9-4.776,2.333,10.653a3.338,3.338,0,0,0,2.783,2.589l9.821,1.418.559,11.189a3.338,3.338,0,0,0,2.569,3.083l9.4,2.212.707,13.8a3.339,3.339,0,0,0,1.622,2.693l9.979,5.965-3.295,12.79a3.336,3.336,0,0,0,.834,3.154l8.719,9.008-4.4,11.262a3.337,3.337,0,0,0,.591,3.405l6.745,7.751-6.514,10.6a3.339,3.339,0,0,0,.772,4.364l12.849,10.176c-23.246,19.94-50.013,17.785-50.406,17.753a3.38,3.38,0,0,0-3.089,1.49C153.968,230.253,148.551,247.883,141.658,296.584ZM318.345,181.459a3.337,3.337,0,0,0-.192,3.139l4.609,10.054-6.068,7.535a3.339,3.339,0,0,0-.412,3.534l4.69,9.808-7.843,7.689a3.336,3.336,0,0,0-.918,3.122l2.635,11.6-9.736,7.227a3.337,3.337,0,0,0-1.337,2.954l.966,11.747-9.792,3.84a3.339,3.339,0,0,0-2.118,3.031l-.291,12.806H281.377a3.337,3.337,0,0,0-3.25,2.576l-2.8,11.927-11.136-1.158a3.332,3.332,0,0,0-3.3,1.775L255.2,305.556l-12.682-1.522a3.325,3.325,0,0,0-2.783.979l-6.964,7.117L221.4,308.546a3.336,3.336,0,0,0-2.9.436l-9.1,6.277-10.379-4.245a3.336,3.336,0,0,0-2.924.194l-10.647,6.106-8.7-5.645a3.332,3.332,0,0,0-3.182-.247l-10.356,4.638c-9.651-7.74-6-6.929-17.313-2.289l1.842-12.655c96.424,18.2,182.26-35.264,160.782-145.056a72.633,72.633,0,0,0,9.453-3.354l-1.061,10.433a3.337,3.337,0,0,0,.812,2.54l6.071,6.912Z" style="fill:#2b2b2b"/><path d="M211.3,249.619h0c-.042.146-.074.3-.114.444a13.326,13.326,0,0,0-10.344-4.625c-12.365.688-16.736,15.926-17.36,27.821-.4,20.2,29.042,18.988,35.187,4.754,9.688,6.417,24.009,1.357,25.235-10.854,11.007,3.389,23.4-6.195,21.583-18,11.1-.737,20.09-13.463,16.056-24.178,9.542-3.332,15.49-17.314,9.506-28.331-3.654-7.548-17.392-11.422-25.2-10.495-12.017,1.385-17.255,14.77-11.389,24.815-8.221,1.816-11.731,9.8-10.585,17.729-8.073-.781-15.492,6.819-14.353,14.92C222.87,239.365,213.586,241.587,211.3,249.619Zm-5.213,31.106c1.74-6.956-2.362-16.23-3.323-18.256a3.338,3.338,0,0,0-6.033,2.857c2.11,4.785,6.248,16.354-.671,16.176a7.6,7.6,0,0,1-5.908-7.974c.115-14.036,9.852-32.21,19.859-13.529.044,4.344.746,9.048,3.293,12.7C213.062,274.713,212.078,278.551,206.082,280.725ZM260.145,196.8c3.851-5.355,8.851-4.486,15.533-2.969a17.961,17.961,0,0,1,7.091,3.3c-6.073-1.713-12.395.415-12.756.54a3.337,3.337,0,0,0,2.176,6.31c2.892-1.236,15.488-2.529,13.39,7.843-1.027,2.677-3.173,6.356-7.333,7.146-3.493-4.34-8.984-7.056-16.1-7.985C259.486,207.093,257.037,201.235,260.145,196.8Zm-9.591,26.492c1.668,3.274,6.923,8.249,14.431,9.983,3.652.061,4.622-5.3,1.1-6.488-8.472-2.97-10.207-7.058-10.493-9.213,12.424-1.915,25.3,7.783,18.222,19.372a12.172,12.172,0,0,1-10.765,5.584c-3.152-4.4-7.713-7.991-11.861-10.994A21.069,21.069,0,0,1,250.554,223.294ZM246.6,236.462c4.974,3.862,13.635,8.906,12.179,16.534-.971,6.83-10.407,10.464-15.565,6.471-1.15-3.568-3.145-6.251-5.683-9.286a30.042,30.042,0,0,1-1.421-7.709C235.635,237.138,242.245,233.312,246.6,236.462Zm-10.4,33.255c-2.721,5.269-10.108,5.525-14.492,2.307-6.3-4.4-5.6-14.382-4-20.547h0a4.689,4.689,0,0,1,.483-1.077c1.7,1.991,4.06,6.169,4.185,14.157a3.337,3.337,0,1,0,6.674-.1c-.112-7.182-1.834-12.142-3.777-15.474C232.783,252.781,240.313,261.856,236.2,269.717Z" style="fill:#2b2b2b"/></svg>