<svg id="icons" xmlns="http://www.w3.org/2000/svg" viewBox="0 0 340 340"><title>73_sunflower</title><path d="M13.945,190.578s45.728-12.8,67.286,13.442c7.145,8.594,9.78,23.662.142,31.54-9.493,6.951-39.231,9.185-53.329-17.9Z" style="fill:#aecc76"/><path d="M157.856,239.65c-8.3-2.983-13.985-10.594-15.277-19.323-6.028-39.761,62.051-34.958,68.627-30.126,0,0-2.481,25.736-31.532,46.229A23.837,23.837,0,0,1,157.856,239.65Z" style="fill:#aecc76"/><path d="M105.776,189.534A170.849,170.849,0,0,1,95.558,262.14C89.736,277.8,82.48,302.39,83.607,325.464h21.625s-1.3-34.55,10.546-61.453a140.285,140.285,0,0,0,12.285-59.758C122.685,192.4,115.227,187.588,105.776,189.534Z" style="fill:#aecc76"/><path d="M116.605,145.656,99.76,149.117s4.49,16.506,6.013,40.417c4.052,5.538,11.66,13.572,22.281,14.719C127.981,185.819,125.356,164.586,116.605,145.656Z" style="fill:#84994a"/><path d="M90.732,121.827l13.8,2.909s4.814,39.719-10.84,63.062a9,9,0,0,1-16.1-2.514C73.392,170.889,72.845,148.073,90.732,121.827Z" style="fill:#ffd066"/><path d="M104.478,123.742S98.7,160.877,122.864,184.56c6.746,6.611,18.048,1.317,17.149-8.085-1.507-15.765-6.958-38.092-24.252-55.987Z" style="fill:#ffd066"/><path d="M114.3,121.725s13.539,28.653,53.56,39.96a9.1,9.1,0,0,0,9.84-14.121c-8.925-12.256-25.4-28.513-50.8-33.3Z" style="fill:#ffd066"/><path d="M123.273,96.929s33.106-6.874,61.98,4.021c9.507,3.586,8.5,17.318-1.447,19.407-16.369,3.438-41.037,5.044-63.212-9.636Z" style="fill:#ffd066"/><path d="M113.581,86.728s23.913-22.6,61.474-24.432c12.259-.6,17.446,15.458,7.22,22.245-13.576,9.011-34.3,17.1-63.348,14.165Z" style="fill:#ffd066"/><path d="M104.209,80.593S114.46,45.9,148.224,25.962c8.647-5.106,18.787,3.78,14.739,12.97-7.225,16.4-21.444,38.151-48.721,52.013Z" style="fill:#ffd066"/><path d="M109.384,85.932s17.244-27.115,13.238-66.814C121.555,8.547,107.176,6.058,102.8,15.74,96.266,30.2,91.5,51.749,98.794,79.956Z" style="fill:#ffd066"/><path d="M71.438,17.313c11.8,11.356,26.647,31.851,29.267,64.459L90.194,84.256s-32.3-21.81-35-59.346A9.622,9.622,0,0,1,71.438,17.313Z" style="fill:#ffd066"/><path d="M90.194,84.256S65.578,56.475,36.774,47.338C23.314,43.069,12.857,59.3,22.44,69.673,31.889,79.9,47.942,90.458,75.046,94.79Z" style="fill:#ffd066"/><path d="M81.883,90.036s-34.952-6.093-63.02,12.724c-8.252,5.532-5.616,18.432,4.155,20.228,14.611,2.687,36.574,1.212,61.62-18.9Z" style="fill:#ffd066"/><path d="M87.072,104.091s-37.16,7.286-55.658,47.547a11.247,11.247,0,0,0,14.3,15.194c15.512-6.129,36.26-19.016,50.617-45.951Z" style="fill:#ffd066"/><path d="M144.324,100.093A41.921,41.921,0,0,1,102.4,142.014c-55.548-2.055-55.533-81.8,0-83.842A41.921,41.921,0,0,1,144.324,100.093Z" style="fill:#ed9d3e"/><path d="M135.272,100.093A32.869,32.869,0,0,1,102.4,132.962c-43.553-1.612-43.541-64.133,0-65.738A32.869,32.869,0,0,1,135.272,100.093Z" style="fill:#6d4b4b"/><path d="M103.269,95.708c-3.2-3.353,1.71-8.19,5.017-4.948C111.482,94.113,106.576,98.95,103.269,95.708Z" style="fill:#473030"/><path d="M106.247,107.361c-3.2-3.353,1.71-8.19,5.017-4.948C114.46,105.766,109.554,110.6,106.247,107.361Z" style="fill:#473030"/><path d="M93.824,103.838c-3.195-3.353,1.711-8.19,5.018-4.948C102.037,102.242,97.132,107.08,93.824,103.838Z" style="fill:#473030"/><path d="M91.978,85.608c-3.195-3.352,1.711-8.189,5.018-4.947C100.191,84.013,95.286,88.85,91.978,85.608Z" style="fill:#473030"/><path d="M82.129,96.751c-3.2-3.353,1.71-8.19,5.017-4.948C90.342,95.156,85.436,99.993,82.129,96.751Z" style="fill:#473030"/><path d="M82.87,111.759c-3.2-3.353,1.71-8.19,5.017-4.948C91.082,110.164,86.177,115,82.87,111.759Z" style="fill:#473030"/><path d="M93.824,121.645c-3.195-3.353,1.711-8.19,5.018-4.948C102.037,120.05,97.132,124.887,93.824,121.645Z" style="fill:#473030"/><path d="M109.281,120.882c-3.2-3.353,1.71-8.19,5.017-4.948C117.494,119.287,112.588,124.124,109.281,120.882Z" style="fill:#473030"/><path d="M119.46,111.061c-3.2-3.353,1.71-8.19,5.017-4.948C127.672,109.466,122.767,114.3,119.46,111.061Z" style="fill:#473030"/><path d="M118.754,96.751c-3.2-3.353,1.71-8.19,5.017-4.948C126.966,95.156,122.061,99.993,118.754,96.751Z" style="fill:#473030"/><path d="M109.281,84.755c-3.2-3.353,1.71-8.19,5.017-4.948C117.494,83.16,112.588,88,109.281,84.755Z" style="fill:#473030"/><path d="M171.8,292.4s5.893-12.758,25.534-15.972,29.639,14.463,29.639,14.463l-20,18.446Z" style="fill:#4f4444"/><path d="M284.11,280.18s17.114-5.782,34.871-.409a10.042,10.042,0,0,1,3.246,17.481c-13.531,10.87-31.056,10.337-51.688,10.068Z" style="fill:#4f4444"/><path d="M233.312,280.79c6.448-9.075,20.561-16.444,33.25-17.345l17.5.277a10.944,10.944,0,0,1,7.62,14.975,42.228,42.228,0,0,1-4.528,8.015C268.517,298.468,239.705,294.24,233.312,280.79Z" style="fill:#756a6a"/><path d="M265.26,288.159a3.3,3.3,0,0,1-3.364-1.088c-5.941-7.23-20.237-7.077-28.58-6.277a35.254,35.254,0,0,0-6.344,12.241l38.568,9.107c10.5-3.5,17.26-9.394,21.614-15.431C278.426,285.313,269.335,287.132,265.26,288.159Z" style="fill:#4f4444"/><path d="M251.6,318.3c4.743,3.418,11.592,6.318,21.18,6.318,12.825.319,29.976-7.819,29.165-17.013l-5.785-8.06c-6.891-4.79-20.352-7.008-30.412-4.32C257.324,299.8,251.879,306.878,251.6,318.3Z" style="fill:#756a6a"/><path d="M251.6,318.3c5.94-2.623,16.859-9.417,14.147-23.068a53.359,53.359,0,0,0-23.421,12.2A28.452,28.452,0,0,0,251.6,318.3Z" style="fill:#4f4444"/><path d="M210.518,295.544c3.859-3.56,9.742-7.019,18.462-8.062a53.805,53.805,0,0,1,24.341,2.659,7.94,7.94,0,0,1,3.022,12.99s-18.136,9.823-38.629,7.18Z" style="fill:#756a6a"/><path d="M230.7,307.212a8.489,8.489,0,0,1-5.332-3.231c-4.14-5.392-10.238-7.611-14.751-8.522a25.359,25.359,0,0,0-6.676,9.411l13.8,9.579c20.566,2.629,32.358-4.769,38.676-11.4C247.748,308.99,236.454,308.17,230.7,307.212Z" style="fill:#4f4444"/><path d="M191.837,295.279a34.808,34.808,0,0,0-9.355-2.782,67.725,67.725,0,0,1-10.447-.671c-9.083-.094-19.381,2.715-23.891,5.894-3.711,3.049-5.406,6.921-2.609,12.625A125.309,125.309,0,0,0,179.6,315C187.116,309.571,191.843,303.215,191.837,295.279Z" style="fill:#756a6a"/><path d="M201.439,304.82s-1.462-5.686-9.6-9.539c-5.429.35-16.921,2.27-25.9,11.82a9.936,9.936,0,0,1-8.129,3.187c-8.116-.94-16.295-3-9.659-12.562a25.384,25.384,0,0,0-5.807,4.9,6.838,6.838,0,0,0,1.982,10.5c5.724,2.99,16.562,6.509,35.868,6.509Z" style="fill:#4f4444"/><path d="M178.715,306.259c8.737-4.8,30.271-9,38.809,1.2,5.376,6.278-3.614,20-20.531,18.62C179.431,327.511,166.71,316.378,178.715,306.259Z" style="fill:#756a6a"/><path d="M219.444,302.69a44.874,44.874,0,0,1,27.178-8.933.8.8,0,0,1,.251,1.556c-5.576,1.76-15.137,5.387-20.792,10.941Z" style="fill:#4f4444"/><path d="M257.063,313.873a33.851,33.851,0,0,0,33.553-2.2.8.8,0,0,0-.645-1.449c-14.964,3.936-28.252-2.251-28.252-2.251Z" style="fill:#4f4444"/><path d="M257.063,287.093S271.82,283.535,281.452,273a.837.837,0,0,1,1.389.884c-2.112,5.152-6.655,13.2-15.135,16.054A9.441,9.441,0,0,1,257.063,287.093Z" style="fill:#4f4444"/><path d="M219.187,309.416a22.271,22.271,0,0,0-1.667-1.954c5.065,14.585-26.86,17.928-35.388,13.75a9.084,9.084,0,0,1-3.413-14.946,37.606,37.606,0,0,0-7.578,5.128,7.266,7.266,0,0,0,1.448,11.953c24.069,12.263,38.18,5.943,45.136-.034A10.235,10.235,0,0,0,219.187,309.416Z" style="fill:#4f4444"/><path d="M282.72,263.5a77.681,77.681,0,0,0-16.157-.047c-6.928,2.793-12.642,6.586-15.8,9.866a1.335,1.335,0,0,0,1.577,2.109c7.072-3.658,19.289-9.261,31.741-11.7A11.152,11.152,0,0,0,282.72,263.5Z" style="fill:#d6c5c5"/><path d="M301.943,307.606c-.1-3.5-2.667-6.39-5.785-8.058-7.815-1.4-16.6-.815-22.709-.05-1.334.167-1.4,2.294-.057,2.314C283.069,301.955,295.48,303.153,301.943,307.606Z" style="fill:#d6c5c5"/><path d="M181.917,311.555c-.86.271-1.243-1.266-.467-1.753a34.973,34.973,0,0,1,15.575-4.868,32.592,32.592,0,0,1,15.871,2.7c.944.414.587,1.958-.421,1.812C208.062,308.811,193.376,307.947,181.917,311.555Z" style="fill:#d6c5c5"/><path d="M172.035,291.831a27.967,27.967,0,0,0-14.8,7.653,1,1,0,0,0,1.205,1.575c5.346-3.054,14.417-7.431,24.02-8.565A58.549,58.549,0,0,0,172.035,291.831Z" style="fill:#d6c5c5"/><path d="M329.288,286.891a13.4,13.4,0,0,0-9.305-10.433,62.484,62.484,0,0,0-23.958-2.1,14.468,14.468,0,0,0-12.946-14.3c-8.7-.906-21.554-.934-33.355,4.08A45.9,45.9,0,0,0,226.875,284.3c-.142.023-.288.041-.429.065-15.214-19.189-44.988-12.325-56.283,4.054-17.27.55-34.572,8.789-32.757,20.609a10.2,10.2,0,0,0,5.314,7.173c6.083,3.178,14.178,5.273,24.035,6.259a10.669,10.669,0,0,0,4.263,3.972c10.634,5.419,19.513,7.362,26.78,7.362,12.8-.194,24.545-6.182,26.614-15.36a51.033,51.033,0,0,0,19.092-2.939c4.531,5.324,13.577,12.586,29.276,12.586,15.191.047,31.969-8.432,32.622-19.215C316.092,305.892,331.6,300.019,329.288,286.891Zm-76.857-16.38c10.443-4.435,22.039-4.39,29.931-3.567a7.525,7.525,0,0,1,6.142,10.384,37.484,37.484,0,0,1-9.61,13.371,49.312,49.312,0,0,0-17.882,2.224,11.258,11.258,0,0,0-6.538-6.048,57.635,57.635,0,0,0-18.975-3.233A39.851,39.851,0,0,1,252.431,270.511Zm-54.539,9.336c9.568-1.563,16.547,2.541,20.919,6.585a32.7,32.7,0,0,0-14.874,11.358,27.628,27.628,0,0,0-2.87-.069c-3.55-3.875-10.09-8.1-21.975-9.129C182.571,285.258,188.459,281.39,197.892,279.847Zm-32.588,35.5c-9.351-1.536-24.759-3.84-20.343-10.452,7.222-10.052,34.471-12.406,45.855-6.241C179.51,300.833,166.5,307.017,165.3,315.342Zm50.165,5.345c-6.873,5.9-19.619,10.625-41.308-.425a3.823,3.823,0,0,1-.735-6.267c5.507-6.262,33.5-16.34,43-2.491A6.756,6.756,0,0,1,215.469,320.687Zm8.606-9.2c-1.907-5.688-7.225-10.011-12.518-12.076,3.3-3.52,8.872-7.418,17.834-8.491,8.021-1.08,25.045.5,25.592,5.627a4.455,4.455,0,0,1-1.139,4.188C248.79,306.007,239.561,312,224.075,311.486Zm72.783.563c-10.655,11.253-35.706,12.722-46.8.375,5.426-3.57,10.223-6.5,11.712-12.457a43.721,43.721,0,0,1,14.227-2.444C286,297.351,304.155,303.565,296.858,312.049ZM320.1,294.521a42.754,42.754,0,0,1-16.259,7.6c-3.352-5.285-9.173-7.776-16.532-10.079a44.6,44.6,0,0,0,6.871-10.5,56.775,56.775,0,0,1,23.8,1.542,6.581,6.581,0,0,1,2.122,11.436Z" style="fill:#2b2b2b"/><path d="M181.67,239.259C211.2,218.332,218.346,187.8,212.524,187c-13.377-7.335-87.27-7.267-71.689,40.151a139.268,139.268,0,0,0-13.51,13.966c4.276-16.432,4.862-33.721,3.664-50.2a13.521,13.521,0,0,0,12.47-14.767,109.506,109.506,0,0,0-4.994-24.036c8.083,5.107,19.829,11.629,31.968,13.4A12.575,12.575,0,0,0,180.5,145.525a94.583,94.583,0,0,0-18.955-19.765,95.972,95.972,0,0,0,22.976-2.016c13.258-2.6,14.643-21.454,1.957-26.033a91.953,91.953,0,0,0-13.61-3.911,89.131,89.131,0,0,0,11.325-6.375c13.062-8.5,6.383-29.572-9.3-28.587a103.686,103.686,0,0,0-21.442,3.349,114.85,114.85,0,0,0,12.688-21.859,13.767,13.767,0,0,0-19.668-17.347,99.385,99.385,0,0,0-20.018,15.656,121.992,121.992,0,0,0-.379-19.866A13.808,13.808,0,0,0,114.424,6.4a13.463,13.463,0,0,0-14.78,7.912,89.522,89.522,0,0,0-7.179,25.5,97.243,97.243,0,0,0-18.626-25,13.084,13.084,0,0,0-22.1,10.341,75.885,75.885,0,0,0,8.569,29.6A99.6,99.6,0,0,0,37.821,44.038,17.086,17.086,0,0,0,18,51.224a16.72,16.72,0,0,0,1.895,20.8A75.682,75.682,0,0,0,42.763,88.629,81.582,81.582,0,0,0,16.935,99.884c-10.819,6.99-7.264,24.386,5.457,26.51a65.834,65.834,0,0,0,21.193.416,91.989,91.989,0,0,0-15.317,23.383,14.709,14.709,0,0,0,18.72,19.859,99.65,99.65,0,0,0,25.9-15.119,68.107,68.107,0,0,0,1.388,31.321A12.441,12.441,0,0,0,86.3,195.233c8.4.174,12.244-7.98,15.248-14.794,3.018,27,.654,54.053-9,79.857a71.393,71.393,0,0,0-6.9-23.917c8.447-9.253,6.339-24.989-1.731-34.557C61.176,174.154,14.968,186.7,13.012,187.244a3.486,3.486,0,0,0-2.138,4.933l14.1,27.083c12.414,23.233,36,28.725,54.956,21.112,14.688,30.321-1.5,53.612.213,85.092h6.925c-1.108-22.226,5.761-46.073,11.737-62.118,11.9-31.113,13.141-64.181,7.976-96.589,3.557,7.831,8.9,17.55,17.168,22.775,2.2,24.776-.572,49.2-11.338,73.085-11.8,26.805-10.93,60.241-10.841,62.847H108.6c.214-31.02,4.014-64.6,35.7-91.951a26.339,26.339,0,0,0,12.392,9.4h0A27.4,27.4,0,0,0,181.67,239.259Zm-99.728-9.377c-7.984-13.745-26.471-24.565-29.991-25.273-4.282-1.489-6.629,4.838-2.393,6.5,3.356.752,20.025,10.8,27.015,23.208-4.97,2.2-12.9,3.233-21.071,1.325-20.775-4.43-26.258-24.3-36.415-42.682,11.436-2.275,43.279-6.447,59.469,13.261C84.057,212.9,86.06,222.553,81.942,229.882ZM174.9,149.6a5.618,5.618,0,0,1-6.1,8.751c-23.986-6.777-38.076-20.05-45.152-28.816a36.626,36.626,0,0,0,9.405-9.975,77.94,77.94,0,0,0,13.394,4.276,3.418,3.418,0,0,0,1.268,1.2C158,130.577,166.9,138.611,174.9,149.6Zm9.132-45.413a6.667,6.667,0,0,1-.937,12.78c-11.746,2.467-29.177,3.733-46.885-3.595a36.081,36.081,0,0,0,2.436-10.873,99.6,99.6,0,0,0,20.978-3.7A94.291,94.291,0,0,1,184.031,104.189Zm-8.807-38.434a8.323,8.323,0,0,1,8.568,5.924,8.432,8.432,0,0,1-3.432,9.977,86.075,86.075,0,0,1-41.917,13.921,36.046,36.046,0,0,0-4.378-13.269,105.093,105.093,0,0,0,11.1-10.209A98.041,98.041,0,0,1,175.224,65.755Zm-50.1-15.35a94.173,94.173,0,0,1,24.859-21.462,6.739,6.739,0,0,1,8.113.77,6.623,6.623,0,0,1,1.7,7.823A104.16,104.16,0,0,1,130.1,76.619a36.582,36.582,0,0,0-9.389-7.888A120.907,120.907,0,0,0,125.126,50.405ZM105.954,17.166a6.632,6.632,0,0,1,7.353-3.929,6.8,6.8,0,0,1,5.87,6.229,115.066,115.066,0,0,1-4.8,46.334,35.778,35.778,0,0,0-13.019-2.012q-1.211-5.087-2.785-9.7A85.988,85.988,0,0,1,105.954,17.166Zm-47.311,7.5a6.137,6.137,0,0,1,10.394-4.855A92.387,92.387,0,0,1,94.452,64.649,36.158,36.158,0,0,0,81.211,70.61c-1.51-1.345-3.125-2.733-4.822-4.141C69.02,57.588,59.975,43.139,58.643,24.661ZM24.983,67.323a9.856,9.856,0,0,1-1.136-12.386,10.14,10.14,0,0,1,11.88-4.3C51.4,55.608,65.844,66.287,75.961,75.216a36.439,36.439,0,0,0-6.882,10.421,111.987,111.987,0,0,0-13.732.722C42.818,81.972,32.6,75.569,24.983,67.323Zm-1.339,52.261a7.712,7.712,0,0,1-2.853-13.948C36.712,94.962,55.2,92.734,66.86,92.57a36.383,36.383,0,0,0,.16,15.74A89.565,89.565,0,0,0,53.3,117.552,61.391,61.391,0,0,1,23.644,119.584Zm20.8,44.028a7.754,7.754,0,0,1-9.884-10.528,82.964,82.964,0,0,1,34.715-38.105A36.565,36.565,0,0,0,85.2,132.086,93.183,93.183,0,0,1,44.444,163.612Zm46.374,22.257c-2.381,3.882-8.807,2.86-9.9-1.556-2.448-8.16-4.054-21.694,1.224-37.873a102.935,102.935,0,0,0,9.628-11.607,36.126,36.126,0,0,0,8.68,1.537,93.167,93.167,0,0,0,1.043,11.5C100.493,163.8,96.8,176.945,90.818,185.869ZM73,100.093c1.384-38.923,57.439-38.908,58.813,0C130.428,139.013,74.372,139,73,100.093Zm34.374,35.982a36.01,36.01,0,0,0,10.244-3,85.453,85.453,0,0,0,10.115,10.751,98.455,98.455,0,0,1,8.837,32.98,6.443,6.443,0,0,1-3.7,6.568,6.578,6.578,0,0,1-7.581-1.285C110.7,167.792,107.7,148.043,107.37,136.075Zm42.151,92.855a153.982,153.982,0,0,1,35.117-22.215c4.17-1.806,1.6-8.064-2.641-6.4a155.277,155.277,0,0,0-35.48,21.964c-9.782-34.195,50.654-34.477,60.746-29.724-1.562,6.872-7.661,25.582-29.584,41.046C168.633,240.2,155.573,238.234,149.521,228.93Z" style="fill:#2b2b2b"/></svg>