<svg id="icons" xmlns="http://www.w3.org/2000/svg" viewBox="0 0 340 340"><title>76_pecan</title><path d="M209.988,20.2a16.34,16.34,0,0,1-7.864,9.491c-3.493,4.7-7.283,7.837-11.415,9.173a96.431,96.431,0,0,0-18.492,23.693c-14.256,45.075.714,100.572,57.443,112.743,41.121-4.906,61.658-34.553,60.848-77.1C286.1,59.676,264.413,40.142,244.14,30.246a15.348,15.348,0,0,1-8.043-9.715,9.492,9.492,0,0,0-9.18-7.091h-7.843A9.486,9.486,0,0,0,209.988,20.2Z" style="fill:#d6bf6c"/><path d="M291.318,112.9a128.795,128.795,0,0,0-.827-14.7c-3.414,29.093-16.977,61.732-60.27,63.813-67.632,3.252-61.248-76.407-58-99.455-27.54,46.167-6.8,140.772,56.073,139.065C228.294,201.627,291.318,203.177,291.318,112.9Z" style="fill:#9d8044"/><path d="M222.367,299.543a30.556,30.556,0,0,0-2.63,7.064c12.16,23.44,76.713-2.863,98.69-44.451,0,0,8.228-9.054,2.117-20.46-21.792-33.7-101.642.049-122.46,28.784-3.917,4.695-5.581,10.253-4.866,15.286C196.194,293.8,207.132,297.768,222.367,299.543Z" style="fill:#c96c5d"/><path d="M239.667,249.6c-22.714,10.891-28.934,23.148-30.195,31.419-1.2,7.931-11.247,10.89-16.262,4.631,1.261,9.357,10.708,16.944,29.157,13.892l49.457-44.17a6.7,6.7,0,0,0-4.13-11.677A56.316,56.316,0,0,0,239.667,249.6Z" style="fill:#843734"/><path d="M283.464,245.429C263.025,241.3,223.918,261.95,218.5,279.5c-.6,17.457,20.391,3.759,38.6-9.835C283.3,259.483,298.047,248.951,283.464,245.429Z" style="fill:#c96c5d"/><path d="M240.348,313.489s-11.958.447-20.6-6.88c-6.186,26.914,43.114,23.278,64.177,8,35.664-25.873,34.5-52.45,34.5-52.45S281.9,310.941,240.348,313.489Z" style="fill:#843734"/><path d="M291.482,247.1a47.028,47.028,0,0,0-8.018-1.666c3.955,2.2,3.653,7.622-1.152,8.531-7.282,1.138-31.823,6.1-47.819,23.045-10.044,10.639-14.236,7.176-15.986,2.5a19.657,19.657,0,0,0,3.86,20.038,45.775,45.775,0,0,1,36.664-23.628s3.417-13.668,31.822-18.293C296.517,256.7,296.976,248.758,291.482,247.1Z" style="fill:#843734"/><path d="M149.571,214.323s-2.846,48.5-50.177,59.3c-4.849-47.3-3.909-102.091,0-160.725Z" style="fill:#7f4c45"/><path d="M75.086,264.363c5.092,4.143,12.093,6.6,16.178,12.1a4.561,4.561,0,0,0,8.13-2.84V168.579C67.256,175.678,43.382,234.744,75.086,264.363Z" style="fill:#bc8875"/><path d="M99.394,168.579V112.9S47.436,135.32,51,212.9c.967,21.084,7.9,39.027,24.1,51.456-13.127-15.3-5.586-34.161-5.586-34.161Z" style="fill:#7f4c45"/><path d="M19.475,209.436c-7.307-34.247.616-83.566,54.948-111.425A16.391,16.391,0,0,0,83.07,86.549a10.077,10.077,0,0,1,9.9-8.169h6.677a10.077,10.077,0,0,1,9.6,7.023,12.144,12.144,0,0,0,6.935,7.527,101.346,101.346,0,0,1,26.842,16.743c21.3,22.783,20.384,66.344,12.418,116.505L99.466,123.6,37.592,235.753A86.826,86.826,0,0,1,19.475,209.436Z" style="fill:#d6bf6c"/><path d="M143.014,109.682a69.414,69.414,0,0,1,4.456,47.373c-2.852,11.313-19.393,15.858-24.585,5.41l-21.5-38.906a8.113,8.113,0,0,0-14.513.627L50.727,205.447c-5.591,11.78-19.73,20.214-31.246,3.987C22.7,224.5,28.854,236.655,35.31,242.775a8.818,8.818,0,0,0,14.157-2.818L93.355,133.638l59.018,105.738a8.532,8.532,0,0,0,15.456-.093C190.7,194.657,177.386,138.081,143.014,109.682Z" style="fill:#9d8044"/><path d="M88.906,178.777v70.659a3.557,3.557,0,0,1-7.108.214l-2.957-49.134Z" style="fill:#7f4c45"/><path d="M117.508,89.732a8.981,8.981,0,0,1-5.063-5.653,13.484,13.484,0,0,0-12.8-9.161H92.965a13.56,13.56,0,0,0-13.3,10.976,12.852,12.852,0,0,1-6.827,9.036c-41.89,21.48-54.7,53.936-58.064,77.38-4.471,24.594,5.135,73.315,26.72,76.921,2.985,2.337,7.33-1.1,6.427-3.715l3.795-8.627A62.542,62.542,0,0,0,81.615,272.76a23.719,23.719,0,0,1,6.968,5.895,7.931,7.931,0,0,0,6.2,3.007,8.082,8.082,0,0,0,7.545-5.2c26.431-6.85,39.033-25.352,44.894-39.2l2.073,3.714a11.994,11.994,0,0,0,21.67-.23c8.6-18.507,12.566-36.809,11.861-54.577,23.369,22.508,58.133,27.614,87.145,1.041,16.459-16.06,24.8-41.061,24.8-74.307,0-51.067-26.712-74.826-49.121-85.764a11.894,11.894,0,0,1-6.261-7.659,12.987,12.987,0,0,0-12.481-9.5h-7.843a12.87,12.87,0,0,0-12.4,9.227A11.859,11.859,0,0,1,201.8,25.75c-13.039,8.6-48.149,36.427-44.752,93.073A105.54,105.54,0,0,0,117.508,89.732ZM95.931,273.625a1.088,1.088,0,0,1-1.969.67,30.594,30.594,0,0,0-8.979-7.586c-15.654-8.7-25.064-21.774-28.832-39.893L93.722,141.4l2.288,4.1C95.781,146.022,96.01,272.992,95.931,273.625Zm6.925-4.491V157.765l39.96,71.592C137.973,243.933,127.123,261.968,102.856,269.134Zm84.073-221.3c-3.88,11.341-6.319,27.98-3.718,51.968,1.051,9.7,1.779,19.528,2.165,29.223a3.462,3.462,0,0,0,6.919-.274c-.392-9.853-1.132-19.843-2.2-29.695-5.427-51.541,12.76-65.554,15.45-67.482A18.778,18.778,0,0,0,213.3,21.2a5.987,5.987,0,0,1,5.77-4.293h7.843a6.044,6.044,0,0,1,5.843,4.551,18.817,18.817,0,0,0,9.862,11.9c20.635,10.073,45.233,32.049,45.233,79.541-.182,32.537-7.695,55.648-24.486,71,15.164-29.112,13.41-102.18-2.532-118.765-2.923-3.442-8.152.781-5.368,4.372,15.669,16.885,17.676,106.617-8.9,124.759a52.685,52.685,0,0,1-18.209,3.905c-1.353-.025-2.765-.094-4.219-.213V54.475a3.462,3.462,0,0,0-6.924,0V197.008c-11.732-2.26-25.1-8.453-35.617-23.02a115.639,115.639,0,0,0-16.424-44.108C159.117,90.448,173.063,63.435,186.929,47.837Zm-22.24,189.987c-1.665,3.961-7.741,3.882-9.292-.135L96.378,131.95a3.463,3.463,0,0,0-6.193.294L41.8,242.237c-4.633-.973-6.711-4.755-9.6-8.99-14.08-42.754,15.515-83.876,15.871-84.363a3.462,3.462,0,1,0-5.577-4.1c-.993,1.349-18.6,25.713-20.859,57.343C17.6,164.785,27.02,127.6,76,101.091A19.725,19.725,0,0,0,86.469,87.205c1.573-6.717,8-5.225,13.173-5.362,4.737.073,5.882,3.537,7.435,7.234,3.329,7.125,6.734,18.19,13.408,22.971,8.061,6.583,27.367,25.743,32.516,61.418a3.462,3.462,0,1,0,6.853-.989c-5.5-38.084-26.3-58.7-34.991-65.793a21.516,21.516,0,0,1-6.431-8.969C159.7,114.635,194.641,178.308,164.689,237.824Z" style="fill:#2b2b2b"/><path d="M321.876,263.379a21.429,21.429,0,0,0,1.721-23.317c-12.46-19.036-42.36-19.681-70.88-9.143-25.954,9.458-74.309,36.091-60.655,62,4.324,7.553,13.23,11.326,24.9,10.7C211.223,323.77,227.684,329.858,244,330,289.629,331.1,322.239,285.321,321.876,263.379ZM248.5,256.537c14.616-7.477,27.542-10.227,41.977-6.125a1.94,1.94,0,0,1-.185,3.793c-23.434,3.815-31.233,13.821-33.64,18.463a48.793,48.793,0,0,0-34.425,20.493C216.4,278.321,229.229,267.189,248.5,256.537ZM281.89,311.8c-15.523,11.346-55.3,18.187-59.115.6a46.168,46.168,0,0,0,19.17,3.956c8.052,0,15.776-1.857,21.33-4.948a3.463,3.463,0,0,0-3.368-6.051c-8.774,4.884-24.776,6.039-36.144-.239,2-4.948,9.24-22.729,35.535-25.757a14.817,14.817,0,0,1,9.925,3.232c3.475,2.914,7.928-2.209,4.523-5.244a20.273,20.273,0,0,0-8.949-4.379c3.258-3.774,10.61-9.331,26.612-11.936a8.872,8.872,0,0,0,1.074-17.255c-10.035-3.031-26.373-4.343-47.2,6.627-23.369,12.722-37.339,27.132-29,46.3-8.776.4-15.278-2.121-18.208-7.238-10.3-19.174,35.812-44.809,57.088-52.077,38.331-15.085,75.755-.992,60.706,22.429-1,1.322-9.959,15.166-29.172,29.426a3.462,3.462,0,1,0,4.073,5.6A139.559,139.559,0,0,0,311.9,275.84C308.186,285.353,300,298.668,281.89,311.8Z" style="fill:#2b2b2b"/></svg>