<svg id="icons" xmlns="http://www.w3.org/2000/svg" viewBox="0 0 340 340"><title>78_corn</title><path d="M255.064,17.507c3.39,3.157-1.22,8.277-4.714,5.237C246.961,19.587,251.57,14.467,255.064,17.507Z" style="fill:#2b2b2b"/><path d="M48.331,34.224c22.7,31.651,58.284,91.451,66.262,164.043l33.839-68.125S107.734,53.4,59.367,22.535C51.783,17.7,43.088,26.913,48.331,34.224Z" style="fill:#84994a"/><path d="M150.43,303.574s6.655,7.356,8.667,19.986a8.517,8.517,0,0,0,8.383,7.236H174.9a8.458,8.458,0,0,0,8.429-7.587c.636-6.313,2.41-15.234,7.27-21.417Z" style="fill:#84994a"/><path d="M293.3,65.509a78.763,78.763,0,0,0,14.473-22.468,10.354,10.354,0,0,0-14.047-13.33c-23.329,11.18-63.423,38.5-86.489,100.137l10.016,55.369S269.737,86.31,293.3,65.509Z" style="fill:#84994a"/><path d="M128.214,137.24a19.986,19.986,0,0,1,3.975-23.275S125,99.249,134.875,87.071c0,0-5.141-14.614,6.5-22.192,0,0-5.413-14.343,6.224-22.868,0,0,.535-21.651,18.025-31.554a9.769,9.769,0,0,1,11.681,1.7C190.6,28.65,220.323,140.172,208.7,198.267c-7.7,38.451-60.263,29.872-60.263,29.872Z" style="fill:#ffd066"/><path d="M219.946,142.253a36.428,36.428,0,0,0-4.669-25.215A30.543,30.543,0,0,0,211.915,89.4c3.735-16.436-6.724-24.468-6.724-24.468-.748-17.744-13.075-24.654-13.075-24.654-2.169-15.7-9.233-23.4-14.816-28.113a46.743,46.743,0,0,1,4.956,32.919,33.193,33.193,0,0,1,1.2,18.253,12.222,12.222,0,0,0,1.05,7.85c2.049,4.217,4.139,11.989-.321,22.33,0,0,8.325,7.739,4.816,21.01a7.217,7.217,0,0,0,1.268,6.106c2.743,3.727,6.3,11.429,1.851,23.276,0,0,5.434,9.8,1.607,26.277,0,0,4.944,2.646,5.3,11.824.707,23.458-23.474,25.884-33.91,19.39a15.4,15.4,0,0,1-20.725-12.666c-1.622-14.656-5.741-36.868-16.176-51.489-7.077,11.075-2.154,27.073-2.154,27.073-7.965,76.13,38.787,118.4,38.787,118.4l24.972-2.928,29.94-102.414C229.658,160.744,219.946,142.253,219.946,142.253Z" style="fill:#ed9d3e"/><path d="M71.281,135.872s-4.757,13.009-2.074,47.887c1.536,19.967.434,36.177-2.848,48.905a4.471,4.471,0,0,0,8.145,3.458c6.3-10.178,12.134-25.122,13.731-46.512,1.007-10.909,3.9-25.805,12.9-32.386C101.139,157.224,90.673,137.741,71.281,135.872Z" style="fill:#84994a"/><path d="M169.682,271.919c-13.484-8.935-29.415-27.942-33.1-68.252-4.789-52.385-21.859-65.991-31.052-69.5a14.385,14.385,0,0,0-8.688-.457c-5.128,1.306-14,2.435-25.56,2.164,0,0,33.495,10.445,38.147,55.8,2.591,28.011-14.679,111.252,52.394,117.273C176.221,301.617,176.534,288.293,169.682,271.919Z" style="fill:#aecc76"/><path d="M169.92,300.509l19.9-20.728s-9.273-.668-20.135-7.865a87.3,87.3,0,0,1-3.275,26.6A2.081,2.081,0,0,0,169.92,300.509Z" style="fill:#84994a"/><path d="M161.822,308.945C176,290.73,186.07,264.969,193.069,233.561a264.183,264.183,0,0,1,13.491-43.193C242.606,102.875,293.3,65.509,293.3,65.509,230.453,146.252,219.531,248,217.86,270.079,215.268,294.944,197.423,312.764,161.822,308.945Z" style="fill:#aecc76"/><path d="M166.16,152.737a35.838,35.838,0,0,0,5.53.622,1.833,1.833,0,0,1,1.513,2.753c-.919,1.875-6.82,8.652-8.463,4.588C164.54,159.6,162.358,152.251,166.16,152.737Z" style="fill:#fff7e1"/><path d="M165.468,124.115a35.969,35.969,0,0,0,5.558.281,1.834,1.834,0,0,1,1.68,2.655c-.8,1.928-6.277,9.055-8.166,5.1C164.273,131.068,161.644,123.863,165.468,124.115Z" style="fill:#fff7e1"/><path d="M165.975,100.488a35.844,35.844,0,0,0,5.558.281,1.833,1.833,0,0,1,1.679,2.655c-.8,1.928-6.276,9.055-8.165,5.1C164.78,107.441,162.151,100.236,165.975,100.488Z" style="fill:#fff7e1"/><path d="M139.331,97.015a35.8,35.8,0,0,0,5.191,2.008,1.833,1.833,0,0,1,.763,3.047c-1.366,1.58-8.8,6.633-9.353,2.285C136.018,103.243,135.779,95.577,139.331,97.015Z" style="fill:#fff7e1"/><path d="M143.319,73.721a35.9,35.9,0,0,0,5.356,1.512,1.833,1.833,0,0,1,1.046,2.962c-1.212,1.7-8.135,7.43-9.1,3.154C140.6,80.233,139.647,72.624,143.319,73.721Z" style="fill:#fff7e1"/><path d="M149.8,49.677a30.756,30.756,0,0,0,4.466,1.728,1.577,1.577,0,0,1,.657,2.622c-1.2,1.365-7.526,5.711-8.048,1.966C146.969,55,146.7,48.488,149.8,49.677Z" style="fill:#fff7e1"/><path d="M169.069,52.974a30.777,30.777,0,0,0,4.759.535,1.577,1.577,0,0,1,1.3,2.369c-.819,1.627-5.826,7.437-7.283,3.949C167.686,58.846,165.769,52.613,169.069,52.974Z" style="fill:#fff7e1"/><path d="M136.337,121.334a35.84,35.84,0,0,0,5.353,1.526,1.832,1.832,0,0,1,1.038,2.964c-1.216,1.7-8.154,7.409-9.1,3.13C133.607,127.839,132.668,120.227,136.337,121.334Z" style="fill:#fff7e1"/><path d="M168.37,72.8a35.844,35.844,0,0,0,5.558.281,1.833,1.833,0,0,1,1.679,2.655c-.8,1.928-6.276,9.055-8.165,5.1C167.175,79.752,164.546,72.547,168.37,72.8Z" style="fill:#fff7e1"/><path d="M170.077,21.28c.817,8.49,1.06,16.3-10.521,15.227a2.168,2.168,0,0,1-1.976-2.788c1.055-3.421,3.585-9.569,8.977-13.874A2.17,2.17,0,0,1,170.077,21.28Z" style="fill:#fff7e1"/><path d="M310.972,44.367A13.816,13.816,0,0,0,292.23,26.589c-19.259,9.23-45.178,26.8-66.76,59.488a253.924,253.924,0,0,1,22.01-49.03c2.321-3.907-3.433-7.47-5.893-3.636a253.629,253.629,0,0,0-24.8,57.373c-.437-.845-.846-1.553-1.186-2.1,2.626-14.076-4.108-22.476-7.034-25.369-1.142-14.851-9.713-22.517-13.251-25.075-2.638-16.221-10.325-24.312-16.8-29.569a12.925,12.925,0,0,0-14.6-1.226c-16.239,9.2-19.152,27.2-19.67,32.8-8.211,6.961-8.358,17.1-6.883,23.3A20.138,20.138,0,0,0,130.4,77.4c-6.945-36.134-22.914-66.945-23.719-68.482-2.176-3.989-8.178-.86-6.134,3.212.2.392,18.381,35.482,24.278,73.73C108.473,62.647,85.88,35.348,61.23,19.616A11.364,11.364,0,0,0,46.537,21.43a11.4,11.4,0,0,0-1.019,14.812C60.311,56.869,80.79,89.808,95.243,130.53a61.786,61.786,0,0,1-6.394,1.1C70.9,90.322,34.9,65.78,33.342,64.738a3.462,3.462,0,0,0-3.862,5.746c.357.241,34.6,23.613,52.076,61.78-3.261.173-6.707.227-10.194.147a3.551,3.551,0,0,0-3.333,2.272c-.2.56-4.984,14.12-2.275,49.343,1.46,18.968.535,35.042-2.748,47.773-2.346,8.649,9.721,13.921,14.442,6.146,8.035-12.974,12.826-29.151,14.239-48.077.684-8.644,2.68-17.454,6.7-24.463,8.751,16.187,8.6,34.766,7.186,54.3-2.814-7.073-5.012-10.148-5.2-10.4-2.734-3.589-8.177.357-5.591,4.086.077.108,7.2,10.314,12.195,38.041,3,26.237,16.156,54.483,44.345,59.709a41.306,41.306,0,0,1,4.357,12.963,11.939,11.939,0,0,0,11.8,10.153H174.9a11.879,11.879,0,0,0,11.873-10.7,50.53,50.53,0,0,1,2.986-13.181c51.441-16.107,32.9-76.077,67.583-106.335a3.462,3.462,0,0,0-4.463-5.295c-.79.665-19.447,16.691-27.229,52.005-1.221,5.543-2.534,10.467-3.934,14.866,2.641-27.9,15.662-122.533,74.212-197.848A82.062,82.062,0,0,0,310.972,44.367ZM208.837,87.125a21.819,21.819,0,0,1-9.947,1.524c-4.55-.215-4.98,6.54-.446,6.911A28.6,28.6,0,0,0,210.6,93.9a27,27,0,0,1,1.912,20.532c-7.416,2.787-15.67,1.9-20.2,1.051,3.051-11.348-1.491-19.254-4.13-22.649,3.292-8.943,2.206-16.081.429-20.848a33.12,33.12,0,0,0,15.975-2.8C206.812,71.769,210.494,77.671,208.837,87.125ZM201.571,62.95c-5.248,2.468-11.226,2.343-14.916,1.914a37.922,37.922,0,0,0-.144-17.784,22.458,22.458,0,0,0,5.677-2.523C195.068,46.9,200.5,52.609,201.571,62.95ZM133.03,118.286a27.909,27.909,0,0,0,11.572,1.886c4.555-.271,4.25-7.015-.283-6.919a19.43,19.43,0,0,1-9.405-1.711c-1.875-3.7-2.934-13.853.624-19.276a15.123,15.123,0,0,0,8.071,2.227c4.551-.078,4.551-6.847,0-6.924a7.426,7.426,0,0,1-5.625-2.159c-.63-2.195-2.543-10.667,3.42-16.18a26.906,26.906,0,0,0,12.263,3.6c.629,2.3,1.439,6.589,4.684,6.511a3.482,3.482,0,0,0,3.133-4.931c-2.924-6.246-.386-10.528-.231-10.778,2.4-3.826-3.214-7.533-5.785-3.806a15.886,15.886,0,0,0-2.1,6.038c-5.127-.522-7.93-2.186-9-2.982-.731-2.524-2.418-10.539,3.343-16.406,1.685.983,12.432,4.658,12.67-1.535a3.463,3.463,0,0,0-3.462-3.463,13.144,13.144,0,0,1-5.727-.98c.538-4.878,3.217-19.718,16.137-27.033a6.041,6.041,0,0,1,6.824.574c5.764,4.682,11.892,11.3,14.218,24.728-4.76,3.009-12.689,3.025-15.619,2.73-4.528-.386-5.23,6.339-.712,6.887a46.794,46.794,0,0,0,7.64-.035,31.048,31.048,0,0,1-.689,18.111,3.576,3.576,0,0,0-.006,2.272c.643,2,8.146,8.017,2.02,23.4a3.5,3.5,0,0,0,.8,3.888c1.084.887,7.772,8.683,2.6,21.692a3.518,3.518,0,0,0,1.315,3c.088.068,8.753,7.064,3.16,21.97a3.483,3.483,0,0,0,2.171,4.509c2.216,1.023,11.983,2.321,15.815-.406,3.949-2.286.683-8.183-3.341-6.065-1.83,1.009-4.642.949-6.947.621,2.129-7.959.952-14.073-.962-18.378a43.307,43.307,0,0,0,18.085-1.63,33.611,33.611,0,0,1,2.842,20.3,3.486,3.486,0,0,0,.339,2.214,39.826,39.826,0,0,1,3.156,9.677,395.225,395.225,0,0,0-17.344,37.2c2.254-10.745-1.841-21.947-2.073-22.019a3.484,3.484,0,0,0-5.159-1.462c-8.779,6.134-20.865,2.1-21.029,2.048-4.308-1.42-6.551,4.965-2.277,6.539.559.2,12.4,4.224,23.269-.647a33.374,33.374,0,0,1,.547,13.6,27.763,27.763,0,0,0,.057,9.744c1.09,6.189.615,8.764.36,9.584-6.516,20.438-10.716,46.046-18.562,64.435-13.188-6.289-33.6-23.36-37.793-69.2a199.746,199.746,0,0,0-4.309-27.6c5.254,1.635,13.551,1.882,20.208.832-1.54,6.115-2.256,15.905,4.732,24.924-3.345,4.956-8.805,16.719.623,31.874a28.857,28.857,0,0,0,.6,18.521c1.712,4.239,8.017,1.8,6.47-2.465a21.939,21.939,0,0,1-.873-12.367,31.447,31.447,0,0,0,13.515-.805,3.463,3.463,0,1,0-1.83-6.679,23.863,23.863,0,0,1-11.829.391c-7.749-12.252-3.379-21.184-.99-24.607,5.6,1.307,12.453,1.066,19.472-.608a3.462,3.462,0,1,0-1.6-6.737c-9.394,2.227-15.283.935-17.117.391-9.617-10.949-3.13-24.166-2.849-24.723a3.45,3.45,0,0,0,.182-2.693c-6.491-10.723-5.235-20.444-3.43-24.352,2.89,1.269,20.144,3.754,18.653-3.54a3.462,3.462,0,0,0-4.164-2.577,22.132,22.132,0,0,1-13.707-.963,21.341,21.341,0,0,1-.764-20.2,31.824,31.824,0,0,0,12.913.247c4.458-.918,3.2-7.574-1.281-6.8a23.8,23.8,0,0,1-11.052-.452c-4.945-8.229.754-19.6.828-19.742,2.015-4.074-3.992-7.18-6.151-3.179-.319.615-7.335,14.441-.969,25.881-2.1,4.036-5.789,13.54-1.279,24.224-14.093,1.563-21.291-3.134-23.031-4.484A16.382,16.382,0,0,1,133.03,118.286Zm20.729,28.24c-1.506,5.19-2.272,13.284,2.184,23.052-13.476,2.12-20.367-.939-22.461-2.152a95.5,95.5,0,0,0-5.7-14.622c.129-3.789.513-7.558,1.743-10.488C133.757,144.682,141.692,147.645,153.759,146.526ZM51.145,32.206A4.714,4.714,0,0,1,57.5,25.453c27.5,17.533,52.441,50.294,68.731,74.693a33.52,33.52,0,0,0,1.935,13.12,23.271,23.271,0,0,0-5.5,15.943,118.439,118.439,0,0,0-13.152-27.418,3.462,3.462,0,0,0-5.7,3.931,116.762,116.762,0,0,1,14.468,33.15c-5.915-5.716-9.634-7.98-15.931-8.984C87.606,87.632,66.4,53.481,51.145,32.206ZM88.234,171.418a75.646,75.646,0,0,0-3.452,17.934c-1.329,17.806-5.777,32.928-13.221,44.948a.932.932,0,0,1-1.281.422.9.9,0,0,1-.569-1.193c3.474-13.472,4.465-30.306,2.948-50.035-1.819-23.637-.141-37.02,1.009-42.868a54.878,54.878,0,0,1,20.794,18.232A42.084,42.084,0,0,0,88.234,171.418Zm41.84,120.128c-18.915-19.791-18.738-63.2-16.939-84.892,2.71-30.86-13.128-58.253-28.514-67.638A78.18,78.18,0,0,0,97.7,137.063a10.856,10.856,0,0,1,6.6.336c43.683,21.562,10.311,113.154,70.873,141.56a132.473,132.473,0,0,1-15,26.42C147.741,304.516,137.62,299.873,130.074,291.546Zm49.812,31.316a4.978,4.978,0,0,1-4.984,4.472H167.48a5.046,5.046,0,0,1-4.964-4.318,48.742,48.742,0,0,0-3.025-10.743c7.5.707,15.3,1.135,22.365-.078A62.264,62.264,0,0,0,179.886,322.862Zm34.522-53.045c-2.019,23.7-20.574,37.468-46.123,36.169,12.094-17.486,21.333-41.015,28.163-71.672a261.618,261.618,0,0,1,13.313-42.627c19.467-47.249,43.423-79.861,61.036-99.638C224.405,168.012,215.755,252.014,214.408,269.817ZM224.79,144.843c-.478-1.32-.925-2.382-1.251-3.1a40.329,40.329,0,0,0-4.462-25.1,33.215,33.215,0,0,0,1.558-8.612c22.275-43.232,52.887-64.82,74.588-75.2a6.89,6.89,0,0,1,9.352,8.88,76.205,76.205,0,0,1-13.587,21.2C287.476,65.561,255.461,90.578,224.79,144.843Z" style="fill:#2b2b2b"/></svg>