<svg id="icons" xmlns="http://www.w3.org/2000/svg" viewBox="0 0 340 340"><title>79_wheat</title><path d="M221.717,14.822c-3.033,3.494,2.078,8.1,5.243,4.708C229.986,16.04,224.877,11.416,221.717,14.822Z" style="fill:#2b2b2b"/><path d="M54.511,122.913c-3.048,3.5,2.082,8.106,5.233,4.718C62.792,124.136,57.662,119.525,54.511,122.913Z" style="fill:#2b2b2b"/><path d="M93.5,83.95s10.245-40.111-31.425-51.257C62.079,32.693,50.458,75.144,93.5,83.95Z" style="fill:#ed9d3e"/><path d="M95.279,83.952s-9.208-14.489-34.97-15.423c0,0-.648,20.53,17.239,31.148l2.344,6.551,35.006,10.6Z" style="fill:#ffd066"/><path d="M95.164,134.019s-21.183-9.33-17.616-34.342a28.062,28.062,0,0,0,13.068,5.23c7.629.873,19.274,4.467,25.392,11.934s15.4,31.9,15.4,31.9l-5.881,5.112C112.813,152.209,103.143,144.733,95.164,134.019Z" style="fill:#ffd066"/><path d="M104.079,164.7s-12.68-11.3-8.915-30.679c0,0,4.862,4.57,14.2,5.276a30.728,30.728,0,0,1,25,17.873l9.216,29.2C127.357,183.287,113.346,177.213,104.079,164.7Z" style="fill:#ffd066"/><path d="M138.363,213.97s-29.512-11.013-34.284-49.272c0,0,5.94,4.835,16.89,7.314,25.533,6.49,26.925,27.971,33.394,51Z" style="fill:#ffd066"/><path d="M160.363,252.682s-2.879-7.567-17.872-12.189-27.837-18.212-26.512-33.8a68.755,68.755,0,0,0,17.566,4.476c9.292,1.22,18.8,8.238,22.177,15.871Z" style="fill:#ffd066"/><path d="M113.235,121.881A253.491,253.491,0,0,0,93.348,89.563C84.3,76.912,87.571,61.162,97.4,49,97.4,49,125.424,65.42,113.235,121.881Z" style="fill:#ed9d3e"/><path d="M130.348,155.512s-8.01-18.037-17.113-33.631c-9.012-14.97-3.148-34.012,11.247-43.384C124.482,78.5,150.377,107.789,130.348,155.512Z" style="fill:#ed9d3e"/><path d="M142.343,189.732s-5.791-18.1-11.995-34.22c-5.935-15.311.033-33.126,14.408-41.1C144.756,114.414,166.9,145.776,142.343,189.732Z" style="fill:#ed9d3e"/><path d="M153.223,227l-10.88-37.269s-3.64-20.924,17.988-36.492C160.331,153.24,180.911,189.534,153.223,227Z" style="fill:#ed9d3e"/><path d="M178.717,192.2c-6.409,1.144-30.035,11.706-25.494,34.805l7.14,25.68s3.377-9.772,11.3-16.278C179.529,229.943,187.9,207.547,178.717,192.2Z" style="fill:#ed9d3e"/><path d="M259.332,82.177s-9.274-38.6,30.836-48.717C290.168,33.46,300.728,74.324,259.332,82.177Z" style="fill:#ed9d3e"/><path d="M257.63,82.155s9.028-13.766,33.743-14.308c0,0,.34,19.694-16.957,29.629l-2.338,6.25-33.711,9.681Z" style="fill:#ed9d3e"/><path d="M257.054,130.164s17.835-10.291,17.362-32.688a26.916,26.916,0,0,1-12.6,4.836c-7.327.733-18.542,4.019-24.511,11.1s-15.2,30.377-15.2,30.377l5.568,4.982C239.881,147.364,249.255,140.328,257.054,130.164Z" style="fill:#ed9d3e"/><path d="M248.084,159.459s12.314-10.662,8.97-29.3c0,0-4.725,4.315-13.689,4.864a29.465,29.465,0,0,0-24.213,16.794l-9.237,27.87C225.508,176.964,239.027,171.333,248.084,159.459Z" style="fill:#ed9d3e"/><path d="M214.534,206.235s28.45-10.156,33.55-46.776c0,0-5.762,4.555-16.3,6.782-24.572,5.872-26.2,26.451-32.721,48.447Z" style="fill:#ed9d3e"/><path d="M192.909,243.052s2.864-7.216,17.3-11.442,26.942-17.081,25.886-32.049a65.923,65.923,0,0,1-16.9,4.05c-8.927,1.044-18.137,7.642-21.483,14.915Z" style="fill:#ed9d3e"/><path d="M239.892,118.278A243.239,243.239,0,0,1,259.4,87.562c8.85-12.007,5.93-27.154-3.323-38.955C256.081,48.607,228.979,63.972,239.892,118.278Z" style="fill:#ffd066"/><path d="M223.022,150.291s7.927-17.185,16.87-32.013c8.847-14.231,3.486-32.57-10.189-41.754C229.7,76.524,204.471,104.256,223.022,150.291Z" style="fill:#ffd066"/><path d="M211.05,182.939s5.8-17.277,11.972-32.648c5.9-14.6.422-31.764-13.252-39.6C209.77,110.686,188.1,140.453,211.05,182.939Z" style="fill:#ffd066"/><path d="M200.107,218.526l10.943-35.587s3.778-20.014-16.747-35.238C194.3,147.7,174.071,182.22,200.107,218.526Z" style="fill:#ffd066"/><path d="M180.643,186.324s14.88,7.816,19.352,20.935a18.673,18.673,0,0,1,.112,11.267l-7.2,24.526s-3.1-9.416-10.611-15.763C174.843,220.985,171.625,200.917,180.643,186.324Z" style="fill:#ffd066"/><path d="M160.78,69.434c3.389,3.157-1.22,8.277-4.714,5.237C152.676,71.514,157.286,66.394,160.78,69.434Z" style="fill:#2b2b2b"/><path d="M303.849,110.583c2.6-3.727-2.876-7.689-5.61-4.058-.13.178-11.4,15.348-30.8,19.267a40.369,40.369,0,0,0,10.431-26.37c17.113-11.077,16.978-30.775,16.963-31.635a3.571,3.571,0,0,0-4.241-3.373c7.2-14.726,3.125-31.056,2.927-31.82a3.461,3.461,0,0,0-4.2-2.491c-9.276,2.34-16.73,6.279-22.328,11.744,4.665-18.411,14.327-27.368,14.515-27.538a3.462,3.462,0,0,0-4.6-5.173c-.626.554-13.76,12.5-18,37.466a3.472,3.472,0,0,0-4.533-1.008c-.615.349-14.009,8.213-18.825,31.183-2.261-1.916-5.569-5.564-8.406-2.583-.427.469-8.366,9.367-12.266,25.272-6.882-33.294,6.778-64.914,6.978-65.369a3.462,3.462,0,1,0-6.33-2.808c-.739,1.666-16.62,38.223-5.894,75.941-3.184-.57-11.529,13.948-12.542,34.4-11.113-22.956-2.91-53.852-2.813-54.206a3.462,3.462,0,0,0-6.678-1.83c-.436,1.586-9.3,34.859,3.825,60.218-.639.982-9.48,16.384-7.861,38.252-4.888-3.742-6.856,1.982-8.52,5.619-1.174.4-2.612.938-4.208,1.655a73.748,73.748,0,0,0-7.112-39.1c16.027-25.769,4.3-64.894,3.725-66.749a3.462,3.462,0,0,0-6.618,2.036c.13.424,11.556,38.612-3.446,61.741.287-22.267-9.332-36.187-9.8-36.847-1.683-2.445-4.627-1.309-6.535.2-2.391-23.181-13.212-35.616-14.2-36.631,9.249-22.69-4.074-48.715-4.758-50.022a3.462,3.462,0,0,0-6.137,3.208c.16.308,14.386,28.185,2.144,48.8-4.8-23.4-18.324-31.593-18.95-31.96-3.04-1.75-5.357,1.606-7.107,3.7-5.808-9.9-15.548-16.743-29.065-20.359a3.46,3.46,0,0,0-4.234,2.43c-.223.815-4.746,17.919,2.693,33.389-.105-.011-.207-.023-.313-.033C48.616,60.513,42,49.607,41.937,49.5c-2.378-3.871-8.2-.436-5.962,3.521a47.8,47.8,0,0,0,20.946,17.9c.4,5.942,2.85,21.019,16.942,30.519-1.872,20.485,11.808,30.994,17.5,34.44a37.308,37.308,0,0,0,3.684,22.2c-9.418-3.59-22.828-10.1-27.555-19.319a3.462,3.462,0,1,0-6.162,3.159c7.692,15.007,32.062,23.251,39.644,25.5a67.661,67.661,0,0,0,12.88,30.817,93.043,93.043,0,0,0-26.194-3.8c-31.907-.519-37.7-22.283-37.926-23.192A3.462,3.462,0,1,0,43,172.846c.066.279,7.09,27.9,44.549,28.51,11.045.18,19.31,1.848,25.33,3.855-3.09,18.406,12.94,33.813,28.594,38.591,7.8,2.4,13.838,8.175,15.545,9.931a270.723,270.723,0,0,1,2.367,37.023A53.859,53.859,0,0,0,139.7,266.717c-3.949-2.218-7.378,3.584-3.506,5.971,2.653.336,29.127,22.991,17.9,54.356a3.462,3.462,0,1,0,6.473,2.459c9.9-26.056,4.309-69.621,3.349-76.439.905-2.14,4.006-9.093,9.942-13.984a28.782,28.782,0,0,0,6.677-8.726,36.322,36.322,0,0,1,8.785,12.922c-.936,4.376-4.98,24.486-7.646,49.6-1.118,10.487-2.019,21.946-2.4,33.73-.07,4.531,6.69,4.787,6.921.222q.117-3.626.3-7.2c5.616-30.775,40.073-48.588,40.441-48.775a3.462,3.462,0,0,0-3.124-6.18c-1.184.6-22.742,11.717-35.6,32.231q.156-1.566.32-3.107c12.556-39.548,56.452-56.149,56.9-56.313a3.462,3.462,0,0,0-2.389-6.5c-1.609.59-33.233,12.5-51.732,40.984,2.894-19.408,4.728-26.374,5.272-29.955,1.652-1.595,6.336-4.665,14.6-7.084,14.285-4.182,28.14-16.711,28.425-33.017,29.352-11.747,36-35.3,36.279-36.32a3.462,3.462,0,1,0-6.687-1.8c.161.053-7.049,23.171-34.684,32.586,7.132-7.464,14.252-18.764,16.809-35.246a35.623,35.623,0,0,0,9.649-27.561C287.877,132.273,303.181,111.508,303.849,110.583ZM159.042,158.65a68.3,68.3,0,0,1,4.24,36.971,33.936,33.936,0,0,0-9.821,10.475c-2.347-7.8-4.967-15.564-7.765-23.182C146.192,176.3,150.632,165.424,159.042,158.65Zm-15.455-39.387a64.974,64.974,0,0,1,6.193,38.763,43.543,43.543,0,0,0-8.391,13.593c-2.984-7.542-6.078-14.83-9.186-21.77C129.764,138.133,134.177,126.049,143.587,119.263Zm-19.8-35.916a65.822,65.822,0,0,1,10.664,34.8,36.692,36.692,0,0,0-8.977,17.21c-4.521-9.4-8.911-17.905-12.852-25.218C111.134,99.78,115.864,89.826,123.785,83.347ZM95.1,57.86a22.055,22.055,0,0,1,2.679-4.254C101.751,57.06,110.1,66.434,112.3,85.562a33.638,33.638,0,0,0-6.023,13.107C97.332,82.138,88,74.44,95.1,57.86ZM64.736,37.1C76.1,40.912,83.891,47.571,87.948,56.923a31.513,31.513,0,0,0-1.994,15.649,53.092,53.092,0,0,0-15.677-6.006C62.993,56.272,63.8,43.243,64.736,37.1Zm-.721,35.344c26.821,5.039,25.711,12.862,37.172,31.273a52.552,52.552,0,0,0-10.177-2.254,24.871,24.871,0,0,1-11.3-4.492C68.09,90.3,64.657,78.427,64.015,72.448Zm16.594,33.075a30.605,30.605,0,0,0,9.613,2.824,44.945,44.945,0,0,1,16.416,5.266c3.786,7.029,7.989,15.166,12.32,24.141a30.641,30.641,0,0,0-7.808-2.795,84.443,84.443,0,0,1-14.625-4.124C95.468,130.351,80.785,123.308,80.609,105.523Zm17.407,33.195a89.977,89.977,0,0,0,11.906,3.055c3.088.557,8.945,3.2,14.528,7.688,3.611,7.929,7.224,16.349,10.682,25.114a37.2,37.2,0,0,0-13.4-5.941c-9.426-2.133-14.86-6.156-15.411-6.578A29.72,29.72,0,0,1,98.016,138.718Zm10.785,32.77a55.107,55.107,0,0,0,11.4,3.9c17.881,4.019,23.063,18.723,28.236,38.186a33.37,33.37,0,0,0-14.554-5.857A58.509,58.509,0,0,1,108.8,171.488Zm34.71,65.7c-11.2-3.454-22.509-13.262-24-25.539,13.524,4.174,22.566,1.487,32.409,15.172q1.966,8.191,3.44,16.417A41.623,41.623,0,0,0,143.511,237.185Zm25.952-3.457a38.771,38.771,0,0,0-7.314,8.129c-1.473-8.228-3.345-16.469-5.523-24.632,1.628-9.83,9.772-16.21,15.853-19.026-1.835,9.653-.382,19.5,3.244,26.19C173.942,228.481,171.619,231.959,169.463,233.728ZM287.442,37.84c.786,5.828,1.308,17.779-5.285,27.319a47.73,47.73,0,0,0-14.009,4.193,44.956,44.956,0,0,0-3.173-12.54C268.908,47.762,276.448,41.388,287.442,37.84ZM267.463,77.79c4.8-3.453,11.825-5.639,20.168-6.293-.788,5.646-3.759,16.555-14.939,22.976a23.793,23.793,0,0,1-11.223,4.394,49.516,49.516,0,0,0-7.351,1.337q4.1-6.541,8.565-13.171A27.547,27.547,0,0,0,267.463,77.79ZM255.384,53.428c5.33,8.382,9.246,20.84,1.7,29.531-3.41,5.021-6.649,10.047-9.735,15.007a32.473,32.473,0,0,0-5.909-14.531C243.756,65.687,251.418,56.879,255.384,53.428ZM230.331,81.394c8.664,7.26,12.44,18.248,9.378,29.33q-6.186,10.715-11.428,21.023a35.11,35.11,0,0,0-8.539-17.419A62.991,62.991,0,0,1,230.331,81.394Zm-19.459,34.167c10.319,7.734,13.783,21.8,8.746,34.1q-3.851,8.42-7.1,16.349a41.741,41.741,0,0,0-8.064-13.677C202.3,134.545,207.873,121.01,210.872,115.561Zm-15.353,37.581c9.638,8.572,11.335,17.05,12.52,24.2q-4.294,11.284-7.854,22.51a51.832,51.832,0,0,0-8.877-9.925A65.149,65.149,0,0,1,195.519,153.142ZM191.4,232.486a37.253,37.253,0,0,0-6.863-7.84c-5.785-4.5-8.5-21.646-2.651-33.349,4.411,3.146,12.451,9.776,15.428,18C194.507,218.93,192.617,226.812,191.4,232.486Zm17.843-4.2a61.812,61.812,0,0,0-10.768,4.226c.821-3.722,1.915-8.308,3.344-13.646,6.045-11.5,19.313-11.715,30.719-14.871C231.068,215.806,220.06,225.12,209.239,228.287Zm10.219-28.463a3.4,3.4,0,0,0-.314.242,45.77,45.77,0,0,0-13.283,4.793c4.377-15.383,10.122-31.711,26.644-35.23a53.182,53.182,0,0,0,10.766-3.48C238.463,185.349,226.6,195.366,219.458,199.824Zm26.415-43.033a40.18,40.18,0,0,1-14.8,6.062,32.726,32.726,0,0,0-11.913,5.194c3.2-7.746,6.817-15.893,10.906-24.345,10.477-7.525,16.1-3.721,24.1-7.772A28.216,28.216,0,0,1,245.873,156.791Zm9.442-29.62c-1.232.746-3.817,3.709-12.161,4.4a31.38,31.38,0,0,0-7.835,1.618q5.963-11.555,13.109-23.666c10.115-4.684,14.636-2.7,22.162-5.973A34.354,34.354,0,0,1,255.315,127.171Z" style="fill:#2b2b2b"/></svg>