<svg id="icons" xmlns="http://www.w3.org/2000/svg" viewBox="0 0 340 340"><title>7_spinach</title><path d="M112.739,328.369a7.852,7.852,0,0,0,7.851-8.362c-3.249-33.7,13.7-84.6,61.8-85.412,22.739-.338,61.573-6.244,76.519-40.682a61.081,61.081,0,0,1,21.266-25.866c14.3-9.921,32.944-28.453,34.183-58.126a66.535,66.535,0,0,1,1.341-10.7c3.281-15.861,7.819-60.148-50.447-38.568L105.92,254.236s-6.333,38.456-.91,67.754A7.843,7.843,0,0,0,112.739,328.369Z" style="fill:#3e6a51"/><path d="M231.148,137.225a3.486,3.486,0,0,1-2.5-5.858c22.763-23.748,41.385-38.961,58.605-47.876,4.053-2.016,7.206,3.974,3.183,6.149-16.523,8.555-34.569,23.337-56.789,46.519A3.455,3.455,0,0,1,231.148,137.225Z" style="fill:#224730"/><path d="M199.658,202.864a61.8,61.8,0,0,1-11.828-1.171,3.462,3.462,0,0,1,1.323-6.8c25.116,4.891,39.388-9.237,39.529-9.38a3.462,3.462,0,0,1,4.932,4.861C233.031,190.968,221.017,202.864,199.658,202.864Z" style="fill:#224730"/><path d="M133.418,89.07c-16.6-112.591-115.279-93.924-110.2,0,5.3,28.75,26.949,34.507,22.735,69.382-2.089,15.473-.543,36.388,15.9,54.521a59.432,59.432,0,0,1,14.556,28.244,86.377,86.377,0,0,1-8.98,59.194,12.443,12.443,0,0,0,9.014,18.268c1.616.236,4.323.4,6.294.455L116.217,206.79Z" style="fill:#3e6a51"/><path d="M89.645,83.821a18.165,18.165,0,0,1,1.18-15.442c3.867-7.5,6.578-22.567-1.537-19.261a3.4,3.4,0,0,0-1.809,3.488c.3,2.236.131,6.378-2.833,12.644a22.724,22.724,0,0,0-2.1,5.078A119.72,119.72,0,0,0,71.117,53.816c-3.034-3.387-8.156,1.041-5.233,4.533.254.294,19.037,22.371,27.461,57.107-13.229-8.743-26.256-1.748-33.017-18.206a3.462,3.462,0,0,0-6.623,2.018A26.272,26.272,0,0,0,75.15,116.577c12.676,1.859,19.981,5.435,21.535,18.474a137.258,137.258,0,0,1,.514,20.113,3.463,3.463,0,1,0,6.917.334A152.04,152.04,0,0,0,89.645,83.821Z" style="fill:#224730"/><path d="M88.151,326.407a8.048,8.048,0,0,0,9.748-6.465c2.423-13.954,8.789-42.9,23.04-68.875a71.584,71.584,0,0,1,37.711-32.39c22.187-8.34,56.535-26.584,65.795-61.575a57.8,57.8,0,0,1,14.292-25.34c16.206-16.8,42.1-50.151,34.066-85.273a35.357,35.357,0,0,0-40.089-26.862c-40.466,6.477-117,28.1-117.01,99.013a14.289,14.289,0,0,1-5.539,11.174c-11.43,9-34.142,34.538-14.7,85.966a47.641,47.641,0,0,1,2.138,25.772c-3.167,16.611-8.847,45.505-15.5,75.247A8.055,8.055,0,0,0,88.151,326.407Z" style="fill:#80b297"/><path d="M238.242,84.573a3.48,3.48,0,0,0-4.507,1.877c-.2.477-5.185,11.729-27.4,16.32a89.988,89.988,0,0,0-22.091,7.812c35.695-38.5,45.085-60.983,45.473-61.938a3.462,3.462,0,0,0-6.412-2.614c-.059.144-3.973,9.426-16.04,26.031a71.188,71.188,0,0,0-.231-7.834c-.526-6.52.4-9.732,1-11.066,1.789-4.161-4.375-6.971-6.317-2.834-4.92,12.286,3.353,25.7-6.972,37.817-5.036,6.083-10.884,12.753-17.659,19.971-11.7,12.526-22.078,26.769-31.7,41.741a47.064,47.064,0,0,0-1.454-14.736c-4.026-14.845-2.168-21.021-2.088-21.273a3.463,3.463,0,0,0-6.473-2.458c-.305.78-2.846,8.124,1.878,25.543,4.151,15.579-3.187,31.392-3.322,31.837-8.28,14.462-15.986,29.523-22.76,44.408-8.5,18.612-26.372,57.025-31.393,73-1.277,4.3,5.124,6.446,6.606,2.075,5.06-16.1,23.028-54.7,31.642-73.458,2.036-3.642,12.535-20.457,34.363-23.7,27.258-4.046,30.889-22.175,31.03-22.945a3.462,3.462,0,0,0-6.8-1.282c-.117.574-3.117,14.094-25.243,17.377a53.012,53.012,0,0,0-22.947,9.138c11.692-22.794,25.174-45.072,39.313-63.462,1.844-1.673,17.957-15.82,40-20.376,26.176-5.41,32.179-19.9,32.422-20.52A3.445,3.445,0,0,0,238.242,84.573Z" style="fill:#3e6a51"/><path d="M147.616,100.24c3.4-3.144-1.19-8.281-4.7-5.255C139.52,98.13,144.111,103.267,147.616,100.24Z" style="fill:#3e6a51"/><path d="M33.1,119.579a53.715,53.715,0,0,1,9.421,38.409c-2.081,15.415-.862,37.87,16.761,57.31a56.066,56.066,0,0,1,13.726,26.591,83.281,83.281,0,0,1-8.618,56.855c-6.016,10.878,2.453,23.982,14.747,23.677,3.83,10.918,19.974,9.769,22.133-1.727.536,10.069,12.685,15.007,19.76,7.534a11.3,11.3,0,0,0,3.01-8.458c-.855-12.475-.219-36.522,13.661-57.41a54.612,54.612,0,0,1,44.735-24.3c22.962-.341,63.842-6.35,79.645-42.764a57.624,57.624,0,0,1,20.063-24.4c15.565-10.8,34.387-30.118,35.669-60.826a63.313,63.313,0,0,1,1.272-10.141c6.351-28.34-2.749-56.442-41.672-46.631-1.135-22.975-22.161-41-45.258-37.084C202.875,20.237,153.506,35.571,131.114,64.4c-7-22.121-22.1-53.4-51.88-56.023-15.38-1.357-29.118,3.983-39.727,15.444-16.268,17.575-22.791,47.267-19.7,65.822C21.427,99.354,25.9,109.427,33.1,119.579ZM277.756,60.342c34.9-9.5,39.529,14.34,34.553,38.181a70.023,70.023,0,0,0-1.41,11.254c-1.164,27.867-18.424,45.522-32.7,55.425a64.553,64.553,0,0,0-22.468,27.333c-14.255,32.846-52.1,38.281-73.4,38.6-50.012.566-68.807,53.818-65.2,89.111a4.306,4.306,0,0,1-1.164,3.259c-2.272,2.609-7.045,1.31-7.559-2.143a149.15,149.15,0,0,1-2.132-23.289c7.764-28.364,20.98-65.289,53.593-76.154,21.15-7.954,58.1-26.833,67.918-63.93a54.477,54.477,0,0,1,13.436-23.821C255.651,119.212,277.577,91.373,277.756,60.342ZM158.52,49.409c24.025-15.747,53.9-23.028,74.734-26.362a31.929,31.929,0,0,1,36.175,24.221c7.67,33.536-17.5,65.827-33.184,82.091A61.4,61.4,0,0,0,221.1,156.216c-9.023,34.092-43.759,51.735-63.662,59.218-43.083,13.7-57.479,74.189-62.948,103.916a4.545,4.545,0,0,1-1.984,3.038c-3.261,2.285-8.023-.9-7.016-4.833,6.47-28.937,12.01-56.946,15.518-75.347a51.111,51.111,0,0,0-2.3-27.659c-14.576-35.214-6.788-71.013,18.823-85.537a3.463,3.463,0,0,0,1.889-3.333C117.152,93.56,130.308,67.9,158.52,49.409ZM44.588,28.521c9.23-9.971,20.676-14.43,34.037-13.251,28.015,2.472,41.614,35.752,47.338,56.066-10.047,15.1-14.6,32.7-13.585,52.668C87.209,141.818,75.537,170.312,92.227,217a44.185,44.185,0,0,1,1.978,23.915c-2.846,14.927-8.609,44.38-15.343,74.545-6.91.248-11.854-7.292-8.4-13.379a90.125,90.125,0,0,0,9.342-61.533c-7.77-35.471-35.682-34.308-30.417-81.631C53.918,123.156,31.7,115.9,26.638,88.5,23.882,71.959,29.96,44.323,44.588,28.521Z" style="fill:#2b2b2b"/></svg>