<svg id="icons" xmlns="http://www.w3.org/2000/svg" viewBox="0 0 340 340"><title>80_white sorghum</title><path d="M156.691,322.482C146.11,283.3,74.316,267.769,20.986,298.715a2.209,2.209,0,0,1-2.943-3.117c48.547-74.689,120.976-40.928,149.685,7.5Z" style="fill:#84994a"/><rect x="159.45" y="243.421" width="20.006" height="73.816" style="fill:#84994a"/><path d="M156.691,328.23v-5.748a27.23,27.23,0,0,1,4.162-14.5c8.042-12.788,18.277-35.764,53.443-56.28,30.608-16.665,66.244-22.772,92.984-.3-52.639-3.44-116.532,25.025-125.409,76.831Z" style="fill:#aecc76"/><path d="M322.18,288.1a2.213,2.213,0,0,0,3.368-2.287c-3.073-15.9-9.8-26.835-18.141-34.3-68.082-12.792-107.89,40.465-107.89,40.465l0,0C235.476,252.733,300.165,271.861,322.18,288.1Z" style="fill:#84994a"/><path d="M132.981,188.954a10.256,10.256,0,0,1-10.256,10.256c-13.59-.5-13.586-20.011,0-20.512A10.256,10.256,0,0,1,132.981,188.954Z" style="fill:#2b2b2b"/><path d="M194.471,89.61a20.62,20.62,0,0,1-20.621,20.62c-27.323-1.011-27.316-40.234,0-41.241A20.621,20.621,0,0,1,194.471,89.61Z" style="fill:#2b2b2b"/><path d="M198.849,25.28A12.129,12.129,0,0,1,186.72,37.41c-16.073-.595-16.068-23.667,0-24.259A12.129,12.129,0,0,1,198.849,25.28Z" style="fill:#eaa75e"/><path d="M173.85,23.112a11.856,11.856,0,0,1-11.856,11.856c-15.71-.581-15.706-23.133,0-23.712A11.856,11.856,0,0,1,173.85,23.112Z" style="fill:#ffdb94"/><path d="M182.577,46.936A13.787,13.787,0,0,1,168.79,60.723c-18.268-.676-18.263-26.9,0-27.574A13.787,13.787,0,0,1,182.577,46.936Z" style="fill:#ffdb94"/><path d="M167.016,61.323A13.473,13.473,0,0,1,153.23,74.737c-18.441-.477-18.086-26.573,0-27.2A13.786,13.786,0,0,1,167.016,61.323Z" style="fill:#ffdb94"/><path d="M205.511,61.137a12.425,12.425,0,0,1-12.425,12.425c-16.464-.609-16.459-24.244,0-24.85A12.425,12.425,0,0,1,205.511,61.137Z" style="fill:#eaa75e"/><path d="M184.486,69.406a13.121,13.121,0,0,1-13.121,13.121c-17.386-.643-17.382-25.6,0-26.243A13.121,13.121,0,0,1,184.486,69.406Z" style="fill:#ffdb94"/><path d="M142.783,96.237a12.726,12.726,0,0,1-12.725,12.725c-16.861-.624-16.857-24.829,0-25.45A12.725,12.725,0,0,1,142.783,96.237Z" style="fill:#ffdb94"/><path d="M163.541,86.546a12.81,12.81,0,0,1-12.81,12.811c-16.975-.628-16.971-25,0-25.621A12.81,12.81,0,0,1,163.541,86.546Z" style="fill:#ffdb94"/><path d="M170.386,107.233a12.142,12.142,0,0,1-12.142,12.141c-16.089-.595-16.085-23.691,0-24.283A12.142,12.142,0,0,1,170.386,107.233Z" style="fill:#ffdb94"/><path d="M176.307,130.082a12.872,12.872,0,0,1-12.871,12.872c-17.056-.631-17.052-25.115,0-25.744A12.872,12.872,0,0,1,176.307,130.082Z" style="fill:#ffdb94"/><path d="M226.317,142.954a12.872,12.872,0,0,1-12.872,12.872c-17.056-.631-17.051-25.115,0-25.744A12.872,12.872,0,0,1,226.317,142.954Z" style="fill:#eaa75e"/><path d="M208.344,160.918a15.257,15.257,0,0,1-15.258,15.257c-20.217-.748-20.212-29.77,0-30.515A15.258,15.258,0,0,1,208.344,160.918Z" style="fill:#eaa75e"/><path d="M180.76,149.962a11.307,11.307,0,0,1-11.307,11.307c-14.982-.555-14.978-22.062,0-22.614A11.307,11.307,0,0,1,180.76,149.962Z" style="fill:#ffdb94"/><path d="M236.06,196.345a12.024,12.024,0,0,1-12.024,12.024c-15.933-.589-15.928-23.461,0-24.048A12.024,12.024,0,0,1,236.06,196.345Z" style="fill:#eaa75e"/><path d="M214.5,183.817a12.347,12.347,0,0,1-12.347,12.347c-16.359-.606-16.355-24.09,0-24.693A12.347,12.347,0,0,1,214.5,183.817Z" style="fill:#eaa75e"/><path d="M215.3,211.448a14.723,14.723,0,0,1-14.723,14.723c-19.508-.722-19.5-28.726,0-29.445A14.723,14.723,0,0,1,215.3,211.448Z" style="fill:#2b2b2b"/><path d="M189.027,178.631a14.175,14.175,0,0,1-14.175,14.175c-18.783-.7-18.778-27.658,0-28.35A14.175,14.175,0,0,1,189.027,178.631Z" style="fill:#ffdb94"/><path d="M155.938,149.355a14.007,14.007,0,0,1-14.006,14.007c-18.56-.687-18.555-27.33,0-28.014A14.007,14.007,0,0,1,155.938,149.355Z" style="fill:#ffdb94"/><path d="M163.541,172.614a13.592,13.592,0,0,1-13.592,13.593c-18.011-.666-18.006-26.522,0-27.186A13.592,13.592,0,0,1,163.541,172.614Z" style="fill:#ffdb94"/><path d="M128.4,156.383A14.517,14.517,0,0,1,113.877,170.9c-19.236-.712-19.231-28.325,0-29.034A14.517,14.517,0,0,1,128.4,156.383Z" style="fill:#ffdb94"/><path d="M149.161,196.726a12.986,12.986,0,0,1-12.985,12.986c-17.207-.637-17.2-25.338,0-25.972A12.986,12.986,0,0,1,149.161,196.726Z" style="fill:#ffdb94"/><path d="M142.532,169.956a13.264,13.264,0,0,1-13.264,13.264c-17.576-.65-17.571-25.881,0-26.528A13.264,13.264,0,0,1,142.532,169.956Z" style="fill:#ffdb94"/><path d="M127.286,204.788A13.408,13.408,0,0,1,113.877,218.2c-17.767-.657-17.762-26.163,0-26.818A13.409,13.409,0,0,1,127.286,204.788Z" style="fill:#ffdb94"/><path d="M213.57,231.051a13,13,0,0,1-13,13c-17.221-.637-17.217-25.359,0-25.993A13,13,0,0,1,213.57,231.051Z" style="fill:#eaa75e"/><path d="M195.463,200.587A13.367,13.367,0,0,1,182.1,213.954c-17.712-.655-17.707-26.081,0-26.733A13.366,13.366,0,0,1,195.463,200.587Z" style="fill:#eaa75e"/><path d="M171.191,191.577a12.242,12.242,0,0,1-12.241,12.242c-16.221-.6-16.217-23.886,0-24.484A12.242,12.242,0,0,1,171.191,191.577Z" style="fill:#ffdb94"/><path d="M188.955,227.074a13.663,13.663,0,0,1-13.663,13.663c-18.1-.67-18.1-26.659,0-27.326A13.663,13.663,0,0,1,188.955,227.074Z" style="fill:#eaa75e"/><path d="M192.549,246.009A13.093,13.093,0,0,1,179.456,259.1c-17.349-.641-17.344-25.547,0-26.186A13.093,13.093,0,0,1,192.549,246.009Z" style="fill:#eaa75e"/><path d="M172.59,254.823a11.99,11.99,0,0,1-11.989,11.99c-15.887-.588-15.882-23.393,0-23.979A11.989,11.989,0,0,1,172.59,254.823Z" style="fill:#eaa75e"/><path d="M165.31,236.494a11.389,11.389,0,0,1-11.389,11.389c-15.091-.558-15.087-22.222,0-22.778A11.389,11.389,0,0,1,165.31,236.494Z" style="fill:#eaa75e"/><path d="M168.127,215.085a12.388,12.388,0,0,1-12.388,12.388c-16.415-.608-16.41-24.171,0-24.776A12.388,12.388,0,0,1,168.127,215.085Z" style="fill:#ffdb94"/><path d="M147.278,222.15A13.781,13.781,0,0,1,133.5,235.931c-18.26-.676-18.255-26.889,0-27.562A13.781,13.781,0,0,1,147.278,222.15Z" style="fill:#ffdb94"/><path d="M116.361,180.627a12.028,12.028,0,0,1-12.028,12.028c-15.938-.59-15.933-23.469,0-24.056A12.028,12.028,0,0,1,116.361,180.627Z" style="fill:#ffdb94"/><path d="M232.223,161.35a11.48,11.48,0,0,1-11.479,11.479c-15.21-.563-15.206-22.4,0-22.958A11.479,11.479,0,0,1,232.223,161.35Z" style="fill:#eaa75e"/><path d="M202.256,134.131a12.575,12.575,0,0,1-12.575,12.575c-16.663-.616-16.659-24.536,0-25.15A12.575,12.575,0,0,1,202.256,134.131Z" style="fill:#eaa75e"/><path d="M147.932,122.414a12.713,12.713,0,0,1-12.714,12.713c-16.846-.623-16.842-24.806,0-25.427A12.714,12.714,0,0,1,147.932,122.414Z" style="fill:#ffdb94"/><path d="M213.445,111.136a12,12,0,0,1-12,12c-15.9-.589-15.9-23.421,0-24.007A12,12,0,0,1,213.445,111.136Z" style="fill:#eaa75e"/><path d="M197.47,108.573a12.984,12.984,0,0,1-12.984,12.983c-17.2-.636-17.2-25.332,0-25.966A12.983,12.983,0,0,1,197.47,108.573Z" style="fill:#eaa75e"/><path d="M207.493,82.049a12.2,12.2,0,0,1-12.2,12.2c-16.169-.6-16.165-23.809,0-24.4A12.2,12.2,0,0,1,207.493,82.049Z" style="fill:#eaa75e"/><path d="M164.283,21.942c-.126,4.953-7.387,4.952-7.512,0A3.756,3.756,0,0,1,164.283,21.942Z" style="fill:#fff5e6"/><path d="M171.8,43.781c-.125,4.954-7.387,4.953-7.512,0A3.756,3.756,0,0,1,171.8,43.781Z" style="fill:#fff5e6"/><path d="M172.548,67.052c-.126,4.954-7.388,4.953-7.512,0C165.161,62.1,172.423,62.1,172.548,67.052Z" style="fill:#fff5e6"/><path d="M154.95,58.769c-.126,4.954-7.388,4.953-7.513,0C147.563,53.815,154.825,53.816,154.95,58.769Z" style="fill:#fff5e6"/><path d="M132.083,93.366c-.125,4.953-7.387,4.952-7.512,0C124.7,88.412,131.959,88.413,132.083,93.366Z" style="fill:#fff5e6"/><path d="M153.629,84.451c-.125,4.954-7.387,4.953-7.512,0A3.756,3.756,0,0,1,153.629,84.451Z" style="fill:#fff5e6"/><path d="M137.92,120.831c-.126,4.953-7.387,4.952-7.512,0C130.533,115.877,137.795,115.878,137.92,120.831Z" style="fill:#fff5e6"/><path d="M144.058,146.706c-.126,4.954-7.388,4.953-7.512,0C136.671,141.753,143.933,141.754,144.058,146.706Z" style="fill:#fff5e6"/><path d="M114.41,153.627c-.125,4.954-7.387,4.953-7.512,0A3.756,3.756,0,0,1,114.41,153.627Z" style="fill:#fff5e6"/><path d="M105.717,179.335c-.125,4.954-7.387,4.953-7.512,0C98.331,174.382,105.593,174.383,105.717,179.335Z" style="fill:#fff5e6"/><path d="M132.151,168.21c-.126,4.953-7.388,4.952-7.512,0C124.764,163.256,132.026,163.257,132.151,168.21Z" style="fill:#fff5e6"/><path d="M116.225,205.335c-.125,4.954-7.387,4.953-7.512,0A3.756,3.756,0,0,1,116.225,205.335Z" style="fill:#fff5e6"/><path d="M137.253,221.7a3.756,3.756,0,0,1-7.512,0C129.866,216.741,137.128,216.742,137.253,221.7Z" style="fill:#fff5e6"/><path d="M291.289,262.249c4.115,1.843,7.019-4.329,2.887-6.293-39.993-18.4-100.021,6.187-115.377,69.638-2.273,7.049,6.547,8.751,6.814,1.23,4.634-25.446,24.277-45.733,50.087-51.97,48.346-11.652,88.18,18.6,88.574,18.9a3.462,3.462,0,0,0,5.555-3.195c-5.217-38.842-30.01-51.866-49.888-55.953-36.335-8.891-73.884,16.816-97.023,40.382v-12.8a16.575,16.575,0,0,0,13.039-15.115c13.84,3.831,25.8-11.569,18.734-24a16.982,16.982,0,0,0,4.6-11.266c10.13,3.28,21.105-4.786,20.925-15.473.265-11.463-12.474-19.663-22.771-14.77a15.826,15.826,0,0,0-1.381-4.594c18.456,5.167,29.209-19.589,13.09-29.59,4.188-14.144-12.051-26.251-24.365-18.267-.147-.444-.308-.881-.492-1.306,17.828-3.007,19.186-27.988,1.876-32.957,7.653-6.1,7.873-18.9.406-25.254,8.391-13.005-4.932-29.4-19.39-23.955a16.659,16.659,0,0,0-.763-4.212,16.184,16.184,0,0,0,15.88-16.16c.083-14.749-18.583-21.752-28.194-10.785C165.944,2.8,147.071,8.666,147.1,23.112A14.9,14.9,0,0,0,156.77,37.04a16.633,16.633,0,0,0-2.917,8.073C139,44.08,130.773,62.883,141.691,72.877a16.032,16.032,0,0,0-5.962,7.416c-20.626-6.6-31.9,22.046-12.6,31.367-7.109,8.151-3.85,21.852,5.926,26.074a17.045,17.045,0,0,0-3.131,5.344c-15.013-13.368-37.305,4.1-27.806,21.935-14.437,5.692-13.876,26.614.836,31.534-6.922,11.978,3.846,27.483,17.532,25.07C115.858,233.1,127.75,242.026,138.6,238.4a15.457,15.457,0,0,0,7.412,11.342c-3,8.073,1.969,17.516,9.976,19.827v12.612C109.649,230.2,43.636,239.588,10.48,301.757a3.464,3.464,0,0,0,5.032,4.4c32.421-24.927,118.794-34.245,137.717,16.819v5.257a3.462,3.462,0,0,0,6.924,0c-2.739-23.04,30.811-56.166,65.768-77.722,34.531-21.077,87.518-10.641,95.616,33.062-15.452-11.259-66.02-28.957-102.964-9.87C240.837,253.752,274.241,254.519,291.289,262.249ZM200.165,240.7a9.53,9.53,0,0,1-5.879-2,16.623,16.623,0,0,0-3.37-4.607,17.059,17.059,0,0,0,1.42-8.648c5.279-7.59,17.567-3.642,17.479,5.611A9.661,9.661,0,0,1,200.165,240.7Zm9.93-22.888a16.67,16.67,0,0,0-20.256.267,17.35,17.35,0,0,0-1.363-1.924,16.537,16.537,0,0,0,9.7-15.453C207.655,197.324,216.774,209.767,210.1,217.813Zm-17.009-48.661a9.553,9.553,0,0,1-1.789-.188,17.954,17.954,0,0,0-7.633-7.9,9.557,9.557,0,0,1,9.422-11C205.7,150.464,205.7,168.753,193.086,169.152Zm8.55,23.731c-11.982-.381-11.978-17.752,0-18.132C213.616,175.133,213.614,192.5,201.636,192.883ZM178.46,149.962c-.379,11.9-17.637,11.9-18.014,0C160.824,138.057,178.083,138.06,178.46,149.962Zm-19.739-11.741c-8.227-4.671-4.8-17.61,4.715-17.549,6.811-.158,11.573,7.544,8.441,13.562A15.82,15.82,0,0,0,158.721,138.221Zm9.253,30.5c10.739-9.19,24.775,5.655,14.989,15.857a16.328,16.328,0,0,0-9.171,1.914,15.768,15.768,0,0,0-6.344-8.1A17.732,17.732,0,0,0,167.974,168.721Zm21.707-25.582c-11.9-.379-11.9-17.638,0-18.015C201.585,125.5,201.581,142.762,189.681,143.139Zm-4.865-24.578c-13.2-.42-13.2-19.558,0-19.976C198.017,99.005,198.013,118.143,184.816,118.561ZM170.628,99.4a15.185,15.185,0,0,0-6.073-5.627,15.614,15.614,0,0,0,1.935-8.261,16.8,16.8,0,0,0,12.177-.964,16.709,16.709,0,0,0,3.049,7.412A16.933,16.933,0,0,0,170.628,99.4Zm-9.169-29.993c.417-13.091,19.4-13.088,19.811,0C180.854,82.5,161.873,82.494,161.459,69.405Zm1.147,44.385a16.2,16.2,0,0,0-6.1,1.523c-9.851-1.686-8.8-16.079,1.234-16.261C165.472,98.907,168.905,109.328,162.606,113.79Zm-12.485,41a17.91,17.91,0,0,0-9.947,3.325,16.091,16.091,0,0,0-6.689-3.7c-4.469-6.417.6-15.873,8.447-15.661C149.983,138.524,154.993,148.421,150.121,154.787Zm-5.966,8.981c8.365-6.22,20.164,2.354,16.779,12.245a15.684,15.684,0,0,0-14.808,6.529,16.523,16.523,0,0,0-4.576-2.161A16.2,16.2,0,0,0,144.155,163.768Zm20.111,51.317c.2,6.911-8.441,11.111-13.75,6.733a16.936,16.936,0,0,0-2.929-9.228C150.491,203.352,164.168,205.347,164.266,215.085Zm-4.14-14.808a14.914,14.914,0,0,0-4.6-.634c-8.7-3.758-6.07-16.786,3.427-16.846C169.8,183,170.833,198.639,160.126,200.277Zm10.8,17.592c7.91-3.977,17.09,4.226,13.989,12.529a16.518,16.518,0,0,0-15.9,2.809,15.364,15.364,0,0,0-3.131-6.5A15.432,15.432,0,0,0,170.926,217.869Zm10.7-7.135a9.648,9.648,0,0,1-9.6-10.5,15.654,15.654,0,0,0,2.28-5.417c5.647-6.791,17.066-2.566,16.969,6.268A9.661,9.661,0,0,1,181.621,210.734ZM233.3,196.345c-.389,12.238-18.134,12.235-18.521,0C215.165,184.107,232.91,184.11,233.3,196.345Zm-12.553-25.6c-12.419-.4-12.416-18.4,0-18.8C233.164,152.347,233.161,170.354,220.744,170.747Zm-7.3-37.2a9.454,9.454,0,0,1,9.156,11.6,16.311,16.311,0,0,0-14.312,5.684C200.55,145.891,204.2,133.464,213.445,133.545Zm-1.821-22.409c.173,7.252-8.058,12.309-14.44,8.935a16.947,16.947,0,0,0,2.873-18.782A10,10,0,0,1,211.624,111.136ZM205.2,82.05c-.416,13.09-19.4,13.088-19.812,0C185.8,68.958,204.783,68.962,205.2,82.05Zm-2.975-21.186a9.236,9.236,0,0,1-1.613,5.23,16.768,16.768,0,0,0-12.62.815,16.753,16.753,0,0,0-4.02-8.619C186.959,48.052,202.118,50.15,202.222,60.864ZM186.136,16.03c12.226.389,12.222,18.113,0,18.5C173.913,34.142,173.915,16.417,186.136,16.03Zm-8.88,37.63a16.634,16.634,0,0,0-10.306-.478,16.172,16.172,0,0,0-6.219-6.09,9.8,9.8,0,0,1,9.779-10.338C179.2,36.586,183.663,47.825,177.256,53.66ZM154.027,23.112c.275-10.506,15.661-10.5,15.935,0C169.686,33.619,154.3,33.617,154.027,23.112ZM152.9,52a9.294,9.294,0,0,1,7.875,4.338,16.7,16.7,0,0,0-6.208,13.789C141.045,71.928,139.657,52.655,152.9,52Zm-2.34,25.1c7.66-.149,11.936,9.462,6.73,15.052a15,15,0,0,0-8.389,2.855C138.275,92.849,139.652,77.276,150.564,77.1Zm-30.5,19.139c-.175-7.327,8.2-12.385,14.6-8.878a15.988,15.988,0,0,0,5.241,10.621C137.617,109.891,120.246,108.32,120.066,96.237ZM133.3,112.851c14.812-3.465,18.043,18.611,2.872,19.551C124.7,132.27,122.474,116.184,133.3,112.851Zm-4.036,47.9c12.162.386,12.159,18.018,0,18.4C117.107,178.771,117.11,161.14,129.267,160.755Zm-4.881,24.567a17.059,17.059,0,0,0-2.85,4.271,16.967,16.967,0,0,0-2.4-1,16.692,16.692,0,0,0,1.72-4.9A16.016,16.016,0,0,0,124.386,185.322Zm-10.509-39.994a11.067,11.067,0,0,1,10.881,9.156,16.169,16.169,0,0,0-11.248,12.068,16.693,16.693,0,0,0-7.741-2.67C99.2,157.113,104.432,145.135,113.877,145.328Zm-19.437,35.3c.416-13.075,19.372-13.072,19.786,0C113.81,193.7,94.854,193.7,94.44,180.627Zm24.341,32.981c-10.4,5.894-20.581-8.665-11.531-16.434a16.7,16.7,0,0,0,6.28-2.485c7.149-.414,12.526,7.323,9.724,13.881A17.156,17.156,0,0,0,118.781,213.608Zm4.6,8.543c.425-13.364,19.8-13.36,20.222,0C143.183,235.512,123.809,235.509,123.386,222.151Zm16.54-15.767a16.751,16.751,0,0,0-9.04-1.048,16.781,16.781,0,0,0-3.684-11.13c1.6-7,10.917-10.125,16.246-5.026a15.561,15.561,0,0,0,2.8,11.587A10.163,10.163,0,0,1,139.926,206.384Zm5.879,27.512a17.08,17.08,0,0,0,3.271-4.882,15.315,15.315,0,0,0,10.429,1.039c5.937,4.929,2.162,15.121-5.584,14.968A8.56,8.56,0,0,1,145.805,233.9Zm9.545,77.378c-19.36-33.416-74.747-39.665-115.85-24.8,24.865-16.315,54.294-20.735,79.008-9.058a3.463,3.463,0,0,0,2.832-6.321c-27.827-13.316-62.821-7-89.527,12.153,39.168-45.488,93.3-30.206,124.175,9.492v16.411a3.475,3.475,0,0,0,.049.492C155.79,310.177,155.565,310.724,155.35,311.274Zm-3.277-56.45a8.5,8.5,0,0,1,.545-2.944,15.384,15.384,0,0,0,12.2-4.447c7.518,4.178,4.428,15.976-4.222,15.918A8.538,8.538,0,0,1,152.073,254.824Zm23.921,27.5a184.553,184.553,0,0,0-13.082,16.358v-28.6a15.468,15.468,0,0,0,11.475-8.321c.529.169,1.063.32,1.607.436ZM176.043,255a15.365,15.365,0,0,0-5.681-12.149c3.6-10.093,18.623-7.645,18.725,3.164A9.657,9.657,0,0,1,176.043,255Z" style="fill:#2b2b2b"/></svg>