<svg id="icons" xmlns="http://www.w3.org/2000/svg" viewBox="0 0 340 340"><title>81_raspberry</title><path d="M178.855,62.745q2.088-3.2,4.607-6.346l3.742,6.079s6.632-17.132,26.527-29.014L217.4,41.2s8.771-10.777,39.443-7.737a51.234,51.234,0,0,0,33.244-7.921S286.4,56.675,265.4,75.189l9.947,3.039s-7.8,22.382-30.7,29.29l10.072,4.974s-5.626,11.777-20,20c-17.936,4.738-35.923,3.568-53.947-1.926C174.627,106.72,173.68,84.044,178.855,62.745Z" style="fill:#aecc76"/><path d="M234.725,132.49c-12.126-24.45-43.227-19.6-51.852-9.529l5.8-14.739c.664-19.1-6.374-37.636-9.81-45.474-22.282,34.094-8.945,71.3-8.945,71.3C200.651,144.67,221.429,140.1,234.725,132.49Z" style="fill:#84994a"/><path d="M160.767,120.591s-45.253,2.866-59.082-48.355a2.579,2.579,0,0,0-5.057.43c-1.5,16.346-.914,42.287,14.531,57.575,0,0-32.064,7.4-54.325-15.01a2.581,2.581,0,0,0-4.273,2.616c4.766,15.056,18.891,41.059,59.886,44.242h53.505Z" style="fill:#84994a"/><path d="M145.6,12.133l8.07-3.56s19.966,39.562,21.114,107.73c-2.493,6.691-12.433,8.879-17.619,4.254-.528-23.625-3.7-60.772-16.387-97.2A8.994,8.994,0,0,1,145.6,12.133Z" style="fill:#aecc76"/><path d="M157.159,120.557h0c.343,15.367-.43,25.015-.43,25.015l17.6-3.875c.456-8.855.581-17.323.445-25.394A17.889,17.889,0,0,0,157.159,120.557Z" style="fill:#84994a"/><path d="M187.364,310.952a20.641,20.641,0,0,1-20.641,20.642c-27.351-1.012-27.344-40.275,0-41.283A20.641,20.641,0,0,1,187.364,310.952Z" style="fill:#b73d49"/><path d="M162.872,287a21.66,21.66,0,0,1-21.66,21.66c-28.7-1.062-28.693-42.263,0-43.32A21.659,21.659,0,0,1,162.872,287Z" style="fill:#b73d49"/><path d="M205.759,287a22.3,22.3,0,0,1-22.3,22.3c-29.544-1.093-29.536-43.506,0-44.594A22.3,22.3,0,0,1,205.759,287Z" style="fill:#b73d49"/><path d="M150.648,261.677a23.62,23.62,0,0,1-23.62,23.62c-31.3-1.158-31.29-46.087,0-47.24A23.62,23.62,0,0,1,150.648,261.677Z" style="fill:#f7616c"/><path d="M225.983,263.38C225.983,276.426,216,287,203.7,287c-29.525-1.138-29.516-46.109,0-47.241C216,239.76,225.983,250.335,225.983,263.38Z" style="fill:#b73d49"/><path d="M130.5,241.26a19.346,19.346,0,0,1-19.345,19.346c-25.635-.949-25.628-37.747,0-38.692A19.346,19.346,0,0,1,130.5,241.26Z" style="fill:#f7616c"/><path d="M186.06,263.38A23.621,23.621,0,0,1,162.439,287c-31.3-1.158-31.289-46.088,0-47.241A23.621,23.621,0,0,1,186.06,263.38Z" style="fill:#f7616c"/><path d="M244.65,242.9a20.477,20.477,0,0,1-20.477,20.477c-27.134-1-27.127-39.955,0-40.955A20.477,20.477,0,0,1,244.65,242.9Z" style="fill:#b73d49"/><path d="M169.914,233.205a25.181,25.181,0,0,1-25.181,25.181c-33.366-1.234-33.357-49.133,0-50.362A25.181,25.181,0,0,1,169.914,233.205Z" style="fill:#f7616c"/><path d="M212.39,235.4c0,13.907-10.223,25.181-22.834,25.181-30.242-1.2-30.233-49.171,0-50.362C202.167,210.215,212.39,221.489,212.39,235.4Z" style="fill:#f7616c"/><path d="M229.978,150.825c0,13.33-9.831,24.136-21.959,24.136-29.085-1.148-29.077-47.129,0-48.272C220.147,126.689,229.978,137.5,229.978,150.825Z" style="fill:#f7616c"/><path d="M194.567,150.825c0,13.33-9.832,24.136-21.96,24.136-29.085-1.148-29.076-47.129,0-48.272C184.735,126.689,194.567,137.5,194.567,150.825Z" style="fill:#f7616c"/><path d="M160.312,155.861c0,12.753-10.038,23.091-22.42,23.091-29.7-1.122-29.7-45.064,0-46.181C150.274,132.771,160.312,143.109,160.312,155.861Z" style="fill:#f7616c"/><path d="M153.665,209.3c0,15.884-12.55,28.761-28.031,28.761-37.14-1.4-37.13-56.128,0-57.522C141.115,180.536,153.665,193.412,153.665,209.3Z" style="fill:#f7616c"/><path d="M240.9,207.966c0,15.149-10.371,27.43-23.165,27.43-30.672-1.27-30.661-53.6,0-54.861C230.526,180.536,240.9,192.816,240.9,207.966Z" style="fill:#b73d49"/><path d="M195.727,210.025c0,12.8-9.579,23.18-21.4,23.18-28.343-1.108-28.334-45.258,0-46.361C186.148,186.844,195.727,197.223,195.727,210.025Z" style="fill:#f7616c"/><path d="M254.689,181c.707,12.707-8.473,23.551-20.5,24.22-28.918.5-31.346-43.308-2.559-46.017C243.657,158.538,253.982,168.3,254.689,181Z" style="fill:#f7616c"/><path d="M218.848,179.815c0,13.58-10.352,24.589-23.121,24.589-30.627-1.183-30.618-48,0-49.177C208.5,155.227,218.848,166.236,218.848,179.815Z" style="fill:#f7616c"/><path d="M175.352,183.752c0,13.3-10.546,24.089-23.555,24.089-31.208-1.173-31.2-47.01,0-48.178C164.806,159.663,175.352,170.448,175.352,183.752Z" style="fill:#f7616c"/><path d="M135.048,180.536c0,12.855-10.119,23.276-22.6,23.276-29.944-1.131-29.936-45.427,0-46.553C124.929,157.259,135.048,167.68,135.048,180.536Z" style="fill:#f7616c"/><path d="M112.842,174.961c-.2,7.875-11.743,7.873-11.942,0C101.1,167.086,112.643,167.088,112.842,174.961Z" style="fill:#ffe9e9"/><path d="M140.184,148.314c-.2,7.875-11.743,7.873-11.941,0C128.442,140.44,139.985,140.441,140.184,148.314Z" style="fill:#ffe9e9"/><path d="M177.812,140.292c-.174,6.864-10.236,6.863-10.409,0C167.577,133.428,177.639,133.43,177.812,140.292Z" style="fill:#ffe9e9"/><path d="M155.421,177.14c-.2,7.875-11.742,7.874-11.941,0C143.68,169.266,155.223,169.267,155.421,177.14Z" style="fill:#ffe9e9"/><path d="M124.388,218.36c-.2,7.875-11.743,7.873-11.941,0C112.646,210.486,124.189,210.487,124.388,218.36Z" style="fill:#ffe9e9"/><path d="M197.465,173.845c-.2,7.874-11.743,7.873-11.941,0C185.724,165.97,197.267,165.972,197.465,173.845Z" style="fill:#ffe9e9"/><path d="M238.876,177.14c-.2,7.875-11.742,7.874-11.941,0C227.135,169.266,238.678,169.267,238.876,177.14Z" style="fill:#ffe9e9"/><path d="M213.989,142.869c-.2,7.874-11.742,7.873-11.941,0C202.248,134.994,213.791,135,213.989,142.869Z" style="fill:#ffe9e9"/><path d="M291.921,22.609a3.458,3.458,0,0,0-3.7.018,47.573,47.573,0,0,1-31.038,7.391c-21.551-2.129-33.106,2.408-38.508,5.787-1.3-2.751-2.712-7.431-6.715-5.314a71.7,71.7,0,0,0-25.039,24.916c-1.071-2.528-4.308-3.439-6.155-1.176a83.291,83.291,0,0,0-7.183,10.517C167.43,28.573,157.374,8.237,156.756,7.013a3.462,3.462,0,0,0-4.488-1.608L144.2,8.965A12.386,12.386,0,0,0,137.5,24.5c11.829,33.959,15.315,68.451,16.091,92.265-14.061-1.776-45.09-11.225-51.3-59.435a3.462,3.462,0,0,0-6.8-.351c-.458,1.942-10.3,45.05,8.919,70.764-11.28,1.04-35.85.268-51.335-22.515a3.462,3.462,0,0,0-6.314,2.228c1.4,18.191,16.944,46.85,46.759,54.728-10.121,10.4-9.211,29.131,1.785,38.473a32.946,32.946,0,0,0,1.923,22.553c-12.983,9.6-11.2,30.414,2.729,37.911a27.108,27.108,0,0,0,16.153,25.337,25.146,25.146,0,0,0,26.537,25.625c2.373,30.645,46.268,30.308,48.16-.379a25.713,25.713,0,0,0,18.25-21.833c10.729-2.394,19.048-11.815,20.239-23.583,18.811-3.859,25.452-28.694,10.677-41.364a34.576,34.576,0,0,0,4.317-19.05c23.191-12.285,15.518-49.717-11.254-50.157a29.74,29.74,0,0,0-2.34-17.334c19.328-8.428,26.828-23.72,27.15-24.394,1.5-3.74-2.069-4.829-4.685-6.125,18.549-9.224,25.155-27.62,25.459-28.493,1.223-4.451-3.7-4.757-6.611-5.781C289.285,55.014,296.453,22.97,291.921,22.609ZM191.1,150.825a23.333,23.333,0,0,1-.214,2.982,25.488,25.488,0,0,0-17.955,14.863,26.163,26.163,0,0,0-9.5-8.547,27.038,27.038,0,0,0-5.8-21.408C168.456,122.285,191.213,131.411,191.1,150.825ZM135.242,193.48a27.509,27.509,0,0,0,1.717-22.028c11.238-14.239,33.829-6.131,33.638,12.3C170.754,203.8,144.86,210.712,135.242,193.48Zm39.867,1.462a25.039,25.039,0,0,0,16.778,11.07c3.99,28.391-34.15,33-35.483,3.812A25.931,25.931,0,0,0,175.109,194.942Zm-18.354-37.2a25.705,25.705,0,0,0-23.2,7.133,26.135,26.135,0,0,0-14.561-10.225C121.367,128.275,158.432,131.59,156.755,157.744Zm-7.281,52.393a28.569,28.569,0,0,0,.283,3.93c-7.257,32.663-53.04,23.518-48.294-9.291,9.5,4.84,22.332,2.33,29.4-5.339A26.084,26.084,0,0,0,149.474,210.137Zm3.974,14.314a25.7,25.7,0,0,0,9.853,9.441,30.872,30.872,0,0,0,.874,8.98c-8.1,16.618-32.7,15.638-39.509-1.378A31.344,31.344,0,0,0,153.448,224.451Zm-11.09,37.3a28.779,28.779,0,0,0,25.011-11.006,26.708,26.708,0,0,0,15.218,12.27C181.985,290.972,141.18,289.7,142.358,261.747Zm27.847-25.453c9.953,1.889,19.973-3.3,25.012-11.849a27.794,27.794,0,0,0,13.646,12.646C206.351,264.077,171.813,263.323,170.205,236.294Zm28.606-21.671a28.4,28.4,0,0,0,.1-8.522,24.57,24.57,0,0,0,14.3-7.28,24.725,24.725,0,0,0,24.209,9.468C236.887,235.233,205.749,241.263,198.811,214.623Zm16.482-51.415a24.757,24.757,0,0,0-17.379-9.792,29.486,29.486,0,0,0-3.444-16.652c13.653-16.592,37.195.8,31.239,20.054A25.175,25.175,0,0,0,215.293,163.208Zm-1.36,16.608c-.876,25.926-35.54,25.916-36.412,0C178.4,153.89,213.061,153.9,213.933,179.816Zm-69.891-157.6c-1.718-6,3.731-7.2,7.891-9.1,4.642,10.758,19.556,50.064,19.422,110.151a23.913,23.913,0,0,0-10.651,3.2C160.583,102.548,157.922,62.067,144.042,22.218ZM56.9,120.039c23.065,20.3,58.343,15.4,57.588,11.149a3.463,3.463,0,0,0-.894-3.407c-12.989-12.856-14.686-34.287-13.849-49.9,12.065,36.99,40.833,44.44,54.01,45.871.041,3.119.036,5.984,0,8.571-.44.526-.867,1.065-1.271,1.629-16.074-11.682-39.238.011-40.4,19.857a25.384,25.384,0,0,0-11.68,3.022C73.041,150.706,61.617,132.68,56.9,120.039Zm36.407,60.5c0-10.925,8.586-19.814,19.139-19.814,25.327.92,25.319,38.714,0,39.63C101.894,200.351,93.308,191.461,93.308,180.535Zm1.967,60.725a15.757,15.757,0,0,1,5.592-12.095,31.544,31.544,0,0,0,16.107,11.105A28.456,28.456,0,0,0,123,251.85C113.558,262.657,95.116,255.648,95.275,241.26Zm11.7,22.416a22.872,22.872,0,0,0,21.141-7.161,28.718,28.718,0,0,0,7.423,3.807,27.026,27.026,0,0,0,3.858,17.262C127.225,287.4,108.24,279.115,106.971,263.676Zm16.118,24.794a27.031,27.031,0,0,0,20.675-5.5,27,27,0,0,0,15.34,7.284C155.033,311.014,125.138,309.546,123.089,288.47Zm43.634,39.662a17.188,17.188,0,0,1-17.17-17.424,25.138,25.138,0,0,0,12.4-9.525,25.6,25.6,0,0,0,21.849,11.569A17.2,17.2,0,0,1,166.723,328.132Zm16.739-22.3A18.737,18.737,0,0,1,165.614,293a25.094,25.094,0,0,0,.511-2.793,27.073,27.073,0,0,0,17.459-9.931A25.386,25.386,0,0,0,201.972,290.4,18.792,18.792,0,0,1,183.462,305.836Zm20.233-22.3a18.648,18.648,0,0,1-16.2-9.9,26.916,26.916,0,0,0,2.006-9.6,24.8,24.8,0,0,0,16.134-6,24.075,24.075,0,0,0,16.609,8.721C220.743,276.326,212.97,283.538,203.7,283.538ZM241.188,242.9c.026,16.391-21.279,23.218-30.806,9.952a29.926,29.926,0,0,0,5.283-14.1,24.434,24.434,0,0,0,20.205-8.2A17,17,0,0,1,241.188,242.9Zm10.072-60.688c.056,19.067-23.6,27.03-33.71,10.72a27.961,27.961,0,0,0,1.352-23.366C229.934,155.56,251.466,164.481,251.26,182.215ZM263.114,72.591a3.487,3.487,0,0,0,1.278,5.909l6.215,1.9c-3.07,6.133-11.2,19.053-26.957,23.8a3.485,3.485,0,0,0-.533,6.419l6.714,3.314a51.431,51.431,0,0,1-22.878,18.5c-8.972-11.451-26.722-12.384-36.652-1.4a25.51,25.51,0,0,0-7.478-5.475c8.056-11.854,5.028-10.185,20.226-27.843,3.126-2.912,8.608-5.31,21.656-4.209,15.649,1.323,23.213-4.878,23.528-5.142a3.462,3.462,0,1,0-4.46-5.3c-.055.045-5.854,4.606-18.486,3.539a67.164,67.164,0,0,0-11.058-.127,175.028,175.028,0,0,1,45.526-30.235,3.462,3.462,0,0,0-2.879-6.3A183.119,183.119,0,0,0,227.234,67a58.319,58.319,0,0,0,3.8-12.128c.738-4.487-5.922-5.709-6.812-1.24-1.877,10.3-8.825,21.406-10.391,23.815A174.323,174.323,0,0,0,194.292,97.06a26.036,26.036,0,0,1,.063-15.883c1.623-4.238-4.638-6.777-6.42-2.594a31.921,31.921,0,0,0-.37,20.125c2.08,5.372-2.656,10.492-4.459,13.567l-4.824,7.538a350.316,350.316,0,0,0-2.906-43.129,74.67,74.67,0,0,1,7.8-14.143l1.079,1.752a3.489,3.489,0,0,0,6.174-.557c.059-.152,5.779-14.347,21.851-25.245,1.164,1.986,1.918,5.955,4.678,6.172a3.406,3.406,0,0,0,3.08-1.228c.082-.094,8.515-9.3,36.457-6.526a54.282,54.282,0,0,0,28.8-4.781C282.951,42.056,276.967,60.379,263.114,72.591Z" style="fill:#2b2b2b"/></svg>