<svg id="icons" xmlns="http://www.w3.org/2000/svg" viewBox="0 0 340 340"><title>82_goji berry</title><path d="M104.947,149.08c.569-3.818,1.149-8.261-.684-11.824a7.355,7.355,0,0,0-12.442-1.37C88.1,140.16,88.2,144.771,83.2,149.531a14.29,14.29,0,0,0-1.779,1.95C85.717,159.374,101.507,158.838,104.947,149.08Z" style="fill:#80b297"/><path d="M81.424,151.484c-2.476,3.2-5.34,8.833-7.176,16.4l27.309,8.193,3.391-27C100.13,152.617,92.379,155.527,81.424,151.484Z" style="fill:#3e6a51"/><path d="M103.283,167.055a20.842,20.842,0,0,0-25.5-6.982c-18.42,6.51-33.338,41.523-31.656,73.139C51.884,252.434,68.2,256.463,91.337,250.7c17.935-17.124,25.467-39.868,19.122-70.11A62.5,62.5,0,0,0,103.283,167.055Z" style="fill:#f7616c"/><path d="M108.407,255.884c11.874-17.848,11.542-51.68,2.043-75.295.541,21.848-3.521,55.543-32.849,60.654-15.56,2.712-25.331-1.484-31.468-8.031a70.836,70.836,0,0,0,2.353,14.837C56.194,276.17,93.534,280.964,108.407,255.884Z" style="fill:#b73d49"/><path d="M153.058,7.952a7.124,7.124,0,0,1,4.954,11.382,78.752,78.752,0,0,1-11.063,12.057c-20.865,18.143-46.492,23.133-71.212,25.628C75.737,57.019,81.287.752,153.058,7.952Z" style="fill:#80b297"/><path d="M178.693,75.74s29.142,14.213,34.073,62.073c3.976,38.592,22.475,66.245,52.606,76.572a20.316,20.316,0,0,0,26.814-19C295.093,122.429,208.886,81.455,178.693,75.74Z" style="fill:#80b297"/><path d="M139.667,57.019s45.519-9.924,87.359,5.937a111.158,111.158,0,0,0,95.259-7.4A8.1,8.1,0,0,0,320.409,40.7C264.96,26.651,226.586,24.731,139.667,57.019Z" style="fill:#80b297"/><path d="M179.592,170.5c-1.043-2.168-1.53-10.639-1.921-13.089a3.611,3.611,0,0,0-4.55-3.071c-5.507,1.313-11.206,4.51-11.728,10.963l-1.521,14.988C162.833,188.2,182.128,185.8,179.592,170.5Z" style="fill:#80b297"/><path d="M182.181,174.582a12.748,12.748,0,0,1-2.58-4.088c-2.728,5.08-8.336,10.589-19.729,9.795l-1.456,14.35,32.08-4.456A36.938,36.938,0,0,0,182.181,174.582Z" style="fill:#3e6a51"/><path d="M182.712,185.042c-23.98-4.416-43.411,17.626-39.883,60.476,2.273,30.072,6.63,55.579,46.466,45.794C207.252,270.129,212.344,243,203.8,209.559,197.342,192.422,190.009,186.775,182.712,185.042Z" style="fill:#f7616c"/><path d="M203.8,209.559c1.752,24.283,2.939,54.319-21.244,67.1-14.606,7.721-25.673,4.752-35.634-3.428,3.781,16.014,9.426,26.4,15.986,33.383,13.418,14.272,37.1,10.383,45.639-7.249C220.6,277.968,212.95,234.209,203.8,209.559Z" style="fill:#b73d49"/><path d="M140.59,209.738a15.5,15.5,0,0,1-3.771-7.73l-1.147-6.572a6.964,6.964,0,0,0-13.8.657l-.678,8.728c-.362,7.378-3.555,10.259-4.475,18.538C126.188,228.436,141.211,222.15,140.59,209.738Z" style="fill:#80b297"/><path d="M145.409,219.643a15.9,15.9,0,0,0-4.811-9.912c-3.04,5.605-10.218,14.9-23.879,13.628a80.911,80.911,0,0,0-.418,13.248h30.673Z" style="fill:#3e6a51"/><path d="M146.94,234.627a21.34,21.34,0,0,0-29.909-3.384c-15.578,10.5-23.235,43.174-15.791,70.743,5.288,12.24,18.676,14.251,34.385,13.331,17.49-14.353,25.965-35.3,17.987-68.274A44.286,44.286,0,0,0,146.94,234.627Z" style="fill:#f7616c"/><path d="M224.56,45.828C114.815,41.067,13.62,100.074,13.62,100.074v24.375s31.885-18.337,78.159-39.288a21.447,21.447,0,0,1,12.26-1.635c8.4,1.356,20.224-.247,26.423-7.483a32.925,32.925,0,0,1,9.035-6.106C175.939,52.873,224.56,45.828,224.56,45.828Z" style="fill:#3e6a51"/><path d="M153.61,247.044c2.245,18.878,2.509,52.17-22.117,58.371-13.327,3.355-23.148.972-30.2-3.239a56.393,56.393,0,0,0,12.157,23.073,22.91,22.91,0,0,0,37.958-5.919C159.355,305.09,161.364,266.433,153.61,247.044Z" style="fill:#b73d49"/><path d="M74.634,171.557c-5.159,3.9-12.791,12.069-15.606,27.431a2.963,2.963,0,0,0,3.366,3.468c4.009-.6,10.021-2.674,12.773-9.492a70.84,70.84,0,0,0,4.159-18.744A2.947,2.947,0,0,0,74.634,171.557Z" style="fill:#ffe9e9"/><path d="M119.4,242.743c-3.956,3.731-9.59,11.255-10.541,24.354a2.491,2.491,0,0,0,3.13,2.591c3.3-.87,8.133-3.15,9.81-9.1a59.53,59.53,0,0,0,1.766-16.048A2.478,2.478,0,0,0,119.4,242.743Z" style="fill:#ffe9e9"/><path d="M166.705,194.761c-4.8,4.532-11.646,13.669-12.8,29.576a3.027,3.027,0,0,0,3.8,3.147c4-1.058,9.876-3.825,11.913-11.051,1.9-6.727,2.207-14.373,2.145-19.489A3.01,3.01,0,0,0,166.705,194.761Z" style="fill:#ffe9e9"/><path d="M77.422,60.324C106.8,57.773,141.1,48.56,160.78,21.412c5.024-6.221.618-16.381-7.376-16.9-43.614-5.638-75.818,17.457-80.958,51C53.254,76.961,37.162,84.238,37,84.31h0C21.554,91.523,11.914,97.038,11.875,97.083a3.464,3.464,0,0,0-1.718,2.991v24.375a3.462,3.462,0,0,0,5.188,3c.347-.2,34.908-20,83.448-41.644,5.572,1.885,13.614,2.234,20.961.282-.852,4.053-3.131,10.679-9.146,19.47a122.462,122.462,0,0,0-12.349,24.077c-6.832-.654-11.033,5.759-13.374,11.226a16.5,16.5,0,0,1-3.979,6.076c-2.492,2.2-5.1,6.312-7.156,11.274-27.183,10.182-51.058,100.014-6.4,115.186a36.566,36.566,0,0,0,27.885-1.042c-1.966,25.611,7.373,63.078,35.184,63.986,17.106-.2,25.282-13.421,28.687-28.774a31.045,31.045,0,0,0,28.771,10.845c51.293-7.7,27-115.563,5.058-132.144a38.673,38.673,0,0,0-8.231-14.062,9.461,9.461,0,0,1-2.49-5.41l-1.537-13.682c-1.157-4.4-4.266-3.152-9.552-1.8-10.01-29.279-38.006-29.6-41.79-54.434-.727-6.591-1.415-11.309-1.836-13.958,5.875-3.513,4.754-5.452,13.025-9.634,2.764-.351,18.042-1.817,36.76,5.617,1.86.978,27.51,15.27,32.042,59.262,4.178,40.553,23.685,68.785,54.927,79.492,14.7,5.471,31.668-6.518,31.4-22.245,1.868-82.05-94.616-122.624-138.983-128.852,9.5-3.508,19.25-6.438,28.306-8.831,14.812,1.1,28.673,3.8,40.828,8.461a115.772,115.772,0,0,0,41.067,7.55A115.253,115.253,0,0,0,324,58.56a11.564,11.564,0,0,0-2.682-21.2c-44.289-12.37-89.73-15.873-163.7,9.279-37.048,6.2-64.074,14.786-91.662,25.338C69.578,68.638,73.431,64.773,77.422,60.324ZM90.4,31.68C102.772,14.745,128.874,8.364,152.713,11.4a3.627,3.627,0,0,1,2.53,5.858,74.673,74.673,0,0,1-10.565,11.523c-17.62,15.322-38.7,20.884-59.587,23.67C103.7,35.357,126,27.952,126.246,27.871a3.462,3.462,0,0,0-2.133-6.588A131.71,131.71,0,0,0,82.429,45.518,54.761,54.761,0,0,1,90.4,31.68ZM262.559,169.8c-16.749-42.829-36.618-64.318-56.07-80.671,42.255,17.787,84.436,58.116,82.233,106.219a16.852,16.852,0,0,1-22.228,15.758c-28.54-9.782-46.4-35.939-50.284-73.652-1.929-18.721-7.419-32.487-13.551-42.4,16.862,13.8,38.589,37.845,53.421,77.186C257.772,176.486,264.093,174.077,262.559,169.8ZM116.323,109.469a81.908,81.908,0,0,0,6.258-10.689c1.9,17.634,3.98,48.214,2.071,88.3a10.447,10.447,0,0,0-6.214,8.57c-2.539-12.237-6.58-22.363-12.057-30.2l2.519-20.065c.435-4.866-.566-9.952-4.216-13.171A115.578,115.578,0,0,1,116.323,109.469ZM85.494,152.124c5.492-5.02,5.116-9.257,9.069-14.123a3.856,3.856,0,0,1,6.562.717,11.2,11.2,0,0,1,.9,5.876l-1.835,14.612a24.532,24.532,0,0,0-17.039-4.166A14.731,14.731,0,0,1,85.494,152.124ZM69.734,266.9c-22.348-8.841-22.015-34.578-18.464-56.723,5.665-36.054,31.167-61.9,49.194-41.112,8.119,10.5,13.16,31.872,13.774,48.619a58.012,58.012,0,0,0-1.464,12.611c-6.767,6.037-13.909,16.339-16.622,33.66A29.543,29.543,0,0,1,69.734,266.9Zm78.53,50.987c-5.426,12.6-23.292,15.623-32.228,5.058-21.052-21.564-17.2-75.928,3.124-88.969a17.927,17.927,0,0,1,25.06,2.8C158.089,253.341,157.9,299.01,148.264,317.885Zm61.408-70.337c4.055,25.573,2.924,59.278-22.847,64.019-10.808,1.895-20.269-4.174-25.984-12.971,3.236-19.767.364-52.567-10.81-65.611-.226-3.429-.924-14.37-1.966-17.537,6.078-19.211,17.469-30.083,33.847-27.038C189.846,190.294,201.355,198.473,209.672,247.548Zm-35.46-89.916,1.117,9.937c.294,5.853,4.988,9.536,7.834,14.031a30.053,30.053,0,0,0-20.206,2.581l1.88-18.53C165.067,160.783,170.368,158.514,174.212,157.632Zm-32.895-31.645c16.22,10.872,21.722,23.021,23.4,28.044a14.486,14.486,0,0,0-6.766,10.921l-2.493,24.57a48.851,48.851,0,0,0-12.064,18.137c-6.336-6.448-.764-17.721-11.781-21.071a621.082,621.082,0,0,0-.54-69.831A46.811,46.811,0,0,0,141.317,125.987Zm-9.055,70.044c.91,5.787,1.757,12.405,6.3,16.6,3.656,3.248,3.567,9.3,3.993,13.761a25.02,25.02,0,0,0-22.584-.946c.792-9.612,4.2-11.8,4.671-20.358l.678-8.729C125.6,192.334,131.6,192.033,132.262,196.031ZM229.13,36.488c42.125-5.556,74.712,3.3,90.371,7.551a4.622,4.622,0,0,1,1.07,8.5,108.309,108.309,0,0,1-92.318,7.174,136.351,136.351,0,0,0-24.081-6.564c11.219-2.4,19.186-3.643,20.642-3.863,43.149.013,70.525,3.293,70.8,3.327,4.488.485,5.375-6.236.839-6.873-.276-.034-28.1-3.376-71.822-3.379-9.3-.4-18.543-.334-27.647.1A326.618,326.618,0,0,1,229.13,36.488ZM186.839,50.05C171.186,54.418,140,62.387,127.832,73.79c-6.366,7.433-20.948,7.986-27.8,5.086a3.459,3.459,0,0,0-2.755.025C58.7,96.04,28.673,112.147,17.082,118.544V102.1C29.088,95.469,102.136,56.871,186.839,50.05Z" style="fill:#2b2b2b"/></svg>