<svg id="icons" xmlns="http://www.w3.org/2000/svg" viewBox="0 0 340 340"><title>83_grape</title><path d="M298.855,50.045a2.688,2.688,0,0,0-3.219.14c-3.648,3.054-13.857,9.958-25.1,3.038-14.073-8.66,4.6-14.885,4.6-14.885s-7.438-9.483-8.6-20.434a2.672,2.672,0,0,0-4.57-1.555,65.54,65.54,0,0,1-16.643,12.507c-7.9,3.876-15.785-1.012-18.662-8.805A2.668,2.668,0,0,0,221.8,20a177.892,177.892,0,0,0-7.932,20.38A13.024,13.024,0,0,0,217.3,53.923c6.021,5.584,11.743,13.77,10.831,24.313-.835,9.649-6.871,15.6-13.233,19.237a13.048,13.048,0,0,0-6.14,14.247,96.214,96.214,0,0,0,9.137,24.545,2.7,2.7,0,0,0,4.665.126,12.868,12.868,0,0,1,7.648-5.5s5.954,3.518,6.766,10.284c0,0,15.541-4.565,26.8,2.279a2.666,2.666,0,0,0,4.036-2.717c-1.036-5.988-2.957-14.819.5-21.574,5.5-10.748,12.916-6.712,16.442-3.828a3.548,3.548,0,0,0,4.359.1c5.692-4.2,21.1-14.195,38.538-13.981a2.686,2.686,0,0,0,2.678-3.349C327.9,88.9,319.656,63.907,298.855,50.045Z" style="fill:#aecc76"/><path d="M193.817,21.294c1.378,1.75,3.284,3.664,1.407,5.854-6.583,7.324-30.416,36.112-37.01,75.72H139.579S143.06,60.106,181.762,20.6A8,8,0,0,1,193.817,21.294Z" style="fill:#84994a"/><path d="M184.92,124.213c2.106-18.518-18.784-31.828-34.635-22.268,4.223-13.424-6.429-27.837-20.56-27.6A21.454,21.454,0,0,0,108.273,95.6a22.225,22.225,0,0,0-19.13-10.9C67.6,84.742,58.87,112.476,76.06,124.921c-11.8-.383-26.908,2.967-29.717,21.846-2.873,19.308,9.106,26.421,16,28.887-21.11,11.293-13.815,43.65,10.415,44.493a26.574,26.574,0,0,0,9.04,25.479c14.011,37.107,80.478,35.227,85.99-19.03C192.191,195.6,216.413,137.987,184.92,124.213Z" style="fill:#7b7091"/><path d="M202.481,165.837a3.865,3.865,0,0,1-.926-4.808c8.274-14.369-.778-33.449-16.635-36.816,10.838,11.144,10.287,24.666,4.464,32.07-6.327,8.045-18.373,7.22-18.373,7.22A21.852,21.852,0,0,1,181.1,174.031c6.118,18.22-5.649,31.171-21.857,30.591,1.6,4.448,1.388,9.446.454,14.665-5.917,15.9-17.337,21.863-35.736,15.212-4.339,6.051-8.009,10.829-8.009,10.829-6.453,5.019-20.9,10.971-34.151.3-20.046,5.87-19.9,34.579.836,39.891a20.229,20.229,0,0,0,8.131.311,3.887,3.887,0,0,1,4.4,2.685c2.129,7.314,7.626,13.585,17.3,13.6a2.958,2.958,0,0,1,3.017,3.2,21.308,21.308,0,0,0-.116,2.229c.966,27.871,40.764,28.666,42.864.782a21.381,21.381,0,0,0-.879-6.914,5.065,5.065,0,0,1,2.509-5.949,18.773,18.773,0,0,0,6.433-27.341,2.279,2.279,0,0,1,.721-3.325c13-6.853,16.531-25.376,6.643-36.527a1.547,1.547,0,0,1,1.378-2.53c12.769,2.265,21.886-8.789,21.886-19.858-.308-2.732-.125-5.656,2.6-7.115C211.3,192.255,212.934,174.5,202.481,165.837Z" style="fill:#4b4763"/><path d="M87.977,97.117c4.456,6.634-5.1,13.405-9.881,7.007C73.641,97.491,83.194,90.719,87.977,97.117Z" style="fill:#d8ceef"/><path d="M70.234,140.123c4.677,6.963-5.351,14.072-10.373,7.355C55.184,140.515,65.212,133.406,70.234,140.123Z" style="fill:#d8ceef"/><path d="M73.082,189.011c4.294,6.394-4.913,12.921-9.525,6.754C59.263,189.371,68.471,182.844,73.082,189.011Z" style="fill:#d8ceef"/><path d="M130.005,86.566c3.821,5.689-4.372,11.5-8.475,6.009C117.709,86.886,125.9,81.078,130.005,86.566Z" style="fill:#d8ceef"/><path d="M104.832,140.68c3.821,5.689-4.372,11.5-8.475,6.009C92.536,141,100.729,135.192,104.832,140.68Z" style="fill:#d8ceef"/><path d="M164.313,177.013c3.821,5.689-4.372,11.5-8.475,6.009C152.017,177.333,160.21,171.525,164.313,177.013Z" style="fill:#d8ceef"/><path d="M161.2,110.773c4.558,6.786-5.214,13.713-10.108,7.168C146.532,111.155,156.3,104.228,161.2,110.773Z" style="fill:#d8ceef"/><path d="M298.867,45.943a3.472,3.472,0,0,0-4.3.547c-.434.445-10.744,10.839-22.216,3.784-2.963-1.823-3.65-3.151-3.6-3.6.168-1.484,4.161-3.936,7.479-5.053a3.486,3.486,0,0,0,1.629-5.422c-.1-.125-9.841-12.716-7.706-24.583A3.475,3.475,0,0,0,264,8.891c-.085.11-8.63,11.072-20.226,16.868a9.267,9.267,0,0,1-11.9-3.322,24.919,24.919,0,0,1-3.673-9.082,3.462,3.462,0,0,0-6.429-1.059,161.767,161.767,0,0,0-11.2,27.03,16.523,16.523,0,0,0,4.372,17.132c7.231,6.726,10.521,14.031,9.694,21.869-40.611-7.48-36.807-31.881-24.311-52.472.552-2.117-2.64-4.922-3.766-6.674a11.531,11.531,0,0,0-17.271-1.007A161.346,161.346,0,0,0,143.114,74.8c-13.521-9.184-33.5-1.285-37.385,14.295-22.352-20.77-54.991,7.773-37.355,32.71-41.946,3.232-47.441-54.8-15.513-49.9,9.171,2.413,3.239,15.642-2.28,18.143a25.542,25.542,0,0,1-8.1,3.013,3.463,3.463,0,0,0-2.8,4.015c1.4,5.983,10.713.754,14.32-1,5.864-3.331,9.487-9.089,10.477-16.653,1.332-23.982-40.945-18.1-39.062,11.412-4.355-.695-7.682-2.3-9.89-4.822a14.476,14.476,0,0,1-3.2-9.93,3.462,3.462,0,0,0-6.885-.741,21.368,21.368,0,0,0,4.8,15.143c3.672,4.247,9.082,6.753,16.106,7.466,1.71,6.855,7.853,24.164,27,29.469-14.909,10.752-14.726,40.368,2.155,48.818-17.041,14.765-8.667,43.48,13.371,47a29.776,29.776,0,0,0,3.993,17.091c-10.277-1.029-26.08.429-36.078,15.981a3.462,3.462,0,1,0,5.825,3.744c8.085-12.577,20.808-13.829,29.289-12.975-18.624,15.877-4.321,46.4,19.913,42.09a23.4,23.4,0,0,0,20.2,16.164,24.952,24.952,0,0,0,24.8,27.115c16.905.306,29.412-17.546,23.427-33.32,11.71-4.73,16.828-21.122,9.563-31.957,12.5-7.211,17.09-25.479,8.883-37.811A22.928,22.928,0,0,0,198.863,214.3c3.538,3.5,9.1,6.349,17.861,6.621a3.462,3.462,0,1,0,.215-6.92c-11.419-.354-15.314-6.047-16.642-10.023-.04-.527-.094-1.07-.161-1.612,14.807-7.127,17.251-29.144,4.335-39.4,8.894-14.992.748-36.248-15.982-41.335a26.611,26.611,0,0,0-25.241-26.255c4.759-20.362,13.942-37.417,21.865-49.31-2.445,21.824,12.1,33.84,37.6,38.94a22.978,22.978,0,0,1-9.524,9.46,16.418,16.418,0,0,0-7.8,18.021A99.394,99.394,0,0,0,217.8,143a3.483,3.483,0,0,0,6.387-1.467,9.023,9.023,0,0,1,5.446-6.767,11,11,0,0,1,3.911,6.823,3.488,3.488,0,0,0,4.407,2.911c2.465-.592,20.023-5.4,30.282,7.5a3.49,3.49,0,0,0,4.788-4.189c-.052-.155-5.017-15.7-1.4-27.639a6.571,6.571,0,0,1,11.988-1.475,3.5,3.5,0,0,0,5.41,1.2c.2-.169,20.06-16.838,41.815-14.805A3.485,3.485,0,0,0,334.557,101C334.27,99.47,327.183,63.325,298.867,45.943ZM129.725,77.807a18.061,18.061,0,0,1,17.554,21.942A26.722,26.722,0,0,0,137.2,112.172c-9.423,4.585-21.526-.913-24.51-10.63C108.658,90.178,117.631,77.607,129.725,77.807Zm-17.369,35.841a25.046,25.046,0,0,0,23.05,6.425,26.631,26.631,0,0,0,15.374,25.975,28.751,28.751,0,0,0,1.815,13.243,25.32,25.32,0,0,0-12.735,10.433,25.789,25.789,0,0,0-10.593-10.44c8.325-15.719-3.127-36.376-20.749-37.715A24.839,24.839,0,0,0,112.356,113.648Zm-11.634,59.711a26.3,26.3,0,0,0,24.639-8.3c17.9,8.664,11.963,35.532-8.006,35.729C103.594,201.11,94.1,185.372,100.722,173.359ZM86.5,147.64c.907-25.532,37.679-25.521,38.581,0C124.173,173.172,87.4,173.165,86.5,147.64Zm13.7,53.48a25.665,25.665,0,0,0,10.151,5.61,28.557,28.557,0,0,0,9.327,27.924c-10.643,23.278-45.62,14.4-43.893-11.124C86.688,222.652,97.166,215.562,100.2,201.12Zm25.358,37.3a26.357,26.357,0,0,0,12.685,2.484C150,265.589,112,280.789,103.436,254.806A30.138,30.138,0,0,0,125.557,238.422Zm11.246-4.4c-13.057.227-23-13.455-19.588-26.317a25.684,25.684,0,0,0,22.147-12.451,25.241,25.241,0,0,0,17,12.342C159.868,220.476,149.9,234.252,136.8,234.022Zm24.484-69.354c24.149.858,24.14,35.638,0,36.491C137.138,200.3,137.145,165.521,161.287,164.668ZM88.361,88.947a18.085,18.085,0,0,1,17.995,17.995c-.843,23.815-35.148,23.812-35.99,0A18.016,18.016,0,0,1,88.361,88.947ZM53.19,165.106c-3.36-4.511-4.512-10.51-3.423-17.829,1.517-13.679,13.1-19.656,25.908-18.9a24.732,24.732,0,0,0,9.375,3.257c-8.26,9.985-6.826,26.667,2.829,35.122C76.587,177.829,61.133,174.885,53.19,165.106Zm.085,31.416a20.231,20.231,0,0,1,9.466-17.093c9.754,2.629,20.5,1.966,30.825-8.608.18.1.362.188.545.279a25.8,25.8,0,0,0,.03,21.906C94.379,225.13,54.049,222.8,53.275,196.522ZM70.286,265.46a17.178,17.178,0,0,1,10.871-15.97A29.725,29.725,0,0,0,96.374,255.1a25.682,25.682,0,0,0,7.942,13.622C99.965,288.91,70.73,286.178,70.286,265.46Zm28.066,21.459A24.253,24.253,0,0,0,110.4,272.834a25.7,25.7,0,0,0,18.085,1.606C138.409,296.1,106.558,309.187,98.352,286.919Zm20.695,17.942a23.387,23.387,0,0,0,15.766-12.255,21.322,21.322,0,0,0,18.676,8.251C162.857,329.546,116.55,335.353,119.047,304.861Zm32.619-10.844c-13.419.118-19.529-17.61-9.693-26.28a27.485,27.485,0,0,0,21.446,2.319C170.507,279.5,163.481,294.25,151.666,294.017ZM155.4,264.33a20.306,20.306,0,0,1-10.853-3.111,25.842,25.842,0,0,0,.705-21.668,27.6,27.6,0,0,0,16.379-15.287C183.674,231.643,178.763,263.967,155.4,264.33Zm22.168-41.873a15.807,15.807,0,0,1-13.648-8.1,28.545,28.545,0,0,0-.411-6.379,25.219,25.219,0,0,0,21.618-17.009c5.055,2.461,7.116,7.881,7.569,9.271a18.431,18.431,0,0,0,.719,4.529C194.09,214.229,186.7,222.506,177.567,222.457Zm28.454-41.209a16.818,16.818,0,0,1-7.788,14.251c-1.671-3.587-5.207-9.1-11.8-11.506a24.9,24.9,0,0,0-.7-7.077,28.567,28.567,0,0,0,14.635-8.349A16.76,16.76,0,0,1,206.021,181.248Zm-4.82-32.369a21.727,21.727,0,0,1-18.109,21.487,25.2,25.2,0,0,0-23.62-12.55,21.156,21.156,0,0,1-1.878-9.671,26.7,26.7,0,0,0,30.027-19.458A21.843,21.843,0,0,1,201.2,148.879Zm-19.629-26.957a19.679,19.679,0,0,1-19.657,19.656c-26.015-.924-26.008-38.392,0-39.312A19.679,19.679,0,0,1,181.572,121.922ZM156.013,96.01q-.7.16-1.388.356a24.7,24.7,0,0,0-5.912-16.675,153.953,153.953,0,0,1,35.523-56.672,4.555,4.555,0,0,1,6.837.386l1.314,1.707C185.552,32.729,163.988,59.067,156.013,96.01Zm131.415,16.356c-6.763-7.111-19.88-3.791-22.434,5.8a40.908,40.908,0,0,0-1.607,11.22c-8.609-13.2-18.863-14.906-19.61-32a3.462,3.462,0,0,0-6.919.274c.177,4.457,1.51,15.656,10.055,23.37a73.926,73.926,0,0,1,13.892,17.191c-6.741-2.528-15.131-2.349-21.294-1.16a19.3,19.3,0,0,0-7.54-9.139c-4.02-1.88-10.171,3.468-11.622,5.58a93.249,93.249,0,0,1-8.21-22.534,9.531,9.531,0,0,1,4.48-10.481c6.331-3.614,10.759-8.45,13.11-14.211a122.776,122.776,0,0,0,39.111-.584c6.933-1.2,15.27.319,24.782,4.5a3.439,3.439,0,0,0,1.392.3c3.631.074,4.815-5.193,1.4-6.632-10.781-4.745-20.452-6.42-28.749-4.991a120.582,120.582,0,0,1-23.653,1.7,94.577,94.577,0,0,1,12.5-39.48,3.462,3.462,0,1,0-5.939-3.561A100.1,100.1,0,0,0,237.1,80.169c-2.283-.2-4.177-.439-5.628-.653,1.244-10.184-2.9-19.834-11.817-28.136a9.577,9.577,0,0,1-2.485-9.939,176.057,176.057,0,0,1,7.067-18.426c3.7,8.757,14.007,13.385,22.639,8.938a67.524,67.524,0,0,0,16.44-12.047,47.386,47.386,0,0,0,6.6,16.9C246.872,49.016,278.8,70,297.417,53.251,316.088,66,324.07,88.589,326.693,97.992,308.954,98.125,293.628,107.832,287.428,112.366Z" style="fill:#2b2b2b"/></svg>