<svg id="icons" xmlns="http://www.w3.org/2000/svg" viewBox="0 0 340 340"><title>84_parasol mushroom</title><path d="M217.52,173.354c-2.994,31.007,3.466,85.833,19.553,121.717a101.438,101.438,0,0,1,4.147,11.921A11.327,11.327,0,0,1,230.3,321.33h-32.1a23.16,23.16,0,0,1-22.617-18.2c-6.123-27.836-14.515-84.2-.6-145.11C188.513,147.393,212.832,152.945,217.52,173.354Z" style="fill:#c9a993"/><path d="M179.877,102.589a104.267,104.267,0,0,1-2.108,44.3c-1.014,3.724-1.929,7.434-2.773,11.129,7.5,4.283,21.034,10.475,42.529,15.333,3.284-44.361,18.12-66.723,18.12-66.723Z" style="fill:#846855"/><path d="M74.052,244.1a49.083,49.083,0,0,1-1.573,10.879c-2.923,11.2-5.994,28.242-6.03,50.486A15.784,15.784,0,0,0,82.2,321.33h30.707a9.157,9.157,0,0,0,8.973-11.107c-.984-5.268-5.355-11-5.406-16.849A301.466,301.466,0,0,1,116,256.248C109.1,239.665,84.668,236.616,74.052,244.1Z" style="fill:#c9a993"/><path d="M71,225.873A46.888,46.888,0,0,1,74.05,244.1c10.082,5.1,25.123,11.05,41.952,12.146.7-13.628,2.521-28.726,6.553-42.463l-54.174-1.826S67.318,216.251,71,225.873Z" style="fill:#846855"/><path d="M40.26,51.418s13.876,53.823,114.6,57.1c42.343,2.5,178.651,26.678,181.9-46.011L230.372,46.05,118.989,66.18S58.153,65.733,40.26,51.418Z" style="fill:#e2c0a1"/><path d="M80.124,148.392a131.545,131.545,0,0,0-31.559,8.632c-15.846,7.068-30.468,2.218-43.172,21.9a13.9,13.9,0,0,0,3.5,18.377c23.438,22.245,123.1,28.549,159.423,10.062a16.415,16.415,0,0,0,3.88-26.738,55.767,55.767,0,0,0-18.276-11.006,84.94,84.94,0,0,1-18.451-9.68C122.4,150.167,98.62,144.984,80.124,148.392Z" style="fill:#fff4e6"/><path d="M58.7,149.775c-5.434,7.749,3.825,12.808,12.82,12.118,9.916-.093,16.663-12.588,7.66-16.372C73.174,143.249,62.9,144.4,58.7,149.775Z" style="fill:#8e7866"/><path d="M103.958,143.823a25.427,25.427,0,0,0-6.095,4.595A8.232,8.232,0,0,0,99.718,161.4a16.579,16.579,0,0,0,5.345,1.654c9.614,1.6,19.749-7.958,12.19-15.924C113.881,143.527,108.665,141.1,103.958,143.823Z" style="fill:#8e7866"/><path d="M93.979,180.937l-5.156,4.688A5.394,5.394,0,0,0,92.194,195l6.571.313c7.485-.092,6.3-9.073,3.158-13.627A5.35,5.35,0,0,0,93.979,180.937Z" style="fill:#8e7866"/><path d="M122.491,173.989c-5.9,3.661-4.483,10.479,1.391,13.431,2.172,1.068,4.795.789,7.19.049a6.389,6.389,0,0,0,3.312-9.811C131.729,173.449,127.074,170.575,122.491,173.989Z" style="fill:#8e7866"/><path d="M54.661,182.611c-2.961,3.118-9.188,6.951-13.2,2.753l-1.872-1.837c-4.985-5.381.181-10.973,5.779-13.351,3.518-1.55,6.533.5,9.149,3.017A6.572,6.572,0,0,1,54.661,182.611Z" style="fill:#8e7866"/><path d="M83.718,170.557c3.39,3.157-1.22,8.277-4.714,5.237C75.615,172.638,80.224,167.517,83.718,170.557Z" style="fill:#8e7866"/><path d="M70.318,187.484c3.389,3.157-1.221,8.278-4.715,5.238C62.214,189.565,66.824,184.445,70.318,187.484Z" style="fill:#8e7866"/><path d="M23.767,181.514c3.39,3.157-1.22,8.277-4.714,5.237C15.664,183.594,20.273,178.474,23.767,181.514Z" style="fill:#8e7866"/><path d="M142.259,196.589c3.389,3.157-1.221,8.277-4.715,5.237C134.155,198.669,138.765,193.549,142.259,196.589Z" style="fill:#8e7866"/><path d="M155.236,183.676c3.389,3.157-1.22,8.277-4.714,5.237C147.133,185.757,151.742,180.636,155.236,183.676Z" style="fill:#8e7866"/><path d="M40.26,51.418C62.058,79.346,141.029,95.444,206.62,73a146.841,146.841,0,0,1,51.23-6.767c11.347.523,25.06,1.559,40.068,3.529,17.916,2.351,30.435-1.82,38.849-7.25,0,0-3.063-16.459-35.718-16.459-9.931,0-21.725-3.92-33.33-9.377C229.708,18.262,171.93,23.4,130.387,40.48,104.433,51.206,72.135,58.675,40.26,51.418Z" style="fill:#fff4e6"/><path d="M132.414,44.843c-5.238-1.612-7.121-7.131-3.7-10.9,3.491-4.486,12.16-6.225,17.2-4.4a7.722,7.722,0,0,1,5.642,9.737C149.839,47.5,139.932,46.914,132.414,44.843Z" style="fill:#8e7866"/><path d="M171.955,33.809a7,7,0,0,1-2.465-11.5,12.912,12.912,0,0,1,9.276-3.708,27.925,27.925,0,0,1,13.047,3.466c6.374,3.657,4.163,12.06-2.631,13.768C184.747,37.123,177.4,35.88,171.955,33.809Z" style="fill:#8e7866"/><path d="M214.208,21.6c-8.564,3.272-4.612,13.829,3.929,16.06a18.4,18.4,0,0,0,17.539-3.853,6.575,6.575,0,0,0-2.144-11.026,37.6,37.6,0,0,0-8.894-1.976A26.305,26.305,0,0,0,214.208,21.6Z" style="fill:#8e7866"/><path d="M259.038,32.028c-5.184-.114-7.681,3.845-9.357,8.942-1.432,6.773,8.05,9.279,12.433,5.522l10.2-7.745S269.379,32.778,259.038,32.028Z" style="fill:#8e7866"/><path d="M164.056,50.627l6.657-2.077a5.848,5.848,0,0,1,7.306,3.76c1.511,4.51,3.5,9.938-2.318,12.18-4.883,1.6-12.538,2.406-15.5-6.54A5.82,5.82,0,0,1,164.056,50.627Z" style="fill:#8e7866"/><path d="M197.551,49.064c3.524-2.124,6.893-4.956,10.671-1.359l3.044,3.154a5.594,5.594,0,0,1-1.548,8.893c-3.089,1.54-7.324,2.106-12.332-1.211A5.6,5.6,0,0,1,197.551,49.064Z" style="fill:#8e7866"/><path d="M125.53,56.5a30.033,30.033,0,0,1,7.087,3.906,5.689,5.689,0,0,1-1.829,9.945A41.726,41.726,0,0,1,122.8,72a5.656,5.656,0,0,1-6.059-6.639,40.393,40.393,0,0,1,1.319-5.28A5.7,5.7,0,0,1,125.53,56.5Z" style="fill:#8e7866"/><path d="M99.683,61.881c3.389,3.157-1.221,8.277-4.715,5.237C91.579,63.961,96.189,58.841,99.683,61.881Z" style="fill:#8e7866"/><path d="M151.91,65.881c3.389,3.157-1.22,8.277-4.714,5.237C143.806,67.961,148.416,62.841,151.91,65.881Z" style="fill:#8e7866"/><path d="M230.3,51.434c3.389,3.157-1.22,8.277-4.714,5.237C222.193,53.514,226.8,48.394,230.3,51.434Z" style="fill:#8e7866"/><path d="M280.969,53.263c3.39,3.157-1.22,8.277-4.714,5.237C272.866,55.343,277.476,50.223,280.969,53.263Z" style="fill:#8e7866"/><path d="M305.574,55.307c3.389,3.157-1.22,8.277-4.714,5.237C297.47,57.387,302.08,52.267,305.574,55.307Z" style="fill:#8e7866"/><path d="M301.049,42.588c-7.134,0-16.028-2.237-26.426-6.628-1.151-2.3-9.012-8.2-17.48-7.311a125.616,125.616,0,0,0-17.126-4.571c-3.648-7.889-27.256-9.588-31.962-2.237-3.666.1-7.308.264-10.878.489-7.884-9.49-31.336-10.83-33.183,4.2-4.076.812-8.049,1.73-11.864,2.741-8.373-8.16-29.55-3-28.515,10.274-25.283,9.216-53.492,15.1-83.544,8.419a3.485,3.485,0,0,0-3.256,3.717c12.938,35.453,51.975,57.375,117.935,60.3a205.952,205.952,0,0,1,22.89,2.062c1.846,20.7-6.135,39.092-9.185,59.214-9.2-6.41-22.117-9.288-31.007-16.157a69.234,69.234,0,0,0-14.806-7.774c-3.019-7.589-12.75-12.91-20.339-8.545h0a29.371,29.371,0,0,0-4.8,3.274,89.429,89.429,0,0,0-13.6.381c-8.2-6.628-26.137-3.842-29.843,6.745-7.2,2.651-14.231,6.027-21.784,6.911-7.478,1.091-21.3,5.014-29.842,19.029C-11.3,202.454,32.113,215.469,65.53,219.774a51.88,51.88,0,0,0,2.24,7.337,43.973,43.973,0,0,1,1.359,27c-2.781,10.656-6.1,28.216-6.143,51.355A19.246,19.246,0,0,0,82.2,324.792h30.706a12.62,12.62,0,0,0,9.9-4.754c4.774-5.715,2.375-13.21-.745-19.2-4.958-12.362-4.026-52.457,2.238-80.133,16.455-1.269,29.837-3.87,39.976-7.793a358.311,358.311,0,0,0,7.936,90.966,26.461,26.461,0,0,0,26,20.919h32.1c9.473.261,17.031-9.656,14.254-18.72a104.53,104.53,0,0,0-4.29-12.333c-29.424-65.922-20.234-151.787-6.543-175.792,44.871-.4,106.4-5.874,106.446-56.072C339.756,59.981,335.275,42.641,301.049,42.588Zm-48.027-.708c.877-2.665,2.354-6.241,5.515-6.408a16.011,16.011,0,0,1,8.712,2.777l-7.228,5.485a4.979,4.979,0,0,1-6.45-.187A1.445,1.445,0,0,1,253.022,41.88ZM213.2,26.585a3.286,3.286,0,0,1,2.01-1.67h0c5.256-1.611,12.1-.662,17.141,1.122a3.084,3.084,0,0,1,1.005,5.2,14.9,14.9,0,0,1-14.256,3.1C215.6,33.343,211.936,30.184,213.2,26.585ZM171.9,24.8c4.494-4.986,14.28-1.983,18.281.325,3.588,2.1,1.852,6.49-1.961,7.389-3.217.931-9.68.1-15.032-1.94A3.5,3.5,0,0,1,171.9,24.8ZM131.274,36.271c3.6-5,19.072-6.482,16.85,2.539-.248,1.817-2.089,3.35-4.378,3.645C140.2,43.04,127.171,42.493,131.274,36.271Zm-23.2,15.574a153.058,153.058,0,0,0,18.9-6.183,11.868,11.868,0,0,0,4.426,2.49h0c10.9,3.413,24.763,1.483,23.841-12.536,3.427-.879,6.98-1.68,10.618-2.4,3.756,5.27,12.747,6.238,19.028,6.6,6.552.294,13.666-3.724,14.159-10.656q3.447-.2,6.955-.321c1.665,15.888,29.658,17.827,34.994,2.5q4.311.922,8.529,2.158c-6.373,8.257-3.691,17.519,7.306,18.235a12.215,12.215,0,0,0,7.382-2.485l8.612-6.536c10.884,4.508,20.378,6.8,28.229,6.8,22.168,0,29.269,7.705,31.429,11.534-9.41,5.241-20.866,7.018-34.11,5.278-13.2-1.732-26.781-2.928-40.359-3.553A149.91,149.91,0,0,0,205.57,69.7C155.094,87.7,80.531,81.146,51.7,57.047,71.84,59.4,92.86,55.753,108.07,51.845Zm-2.459,95.02c4.934-3.16,14.46,4.9,9.282,9.72a11.686,11.686,0,0,1-13.555,1.757,4.439,4.439,0,0,1-2.32-3.3C98.438,151,102.613,148.733,105.611,146.865Zm-44.328,5.217a12.406,12.406,0,0,1,7.475-3.928c3.188-.413,12.33-1,11.02,4.19-1.357,3.832-4.127,5.825-8.471,6.094C66.84,158.854,58.093,156.987,61.283,152.082Zm51.625,165.785H82.2a12.172,12.172,0,0,1-8.669-3.6,12.341,12.341,0,0,1-3.622-8.8c.036-22.409,3.239-39.351,5.918-49.618,3.386-12.059,1.444-24.116-2.972-35.325a334.1,334.1,0,0,0,44.218.637c-6.438,28.365-5.01,59.858-4.052,72.469.1,6.47,4.133,11.434,5.481,17.343A5.729,5.729,0,0,1,112.908,317.867ZM98.942,214.689C49.116,215.046-2.82,199.773,8.35,180.725c6.715-11.016,17.262-14.662,24.929-15.781,7.369-.915,14.44-3.8,21.407-6.627,2.993,5.152,8.923,7.339,17.048,7.032,8.113-.377,14.809-6.2,15.122-14.23,1.908-.148,3.8-.224,5.687-.241-4.544,18.135,24.74,21.13,30.184,5.967a61,61,0,0,1,10.754,5.931,88.578,88.578,0,0,0,19.2,10.078c9.349,3.946,22.857,10.365,21.169,21.6C172.334,209.8,137.01,214.224,98.942,214.689Zm122.289,42.643A237.854,237.854,0,0,0,233.876,296.4a97.48,97.48,0,0,1,4.007,11.51,7.866,7.866,0,0,1-7.579,9.954h-32.1a19.582,19.582,0,0,1-19.236-15.482,350.873,350.873,0,0,1-7.607-92.769c11.041-6.425,12.812-22.858,3.282-31.43,2.89-21.591,11.646-41.225,9.978-63.3,11.6,1.316,26.122,2.569,41.63,2.954C218.09,137.847,204.961,185.017,221.231,257.332Zm99.974-166.75c-44.539,33.663-126.872,16.327-166.228,14.478-58.086-3.24-82.63-16.468-102.62-39.012C83.411,88.934,159.087,93.82,207.668,76.3a143.009,143.009,0,0,1,50.022-6.608c13.385.616,26.768,1.8,39.778,3.5,13.479,1.765,25.392.2,35.528-4.638A34.115,34.115,0,0,1,321.205,90.582Z" style="fill:#2b2b2b"/><path d="M170.031,68.948c11.472-.264,15.729-6.895,11.28-17.709a9.338,9.338,0,0,0-11.629-5.993l-6.656,2.076h0C150.029,52.185,158.638,69.826,170.031,68.948Zm-6.392-13.8a2.434,2.434,0,0,1,1.449-1.219l6.656-2.076a2.4,2.4,0,0,1,2.983,1.529c.572,2.829,3.108,6.37-.1,7.816-8.751,2.86-10.48-2.368-11.131-4.337A2.216,2.216,0,0,1,163.639,55.15Z" style="fill:#2b2b2b"/><path d="M195.474,61.428c7.335,5.161,18.68,3.839,20.689-5.164a8.954,8.954,0,0,0-2.405-7.808L210.713,45.3a9,9,0,0,0-11.169-1.472L195.768,46.1C190.117,49.262,189.972,58.03,195.474,61.428Zm3.86-9.4,3.776-2.269a2.111,2.111,0,0,1,2.62.345l3.044,3.156a2.1,2.1,0,0,1-.6,3.39c-2.828,1.408-5.732,1.081-8.876-1A2.109,2.109,0,0,1,199.334,52.032Z" style="fill:#2b2b2b"/><path d="M134.7,57.64a33.274,33.274,0,0,0-7.909-4.366h0a9.212,9.212,0,0,0-12.032,5.731c-1.43,4.328-2.858,9.854.848,13.55,4.331,4.751,10.647,2.566,16.186,1.1C138.756,71.8,140.615,61.8,134.7,57.64Zm-3.369,7.623a2.206,2.206,0,0,1-1.557,1.773,38.007,38.007,0,0,1-7.321,1.514c-4.1-.215-1.6-5.179-1.11-7.4a2.233,2.233,0,0,1,2.918-1.429C126.451,60.773,131.867,62.667,131.335,65.263Z" style="fill:#2b2b2b"/><path d="M91.651,178.375h0l-5.157,4.688c-5.819,5.077-2.192,15.182,5.537,15.4,4.192.115,10.182,1.349,13.316-2.337,4.41-4.281,2.226-12.34-.6-16.432A8.866,8.866,0,0,0,91.651,178.375Zm7.278,13.483-6.57-.312a1.944,1.944,0,0,1-1.207-3.359l5.156-4.688a1.869,1.869,0,0,1,2.787.19C100.061,185.037,102.856,191.711,98.929,191.858Z" style="fill:#2b2b2b"/><path d="M120.372,171.25h0c-8,5.1-6.014,15.459,1.983,19.276,9.558,4.383,21.431-4.874,14.832-14.9C133.525,169.681,126.344,166.668,120.372,171.25Zm11.591,11.024c-.795,2.382-4.545,2.8-6.553,2.039-2.365-1.02-4.733-4.548-2.059-6.611,1.744-1.638,4.063-2.582,6-.68C130.5,178.388,132.723,180.145,131.963,182.274Z" style="fill:#2b2b2b"/><path d="M53.478,167.924a9.926,9.926,0,0,0-9.511-.914c-9.444,3.989-13.95,13.427-4.93,20.827C50.359,197.948,70.383,177.76,53.478,167.924Zm-1.271,12.244h0c-2.221,1.946-5.545,5.131-8.32,2.725-.971-1.051-2.95-2.4-2.8-4.038-.01-2.6,4.52-5.409,6.782-5.741,1.737.051,2.984,1.526,4.277,2.6A3.122,3.122,0,0,1,52.207,180.168Z" style="fill:#2b2b2b"/></svg>