<svg id="icons" xmlns="http://www.w3.org/2000/svg" viewBox="0 0 340 340"><title>85_red pine mushroom</title><path d="M70.237,255.692a170.353,170.353,0,0,1-3.6,23.922c-2.572,11.051-2.662,22.792-2.066,31.984a17.952,17.952,0,0,0,17.925,16.78H99.415A17.944,17.944,0,0,0,117.329,309.1c-.47-6.167-1.26-13.457-2.578-21.328a89.179,89.179,0,0,1-.4-27.192C107.157,248.493,81.688,246.327,70.237,255.692Z" style="fill:#f7c9bc"/><path d="M70.235,255.692a98.475,98.475,0,0,0,44.12,4.892c1.319-9,3.957-18.552,8.742-26.181l-52.121-2.961A219.582,219.582,0,0,1,70.235,255.692Z" style="fill:#d37c71"/><path d="M162.827,171.59a65.036,65.036,0,0,0,17.69,9.875c24.166,9.229,25.841,37.883,15.893,62.408a88.19,88.19,0,0,0-4.188,11.955,15.819,15.819,0,0,0,15.3,19.908h39.307a19.465,19.465,0,0,0,19.387-17.617,541.38,541.38,0,0,0,1.774-67.133,44.327,44.327,0,0,1,9.882-29.366c1.306-1.6,2.778-3.256,4.438-4.942a35.913,35.913,0,0,0,7.234-11.193C258.614,138.835,193.082,149.146,162.827,171.59Z" style="fill:#f7c9bc"/><path d="M291.139,106.083l-142.095,50.6a59.005,59.005,0,0,0,13.786,14.908,170.249,170.249,0,0,0,44.759-5.964,39.44,39.44,0,0,1,15.921-.958c19.808,3.349,45.005-4.153,66.033-19.18C295.844,130.694,294.992,111.612,291.139,106.083Z" style="fill:#d37c71"/><path d="M62.882,190.179c-24.614-10.3-42.424-.933-51.464,26.856a12.144,12.144,0,0,0,10.4,15.9,222.685,222.685,0,0,0,23.884.956c3.854-1.454,7.439-1.812,10.422.276,15.023,2.1,36.3,5.56,67.828,4.544A32.7,32.7,0,0,0,138.3,234.8c4.121-1.442,8.625-1.471,13.3-.857,7.314-1.512,19.533-5.394,19.039-15.227a99.48,99.48,0,0,0-1.958-17.284,17.465,17.465,0,0,0-17.13-13.62H135.524a47.067,47.067,0,0,1-14.636-2.393c-7.777-2.546-23.212-5.464-45.007.428C72.694,188.311,68.508,189.886,62.882,190.179Z" style="fill:#f49a7a"/><path d="M121.308,66.7S90.531,64.834,75.3,91.569c-13.26,23.271-.139,42.538,18.451,49.19a45.428,45.428,0,0,1,14.681,8.749c6.683,5.889,19.14,13.561,38.679,13.561a107.569,107.569,0,0,0,44.1-9.847,52.449,52.449,0,0,1,21.4-4.812c11.611-.081,31.213-3.064,51.9-18.7a77.156,77.156,0,0,1,31.555-13.864c13.654-2.722,30.692-10.735,32.906-33.6,3.582-36.994-28.911-59.066-48.807-64.972-17.247-5.12-72.122-16.165-118.131,19.274,0,0-12.87,8.923-26.626,19.248C133.914,61.59,129.356,65.321,121.308,66.7Z" style="fill:#f49a7a"/><path d="M161.3,101.411c-10.326-22.245,36.943-52.468,67.337-49.3A21.779,21.779,0,0,1,248.6,74.08c-.178,8.211-3.359,17.515-14.844,23.141C209.6,109.051,178.8,110.037,161.3,101.411Z" style="fill:#c95647"/><path d="M128.07,97.235c8.024-1.389,20.625-1.925,33.229,4.176l5.208-11.568s-21.166-7.064-39.692,4.017A1.833,1.833,0,0,0,128.07,97.235Z" style="fill:#c95647"/><path d="M274.41,59.1c3.39,3.156-1.22,8.277-4.714,5.237C266.307,61.175,270.916,56.055,274.41,59.1Z" style="fill:#2b2b2b"/><path d="M262.054,76.639a3.462,3.462,0,0,0-4.8.947,33.893,33.893,0,0,1-7.029,6.7c3.745-10.412,1.358-22.623-6.98-29.759a57.646,57.646,0,0,1,10.825-6.43c4.175-1.8,1.6-8.062-2.637-6.4A63.949,63.949,0,0,0,236.9,50.653c-15.958-5.352-31.854-.681-49.59,8-5.362-5.346-8.723-9.979-12.158-6.209-2.41,4.419,1.615,4.755,5.932,9.7C159.824,75.012,156.337,88,156.629,95.769c-19.729-6.659-37.586.121-38.411.443a3.462,3.462,0,0,0,2.51,6.454c-.015-.286,21.22-7.28,39.816,2.124,20.45,9.5,46.58,6.525,67.665-1.36C254.326,94.043,262.66,81.953,263,81.443A3.463,3.463,0,0,0,262.054,76.639Zm-98,22.241C162.99,95.2,161.3,81.842,185.6,67.514a32.9,32.9,0,0,1,4.237,7.7,3.463,3.463,0,0,0,3.247,2.26c7.42-1.039.625-10.051-1.368-13.308,11.728-5.9,27.861-10.887,39.347-8.108a49.124,49.124,0,0,0-8.272,11.688c-1.962,4.091,4.071,7.144,6.194,3.1a43.257,43.257,0,0,1,8.861-11.761c4.028,2.916,6.74,7.671,7.3,14.918-.2,9.246-4.542,16.011-12.907,20.107C210.469,104.772,181.5,106.739,164.05,98.88Z" style="fill:#2b2b2b"/><path d="M151.553,184.348H135.525a43.571,43.571,0,0,1-13.56-2.222c-9.684-3.17-30.124-6.761-59.053,4.327-14.3-5.956-32.215-5.691-43.336,7.856-4.675,5.62-8.526,12.9-11.442,21.629-3.325,9.149,3.658,19.781,13.359,20.438a235.668,235.668,0,0,0,26.51.929c6.915-.243,12.411,1.046,19.563,1.981-.122,9.3-.9,24.912-4.306,39.543-2.225,9.562-2.947,20.663-2.148,32.993a21.461,21.461,0,0,0,21.38,20.018H99.415c12.093.256,22.541-10.953,21.366-23-2.221-24.367-8.082-42.867,2.141-66.643a35.708,35.708,0,0,0,16.085-3.882c5.637.894,36.305-2.062,35.094-19.71C173.547,203.243,172.074,185.477,151.553,184.348Zm-38.194,64.181a91.618,91.618,0,0,0-2.024,39.818c1.145,6.828,2,13.9,2.541,21.019a14.482,14.482,0,0,1-14.461,15.55H82.492a14.521,14.521,0,0,1-14.47-13.542c-.745-11.489-.059-22.2,1.983-30.975,3.455-14.846,4.314-30.563,4.473-40.256a341.745,341.745,0,0,0,40.916,2.2C114.659,244.294,113.975,246.354,113.359,248.529Zm50.778-23.323c-4.9,3.509-10.844,5.074-15.76,5.749,2.094-2.45,4.8-6.791.856-8.742a3.462,3.462,0,0,0-4.567,1.767c-2.817,6.287-13.264,11.331-20.838,11.266-35.031,1.322-52.266-3.361-73.682-4.82l1.089-4.172c1.074-4.423-5.48-6.135-6.7-1.748l-1.518,5.816c-6.989-.019-13.987.068-20.871-.84a8.732,8.732,0,0,1-7.445-11.35c2.644-7.913,6.075-14.438,10.2-19.4,10.051-12.213,25.914-10.03,36.578-5.393A62.309,62.309,0,0,0,88.6,199.605a3.462,3.462,0,1,0,0-6.924,54.155,54.155,0,0,1-15.759-2.341c22.938-7.125,39-4.242,46.974-1.633a50.492,50.492,0,0,0,15.715,2.565h16.028A14.046,14.046,0,0,1,165.3,202.163a96.165,96.165,0,0,1,1.882,16.66A7.5,7.5,0,0,1,164.137,225.206Z" style="fill:#2b2b2b"/><path d="M281.148,13.951c-11.5-3.413-71.369-18.5-121.16,19.8-1.421.987-23.146,16.12-39.855,29.455-7.294,0-33.423,1.559-47.842,26.651-13.106,21.754-3.059,46.006,20.292,54.164a41.785,41.785,0,0,1,13.559,8.087c7.1,7.269,26.627,16.172,46.015,14.285a68.937,68.937,0,0,0,27.166,18.323c23.319,8.711,22.238,38.214,13.908,57.785a92.132,92.132,0,0,0-4.351,12.424c-3.543,11.79,6.344,24.624,18.644,24.275h39.307a22.834,22.834,0,0,0,22.833-20.752,545.39,545.39,0,0,0,1.789-67.566,40.861,40.861,0,0,1,9.105-27.074c12.354-11.52,17.759-28.077,17.007-44.746,20.625-4.385,32.994-17.31,34.851-36.484C336.1,44.49,303.777,20.67,281.148,13.951Zm-1.3,140.3c-9.937,9.628-15.838,22.854-15.312,36.845a538.6,538.6,0,0,1-1.761,66.7,15.939,15.939,0,0,1-15.94,14.483H207.524c-7.871.218-14.232-7.982-11.96-15.541a85.245,85.245,0,0,1,4.023-11.487c10.1-23.086,9.351-57.153-17.874-67.031a61.757,61.757,0,0,1-20.62-12.645,110.936,110.936,0,0,0,16.9-3.689,19.2,19.2,0,0,0,9.354,7.2,21.263,21.263,0,0,1,8.845,6.3c1.217,1.548,2.068,3.6,4.263,3.5a3.485,3.485,0,0,0,2.967-5.243,22.653,22.653,0,0,0-1.854-2.619,28.2,28.2,0,0,0-11.714-8.393,13.692,13.692,0,0,1-4.87-3.09c6.481-2.382,11.788-5.461,18.36-6.666,3.076,3.017,11.8,13.506,11.451,35.123a3.464,3.464,0,0,0,3.406,3.518h.057a3.464,3.464,0,0,0,3.462-3.406c.3-18.576-5.548-30.085-10.1-36.2a84.778,84.778,0,0,0,21.248-2.748c-2.132,7.2-4.336,19.679-1.588,36.261a3.462,3.462,0,1,0,6.831-1.132c-3.351-20.229,1.373-33.8,3.021-37.727a96.178,96.178,0,0,0,18.961-9.541c.842,3.736.988,10.308-4.17,18.907-5.169,8.621-8.771,19.913-9.174,28.77a3.462,3.462,0,0,0,6.916.315c.356-7.795,3.574-17.814,8.2-25.524,7.465-12.446,5.842-22.016,4.206-26.626a71.867,71.867,0,0,1,24.613-12.148C290.825,131.982,287.671,146.3,279.844,154.249Zm45.68-72.34c-3.964,33.515-34.866,30.586-61.251,33.232A41.992,41.992,0,0,0,249.982,119a3.462,3.462,0,1,0,2.95,6.264,35.1,35.1,0,0,1,11.944-3.225l5.779-.5a75.5,75.5,0,0,0-8.235,5.408c-14.944,11.593-33.84,18.09-49.832,18.005a55.545,55.545,0,0,0-22.819,5.125,82.716,82.716,0,0,1-10.306,4.184,3.293,3.293,0,0,0-1.5.487c-21.748,6.864-51.176,7.731-67.245-7.834a48.664,48.664,0,0,0-15.8-9.41c-19.385-6.849-27.533-26.042-16.61-44.218C90.69,71.55,113.9,70.126,119.77,70.126c5.911-.039,25.829.208,35.953-5.456a3.462,3.462,0,1,0-3.605-5.912c-3.954,2.411-12.763,3.582-20.3,4.106,15.525-11.91,31.893-23.261,32.328-23.577C229.281-8.269,330.219,16.459,325.524,81.909Z" style="fill:#2b2b2b"/></svg>