<svg id="icons" xmlns="http://www.w3.org/2000/svg" viewBox="0 0 340 340"><title>86_white mushroom</title><path d="M115.85,329.2s-72.633,2.71-80.844-44.7a224.413,224.413,0,0,1-3.429-41.581H64.712Z" style="fill:#bf977c"/><path d="M26.088,250.858H73.7s1.754-45.853-31.071-45.853c-19.86,0-27.063,16.784-29.654,30.043A13.319,13.319,0,0,0,26.088,250.858Z" style="fill:#bf977c"/><polygon points="229.03 103.777 205.655 100.07 205.655 246.723 234.558 249.323 229.03 103.777" style="fill:#bf977c"/><path d="M229.617,140.239c-.53,36.88-4.743,90.641-23.962,106.484v42.422L261.6,260.863c6.1-52.15,6.616-69.757,3.494-124.753C256.608,128.1,236.329,131.539,229.617,140.239Z" style="fill:#fff4e6"/><path d="M265.1,136.11c-.761-12.977-1.742-25.89-2.879-32.333H229.03s.887,15.508.586,36.462Z" style="fill:#e2c0a1"/><path d="M286.182,91.127c-4.061-17.968-24.3-31.037-48.6-26.759,0,0-22.835,16.118,5.415,30.164C288.27,117.043,286.182,91.127,286.182,91.127Z" style="fill:#fff4e6"/><path d="M269.319,110.693a17.045,17.045,0,0,0,16.854-19.565c-.161,6.379-14.4,7.034-14.4,7.034h-12.5a19.022,19.022,0,0,1-19.055-19.1,43.183,43.183,0,0,0-2.639-14.694c-15.506,2.544-24.5,11.592-29.713,21.027a17.034,17.034,0,0,0,14.886,25.3Z" style="fill:#e2c0a1"/><path d="M214.978,309.3H163.219V112.7c9.075-12.626,37.205-19.408,47.951-10.579C210.628,163.311,212.221,239.642,214.978,309.3Z" style="fill:#fff4e6"/><path d="M163.219,112.7l47.952-10.579c.184-20.75.613-39.764,1.327-56.182H163.219Z" style="fill:#e2c0a1"/><path d="M225.912,52.82c-5.336-12.173-19.429-22.624-38.685-20.282-13.147,5.312-12.232,26.69,0,37.042C211.333,83.413,234.558,73.181,225.912,52.82Z" style="fill:#fff4e6"/><path d="M163.219,309.3h51.759c-1.148-29-2.093-59.149-2.768-88.886H163.219Z" style="fill:#bf977c"/><rect x="115.85" y="45.935" width="47.37" height="169.841" style="fill:#e2c0a1"/><path d="M230.285,65.886a56.9,56.9,0,0,0-4.374-13.066c4.567,18.717-19.4,16.768-19.4,16.768h-.561a15.687,15.687,0,0,1-15.589-17.019,45.641,45.641,0,0,0-3.135-20.03c-9.84,1.148-32.677,6.805-36.054,34.528A13.928,13.928,0,0,0,166.925,82.58a174.939,174.939,0,0,1,47.9-.066A13.914,13.914,0,0,0,230.285,65.886Z" style="fill:#e2c0a1"/><polygon points="83.025 86.943 80.044 283.746 134.074 312.729 118.396 198.641 118.396 84.983 83.025 86.943" style="fill:#bf977c"/><rect x="145.731" y="128.095" width="34.978" height="184.634" style="fill:#bf977c"/><path d="M263.756,173.446h29.809s18.052,133.8-78.587,133.8V278.793S275.612,272.7,263.756,173.446Z" style="fill:#bf977c"/><path d="M186.359,329.205c29.215-1.654,116.647,16.444,125.258-93.254H284.749s-2.859,64.6-68.886,61.454Z" style="fill:#bf977c"/><path d="M176.9,304.222c20.046-4.277,23-20.25,25.123-40.567,3.633-8.712,21.114-13.3,26.979-6.742-.285,18.7-2.757,41.49-11.65,56.735-5.737,9.836-19.606,15.557-30.992,15.557H174.393C169.44,321.486,171.319,308.185,176.9,304.222Z" style="fill:#fff4e6"/><path d="M163.414,304.868,157.3,329.205h17.09c11.386-7.156,6.8-20.731,2.5-24.989A41.852,41.852,0,0,1,163.414,304.868Z" style="fill:#e2c0a1"/><path d="M83.683,156.639S68.43,305.48,130.593,302.164L157.3,329.2H115.85s-62.017,2.213-63.427-103.216c-.408-30.534-.462-52.815-.332-69.064Z" style="fill:#e2c0a1"/><path d="M145.731,226.707c1.227,17.32-5.983,55.289,19.19,78.682a13.806,13.806,0,0,1,5.067,11.992c-.393,8.285-9.5,14.021-17.662,11.089-10.974-3.624-35.349-17.352-35.349-67.812V233.333C121.813,223.5,141.387,218.024,145.731,226.707Z" style="fill:#fff4e6"/><path d="M259.057,181.31H298.7A13.673,13.673,0,0,0,309.706,159.5c-6.125-8.181-16.239-15.535-32.81-15.535-18.853,0-27.119,9.518-30.684,18.943A13.657,13.657,0,0,0,259.057,181.31Z" style="fill:#bf977c"/><path d="M179.338,41.182c-.434-14.363-7.292-30.438-35.824-30.438-22.1,0-31.952,9.644-36,20.666-2.1,13.554,8.113,20.745,28.5,22.676C164.157,58.367,177.326,53.271,179.338,41.182Z" style="fill:#fff4e6"/><path d="M179.257,46.017c.1-1.571.126-3.193.076-4.835-.651,7.974-12.952,6.53-12.952,6.53s-24.4-1.777-41.444-1.777-17.418-14.527-17.418-14.527l0,0a43.805,43.805,0,0,0-2.466,13.065,15.063,15.063,0,0,0,17.27,15.593,131.572,131.572,0,0,1,39.516-.089A15.055,15.055,0,0,0,179.257,46.017Z" style="fill:#e2c0a1"/><polygon points="145.731 226.707 145.731 198.641 116.977 198.641 116.977 233.333 145.731 226.707" style="fill:#e2c0a1"/><path d="M164.948,184.9c-5.309-10.15-15.128-20.049-33.234-20.049-13.665,0-22.329,5.639-27.823,12.769-2.75,8.263-1.282,15.983,8.447,22.641C151,207.135,168.708,202.11,164.948,184.9Z" style="fill:#fff4e6"/><path d="M119.743,92.887a316.651,316.651,0,0,0-45.757.358A15.046,15.046,0,0,1,59.6,71.166c5.611-10.531,16.492-20.882,37.574-22.549C121.627,46.683,131.49,60.638,135.4,73.78A15.011,15.011,0,0,1,119.743,92.887Z" style="fill:#bf977c"/><path d="M96.916,142.016c-4.251-11.247-13.31-22.427-32.524-22.427-11.4,0-19.494,3.939-25.232,9.493-6.245,15.029-6.924,27.92,20.71,29.941C90.463,162.65,101.8,156.466,96.916,142.016Z" style="fill:#fff4e6"/><path d="M202.79,224.69a248.43,248.43,0,0,1-.772,38.964L229,256.913a260.479,260.479,0,0,0-1.48-32.223Z" style="fill:#e2c0a1"/><path d="M242.823,212.368c-8.642-14.961-40.4-22.879-56.473-8.112-6.721,9.175-6.841,18.52,5.059,28.177l50.906-4.106C245.972,223.581,246.5,218.32,242.823,212.368Z" style="fill:#fff4e6"/><path d="M285.94,242.149h28.139a13.157,13.157,0,0,0,12.8-16.219c-2.647-11.045-9.5-23.672-27.029-23.672-17.612,0-24.276,12.754-26.742,23.839A13.167,13.167,0,0,0,285.94,242.149Z" style="fill:#bf977c"/><path d="M98.5,146.971c-.436-1.629-.961-3.292-1.589-4.954h0c2.5,11.268-10.049,11.147-10.049,11.147H55.8c-16.733-1.77-17.485-16.247-16.634-24.08a43.471,43.471,0,0,0-10.3,16.713,14.244,14.244,0,0,0,13.407,19.051H84.732A14.232,14.232,0,0,0,98.5,146.971Z" style="fill:#e2c0a1"/><path d="M167.11,189.607a51.076,51.076,0,0,0-2.165-4.708c2.864,10.29-8.341,9.9-8.341,9.9H115.017C100,193.434,103.875,177.706,103.9,177.62a43.189,43.189,0,0,0-6.523,12.5,12.43,12.43,0,0,0,11.788,16.4h46.352A12.406,12.406,0,0,0,167.11,189.607Z" style="fill:#e2c0a1"/><path d="M197.968,118.135c-3.139-11.525-11.9-23.438-34.721-23.438-16.22,0-24.773,6.914-29.181,15.3l0,.025a39.216,39.216,0,0,0-3.918,12.826,14.6,14.6,0,0,0,14.493,16.54h39.838C204.164,139.39,197.97,118.146,197.968,118.135Z" style="fill:#bf977c"/><path d="M248.5,224.135a43.058,43.058,0,0,0-5.7-11.8c3.867,16.133-13.769,15.219-13.769,15.219H205.057c-27.922,0-18.841-22.944-18.7-23.292-6.355,5.626-9.885,13.364-11.836,20.009a10.664,10.664,0,0,0,10.221,13.686h53.575A10.654,10.654,0,0,0,248.5,224.135Z" style="fill:#e2c0a1"/><path d="M299.847,198.869c-.531,0-1.054.014-1.574.035.024-4.766-.1-9.521-.358-14.206a17.107,17.107,0,0,0,16.075-9.459,16.877,16.877,0,0,0-1.572-17.767c-9.371-13.2-27.032-19.03-43.638-16.268-.608-11.169-1.24-20.262-1.885-27.123,7.8.562,15.488-2.72,19.673-9.484a20.271,20.271,0,0,0,1.244-19.584c-6.8-16.893-28.916-29.71-55-23.1-6.9-25.484-26.012-37.03-51.738-31.751-5.277-16.349-18.281-22.58-37.562-22.8-35.373.152-41.344,23.3-41.86,37.693C74.183,44.068,45.111,67.963,57.433,88.3c5.259,8.05,13.2,9.1,22.062,7.973l-.34,22.473c-43.617-16.589-75.91,44.721-36.886,49.49h6.378c-.023,10.128.018,21.478.125,33.934C28.9,198.814,14.1,210.759,9.646,234.4c-2.227,11.307,7.431,20.974,18.69,19.848a236.787,236.787,0,0,0,3.331,30.835c4.789,35.717,51.971,48.18,81.9,47.539,1.3,0,2.114-.023,2.352-.031H156.7c.765.051,66.638-.028,67.394,0,.155,0,.5.013,1.017.013,38.454-1.2,82.863-23.842,89.152-87.079,10.305.163,18.573-10.426,15.9-20.386C326.112,208.2,315.343,198.869,299.847,198.869Zm7.147-37.336c5.158,6.379-.127,16.716-8.3,16.389H259.057c-6.911.226-12.333-7.392-9.676-13.813C256.772,141.193,294.991,143.109,306.994,161.533Zm-26.869,82.939c-3.157,15.356-14.138,45.583-51.759,49.278a144.846,144.846,0,0,0,2.81-16.868c16.015-8.318,41.188-31.2,37.044-92.184h22.908c.289,5,.41,10.09.362,15.187C274.863,202.6,257.9,235.137,280.125,244.472Zm-95.384-9.9a7.315,7.315,0,0,1-6.969-9.344c3.4-11.575,11.462-25.374,30.586-25.374,23.953,0,33.289,13.757,36.9,25.3a7.3,7.3,0,0,1-6.946,9.42Zm15.079,6.777c-.09,11.294-.943,26.749-4.219,40.673-2.01,8.543-6.546,13.448-11.5,16.236V241.308c.216.009.428.037.645.037ZM85.88,122.186l.4-26.263c4.216-.18,8.742-.3,13.413-.316v9.029a3.388,3.388,0,0,0,6.776,0V95.66c2.836.056,5.693.16,8.541.317v68.668c-13.679,5.426-27.728,27.046-18.717,38.657,4.332,6.047,10.333,6.967,17.3,6.61.532,21.716-2.561,69.067,5.523,87.386C83.859,287.27,83.74,195.541,86.2,168.169,113.007,163.561,101.212,131.918,85.88,122.186Zm23.281,80.949c-5.993.182-10.676-6.3-8.578-11.924,5.164-15.245,15.638-22.975,31.131-22.975,15.391,0,26.241,7.614,32.25,22.63,2.474,5.657-2.335,12.451-8.451,12.269ZM138.646,72.813a47.156,47.156,0,0,0-4.553-10.6,121.625,121.625,0,0,1,25.738.9v28.3c-18.77,1.164-30.458,12.071-33.051,31.019-1.52,9.573,5.96,19.174,15.562,20.18v20.026a48.932,48.932,0,0,0-20.557-.162V96.3C133.249,96.067,142.3,83.823,138.646,72.813Zm-5.152,50.543c2.294-16.769,12.3-25.271,29.753-25.271,18.781,0,29.663,8.443,32.343,25.093,1.207,6.541-4.5,12.993-11.116,12.824H144.636C138.079,136.159,132.452,129.85,133.494,123.356Zm74.785,69.719c-9.573.016-17.751,3.012-24.183,8.7V142.779c10.807.487,20.166-10,18.184-20.679-1.778-11.051-8.816-29.287-35.673-30.695V86.019A173.863,173.863,0,0,1,208,85.133C207.488,115.989,207.583,152.273,208.279,193.075Zm6.209-80.723c3.513,1.707,7.921,1.839,11.846,1.729.9,16.186,2.027,50.913-2.458,81.053a51.105,51.105,0,0,0-8.814-1.7C214.556,163.925,214.365,136.784,214.488,112.352Zm18.633,1.729h8.957l.58,14.153a3.388,3.388,0,0,0,6.771-.278l-.569-13.875h11.228c.682,7.091,1.352,16.755,2,28.79-14.948,5.264-25.444,22.166-17.116,34.429,3.642,5.43,10.076,7.885,16.458,7.4,3.7,52.629-15.151,74.781-29.521,83.946a253.3,253.3,0,0,0,.26-27.3c31.955,2.676,21.024-33.139-1.81-43.769C235.147,166.733,234.048,130.931,233.121,114.081Zm.862-45.48c18.638-4.993,40.4,1.43,47.7,19.3,4.385,8.633-2.69,19.71-12.36,19.408H222.751a13.38,13.38,0,0,1-8.212-2.743q.077-9.627.223-18.649C224.679,87.3,234.391,78.57,233.983,68.6Zm-51.57-31.792c23.336-4.738,39.38,5.524,44.566,29.82a10.506,10.506,0,0,1-11.7,12.528,178.906,178.906,0,0,0-48.672.047V63.385C180.539,61.077,184.185,49.254,182.413,36.809Zm-38.9-22.676c22.027,0,33.63,9.954,32.361,31.678a11.664,11.664,0,0,1-13.5,10.822A130.127,130.127,0,0,0,129.3,55.81c-4.786-5.084-11.478-9.038-20.852-10.32C108.844,24.948,120.846,14.051,143.514,14.133ZM73.738,89.866c-8.851.964-15.618-9.394-11.147-17.107C69.429,59.184,84.459,51.8,101.607,51.826c15.749,0,26.015,7.7,30.544,22.92C134.64,82.251,127.784,90.332,120,89.51h0C105.533,88.318,86.227,88.887,73.738,89.866Zm-31.47,71.593c-7.288.222-12.886-7.732-10.217-14.52,5.689-15.9,16.57-23.962,32.341-23.962,16.05,0,26.426,8.368,30.839,24.87,1.964,6.624-3.6,13.807-10.5,13.612Zm-16.18,86.01c-6.035.156-11.1-5.86-9.792-11.772,3.846-20.73,15.779-30.061,32.54-26.611.146,12.245.069,26.423,1.414,38.383Zm12.257,36.455a230.141,230.141,0,0,1-3.229-29.678H51.074c4.956,32.18,14.722,53.859,36.036,68.87C66.9,319.038,42.674,308.918,38.345,283.924Zm77.328,41.892c-39.239-1.328-60.668-49.052-59.861-99.877-.3-22.071-.426-41.462-.389-57.7H79.412c-2.847,32.627-1.9,132.141,42.969,136.857a53.742,53.742,0,0,0,17.29,20.72C139.494,325.816,115.835,325.806,115.673,325.816Zm37.716-.563c-39.044-13.409-32.9-67.948-33.023-115.341h8.6V222.2a3.388,3.388,0,0,0,6.776,0V209.912h6.6c1.878,25.257-8.237,72.224,20.444,98.108C171.483,315.423,164.431,328.87,153.389,325.253Zm12.286-23.7c-23.751-24.123-14.834-68.031-16.556-91.64,7.939.224,14.531.236,19.546-6.987,8.721-11.807-6.223-32.455-19.546-38.019V142.779h28.2v66.968c-5.418,8.85-11.431,22.091,0,29.475v61.647A33.94,33.94,0,0,1,165.675,301.552Zm4.747,24.264a17.248,17.248,0,0,0,1.266-17.266c11.2-.588,26.086-6.183,30.509-24.979,3.422-14.546,4.309-30.564,4.4-42.226h18.785c.827,18.966.279,51.332-10.958,70.6-5.257,9.012-18.384,13.875-28.065,13.875Zm92.914-9.463c-28.427,12.781-38.135,8.653-53.623,9.463,9.436-5.542,13.6-14.928,16.792-25.135,44.315-2.967,56.844-37.9,60.319-55.143h20.638C303.673,279.6,288.839,303.414,263.336,316.353Zm58.416-81.312a9.719,9.719,0,0,1-7.673,3.72H285.94a9.836,9.836,0,0,1-9.527-11.929c3.126-14.058,11.011-21.186,23.434-21.186,12.4,0,20.384,7.09,23.733,21.074A9.708,9.708,0,0,1,321.752,235.041Z" style="fill:#2b2b2b"/></svg>