<svg id="icons" xmlns="http://www.w3.org/2000/svg" viewBox="0 0 340 340"><title>87_shiitake</title><path d="M191.466,143.1V153.79A19.722,19.722,0,0,0,206.2,172.928c16.89,3.939,39.668-1.985,41.1-20.155l.374-5.272C240.928,132.374,204.314,132.165,191.466,143.1Z" style="fill:#f2d6c0"/><path d="M247.679,147.5l1.759-24.807-57.972,1.836V143.1C202.608,145.73,225.67,150.094,247.679,147.5Z" style="fill:#d39f88"/><path d="M193.732,312.021c14.74-12.548,27.721-33.4,14.176-51.091l-23.272,13.255C176.865,298.705,179.1,315.826,193.732,312.021Z" style="fill:#f2d6c0"/><path d="M192.32,313.237q.7-.594,1.411-1.217c-6.561-2.3-8.994-10.194-3.809-15.221,11.058-10.44,15.88-25.3,17.983-35.867a49.1,49.1,0,0,0-14.21-12.889L144.53,310.629l16,7.1A30.248,30.248,0,0,0,192.32,313.237Z" style="fill:#d39f88"/><path d="M190.8,187.246a80.163,80.163,0,0,0-15.082-16.87,11.954,11.954,0,0,1-5.942-4.537,78.742,78.742,0,0,0-8.614-5.175c-2.7-.142-5.191-1.507-7.585-3.424-9.735-3.595-37.427-11.9-45.973,3.522l-4.277,91.688s3.18,32.95,20.311,53.443c24.706,8.237,50.414-11.779,64.788-38.7C201.819,241.1,204.947,214.557,190.8,187.246Z" style="fill:#a86862"/><path d="M114.609,310.069l-8.085-42.343s-40.209-6.824-75.613,28.45c4.48,16.67,19.672,23.814,41.2,25.324C91.815,325.274,105.253,320.468,114.609,310.069Z" style="fill:#a86862"/><path d="M196.957,216.226c4.266,65.19-73.248,89.607-73.248,89.607l.314.512a48.538,48.538,0,0,0,8.645,8.024s16.076,6.592,44.241-19.959c30.042-27.9,36.081-75.3,13.883-107.159A101.744,101.744,0,0,1,196.957,216.226Z" style="fill:#723f3b"/><path d="M116.571,320.347l-1.962-10.278c-64.57,17.1-80.278-14.884-80.278-14.884s-1.362.328-3.419.991c-19.624,16.115,18.276,39.338,76.711,33.066C112.288,328.642,116.409,325.773,116.571,320.347Z" style="fill:#723f3b"/><path d="M84.838,160.762a9.683,9.683,0,0,0-11.013-2.494c-2.431.951-10.635,5.2-20.385,13.418-1.63,3.409-3.659,5.6-6.36,5.756a119.964,119.964,0,0,0-32.706,56.163c.37,2.936.11,5.433-1.6,6.919a135.448,135.448,0,0,0-2.413,18.728s-.9,11.742,7.716,15.88c0,0,19.906,8.163,20.353,8.275s64.3-26.728,64.3-26.728S100.713,175.446,84.838,160.762Z" style="fill:#a86862"/><path d="M136.42,30.953c-27.443,4.522-50.381,48.694-14.669,78.786,0,0,21.142,22.635,94.452,22.635,46.33,0,81.6-19.7,101.278-34.2,23.343-18.666,10.332-48.529-15.274-58.318,0,0-12.925,5.586-17.877-11.759,0,0-16.256-19-48.857-14.132,0,0-17.1,10.628-25.615-3.27,0,0-32.421-6.351-55.591,12.172C154.267,22.868,150.555,34.6,136.42,30.953Z" style="fill:#a86862"/><path d="M136.42,30.953s8.4,2.452,17.847-8.085a39.168,39.168,0,0,0,6.871,16.041,20.17,20.17,0,0,0,29.944,2.8A65.739,65.739,0,0,0,209.858,10.7a35.529,35.529,0,0,0,25.615,3.27,41.832,41.832,0,0,0-13.186,13.189c-7.706,12.854,2.978,28.928,17.767,26.5A23.068,23.068,0,0,0,253,47.447a2.3,2.3,0,0,1,3.882,1.487c.566,6.738-1.106,17.785-17.589,19.533a36.464,36.464,0,0,1-26.4-7.036,17.71,17.71,0,0,0-26.753,7.224,48.741,48.741,0,0,0-3.552,13.462,13.81,13.81,0,0,1-13.642,12.267,22.562,22.562,0,0,1-10.267-2.811A1.91,1.91,0,0,1,159,88.044c3.891-1.114,8.784-3.838,8.893-10.494.13-7.942-12.056-18.216-18.972-23.4C141.79,48.758,136.277,40.052,136.42,30.953Z" style="fill:#f4caba"/><path d="M284.33,28.1s7.7,25.182-6.5,41.308a2.3,2.3,0,0,0,2.219,3.757c5.759-1.293,13.615-4.24,18.984-10.95,4.042-5.053,4.25-13.9,3.172-22.356A21.647,21.647,0,0,1,284.33,28.1Z" style="fill:#f4caba"/><path d="M84.838,160.762s-6.208,23-1.149,34.033A119.137,119.137,0,0,0,90.5,207.422c4.23,6.861,7.265,16.8,5.922,24.751-1.317,7.8-3.905,16.772-12.773,22.948a7.341,7.341,0,0,1-11.379-5.136c-1.274-8.876-5.584-21.043-19.238-25.774a3.959,3.959,0,0,0-4.857,5.446c21.545,45.629-17.646,47.7-30.1,45.475,0,0,10.994,10.144,9.385,24.631,0,0,17.281-1.047,26.939-7.256,6.288-4.043,14.223-11.065,24.2-17.313a17.374,17.374,0,0,1,26.228,10.847,61.191,61.191,0,0,1,1.386,11.613c.306,7.109,4.273,16.556,10.349,22.693,0,0,5.289-6.668,16.1-5.978-16.288-20.162-3.593-27.977-16.23-49.151-6.241-9.438-1.489-25.327,11.664-23.012l5.461,1.116a11.034,11.034,0,0,0,11.535-4.884c5.827-9.1,16.341-22.668,29.886-18.887a3.956,3.956,0,0,0,3.906-6.473,35.844,35.844,0,0,0-11.319-8.264,8.753,8.753,0,0,0-10.793,2.921c-4.548,6.325-14.147,15.309-30.549,11.665-22.765-5.059-18.626-58.638-18.626-58.638S96.566,167.891,84.838,160.762Z" style="fill:#f4caba"/><path d="M317.481,98.175A29.808,29.808,0,0,0,326.6,61.138a33.146,33.146,0,0,1-4.852,15.827c-27.014,38.129-91.1,43.452-123.373,43.578-48,.613-95.518-27.523-89.831-67.608-9.041,17.2-7.4,38.693,13.21,56.8,0,0,21.142,22.635,94.452,22.635C262.533,132.374,297.8,112.675,317.481,98.175Z" style="fill:#723f3b"/><path d="M16.011,277.954c1.552,1.592,8.878,9.733,8.084,20.587-12.842,24.2,40.144,36.475,63.647,35.249a193.3,193.3,0,0,0,20.244-1.106c5.915-.518,11.309-4.984,11.949-10.846a16.455,16.455,0,0,1,12.146-4.024c4.868,1.3,10.552.824,17.147-1.31,6.99,3.078,15.792,7.725,23.556,7.276a33.762,33.762,0,0,0,21.77-7.9c21.233-17.694,32.485-42.283,10.6-63.353,13.325-49.294-23.551-101.1-74.751-103.978-3.59-.078-16.912-2.456-25.294,9.654a18.706,18.706,0,0,1-18.065-.17c-9.974-9.469-21.2-.371-36,11.161A124.4,124.4,0,0,0,9.943,237.332C8.314,247.931,1.377,269.654,16.011,277.954Zm91.25,47.845a176.794,176.794,0,0,1-28.307.85c.181-10.455,4.085-22.158,4.128-22.287,1.381-4.333-5.029-6.5-6.56-2.217-.19.562-4.187,12.524-4.48,23.951-3.125-.335-6.033-.774-8.77-1.281a35.939,35.939,0,0,1,2.169-12.52c1.605-4.252-4.678-6.754-6.435-2.559a43.112,43.112,0,0,0-2.664,13.549c-19.654-5.648-29.5-13.21-26.795-20.22,24.928-2,30.015-11.142,50.894-24.934,7.7-5.177,19.3-.52,21.013,8.653,1.613,5.905.653,12.5,2.526,18.289,1.614,4.953,4.447,11.646,8.973,16.531C112.3,324.015,109.827,325.541,107.261,325.8Zm101.833-41c-2.679,8.635-9.251,17.555-19.008,25.8-9.292,7.889-21.757,7.874-32.2,2.179,18.593-9.645,38.088-30.632,44.966-52.649C208.062,266.093,212.28,274.523,209.094,284.8ZM111,161.84c8.376-12.876,36.48-3.8,45.91.606-2.879.683-16.025,10.689-9.408,14.737a3.465,3.465,0,0,0,4.666-1.484c3.5-6.774,10.717-8.22,13.339-8.525a75.171,75.171,0,0,1,6.563,4.693c-3.019,1.4-12.387,5.978-7.948,10.657a3.463,3.463,0,0,0,4.884-.348c2.651-3.059,6.784-4.456,9.016-5.02,30.23,29.034,29.376,78.2,2.169,108.835-4.219-8.308-9.833-11.655-13.461-12.992.326-4.221-.16-11.4-6.113-16.114-3.616-2.763-7.818,2.543-4.3,5.429,3.45,2.732,3.716,7.335,3.511,10.1-11.025.975-15.194-1.586-15.237-1.614l.081.057-4.055,5.612c2.446,2.245,13.451,4.021,22.211,2.585,1.382.24,7.894,1.905,12.226,12.328C153.6,312.3,137.622,312.3,134.714,311.34c-4.332-5.412-8.481-13.952-8.1-21.343a49.677,49.677,0,0,0-7.252-26.627c-4.589-6.646-1.906-19.543,8.044-17.771l13.3,2.716a3.458,3.458,0,0,0,3.813-1.89c.066-.136,6.672-13.687,16.534-20.966,7.084-5.483,15.081-1.932,22.748-.168a3.486,3.486,0,0,0,4.092-4.516c-.177-.5-4.514-12.37-18.853-19.094a12.235,12.235,0,0,0-15.084,4.037c-4.611,6.41-13.035,13.4-26.983,10.3C111.029,212.474,110.01,176.47,111,161.84Zm-23.792,3.942a25.04,25.04,0,0,0,16.685.379c-.848,18.843,2.8,53.525,21.586,56.618,18.559,4.129,29.335-6.384,34.106-13.017a5.3,5.3,0,0,1,6.521-1.811,32.27,32.27,0,0,1,11.262,8.622c-18.548-6.079-31.735,13.65-37.822,24.437l-10.75-2.195c-16.245-2.987-23.154,16.24-15.288,28.247,10.671,17.207,1.634,28.382,12.764,44.246a23,23,0,0,0-9.465,4.153,43.25,43.25,0,0,1-6.242-12.531c-1.532-5.631-.744-11.943-2.346-17.622-2.654-13.827-19.749-20.725-31.453-13.045-18.8,11.658-22.875,21.375-45.69,23.662a33.487,33.487,0,0,0-5.431-16.852c32.76.007,39.288-23.648,25.162-51.929,12.5,3.82,16.758,14.429,18.037,23.333a10.888,10.888,0,0,0,6.475,8.5,10.557,10.557,0,0,0,10.31-1.011c9.994-6.96,12.843-17.13,14.208-25.213,2.49-15.908-7.279-27.21-13-39.4C83.77,186.665,85.568,173.565,87.208,165.782ZM13.82,259.459a133.457,133.457,0,0,1,2.384-18.37,22.675,22.675,0,0,1,9.547,1.728,3.461,3.461,0,0,0,4.6-1.68c2.386-6.156-9.569-6.72-12.57-6.958a115.985,115.985,0,0,1,31.471-54.01,24.047,24.047,0,0,0,4.494,11.895c2.766,3.626,8.21-.388,5.583-4.1-4-5.448-3.406-11.8-3-14.174,9.062-7.516,16.615-11.464,18.755-12.3a6.214,6.214,0,0,1,5.887.465c-1.446,6.153-5.058,24.189-.433,34.279,4.865,10.83,14.676,22.165,12.468,35.359-1.21,7.166-3.5,15.228-11.337,20.684-2.911,1.744-5.516-.2-5.974-2.786-1.513-10.54-7.587-28.526-31.265-30.554a3.487,3.487,0,0,0-3.151,5.407c16.2,26.291,13.978,51.471-22.094,47.438C13.286,268.541,13.811,259.594,13.82,259.459Z" style="fill:#2b2b2b"/><path d="M332.719,78.98C335.88,59.826,320.1,43.1,303.471,36.634c-1.859-.668-10.312.243-16.056-10.1-.94-1.661-18.381-21.138-52.781-15.922C220.786,13.881,212,7.617,210.772,7.374c-1.818-.425-34.179-6.536-58.668,12.79-7.056,8.312-14.541,7.8-14.769,7.449-2.5-.244-20.784,2.146-32.635,25.224-9.969,20.433-4.487,42.634,14.665,59.414,1.849,1.874,18.917,17.782,68.639,22.357V153.79c.267,27.114,36.245,28.865,53.133,16.464a22.921,22.921,0,0,0,9.621-17.236l1.5-21.117a179.582,179.582,0,0,0,67.278-30.939A33.022,33.022,0,0,0,332.719,78.98ZM289.748,39.244a26.069,26.069,0,0,0,9.316,3.711c.729,8.054-.2,13.934-2.733,17.1-3.755,4.694-9,7.323-13.612,8.8C289.528,59.288,290.384,47.769,289.748,39.244ZM205.335,13.575c-4.068,11.569-15.5,31.692-29.649,29.967-10.239-.432-16-12.283-17.586-19.235C174.968,11.978,196.645,12.674,205.335,13.575ZM152.383,29.4c3.113,9.808,10.844,20.212,22.632,21.033,18.457,2,31.444-19.643,36.958-34.868a39.967,39.967,0,0,0,12.666,2.858C202.284,40.64,229.127,69.907,253.5,51.631c-.294,18.1-28.248,15.762-38.488,7.061a20.958,20.958,0,0,0-17.96-3.473c-12.129,3.035-16.465,14.832-17.9,26.46-.989,7.8-8.785,11.034-15.529,8.275a13.489,13.489,0,0,0,7.732-12.347C171.5,68.655,160.365,58.4,151,51.378A28.34,28.34,0,0,1,140.13,34.585,22.812,22.812,0,0,0,152.383,29.4Zm91.468,123.128c-1.5,16.493-23.172,20.256-36.785,17.048a16.241,16.241,0,0,1-12.138-15.786V135.156c15.738,1.092,34.92,1.1,50.287-1.854Zm60.142-49.378a25.8,25.8,0,0,0-3.143-9.011c-2.527-3.744-8.161-.112-5.823,3.746a21.621,21.621,0,0,1,2.467,9.144A172.091,172.091,0,0,1,269,119.966a39.889,39.889,0,0,0-1.605-5.72,10.122,10.122,0,0,1,2.287-8.375,36.391,36.391,0,0,0,7.131-14.632c.827-4.473-5.8-5.813-6.787-1.373a29.3,29.3,0,0,1-5.64,11.544,17.8,17.8,0,0,0-2.143,3.193,30.427,30.427,0,0,0-11.315-9.44c-9.158-4.367-7.845-9.085-7.665-9.609l-.034.086-6.406-2.627c-1.554,3.788-1.227,12.51,11.125,18.4,8.589,4.215,12.695,12.229,14.411,20.7a159.965,159.965,0,0,1-43.963,6.769V113.947a3.463,3.463,0,0,0-6.925,0v14.928c-28.583-.4-48.655-4.373-62.269-8.8a39.015,39.015,0,0,1,1.655-12.742c1.4-4.328-5-6.521-6.551-2.246a45.494,45.494,0,0,0-2.056,12.486,72.006,72.006,0,0,1-15.045-7.845c.262-16.606,12.3-29.023,12.458-29.188,3.145-3.282-1.651-8.049-4.915-4.879-.538.542-11.624,11.885-14.017,28.373-24.61-23.079-13.429-59.91,12.509-68.72a35.034,35.034,0,0,0,13.6,21.6c10.922,8.19,17.661,16.074,17.587,20.575-.121,7.429-9.189,7.837-10.21,7.858a3.463,3.463,0,0,0-1.988,6.264c5.684,4.118,11.3,6.211,16.856,6.232A17.269,17.269,0,0,0,186.02,82.556c1.3-8.8,3.484-18.208,12.787-20.639,13.116-3.388,15.8,12.51,40.847,9.993,19.985-1.73,23.092-18.306,19.532-29.3a3.486,3.486,0,0,0-6.262-.681c-2.625,4.482-7.344,7.342-13.431,8.314-11.707,2.212-20.5-11.352-14.236-21.305A38.578,38.578,0,0,1,236.674,17.3c27.089-3.789,41.718,9.609,44.539,12.525,1.156,4.5,6.527,29.117-10.674,41.54a3.463,3.463,0,0,0,2.067,6.269c9.744-.275,36.053-5.919,33.566-32.1,16.79,9.139,27.208,28.121,14.16,45.157-2.029-12.457-8.563-18.748-8.891-19.054-3.358-3.028-7.957,1.864-4.745,5.043.287.275,6.733,6.656,7.27,19.763C310.91,98.654,307.582,100.906,303.993,103.15Z" style="fill:#2b2b2b"/></svg>