<svg id="icons" xmlns="http://www.w3.org/2000/svg" viewBox="0 0 340 340"><title>88_cotton</title><path d="M214.811,197.939c4.229-5.691,16.405-10.694,24.71-8.137a12.328,12.328,0,0,0,11.577-2.773c9.807-9.042,32.588-22.28,61.7,11.159a39.179,39.179,0,0,1,7.519,12.168c3.743,22.235-20.309,37.817-61.037,49.406C220.838,247,202.5,220.978,214.811,197.939Z" style="fill:#e8f0f9"/><path d="M314.573,237.311c6.186-7.6,9.482-16.688,5.739-26.955-.006.045-4.047,30.893-37.884,28.548a10.546,10.546,0,0,1-9.688-8.955,41.532,41.532,0,0,0-2.7-9.848,6.8,6.8,0,0,0-6.362-4.174c-5.76.079-16.123,1.363-24.1,8.7a13.467,13.467,0,0,1-20.655-2.821,31.7,31.7,0,0,1-4.1-23.861c-6.816,7.834-7.182,17.959-7.182,17.959,5.35,68.919,81.5,74.321,81.5,74.321s27.87-1.3,31.435-19.444a21.835,21.835,0,0,0-5.45-19.746A10.49,10.49,0,0,1,314.573,237.311Z" style="fill:#a7b6c4"/><path d="M111.922,77.614c.93-8.973,6.042-18.7,22.768-21.728,0,0-5.338-47.33,46.973-47.33,44.349,0,42.7,43.771,42.7,43.771,2.7,26.785-13.187,43.9-36.932,56.927C143.313,115.958,116.323,107.066,111.922,77.614Z" style="fill:#e8f0f9"/><path d="M261.732,77.593c-8.059-29.336-37.365-25.266-37.365-25.266s-12.568,1.871-19.2,11a22.074,22.074,0,0,0-4.269,7,5.248,5.248,0,0,1-9.639.079,36.416,36.416,0,0,1-2.62-8.87,3.205,3.205,0,0,0-5.578-1.6,34.68,34.68,0,0,0-3.111,4.256l-5.819,28.846c-2.31-7.013-7.291-15.624-18.051-19.548a2.356,2.356,0,0,0-2.72,3.618,31.391,31.391,0,0,1,6.55,17.651c-6.665-2.136-14.971-3.817-22.5-2.5-10.836,1.9-22.31-3.583-25.448-14.942a40.9,40.9,0,0,0,2.286,17.488c3.04,13.3,19.379,19.086,19.379,19.086,41.28,7.118,45.515,16.014,45.515,16.014,15.266-14.946,54.482-9.836,54.482-9.836S270.629,109.977,261.732,77.593Z" style="fill:#a7b6c4"/><path d="M71.6,125.562c-37.953-19.936-75.876,24.476-37.323,56.129l-5.255,7.056c-1.863,4.133-2.848,10.009.116,17.431,21.629,24.37,52.733,10.852,82.613-8.62,7.487-32.447,5.124-58.016-14.373-71.618C88.835,120.685,78.7,120.685,71.6,125.562Z" style="fill:#e8f0f9"/><path d="M204.5,312.652C189.1,318.935,190.26,331.79,190.26,331.79h-20.9s.37-13.731.658-35.43c.047-24.741-22.637-56.3-33.417-69.016,4.056-6.565,11.409-8.553,22.255,2.3a147.718,147.718,0,0,1,11.5,18.12c.01-29.313-.342-62.972-1.5-95.3a29.528,29.528,0,0,0-27.056-28.381c-1.3-.107-6.7.166-10.559-1.725-5.064-2.482-13.323-7.469-16.1-20.716a2.013,2.013,0,0,1,3.352-1.876,28.463,28.463,0,0,0,19.71,8.334c15.584,0,26.226.38,30.407,5.321,0,0-5.87-24.861,11.351-49.241a2.015,2.015,0,0,1,3.582.566,60.589,60.589,0,0,0,6.732,14.468s11.022,18.624,0,36.108c0,0,42.39-21.368,64.817,11.377a2.013,2.013,0,0,1-2.383,3,99.088,99.088,0,0,0-14.538-4.219,41.414,41.414,0,0,0-49.811,39.185c-1.1,33.565-2.291,89.73-.14,136.626C197.279,300.865,204.748,307.338,204.5,312.652Z" style="fill:#896b66"/><path d="M34.281,181.691a19.841,19.841,0,0,0-5.253,7.057c9.2,4.747,16.872,3.723,21.771,1.962a1.554,1.554,0,0,0-.357-3A40.3,40.3,0,0,1,34.281,181.691Z" style="fill:#a7b6c4"/><path d="M124.093,177.443s7.034-42.9-26.713-51.494c4.4,7.147,11.764,22.859,6.374,41.705a10.129,10.129,0,0,1-14.475,6.157l-9.232-4.887s-4.71,8.033.281,19.221a5.49,5.49,0,0,1-3.664,7.559,41.314,41.314,0,0,0-16.683,8.936c-7.979,6.805-22.592,7.4-30.828,1.534C38.144,232.446,75.758,221,77.366,219.922,77.366,219.922,116.507,210.515,124.093,177.443Z" style="fill:#a7b6c4"/><path d="M158.843,229.654a161.806,161.806,0,0,0-24.158-26.121,16.117,16.117,0,0,1-4.676-17.388c3.984-11.63,6.97-30.922-9.517-44.495a2.01,2.01,0,0,0-3.181,2.169,31.959,31.959,0,0,1-.039,18.781c-4.475,15.342-4.475,23.012-4.475,23.012s-11.492-13.849-30.232-18.63a2.021,2.021,0,0,0-2.518,1.942c-.063,6.047,1.653,21.448,19.966,27.27,0,0-2.557,6.038-18.218,11.472-12.715,4.411-18.478,14.721-19,23.234a2.015,2.015,0,0,0,3.448,1.55c2.93-2.94,8.275-6.452,17.149-6.567a58.686,58.686,0,0,0,23.43-5.035,25.4,25.4,0,0,1,29.773,6.5C150.942,221.812,158.246,229.028,158.843,229.654Z" style="fill:#604f4d"/><path d="M236.535,279.669s0,17.591,23.245,15.706c17.009-1.379,27.963,3.8,32.616,6.68a2.005,2.005,0,0,0,3.061-1.571c.584-8.511-2.322-30.295-46.985-31.809,0,0,21.265-6.38,15.1-41.544a2.015,2.015,0,0,0-2.243-1.667c-5.35.7-20.874,4.881-32.646,29.7,0,0-.942-9.11-9.738-16.648-5.044-4.324-8.022-11.128-9.644-16.144a2.01,2.01,0,0,0-3.853.082c-3.147,11.528-6.482,35.574,14.44,49.987,0,0-2.68,20.773-31.682,28.859,0,0,1.1,10.936,16.29,11.348C219.887,306.369,232.451,299.459,236.535,279.669Z" style="fill:#604f4d"/><path d="M273.639,173.255c-14.464.768-24.493,10.312-28.583,15.008a23.316,23.316,0,0,0-14.8-2.244c-19.455,3.1-25.49,20.044-26.05,29.129-1.935,4.986-13.9,39.075,11.8,58.758-1.348,4.618-6.461,16.313-24.54,22.738-1.916-46.93-.627-102.41.336-131.853.194-22.875,23.374-41.095,45.648-35.906a91.111,91.111,0,0,1,19.317,6.276,3.461,3.461,0,0,0,4.586-4.724,50.788,50.788,0,0,0-11.194-14.523c13.964-9.578,19.258-23.409,14.909-39.237-6.937-25.25-28.49-27.96-37.335-27.97-2.387-62.425-99.76-56.036-96.661,4.408C106.718,58.5,105.6,81.753,110.827,95.552c2.037,22.795,14.676,30.435,26.779,31.709,14.535-.383,27.348,10.458,27.776,25.337.886,24.632,1.384,52.335,1.484,82.5a163.721,163.721,0,0,0-29.913-34.184,12.59,12.59,0,0,1-3.669-13.65c4.542-13.257,8.342-37.575-16.574-52.465-7.391-11.464-26.24-26.01-45.433-13.184-7.608-3.209-35.961-12.82-51.81,13.97-11.521,19.475-.02,37.511,9.678,46.337-4.725,5.76-8.714,16.6-.907,30.3,5.663,10.5,17.968,15.574,31.645,14.6-.675,3.709-1.811,12.413,3.02,13.023a3.5,3.5,0,0,0,3.481-1.94c.168-.343,4.252-8.406,17.054-8.572a62.143,62.143,0,0,0,24.8-5.338,21.825,21.825,0,0,1,25.727,5.589c9.836,11.765,32.3,42.034,32.585,66.71-.286,21.427-.656,35.254-.659,35.391a3.483,3.483,0,0,0,3.461,3.556H190.26a3.511,3.511,0,0,0,3.45-3.742c.416-20.7,31.646-13.986,43.057-41.07,5.184,6.863,12.717,9.118,23.293,8.385,21.34-1.72,32.535,7.563,32.631,7.645a3.463,3.463,0,0,0,5.61-1.7,27.7,27.7,0,0,0-.032-12.393c9.569-2.114,23.054-7.465,25.7-20.93,2.611-13.29-4.675-22.464-11.156-27.128,7.652-7.405,11.838-15.2,12.462-23.225C327.258,197.332,292.229,170.664,273.639,173.255ZM117.805,69.872c3.057-5.472,8.945-9.032,17.5-10.579a3.468,3.468,0,0,0,2.825-3.788c-1.625-20.5,9.775-44.23,43.533-43.486,12.174,0,21.731,3.5,28.407,10.41,11.317,11.71,10.843,29.6,10.837,29.768.016.163.01.323.015.488a28.216,28.216,0,0,1-2.345,12.543A3.462,3.462,0,0,0,224.923,68a35.976,35.976,0,0,0,2.919-12.436c7.121-.1,24.756,1.848,30.552,22.948,3.8,13.825-.973,24.926-14.168,33-12.546-8.486-33.536-7.637-47.192-2.6a35.289,35.289,0,0,0,1.577-9.062c1.565-6.729,8.245-13.606,14.544-17.563A3.463,3.463,0,0,0,214,77.461c-1.335-1.933-3.914-1.814-5.558-.341a44.4,44.4,0,0,0-11.208,10.424,42.641,42.641,0,0,0-4.019-10.132c-6.556-10.694-7.095-16.978-7.1-17.007a3.484,3.484,0,0,0-6.152-1.98,70.464,70.464,0,0,0-14.409,30.35,22.105,22.105,0,0,0-9.358-7.412,25.206,25.206,0,0,1-12.039-9.82c-2.232-3.948-8.177-.738-6.088,3.3a31.7,31.7,0,0,0,15.555,12.952c6.956,2.782,9.891,11.283,10.531,13.427-.045,2.068,0,3.946.106,5.589-16.5-5.464-34.156,4.374-46.909-13.581C116.622,91.17,112.687,79.034,117.805,69.872ZM62.51,219.683c-9.723,1.039-22.14-.143-28.255-10.881-6.719-11.8-2.184-19.582.528-22.757a43.442,43.442,0,0,0,13.8,4.708,3.462,3.462,0,1,0,1.1-6.835A34.977,34.977,0,0,1,36.324,178.9c-1.261-.955-23.593-18.322-10.9-39.781,14.877-25.148,43-11.286,44.551-10.494.218.121,6.822,3.854,8.469,10.685,1.152,4.427,7.729,2.794,6.731-1.623a23.508,23.508,0,0,0-7.339-11.809c15.731-8.5,30.488,8.1,33.63,13.551,7.937,12.07,1.116,23.413-1.34,38.645-5.73-5.055-15.839-12.26-29.232-15.024a3.461,3.461,0,0,0-4.128,2.9c-1.142,8.017,1.3,24,17.344,31.641C83.646,205.657,70.624,204.215,62.51,219.683ZM259.5,291.924c-11.367,1.219-19.028-3.894-19.5-12.255a3.468,3.468,0,0,0-6.854-.7c-6.19,33.959-41.873,23.164-46.146,49.358H172.9c.127-5.435.37-16.792.571-31.93.082-26.19-23.552-58.635-34.249-71.307a28.7,28.7,0,0,0-33.821-7.4,55.259,55.259,0,0,1-22.057,4.731c-7.522.1-12.849,2.384-16.487,4.98,1.635-6.285,6.538-13.158,16.069-16.464,16.289-5.652,19.744-12.148,20.271-13.393a3.485,3.485,0,0,0-2.14-4.65c-14.548-4.625-17.2-16-17.529-22.053a60.815,60.815,0,0,1,26.6,16.982,3.486,3.486,0,0,0,6.126-2.2c0-.074.1-7.516,4.336-22.053a36.371,36.371,0,0,0,1.151-15.984c10.508,11.419,8.861,26.129,4.988,37.438a19.483,19.483,0,0,0,5.683,21.125A153.551,153.551,0,0,1,167.292,249.4c1.594,3.111,6.584,1.934,6.518-1.628.011-35.19-.5-67.3-1.508-95.421a32.954,32.954,0,0,0-30.172-31.7c-9.656-.277-17.29-2.884-22.335-15.237a30.793,30.793,0,0,0,18.393,6.163c13.768,0,24.554.3,27.764,4.095a3.476,3.476,0,0,0,6.014-3.025c-.055-.237-4.864-22.065,9.179-44.026a69.681,69.681,0,0,0,6.131,12.363,36.808,36.808,0,0,1,4.435,18.1,28.286,28.286,0,0,1-4.38,14.408,3.463,3.463,0,0,0,4.484,4.939c1.622-.813,36.512-17.864,57.476,6.437-30.082-11.867-62.9,6.434-64.406,39.706-1,30.491-2.343,88.823-.138,136.9a3.46,3.46,0,0,0,4.387,3.176c30.859-8.6,34.065-30.809,34.187-31.751a3.462,3.462,0,0,0-1.47-3.293c-16.863-11.619-16.54-30.075-14.195-41.688,1.929,4.587,4.82,9.63,9.035,13.242,7.55,6.472,8.513,14.077,8.548,14.377.241,3.392,5.213,4.252,6.571,1.127,10.236-21.585,23.044-26.455,28.58-27.549,3.136,16.976-2.195,32.424-12.938,36.263a3.462,3.462,0,0,0,.9,6.769c24.211,1.3,41.921,6.92,43.7,25.728C286.148,294.7,275.242,290.648,259.5,291.924Zm58.872-71.366c-.533,6.854-4.625,13.725-12.165,20.445a49.375,49.375,0,0,0-8.9-1.69c-4.533-.36-5.2,6.366-.676,6.891,25.625,1.484,30.6,34.7-.761,39.606-6.722-12.017-18.439-17.356-37.1-19.845a29.451,29.451,0,0,0,5.524-7.847,38.635,38.635,0,0,1,13.318-9.292c4.178-1.8,1.6-8.062-2.634-6.405a43.546,43.546,0,0,0-7.238,3.833,66.814,66.814,0,0,0-1.1-21.595,3.463,3.463,0,0,0-3.29-2.793c-.837-.03-19.13-.287-33.92,24.538a33.285,33.285,0,0,0-8.225-10.513c-7.027-6.023-9.652-18.017-10.082-20.206.206-2.767,2.2-19.954,20.233-22.829a16.275,16.275,0,0,1,12.431,2.724c.493.433,3.295,3.118,3.921,8.7.59,4.522,7.314,3.75,6.882-.771a21.716,21.716,0,0,0-4.15-10.853c16.765-19.04,39.905-15.934,59.75,7.8C316.123,207.285,318.878,214.046,318.372,220.558Z" style="fill:#2b2b2b"/></svg>