<svg id="icons" xmlns="http://www.w3.org/2000/svg" viewBox="0 0 340 340"><title>89_turmeric</title><path d="M95.829,104.529l7.088-7.269S87.657,101.983,68.4,84.543L55.567,73.487a21.783,21.783,0,0,0-28.519.079c-4.631,7.8-2.768,16.46,3.633,25.724C53.716,133.417,75.261,130.954,95.829,104.529Z" style="fill:#c68e7c"/><path d="M85.774,104.234a45.188,45.188,0,0,0-19.432,9.8,9.7,9.7,0,0,1-13.015-.407L36.041,97.007c-9.713-9.461-10.219-17.91-8.985-23.431-9.58,7.783-9.68,24.4.152,32.556,9.583,8.418,28.829,26.733,29.456,38.569l39.165-40.172A19.307,19.307,0,0,0,85.774,104.234Z" style="fill:#965a4d"/><path d="M264.72,105.332c8.345,18.713,31.739,17.076,31.739,17.076,16.894-3.007,14.1-17.076,14.1-17.076.591-3.379-4.595-28.223-21.96-32.244C270.975,69.037,257.091,88.67,264.72,105.332Z" style="fill:#f49a4a"/><path d="M15.506,207.224c3.558-9.99,10.2-20.9,21.865-31.736a67.983,67.983,0,0,0,7.643-8.4c2.948-.733,4.213-3.109,4.439-6.5a75.109,75.109,0,0,0,7.211-15.89c14.451-43.829,46.265-41.558,68.667-77.61,3.154-.9,4.52-3.354,4.183-7.28,7.23-15.654,16.078-32.234,31.8-43.625a22.423,22.423,0,0,1,16.036-4.119c27.058,11.737,9.261,54.366-13.629,95.806-31.481,11.309-57.8,29.457-77.086,56.919L68.057,225.775c-4.424,22.577-26.108,24.957-42.739,15.868C15.834,234.028,10.588,221.029,15.506,207.224Z" style="fill:#c68e7c"/><path d="M76.205,327.86H316.82a1.45,1.45,0,0,0,.383-2.848c-19.757-5.519-37.315-6.911-63.837-37.163A205.662,205.662,0,0,0,228.8,264.124a54.351,54.351,0,0,0-70.877,2.059c-3.711,3.372-7.522,7.016-11.315,10.9-16.889,17.293-57.057,40.275-71.113,48.064A1.448,1.448,0,0,0,76.205,327.86Z" style="fill:#f49a4a"/><path d="M169.233,156.9c-2.65.988-5.925,2.32-9.555,4.036a18.632,18.632,0,0,1-7.463,3.851A100.238,100.238,0,0,0,134.73,177.1c-22.016,20.693,4.734,54.2,29.778,37.16a223.051,223.051,0,0,1,39.365-22.557,66.551,66.551,0,0,1,23.68-5.66c13.788-.686,37.25-1.014,57.046,2.878,0,0,30.164,3.864,30.68-19.338.263-11.842-10.153-17.774-22.336-20.505a18.832,18.832,0,0,1-7.895-1.329,110.64,110.64,0,0,0-19.043-.534c-2.042.558-3.946.947-5.124.456a84.825,84.825,0,0,1,35.578-25.266c-24.444-.629-34.828-27.154-24.192-46.07,0,0-15.808,8.916-29.822,27.352a16.355,16.355,0,0,1-5.768,8.09c-3.487,4.479-8.146,8.523-12.145,12.366-5.639,5.42-13.1,11.874-18.823,14.247,0,0-9.8-6.446-20.918,1.232a20.2,20.2,0,0,0-7.322,9.167A14.314,14.314,0,0,1,169.233,156.9Z" style="fill:#c68e7c"/><path d="M294.541,95.327c5.57,10.2-4.73,16.15-10.782,6.224C278.19,91.346,288.489,85.4,294.541,95.327Z" style="fill:#d66336"/><path d="M129.5,59.8q-1.941,3.733-4.178,7.282c7.394,13.581,20.528,29.464,42.755,34.628a3.462,3.462,0,1,0,1.566-6.744C148,89.939,135.817,72.824,129.5,59.8Z" style="fill:#965a4d"/><path d="M120.242,134.851c-14.185-5.009-20.548-19.081-22.461-27.615a3.462,3.462,0,1,1,6.744-1.565c1.683,7.257,6.042,17.071,17.254,22.613A3.473,3.473,0,0,1,120.242,134.851Z" style="fill:#965a4d"/><path d="M78.764,187.166c-15.89-4.681-24.944-17.933-29.319-26.581a70.706,70.706,0,0,1-4.432,6.5c5.41,9.539,16.108,22.852,32.775,26.865A3.47,3.47,0,0,0,78.764,187.166Z" style="fill:#965a4d"/><path d="M62.5,232.884c-12.9-.711-26.874-10.355-32.458-24.639a3.463,3.463,0,0,1,6.518-2.344c3.911,11.116,18.67,21.837,28.44,19.655a3.463,3.463,0,0,1,2.62,6.411A13.522,13.522,0,0,1,62.5,232.884Z" style="fill:#965a4d"/><path d="M41.9,114.333a3.47,3.47,0,0,1-3.446-3.837c.929-8.543,4.53-19.968,16.406-25.883,4.1-1.958,7.132,4.1,3.087,6.2-9.076,4.521-11.867,13.607-12.609,20.433A3.463,3.463,0,0,1,41.9,114.333Z" style="fill:#965a4d"/><path d="M169.89,203.278c3.755,2.545,7.665-2.986,3.974-5.671-12.459-8.626-16.655-25.006-14.185-36.668-2.361,1.117-4.872,2.4-7.46,3.854C150.755,177.893,157.517,194.917,169.89,203.278Z" style="fill:#965a4d"/><path d="M210.782,186.219a3.451,3.451,0,0,1-2.4-.97c-4.118-3.973-7.241-9.436-9.28-16.235-.9-2.758-1.941-6.4,1.812-7.388a3.475,3.475,0,0,1,4.114,2.656c1.3,6.132,4.408,12.494,8.161,15.984A3.485,3.485,0,0,1,210.782,186.219Z" style="fill:#965a4d"/><path d="M236.672,111.775c1.99,8.759,7.039,19.526,19.6,25.111a3.463,3.463,0,0,0,2.813-6.328c-13.341-5.929-16.137-19.534-16.644-26.867C240.454,106.212,238.671,109.141,236.672,111.775Z" style="fill:#965a4d"/><path d="M248.531,177.933l9.435-1.216c-2.105-16.516,4.763-26,8.039-29.5-1.928.114-3.662.272-5.124.455C260.881,147.674,246.221,156.84,248.531,177.933Z" style="fill:#965a4d"/><path d="M285.048,147.754c-4.556,6.214-9.123,16.876-6.317,33.258a3.463,3.463,0,0,0,6.826-1.169c-2.947-17.2,3.409-26.679,7.386-30.759A79,79,0,0,0,285.048,147.754Z" style="fill:#965a4d"/><path d="M72.4,143.588c3.39,3.157-1.22,8.277-4.714,5.237C64.294,145.669,68.9,140.548,72.4,143.588Z" style="fill:#965a4d"/><path d="M88.991,140.065c3.39,3.157-1.22,8.277-4.714,5.237C80.888,142.145,85.5,137.025,88.991,140.065Z" style="fill:#965a4d"/><path d="M131.072,106.486c3.389,3.157-1.22,8.278-4.714,5.238C122.968,108.567,127.578,103.447,131.072,106.486Z" style="fill:#965a4d"/><path d="M168.7,61.5c3.39,3.157-1.22,8.277-4.714,5.237C160.6,63.581,165.21,58.461,168.7,61.5Z" style="fill:#965a4d"/><path d="M149.062,196.8c3.389,3.157-1.221,8.278-4.715,5.238C140.958,198.884,145.568,193.764,149.062,196.8Z" style="fill:#a06656"/><path d="M200.533,149.354c3.389,3.157-1.22,8.277-4.714,5.237C192.429,151.434,197.039,146.314,200.533,149.354Z" style="fill:#a06656"/><path d="M212.563,273.507c3.389,3.157-1.22,8.277-4.714,5.237C204.459,275.587,209.069,270.467,212.563,273.507Z" style="fill:#d66336"/><path d="M199.488,288.946c3.39,3.157-1.22,8.278-4.714,5.238C191.385,291.027,195.994,285.907,199.488,288.946Z" style="fill:#d66336"/><path d="M224.267,291.285c3.389,3.157-1.22,8.277-4.714,5.238C216.163,293.366,220.773,288.246,224.267,291.285Z" style="fill:#d66336"/><path d="M302.28,171.373s-44.46-2-70.977-1.787c-58.415-.747-71.616,58.579-102.788,34.7,5.639,13.945,23.867,19.059,35.993,9.975a223.051,223.051,0,0,1,39.365-22.557,66.551,66.551,0,0,1,23.68-5.66c13.788-.686,37.249-1.014,57.046,2.878-.155.524,35.547,3.069,30.14-24.133A16.635,16.635,0,0,1,302.28,171.373Z" style="fill:#965a4d"/><path d="M260.881,147.674h0a84.825,84.825,0,0,1,35.578-25.266s-12.653.042-21.1-9.552c-18.2,11.465-26.361,28.461-29.351,36.419a2.905,2.905,0,0,0,4.707,3.084A16.809,16.809,0,0,1,260.881,147.674Z" style="fill:#965a4d"/><path d="M139.566,132.176a72.819,72.819,0,0,0,43.338-47.5,148.863,148.863,0,0,1,8.972-24.223c9.245-21.689,7.508-44.481-14.528-48.378C182.383,18.026,187.659,28.7,182,44.586c-9.339,26.209-10.091,50.23-29.9,61.868s-69.7,27.908-77.351,68.674C66.02,221.65,57.3,251.278,25.321,241.639c26.95,21.449,58.02-10.623,58.76-39.516C85.338,168.622,108.613,142.619,139.566,132.176Z" style="fill:#965a4d"/><path d="M311.193,117.654c11.716-17.175-12.282-63.083-40.746-44.264-1.8,1.034-20.379,12.069-35.065,34.272-3.294,4.983-8.687,9.6-13.249,13.987-6.6,6.348-12.2,10.76-16.319,12.877-8.761-4.867-25.8-1.563-31.557,12.972a10.889,10.889,0,0,1-6.234,6.159c-7.8,2.906-22.8,9.483-35.593,20.859-18.823,16.494-6.761,47.957,17.929,47.784a27.651,27.651,0,0,0,16.171-5.227c11.945-8.339,40.237-27.22,61.195-27.569,12.483-.621,36.385-1.079,56.206,2.817,1.207.157,17.29,2.2,27.655-6.429,4.595-3.955,7-9.415,7.154-16.228.125-23.5-31.972-26.421-49.427-26.031a82.237,82.237,0,0,1,28.145-17.9C303.712,124.541,308.338,121.831,311.193,117.654Zm-53.072,27.929a3.484,3.484,0,0,0,3.19,5.526c12.576-1.57,36.194-.75,46.046,8.146,6.433,5.206,5.554,16.609-.273,21.375-7.3,6.3-20.7,5.01-21.951,4.87-19.487-3.81-42.155-3.687-57.752-2.913-22.106.219-52.118,19.839-64.9,28.866-21.3,14.647-44.364-14.146-25.453-31.763,11.952-10.626,26.063-16.807,33.411-19.546a17.821,17.821,0,0,0,10.237-10.056c2.046-6.157,9.987-11.1,15.626-10.765a14.95,14.95,0,0,1,7.5,1.962,3.462,3.462,0,0,0,3.229.306c5.2-1.862,15.019-9.975,22.508-17.42,4.175-3.918,8.491-7.968,11.614-12.689a112.892,112.892,0,0,1,24.228-26.139c-3.463,15.043,4.645,33.3,19.8,38.275A87.084,87.084,0,0,0,258.121,145.583Zm16.752-66.8c21.121-12.413,33.034,19.044,32.227,26.589,1.09,5.959-2.2,12.178-10.961,13.569C275.546,118.29,265.977,95.849,274.873,78.781Z" style="fill:#2b2b2b"/><path d="M35.015,172.951c-21.08,19.04-37.465,51.82-10.935,72.114C54.5,267.5,88,231.636,87.662,200.331c1.729-30.862,24.474-55.461,53.18-64.935a76.743,76.743,0,0,0,45.39-49.767,146.6,146.6,0,0,1,8.824-23.808c8.679-20.3,9.122-43.812-12.14-52.009a26.065,26.065,0,0,0-23.635,3.57C127.7,36,130.976,70.689,94.266,94.142,81.527,93,69.608,81,57.827,70.864,41.175,56.181,14.085,69.752,16.464,92a24.515,24.515,0,0,0,8.459,16.734c16.861,14.811,27.325,28.01,28.227,35.55A68.456,68.456,0,0,1,35.015,172.951ZM29.492,103.53c-9.789-8.254-7.684-25.245,4.3-30.194A18.161,18.161,0,0,1,53.308,76.11l12.768,11c7.561,6.849,14.6,10.453,20.355,12.313-15.559,11.285-24.442,24.151-29.508,35.125C51.387,124.129,39.672,112.472,29.492,103.53Zm10.235,74.5c27.309-25.641,14.706-50.383,56.134-76.641,40.8-24.828,36.232-59.257,67.482-82.4a19.133,19.133,0,0,1,17.348-2.618c16.859,6.408,14.842,26.461,8.046,42.62a153.066,153.066,0,0,0-9.162,24.732,69.766,69.766,0,0,1-41.284,45.235c-4.735,1.875-9.42,3.945-13.921,6.152a78.426,78.426,0,0,0-43.615,64.742c-.374,15.922-7.913,30.928-20.713,40.068-23.273,16.255-49.911-8.332-41.276-31.533C22.615,197.583,29.667,187.368,39.727,178.025Z" style="fill:#2b2b2b"/><path d="M255.969,285.566a209.476,209.476,0,0,0-24.977-24.123c-21.268-17.928-54.99-16.956-75.279,2.072-4.048,3.674-7.944,7.426-11.58,11.149C124.1,295.177,69.454,324.513,68.9,324.807c-3.06,1.589-1.968,6.577,1.626,6.516,24.118-.13,200.2.533,252.844.083,3.583-.044,5.746-.071,6.252-2.94a3.47,3.47,0,0,0-2.236-3.861C299.189,314.947,285.453,318.627,255.969,285.566ZM83.88,324.422c17.551-9.971,50.109-29.462,65.206-44.92,3.54-3.625,7.335-7.279,11.282-10.861a51.1,51.1,0,0,1,66.246-1.835c30.427,25.622,40.069,48.747,75.5,57.777C255.753,324.678,152.085,324.544,83.88,324.422Z" style="fill:#2b2b2b"/><path d="M283.028,87.834c-7.723,4.28-4.058,17.98,3.97,21.33a8.555,8.555,0,0,0,12.516-7.226C300.627,93.313,290.593,83.284,283.028,87.834Zm8.782,15.212c-4.106,1.121-7.908-7.462-5.32-9.215C289.679,92.664,294.713,100.115,291.81,103.046Z" style="fill:#2b2b2b"/></svg>