<svg id="icons" xmlns="http://www.w3.org/2000/svg" viewBox="0 0 340 340"><title>8_broccoli</title><path d="M66.177,161.993S21.007,171.9,15.65,137.855c-2.534-16.1,1.1-26.754,5.629-33.507-8.774-17.815,4.494-55.825,41.539-55.139,0,0,15.9-26.741,47.794-21.366a38.374,38.374,0,0,1,16.725,7.3c11.135,8.313,20.709,6.227,33.388,4.88l18.1,60.2Z" style="fill:#3e6a51"/><path d="M158.272,76.22c-25.065-33.913,10.833-60.357,41.21-51.244a47.893,47.893,0,0,1,49.093-8.242c11.456,4.384,17.441,12.954,20.49,21.724,0,0,42.579,9.811,30.4,51.737A42.652,42.652,0,0,1,317,102.42c14.81,37.719-23.547,46.3-76.441,46.9C186.826,146.989,155.888,101.643,158.272,76.22Z" style="fill:#80b297"/><path d="M117.636,219.206a191.13,191.13,0,0,1,26.069,93.245,14.609,14.609,0,0,0,14.612,14.295h53.112A14.611,14.611,0,0,0,226.036,311.5c-.869-19.727.07-55.389,14.154-87.583-17.336-20.712-37.239-30.491-59.844-28.766a162.707,162.707,0,0,1-4.65,32.439s-1.923,9.58-7.94,10.726S156.345,229,156.345,229a68.1,68.1,0,0,1-5.434-23.411C138.647,204.77,127.562,209.341,117.636,219.206Z" style="fill:#a9db89"/><path d="M153.869,176.356,102.8,198.3s6.789,7.269,14.837,20.906a21.806,21.806,0,0,0,12.022-4.936c6.405-5.437,13.819-4.2,21.271-8.684A98.15,98.15,0,0,1,153.869,176.356Z" style="fill:#719b56"/><path d="M179.8,161.993a243.451,243.451,0,0,1,.538,33.16,64.845,64.845,0,0,1,18.482,9.813c9.319,6.795,24.43,16.411,41.373,18.956a115.074,115.074,0,0,1,23.794-35.6Z" style="fill:#719b56"/><path d="M317,102.42c1.275,8.332,1.4,16.411-11.376,22.462-7.523,3.564-15.2,1.395-19.963-1.623-10.774-6.822-5.689-20.771-25.969-26.456-11.967-3.354-22.3.772-28.115,4.121a8.515,8.515,0,0,1-9.452-.653,38.057,38.057,0,0,0-25.555-7.825l0-.008c-27.736,1.715-38.291-16.218-38.291-16.218A57.772,57.772,0,0,0,144.587,93.9l0,.007c-10.818,22.132-1.009,42.878-1.009,42.878l130.8,40.135c55.544,9.317,46.944-31.893,46.944-31.893C328.956,124.369,324.068,110.86,317,102.42Z" style="fill:#3e6a51"/><path d="M208.633,190.83c19,9.426,47.308,15.636,70.249-2.758,11.538-9.252,16.563-24.682,11.5-38.576-2.8-7.678-8.774-15.279-20.721-19.944,0,0-13.169-28.825-43-9.1,0,0-21.456-12.54-40.092-3.963C182.026,152.743,189.522,177.389,208.633,190.83Z" style="fill:#80b297"/><path d="M201.519,154.559c5.032-22-5.721-34.214-14.948-38.067-7.615,3.5-14.76,10.526-19.777,23.377L160.725,178.4s16.082-9.406,34.9,4.552a87.1,87.1,0,0,0,13.014,7.872l0,0C194.6,177.294,201.519,154.559,201.519,154.559Z" style="fill:#3e6a51"/><path d="M159.7,129.478s32.515,9.956,14.056,40.737c-11.461,19.111-27.3,23.532-36.6,24.466a37.229,37.229,0,0,0-16.241,5.718c-10.512,6.693-29.5,15.471-45.042,4.569-22.8-15.992-13.031-34.65-13.031-34.65s-14.215-23.4,11.55-33.762c0,0-2.369-18.954,18.658-23.4a31.7,31.7,0,0,1,23.033,3.671S145.893,98.421,159.7,129.478Z" style="fill:#80b297"/><path d="M204.091,200.819c-1.279,8.289-3.228,17.949-2.513,27.964.209,2.921,5.26,3.865,6.135,1.123,2.23-6.99,4.964-15,9.763-22.427Z" style="fill:#719b56"/><path d="M175.434,244.754a71.581,71.581,0,0,1,.262-17.162c-2.476,9.378-13.911,10.134-19.351,1.407.815,3.707,2.955,9.867,9.929,19.1C169.446,252.3,176.018,249.984,175.434,244.754Z" style="fill:#719b56"/><path d="M53.489,89.7a3.523,3.523,0,0,1-6.922-1.315A3.523,3.523,0,0,1,53.489,89.7Z" style="fill:#224730"/><path d="M70.606,75.1a3.523,3.523,0,0,1-6.922-1.315A3.523,3.523,0,0,1,70.606,75.1Z" style="fill:#224730"/><path d="M71.787,95.889a3.524,3.524,0,0,1-6.923-1.316A3.524,3.524,0,0,1,71.787,95.889Z" style="fill:#224730"/><path d="M113.761,162.767c3.784-2.67,7.851,2.891,4.159,5.688C114.135,171.125,110.069,165.563,113.761,162.767Z" style="fill:#3e6a51"/><path d="M91.28,161.751c3.785-2.67,7.851,2.892,4.159,5.688C91.655,170.109,87.589,164.548,91.28,161.751Z" style="fill:#3e6a51"/><path d="M104.616,145.754c3.785-2.67,7.851,2.891,4.16,5.688C104.991,154.112,100.925,148.55,104.616,145.754Z" style="fill:#3e6a51"/><path d="M209.18,54.964a3.524,3.524,0,0,1-6.874-1.551A3.524,3.524,0,0,1,209.18,54.964Z" style="fill:#3e6a51"/><path d="M230.584,40.951A3.524,3.524,0,0,1,223.71,39.4,3.524,3.524,0,0,1,230.584,40.951Z" style="fill:#3e6a51"/><path d="M232.253,63.509a3.524,3.524,0,0,1-6.874-1.552A3.524,3.524,0,0,1,232.253,63.509Z" style="fill:#3e6a51"/><path d="M216.815,157.463c3.027,3.506-2.111,8.095-5.255,4.694C208.534,158.651,213.672,154.062,216.815,157.463Z" style="fill:#3e6a51"/><path d="M232.735,143.641c3.027,3.506-2.111,8.1-5.255,4.694C224.454,144.829,229.592,140.24,232.735,143.641Z" style="fill:#3e6a51"/><path d="M206.15,243.448c3.027,3.506-2.111,8.1-5.255,4.695C197.869,244.636,203.007,240.047,206.15,243.448Z" style="fill:#719b56"/><path d="M12.23,138.394C14.642,158.6,34.6,168.828,57.362,166.6a36.318,36.318,0,0,0,1.657,3.927c-8.8,21.606,17.193,52.836,49.012,40.12,12.262,17.525,31.2,52.434,32.213,101.879a18.164,18.164,0,0,0,18.073,17.687h53.112a18.074,18.074,0,0,0,18.066-18.86c-1.128-25.6.907-73.778,27.132-109.167,12.67-2.6,25.342-9.537,32.7-20.434,26.549.658,38.511-16.945,35.558-36.4,10-25.887-.85-48.272-21.3-57.214C311.137,59.842,291.2,41.076,271.7,35.589c-4.178-10.7-11.533-18.127-21.883-22.089-26.479-10.134-45.824,3.235-51.234,7.672-7.313-2.476-35.314-3.618-47.431,16.35a28.061,28.061,0,0,1-21.738-5.148c-28.471-20.866-60.395.019-68.493,13.467-34.458-.674-52.265,36.668-43.5,58.122C11.833,113.2,10.087,124.773,12.23,138.394Zm65.627,63.739c-19.9-13.953-12.276-29.57-11.952-30.209a3.478,3.478,0,0,0-.1-3.4c-4.744-8.349-6.794-22.449,9.781-28.718.77-.233,7.053-1.971,11.713,1.637,3.609,2.775,7.787-2.693,4.239-5.475a19.069,19.069,0,0,0-13.655-3.6c.917-14.742,22.13-21.326,36.459-12.55a3.471,3.471,0,0,0,3.554-.044c6.871-4.22,26.062-10.644,35.937,6.028a17.767,17.767,0,0,0-13.262,9.264,3.462,3.462,0,1,0,6.023,3.416,10.846,10.846,0,0,1,12.155-5.678c.98.324,12.5,4.319,16.111,13.791,2.327,6.1.956,13.445-4.075,21.833-10.227,17.054-24.121,21.813-33.976,22.8a40.881,40.881,0,0,0-17.755,6.242C109.688,203.44,91.887,211.972,77.857,202.133Zm99.314-23.2c.193,13.16-.54,31.56-4.822,47.779a6.59,6.59,0,0,1-6,4.979,6.725,6.725,0,0,1-6.831-4.077c-4.387-10.014-6.05-21.569-4.962-34.355A51.156,51.156,0,0,0,172,178.854,28.263,28.263,0,0,1,177.171,178.929Zm45.406,132.725a11.2,11.2,0,0,1-11.149,11.63H158.317a11.2,11.2,0,0,1-11.15-10.9c-1.026-50.105-19.859-85.885-32.608-104.477,7.857-3.912,14.248-9.235,22.939-9.777a50.412,50.412,0,0,0,9.924-2.015c-.626,12.6,1.3,24.113,5.752,34.278a13.748,13.748,0,0,0,25.87-1.913c4.294-16.263,5.179-34.457,5.07-47.921a37.261,37.261,0,0,1,9.443,5.181c6.677,5.84,33.6,19.478,53.862,17.562C223.387,239.749,221.463,286.366,222.577,311.654ZM276.716,185.37c-27.384,21.956-63.671,6.2-79.034-5.195a39.972,39.972,0,0,0-20.939-8.217c8.919-14.519,8.26-28.721-3.1-38.452,10.29-19,30.7-19.194,46.054-12.528l-5.729,3.877c-3.721,2.623.072,8.221,3.882,5.735,10.206-7.032,22.384-16.452,33.735-12.852,9.979,2.827,14.873,13.158,14.918,13.253.1.225,3.078,7.177.733,13.849a3.479,3.479,0,0,0,3.266,4.611c5.254-.126,4.6-10.563,4.344-13.494C293,146.48,293.207,172.663,276.716,185.37ZM159.432,38.021C170.1,25.955,185.605,26.208,193.483,27.3a28.367,28.367,0,0,0-4.426,10.942c-.512,4.517,6.165,5.428,6.863.916.71-5.309,5.372-10.97,6.066-11.788,1.666-1.541,19.559-17.277,45.352-7.406C259,24.374,270.97,38.25,264.432,53.231a3.483,3.483,0,0,0,3.127,4.946c5.191-.017,5.756-12.266,5.655-14.729,16.513,6.1,29.228,21.2,23.747,42.573-3.788-.684-9.834-1.035-14.77,2.095-2.928,1.726-1.473,6.509,1.857,6.387a3.444,3.444,0,0,0,1.851-.539c3.986-2.528,10.326-1.215,12.433-.5.262.059,13.824,4.594,20.224,17.657,4.371,9.007,4.208,20.008-.484,32.7,1.514,13.542-1.74,29.789-25.025,30.883a36.283,36.283,0,0,0-20.9-47.879C264,111.581,245.817,103.874,226.5,116.443c-16.5-8.728-44.632-11.7-58.518,13.041a41.227,41.227,0,0,0-5.757-2.779c-4.441-9.237-10.715-15.153-18.766-17.554,1.653-11.47,7.417-21.687,17.144-30.374a17.058,17.058,0,0,1,12.7-3.55c4.522.419,5.274-6.312.752-6.883a24.49,24.49,0,0,0-14.944,3.093C155.341,65.579,148.046,50.892,159.432,38.021ZM21.5,111.089c2.3,2.836,5.79,6.829,10.04,7.542,3.675.069,4.808-5.264,1.338-6.657-9.953-4.869-19.647-26.87,2.4-49.407,10.164-9.674,19.606-9.4,27.622-9.9,4.217.011,11.917.659,14.9,2.368a3.462,3.462,0,1,0,3.443-6.008c-3.028-1.735-7.82-2.553-11.774-2.94,8.887-11.938,35.527-23.57,55.8-8.171a34.151,34.151,0,0,0,22.487,6.873c-3.66,11.884,1.079,23.875,5.9,31-9.537,9.3-15.241,20.111-17.014,32.2-9-.443-17.077,3.075-20.568,4.879C95.384,102.2,70.227,114.345,70.8,134.342c-11.015,4.924-16.689,14.618-15.1,25.435-13.483.714-33.392-1.854-36.636-22.46C17.462,127.1,18.282,118.306,21.5,111.089Z" style="fill:#2b2b2b"/></svg>