<svg id="icons" xmlns="http://www.w3.org/2000/svg" viewBox="0 0 340 340"><title>90_pepper</title><path d="M138.757,236.435a13.042,13.042,0,0,1-13.042,13.042c-17.282-.639-17.277-25.448,0-26.085A13.043,13.043,0,0,1,138.757,236.435Z" style="fill:#2b2b2b"/><path d="M134.693,197.479A13.521,13.521,0,0,1,121.172,211c-17.916-.663-17.911-26.382,0-27.042A13.52,13.52,0,0,1,134.693,197.479Z" style="fill:#467057"/><path d="M128.211,175.605A13.214,13.214,0,0,1,115,188.819c-17.509-.648-17.5-25.783,0-26.428A13.214,13.214,0,0,1,128.211,175.605Z" style="fill:#467057"/><path d="M119.529,153.451a13.216,13.216,0,0,1-13.215,13.215c-17.51-.648-17.5-25.784,0-26.429A13.215,13.215,0,0,1,119.529,153.451Z" style="fill:#467057"/><path d="M106.567,170.143a14.628,14.628,0,0,1-14.628,14.628c-19.383-.718-19.377-28.542,0-29.256A14.628,14.628,0,0,1,106.567,170.143Z" style="fill:#467057"/><path d="M145.138,142.3a14.649,14.649,0,0,1-14.649,14.648c-19.41-.718-19.4-28.582,0-29.3A14.649,14.649,0,0,1,145.138,142.3Z" style="fill:#467057"/><path d="M154.2,117.028a16,16,0,0,1-16,16c-21.2-.784-21.19-31.21,0-31.991A16,16,0,0,1,154.2,117.028Z" style="fill:#2b2b2b"/><path d="M156.024,95.181A14.023,14.023,0,0,1,142,109.2c-18.581-.687-18.576-27.362,0-28.046A14.023,14.023,0,0,1,156.024,95.181Z" style="fill:#467057"/><path d="M128.27,126.213A13.273,13.273,0,0,1,115,139.486c-17.587-.65-17.583-25.9,0-26.545A13.273,13.273,0,0,1,128.27,126.213Z" style="fill:#467057"/><path d="M135.2,97.6a13.848,13.848,0,0,1-13.848,13.848c-18.349-.679-18.344-27.019,0-27.7A13.847,13.847,0,0,1,135.2,97.6Z" style="fill:#467057"/><path d="M169.568,69.473a15.93,15.93,0,0,1-15.93,15.93c-21.108-.781-21.1-31.082,0-31.859A15.93,15.93,0,0,1,169.568,69.473Z" style="fill:#2b2b2b"/><path d="M144.238,58.324a12.887,12.887,0,0,1-12.887,12.887c-17.075-.632-17.071-25.145,0-25.774A12.887,12.887,0,0,1,144.238,58.324Z" style="fill:#467057"/><path d="M245.971,286.156a15,15,0,0,1-15,15c-19.881-.736-19.875-29.275,0-30.007A15,15,0,0,1,245.971,286.156Z" style="fill:#2b2b2b"/><path d="M235.774,308.418a16.563,16.563,0,0,1-16.563,16.563c-21.948-.812-21.942-32.317,0-33.126A16.563,16.563,0,0,1,235.774,308.418Z" style="fill:#467057"/><path d="M210.37,264.771a15.7,15.7,0,0,1-15.7,15.7c-20.809-.77-20.8-30.642,0-31.409A15.7,15.7,0,0,1,210.37,264.771Z" style="fill:#2b2b2b"/><path d="M222.282,286.156a14.652,14.652,0,0,1-14.653,14.652c-19.415-.718-19.409-28.589,0-29.3A14.652,14.652,0,0,1,222.282,286.156Z" style="fill:#467057"/><path d="M232.088,261.61a16.124,16.124,0,0,1-16.124,16.124c-21.365-.791-21.359-31.461,0-32.249A16.125,16.125,0,0,1,232.088,261.61Z" style="fill:#467057"/><path d="M241.315,240.334a13.959,13.959,0,0,1-13.958,13.959c-18.5-.685-18.492-27.236,0-27.918A13.959,13.959,0,0,1,241.315,240.334Z" style="fill:#467057"/><path d="M208.66,210.845a14.849,14.849,0,0,1-14.849,14.849c-19.676-.728-19.67-28.973,0-29.7A14.849,14.849,0,0,1,208.66,210.845Z" style="fill:#2b2b2b"/><path d="M216.649,236.744a14.838,14.838,0,0,1-14.838,14.838c-19.661-.727-19.655-28.951,0-29.676A14.838,14.838,0,0,1,216.649,236.744Z" style="fill:#467057"/><path d="M204.866,172.842a14.884,14.884,0,0,1-14.884,14.885c-19.723-.73-19.718-29.043,0-29.769A14.884,14.884,0,0,1,204.866,172.842Z" style="fill:#467057"/><path d="M209.39,144.608a16.13,16.13,0,0,1-16.13,16.13c-21.372-.791-21.366-31.471,0-32.259A16.13,16.13,0,0,1,209.39,144.608Z" style="fill:#467057"/><path d="M28.484,87.6s25.773-10.75,40.231-25.426,39.43-33.955,57.831-38.774l3.943,11.829c-9.4,3.314-30.287,15.241-40.363,29.677-4.07,5.317-10.578,12.771-17.249,16.107Z" style="fill:#84994a"/><path d="M13.116,91.908s9.027-1.631,23.09-7.132c13.218-5.171,34.087-10.1,48.116-12.261,27.6-4.249,52.592-3.689,82.987.561a169.106,169.106,0,0,0,42.824.615c14.6-1.686,32.665-4.609,46.138-9.543l-8.652,15.8s-20.688,10.532-52.661,9.78c0,0,15.422,8.651,19.56,34.23l-10.156,2.256s-11.392-26.624-47.5-34.9c-32.517-6.2-76.686-4-108.8,10.882-10.026,4.414-22.749,8.834-34.944,9.724Z" style="fill:#aecc76"/><path d="M257.857,59.273a16.534,16.534,0,0,0-14.1,11.641c-6.323,20.769-14.891,70.258,34.322,98.853A237.687,237.687,0,0,1,306,188.568s35.053-33.036,14.134-90.064C306.557,61.5,273.692,57.6,257.857,59.273Z" style="fill:#aecc76"/><path d="M228.8,162.355a16.108,16.108,0,0,1-16.108,16.108c-21.343-.789-21.338-31.429,0-32.215A16.107,16.107,0,0,1,228.8,162.355Z" style="fill:#467057"/><path d="M224.059,190.04a15.4,15.4,0,0,1-15.4,15.4c-20.4-.755-20.4-30.047,0-30.8A15.4,15.4,0,0,1,224.059,190.04Z" style="fill:#467057"/><path d="M232.088,218.469a16.124,16.124,0,0,1-16.124,16.124c-21.365-.79-21.359-31.461,0-32.248A16.124,16.124,0,0,1,232.088,218.469Z" style="fill:#467057"/><path d="M228.8,132.428a15.4,15.4,0,0,1-15.4,15.4c-20.4-.755-20.4-30.047,0-30.8A15.4,15.4,0,0,1,228.8,132.428Z" style="fill:#467057"/><path d="M145.456,30.3a13.935,13.935,0,0,1-13.935,13.935c-18.464-.683-18.459-27.189,0-27.87A13.935,13.935,0,0,1,145.456,30.3Z" style="fill:#467057"/><path d="M171.236,44.236A13.934,13.934,0,0,1,157.3,58.171c-18.465-.683-18.46-27.189,0-27.87A13.934,13.934,0,0,1,171.236,44.236Z" style="fill:#467057"/><path d="M113.976,194.185a14.451,14.451,0,0,1-14.451,14.452c-19.149-.708-19.144-28.2,0-28.9A14.451,14.451,0,0,1,113.976,194.185Z" style="fill:#467057"/><path d="M122.543,219.064a15.822,15.822,0,0,1-15.822,15.822c-20.966-.776-20.96-30.872,0-31.645A15.823,15.823,0,0,1,122.543,219.064Z" style="fill:#467057"/><path d="M123.957,250.337a14.452,14.452,0,0,1-14.452,14.452c-19.149-.709-19.144-28.2,0-28.9A14.452,14.452,0,0,1,123.957,250.337Z" style="fill:#467057"/><path d="M134.087,27.632c-.161,6.336-9.448,6.335-9.608,0C124.639,21.3,133.927,21.3,134.087,27.632Z" style="fill:#80b297"/><path d="M159.713,42.441c-.161,6.336-9.448,6.335-9.608,0C150.266,36.1,159.553,36.106,159.713,42.441Z" style="fill:#80b297"/><path d="M135.293,55.743c-.16,6.336-9.448,6.335-9.608,0C125.846,49.408,135.134,49.409,135.293,55.743Z" style="fill:#80b297"/><path d="M118.78,123.763c-.16,6.336-9.448,6.335-9.608,0C109.333,117.428,118.621,117.429,118.78,123.763Z" style="fill:#80b297"/><path d="M94.681,168.367c-.16,6.336-9.448,6.335-9.608,0C85.234,162.031,94.521,162.032,94.681,168.367Z" style="fill:#80b297"/><path d="M102.784,192.531c-.161,6.336-9.448,6.334-9.608,0C93.337,186.2,102.624,186.2,102.784,192.531Z" style="fill:#80b297"/><path d="M109.112,218.469c-.16,6.336-9.448,6.335-9.608,0C99.665,212.133,108.953,212.134,109.112,218.469Z" style="fill:#80b297"/><path d="M112.455,247.851c-.16,6.336-9.448,6.334-9.608,0C103.008,241.515,112.3,241.516,112.455,247.851Z" style="fill:#80b297"/><path d="M215.964,130.038c-.16,6.336-9.448,6.335-9.608,0C206.517,123.7,215.805,123.7,215.964,130.038Z" style="fill:#80b297"/><path d="M194.062,142.3c-.161,6.335-9.448,6.334-9.608,0C184.615,135.965,193.9,135.966,194.062,142.3Z" style="fill:#80b297"/><path d="M215.174,159.278c-.16,6.336-9.448,6.334-9.608,0C205.727,152.942,215.014,152.943,215.174,159.278Z" style="fill:#80b297"/><path d="M210.447,184.712c-.16,6.336-9.448,6.335-9.608,0C201,178.376,210.287,178.377,210.447,184.712Z" style="fill:#80b297"/><path d="M220.055,216.757c-.161,6.336-9.448,6.334-9.608,0C210.608,210.421,219.9,210.422,220.055,216.757Z" style="fill:#80b297"/><path d="M204.274,233.74c-.161,6.336-9.448,6.334-9.608,0C194.827,227.4,204.114,227.405,204.274,233.74Z" style="fill:#80b297"/><path d="M222.282,309c-.161,6.335-9.448,6.334-9.608,0C212.834,302.667,222.122,302.668,222.282,309Z" style="fill:#80b297"/><path d="M217.478,261.61c-.161,6.336-9.448,6.334-9.608,0C208.03,255.274,217.318,255.275,217.478,261.61Z" style="fill:#80b297"/><path d="M257.494,55.83a19.98,19.98,0,0,0-14.485,8.693c-20.262,4.928-47.5,8.615-70.051,5.766a18.65,18.65,0,0,0-4.518-13.8c15.884-13.732-1.127-38.512-19.691-28.48-2.451-17.653-26.7-20.6-33.357-4.191C98.237,31.6,78.428,47.381,66.248,59.746,45.254,78.794,25.425,85.754,12.5,88.5a3.461,3.461,0,0,0-2.847,3.407V111.92a3.487,3.487,0,0,0,3.714,3.454c10.62-.776,22.762-4.143,36.086-10.009a160.09,160.09,0,0,1,55.234-13.249,17.529,17.529,0,0,0,3.848,17.865c-10.8,3.976-14.664,18.778-6.9,27.492A16.7,16.7,0,0,0,89.782,152.11c-18.916,1.339-23.287,27-6.068,34.627-4.9,8.575-.806,20.641,8.056,24.544-6.182,8.157-3.154,21.11,5.7,25.827-12.032,10.692-4.234,31.236,12.036,31.143a17.927,17.927,0,0,0,17.842-16.493c20.8-2.849,17.925-32.986-3.123-31.754a17.779,17.779,0,0,0-1.326-5.365c15.957-.631,21.258-22.043,7.57-30.042,5.584-8.581.316-20.918-9.512-23.046a16.564,16.564,0,0,0,1.717-4.529c15,7.991,31.028-9.4,21.863-23.712,9.557-3.379,14.277-15.981,8.877-24.91a17.435,17.435,0,0,0,6.055-12.854c21.334,5.837,32.883,18.278,38.346,26.273a18.836,18.836,0,0,0-1.838,3.395c-17.786-2.65-28.738,19.321-16.137,31.9-15.026,9.333-7.876,32.914,10,32.112a17.179,17.179,0,0,0,.371,4.727c-16.184,3.462-18.6,25.738-3.546,32.608a18.359,18.359,0,0,0,.557,20.568c-17.49,7.392-14.553,33.233,4.184,36.514a16.465,16.465,0,0,0,10.539,17.909c-4.958,11.822,4.4,25.709,17.266,25.452,12.387.221,21.694-12.66,17.66-24.329,16.785-6.026,14.761-30.5-2.746-33.76a19.6,19.6,0,0,0,.321-13.783c15.23-5.686,12.92-28-3.23-30.4,3.615-8.188-.942-18.5-9.064-21.534,6.674-6.327,7.127-18.523.887-25.33,11.14-6.286,12.373-22.884,2.267-30.823,12.83-10.185,6.685-31.514-9.639-33.323a54.141,54.141,0,0,0-11.482-20.61,131.812,131.812,0,0,0,32.291-5.3c-3.531,24.978-.268,61.639,39.863,84.956A239.912,239.912,0,0,1,304,191.383a3.488,3.488,0,0,0,4.371-.3C354.323,141.233,323.828,47.118,257.494,55.83ZM157.3,32.664a10.485,10.485,0,0,1,10.473,10.473c-.492,13.861-20.456,13.857-20.945,0A10.484,10.484,0,0,1,157.3,32.664Zm-8.414,25.689a17.366,17.366,0,0,0,13.143,1.511,11.579,11.579,0,0,1,4.028,9.553c-7.033-.957-13.739-1.706-20.2-2.242A16.692,16.692,0,0,0,148.887,58.353ZM131.521,19.829A10.484,10.484,0,0,1,141.994,30.3c-.492,13.861-20.455,13.858-20.945,0A10.484,10.484,0,0,1,131.521,19.829ZM136.1,66.518q-4.3-.222-8.491-.313c-9.008-4.719-5.6-18.49,4.564-18.507C142.731,47.744,145.76,62.285,136.1,66.518ZM120.563,43.8c.33.268.672.519,1.02.763-6.246,4.77-8.107,14.856-3.757,21.617a245.458,245.458,0,0,0-25.689,1.777A84.579,84.579,0,0,1,120.563,43.8ZM71.181,64.605c10.777-10.94,27.686-24.62,43.034-32.522a17.263,17.263,0,0,0,1.894,6.259A90.362,90.362,0,0,0,87.376,62.8c-1.841,2.412-3.714,4.624-5.554,6.608-6.385,1.051-14.031,2.62-21.712,4.506A86.4,86.4,0,0,0,71.181,64.605ZM115,115.653a10.573,10.573,0,0,1,10.561,10.56c-.5,13.979-20.627,13.975-21.122,0A10.573,10.573,0,0,1,115,115.653Zm-2.443-23.821c6.023-.075,12.212-.037,17.277.06,4.932,6.664-.337,16.829-8.658,16.6C112.814,108.718,107.566,98.5,112.554,91.832ZM106.391,143.7c12.181.313,13.17,17.666,1.2,19.423A18.171,18.171,0,0,0,96.661,153,9.757,9.757,0,0,1,106.391,143.7ZM79.75,170.142a11.178,11.178,0,0,1,11.166-11.165c9.245-.183,14.637,11.252,8.619,18.25a17.794,17.794,0,0,0-11.026,3.817A11.2,11.2,0,0,1,79.75,170.142Zm19.775,14.009c10.236-.1,14.916,13.215,6.881,19.533a17.768,17.768,0,0,0-8.735,2.278C84.544,203.466,86.14,184.439,99.525,184.151ZM95.4,221.6c.517-14.546,21.466-14.54,21.979,0C116.864,236.142,95.915,236.138,95.4,221.6Zm14.1,39.73a11,11,0,0,1-10.989-10.99c.515-14.545,21.465-14.541,21.979,0A11,11,0,0,1,109.505,261.327Zm13.9-34.165c12.662-2.7,15.961,15.89,3.152,17.712a17.988,17.988,0,0,0-8.133-10.048A17.934,17.934,0,0,0,123.408,227.162Zm-1.2-19.413a9.261,9.261,0,0,1-7.253-3.529,17.819,17.819,0,0,0,2.188-12.2,15.251,15.251,0,0,0,8.122-2.245C134.977,193.207,132.55,207.674,122.213,207.749Zm3.607-31.189a8.583,8.583,0,0,1-12.025,7.8,18.065,18.065,0,0,0-4.158-3.99,8.541,8.541,0,1,1,16.183-3.807Zm4.669-24.507a9.756,9.756,0,0,1-9.731-9.349A17.564,17.564,0,0,0,131.11,133a17.547,17.547,0,0,0,5.036,1.374C143.827,139.722,139.85,152.136,130.489,152.053Zm1.976-26.167a17.4,17.4,0,0,0-4.831-11.724A17.519,17.519,0,0,0,133.4,110.4a17.517,17.517,0,0,0,13.986,1.405C152.957,121.144,141.4,131.93,132.465,125.886Zm4.848-21.245a17.515,17.515,0,0,0,.374-12.446,114.27,114.27,0,0,1,14.792,1.746C153.682,102.039,144.51,108.454,137.313,104.641Zm55.948,27.3a11.924,11.924,0,0,1,1.3.077,18.741,18.741,0,0,0,6.933,15.02,18.994,18.994,0,0,0-5.938,8.548C178.372,158.027,175.932,132.861,193.261,131.942Zm8.785,115.869c-14.347-.38-15.316-20.9-1.162-22.693a16.524,16.524,0,0,0,12.41,9.607A11.415,11.415,0,0,1,202.046,247.811Zm13.571.858a15.786,15.786,0,0,0,11.707,7.357c4.209,8.109-2.193,18.454-11.36,18.246-9.967.275-16.292-11.893-10.388-19.886A18.277,18.277,0,0,0,215.617,248.669ZM208.659,178.1c15.8.561,15.794,23.316,0,23.874C192.861,201.416,192.865,178.661,208.659,178.1Zm-19.643,4.23c-12.553-.247-14.313-18.045-2.061-20.7a18.554,18.554,0,0,0,7.614,1.057,18.747,18.747,0,0,0,4.451,11.168,18.951,18.951,0,0,0-7.4,8.144A10.485,10.485,0,0,1,189.016,182.333Zm-5.561,28.512A10.362,10.362,0,0,1,193,200.531a18.936,18.936,0,0,0,10.175,7.55,16.41,16.41,0,0,0-3.691,10.255,18.182,18.182,0,0,0-7.329,2.728A10.4,10.4,0,0,1,183.455,210.845Zm10.566,66.134c-15.007-1.126-15.48-22.614-.535-24.38a18.176,18.176,0,0,0,4.339,1.626,19.62,19.62,0,0,0,1.545,17.74A16.427,16.427,0,0,0,194.021,276.979Zm4.107,9.178a9.511,9.511,0,0,1,6.129-8.882,19.455,19.455,0,0,0,11.465,3.909c3.94,6.051-.842,14.664-8.093,14.473A9.512,9.512,0,0,1,198.128,286.157Zm21.083,33.918c-8.8.225-14.681-10.129-10.043-17.571a16.39,16.39,0,0,0,10.941-5.7C234.873,298.392,234.1,319.606,219.211,320.075Zm22.378-33.918a10.586,10.586,0,0,1-8.158,10.325,18.6,18.6,0,0,0-9.94-6.128,16.329,16.329,0,0,0-.662-10.424,19.61,19.61,0,0,0,6.785-4.3A10.64,10.64,0,0,1,241.589,286.157Zm-3.736-45.823c-.372,11.707-17.347,11.7-17.717,0C220.508,228.628,237.482,228.629,237.853,240.334Zm-12.32-21.865c-.4,12.644-18.736,12.641-19.136,0C206.8,205.824,225.133,205.828,225.533,218.469Zm-.2-56.822a11.864,11.864,0,0,1-8.492,11.425,18.626,18.626,0,0,0-10.4-1.752c-7.521-5.1-6.135-17.279,2.263-20.645a18.442,18.442,0,0,0,9.386,0A11.97,11.97,0,0,1,225.335,161.647Zm0-29.219A11.951,11.951,0,0,1,213.4,144.365c-15.8-.56-15.795-23.317,0-23.874A11.95,11.95,0,0,1,225.335,132.428Zm12.494-52.319a127.315,127.315,0,0,1-42.79,6.156,3.48,3.48,0,0,0-1.792,6.472c.1.059,9.916,5.869,15.3,21.485a18.767,18.767,0,0,0-5.76,2.624c-29.522-42.914-109.654-37.7-156.123-17.82-10.873,4.788-21.184,7.886-30.086,9.058V94.7A159.726,159.726,0,0,0,37.467,88c43.361-15.175,80.786-18.286,129.363-11.5,23.89,3.727,50.583.787,72.886-4.1C239.071,74.7,238.422,77.289,237.829,80.109ZM273,162.4A74.824,74.824,0,0,1,256.741,147c-5.281-17.968,2.6-34.325,9.035-45.12a41.953,41.953,0,0,0,4.943-11.475A152.6,152.6,0,0,1,283.9,112.558a129.292,129.292,0,0,1-7.109,22.547A53.708,53.708,0,0,0,273,162.4Zm8.006,5.076a47.239,47.239,0,0,1,2.161-29.676,135.613,135.613,0,0,0,5.3-15.035,194.8,194.8,0,0,1,13.584,58.471C295.6,176.514,288.548,171.906,281.008,167.476Zm27.872,12.255a207.978,207.978,0,0,0-9.836-48.823c6.659,3.038,16.71,9.469,22.083,21.919C319.252,161.768,313.391,173.922,308.88,179.731Zm14.085-37.86c-8.98-13.066-22.108-18.093-27.053-19.587-13.59-34.711-32.474-51.2-33.654-52.2a3.459,3.459,0,0,0-4.875.39c-2.789,4.154,1.7,5.156,6.629,11.4.459,1.12,1.912,6.239-4.182,16.459-5.11,8.565-11.024,20.346-11.707,33.925-9.828-23.216-4.874-47.787-1.054-60.335,2.382-7.517,9.056-9.852,16.753-9.48,11.944,0,36.566,3.479,49.888,29.953A86.435,86.435,0,0,0,287.438,80.54c-4.436-.989-6.032,5.581-1.627,6.73.236.058,23.588,5.875,33.577,20.1A91.416,91.416,0,0,1,322.965,141.871Z" style="fill:#2b2b2b"/></svg>