<svg id="icons" xmlns="http://www.w3.org/2000/svg" viewBox="0 0 340 340"><title>91_clove</title><path d="M110.673,132.847c10.24-5.136,26.315-7.294,48.78,6.121a14.642,14.642,0,0,1,7.052,13.131,83.01,83.01,0,0,1-2.967,19.631c-8.615,14.722-22.518,19.229-45.018,7.127C104.746,160.275,101.346,144.71,110.673,132.847Z" style="fill:#ce9474"/><path d="M163.532,171.728c-8.661,7.435-22.61,10.641-37.966-.456C108.7,159.085,109.4,140.83,110.675,132.85A36.831,36.831,0,0,0,96.8,144.775c1.518,49.429,36.422,55.716,36.422,55.716C151.383,198.137,159.741,184.871,163.532,171.728Z" style="fill:#b26e5f"/><path d="M197.643,54.415A53.458,53.458,0,0,1,211.36,42.888a11.167,11.167,0,0,1,8.768-.977c7.222,2.194,21.416,8.583,31.082,26.288C232.984,82.028,205.775,80.7,197.643,54.415Z" style="fill:#ce9474"/><path d="M190.22,107.462s-19.21-24.231,7.423-53.047c0,0,3.424,11.835,26.632,15.987,10.7,1.914,19.745-1.055,26.935-2.2,0,0,11.923,26.383-5.323,41.009C245.887,109.208,203.973,117.285,190.22,107.462Z" style="fill:#b26e5f"/><path d="M92.521,35.052s19.051-12.608,49.582,2.214a8.213,8.213,0,0,1,3.517,11.416c-3.243,5.8-9.512,12.85-21.034,13.788L84.854,46.26Z" style="fill:#473f43"/><path d="M106.768,40.839c12.982.134,33.228,5.136,33.509,29.948.131,11.557-7.588,20.362-7.588,20.362C101.376,95.556,84.854,56.155,106.768,40.839Z" style="fill:#ce9474"/><path d="M178.093,106.847a4.881,4.881,0,0,1,6.922-6.2,34.556,34.556,0,0,0,17.212,4.846c11.6.142,19.259-11.91,23.212-20.411a4.969,4.969,0,0,1,8.935-.155c2.126,4.1,3.762,9.409,2.563,15.036a36.242,36.242,0,0,0,17.532-5.221,4.639,4.639,0,0,1,7.017,4.912c-2.262,10-8.468,22.887-25.2,27.451l-1.205,48.7a13.416,13.416,0,0,1-26.718,1.383l-5.327-41.323a15.709,15.709,0,0,0-8.733-12.157A33.335,33.335,0,0,1,178.093,106.847Z" style="fill:#473f43"/><path d="M22.5,222.8a12.043,12.043,0,0,0,16.079,9.99c13.252-4.765,41.732-16.034,62.963-31.652,0,0,18.652,12.657,36.79,4.2,4.765-2.221,4.128-9.174-.9-10.712-5.925-1.814-12.393-5.345-15.518-12.22,0,0,8.885-2.423,13.675-13.286a5.611,5.611,0,0,0-6.741-7.62,67.185,67.185,0,0,1-13.66,2.676,11.955,11.955,0,0,1-12.55-9.67,34.749,34.749,0,0,1,.078-13.885,4.347,4.347,0,0,0-6.946-4.342c-6.934,5.5-13.963,16.067-9.662,35.612,0,0-29.9,26.193-56.566,38.562A12.135,12.135,0,0,0,22.5,222.8Z" style="fill:#473f43"/><path d="M78.912,318.383h238.81a1.611,1.611,0,0,0,.426-3.164c-19.3-5.268-36.685-7.18-62.694-36.847a205.676,205.676,0,0,0-24.564-23.726,54.349,54.349,0,0,0-70.877,2.06c-3.71,3.371-7.522,7.016-11.315,10.9-16.678,17.076-56.056,39.7-70.574,47.764A1.609,1.609,0,0,0,78.912,318.383Z" style="fill:#a86862"/><path d="M211.69,264.245c3.389,3.157-1.221,8.277-4.715,5.238C203.586,266.326,208.2,261.206,211.69,264.245Z" style="fill:#6d3f3f"/><path d="M198.615,279.685c3.389,3.157-1.22,8.277-4.714,5.237C190.512,281.766,195.121,276.645,198.615,279.685Z" style="fill:#6d3f3f"/><path d="M223.394,282.024c3.389,3.157-1.221,8.277-4.715,5.237C215.29,284.1,219.9,278.984,223.394,282.024Z" style="fill:#6d3f3f"/><path d="M132.676,91.134c-35.282-13.689-28.638-42.185-25.908-50.292A56.872,56.872,0,0,0,88.9,43.649L72.165,69.673C77.015,97.756,111.087,109.45,132.676,91.134Z" style="fill:#b26e5f"/><path d="M21.08,52.848l45.9-2.97s5.168-25.53,32.76-28.427a5.437,5.437,0,0,1,4.618,9.071c-7.811,8.56-17.885,22.771-18.57,39.668-.383,9.454,1.4,16.239,3.929,21.078A6.828,6.828,0,0,1,81,100.709c-7.078-3.065-14.089-9.325-17.78-21.679l-41.037-3A11.245,11.245,0,0,1,11.757,64.815C11.164,58.724,14.746,53.345,21.08,52.848Z" style="fill:#473f43"/><path d="M161.228,136c-28.972-17.3-48.237-9.819-58.109-2.554a7.685,7.685,0,0,0-9.5.125c-7.326,5.808-15.086,16.905-11.311,37.021-6.374,5.4-31.67,26.262-54.223,36.726a15.569,15.569,0,0,0-9.026,15.88c.767,9.708,11.662,16.39,20.69,12.854,14.312-5.148,41.019-15.874,61.96-30.76,5.692,3.218,21.884,10.742,38.084,3.189a9.009,9.009,0,0,0,5.216-7.742c20.48-9.363,24.447-34.266,24.96-48.511A18.094,18.094,0,0,0,161.228,136Zm-24.364,66.2c-16.224,7.476-33.134-3.783-33.458-3.979l-7.729-4.953c-3.869-2.393-7.529,3.308-3.737,5.829l3.4,2.18c-19.886,13.562-44.5,23.42-57.94,28.253-4.877,1.906-10.829-1.546-11.423-6.78A8.66,8.66,0,0,1,31,213.6c26.8-12.436,56.153-38.015,57.39-39.1a3.463,3.463,0,0,0,1.1-3.348c-3.122-14.188-.206-25.308,8.432-32.157a.878.878,0,0,1,1.408.911,38.065,38.065,0,0,0-.089,15.266,15.39,15.39,0,0,0,16.209,12.46,69.73,69.73,0,0,0,14.383-2.808,2.129,2.129,0,0,1,2.589,2.9c-4.01,9.094-11.144,11.262-11.418,11.342a3.484,3.484,0,0,0-2.241,4.773c3,6.607,9.109,11.481,17.657,14.1A2.291,2.291,0,0,1,136.864,202.2Zm5.9-8.06a9.285,9.285,0,0,0-4.319-2.825c-5.208-1.594-9.089-4.055-11.586-7.34a28.2,28.2,0,0,0,11.9-13.457c3.267-6.747-3.795-14.726-10.892-12.337-19.473,6.116-24.544,1.1-21.6-18.427,8.859-8,29.839-12.808,53.265,3.607-.221,1.6-1.724,5.772-10.836,10.384a3.463,3.463,0,1,0,3.128,6.179c5.556-2.812,9.041-5.718,11.218-8.39C162.686,164.225,159.457,185.9,142.76,194.141Z" style="fill:#2b2b2b"/><path d="M143.614,34.151c-14.074-6.833-25.866-8.024-34.356-7.4a8.961,8.961,0,0,0-9.879-8.74C75.068,20.56,66.635,39.546,64.327,46.58l-43.47,2.812C3.025,50.943,4.721,78.36,21.93,79.483l38.714,2.831c3.334,12.03,21.452,31.362,31.64,17.722,26.729,11.888,63.065-8.859,48.47-40.237a31.6,31.6,0,0,0,7.888-9.427C151.93,44.75,149.568,36.869,143.614,34.151ZM86.112,96.73a3.228,3.228,0,0,1-3.736.8c-7.633-3.3-12.962-9.863-15.839-19.492a3.461,3.461,0,0,0-3.064-2.462l-41.038-3a7.815,7.815,0,0,1-7.216-7.763c-.436-4.246,1.5-8.1,6.085-8.512l41.2-2.665-.77,3.167c-.995,4.423,5.558,6.057,6.729,1.634,2.329-7.63,3.4-29.317,31.638-33.546a2.008,2.008,0,0,1,2.012,1.085,1.888,1.888,0,0,1-.313,2.21C87.394,42.8,75.311,70.578,86.65,92.87A3.3,3.3,0,0,1,86.112,96.73Zm45.427-9.177a33.8,33.8,0,0,1-37.657,5.588,10.391,10.391,0,0,0-1.095-3.476,35.359,35.359,0,0,1-3.548-15.4c6.61,8.946,23.7,12.184,35.1,9.3,4.4-1.143,2.828-7.711-1.62-6.733-16.1,3.318-30.261-3.524-32.194-15.324a57.841,57.841,0,0,1,7.115-16.454C113,42.436,132.02,45,136.871,71.412A17.62,17.62,0,0,1,131.539,87.553ZM142.6,46.993a25.332,25.332,0,0,1-5.018,6.417c-8.877-14.381-23.9-16.539-34.607-15.918.944-1.186,1.886-2.312,2.815-3.368,7.547-1.25,19.6-1.127,34.8,6.256A4.772,4.772,0,0,1,142.6,46.993Z" style="fill:#2b2b2b"/><path d="M174.926,108.246a36.832,36.832,0,0,0,17.87,18.579,12.206,12.206,0,0,1,6.8,9.481l5.327,41.324c3.09,20.428,32.718,19.023,33.614-1.741l1.142-46.2c16.525-5.56,22.824-18.849,25.181-29.271a8.1,8.1,0,0,0-6.313-9.689C260.868,60.9,235.927,42.7,221.135,38.6c-10.063-4.273-24.37,11.245-26.127,13.569-16.371,17.777-16.274,34.157-13.578,44.416C176.117,97.191,172.543,103.335,174.926,108.246Zm25.259-51.481A48.989,48.989,0,0,1,213.069,45.9a7.752,7.752,0,0,1,6.053-.675c13.17,3.433,36.164,21.123,32.241,47.328a32.826,32.826,0,0,1-10.552,3.569,27.507,27.507,0,0,0-3.363-12.783c-2.949-6.132-12.478-6-15.148.289-6.731,14.341-15.822,23.416-32.8,15.458C185.62,89.045,184.176,74.169,200.185,56.765ZM181.617,103.8a1.325,1.325,0,0,1,1.646-.163,37.907,37.907,0,0,0,18.922,5.323c13.089.172,21.607-12.1,26.393-22.414a1.431,1.431,0,0,1,1.317-.87,1.477,1.477,0,0,1,1.405.848c2.333,4.5,3.09,8.781,2.251,12.721a3.485,3.485,0,0,0,3.371,4.184,39.262,39.262,0,0,0,19.393-5.756,1.146,1.146,0,0,1,1.334.039,1.076,1.076,0,0,1,.46,1.182c-2.054,9.079-7.665,20.764-22.738,24.875h0l-11.332,3.074a3.469,3.469,0,0,0,.9,6.8c.339.143,7.244-1.878,7.765-1.981l-1.09,44.052a9.954,9.954,0,0,1-19.823,1.026l-5.327-41.324A19.105,19.105,0,0,0,195.8,120.589a30,30,0,0,1-14.543-15.141A1.351,1.351,0,0,1,181.617,103.8Z" style="fill:#2b2b2b"/><path d="M146.221,265.186c-20.033,20.513-74.68,49.849-75.229,50.144a3.462,3.462,0,0,0,1.626,6.515s63.9.121,127.811.182c23.938.023,44.738.034,62.182.034,21.742-.012,44.446.019,62.85-.133,3.584-.043,5.747-.071,6.253-2.939a3.471,3.471,0,0,0-2.236-3.862c-28.2-9.657-41.937-5.976-71.421-39.038a209.643,209.643,0,0,0-24.976-24.124c-21.259-17.935-54.992-16.952-75.279,2.072C153.767,257.7,149.87,261.45,146.221,265.186Zm82.481-7.857c30.478,25.671,40.046,48.73,75.5,57.777-46.359.1-150.029-.038-218.233-.161,17.552-9.972,50.11-29.462,65.207-44.921,3.553-3.637,7.349-7.29,11.282-10.86A51.11,51.11,0,0,1,228.7,257.329Z" style="fill:#2b2b2b"/></svg>