<svg id="icons" xmlns="http://www.w3.org/2000/svg" viewBox="0 0 340 340"><title>93_rubber tree</title><path d="M74.071,142.274c10.246-27.469,9.271-57.923,0-90.583,0,0-12.516-8.593-12.516-20.281V16.1a4.54,4.54,0,0,1,4.54-4.539h51.662a5.04,5.04,0,0,0,6.925,0h36.056a6.465,6.465,0,0,0,6.924,0h15.85a4.54,4.54,0,0,1,4.54,4.539V309.152L216.538,328.1H127.1a6.4,6.4,0,0,0-6.925,0H61.555V161.688S66.305,145.547,74.071,142.274Z" style="fill:#e7ab94"/><path d="M92.26,277.058A3.463,3.463,0,0,1,88.8,273.6V181.887a3.462,3.462,0,1,1,6.924,0V273.6A3.463,3.463,0,0,1,92.26,277.058Z" style="fill:#bc735f"/><path d="M181.008,238.2l-43.8-28.018-37.741-9.329,29.756,22.326A32.729,32.729,0,0,1,142.3,248.626l.674,30.068a58.042,58.042,0,0,0,29.65,49.41h43.918l-28.486-18.952V244.915Z" style="fill:#bc735f"/><path d="M151.618,251.4c-.861,17.007,2.014,58.572,37.769,71.747a74.712,74.712,0,0,0,27.151,4.953c43.893,2.3,67.442-33.709,64.149-77.494Z" style="fill:#473f43"/><path d="M275.64,237.551c-23.73-21.275-60.552-19.562-60.552-19.562S179.41,216.1,155.223,241.04a13.15,13.15,0,0,0,.59,18.793c9.085,8.09,26.982,18.372,59.275,18.372s50.042-7.065,59.547-14.618C283.946,256.188,281.073,242.421,275.64,237.551Z" style="fill:#9b9799"/><path d="M184.582,239.164c12.277-9.207,56.277-8.463,74.285,2.734a6.53,6.53,0,0,1-.145,11.619,71.984,71.984,0,0,1-8.114,3.395S197.74,259.331,184.582,239.164Z" style="fill:#473f43"/><path d="M158.475,215.683c.306-27.189-2.688-62.574-5.184-86.942A58.747,58.747,0,0,0,126.51,85.26L74.071,51.691V93.27q1.551,5.958,0,10.142v20.4c.68,3.98.81,7.325,0,9.583v8.878l-3.884,12.478C77.338,181.8,158.475,215.683,158.475,215.683Z" style="fill:#af705f"/><path d="M131.962,89.209c5.388,8.019,12.013,21.769,13.348,42.118,1.509,23.022,2.9,58.322,3.68,80.163,5.824,2.663,9.485,4.193,9.485,4.193.306-27.189-2.688-62.574-5.184-86.941A58.733,58.733,0,0,0,131.962,89.209Z" style="fill:#7f473e"/><path d="M74.071,142.274s-1.463,17.115,9.989,26.613c19.489,17.052,88.383,47.673,116.117,72.943a17.042,17.042,0,0,0,11.4,3.926c10.03-.315,29.106.072,39.035,11.156,0,0-22.874,7.981-48.047,4.705,0,0-21.825-1.585-27.281-12.863a25.693,25.693,0,0,0-9.131-10.619c-8.748-5.6-23.6-14.781-38.6-22.542-21.563-11.16-66.567-32.169-68.319-53.031S74.071,142.274,74.071,142.274Z" style="fill:#fff"/><path d="M121.22,59.673a3.462,3.462,0,0,0,3.462-3.462V11.557h-6.925V56.211A3.462,3.462,0,0,0,121.22,59.673Z" style="fill:#bc735f"/><path d="M164.2,80.489a3.462,3.462,0,0,0,3.462-3.462V11.557h-6.924v65.47A3.462,3.462,0,0,0,164.2,80.489Z" style="fill:#bc735f"/><path d="M127.1,262.985a3.463,3.463,0,0,0-6.925,0V328.1H127.1Z" style="fill:#bc735f"/><path d="M148.963,130.268a3.452,3.452,0,0,1-2.418-.985,70.374,70.374,0,0,0-19.354-13.143c-21.291-10-38.679-26.76-39.409-27.468-3.2-3.2,1.485-8.094,4.823-4.969.17.165,17.315,16.672,37.53,26.169a77.263,77.263,0,0,1,21.247,14.456A3.486,3.486,0,0,1,148.963,130.268Z" style="fill:#7f473e"/><path d="M129.1,143.507a3.477,3.477,0,0,0,1.587-6.542c-28.946-14.9-49.33-35.639-56.616-43.7v10.142C84.045,113.262,103.968,132.2,129.1,143.507Z" style="fill:#7f473e"/><path d="M120.149,156.214c-20.646-9.055-37.91-24.39-46.078-32.4V133.4c9.537,8.741,24.988,21.129,43.3,29.159a113.557,113.557,0,0,1,31.761,20.331,3.462,3.462,0,0,0,4.707-5.079A120.422,120.422,0,0,0,120.149,156.214Z" style="fill:#7f473e"/><path d="M166.557,93.9c3.389,3.157-1.22,8.277-4.715,5.238C158.453,95.981,163.063,90.861,166.557,93.9Z" style="fill:#bc735f"/><path d="M94.617,288.822c3.39,3.157-1.22,8.277-4.714,5.237C86.514,290.9,91.123,285.782,94.617,288.822Z" style="fill:#bc735f"/><path d="M284.143,250.421c-.031-6.066-2.412-12.061-6.192-15.449-29.766-24.594-66.1-22.124-86.437-17.74V11.557h-6.925V219.206c-1.928.631-3.894,1.348-5.88,2.156-5.607-3.75-11.1-7.075-16.752-10.157-.037-26.654-2.853-59.7-5.222-82.816a61.882,61.882,0,0,0-28.359-46.046L76.012,48.823c-.493-.349-10.994-7.905-10.994-17.413V11.557H58.047c-.082,8.341-.173,17.518.266,21.354.846,7.4,3.66,13.417,12.3,20.5v85.756c-13.606,2.2-18.6,18.824-12.487,31.631-.074.016-.026,112.764-.021,157.41h6.917V180.354C88.539,204,128.472,217.419,155.762,235.7c-4.538,3.748-8.016,8.954-7.653,15.1-.036,3.375-1.8,28.655,11.1,51.773,6.677,11.854,19.75,20.232,28.917,23.8C245.247,346.1,288.586,311.246,284.143,250.421ZM77.533,58.019l47.11,30.156a54.99,54.99,0,0,1,25.2,40.919c2.24,21.86,4.884,52.64,5.163,78.293-27.968-15.38-57.533-31.872-68.739-41.165-9.851-8.17-8.768-23.418-8.749-23.659C77.5,142.274,77.558,58.327,77.533,58.019ZM123,209.375c-23.41-12.872-74.015-34.608-57.135-60.231a10.709,10.709,0,0,1,4.727-2.855c.3,6.21,2.161,17.72,11.256,25.263,21.39,18.5,84.408,45.116,116.119,72.943a20.438,20.438,0,0,0,13.712,4.722c14.136-.43,24.782,1.619,31.778,6.141-10.707,3.224-54.369,8.792-65.062-8.112a29.247,29.247,0,0,0-10.381-12.026A503.144,503.144,0,0,0,123,209.375Zm77.241,28.03a85.761,85.761,0,0,1,14.947-1.215c17.157,0,31.3,2.944,42.029,8.752a3.108,3.108,0,0,1,1.661,2.837c.137,2.96-5.249,4.021-7.37,5.117-8.113-7.611-21.55-11.167-40.045-10.6C207.167,242.521,203.324,240.259,200.243,237.405Zm69.722,57.138c-13.092,29.7-51.28,36.332-79.321,25.382-24.864-9.375-33.547-32.564-35.362-55.995,22.1,22.176,96.58,24.153,121.835,2.092A81.825,81.825,0,0,1,269.965,294.543Zm7.254-43.518c-.353,15.387-29.081,23.582-62.131,23.719-30.851,0-48.009-9.515-56.972-17.5-3.958-3.355-4.084-10.171-.408-13.8,1.325-1.367,2.741-2.665,4.193-3.916a23.629,23.629,0,0,1,10.263,10.727c6.108,12.626,28.106,14.646,30.043,14.8,23.125,3.131,48.728-3.306,58.035-8.436,7.209-3.241,7.33-14.267.273-17.774-15.708-9.076-47-12.465-67.241-6.981q-3.875-2.993-7.65-5.708c21.618-6.989,59.087-9.439,87.706,13.964C275.369,241.956,277.36,246.287,277.219,251.025Z" style="fill:#2b2b2b"/></svg>