<svg id="icons" xmlns="http://www.w3.org/2000/svg" viewBox="0 0 340 340"><title>95_chives</title><path d="M112.023,273.51c.283,1.637.689,3.64,1.266,5.832a5.293,5.293,0,0,0,6.724,3.692L132.68,279a5.291,5.291,0,0,0,3.683-5.04v-2.728a5.288,5.288,0,0,0-5.074-5.286,49.9,49.9,0,0,0-15.594,1.605A5.272,5.272,0,0,0,112.023,273.51Z" style="fill:#3e6a51"/><path d="M153.918,262.384l.687,5.417a5.121,5.121,0,0,0,5.446,4.464l13.2-.943a5.121,5.121,0,0,0,4.728-5.648l-.564-5.328a5.127,5.127,0,0,0-4.264-4.517,35.438,35.438,0,0,0-15.563.981A5.13,5.13,0,0,0,153.918,262.384Z" style="fill:#80b297"/><path d="M177.345,271.432H190.11a5.254,5.254,0,0,1,5.254,5.254v6a5.254,5.254,0,0,1-5.254,5.254H177.769a5.253,5.253,0,0,1-5.24-4.883l-.424-6A5.254,5.254,0,0,1,177.345,271.432Z" style="fill:#80b297"/><path d="M234.513,294.024v6.936a4.969,4.969,0,0,0,4.969,4.969H256.7a4.969,4.969,0,0,0,4.968-4.969v-5.126a4.953,4.953,0,0,0-3.54-4.76c-4.219-1.247-11.648-2.9-19.181-2A5,5,0,0,0,234.513,294.024Z" style="fill:#80b297"/><path d="M246.061,254.267v5.092a6.528,6.528,0,0,0,6.528,6.528H266.8a6.529,6.529,0,0,0,6.529-6.528v-7.267a6.518,6.518,0,0,0-6.718-6.526,59.788,59.788,0,0,0-16.139,2.52A6.5,6.5,0,0,0,246.061,254.267Z" style="fill:#3e6a51"/><path d="M157.671,295.98c1.582,5.19-1.911,10.853-7.8,12.649-14.265,3.861-19.72-14.044-5.729-18.8C150.03,288.037,156.089,290.789,157.671,295.98Z" style="fill:#80b297"/><path d="M161.157,236.33c-3.782-6.178,1.469-13.96,9.673-15.767,5.124-1.083,8.982,1.884,11.556,5.115a8.227,8.227,0,0,1-.952,11.134l-4.064,3.753C172.119,245.233,164.95,241.737,161.157,236.33Z" style="fill:#3e6a51"/><path d="M211.365,232.365c-6.816,2.03-15.7,8.021-10.331,16.656,3.178,5.618,8.384,4.534,13.786,4.218a8.714,8.714,0,0,0,8.223-8.757,25.067,25.067,0,0,0-.742-6.245A8.65,8.65,0,0,0,211.365,232.365Z" style="fill:#80b297"/><path d="M217.405,265.067c-6.758,2.236-13.506,8.885-7.122,16.246,3.339,4.549,7.692,3.094,12.315,2.063a7.527,7.527,0,0,0,5.877-8.573C227.764,268.928,224.179,263,217.405,265.067Z" style="fill:#3e6a51"/><path d="M198.867,301.446a16.848,16.848,0,0,0-11.33,12.013l-1.263,12.884h19.673a9.555,9.555,0,0,0,9.138-12.481C213.081,307.231,206.928,298.6,198.867,301.446Z" style="fill:#3e6a51"/><path d="M186.8,309a88.76,88.76,0,0,0-19.633,0,4.541,4.541,0,0,0-4.016,4.521V321.8a4.546,4.546,0,0,0,4.546,4.546h18.573a4.546,4.546,0,0,0,4.546-4.546v-8.272A4.541,4.541,0,0,0,186.8,309Z" style="fill:#80b297"/><path d="M284.324,198.855c3.389,3.157-1.221,8.277-4.715,5.238C276.22,200.936,280.83,195.816,284.324,198.855Z" style="fill:#2b2b2b"/><path d="M199.977,177.842a3.5,3.5,0,1,1-.01-6.925c37.251,0,58.62-5.606,58.833-5.663a3.462,3.462,0,0,1,1.79,6.689C259.687,172.185,238.118,177.842,199.977,177.842Z" style="fill:#3e6a51"/><path d="M70.081,250.828s81.053-63.995,172.293-78.853c-68.618-12.69-102.512,4.754-177.954,55.572Z" style="fill:#3e6a51"/><path d="M67.936,226.881a2.543,2.543,0,0,0,3.691.463c7.644-6.39,35.321-28.671,64.736-41.859,32.187-14.431,108.382-40.333,135.679-57.5a1.393,1.393,0,0,0-.992-2.553c-20.631,3.906-86.836,17.1-118.981,31.28l-98.38,50.575Z" style="fill:#80b297"/><path d="M58.759,209.5a626.14,626.14,0,0,1,68.016-37.9c41.516-19.69,96.217-40.881,109.239-71.173-22.708,10.04-161.558,68.3-199.3,82.949C36.711,183.366,40.324,203.35,58.759,209.5Z" style="fill:#80b297"/><path d="M25.585,176.362s45.923-25.046,73.827-32.984,62.3-25.258,91.408-47.869c-10.64,46.812-116,65.907-146.83,94.79C43.99,190.3,33.544,191.064,25.585,176.362Z" style="fill:#80b297"/><path d="M42.624,192.652c4.77,4.214,5.99,10.627,2.724,14.323-8.212,8.517-24.713-6.068-17.273-15.261C31.34,188.018,37.855,188.437,42.624,192.652Z" style="fill:#3e6a51"/><path d="M49.737,235.726c4.769,4.214,6.107,10.493,2.988,14.024-7.852,8.124-24.368-6.474-17.273-15.261C38.571,230.958,44.967,231.512,49.737,235.726Z" style="fill:#3e6a51"/><path d="M32.679,218.161c4.77,4.215,6.108,10.493,2.988,14.024-7.851,8.125-24.367-6.473-17.273-15.261C21.514,213.393,27.91,213.947,32.679,218.161Z" style="fill:#3e6a51"/><path d="M52.681,218.161c4.769,4.215,6.107,10.493,2.988,14.024C47.817,240.31,31.3,225.712,38.4,216.924,41.515,213.393,47.911,213.947,52.681,218.161Z" style="fill:#3e6a51"/><path d="M35.262,202.062c3.9,5.033,4.034,11.451.308,14.335-9.234,6.51-22.723-10.924-14.108-18.227C25.188,195.287,31.367,197.029,35.262,202.062Z" style="fill:#3e6a51"/><path d="M57.881,196.06c3.536,6.125,2.638,13.264-2.006,15.945-11.411,5.933-23.646-15.27-12.8-22.18C47.714,187.144,54.345,189.935,57.881,196.06Z" style="fill:#3e6a51"/><path d="M72.345,214.725c3.126,5.415,2.113,11.853-2.264,14.38-10.747,5.61-21.551-13.113-11.321-19.611C63.136,206.968,69.218,209.309,72.345,214.725Z" style="fill:#3e6a51"/><path d="M72.345,236.448c3.126,5.415,2.113,11.853-2.264,14.38-10.747,5.61-21.551-13.112-11.321-19.61C63.136,228.691,69.218,231.033,72.345,236.448Z" style="fill:#3e6a51"/><path d="M39.047,182.43c3.31,5.733,2.65,12.311-1.475,14.693-10.14,5.256-21.606-14.614-11.987-20.761C29.71,173.98,35.737,176.7,39.047,182.43Z" style="fill:#3e6a51"/><path d="M174.153,56.868c-6.639,6.474-14.519,17.562-11.238,31.835a3.356,3.356,0,0,0,4.262,2.457c6.4-1.976,19.521-8.73,16.98-30.626A5.935,5.935,0,0,0,174.153,56.868Z" style="fill:#84994a"/><path d="M207.308,64.2a115.861,115.861,0,0,0,.738-12.149A25.1,25.1,0,0,1,219.1,31.228a4.826,4.826,0,0,1,7.735,3.735c.151,9.045-1.776,23.748-14.348,32.376A3.339,3.339,0,0,1,207.308,64.2Z" style="fill:#84994a"/><path d="M267.205,14.214c-7.929,3.04-16.07,10.977-15.313,20.593a73.562,73.562,0,0,1-.433,12.542,3.34,3.34,0,0,0,5.26,3.2,49.668,49.668,0,0,0,19.353-28.873A6.511,6.511,0,0,0,267.205,14.214Z" style="fill:#aecc76"/><path d="M281.3,60.381c1.462-6,6.931-18.575,27.31-24.168a5.756,5.756,0,0,1,6.965,7.292c-1.87,6.067-6,13.541-15.124,16.932-8.142,3.027-12.949,3.97-15.771,4.1A3.342,3.342,0,0,1,281.3,60.381Z" style="fill:#84994a"/><path d="M265.764,85.981a44.7,44.7,0,0,1,29.7-9.443,57.077,57.077,0,0,1,9.642,1.955,5.491,5.491,0,0,1,1.164,10.033c-8.387,4.758-22.58,9.7-39.65,3.163A3.331,3.331,0,0,1,265.764,85.981Z" style="fill:#84994a"/><path d="M280.872,112.288a3.351,3.351,0,0,1-1.727-4.97c2.414-3.736,7.694-9.452,18.428-12.486a37.255,37.255,0,0,1,16.524-.84,6.143,6.143,0,0,1,3.8,9.9C312.334,110.973,301.024,119.415,280.872,112.288Z" style="fill:#aecc76"/><path d="M285.513,143.674a3.351,3.351,0,0,1-.488-4.8,24.31,24.31,0,0,1,19.717-8.521,43.366,43.366,0,0,1,14.184,2.85,5.879,5.879,0,0,1,.717,10.637C309.983,149.319,300.032,154.3,285.513,143.674Z" style="fill:#aecc76"/><path d="M246.008,168.736c4.817-3.653,14.383-8.991,28.471-8.178a7.105,7.105,0,0,1,4.767,11.924c-3.166,3.436-7.622,6.392-13.544,6.278a46.121,46.121,0,0,1-19.14-4.349A3.341,3.341,0,0,1,246.008,168.736Z" style="fill:#84994a"/><path d="M259.9,211.965a5.589,5.589,0,0,1-6.343,7.238c-16.99-2.882-24.685-13.414-23.358-21a3.331,3.331,0,0,1,2.984-3C239.121,194.63,254.259,194.942,259.9,211.965Z" style="fill:#84994a"/><path d="M302.3,153.32c7.644.119,13.074-3.185,19.01-6.44a9.259,9.259,0,0,0,4.82-8.818c-.684-9.664-13.636-10.492-21.267-11.165a27.655,27.655,0,0,0-23.8,11.423c-4.392.629-17.2,2.519-31.581,5.136,13.29-6.018,24.089-11.68,30.036-16.5a3.462,3.462,0,0,0-2.789-6.1c-.365.065-24.334,4.37-52.514,10.853,20.208-7.787,38.9-13.912,52.854-17.179,17.525,7.658,34.741,3.489,43.556-8.5,4.575-5.449,1.117-14.488-5.944-15.45a42.716,42.716,0,0,0-4.755-.531c4.727-4.43,2.544-13.239-3.826-14.872A60.911,60.911,0,0,0,295.875,73.1c-20.3-1.019-33.054,10.356-35.945,13.473-3.47,1.117-15.98,5.318-25.315,10.657,21.067-12.739,40.555-25.646,46.4-29.55,6.37,1.039,11.114-.75,20.64-4,10.571-3.93,15.2-12.59,17.228-19.161,2.279-6.632-4.439-13.767-11.188-11.648C282.969,39.656,278.357,56.1,277.5,61.7c-6.836,4.561-38.646,25.619-66.117,41.088a309.854,309.854,0,0,0,39.96-44.843c4.392-2.166,22.851-12.5,28.1-35.492,2.009-7.619-6.414-14.726-13.583-11.428a32.252,32.252,0,0,0-12.209,8.663,21.961,21.961,0,0,0-5.222,15.268c.364,8.66-.491,15.51-2.284,18.345-1.4,1.982-28.415,39.729-63.307,63.331,7.663-9.1,10.32-16.588,11.1-19.335a67.807,67.807,0,0,0,15.3-24.136C227.925,64.4,230.478,45.54,230.3,34.9c.118-6.374-7.707-10.375-12.873-6.719a28.5,28.5,0,0,0-12.844,23.861,123.6,123.6,0,0,1-1.522,17.779,60.619,60.619,0,0,1-14.513,23.062,298.171,298.171,0,0,1-33.72,22.558,82.716,82.716,0,0,0,11.6-20.494C180.89,91.7,190.144,77.9,187.6,60.137c-.6-7.529-10.606-11.231-15.862-5.746-11.421,11.137-15.474,24.388-11.541,37.444C146.771,125.422,125.287,132,86.28,144.1,59.1,154.2,24.239,173.151,23.927,173.323c-6.6,3.5-7.05,14.058-1.717,21.159-7.753,2.564-8.71,12.727-4,18.768-10.628,8.287.069,25.135,11.758,25.01-1.8,11.947,17.664,23.287,26.244,12.615,3.966,4.133,10.522,5.9,15.6,2.951,12.385-9.161,58.287-43.391,121.978-65.77,13.393-3.408,43.456-5.154,73.833,9.43a3.463,3.463,0,1,0,3-6.243,127.714,127.714,0,0,0-46.253-12.123q8.537-2.022,17.225-3.5c2.95,1.943,12.042,6.533,24.432,6.6,8.65.278,21.967-8.176,17.8-18.56a10.434,10.434,0,0,0-9.148-6.564c-18.341-1.06-29.606,7.552-33.448,11.121a207.161,207.161,0,0,0-29.5-3.071c13.4-1.939,24.325-2.76,24.535-2.775,4.532-.407,4.04-7.165-.5-6.906-.692.051-7.778.582-17.415,1.782,21.84-5.864,55.833-10.94,63.6-12.062A30.367,30.367,0,0,0,302.3,153.32Zm2.327-19.5c3.124.068,19.444,1.741,13.344,7-6.68,3.26-15.47,10.811-30.236.2A20.924,20.924,0,0,1,304.624,133.818Zm4.9-94.267a2.269,2.269,0,0,1,2.738,2.932c-2.278,7.4-6.659,12.344-13.023,14.71-8.1,3.012-12.421,3.762-14.571,3.885C285.941,55.882,290.826,44.682,309.525,39.551Zm-54.174-4.887c-.381-8.346,5.754-14.117,13.19-17.255h0a3.026,3.026,0,0,1,4.154,3.5c-3.06,13.391-11.533,21.948-17.777,26.63A76,76,0,0,0,255.351,34.664ZM211.508,52.059c-.034-7.147,4.014-15.321,10.518-18.342.779.1,1.215.3,1.35,1.3.163,9.653-2.063,21.922-12.6,29.3A118.421,118.421,0,0,0,211.508,52.059Zm-34.94,7.289a2.454,2.454,0,0,1,4.15,1.587c1.786,13.507-3.563,23.506-14.452,26.879C163.487,75.418,170.174,65.583,176.568,59.348Zm97.71,104.666a3.524,3.524,0,0,1,3.126,2.247c1.959,5.04-8.154,9.566-11.636,9.038a42.927,42.927,0,0,1-17.53-3.937C252.6,168.074,261.3,163.267,274.278,164.014Zm39.24-66.607a2.653,2.653,0,0,1,1.653,4.345c-5.412,6.894-15.459,13.485-33.048,7.307C286.43,101.458,301.618,94.83,313.518,97.407ZM295.19,79.993a53.7,53.7,0,0,1,8.908,1.813,1.993,1.993,0,0,1,1.459,1.743,1.94,1.94,0,0,1-1,1.969c-8.346,4.732-21.157,8.8-36.459,3.029A41.329,41.329,0,0,1,295.19,79.993Zm-56.5,22.885c8.245-4.588,19.222-8.356,22.909-9.564a50.374,50.374,0,0,0,21.29,4.942,28.2,28.2,0,0,0-8.066,9.687c-15.031,3.571-34.691,10.07-55.92,18.367C227.792,119.118,234.761,111.36,238.694,102.878Zm-10.923,4.759c-16.719,22.669-60.108,41.19-93.594,56.67-22.574,9.961-59.648,30.754-70.768,38.13-.282-6.066-4.479-12.564-9.916-15.128,29.458-18.99,76.029-34,110-52.1h0C185.809,125.386,213.745,113.542,227.771,107.637ZM88.491,150.669c32.983-9.6,64.881-23.9,93.262-44.165C154.565,146.17,77.728,157.322,44.076,185.693a19.691,19.691,0,0,0-7.631-11.15C48.481,168.311,70.188,157.5,88.491,150.669Zm-64.3,78.091c-3.042-2.6-5.547-8.485-.7-10.524a15.931,15.931,0,0,0,8.179,2.556C39.129,228.229,32.112,235.391,24.188,228.76Zm1.464-17.521c-7.724-7.263-1.244-14.712,6.989-7.911C40.386,210.624,33.848,218.028,25.652,211.239Zm10.189-17.115c-6.17,2.9-14.11-10.871-8.529-14.76C33.228,176.692,41.539,189.385,35.841,194.124Zm15.006,52.391c-2.548,2.91-6.545,1.611-9.522-.146-5.931-3.752-6.275-11.3,1.12-10.2a14.915,14.915,0,0,0,4.976,2.107C50.672,240.664,52.242,244.369,50.847,246.515Zm1.625-15.594C46.408,234.5,37.8,223.382,42.783,218.4a6.034,6.034,0,0,1,9,3.073C52.855,225.438,55.92,228.045,52.472,230.921Zm3.985-26.449c-.719,6.39-8.185,4.943-11.359-.878-1.745-3.344-2.789-7.7.623-10.3C51.714,190.888,57.205,199.165,56.457,204.472Zm4.034,8.021c6.5-3.064,12.744,7.643,9.17,12.4-.707.6-1.224,1.052-1.539,1.328C61.492,229.238,54.282,216.428,60.491,212.493Zm8.8,34.577c-.487.369-.851.648-1.077.823-8.2,3.582-14.773-13.426-5.584-14.228C68.3,233.465,73.228,242.92,69.292,247.07ZM221.432,172.7c-50.592,10.325-124.1,52.738-143.954,68.4a17.034,17.034,0,0,0-4.623-9.678,297.805,297.805,0,0,1,55.224-38.069c15.135-7.934,26.6-11.617,43.681-18.542C190.132,171.352,208.249,171.629,221.432,172.7Zm-96.6,14.535c-19.639,10.22-37.162,23.146-47.458,31.326a17.072,17.072,0,0,0-8.033-11.653c25.989-17.361,78.01-41.009,110.971-56.642,26.277-7.84,58.442-14.921,78.494-18.909C221.669,150.287,164.049,168,124.827,187.233Z" style="fill:#2b2b2b"/><path d="M246.658,221.071a35.269,35.269,0,0,0,7.962,1.692c5.917.171,10.644-6.274,8.571-11.888-6.389-19.265-24.506-20.647-33.2-18.687a3.463,3.463,0,0,0-2.471,2.138,17.513,17.513,0,0,0,.871,12.929C231.26,213.331,237.405,217.979,246.658,221.071Zm-13.023-22.453c5.145-.536,18.092-.31,22.983,14.436a2.105,2.105,0,0,1-2.427,2.745C244.03,213.976,232.8,208.156,233.635,198.618Z" style="fill:#2b2b2b"/><path d="M139.825,273.957v-2.729a8.734,8.734,0,0,0-8.393-8.746,53.387,53.387,0,0,0-16.717,1.745,8.73,8.73,0,0,0-6.1,9.873c.834,4.244,1.286,9.364,5.578,11.563a8.8,8.8,0,0,0,6.876.67l12.667-4.039A8.721,8.721,0,0,0,139.825,273.957Zm-6.925,0a1.819,1.819,0,0,1-1.272,1.739l-12.666,4.039c-3.1.832-2.868-4.812-3.527-6.813h0c-1.059-3.832,13.7-3.578,15.71-3.52C133.5,269.535,132.808,272.409,132.9,273.957Z" style="fill:#2b2b2b"/><path d="M150.484,262.82l.687,5.418a8.586,8.586,0,0,0,8.507,7.5c-.438.078,9.112-.639,9.108-.629-.462,1.493.29,6.6.289,8.187a8.746,8.746,0,0,0,8.694,8.1H190.11a8.726,8.726,0,0,0,8.717-8.715v-6a8.728,8.728,0,0,0-8.717-8.717h-8.819c.525-1.745-.338-6.169-.433-7.989a8.615,8.615,0,0,0-7.137-7.567C168.289,251.461,148.937,250.685,150.484,262.82Zm25.551,12.645a1.775,1.775,0,0,1,1.31-.57H190.11a1.794,1.794,0,0,1,1.792,1.792v6a1.794,1.794,0,0,1-1.792,1.791H177.769a1.8,1.8,0,0,1-1.787-1.666l-.424-6A1.779,1.779,0,0,1,176.035,275.465Zm-17.49-15.328c3-1.008,15.133-2.7,15.428.572l.564,5.33a1.61,1.61,0,0,1-1.531,1.83l-13.2.942a1.667,1.667,0,0,1-1.764-1.446l-.687-5.417A1.676,1.676,0,0,1,158.545,260.137Z" style="fill:#2b2b2b"/><path d="M239.482,309.391H256.7a8.441,8.441,0,0,0,8.432-8.431v-5.127a8.467,8.467,0,0,0-6.023-8.08,52.629,52.629,0,0,0-20.574-2.11,8.472,8.472,0,0,0-7.483,8.381v6.936A8.441,8.441,0,0,0,239.482,309.391Zm-1.507-15.367c.236-2.365,3.793-1.486,5.441-1.742a50.274,50.274,0,0,1,13.73,2.112,1.5,1.5,0,0,1,1.059,1.439v5.127a1.509,1.509,0,0,1-1.507,1.507H239.482a1.509,1.509,0,0,1-1.507-1.507Z" style="fill:#2b2b2b"/><path d="M276.791,259.359v-7.267a10.029,10.029,0,0,0-10.3-9.986,63.614,63.614,0,0,0-17.114,2.695,9.933,9.933,0,0,0-6.783,9.466v5.092a10,10,0,0,0,9.991,9.991H266.8A10,10,0,0,0,276.791,259.359Zm-27.268,0v-5.092a3.021,3.021,0,0,1,2.039-2.894,56.724,56.724,0,0,1,15.164-2.347,3.071,3.071,0,0,1,3.14,3.066v7.267a3.07,3.07,0,0,1-3.066,3.066H252.589A3.07,3.07,0,0,1,249.523,259.359Z" style="fill:#2b2b2b"/><path d="M146.244,312.637c9,.293,17.639-8.748,14.738-17.667-3.328-11.361-20.564-12.069-26.5-1.9C128.78,301.9,135.95,312.924,146.244,312.637ZM140.381,296.7c4.141-7.135,17.91-3.894,13.244,5.057C149.376,309.007,135.69,305.469,140.381,296.7Z" style="fill:#2b2b2b"/><path d="M183.783,239.355c10.285-9.763-2.286-24.938-13.669-22.181-16.012,3.9-19.154,21.881-2.606,28.265C174.642,248.041,179.016,244.07,183.783,239.355Zm-20.035-9.274a10.5,10.5,0,0,1,7.8-6.131c1.067-.225,4.31-.911,8.133,3.885a4.763,4.763,0,0,1-.592,6.433l-4.065,3.753a4.835,4.835,0,0,1-5,.966C166.151,237.4,162.091,234.326,163.748,230.081Z" style="fill:#2b2b2b"/><path d="M200,234.82c-8.548,7.249-2.28,22.413,8.7,22.213.15-.032,5.969-.281,6.318-.337,18.417-1.53,13.412-32.846-4.668-27.639h0A27.57,27.57,0,0,0,200,234.82Zm12.388.855h0a5.223,5.223,0,0,1,6.575,3.462c1.069,3.938,1.387,10.189-4.332,10.647l-5.646.317a5.3,5.3,0,0,1-4.906-2.735C199.947,241.363,207.313,237.27,212.383,235.675Z" style="fill:#2b2b2b"/><path d="M231.894,274.249c-2.062-16-16.879-16.5-25.559-5.4-6.2,8.035,2.615,21.219,12.373,18.891l4.6-.972A10.978,10.978,0,0,0,231.894,274.249Zm-14.615,6.711c-2.58.6-4.153-1.389-5.358-3.336-2.677-4.414,2.647-7.873,6.587-9.275,4.438-1.293,5.978,3.218,6.55,7.009C225.581,280.227,220.629,280.147,217.279,280.96Z" style="fill:#2b2b2b"/><path d="M167.7,329.805h38.246a13.144,13.144,0,0,0,10.636-5.451c6.144-7.933-.782-20.226-7.239-24.633-7.559-4.847-16.066-1.423-21.928,5.879a91.272,91.272,0,0,0-20.628-.037,7.988,7.988,0,0,0-7.095,7.962V321.8A8.017,8.017,0,0,0,167.7,329.805ZM200,304.719c6.19-1.656,9.62,4.342,11.8,10.238,1.376,3.768-1.876,8.053-5.855,7.924H194.2c.156-.368.056-8.722.082-9.356a8.01,8.01,0,0,0-1.1-4.055A14.437,14.437,0,0,1,200,304.719Zm-33.381,8.806a1.085,1.085,0,0,1,.935-1.08,85.651,85.651,0,0,1,18.87,0,1.085,1.085,0,0,1,.935,1.08V321.8a1.085,1.085,0,0,1-1.083,1.084H167.7a1.085,1.085,0,0,1-1.084-1.084Z" style="fill:#2b2b2b"/></svg>