<svg id="icons" xmlns="http://www.w3.org/2000/svg" viewBox="0 0 340 340"><title>96_ginger</title><path d="M227.93,47.346c3.5-1.337,25.62-15.35,45.239-4.349,0,0,20.96,14.344-.067,33.643-16.358,15.013-42.26,31.281-64.892,32.345C208.428,87.158,216.44,66.9,227.93,47.346Z" style="fill:#ffed80"/><path d="M189.923,105.792a39.31,39.31,0,0,0,18.287,3.185c17.888-19.457,20.043-46.892,19.721-61.63C191.821,66.781,189.923,105.792,189.923,105.792Z" style="fill:#efc660"/><path d="M249.142,112.575c13.305-7.747,26.945-18.357,36.3-39.329C290.072,61.9,283.547,49.112,273.169,43c16.588,18.224-22.807,57.333-50.873,63.267C220.381,114.813,234.334,118.365,249.142,112.575Z" style="fill:#e8c182"/><path d="M249.139,112.57c-14.75,2.765-22.677-1.692-26.844-6.309a64.472,64.472,0,0,1-32.372-.469,23.28,23.28,0,0,0,9.506,8.194c17.5,8.749,34.726,6.859,49.71-1.416Z" style="fill:#b77d4e"/><path d="M177.99,20.355s28.582,8.019,26.09,28.917c-10,83.824-63.44,67.978-63.44,67.978s-20-2.292-16.682-31C126.519,64.086,141.851,18.425,177.99,20.355Z" style="fill:#ffed80"/><path d="M177.99,20.355c27.283,6.321,21.715,46.31,3.03,72.983,2.879,4.3,14.106,5.232,20.267-1.279C223.607,47.323,211.31,18.856,177.99,20.355Z" style="fill:#e8c182"/><path d="M78.605,160.8a57.837,57.837,0,0,1-15.651-6.036c-19.669-10.4-39.6-.307-48.427,19.233a26.553,26.553,0,0,0,.809,25.309c5.051,8.526,10.662,24.782,8.315,53.581-1.381,17.581,20.918,25.526,31.166,11.237a67.453,67.453,0,0,0,11.307-25.761s15.022,28.4,21.694,55.572c6.8,27.709,39.227,21.694,39.227,21.694,15.967,11.274,39.341,4.555,42.4-17.355,1.177-10.3.033-24.713-8.519-42.377,0,0,36.541,45.63,109.069,30.185,4.938.356,59.735-7.931,58.139-44.948-.149-25.251-17.956-47.277-46.041-40.36-14.836,4.165-37.794,13.643-56.354,12.483l-.047-31.894c-7.528-20.509-28.114-35.35-49.092-29.963a22.081,22.081,0,0,1-8.3,2.746,133.046,133.046,0,0,0-17.845,8.128,5.777,5.777,0,0,1-6.815,2.023,17.867,17.867,0,0,1-15.595-6.6,19.336,19.336,0,0,0-14.769-7.1l-16.833-.159C89.064,150.429,82.713,154.433,78.605,160.8Z" style="fill:#e8c182"/><path d="M98.093,162.492c-5.455-2.559-6.719-7.092-3.08-12.011-6.828.525-12.549,4.349-16.408,10.318A130.633,130.633,0,0,0,97.63,164.08.843.843,0,0,0,98.093,162.492Z" style="fill:#b77d4e"/><path d="M52.328,226.544a3.486,3.486,0,0,1-2.3-6.048c13.06-11.629,18.208-34.22,19.815-43.393a3.463,3.463,0,1,1,6.821,1.2c-1.732,9.886-7.347,34.293-22.031,47.369A3.45,3.45,0,0,1,52.328,226.544Z" style="fill:#b77d4e"/><path d="M324.125,221.409C322.8,241.9,310.476,257.8,262.957,267.543c-37.192,7.628-61.86-5.292-73.811-14.308a50.218,50.218,0,0,1-10.9-11.6c-13.244-19.091-37.422-23.608-54.659-17.429a48.675,48.675,0,0,1-22.459,2.573,1.98,1.98,0,0,0-1.012,3.793c22.132,8.328,46.288.708,60.807,25.323,0,0,36.541,45.629,109.069,30.185C288.213,284.875,343.7,271.661,324.125,221.409Z" style="fill:#b77d4e"/><path d="M113.288,233.5a3.485,3.485,0,0,1-2.34-6.015c14.908-13.656,10.555-42,10.509-42.284a3.463,3.463,0,0,1,6.837-1.1c.211,1.313,4.961,32.34-12.668,48.488A3.45,3.45,0,0,1,113.288,233.5Z" style="fill:#b77d4e"/><path d="M152.537,237.3a3.464,3.464,0,0,0,4.707-1.348c8.25-14.876,8.719-36.747,1.044-48.753-5.706-8.928-7.4-18.6-7.843-24.94a17.992,17.992,0,0,1-6.81,2.023,59.917,59.917,0,0,0,8.819,26.646c6.339,9.917,5.76,29-1.266,41.666A3.462,3.462,0,0,0,152.537,237.3Z" style="fill:#b77d4e"/><path d="M189.518,188.632a3.462,3.462,0,0,0,6.879-.794c-2.22-19.241-11.829-30.369-19.8-36.427a78.374,78.374,0,0,0-8.3,2.735C175.307,158.258,187.152,168.119,189.518,188.632Z" style="fill:#b77d4e"/><path d="M187.923,208.221c15.225,5.035,37.813,5.035,37.813,5.035s5.555-15.824-.049-31.893c-1.2,20.838-23.914,23.533-37.178,23.315A1.817,1.817,0,0,0,187.923,208.221Z" style="fill:#b77d4e"/><path d="M211.28,274.585a3.482,3.482,0,0,1-3.151-4.894c.43-.947.906-1.943,1.406-2.989,2.256-4.72,4.813-10.07,5.872-16.618,3.112-19.252-5.053-41.379-5.135-41.6a3.463,3.463,0,0,1,6.485-2.429c3.7,10.156,12.382,40.469-.975,63.632C214.744,271.77,214.025,274.654,211.28,274.585Z" style="fill:#b77d4e"/><path d="M282.651,277.6a3.474,3.474,0,0,1-3.413-4.068,64.323,64.323,0,0,0,.227-20.262,3.462,3.462,0,0,1,6.847-1.03,71.425,71.425,0,0,1-.255,22.5A3.464,3.464,0,0,1,282.651,277.6Z" style="fill:#b77d4e"/><path d="M273.382,224.507a3.462,3.462,0,1,0,6.523-2.322,93.549,93.549,0,0,0-8.75-18.03c-2.2.709-4.488,1.445-6.831,2.179A86.939,86.939,0,0,1,273.382,224.507Z" style="fill:#b77d4e"/><path d="M43.7,165.241c3.389,3.157-1.22,8.277-4.714,5.237C35.6,167.321,40.206,162.2,43.7,165.241Z" style="fill:#b77d4e"/><path d="M43.7,186.8c3.389,3.157-1.22,8.277-4.714,5.237C35.6,188.875,40.206,183.755,43.7,186.8Z" style="fill:#b77d4e"/><path d="M282.032,236.138c3.39,3.157-1.22,8.277-4.714,5.237C273.929,238.218,278.539,233.1,282.032,236.138Z" style="fill:#b77d4e"/><path d="M244.171,244.722c3.39,3.157-1.22,8.277-4.714,5.237C236.068,246.8,240.677,241.682,244.171,244.722Z" style="fill:#b77d4e"/><path d="M163.91,74.984c7.7-29.777-3.522-44.184-8.4-48.81-26.625,16.354-47.171,82.7-16.459,90.74C145.628,112.253,157.25,100.749,163.91,74.984Z" style="fill:#efc660"/><path d="M111.721,19.575s29.309,4.712,29.213,25.758c-.384,84.417-55.285,74.761-55.285,74.761s-21.045,0-20.1-28.9C66.272,68.9,75.6,21.774,111.721,19.575Z" style="fill:#ffed80"/><path d="M111.721,19.575c31.188,3.334,25.556,53.877,6.6,79.507,4.042,4.863,17.209.616,22.323-5.5C159.8,49.285,149.681,13.662,111.721,19.575Z" style="fill:#e8c182"/><path d="M181.019,93.337c-10.195,14.16-24.3,23.123-40.379,23.913l23.41,2.684c16.56,1.915,28.113-12.085,37.233-27.877A34.743,34.743,0,0,1,181.019,93.337Z" style="fill:#b77d4e"/><path d="M109.212,120.093c15.833-.29,23.75-12.061,31.426-26.513a63.437,63.437,0,0,1-22.326,5.5c-8.293,11.23-19.48,18.845-32.663,21.016Z" style="fill:#b77d4e"/><path d="M164.07,311.343c-26.421,2.772-29.739-18.451-29.739-18.451C109.894,298.35,96.5,275.16,90.219,258.8a94.872,94.872,0,0,0-40.288-47.538c-3.32-1.966-6.912-3.918-10.794-5.821C14.786,193.5,14.505,178.318,16.6,170.157a27.941,27.941,0,0,0-1,29.6c4.978,8.644,10.353,24.831,8.048,53.125-1.38,17.59,20.922,25.521,31.166,11.238a67.453,67.453,0,0,0,11.307-25.761s15.022,28.4,21.694,55.572c6.8,27.709,39.227,21.694,39.227,21.694C138.2,323.313,154.451,323.6,164.07,311.343Z" style="fill:#b77d4e"/><path d="M92.811,285.453a3.475,3.475,0,0,1-3.389-4.189,78.922,78.922,0,0,1,6.039-17.488,64.666,64.666,0,0,1,15.6-21.073c3.472-2.923,7.935,2.161,4.55,5.22a57.8,57.8,0,0,0-13.907,18.843,71.985,71.985,0,0,0-5.513,15.949A3.464,3.464,0,0,1,92.811,285.453Z" style="fill:#b77d4e"/><path d="M129.912,307.668a3.478,3.478,0,0,1-3.3-4.5c6.8-21.675,18.5-32.915,27.122-38.527,3.847-2.412,7.557,3.245,3.778,5.8-7.668,4.993-18.108,15.085-24.294,34.8A3.464,3.464,0,0,1,129.912,307.668Z" style="fill:#b77d4e"/><path d="M216.035,50.939c.547-27.285-23.114-35.249-38.134-34.048-11.559-.547-21.964,3.325-30.97,11.507C137.824,14,115.353,14.852,111.248,16.142,74.3,18.6,62.955,64.367,62.085,91.082c-1.172,19.079,9.628,32.033,23.564,32.473h23.563a29.5,29.5,0,0,0,20.124-7.954,22.461,22.461,0,0,0,10.91,5.088c19.976,1.511,34.716,8.677,50.561-8.509,34.01,28.081,83.813-2.244,97.806-37.557,5.454-12.119-1.862-27.947-13.6-34.556C251.894,27.223,225.8,43.917,216.035,50.939ZM85.4,116.618c-10.948-.846-17.2-11.487-16.389-25.31.087-2.681,2.6-65.56,42.682-68.256,13.132,1.731,20.426,14.891,18.571,31.731C127.519,87.666,109.506,112.46,85.4,116.618Zm23.817.013h-4.8c17.976-11.118,30.444-33.618,32.748-61.272,1.046-14.055-1.636-24.266-9.412-31.892,14.789,3.963,19.739,15.976,18.53,34.176C144.062,87.013,129.231,116.763,109.212,116.631ZM134,110.48C145.313,99.323,160.024,57.851,150.33,34.7c7.9-7.707,17.063-11.379,27.233-10.9,12.852,3.218,18.6,17.122,14.834,33.64-6.466,32.356-27.185,54.938-51.613,56.322A15.894,15.894,0,0,1,134,110.48Zm47.312,1.026c-6.342,5.337-13.754,5.77-21.638,4.441,19.126-9,34.074-29.932,39.513-57.145,2.638-13.829,1.138-24.274-5.7-32.729,14.248,5.611,17.757,18.116,14.495,36.038C202.9,88.854,190.675,103.734,181.313,111.506Zm33.946-50.845c8.663-8.164,35.154-25.753,55.811-14.883,1.034,1.069,6.09,7.251-1.194,19.752-9.387,16.109-36.089,43.831-71.99,38.38C205.065,94.512,212.475,78.661,215.259,60.661Zm67,11.206c-12.1,27.193-45.329,55.85-80.312,39.5,38.209,3.213,74.8-31.042,78.688-56.212C283.657,60.429,284.388,66.968,282.261,71.867Z" style="fill:#2b2b2b"/><path d="M281.154,197.438c-15.907,4.578-33.985,11.958-50.917,12.437,9.28-32.993-21.948-72.738-57.887-60.842a141.783,141.783,0,0,0-23.286,10.054,14.494,14.494,0,0,1-18.345-3.581,22.741,22.741,0,0,0-17.415-8.37l-16.833-.158c-7.553-.255-15.056,4.267-19.383,9.888a59.715,59.715,0,0,1-12.468-5.138,36.249,36.249,0,0,0-44.639,7.738C9.847,170.9,3.717,186.929,12.358,201.07c4.829,8.151,10.109,23.71,7.843,51.534-1.638,21.1,25.127,30.623,37.438,13.525a73.6,73.6,0,0,0,9.412-18.077c4.879,10.285,13.024,28.872,17.4,46.708,5.785,23.555,29.139,26.375,41.851,24.5,9.492,6.04,23.323,7.7,33.591.552,16.909-11.177,15.032-32.918,9.926-50.8,25.673,18.587,52.942,29.259,100.656,20.5,25.132-1.563,78.934-19.818,55.506-72.434A38.235,38.235,0,0,0,281.154,197.438Zm41.322,56.122c-10.777,25.916-52.3,29.039-52.715,29.067-46.964,10.918-87.342-7.352-106.137-28.9-2.518-3.192-7.6.051-5.817,3.674,8.334,17.657,15.312,45.284-1.719,56.625-8.847,6.193-20.35,3.37-27.048-1.232a3.48,3.48,0,0,0-2.621-.575c-1.192.22-29.306,5.045-35.239-19.115-6.7-27.272-21.374-55.189-22-56.365a3.483,3.483,0,0,0-6.457.95A64.334,64.334,0,0,1,52,262.117c-8.16,11.387-26.01,5.207-24.893-8.95,2.415-29.64-3.445-46.61-8.787-55.627a22.968,22.968,0,0,1-.687-22c7.756-17.441,25.7-27.262,43.66-17.737A61.133,61.133,0,0,0,77.98,164.2a3.462,3.462,0,0,0,3.616-1.66c2.7-4.491,8.883-8.933,14.811-8.642l16.832.159a15.95,15.95,0,0,1,12.485,6.266,21.419,21.419,0,0,0,26.691,4.819,134.823,134.823,0,0,1,22.144-9.55c20.325-6.835,37.68,6.242,45.867,22.238,8.213,16.047,2.1,34.1,2.043,34.274a3.484,3.484,0,0,0,3.051,4.6c19.148,1.089,39.7-7.452,57.5-12.605C313.373,196.015,331.221,228.8,322.476,253.56Z" style="fill:#2b2b2b"/></svg>