<svg id="icons" xmlns="http://www.w3.org/2000/svg" viewBox="0 0 340 340"><title>97_weed</title><path d="M167.578,272.192a103.858,103.858,0,0,0-29.175-4.116,4.088,4.088,0,0,1-4.018-4.927l1.05-4.989a217.41,217.41,0,0,0-34.478,2.7,4.085,4.085,0,0,1-4.456-5.593l2.091-5.062s-22.664-1.886-43.6-1.695a4.086,4.086,0,0,1-3.613-6.063l2.155-3.905S30.29,228.524,16.126,212.879a4.66,4.66,0,0,1,2.206-7.653c8.878-2.364,25.3-5.543,41.166-2.3l-.194-3.335a4.089,4.089,0,0,1,5.616-4.03c5.575,2.256,13.838,6.142,19.358,11.175l.706-4.119a4.086,4.086,0,0,1,5.726-3.032c9.524,4.361,31.5,15.294,51.351,31.536H170Z" style="fill:#3e6a51"/><path d="M130.523,217.286s-9.123-13.2-22.876-22.071a4.276,4.276,0,0,1-.358-6.935l2.673-2.138A103.536,103.536,0,0,0,85.4,166.2a4.273,4.273,0,0,1-.424-7.149l2.61-1.933s-9.16-13.016-20.378-22.693a4.3,4.3,0,0,1,.221-6.645l3.526-2.713a104.952,104.952,0,0,0-15.567-17.83,4.275,4.275,0,0,1,.854-6.927l2.316-1.247a73.186,73.186,0,0,1-15.9-34.472,5.739,5.739,0,0,1,7.87-6.256c8.251,3.437,20.525,10,29.2,21.074L82.1,76.6a4.945,4.945,0,0,1,7.99.6c4.08,6.634,10.216,17.985,11.407,27.9l2.737-2.19a4.945,4.945,0,0,1,7.6,1.825c2.976,6.6,7.305,17.91,7.5,28.184l2.111-3.117a4.944,4.944,0,0,1,8.343.237c2.419,4.067,5.654,9.891,8.993,17.028C141.506,175.183,139.634,199.345,130.523,217.286Z" style="fill:#80b297"/><path d="M168.017,181.909H151.084a181.841,181.841,0,0,0-12.3-34.835l-7.635-1.558a2.836,2.836,0,0,0-3.393,3.078c.909,8.491,3.716,29.248,10.542,43.823l-8.646-.558a4.349,4.349,0,0,0-4.481,5.468l5.355,19.959-2.225,1.548a4.272,4.272,0,0,0-.289,6.805c21.231,17.395,40.008,40.933,40.008,40.933Z" style="fill:#3e6a51"/><path d="M171.983,272.329a105.912,105.912,0,0,1,29.614-4.253,4.088,4.088,0,0,0,4.018-4.927l-1.05-4.989a217.426,217.426,0,0,1,34.479,2.7,4.085,4.085,0,0,0,4.456-5.593l-2.092-5.062s22.665-1.886,43.6-1.695a4.086,4.086,0,0,0,3.614-6.063l-2.155-3.905s23.242-10.022,37.405-25.667a4.66,4.66,0,0,0-2.206-7.653c-8.878-2.364-25.3-5.543-41.166-2.3l.194-3.335a4.089,4.089,0,0,0-5.616-4.03c-5.575,2.256-13.838,6.142-19.358,11.175l-.706-4.119a4.086,4.086,0,0,0-5.726-3.032c-9.524,4.361-31.5,15.294-51.351,31.536H170Z" style="fill:#3e6a51"/><path d="M209.477,217.286s9.123-13.2,22.876-22.071a4.276,4.276,0,0,0,.358-6.935l-2.673-2.138A103.536,103.536,0,0,1,254.6,166.2a4.273,4.273,0,0,0,.424-7.149l-2.609-1.933s9.159-13.016,20.377-22.693a4.294,4.294,0,0,0-.221-6.645l-3.526-2.713a104.952,104.952,0,0,1,15.567-17.83,4.275,4.275,0,0,0-.854-6.927l-2.316-1.247a73.186,73.186,0,0,0,15.9-34.472,5.739,5.739,0,0,0-7.869-6.256c-8.252,3.437-20.526,10-29.2,21.074L257.9,76.6a4.946,4.946,0,0,0-7.991.6c-4.08,6.634-10.216,17.985-11.407,27.9l-2.737-2.19a4.944,4.944,0,0,0-7.6,1.825c-2.977,6.6-7.306,17.91-7.5,28.184l-2.111-3.117a4.945,4.945,0,0,0-8.344.237c-2.328,3.913-5.411,9.453-8.615,16.225C193.662,171.244,190.29,222.778,209.477,217.286Z" style="fill:#80b297"/><path d="M211.991,225.639a4.272,4.272,0,0,0-.289-6.805l-2.225-1.548-4.776-1.217,8-21.69a4.349,4.349,0,0,0-4.679-5.813l-7.363,1.022c4.629-15.283,8.938-30.07,10.767-41.019a2.838,2.838,0,0,0-3.218-3.267l-6.611.969a182.393,182.393,0,0,0-12.68,35.638H171.983v84.663S190.761,243.034,211.991,225.639Z" style="fill:#3e6a51"/><path d="M151.767,266.572s8.679,9.348,8.679,26.362v33.632h19.108V292.934c0-17.014,8.68-26.362,8.68-26.362Z" style="fill:#3e6a51"/><path d="M193.306,155.2l-3.3.485a119.8,119.8,0,0,0,8.337-37.091,5.27,5.27,0,0,0-7.008-5.291l-2.751.969a134.881,134.881,0,0,0,6.386-45.726,5.274,5.274,0,0,0-7.121-4.774l-2.509.947a76.268,76.268,0,0,0-11.012-45.4,5.081,5.081,0,0,0-8.652,0,76.268,76.268,0,0,0-11.012,45.4l-2.509-.947a5.274,5.274,0,0,0-7.121,4.774,134.881,134.881,0,0,0,6.386,45.726l-2.75-.969a5.271,5.271,0,0,0-7.009,5.291A119.8,119.8,0,0,0,150,155.681l-3.3-.485a5.271,5.271,0,0,0-5.9,6.4,166.157,166.157,0,0,0,13.864,37.572l-5.219-.712a5.275,5.275,0,0,0-5.941,5.841,181.249,181.249,0,0,0,20.1,64.5,7.271,7.271,0,0,0,12.787,0,181.273,181.273,0,0,0,20.1-64.5,5.274,5.274,0,0,0-5.941-5.841l-5.219.712A166.157,166.157,0,0,0,199.2,161.592,5.27,5.27,0,0,0,193.306,155.2Z" style="fill:#80b297"/><path d="M171.983,78.265a3.462,3.462,0,0,0-3.462,3.462V240.148a3.462,3.462,0,0,0,6.924,0V81.727A3.462,3.462,0,0,0,171.983,78.265Z" style="fill:#2b2b2b"/><path d="M322.559,201.88c-8.036-2.139-23.126-5.176-38.414-3.08a7.6,7.6,0,0,0-10.363-6.445,84.955,84.955,0,0,0-15.765,8.193,7.591,7.591,0,0,0-10.168-4.108,267.272,267.272,0,0,0-30.46,16.52,83.831,83.831,0,0,1,16.841-14.836,7.792,7.792,0,0,0,.886-12.345,100.376,100.376,0,0,1,21.189-16.57c4.72-2.488,5.238-9.653.952-12.812a136.022,136.022,0,0,1,17.8-19.354c4.089-3.361,3.223-10.076-1.252-12.689A103.911,103.911,0,0,1,286.935,109.8a7.787,7.787,0,0,0-.27-11.688,78.837,78.837,0,0,0,14.086-32.925,9.037,9.037,0,0,0-3.3-8.732,9.217,9.217,0,0,0-9.307-1.32c-8.1,3.377-19.16,9.312-27.874,18.916a8.459,8.459,0,0,0-13.3,1.338c-3.9,6.338-8.584,15.123-10.817,23.725a8.456,8.456,0,0,0-11.134,4.2,94.306,94.306,0,0,0-7,21.633,8.451,8.451,0,0,0-10.775,3.323c-.891,1.5-2.116,3.3-3.535,5.384-1.693,2.486-3.688,5.423-5.674,8.7A125.088,125.088,0,0,0,201.8,118.8a8.789,8.789,0,0,0-8.158-9.245,141.168,141.168,0,0,0,4.789-41.139,8.818,8.818,0,0,0-9.372-8.431,80.254,80.254,0,0,0-11.791-42.5,8.543,8.543,0,0,0-14.531,0,80.27,80.27,0,0,0-11.79,42.5,8.819,8.819,0,0,0-9.372,8.431,141.126,141.126,0,0,0,4.79,41.139A8.791,8.791,0,0,0,138.2,118.8a125.671,125.671,0,0,0,4.317,25.593c-2.471-4.567-4.993-8.546-7.057-11.792-1.045-1.644-1.948-3.064-2.7-4.324a8.45,8.45,0,0,0-10.773-3.323,94.305,94.305,0,0,0-7-21.633,8.456,8.456,0,0,0-11.134-4.2c-2.233-8.6-6.919-17.387-10.817-23.725a8.459,8.459,0,0,0-13.3-1.338c-8.714-9.6-19.769-15.54-27.874-18.916a9.217,9.217,0,0,0-9.307,1.32,9.035,9.035,0,0,0-3.3,8.732A78.837,78.837,0,0,0,53.335,98.112a7.788,7.788,0,0,0-.269,11.689A103.962,103.962,0,0,1,66.2,124.353c-4.473,2.616-5.343,9.328-1.252,12.69a135.961,135.961,0,0,1,17.8,19.354c-4.285,3.159-3.769,10.323.953,12.812a100.4,100.4,0,0,1,21.188,16.57,7.792,7.792,0,0,0,.887,12.345,83.828,83.828,0,0,1,16.843,14.839A267.455,267.455,0,0,0,92.151,196.44a7.59,7.59,0,0,0-10.167,4.108,85.011,85.011,0,0,0-15.764-8.193A7.6,7.6,0,0,0,55.855,198.8c-15.288-2.1-30.379.941-38.415,3.08-5.761,1.345-7.981,9.081-3.88,13.323,11.352,12.54,27.988,21.443,35.147,24.919-3.446,4.849.36,12.05,6.315,11.854,14.883-.132,30.819.8,38.543,1.333-2.9,5.314,2,12.184,7.986,10.966a208.2,208.2,0,0,1,29.609-2.614,7.655,7.655,0,0,0,7.237,9.878,101.627,101.627,0,0,1,13.268.875,40.444,40.444,0,0,1,5.319,20.52v33.632h6.925V292.934a48.226,48.226,0,0,0-3.767-19.066c6.764,1.367,5.53,1.871,9.858,2.195,4.092-.283,2.96-.759,9.848-2.172a48.28,48.28,0,0,0-3.756,19.043v33.632h6.924V292.934a39.924,39.924,0,0,1,5.312-20.505,100.873,100.873,0,0,1,13.275-.89,7.656,7.656,0,0,0,7.237-9.879,207.853,207.853,0,0,1,29.61,2.615c5.979,1.22,10.89-5.653,7.985-10.966,7.722-.533,23.652-1.464,38.543-1.333,5.952.274,9.757-7.039,6.315-11.854,7.159-3.477,23.8-12.379,35.148-24.919C330.54,210.961,328.323,203.223,322.559,201.88ZM199.7,153.749a119.429,119.429,0,0,1,9.722-16.194c1.484-2.179,2.765-4.061,3.764-5.741a1.457,1.457,0,0,1,2.5-.064l2.111,3.116a3.482,3.482,0,0,0,6.328-1.875c.19-9.871,4.591-21.045,7.2-26.827a1.45,1.45,0,0,1,2.28-.543l2.738,2.19a3.485,3.485,0,0,0,5.6-2.292c1.135-9.458,7.328-20.665,10.918-26.5a1.485,1.485,0,0,1,2.4-.179c2.029,2.529,4.553,6.071,7.742,2.7,8.1-10.342,19.59-16.591,27.8-20.013a2.256,2.256,0,0,1,3.129,2.46A70.511,70.511,0,0,1,278.9,96.7a3.485,3.485,0,0,0,.9,5.405l2.316,1.247a.788.788,0,0,1,.173,1.31,107.644,107.644,0,0,0-16.137,18.494,3.462,3.462,0,0,0,.781,4.648l3.526,2.713a.8.8,0,0,1,.07,1.28c-11.41,9.842-20.563,22.777-20.947,23.322-2.04,3.315,1.051,5.015,3.379,6.707a.791.791,0,0,1-.067,1.354,106.2,106.2,0,0,0-25.481,20.7,3.485,3.485,0,0,0,.462,4.962l2.674,2.139a.793.793,0,0,1-.071,1.32c-14.172,9.136-23.461,22.451-23.849,23.013a3.462,3.462,0,0,0,.871,4.81l2.225,1.548a.785.785,0,0,1,.072,1.285c-6.138,5.029-11.976,10.462-16.942,15.359a184.72,184.72,0,0,0,5.708-23.982c25.416-53.492,72.553-123.49,73.027-124.192,2.478-3.8-3.121-7.616-5.739-3.876-.441.654-40.961,60.823-67.348,112.539a8.7,8.7,0,0,0-7.222-3.869,169.837,169.837,0,0,0,11.3-32.575A8.722,8.722,0,0,0,199.7,153.749Zm-90.177,38.556a.792.792,0,0,1-.071-1.32c2.356-1.874,5.59-3.739,3.135-7.1a106.184,106.184,0,0,0-25.48-20.7.762.762,0,0,1-.4-.643.789.789,0,0,1,.33-.711l2.609-1.932a3.462,3.462,0,0,0,.771-4.775c-.384-.545-9.537-13.48-20.946-23.322a.762.762,0,0,1-.267-.619.85.85,0,0,1,.335-.661c2.245-1.893,6.487-3.765,4.308-7.361a107.637,107.637,0,0,0-16.136-18.493.769.769,0,0,1-.253-.687.79.79,0,0,1,.425-.624l2.316-1.247a3.485,3.485,0,0,0,.9-5.405A69.98,69.98,0,0,1,46.068,63.986a2.255,2.255,0,0,1,3.129-2.46C57.408,64.948,68.9,71.2,77,81.539a3.484,3.484,0,0,0,5.369.1l2.374-2.805a1.454,1.454,0,0,1,2.4.179c3.591,5.839,9.783,17.046,10.918,26.5a3.461,3.461,0,0,0,2.127,2.792c2.321,1.147,4.561-1.46,6.211-2.69a1.481,1.481,0,0,1,2.28.543c2.607,5.782,7.008,16.956,7.2,26.827a3.463,3.463,0,0,0,2.478,3.253c3.08.993,4.535-2.52,5.961-4.494a1.453,1.453,0,0,1,1.278-.655,1.432,1.432,0,0,1,1.223.719c.8,1.349,1.776,2.88,2.806,4.5A138.989,138.989,0,0,1,139.71,154.3a8.7,8.7,0,0,0-2.287,8.066,169.836,169.836,0,0,0,11.295,32.576,8.707,8.707,0,0,0-7.48,4.281C118.478,152.151,75.65,93.54,73.616,90.768c-2.74-3.612-8.219.366-5.583,4.094.554.756,55.561,76.025,74.175,123.715a184.911,184.911,0,0,0,4.964,19.832c-5.842-5.812-11.519-10.983-16.969-15.448a.759.759,0,0,1-.282-.637c-.141-.605,1.974-1.678,2.58-2.2a3.462,3.462,0,0,0,.87-4.81C132.983,214.756,123.694,201.441,109.523,192.305ZM138.4,264.614a.618.618,0,0,1-.625-.752l1.05-4.989a3.462,3.462,0,0,0-3.349-4.175,219.376,219.376,0,0,0-35.111,2.755c-.3.142-.93-.414-.662-.861l2.091-5.062a3.486,3.486,0,0,0-2.914-4.772c-.227-.018-23.064-1.881-43.919-1.707a.616.616,0,0,1-.551-.927l2.155-3.905a3.484,3.484,0,0,0-1.66-4.852c-.225-.1-22.735-9.926-36.209-24.811a1.175,1.175,0,0,1,.529-1.985c8.208-2.184,24.264-5.381,39.581-2.25a3.483,3.483,0,0,0,4.15-3.592l-.193-3.335a.626.626,0,0,1,.861-.62c5.563,2.25,13.258,5.9,18.323,10.523a3.471,3.471,0,0,0,3.458.716c2.7-.739,2.487-4.675,2.994-6.807a.612.612,0,0,1,.871-.47,259.148,259.148,0,0,1,33.784,18.755,7.626,7.626,0,0,0,2.763,6.826c2.62,2.147,5.344,4.525,8.124,7.06-35.063-13.705-79.106-19.639-81.3-19.928-4.513-.522-5.414,6.191-.906,6.865.622.082,62.307,8.4,96.76,27.372,1.5,1.567,2.987,3.175,4.494,4.8,1.842,4.433,3.709,8.427,5.508,11.984A111.343,111.343,0,0,0,138.4,264.614Zm34.948,2.536a3.831,3.831,0,0,1-6.692,0,176.59,176.59,0,0,1-19.712-63.25,1.778,1.778,0,0,1,2.034-2.017l5.218.711a3.486,3.486,0,0,0,3.512-5.079,163.7,163.7,0,0,1-13.533-36.7,1.778,1.778,0,0,1,2.018-2.2c2.06.242,5.128,1.3,6.557-.842a3.464,3.464,0,0,0,.418-3.49,117.539,117.539,0,0,1-8.051-35.909,1.782,1.782,0,0,1,2.4-1.816c1.971.7,4.636,2.057,6.356.144a3.466,3.466,0,0,0,.8-3.611,132.694,132.694,0,0,1-6.184-44.429,1.84,1.84,0,0,1,.821-1.479,1.757,1.757,0,0,1,1.618-.183l2.508.947a3.484,3.484,0,0,0,4.658-3.667,73.056,73.056,0,0,1,10.516-43.145,1.62,1.62,0,0,1,2.774,0A73.49,73.49,0,0,1,181.9,64.287a3.485,3.485,0,0,0,4.659,3.667c1.7-.582,4.484-2.317,4.948.715a132.723,132.723,0,0,1-6.184,44.427,3.463,3.463,0,0,0,.8,3.613c1.736,1.93,4.394.542,6.358-.144a1.778,1.778,0,0,1,2.4,1.816,117.526,117.526,0,0,1-8.05,35.906,3.46,3.46,0,0,0,.416,3.492c1.4,2.128,4.533,1.088,6.558.843a1.778,1.778,0,0,1,2.018,2.2,164.152,164.152,0,0,1-13.534,36.7,3.487,3.487,0,0,0,3.513,5.078l5.219-.711a1.776,1.776,0,0,1,2.034,2.017C189.813,229.756,183.391,247.871,173.346,267.15Zm147.961-56.594c-13.475,14.885-35.985,24.713-36.21,24.811a3.484,3.484,0,0,0-1.66,4.852l2.155,3.905a.59.59,0,0,1-.009.624c-19.977.641-44.606,1.694-44.461,2.011a3.485,3.485,0,0,0-2.913,4.771l2.091,5.062a.6.6,0,0,1-.094.642.553.553,0,0,1-.568.219,218.6,218.6,0,0,0-35.111-2.755,3.486,3.486,0,0,0-3.35,4.175l1.05,4.99a.642.642,0,0,1-.759.751A110.886,110.886,0,0,0,181.49,266.5c1.839-3.636,3.75-7.733,5.632-12.282q.934-1.015,2.055-2.21c25.647-14.388,106.067-32.076,106.878-32.253,4.417-1.04,3-7.664-1.479-6.764-2.8.611-58.185,12.8-91.878,25.466,3.59-3.376,7.473-6.847,11.487-10.136a7.625,7.625,0,0,0,2.763-6.826,259.446,259.446,0,0,1,33.784-18.755.613.613,0,0,1,.871.47c.514,2.143.286,6.059,2.994,6.807a3.472,3.472,0,0,0,3.458-.716c5.066-4.619,12.76-8.273,18.324-10.523a.625.625,0,0,1,.86.62l-.193,3.335a3.484,3.484,0,0,0,4.15,3.592c15.319-3.133,31.374.066,39.58,2.25a1.1,1.1,0,0,1,.811.788A1.216,1.216,0,0,1,321.307,210.556Z" style="fill:#2b2b2b"/></svg>