<svg id="icons" xmlns="http://www.w3.org/2000/svg" viewBox="0 0 340 340"><title>98_cactus</title><path d="M197.844,14.761c-34.273-5.91-74.225,20.7-63.988,93.7,1.826,13.29,3.525,26.951,5.1,40.652l52,181h30.152a7.388,7.388,0,0,1,7.038,0H239.5a6.976,6.976,0,0,0,6.978-6.711C244.806,294.358,266.25,24.821,197.844,14.761Z" style="fill:#80b297"/><path d="M138.955,149.115c10.3,89.643,15.278,181,15.278,181h36.726C195.082,286.651,192.681,177.8,138.955,149.115Z" style="fill:#3e6a51"/><path d="M222.293,266.5h4.217a3.462,3.462,0,1,0,0-6.924h-4.478c-.619-18.1-.81-37.422-.633-56.809h3.761a3.463,3.463,0,0,0,0-6.925h-3.682c.253-18.573.837-37.074,1.7-54.487h4.806a3.462,3.462,0,1,0,0-6.924h-4.445c1.382-17.639.611-36.515-1.9-50.148l2.954-.571a3.463,3.463,0,0,0-1.316-6.8l-2.934.567a142.067,142.067,0,0,0-10.072-30.5l2.5-1.534c3.841-2.444.3-8.212-3.617-5.9l-2.022,1.239a70.3,70.3,0,0,0-6.921-10.694,3.462,3.462,0,0,0-5.317,4.435c.257.311,25.729,31.8,22.057,93.755-3.874,65.378-4.1,154.5,4.159,201.837h7.038C225.221,313.793,223.323,291.52,222.293,266.5Z" style="fill:#3e6a51"/><path d="M176.7,154.239c-2.889-19.066-6.213-39.336-10.019-61.109a181.234,181.234,0,0,1-2.978-31.007c0-9.743,1.111-18.257,3.335-25.45a3.462,3.462,0,1,0-6.615-2.046,90.021,90.021,0,0,0-3.586,24.087h-3.349a3.462,3.462,0,1,0,0,6.924h3.342a201.959,201.959,0,0,0,3.382,30.708l-3.43.4a3.462,3.462,0,0,0,.4,6.9c-.009.019,4.055-.443,4.212-.473q4.419,25.7,7.942,48.708l-4.205.8a3.463,3.463,0,0,0,.647,6.864c.368.048,4.145-.751,4.595-.817,6.106,40.749,10.076,75.282,12.031,104.535a3.462,3.462,0,0,0,6.909-.462C187.3,232.544,183.136,196.7,176.7,154.239Z" style="fill:#3e6a51"/><path d="M72.174,330.114h82.059s10.2-80.736-3.3-133.534c-4.346-16.989-11.456-27.53-18.787-34.063-12.541-11.174-31.275-11.6-44.77-1.6-26.457,17.7-37.624,65.344-24.385,113.9C66.371,288.025,72.174,313.132,72.174,330.114Z" style="fill:#aecc76"/><path d="M95.386,297.454a3.462,3.462,0,0,0-6.887.717c.843,8.109,2.025,22.443,2.5,31.943h6.934C97.463,320.45,96.268,305.931,95.386,297.454Z" style="fill:#84994a"/><path d="M98.57,164.063c-7.18-5.307-13.945,21.371-14.687,30.658l-5.7-.747a3.463,3.463,0,0,0-.9,6.867l5.928.776c-1.067,15.326-.54,32.15.294,45.652H79.513a3.462,3.462,0,0,0,0,6.924h4.472c.343,4.554.712,8.746,1.059,12.458a3.462,3.462,0,0,0,6.894-.645c-1.354-14.484-3.048-36.313-2.132-58.562.924-22.428,5.677-33.338,9.5-38.541A3.461,3.461,0,0,0,98.57,164.063Z" style="fill:#84994a"/><path d="M137.486,247.269h-5.873c.057-13.741.308-26.839.585-39.873l5.041-.7a3.463,3.463,0,0,0-.955-6.859l-4.158.579c-.3-9.461-1.45-17.521-3.431-24.045a3.462,3.462,0,0,0-6.626,2.011c2.414,7.951,3.477,18.58,3.16,31.592-.51,20.915-.683,43.147-.513,66.081a3.463,3.463,0,0,0,6.925-.053q-.082-11.028-.054-21.808h5.9A3.462,3.462,0,0,0,137.486,247.269Z" style="fill:#84994a"/><path d="M126.072,294.018c-3.04,3.5,2.081,8.1,5.237,4.714C134.349,295.238,129.228,290.629,126.072,294.018Z" style="fill:#84994a"/><path d="M266.979,326.652H249.812c.211-5.368.613-16.4.979-31.107.316.037,3.608.522,3.832.492,4.236-.033,4.69-6.274.465-6.893l-4.134-.566c.3-13.666.553-29.85.6-47.242h5.509a3.463,3.463,0,0,0,0-6.925h-5.5c0-17.277-.218-35.541-.777-53.572h4.684a3.462,3.462,0,0,0,0-6.924h-4.918c-.741-20.442-1.952-40.375-3.838-58l6.457-.741a3.462,3.462,0,0,0-.788-6.88l-6.45.74c-2.519-21.083-5.649-38.2-9.641-51.907,2.828-1.053,7.457-1.489,6.309-5.746-1.619-4.06-5.511-1.718-8.389-.86-5.879-17.233-13.46-28.2-23.392-34.279L213,11.276A3.462,3.462,0,1,0,206.658,8.5l-2.049,4.679c-20.743-7.186-41.544-.824-58.042,16.777l-4.079-2.887a3.464,3.464,0,0,0-4.826.825c-2.406,3.822,2.228,5.641,4.622,7.513-8.177,11.882-12.241,25.655-13.314,42.942-3.027-.067-7.5-1.405-8.033,2.988A3.462,3.462,0,0,0,124.186,85l4.59.275c-.211,11.489,1.774,24.6,3.38,36.674h-5.3c-4.551.078-4.551,6.847,0,6.925h6.177c1.334,10.65,2.643,21.83,3.916,33.472-15.618-17.027-43.185-15.216-58.633,1.764-2.187-2.051-4.692-5.988-7.954-3.058-3,3.32,1.2,5.92,3.244,8.14-8.344,9.962-15.714,24.374-18.463,45.125l-2.946-.38a3.463,3.463,0,1,0-.885,6.869l3.118.4c-2.041,22.234,2.408,44.8,8.275,67.235l-5.234,1a3.462,3.462,0,0,0,1.3,6.8l5.4-1.033c2.153,10.4,4.064,21.918,4.462,31.443H57.465c-4.484.059-4.6,6.842,0,6.925H266.979C271.428,333.526,271.611,326.738,266.979,326.652Zm-115.833,0H75.565c-.674-17.079-5.978-40.025-9.225-52.687C53.578,227.674,63.915,180.482,89.433,163.7c12.286-9.1,29.279-8.516,40.4,1.4C166.065,198.622,152.206,307.776,151.146,326.652Zm91.737,0H158.122c.832-7.535,2.533-25,3.113-46.207h5.511a3.462,3.462,0,1,0,0-6.924h-5.365A403.149,403.149,0,0,0,159.5,226.1l4.8-.8a3.462,3.462,0,1,0-1.139-6.83l-4.478.746c-1.826-13.247-4.235-26.377-9.421-38.164l5.257-2.716a3.462,3.462,0,0,0-3.179-6.152l-5.156,2.664q-.6-1.069-1.223-2.1c-6.191-64.88-26.578-133.076,29.668-153.3,27.038-7.587,44.2,3.967,54.067,36.4C250.581,122.536,244,297.1,242.883,326.652Z" style="fill:#2b2b2b"/><path d="M288.292,326.652h-2.814c-4.55.078-4.55,6.847,0,6.925h2.813C292.842,333.5,292.843,326.729,288.292,326.652Z" style="fill:#2b2b2b"/></svg>