<svg id="icons" xmlns="http://www.w3.org/2000/svg" viewBox="0 0 340 340"><title>99_basil</title><path d="M59,38.072a4.383,4.383,0,0,0-5.611,4.744A86.271,86.271,0,0,1,54.2,56.963c-.432,8.426,6.913,22.685,6.913,22.685L57.2,80.691a4.6,4.6,0,0,0-2.458,7.232A32.509,32.509,0,0,0,69.105,98.687a4.63,4.63,0,0,0,.6,8.33,53.83,53.83,0,0,1,8.886,4.243c5.311,3.26,13.848,7.708,35.021,4.467,0,0,6.491-14.268-.913-32.52a4.573,4.573,0,0,0-6.215-2.36l-2.03.973a52.049,52.049,0,0,0-6.372-18.853,4.6,4.6,0,0,0-7.232-.958l-1,1S78.4,43.994,59,38.072Z" style="fill:#84994a"/><path d="M30.644,155.824a51.365,51.365,0,0,0,37.888,12.014l.385,1.626a6.068,6.068,0,0,0,8.265,4.2,53.337,53.337,0,0,0,16.392-11.255c12.1-11.9,22.5-12.97,22.5-12.97S101.919,131.564,83.9,125.089a6.064,6.064,0,0,0-8.063,5.394s-27.467-6.82-46.017,16.27A6.546,6.546,0,0,0,30.644,155.824Z" style="fill:#84994a"/><path d="M217.373,90.73s5.656-28.933-23.06-31.761c-9.452-.931-18.486,5.275-25.15,12.428a5.173,5.173,0,0,1-8.993-3.765,22.09,22.09,0,0,1,.424-3.007,36.515,36.515,0,0,1-21.32,2.828,42.726,42.726,0,0,0-10.362-.167,6.205,6.205,0,0,1-6.686-7.311c1.318-7.247,6.09-17.919,21.617-26.459L141.959,31.4a5.236,5.236,0,0,1,2.389-8.493c8.882-2.682,24.043-5.269,36.26,2.78l.057-2.706a6.156,6.156,0,0,1,7.911-5.761C204.791,21.987,239.062,38.541,217.373,90.73Z" style="fill:#84994a"/><path d="M236.642,12.33a43.783,43.783,0,0,1,1.743,16.718s-1.552,10.09,1.164,18.239h-1.638a4.857,4.857,0,0,0-4.326,7.045A23.429,23.429,0,0,0,238,60.482s8.343,12.612.582,26.777c0,0,40.56-9.482,41.005-50.158a4.752,4.752,0,0,0-6.214-4.569l-1.223.4s-6.095-25.4-31.888-25.58A3.794,3.794,0,0,0,236.642,12.33Z" style="fill:#84994a"/><path d="M243.5,108.994s17.96,1.266,13.811,25.632a4.765,4.765,0,0,0,5.3,5.509,11.65,11.65,0,0,0,3.222-.9s-4.316,10.883-1.458,26.589a4.846,4.846,0,0,0,6.938,3.452s6.187,18.044,28.206,27.568a6.16,6.16,0,0,0,8.405-4.165c1.648-6.735,2.778-18.746-2.308-35.988l2.316-.561a4.839,4.839,0,0,0,3.565-5.856,37.072,37.072,0,0,0-17.653-23.624l2.356-3.24a4.765,4.765,0,0,0-.811-6.485C287.922,110.8,268.516,98.364,243.5,108.994Z" style="fill:#84994a"/><path d="M203.82,160.634s17.87-2.459,32.593,6.561a4.789,4.789,0,0,1,2.007,5.68l-1.061,3s10.994,8.053,11.539,29.558a5.464,5.464,0,0,1-5.6,5.6c-8.16-.226-23.122-3.07-29.175-20.025l-3.516.475c-6.921.761-6.648-9.927-5.387-16.176C207.877,163.586,203.82,160.634,203.82,160.634Z" style="fill:#84994a"/><path d="M186.859,245.072s7.747,9.474,14.208,19.18a4.922,4.922,0,0,0,6.974,1.273l1.316-.948s9.421,16.338,24.582,14.934a36.884,36.884,0,0,1,13.3,1.047c8.3,2.311,23,3.746,38-7.582a3.644,3.644,0,0,0,.081-5.726,124.9,124.9,0,0,1-13.573-13.1,27.066,27.066,0,0,0-16.771-8.917,24.211,24.211,0,0,1-11.639-4.9c-4.689-3.613-12.827-7.265-24.477-3.351l.107-2.687a3.8,3.8,0,0,0-4.874-3.8A68.717,68.717,0,0,0,186.859,245.072Z" style="fill:#84994a"/><path d="M159.941,265.477s31.963,0,50.089,26.022a21.708,21.708,0,0,0,8.321,7,22.526,22.526,0,0,1,10.391,10.691c2.529,5.228,7.143,7.678,11.318,8.807a3.654,3.654,0,0,1,1.037,6.631c-12.015,7.4-36.3,16.707-61.447-6.658a5.332,5.332,0,0,1-8.733-2.344,37.257,37.257,0,0,1-.942-16.461l-3,.406a5.342,5.342,0,0,1-6.032-4.894,40.529,40.529,0,0,1,1.143-12.519A22.627,22.627,0,0,0,159.941,265.477Z" style="fill:#84994a"/><path d="M208.912,116.956c-31.274,29.534-58.539,63.4-58.539,63.4,2.387-18.2-7.316-31.867-13.548-38.581a1.685,1.685,0,0,0-2.848,1.631,105.581,105.581,0,0,1,2.675,44.732,64.1,64.1,0,0,1-11.723,28.386c-29.268,39.929-70.224,104.682-75.4,112.9h30.5c26.929-63.851,70.915-79.4,89.988-83.18a1.313,1.313,0,0,0-.116-2.594c-31.77-3.66-45.307,5.417-45.307,5.417,18.359-30.7,64.772-95.952,88.287-128.66A2.643,2.643,0,0,0,208.912,116.956Z" style="fill:#ce5757"/><path d="M314.854,149.449a40.867,40.867,0,0,0-16.044-23.744,8.254,8.254,0,0,0-1.227-11.453c-7.676-6.306-28.344-19.694-54.981-8.627a65.409,65.409,0,0,0-19.826,6.977c2.473-3.426,17.795-22.292,17.795-22.292,19.49-6.028,42.1-21.923,42.475-53.172a8.27,8.27,0,0,0-8.612-8.289C271.348,20.788,260.917.875,234.07,4.269a3.506,3.506,0,0,0-2.379,5.451c.04.059,4.069,6,3.248,18.966a52.421,52.421,0,0,0,.274,15.583c-9.089,3.809-5.487,13.028.046,18.367a23.475,23.475,0,0,1,.407,22.721s-18.251,19.111-21.916,22.422c11.045-20.912,19.374-50.227,9.756-67.608-7.87-16.487-24.651-23.539-33.953-26.275a9.684,9.684,0,0,0-11.888,6.244c-12.549-5.6-26.554-2.895-34.317-.55a8.754,8.754,0,0,0-4.794,13.032c-13.787,8.761-18.37,19.231-19.734,26.734a9.721,9.721,0,0,0,10.408,11.378,39.142,39.142,0,0,1,9.507.139,41.723,41.723,0,0,0,18.133-1.134c1.14,6.635,10.4,9.191,14.827,4.018,4.315-4.63,12.955-12.261,22.279-11.343C212.924,63.8,215.617,80.156,214,89.883c-6.352,18.994-21.521,38.3-21.8,38.653-16.373,16.661-30.442,32.849-38.172,42-1.776-19.847-32.3-52.817-36.249-55.984,2.38-6.528,3.419-19.192-1.872-32.65a8.06,8.06,0,0,0-8.765-4.86,56.818,56.818,0,0,0-6.058-15.8,8.108,8.108,0,0,0-10.465-3.258c-4.347-5.966-14.969-18.45-30.6-23.224C54.8,33,49.1,37.816,49.959,43.252a81.167,81.167,0,0,1,.782,13.534c-.335,6.528,3.159,15.484,5.451,20.591-5.345,1.347-7.661,8.336-4.214,12.633a35.99,35.99,0,0,0,11.783,10.037,8.086,8.086,0,0,0,4.713,10.206,49.907,49.907,0,0,1,8.3,3.958c8.233,5.881,22.756,7.3,35.932,5.171,14.444,11.314,18.413,21.213,21.12,41.481-9.132-15.4-30.026-32.3-48.761-39.032a9.562,9.562,0,0,0-11.692,4.695c-8.273-1.141-30.22-1.907-46.258,18.058a9.974,9.974,0,0,0,1.266,13.866h0A54.761,54.761,0,0,0,65.909,171.44a9.625,9.625,0,0,0,13.058,5.228,58.853,58.853,0,0,0,17.651-12.384,19.992,19.992,0,0,1,30.519,3.371c3.527,5.337,6.325,11.168,6.718,16.447a67.207,67.207,0,0,1-11.736,30.405c-35.058,48.535-59.483,88.519-76.876,114.922h8.378c8.649-13.653,46.647-73.4,74.082-110.829,14.285-20.488,15.937-41.149,11.538-68.219,4.8,7.007,9.316,17.194,7.7,29.53-.547,3.354,4.082,5.341,6.13,2.621a747.655,747.655,0,0,1,51.757-56.83c-12.194,17.028-24.5,34.347-38.1,53.863-17.836,25.6-35.34,51.424-45.024,67.6a3.578,3.578,0,0,0,.021,3.82,3.472,3.472,0,0,0,4.78.976c.12-.077,9.392-5.884,30.185-5.691a112.452,112.452,0,0,0-37.652,21.791c-16.807,14.44-31.859,34.849-42.68,61.367h7.3c10.092-23.974,25.057-43.551,41.831-57.457,5-2.946,19.483-10.173,31.95-3.89a19.719,19.719,0,0,1,1.289,13.284c-1.825,8.265-3.7,20.961,7.373,21.72-.522,8.865,1.239,22.829,13.146,19.174,26.679,24.4,58.564,11.663,72.043-.881a3.486,3.486,0,0,0-2.707-5.957c-.126.007-12.478,1.025-16.718-7.735A26.031,26.031,0,0,0,219.877,295.4a18.344,18.344,0,0,1-7.006-5.876c-14.962-21.5-41.47-27.98-51.738-27.321a31.1,31.1,0,0,0-15.883-3.564c14.171-7.184,25.108-10.442,39.917-10.143,2.265,2.836,8.056,10.224,13.018,17.678a8.431,8.431,0,0,0,10.178,3.115c3.815,5.121,12.891,14.882,25.9,13.674,9.467-1.127,14.62,2.8,24.615,2.654,9.266,0,20.9-2.8,32.358-13.1a3.492,3.492,0,0,0-.449-5.493c-.063-.041-6.566-4.275-16.469-15.2A30.58,30.58,0,0,0,255.428,241.8a20.84,20.84,0,0,1-9.976-4.21,27.669,27.669,0,0,0-23.21-5.107,7.3,7.3,0,0,0-9.144-5.306,71.95,71.95,0,0,0-27.442,14.379c-3.092-.078-5.265-.023-6.118.008-22.384-3.911-37.53-2-46.528.451,10.121-16.019,24.926-37.745,39.927-59.264,12.788-18.129,25.216-19.054,29.006-18.853.55,1.2,1.347,4.263-.1,10.644-1.876,9.817-1.029,21.748,10.067,20.257,7.71,17.265,24.253,19.507,31.534,19.7a8.987,8.987,0,0,0,8.916-9.156c-.445-17.489-7.446-26.849-10.973-30.474a8.409,8.409,0,0,0-3.166-10.627c-14.339-8.785-31.113-7.456-34.337-7.1-1.867-.254-7.454-.616-14.706,2.485,19.713-28.662,28.353-41.482,54.234-47.112,9.1,1.14,12.643,10.686,10.486,21.532a8.281,8.281,0,0,0,7.158,9.54,60.69,60.69,0,0,0-.091,22.862,8.35,8.35,0,0,0,8.289,6.816c2.792,5.793,10.829,18.951,28.887,26.762,18.462,5.114,15.959-22.8,11.741-40.89A8.337,8.337,0,0,0,314.854,149.449ZM70.934,103.781a1.107,1.107,0,0,1-.253-1.95l.494-.369a3.486,3.486,0,0,0-.826-6.006A29.188,29.188,0,0,1,57.5,85.836a1.14,1.14,0,0,1-.179-1.088,1.067,1.067,0,0,1,.766-.711L62,82.993a3.485,3.485,0,0,0,2.187-4.929c-1.924-3.742-6.849-14.793-6.535-20.923a86.433,86.433,0,0,0-.828-14.761.9.9,0,0,1,1.165-1C75.837,46.832,86.773,64.622,86.879,64.8a3.485,3.485,0,0,0,5.414.664c.713-.747,1.868-2.139,2.784-.771a49.115,49.115,0,0,1,5.929,17.457,3.487,3.487,0,0,0,4.943,2.8l2.03-.973a1.139,1.139,0,0,1,.918-.035c5.242,9.786,4.058,20.508,2.865,25.966a92.179,92.179,0,0,1-23.77-30.938,3.462,3.462,0,1,0-6.383,2.684,97.288,97.288,0,0,0,23.271,31.466C83.689,114.444,84.958,108.883,70.934,103.781Zm20.214,56.162A50.071,50.071,0,0,1,75.829,170.48a2.556,2.556,0,0,1-3.543-1.814c-.334-2.171-1.238-4.275-3.752-4.291A48.308,48.308,0,0,1,32.9,153.2h0a3.074,3.074,0,0,1-.383-4.276C49.4,127.907,73.974,133.594,75,133.843a3.484,3.484,0,0,0,4.291-3.163,2.562,2.562,0,0,1,3.435-2.333c8.714,3.132,16.567,9.195,22.142,14.345-23.26-4.686-49.294,3.013-50.692,3.435a3.463,3.463,0,0,0,2,6.629c.329-.1,26.774-7.906,48.679-2.976A57.781,57.781,0,0,0,91.148,159.943ZM207.189,293.477a25.262,25.262,0,0,0,9.637,8.134,19.179,19.179,0,0,1,8.8,9.091c3.206,6.628,9.013,9.541,14.068,10.792-11.013,6.975-33.818,16.125-57.687-6.056a3.46,3.46,0,0,0-4.716,0,1.841,1.841,0,0,1-1.758.438c-3.044-1.057-2.785-12.476-2.133-16.2a3.487,3.487,0,0,0-3.89-3.937c-.923.042-3.74.838-4.4.013a1.91,1.91,0,0,1-.707-1.347c-.867-5.817,2.469-14.223,1.719-20.181A70.56,70.56,0,0,1,181,293.135c.423.8,10.59,19.7,29.766,24.791a3.462,3.462,0,1,0,1.777-6.692c-16.2-4.3-25.332-21.166-25.422-21.336a77.241,77.241,0,0,0-14.5-19.1C182.933,273.34,197.335,279.33,207.189,293.477Zm8.183-59.612a.334.334,0,0,1,.138.294c-.039,1.8-.545,4.441,1.275,5.595a3.454,3.454,0,0,0,3.179.512c18.261-5.913,20.528,6.8,34.566,8.4a23.73,23.73,0,0,1,14.654,7.808,127.449,127.449,0,0,0,14.136,13.606c-14.1,10.7-27.887,9.164-35.153,7.139a40.475,40.475,0,0,0-14.546-1.159c-12.742,1.188-21.184-13.079-21.265-13.217a3.483,3.483,0,0,0-5.022-1.081c-.508.359-1.818,1.483-2.426,1.2a1.459,1.459,0,0,1-.96-.633c-3.257-4.893-6.8-9.678-9.555-13.282,9.2.885,20.985,3.039,30.294,8.178,13.554,7.484,30.924,11.46,31.658,11.626,4.419.937,5.971-5.662,1.527-6.754-.17-.039-17.161-3.935-29.839-10.935-9.924-5.478-22.032-7.877-31.72-8.906A58.35,58.35,0,0,1,215.372,233.865Zm19.784-62.146c-.8,2.275-2.36,5.138.157,6.946.1.07,9.628,7.274,10.124,26.853a1.938,1.938,0,0,1-2.043,2.055c-7.424-.205-20.674-2.78-26.01-17.727-1.187-3.264-4.69-2.095-7.241-1.792a1.344,1.344,0,0,1-1.466-1.018,23.563,23.563,0,0,1-.08-10.962,33.254,33.254,0,0,0,.927-9.436c11.444,7.345,18.339,26.509,18.419,26.736,1.6,4.278,7.968,2,6.532-2.3-.321-.911-6.068-16.907-16.7-26.689a44.318,44.318,0,0,1,16.827,5.761A1.332,1.332,0,0,1,235.156,171.719Zm1.53-118.928a1.371,1.371,0,0,1,1.225-2.042h1.638a3.485,3.485,0,0,0,3.285-4.556c-2.449-7.6-1.026-16.4-.994-16.918a46.73,46.73,0,0,0-2.073-18.459c22.892-.188,28.838,21.94,29.013,22.921a3.46,3.46,0,0,0,4.435,2.485l1.224-.4a1.266,1.266,0,0,1,1.157.189c2.181,25.171-17.386,39.355-28.563,44.526,10.847-20.93,8.394-46.993,8.267-48.251a3.462,3.462,0,1,0-6.889.7c.024.24,1.7,18.045-3.75,35.131C242.155,57.754,240.183,59.234,236.686,52.791Zm-44.215,2.625c-8.5,0-17.6,4.771-25.842,13.621a1.754,1.754,0,0,1-2.033.426c-1.483-.447-.855-2.853-.613-4.129a3.491,3.491,0,0,0-5.014-3.767,33.506,33.506,0,0,1-19.154,2.466,45.943,45.943,0,0,0-11.218-.2,2.7,2.7,0,0,1-2.965-3.244c1.209-6.645,5.638-16.212,19.879-24.045a3.484,3.484,0,0,0,.919-5.335c-1.184-1.4-4-3.622-1.081-4.995,7.625-2.3,22.1-5.059,33.354,2.356a3.486,3.486,0,0,0,5.366-2.819l.057-2.7a2.653,2.653,0,0,1,3.474-2.513C206.261,25.71,221.174,39.46,220.986,61c-4.073-10.144-12.878-17.933-25.948-22.357-24.087-8.155-45.906,7.969-46.824,8.66-3.574,2.791.47,8.2,4.161,5.536.2-.147,19.865-14.6,40.443-7.637,13.535,4.582,19.8,12.307,22.3,20.277C210,59.2,201.885,55.648,192.471,55.416ZM304.8,153.329a3.482,3.482,0,0,0-2.506,4.344c4.332,14,4.908,32.826.859,35.927a2.652,2.652,0,0,1-2.26.068c-20.233-8.75-26.251-25.356-26.306-25.512a3.463,3.463,0,0,0-4.827-1.972,1.353,1.353,0,0,1-1.98-.977c-2.625-14.43,1.235-24.6,1.271-24.693a3.463,3.463,0,0,0-4.612-4.445c-1.257.564-3.837,1.332-3.712-.862,1.253-8.014.794-14.492-2.087-19.693,19.76,7.28,27.552,35.935,27.945,48.718a3.463,3.463,0,0,0,6.919-.29,86.249,86.249,0,0,0-6.965-28.483c-6.03-13.506-15.18-22.626-26.882-26.982,16.124-1.263,28.292,6.821,33.534,11.126a1.3,1.3,0,0,1,.208,1.774c-.961,1.544-3.582,3.958-2.941,6a3.466,3.466,0,0,0,1.671,2.28c10.3,5.772,16.065,17.3,15.846,22.48C307.78,152.841,305.4,153.126,304.8,153.329Z" style="fill:#2b2b2b"/></svg>