<svg id="icons" xmlns="http://www.w3.org/2000/svg" viewBox="0 0 340 340"><title>9_pumpkin</title><path d="M88.08,125.156c-37.814,25.029-58,61.745-59.9,106.613,5.673,55.091,64.023,84.247,136.364,79,84.017-2.712,138.228-23.787,147.228-72.717C314.59,183.87,287.085,134.792,247.3,119.1l-73.867,11.614C141.848,123.746,103.526,116.651,88.08,125.156Z" style="fill:#fc997e"/><path d="M51.007,12.49s-11.979,34.9,11.152,52.046c0,0-2.891,7.022-15.489,4.75,0,0,2.478,9.294,13.837,11.565l-7.435,8.675c13.182,16.37,41.748,1.667,53.112-19.942,0,0,31.979-10.418,27.022-32.517A63.069,63.069,0,0,0,126.894,19.9l-8.352,8.082-4.956-10.533-8.675,10.739S93.552,3.4,51.007,12.49Z" style="fill:#80b297"/><path d="M259.69,273.3s10.315-40.082-3-80.729a3.248,3.248,0,0,0-6.323,1.217c1.739,30.96-1.734,86.2-46.935,95.869-11.826,2.529-22.911-.844-32.523-5.179-1.062-.529-17.566-9.164-19.608-36.492-.3-3.957-6.282-3.9-6.84.029a130.483,130.483,0,0,0-.886,28.1s1.564,14.42-12.729,18.216c-13.677,3.191-30.176.824-40.651-13.669-8.051-22.151-6.348-47.51-3.753-64.061a4.87,4.87,0,0,0-9.047-3.163c-5.69,9.784-8.431,21.295-10.029,32.936-2.272,16.555-14.69,14.4-15.241,14.3-9.826-2.785-19.512-11.158-23.945-28.906-2.3,34.295,5.429,73.657,55.207,79.2a21.447,21.447,0,0,1,12.661,6.058c11.5,12.617,47.959,15.923,66.045,3.015a9.235,9.235,0,0,1,10.732.4c17.213,13.123,53.222,12.374,69.133-5.014a21.476,21.476,0,0,1,11.155-5.715c16.214-3,55.754-16.008,58.648-71.668C303.625,255.871,288.312,271.731,259.69,273.3Z" style="fill:#e0625c"/><path d="M101.713,127.172c6.205,5.915.4,15.934.4,15.934h0a79.213,79.213,0,0,0-10,30.12,3.939,3.939,0,0,0,7.449,2.227c8.647-17.63,19.021-27.1,24.876-31.41,5.548,8.107,13.805,13.475,23.321,16.474-3.841,13.639-3.012,27.717-1.128,38.594a4.369,4.369,0,0,0,8.572.154,243.117,243.117,0,0,1,6.856-24.811,16.935,16.935,0,0,1,14.353-11.449c17.738-1.864,35.145-9.251,45.795-20.86a67.49,67.49,0,0,1,22.072,21.42,2.728,2.728,0,0,0,4.974-1.987,101.3,101.3,0,0,0-7.049-22.5h0l-.007-.012c-2.728-5.587-6.266-15,5.1-19.958a79.823,79.823,0,0,0-29.533-5.79c-9.738.459-30.638,2.117-47.886,16.9-17.108-25.924-51.552-26.4-81.8-5.056C88.636,124.827,95.74,121.478,101.713,127.172Z" style="fill:#e0625c"/><path d="M163.866,137.414a9.778,9.778,0,0,1-6.861-8.915c-2.189-31.991,23.4-55.842,25.455-81.96l12.013,7.915a11.5,11.5,0,0,1,4.968,11.928c-4.267,21.416-19.41,31.5-11.746,59.087C190.427,138.382,175.376,140.915,163.866,137.414Z" style="fill:#3e6a51"/><path d="M92.234,194.532a3.523,3.523,0,0,1-6.922-1.315A3.523,3.523,0,0,1,92.234,194.532Z" style="fill:#e0625c"/><path d="M233.6,195.989c1.059,10.305-4.222,19.288-11.795,20.067-18.226,1.049-21.885-34.643-3.834-37.315C225.539,177.963,232.537,185.685,233.6,195.989Z" style="fill:#ffdfd7"/><path d="M99.371,114.379c-37.628,20.035-64.212,53.882-71.113,90.541-11.33,63.445.681,105.517,61.687,110.041,9.877,18.194,56.388,23.867,77.582,5.369,19.683,19.085,63.61,16.323,80.491-6.386,124.82-14.77,59.809-243.21-58.718-198.952-.651-8.3.818-16.71,4.288-23.392a97.559,97.559,0,0,0,9.242-24.51,14.871,14.871,0,0,0-6.452-15.527l-12.013-7.915a3.462,3.462,0,0,0-5.358,2.652c-.417,6-2.864,16.7-12.157,33.574-7.862,14.276-11.258,26.506-12.595,35.727-11.93-7.993-14.437-18.823-14.894-24.3,11.346.842,23.085-6.387,20.081-20.387-1.651-8.54-12.914-12.3-19.251-6.276-4.487,4-7.047,10.277-7.645,18.673a57.709,57.709,0,0,1-22.331-11.536c22.519-9.666,35.8-24.256,19.7-53.569a3.484,3.484,0,0,0-5.426-.793l-4.873,4.715-2.895-6.153a3.486,3.486,0,0,0-5.826-.7l-5.68,7.032C99.458,14.969,84.045,1.894,50.284,9.1a3.463,3.463,0,0,0-2.552,2.262c-.5,1.459-11.531,34.559,9.431,53.547-1.66,1.013-4.665,1.906-9.879.966a3.462,3.462,0,0,0-3.96,4.3,20.485,20.485,0,0,0,11.169,12.37l-4.049,4.725a3.463,3.463,0,0,0-.151,4.318c14.94,17.841,42.406,4.432,55.295-14.564,7.59,6.125,16.554,11.187,26.787,13.351a38.48,38.48,0,0,0,6.49,19.676C126.928,107.02,113.2,107.017,99.371,114.379ZM144.8,69.8a4.625,4.625,0,0,1,4.58-.991c4.371,1.4,4.308,7.69,2.374,10.88-2.512,4.38-8.657,4.838-12.343,4.683C139.813,77.612,141.654,72.609,144.8,69.8Zm-39.69-3.509a3.435,3.435,0,0,0-.707.333A119.646,119.646,0,0,1,82.493,36.757c-2.036-4.064-8.141-1.146-6.244,2.992a122.784,122.784,0,0,0,24.1,32.7c-9.571,14.735-31,27.113-42.571,16.908L63.136,83.1a3.462,3.462,0,0,0-1.95-5.648,15.282,15.282,0,0,1-8.212-4.307c10.624-.868,15.061-8.782,11.247-11.4C46.316,48.485,51.8,22.605,53.735,15.468c37.411-7.2,47.616,13.29,48.029,14.161a3.487,3.487,0,0,0,5.841.733l5.2-6.44,2.6,5.532a3.462,3.462,0,0,0,5.54,1.013l4.96-4.8a65.355,65.355,0,0,1,3.918,12.156C134.033,56.574,105.4,66.2,105.111,66.292Zm67.8,16.922c6.474-11.755,10.577-22.068,12.242-30.752l7.411,4.883a8.089,8.089,0,0,1,3.484,8.329c-.981,4.7-3.272,12.454-8.61,22.735-5.692,10.961-6.838,25.18-3.069,38.034a6.251,6.251,0,0,1-3.7,7.6c-5,2.052-19.753,2.829-20.207-5.713C160.083,120.614,161.2,104.494,172.915,83.214ZM153.179,123.09c.12.069.233.14.354.209a37.9,37.9,0,0,0,.2,7.006c-10.4,0-32.1,3.808-51.049,31.846a3.462,3.462,0,1,0,5.736,3.878c20.506-30.338,43.808-29.263,49-28.592,3.676,3.807,9.927,4.587,14.779,4.858a200.766,200.766,0,0,0-24.895,98.423,3.462,3.462,0,0,0,6.924-.087c-.68-54.149,23.647-94.586,26.659-99.377a13.838,13.838,0,0,0,8.423-5.707c33.844.532,59.807,32,67.367,72.93a3.463,3.463,0,1,0,6.779-1.417c-12.172-53.641-38.348-75-71.93-78.382.168-2.248-.636-4.487-1.155-6.677,105.285-42.572,171.985,161.643,62.474,184.221,5.661-11,9.744-26.182,12.155-45.293a3.463,3.463,0,0,0-6.871-.867c-5.714,36.134-11.348,63.878-52.008,65.948-26.572,0-34.547-11.412-35.166-12.364a182.12,182.12,0,0,1-13-39.051,3.462,3.462,0,0,0-6.777,1.419,188.646,188.646,0,0,0,12.57,38.464c-19.685,17.735-63.034,10.165-68.465-4.15-.456-1.032-21.588-44.48-5.616-102.1,1.168-4.346-5.358-6.266-6.668-1.87-13.667,48.726-1.739,87.651,3.66,101.433C33,302.144,25.088,263.439,35.062,206.2c6.516-34.612,31.774-66.653,67.563-85.71C121.282,110.557,140.071,116.108,153.179,123.09Z" style="fill:#2b2b2b"/></svg>