<svg id="icons" xmlns="http://www.w3.org/2000/svg" viewBox="0 0 340 340"><title>11_zucchini</title><path d="M269.559,49.664h12.726a14.28,14.28,0,0,0,10.224-4.287c4.965-5.08,12.925-14.251,17.9-25.184a2.508,2.508,0,0,1,4.318-.4,26.051,26.051,0,0,1,2.8,4.991c3.148,14.566-10.608,31.951-26.928,49.765C276.256,68.311,265.8,60.987,269.559,49.664Z" style="fill:#a9db89"/><path d="M258.354,59.017c-1.028,7.116,5.142,11.458,5.142,11.458l21.468,22.783a13.37,13.37,0,0,0,19.878-11.749c-.006-2.17-.145-4.345-.341-6.348a26.709,26.709,0,0,1,4.062-17.016c3.484-5.442,6.624-10.875,8.652-14.486,3.368-5.511,2.847-13.152.385-18.682-1.287,9.285-5.656,17.859-10.218,24.609-8.512,14.35-37.736,18.269-37.823.078A11.205,11.205,0,0,0,258.354,59.017Z" style="fill:#719b56"/><path d="M286.694,77.453c5.12,8.126,10.583,23.187,2.65,47.558,0,0-61.7,157.974-177.825,194.7,0,0-49.63,15.224-79.3-17.087-12.592-13.713-12.481-28.388-10.739-42.1,2.73-21.5,15.343-40.429,33.552-52.178a165.131,165.131,0,0,1,32.058-15.794A179.968,179.968,0,0,0,133.323,167.1c26.468-20.138,67.693-53.835,98.19-89.555a35.868,35.868,0,0,1,31.1-12.528C271.65,65.394,281.685,69.048,286.694,77.453Z" style="fill:#3e6a51"/><path d="M200.062,220.952c21.653-23.541,38.218-43.68,50.8-60.88,13.709-17.255,20.685-49.055,9.092-65.388a10.015,10.015,0,0,0-16.788.532c-37.651,61.391-103.489,105.142-136.153,124.222a248.777,248.777,0,0,1-29.359,14.5c-32.536,13.642-43.279,31.029-48.1,45.035-2.887,8.4-3.882,17.281,2.113,23.828C102.509,335.488,200.857,223.125,200.062,220.952Z" style="fill:#80b297"/><path d="M76.6,291.173c-10.8,6.233-23.51,4.419-28.4-4.05-10.839-20.8,26.5-42.354,39.092-22.569C92.182,273.023,87.4,284.941,76.6,291.173Z" style="fill:#caefda"/><path d="M110.353,255.673c-8.972,4.817-16.356-7.978-7.7-13.336C111.625,237.52,119.009,250.315,110.353,255.673Z" style="fill:#caefda"/><path d="M84.287,326.838c98.868-.225,187.747-144.259,208.281-200.569,3.924-11.266,4.8-20.9,4.071-28.641A16.772,16.772,0,0,0,308.3,81.5c-.357-7.525-1.432-14.768,3.176-21.489,5.971-10.514,12.7-17.047,11.443-28.435-1.515-11.463-8.5-17.4-8.8-17.649a3.486,3.486,0,0,0-5.456,1.438C302.986,30.435,290.239,42.93,286.7,46.2H269.559c-8.212-.048-15.083,6.762-14.776,14.793a41.636,41.636,0,0,0-25.9,14.3c-29.7,34.786-69.5,67.623-97.651,89.045a176.677,176.677,0,0,1-45.392,24.974C52.4,200.986,22.11,223.78,18.045,260.083,9.873,302.105,47.864,327.845,84.287,326.838ZM286.1,123.811C263.644,183.236,156.448,360.741,47.159,310.4c65.868,8.361,124.981-53.55,171.256-109.443,2.749-3.548-2.458-7.868-5.406-4.328C165.529,253.53,102.522,320.8,35.943,300.344A31.834,31.834,0,0,1,34.8,276.678c8.171-23.878,41.758-39.831,43.125-40.47,104.677-44.219,162.64-131.473,173.2-148.517,6.333-10.942,19.146-16.418,27.193-13.057,9.137,16.258-18.084,55.534-32.224,77.012a3.462,3.462,0,1,0,5.738,3.876c9.623-14.246,18.381-28.39,24.029-38.807,6.445-11.887,10.1-22.028,10.982-30.342C290.281,94.682,291.907,106.929,286.1,123.811ZM269.559,53.126h18.472a3.459,3.459,0,0,0,2.256-.836c.648-.556,14.54-12.613,22.545-29.114,2.957,4.453,4.931,13.324,1.356,18.8-2,3.561-5.1,8.934-8.541,14.3A30.341,30.341,0,0,0,301.055,75.5c.853,6.325.513,12.518-5.552,15.144-4.211-17.271-16.625-29.627-33.79-29.989A7.639,7.639,0,0,1,269.559,53.126ZM26.127,285.806c-10.779-44.309,22.04-76.784,62.129-90a183.689,183.689,0,0,0,47.167-25.954c28.424-21.627,68.625-54.807,98.723-90.06a33.958,33.958,0,0,1,30.885-11.876A32.149,32.149,0,0,0,255.1,73.1a39.743,39.743,0,0,0-9.861,10.947c-10.365,16.735-67.281,102.413-170.06,145.809-1.673.786-37.553,17.391-46.921,44.564A39.034,39.034,0,0,0,26.127,285.806Z" style="fill:#2b2b2b"/></svg>