<svg id="icons" xmlns="http://www.w3.org/2000/svg" viewBox="0 0 340 340"><title>15_turnip</title><path d="M210.71,189.646c3.552-8.078,3.121-9.809,19.043-21.658,24.461-18.2,10.19-33.375,10.19-33.375a27.87,27.87,0,0,0,10.635-16.666c4.074-20.878-17.651-22.3-17.651-22.3C191.9,104.253,195.987,169.2,210.71,189.646Z" style="fill:#719b56"/><path d="M120.258,74.273s-20.716,14.883-5.946,33.737c2.853,3.642,7.593,5.056,12.579,4.832a5.74,5.74,0,0,1,6.088,5.5c.151,5.2,3.19,10.793,14.645,14.863,26.572,9.44,31.857,28.66,31.857,28.66s6.2-19.22,1.914-50.454C170.462,82.1,150.344,69.256,120.258,74.273Z" style="fill:#719b56"/><path d="M181.538,111.675s-11.254-15.3-25.7-16.828C126.953,91.78,119.287,77.7,118.048,66.129A27.017,27.017,0,0,0,103.539,44.7c-7.006-3.513-12.906-8.692-15.831-16.3-10.58-27.507,16.5-42.742,16.5-42.742S133.192-29.5,145.746-2.092A31.128,31.128,0,0,0,160,12.861c7.151,3.587,15.158,11.309,14.191,27.853a26.471,26.471,0,0,0,6.069,18.743c4.256,4.989,7.733,14.093,3.511,30.311C183.77,89.768,181.383,98.023,181.538,111.675Z" style="fill:#719b56"/><path d="M228.794,7.637c-10.989,2.089-23.933,10.921-18.856,42.292,0,0-13.517,1.374-9.078,24.571a131.537,131.537,0,0,1,1.955,31.966l-1.554,28.146s2.907-18.236,27.847-31.112a19.2,19.2,0,0,0,9.557-23.349S259,76.016,251.176,52.793a15.577,15.577,0,0,1,.988-11.907C260.524,26.02,249.034,4.222,228.794,7.637Z" style="fill:#719b56"/><path d="M179.55,233.57c-15.117,1.88-23.871,11.654-19.922,37.03,14.287,25.788,36.776,32.114,64.9,25.07,21.891-5.377,33.028-22.659,29.572-41.477-2.247-10.791-8.155-17.747-17.223-22Z" style="fill:#ffeec8"/><path d="M179.306,229.614c-9.607-.535-19.006,1.65-25.821,8.782-11.054,10.861-10.7,30.717-.009,41.944a21.131,21.131,0,0,1,8.786,6.926c5.191,2.6,9.7,4.142,16.564,6.484,8.688,2.852,14.355,7.263,18.05,11.855a4.475,4.475,0,0,0,6.7.277c3.167-3.225,9.281-7.347,20.948-10.212-24.938,3.064-50.245-.255-57.807-28.989C158.592,235.79,179.306,229.614,179.306,229.614Z" style="fill:#eab198"/><path d="M246.5,247.966c-.05-12.729-10.461-18.361-21.991-18.352h-49.66a29.419,29.419,0,0,0-23.1,10.759c-.188.584-3.585,10.651,7.129,15.981,12.647,6.29,39.975,13.124,70.873,6.151C236.808,260.856,245.858,255.84,246.5,247.966Z" style="fill:#f980a0"/><path d="M205.136,283.8a3.463,3.463,0,0,0-3.462-3.462h-48.2a32.773,32.773,0,0,0,8.787,6.924h39.411A3.463,3.463,0,0,0,205.136,283.8Z" style="fill:#eab198"/><path d="M158.879,256.354a64.821,64.821,0,0,0,6.338,2.7c-3.11-24.3,14.089-29.442,14.089-29.442-10.575-.62-20.778,2.2-27.556,10.759C151.562,240.957,148.165,251.024,158.879,256.354Z" style="fill:#b2446b"/><path d="M216.955,286.276c-3.2-3.352,1.71-8.19,5.017-4.947C225.168,284.681,220.262,289.518,216.955,286.276Z" style="fill:#eab198"/><path d="M161.551,9.766a27.779,27.779,0,0,1-12.657-13.3C138.814-26.963,114-23.522,102.515-17.352c-.3.167-29.559,17.048-18.039,47,2.963,7.7,8.855,13.808,17.512,18.148a23.456,23.456,0,0,1,12.618,18.7,34.672,34.672,0,0,0,1.414,6.793c-9.7,8.648-15.655,22.531-4.434,36.855,3.342,4.268,8.848,6.456,15.461,6.156a2.248,2.248,0,0,1,2.471,2.143c.132,4.515,2.1,15.323,17.476,18.167,19.119,3.535,27.518,22.164,28.98,25.782a214.026,214.026,0,0,1,4.614,39.74,55.256,55.256,0,0,0-20.367-21.911,3.462,3.462,0,0,0-3.33,6.071,48.972,48.972,0,0,1,23.02,39.859c-40.7-3.813-52.786,49.275-16.349,65.587,12.144,5.293,26.64,7.262,33.244,19.95a19.571,19.571,0,0,0,.211,2.685c-.92,17.223-16.9,21.075-17.646,43.9a3.462,3.462,0,1,0,6.917.323c.545-16.961,10.368-20.654,15.319-33.336a28.224,28.224,0,0,0,2.559,2.99,18.111,18.111,0,0,1,4.435,7.463c1.094,4.417,7.695,2.9,6.749-1.553a24.831,24.831,0,0,0-6.244-10.763,18.3,18.3,0,0,1-5.15-9.379,22.119,22.119,0,0,0-.112-2.793c.837-1.693,5.04-8.153,21.51-12.2,43.377-9.075,44.2-70.552-.846-72.88h-6.33a57.254,57.254,0,0,1,11.885-28.395c2.927-3.476-2.167-7.927-5.219-4.55a63.065,63.065,0,0,0-11.392,21.6,211.677,211.677,0,0,1,.691-24.334c3.677-8.039,10.173-15.7,18.367-21.62,13.585-9.573,19.9-22.149,12.252-33.829,12.57-11.227,14.358-34.3-3.027-40.682a21.736,21.736,0,0,0,1.057-11.9c11.726-4.492,16.76-16.956,11.664-30.753a12.063,12.063,0,0,1,.807-9.259c18.789-45.292-58.835-58.938-49.179,5.085-9.412,4.886-10.915,14.767-8.624,27.636a128.411,128.411,0,0,1,1.9,31.125c-.639,12.258-2.042,35.565-2.977,47.254A318,318,0,0,0,185,111.263c-.1-12.666,2.076-20.462,2.12-20.623,4.694-18.032.292-28.132-4.227-33.429a22.855,22.855,0,0,1-5.246-16.3C178.73,22.387,169.491,13.75,161.551,9.766Zm17.64,136.815c-8.767-28.837-21.334-41.788-22.213-42.667a3.462,3.462,0,0,0-4.9,4.89c.181.183,9.8,10.2,17.836,32.372A41.718,41.718,0,0,0,148.253,129.8c-7.656-1.416-11.632-5.3-11.814-11.558a9.256,9.256,0,0,0-9.7-8.86c-2.5.114-7.1-.192-9.7-3.508-8.889-11.347-3-20.811,2.008-25.913,5.222,8.547,15.815,16.139,36.43,18.327,10.98,1.166,20.266,11.715,22.669,14.671A115.751,115.751,0,0,1,179.191,146.581Zm67.989-29.3c-1.1,5.658-4.26,10.574-9.381,14.61a3.483,3.483,0,0,0-.178,5.287c7.561,7.547,2.1,18.288-9.167,26.057a68.677,68.677,0,0,0-12.444,11.569c4.406-28.78,12.762-48.8,12.893-49.107,1.706-4.211-4.519-6.869-6.373-2.708-.574,1.349-9.7,23.169-13.959,54.274a83.138,83.138,0,0,1-4.773-26.748c1.133-8.058,2.438-15.706,3.856-22.92,3.235-5.9,9.828-14.2,23.042-21.022a23.493,23.493,0,0,0,7.562-6.18C245.83,103.142,248.833,108.814,247.18,117.284ZM205.825,56.449c3.528-4.4,4.551-1.871,6.859-4.413a3.461,3.461,0,0,0,.672-2.66c-3.676-22.711,1.736-35.61,16.084-38.338,17.123-2.916,26.773,15.718,19.625,28.3-6.332,11.892,4.473,19.953-1.306,30.405-3.15,5.535-9.735,7-9.784,7.012-3.984,1.168-2.553,4.383-1.929,7.287a15.558,15.558,0,0,1-8.526,16.377,68.965,68.965,0,0,0-16.505,11.648c9.562-40.355,21.618-63.534,21.8-63.873,2.058-4.05-3.917-7.228-6.119-3.241C226,46.263,215.608,66.2,206.462,101.3a132.509,132.509,0,0,0-2.2-27.45C202.759,66,203.3,59.979,205.825,56.449Zm-4.892,120.045a63.421,63.421,0,0,0,6.2,14,213.261,213.261,0,0,0,.051,35.656h-5.593C202.188,214.959,200.468,191.15,200.933,176.494Zm-14.279-35a298,298,0,0,1,7.254,43.622c.63,13.591.911,32.476.759,41.032h-7.58c1.559-25.863-.417-47.1-3.983-64.195A88.082,88.082,0,0,0,186.654,141.5Zm24.333,91.578c12.184.071,23.877-1.679,32.959,8.291,15.991,18.357,4.686,45.742-20.244,50.94-13.283,3.263-20.032,8.184-23.432,12.033-8.2-11.486-21.7-13.765-33.972-18.962-17.537-7.126-23.649-31.251-10.249-44.653a26.359,26.359,0,0,1,18.8-7.649ZM177.624,61.705c4.949,5.8,5.916,15.2,2.82,27.1a55.9,55.9,0,0,0-1.328,6.657A335.058,335.058,0,0,0,158.84,53.63C141.119,22.788,124.816,5.582,124.13,4.865c-3.182-3.223-8.1,1.425-5.007,4.783.163.171,16.515,17.451,33.826,47.629a328.076,328.076,0,0,1,19.879,41.106c-4.587-3.346-10.287-6.307-16.622-6.979C134.748,89.126,123.068,80.5,121.491,65.76a30.347,30.347,0,0,0-16.4-24.152c-7.066-3.543-11.828-8.4-14.152-14.444C81.711,3.17,104.294-10.385,105.857-11.287c.841-.42,12.784-6.226,23.447-2.556C144.63-8.3,140.63,7.246,158.446,15.955c8.847,4.438,12.98,12.7,12.288,24.557A29.75,29.75,0,0,0,177.624,61.705Z" style="fill:#2b2b2b"/></svg>