<svg id="icons" xmlns="http://www.w3.org/2000/svg" viewBox="0 0 340 340"><title>20_garlic</title><path d="M146.286,26.011l21.5-15.135s10.758,31.73,9.333,58.587L154.562,78.8s-2.5-24.271-10.456-45.653A6.1,6.1,0,0,1,146.286,26.011Z" style="fill:#719b56"/><path d="M159.418,66.818,147.379,71.7a4.322,4.322,0,0,0-2.595,4.944c1.519,6.862,4.4,22.659,2.925,38.342l14.091-4.926C167.212,94.761,167.784,76.531,159.418,66.818Z" style="fill:#a9db89"/><path d="M159.418,66.818c1.456,7.1,5.448,23.6,2.853,37.705a26.9,26.9,0,0,0-.471,5.533l7.855-2.745s7.2-22.749,3.312-45.982Z" style="fill:#719b56"/><path d="M191.632,18.135s10.117,30.055-3.51,67.821l-22.273,18.567s9.162-28.408-.814-62.5a6.458,6.458,0,0,1,2.481-7.139Z" style="fill:#a9db89"/><path d="M182.166,124.454s8.673,20.1,38.984,39.162c23.378,14.7,51.794,39.338,58.772,70.356,7.944,32.274-15.812,69.226-50.587,68.488H207.062C193.7,231.187,175.73,149.051,182.166,124.454Z" style="fill:#eab198"/><path d="M181.172,99.805s-6.34,38.044,24.457,69.144C237.669,201.3,285,254.26,237.012,292.138a48.327,48.327,0,0,1-29.95,10.322h-27.98S147.959,155.362,181.172,99.805Z" style="fill:#ffeec8"/><path d="M136.053,302.46H109.622c-27.9-.567-53.808-23.308-50.847-62.745,3.789-48.179,52.961-80.026,52.961-80.026s31.975-21.864,35.973-44.707Z" style="fill:#eab198"/><path d="M162.271,104.523l-14.562,10.459s1.29,23.359-25.384,54.525c-27.493,32.124-56.914,93.7-8.082,126.337a39.263,39.263,0,0,0,21.81,6.616H164.37S171.234,135.026,162.271,104.523Z" style="fill:#ffeec8"/><path d="M188.122,85.956l-25.851,18.567s.653,22.545-15.924,59.679c-15.91,35.637-47.392,109.749,4.894,135.3a29.886,29.886,0,0,0,13.129,2.957h14.712c31.082-1.6,58.242-42.257,16-113.39C195.085,189.069,169.655,144.479,188.122,85.956Z" style="fill:#ffeec8"/><path d="M201.218,185.676c-3-4.815-5.564-9.4-7.742-13.7-1.906-3.76-7.581-1.143-5.969,2.753a157.733,157.733,0,0,0,7.221,14.912c30.485,53.762,21.9,82.847,8.394,98.047a3.58,3.58,0,0,0,4.578,5.419c10.036-6.472,19.305-17.1,21.357-34.522C231.837,234.984,219.556,215.061,201.218,185.676Z" style="fill:#eab198"/><path d="M283.3,233.212c-7.891-35.072-41.17-60.494-60.306-72.527-26.9-16.914-36.275-34.769-37.5-37.3-.143-.672-.2-1.334-.38-1.974a139.753,139.753,0,0,1,6.311-34.4c13.812-38.4,3.922-68.707,3.493-69.979a3.487,3.487,0,0,0-5.256-1.74l-14.259,9.9c-2.2-9.077-4.239-15.139-4.337-15.428a3.486,3.486,0,0,0-5.272-1.72l-25.4,17.887a3.461,3.461,0,0,0-1.2,4.168c5.209,12.444,8.375,26.637,10.185,37.054l-6.736,2.729A3.465,3.465,0,0,0,140.592,74c.056.2,5.519,20.557,3.684,40.49-3.782,21.089-34.187,42.128-34.422,42.29-2.066,1.338-50.652,33.344-54.53,82.66-2.557,32.524,13.278,49.816,27.013,58.6a50.526,50.526,0,0,0,27.285,7.884h38.26a14.779,14.779,0,0,1-6.177,5.439,3.462,3.462,0,0,0,3.02,6.231,21.357,21.357,0,0,0,10.849-11.67h3.469c-.7,4.237-2.6,11.108-7.757,14.053a3.477,3.477,0,0,0,1.721,6.469c9.194-2.607,12.35-15.333,13.042-20.522h1.626c-.138,5.333-.31,15.532.111,23.383a3.462,3.462,0,0,0,6.915-.371c-.408-7.61-.231-17.819-.1-23.012h5.08c.316,2.15,2.6,15.118,7.541,15.107a3.485,3.485,0,0,0,2.918-5.324,26.846,26.846,0,0,1-3.454-9.783h3.467a21.28,21.28,0,0,0,9.271,10.83,3.462,3.462,0,0,0,3.484-5.984,14.613,14.613,0,0,1-5.068-4.846h31.493C266.331,306.656,291.826,267.664,283.3,233.212Zm-63.993-66.665c34.21,19.53,84.5,73.916,43.289,118.54a45.326,45.326,0,0,1-29.284,13.74c56.314-36.153,14.913-93.55-25.223-132.314a82.475,82.475,0,0,1-15.484-21.669A133.663,133.663,0,0,0,219.307,166.547ZM189.525,23.813a112.583,112.583,0,0,1-4.313,59.97l-13.439,9.652a122.539,122.539,0,0,0-4.049-54.482Zm-42.908,6.2,19.271-13.567c.912,3.095,2.163,7.631,3.395,13l-7.623,5.293a3.463,3.463,0,0,0-1.305,3.953,111.325,111.325,0,0,1,5,21.99L155.931,64.5A190.05,190.05,0,0,0,146.617,30.012Zm19.406,37.865a113.82,113.82,0,0,1-2.386,31.4l-12.076,8.673a141.959,141.959,0,0,0-3.551-32.776ZM109.622,299c-26.452-.642-50.118-22.081-47.395-59.011,9.628-61.4,53.5-72,74.377-97.877A121.686,121.686,0,0,1,119.7,167.256C88.938,201.5,63.113,268.239,112.748,299Zm26.431,0c-22.773-.285-41.512-22.231-43.982-42.864-4.025-29.215,15.2-63.712,32.885-84.375,23.164-27.066,25.925-48.525,26.2-54.989l7.184-5.16c-1.045,9.209-4.4,27.1-15.153,51.181-15.362,32.27-45.478,109.072.107,136.207Zm71.009,0h-7.4c10.1-7.492,21.244-21.269,20.773-45.479a3.462,3.462,0,0,0-6.923.136c.436,22.417-10.3,34.552-19.376,40.785A26.445,26.445,0,0,1,179.082,299c-7.259-.332-19.855,1.222-26.32-2.606-68.485-34.244,14.2-141.729,12.951-190.079l16.414-11.788c-13.356,54.444,8.94,94.488,9.958,96.272a212.085,212.085,0,0,1,12.8,25.869c1.775,4.176,8.058,1.654,6.417-2.6a218.859,218.859,0,0,0-13.214-26.709c-.146-.257-8.751-15.7-11.986-40.027a89.32,89.32,0,0,0,17.063,24.058c15.773,15.927,52.71,53.227,50.748,85.331C253.344,277.922,229.965,299.709,207.062,299Z" style="fill:#2b2b2b"/></svg>