<svg id="icons" xmlns="http://www.w3.org/2000/svg" viewBox="0 0 340 340"><title>24_soybean</title><path d="M278.248,71.86S269.353,74.286,255.618,87a51.809,51.809,0,0,1-27.97,13.276c-12.959,1.827-31.491,8.331-45.543,29.063a29.767,29.767,0,0,1-25.465,12.987,78.847,78.847,0,0,0-50.684,16.1,24.948,24.948,0,0,1-27.708,1.867c-13.4-7.815-34.854-16.042-59.433-9.294a11.9,11.9,0,0,0-8.592,13.5c5.01,38.037,54.254,63.357,85.331,39.059a21.877,21.877,0,0,1,20.146-3.124c14.829,5.285,41.777,8.777,65-21.26A58.853,58.853,0,0,1,213.309,157.9c20.678-5.009,51.675-19.062,69.942-58.393Z" style="fill:#719b56"/><path d="M69.086,170.339c-5.7-3.1-19.788-9.453-28.927-5.331,0,0-17.006,18.872,11.441,25.877s24.265-12.691,24.265-12.691A14.87,14.87,0,0,0,69.086,170.339Z" style="fill:#f4f7d0"/><path d="M152.268,157.106a42.46,42.46,0,0,0-31.33,8.432s-8,21.258,20.045,17.234,18.45-22.327,18.45-22.327A13.137,13.137,0,0,0,152.268,157.106Z" style="fill:#f4f7d0"/><path d="M237.292,114.339a35.255,35.255,0,0,0-27.776,7.268,12.893,12.893,0,0,0-2.963,16.979C218.185,146.237,241.429,126.753,237.292,114.339Z" style="fill:#f4f7d0"/><path d="M206.559,138.582a12.841,12.841,0,0,0,12,6.071c7.216-.634,17.676-3.064,26.25-11.081l3.823-15.565a36.248,36.248,0,0,0-11.336-3.663C235.331,119.4,225.594,141.579,206.559,138.582Z" style="fill:#d3d398"/><path d="M127.508,188.672c7.719,1.163,21.663,1.383,32.3-8.976,5.324-5.006,5.065-14.567-.389-19.241.177,5.1-.859,14.959-11.028,17.921a42.49,42.49,0,0,1-16.882,1.684c-7.017-.757-12.314-7.456-10.571-14.518C112.359,172.639,116.407,187.15,127.508,188.672Z" style="fill:#d3d398"/><path d="M61.679,198.563c10.538.313,17.84-10.686,14.181-20.367-5.649,18.63-27.838,10.97-35.282.719-3.244-4.1-3.751-9.414-.414-13.9-10.71,4.748-11.439,20.162-1.327,26.127C44.4,194.533,52.687,198.414,61.679,198.563Z" style="fill:#d3d398"/><path d="M282.249,49.5C260.494,35.405,215.706,1.347,151.808,37.671c0,0,32.35,47.821,86.14,38.19C261.444,66.72,289.129,65.373,282.249,49.5Z" style="fill:#a9db89"/><path d="M256.582,104.645c-14.425,14.279-34,38.9-35.84,68.705a35.1,35.1,0,0,1-17.532,28.124c-11.7,6.807-25.539,18.4-31.416,36.9a25.432,25.432,0,0,1-20.974,17.319c-14.083,1.871-33.793,7.219-49.559,21.956,0,0-12.91,16.034-2.68,30.881,6.521,9.466,47.258,19.251,77.828-24.8,4.176-6.017,22.8-17.847,27.155-23.734,31.835-43.014,57.979-91.43,64.567-104.336C273.053,133.629,266.219,116.072,256.582,104.645Z" style="fill:#a9db89"/><path d="M244.369,207.378a21.05,21.05,0,0,1,6.524-14.544,105.357,105.357,0,0,0,21.016-27.946v-.014a84.478,84.478,0,0,0,7.364-58.229l-7.235-15.409a141.06,141.06,0,0,0-15.721,13.675c-.352,7.211,16.183,39.237-13.595,78.774-6.168,8.189-11.426,17-13.619,27.02-3.422,15.635-12.913,38.809-39.22,49.622a60.1,60.1,0,0,0-24.092,18.1c-13.315,16.662-38.329,40.319-63.094,22.838,0,0-9.968-8.88-1.427-23.6a73.973,73.973,0,0,0-14.981,19.688,11.852,11.852,0,0,0,6.188,16.669c19.358,7.315,59.984,15.291,90.633-28.865a37.286,37.286,0,0,1,16.753-13.5C215.357,265.485,242.939,248.739,244.369,207.378Z" style="fill:#719b56"/><path d="M273.467,59.689c-8.735,26.547-13.858,79.426,44.285,143.925,0,0,37.313-104.2-18.215-151.168A16.317,16.317,0,0,0,273.467,59.689Z" style="fill:#a9db89"/><path d="M220.563,130.991c-4.932,4.688-11.982-2.363-7.294-7.294C218.2,119.009,225.251,126.061,220.563,130.991Z" style="fill:#fffff3"/><path d="M143.463,171.19c-5.121,4.868-12.442-2.454-7.574-7.574C141.01,158.749,148.33,166.071,143.463,171.19Z" style="fill:#fffff3"/><path d="M59.68,178.417c-4.859,4.618-11.8-2.329-7.186-7.186C57.353,166.613,64.3,173.56,59.68,178.417Z" style="fill:#fffff3"/><path d="M80.038,181.747A17.947,17.947,0,0,0,70.709,167.4c-5.47-3.022-13.984-6.709-23.476-7.117-16.576-.71-25.285,19.434-13.644,30.978,7.111,5.9,16.227,10,28.034,10.659A18.34,18.34,0,0,0,80.038,181.747Zm-18.3,13.459c-8.315-.138-16.092-3.844-21.152-6.928-10.134-6.137-5.539-21.758,6.362-21.287,8.189.351,15.678,3.612,20.518,6.285a11.265,11.265,0,0,1,5.881,8.977A11.581,11.581,0,0,1,61.735,195.206Z" style="fill:#2b2b2b"/><path d="M120.785,161.4c-8.6,5.247-9.915,18.27-2.7,25.161,9.341,10.09,45.761,6.793,48.446-14.216C167.475,149.926,138.6,150.048,120.785,161.4ZM156.8,177.937c-9.855,8.732-22.446,7.823-29.074,6.5-8.261-1.393-10.412-13.082-3.32-17.388,12.055-8.061,36.349-10.575,35.447,4.55A9.345,9.345,0,0,1,156.8,177.937Z" style="fill:#2b2b2b"/><path d="M320.912,204.746c6.724-16.074,18.525-74.9,8.557-107.781a3.331,3.331,0,0,0-.3-1.215c-4.387-19.1-24.181-56.621-45.825-49.749C269.57,33.19,234.206,15.133,205.427,17.038a3.3,3.3,0,0,0-1.165.038c-18.764.668-37.112,6.622-54.283,17.78a3.377,3.377,0,0,0-.952,4.7c25.29,32.764,65.805,55.707,118.4,29.542q-.536,2.441-.988,5.07a100.192,100.192,0,0,0-13.1,10.369A48.264,48.264,0,0,1,227.18,96.95c-13.709,1.932-33.139,8.793-47.853,30.5a26.57,26.57,0,0,1-22.59,11.514,82.316,82.316,0,0,0-52.818,16.784,21.53,21.53,0,0,1-23.98,1.635c-14.174-8.269-36.439-16.653-62.013-9.632A15.217,15.217,0,0,0,6.914,165.067a61.324,61.324,0,0,0,16.8,32.919,63.3,63.3,0,0,0,16.857,11.959c25.489,12.6,45.037,4.96,56.948-3.671a18.526,18.526,0,0,1,17.051-2.68c15.075,5.372,44.058,9.609,68.78-22.37,8.838-11.8,22.012-18.514,36.026-21.48a81.139,81.139,0,0,0-1.988,13.4,31.72,31.72,0,0,1-15.87,25.43c-11.533,6.71-26.607,18.886-32.927,38.783a22.116,22.116,0,0,1-18.217,15.009c-17.755,2.359-50.081,11.147-67.1,43.5a15.241,15.241,0,0,0,8.171,21.352c10.073,3.787,25.67,7.721,42.779,4.963,20.378-3.284,37.755-15.1,51.65-35.124a33.814,33.814,0,0,1,15.231-12.285c16.761-6.67,45.106-24.272,46.616-67.217a17.686,17.686,0,0,1,5.488-12.288c7.35-6.982,19.81-20.942,26.678-40.491,7.791,15.973,19.24,33.238,35.49,51.216A3.381,3.381,0,0,0,320.912,204.746ZM186.079,63.678a103.381,103.381,0,0,1-29.4-25.109c15.28-9.3,31.123-14.266,47.386-14.883a47.746,47.746,0,0,1,16.363,15.636c-10.868-1.42-22.541-2.605-33.563-2.435a3.379,3.379,0,0,0-2.333,5.729,3.344,3.344,0,0,0,2.415.983c4.977-.062,10.144.144,15.324.534-2.8,1.616-5.144,2.934-7.1,3.861a3.356,3.356,0,1,0,2.874,6.066c2.444-1.158,5.272-2.774,8.715-4.767a22.776,22.776,0,0,1,11.955-3.366c8.874,1.233,17.186,2.774,23.946,4.177a16.643,16.643,0,0,1-12.087,6.756c-4.337.527-3.689,7.1.73,6.674a23.053,23.053,0,0,0,16.124-8.676c5.129-6.738,13.307,3.48,15.932-3.283A3.356,3.356,0,0,0,261,47.461c-.964-.26-14.6-3.894-32.307-6.833a48.209,48.209,0,0,0-12.624-16.612c21.725,1.073,50.206,15.916,60.776,25.317a19.518,19.518,0,0,0-6.563,9.308h0c-.163.494-.324,1-.485,1.516C240.526,77.143,212.364,78.334,186.079,63.678Zm111.29-8.669C309,64.738,316.841,78.224,321.12,92.04c-16.487-6.506-26.474-21.549-27.478-23.115-2.66-7.768-4.953-13.488-6.4-16.895A13.058,13.058,0,0,1,297.369,55.009Zm-84.851,99.628a62.381,62.381,0,0,0-34.476,22.481c-21.022,27.193-44.892,25.968-61.214,20.152a25.231,25.231,0,0,0-23.244,3.568c-10.414,7.546-27.547,14.207-50.033,3.089-20.9-10.334-27.859-27.456-30.021-40a8.525,8.525,0,0,1,6.173-9.7c23.324-6.4,43.791,1.336,56.853,8.956a28.222,28.222,0,0,0,31.437-2.1,75.655,75.655,0,0,1,48.55-15.408,33.342,33.342,0,0,0,28.341-14.459c13.333-19.673,30.869-25.88,43.233-27.623,16.4-2.178,25.3-10.151,37.153-20.371-.267,3-.425,6.141-.451,9.411a166.43,166.43,0,0,0-20.151,19.868c-7.371-2.718-22.957-6.065-38.326,5.814a16.28,16.28,0,0,0-4.137,20.716c4.38,7.95,13.121,9.565,21.377,7.426-.729,1.819-1.418,3.662-2.04,5.544C218.582,153.015,215.553,153.9,212.518,154.637Zm27.633-36.56a126.047,126.047,0,0,0-13.046,20.549c-6.154,1.838-15.212,4.3-19.04-2.868a9.524,9.524,0,0,1,2.383-12.127A32.258,32.258,0,0,1,240.151,118.077Zm8.435,72.318a24.367,24.367,0,0,0-7.573,16.92c-1.377,39.133-27.149,55.15-42.39,61.215a40.51,40.51,0,0,0-18.264,14.7c-28.847,41.57-66.608,35.2-86.55,27.706a8.577,8.577,0,0,1-4.593-11.942c14.833-28.192,41.929-37.3,62.046-39.969a28.857,28.857,0,0,0,23.732-19.631c5.672-17.858,19.393-28.9,29.9-35.013,35.033-21.8.365-49.473,60.163-103.1a137.907,137.907,0,0,0,10.629,44.2C270.152,167.415,256.335,183.034,248.586,190.4ZM276.655,60.739h0a12.681,12.681,0,0,1,4.371-6.179A302.659,302.659,0,0,1,294.252,94.03c-.027,2.4-.511,13.679-7.035,23.346a3.356,3.356,0,1,0,5.564,3.755,45.92,45.92,0,0,0,5.393-11.033,412.114,412.114,0,0,1,8.712,60.162,3.346,3.346,0,0,0,.973,2.137,3.38,3.38,0,0,0,5.724-2.608c-.994-14.1-2.633-27.245-4.631-39.293,2.525,2.072,4.026,4.8,5.727,7.409a3.36,3.36,0,0,0,3.9.612c5.526-3.065-3.507-11.663-6.453-14.122a17.748,17.748,0,0,1-6.292-10.558c-2.192-10.435-4.323-19.021-7.028-28.457,5.927,5.6,14.151,11.518,24.438,14.471,7.977,29.065.056,76.632-6.883,97.12C263.22,135.439,268.541,85.4,276.655,60.739Z" style="fill:#2b2b2b"/></svg>