<svg id="icons" xmlns="http://www.w3.org/2000/svg" viewBox="0 0 340 340"><title>27_bamboo shoot</title><path d="M235.17,129.335c-3.531,9.591-6.866,24.85-3.716,44.566l16.206,8.189,8.1-15.461s-1.888-20.628-8.925-37.558A6.273,6.273,0,0,0,235.17,129.335Z" style="fill:#3e6a51"/><path d="M267,183.166a120.24,120.24,0,0,1-3.578-24.632,5.048,5.048,0,0,0-8.893-3.189,49.559,49.559,0,0,0-6.083,8.856l5.237,35.3Z" style="fill:#80b297"/><path d="M267,183.166c-.765.437-1.492.862-2.152,1.258a4.841,4.841,0,0,1-6.907-2.166c-3.3-7.253-7.306-14.334-9.492-18.054a47.353,47.353,0,0,0-4.74,13.229l10.6,28.672,15.656-12.443S268.531,189.447,267,183.166Z" style="fill:#3e6a51"/><path d="M220.65,160.218a51.579,51.579,0,0,1,1.849,9.309l23.727,36.578,8.637-14.61c-4.953-10.578-14.107-26.455-27.7-35.906A4.237,4.237,0,0,0,220.65,160.218Z" style="fill:#80b297"/><path d="M259.3,202.281a107.919,107.919,0,0,0-4.471-10.868c-3.054,2.239-6.4,3.786-9.126.214-7.09-10.443-19.27-19.367-23.207-22.1a40.7,40.7,0,0,1-1.634,16.741l26.6,26.693Z" style="fill:#3e6a51"/><path d="M244.194,199.5c-5.616-5.776-13.265-12.533-21.679-16.834a5.155,5.155,0,0,0-7.5,4.242c-.236,5.942-3.7,12.306-5.17,18.68l20.06,24.237Z" style="fill:#80b297"/><path d="M233.1,210.635a8.337,8.337,0,0,1-10.738,1.756c-5.017-3.063-10.081-5.617-12.514-6.8-1.547,5.731-2.622,10.969-2.622,10.969l24.23,19.468,22.232-25.556a117.661,117.661,0,0,0-9.494-10.968A94.674,94.674,0,0,0,233.1,210.635Z" style="fill:#3e6a51"/><path d="M281.191,223.538l-11.226-29.876A106.652,106.652,0,0,0,237.538,221.5l19.528,27.66Z" style="fill:#80b297"/><path d="M281.191,223.538c-6.815,3.032-12.9,6.185-17.249,8.564a11.892,11.892,0,0,1-12.991-1.025c-4.74-3.675-9.335-6.891-13.407-9.573a99.217,99.217,0,0,0-8.949,13.6l28.1,23.343,28.839-23.343Z" style="fill:#3e6a51"/><path d="M207.224,216.557a135.151,135.151,0,0,0-5.259,14.46c-.529,21.014-1.822,43.06,15.261,40.3l31.821-29.188C238.117,233.005,223.125,222.343,207.224,216.557Z" style="fill:#80b297"/><path d="M194.227,303.437l72.279-44.987a197.541,197.541,0,0,0-17.461-16.323,321.233,321.233,0,0,0-27.77,19.489,8.693,8.693,0,0,1-13.839-5.052l-5.47-25.547C189.556,264.841,194.085,302.084,194.227,303.437Z" style="fill:#3e6a51"/><path d="M302.3,276.26c-4.711-11.722-10.545-26.116-16.759-41.153,0,0-39.543,19.887-67.692,47.563l-1.382,31.981C268.455,316.818,301.526,306.876,302.3,276.26Z" style="fill:#80b297"/><path d="M302.3,276.26a68.955,68.955,0,0,1-19.512,16.348,18.551,18.551,0,0,1-21.072-1.8c-5.269-4.372-10.343-8.524-14.414-11.809a1.907,1.907,0,0,0-2.837,2.458l12.475,21.139a133.318,133.318,0,0,1-25.2,3.474,5.593,5.593,0,0,1-5.825-5.541c-.18-9.249-4.376-14.772-8.06-17.854a124.28,124.28,0,0,0-17.881,21.549l12.338,16.862c7.88,1.078,71.744,9.138,101.125-16.862C313.431,304.221,309,292.944,302.3,276.26Z" style="fill:#3e6a51"/><path d="M216.464,330.665h100.1a7.865,7.865,0,0,0,7.653-9.709,151.671,151.671,0,0,1-3-15.717,7.518,7.518,0,0,0-11.254-5.561c-12.387,7.274-36.023,17.849-54.664,17.849H216.464Z" style="fill:#eab198"/><path d="M118,63.714s3.737-28.251,14.259-50.74a6.439,6.439,0,0,1,12.248,2.315c.948,14.111,1.173,33.191-2.754,46.644Z" style="fill:#3e6a51"/><path d="M115.406,27.136a152.619,152.619,0,0,1,12.945,24.842l-11.9,44.858L100.562,68.257l2.09-4.208a36.23,36.23,0,0,0,3.632-19.129A139.172,139.172,0,0,1,105.81,29.8,5.213,5.213,0,0,1,115.406,27.136Z" style="fill:#80b297"/><path d="M128.344,51.981a72.8,72.8,0,0,0-13.775,19.305,5.045,5.045,0,0,1-7.559,1.8l-6.448-4.83L94.5,80.465l20.085,29.081L133.916,69.8A110.555,110.555,0,0,0,128.344,51.981Z" style="fill:#3e6a51"/><path d="M153.216,81.137a136.27,136.27,0,0,1,1.156-32.156,5.217,5.217,0,0,0-8.846-4.583A111.243,111.243,0,0,0,121.013,83.32l12.9,28.691Z" style="fill:#80b297"/><path d="M132.758,123.91l22.39-30.2s-.968-5.278-1.561-13.244a158.087,158.087,0,0,0-13.612,8.808,9.474,9.474,0,0,1-11.659-.479L121.1,82.67a120.2,120.2,0,0,0-6.495,26.462Z" style="fill:#3e6a51"/><path d="M75.2,117.611c4.508-10.375,11.609-25.488,19.3-37.146a292.59,292.59,0,0,1,27.549,22.361L99.976,143.557Z" style="fill:#80b297"/><path d="M135.08,114.832q-6.437-6.532-12.958-12.468a195.731,195.731,0,0,0-21.832,19.747A10.348,10.348,0,0,1,87.8,124.06c-5.153-2.833-9.59-5.12-12.939-6.79-3.125,7.192-5.016,12.129-5.016,12.129l29.134,25.757Z" style="fill:#3e6a51"/><path d="M107.974,136.1c11.956-12.446,29.026-28.93,46.791-41.841,0,0,8.973,28.875,17.191,59.213l-24.1,32.15Z" style="fill:#80b297"/><path d="M176.548,170.958c-1.456-5.751-3.01-11.644-4.592-17.483l-9.576,8.557a14.5,14.5,0,0,1-19.265.108,275.438,275.438,0,0,0-35.14-26.036c-10.2,10.622-16.69,18.309-16.69,18.309l59.521,47.868Z" style="fill:#3e6a51"/><path d="M54.293,177.719c3.65-13.151,9.465-32.532,15.936-48.088,0,0,41.078,24.938,70.444,50.588l-24.994,46.893Z" style="fill:#80b297"/><path d="M157.734,196.927a182.223,182.223,0,0,0-17.063-16.706l-20.792,19.485a15.92,15.92,0,0,1-18.477,2.375c-20.524-11.141-37.509-19.659-47.109-24.362-2.486,8.957-3.968,15.026-3.968,15.026l68.358,50.161Z" style="fill:#3e6a51"/><path d="M195.452,259.341c-5-29.6-12.233-68.174-18.9-88.383l-49.755,45.278C136.616,238.55,167.206,254.465,195.452,259.341Z" style="fill:#80b297"/><path d="M195.451,259.341c-22.451-15.688-46.522-30.422-68.658-43.105L107.385,233.9l94.408,65.359S199.268,281.907,195.451,259.341Z" style="fill:#3e6a51"/><path d="M192.7,281.749c-35.823-23.432-111.044-72.174-142.374-89,0,0-3.052,10.648-6.513,25.727-.723,30.608,17.4,67.612,38.674,105.683C135.613,319.217,188.215,313.984,192.7,281.749Z" style="fill:#80b297"/><path d="M34.072,284.04l48.414,40.115H198.334l13.972-29.529s-7.587-5.015-19.607-12.877c-21.2,7.322-44.209,10.72-61.477,12.294-47.541,5.657-80.41-43.27-87.409-75.571C39.459,237.442,34.457,263.423,34.072,284.04Z" style="fill:#3e6a51"/><path d="M223.628,318.535c-2.662-4.764-6.817-9.364-7.236-15.143a40.4,40.4,0,0,0-1.211-6.078,8.143,8.143,0,0,0-11.068-5.165c-15.021,6.481-51.732,20.99-85.867,24.1h0c-9.76.516-24.837.4-33.357-1.639,0,0,9.552,9.487,33.562,13.875,0,0,19.526,2.184,25.7,2.184h72.317A8.189,8.189,0,0,0,223.628,318.535Z" style="fill:#b77c6a"/><path d="M24.544,330.665h119.6s-70.479-8.7-99.081-64.785c-4.036-7.914-15.343-7.677-18.2.735a74.134,74.134,0,0,0-3.691,21.573,40.134,40.134,0,0,1-2.14,11.839,131.1,131.1,0,0,0-5.32,20.253A8.934,8.934,0,0,0,24.544,330.665Z" style="fill:#eab198"/><path d="M91.285,299.423c6.243-6.91,21.292-22.586,36.518-36.989a2.467,2.467,0,0,0-2.771-4.012l-50.279,24.25Z" style="fill:#3e6a51"/><path d="M24.544,334.053H316.559a11.253,11.253,0,0,0,10.946-13.895A146.117,146.117,0,0,1,324.57,304.8a10.969,10.969,0,0,0-11.035-9.534c-6.991-17.594-30.759-75.619-40.375-102.736-.266-.79-5.971-18.008-6.348-34.077a8.466,8.466,0,0,0-10.172-8.083,127.768,127.768,0,0,0-6.674-22.6,9.66,9.66,0,0,0-17.975.394A85.215,85.215,0,0,0,227.05,151.8c-5.487-2-11.566,3.735-9.65,9.378a43.19,43.19,0,0,1,1.653,17.608c-9.122,1.649-6.432,9.624-9.277,15.938-2.833,7.022-5.328,18.572-5.8,20.791a165.241,165.241,0,0,0-8.3,25.446C189.34,197.865,165,115.514,158.064,93.464c-.365-2.12-3.852-23.427-.352-43.913,1.148-5.506-3.929-10.747-9.394-10.082a226.709,226.709,0,0,0-.428-24.407c-.523-9.991-14.582-12.654-18.7-3.524a148.32,148.32,0,0,0-7.375,19.6c-1.246-2.134-2.45-4.094-3.559-5.827-4.282-7.1-15.835-3.906-15.835,4.4a140.946,140.946,0,0,0,.484,15.491,32.864,32.864,0,0,1-3.29,17.342L91.549,78.786C78.628,98.45,67.622,126.969,67.075,128.4c-10.661,25.65-19.637,61.9-20.022,63.471-.335,1.176-9.548,33.728-13.989,65.163a12.7,12.7,0,0,0-9.406,8.5,77.851,77.851,0,0,0-3.869,22.555,36.782,36.782,0,0,1-1.956,10.841,134.531,134.531,0,0,0-5.459,20.8C10.972,326.974,17.161,334.236,24.544,334.053Zm196.02-9.1a4.669,4.669,0,0,1-4.1,2.326H144.376a150.953,150.953,0,0,1-28.345-7.458c35.052-2.621,73.153-17.539,89.424-24.559,5.932-2.006,7.083,3.98,7.574,8.549a25.133,25.133,0,0,0,4.638,11.587C219.4,318.11,222.645,321.575,220.564,324.951Zm97.286-19.273a153.352,153.352,0,0,0,3.07,16.076,4.477,4.477,0,0,1-4.361,5.523H226.97a11.467,11.467,0,0,0,.939-6.362h27.383c18.592,0,41.99-9.866,56.379-18.315A4.15,4.15,0,0,1,317.85,305.678ZM307.1,297.417c-11.417,6.513-33.991,16.722-51.806,16.722h-30.31c-2.355-3.405-4.879-7.051-5.227-11.162-.655-4.551-1.3-9.261-5.016-12.224,23.1-25.139,58.317-45.121,69.086-50.916C293.893,264.268,302.842,286.691,307.1,297.417Zm-38.907-98.844,13.119,34.912c-4.066,2.154-12.257,6.653-22.192,12.957a209.648,209.648,0,0,0-22.459-17.977A107.411,107.411,0,0,1,268.191,198.573ZM257.1,157.552a1.65,1.65,0,0,1,2.936,1.061c.321,13.667,4.111,27.654,5.857,33.422-1.393.809-3.295,1.977-5.542,3.506a126.93,126.93,0,0,0-11.993-22.489A44.938,44.938,0,0,1,257.1,157.552ZM238.35,130.505a2.87,2.87,0,0,1,5.359-.134,126.646,126.646,0,0,1,6.9,24.43,51.839,51.839,0,0,0-7.045,11.765A75.933,75.933,0,0,0,233.62,156.3,79.763,79.763,0,0,1,238.35,130.505Zm-14.144,27.876a.825.825,0,0,1,1.022-.01c16.418,11.414,26.236,33.129,29.477,41.281-1.068.829-2.174,1.724-3.306,2.673-5.557-6.363-14.923-15.851-25.757-21.819a49.511,49.511,0,0,0-1.741-21.244A.736.736,0,0,1,224.206,158.381Zm-8.147,38.875a33.559,33.559,0,0,0,2.336-10.1,1.786,1.786,0,0,1,.908-1.452,1.716,1.716,0,0,1,1.67-.023c10.558,5.4,19.907,14.888,25.364,21.146a110.116,110.116,0,0,0-15.348,17.9,124.691,124.691,0,0,0-19.835-10.291A130.827,130.827,0,0,1,216.059,197.256Zm-17.02,61.126a185.507,185.507,0,0,1,10.049-37.476c17.838,7.246,34.328,20.486,44.15,29.351-14.645,9.714-31.79,22.732-45.027,37.613-1.552-1.021-3.312-2.177-5.249-3.448-1.02-6.531-2.433-15.351-4.123-25.337A3.326,3.326,0,0,0,199.039,258.382Zm-3.728,21.026c-19.288-12.622-49.2-32.061-77.82-50.128l57.4-52.233C182.731,203.736,191.111,253.051,195.311,279.408ZM172.762,169.823l-19.339,17.6c-14.412-14.323-34.295-29.2-50.816-40.654,10.9-11.884,29.932-31.446,50.327-46.925C156.415,111.262,165.669,142.075,172.762,169.823ZM147.951,46.764a1.818,1.818,0,0,1,3.082,1.646c-3.247,19.009-.9,38.089.053,44.353-6.416,4.753-12.714,9.928-18.7,15.187q-5.918-5.773-11.959-11.13A108.811,108.811,0,0,1,147.951,46.764ZM135.329,14.41a3.042,3.042,0,0,1,5.8,1.106,204.783,204.783,0,0,1,.152,28.432A112.67,112.67,0,0,0,132.836,54.2a140.609,140.609,0,0,0-6.392-14.571A153.453,153.453,0,0,1,135.329,14.41ZM105.687,65.556c6.336-11.817,3.111-23.433,3.51-35.657a1.816,1.816,0,0,1,3.356-.936A142.434,142.434,0,0,1,128.1,61.244a116.6,116.6,0,0,0-13.407,30.635Q106.81,85.241,98.8,79.413ZM95.419,85.312a302.547,302.547,0,0,1,31.9,27.164c-12.487,11.37-23.259,22.653-30.356,30.423-10.226-6.936-18.568-12.2-22.539-14.664C77.294,121.113,85.788,100.816,95.419,85.312ZM71.86,134.629c11.931,7.477,52.518,33.591,76.54,57.364l-36.858,33.541c-22.353-14.046-43.385-26.88-57.29-34.51C56.359,182.772,63.47,155.88,71.86,134.629Zm-19.4,63.142C88.462,217.748,168.483,269.9,199.662,290.36c-20.054,8.426-63.7,24.646-99.007,22.969C81.473,304,60.55,288.787,48.084,264.341a13.908,13.908,0,0,0-8.224-7C43.391,232.694,49.857,207.431,52.456,197.771Zm-33.4,123.071a127.577,127.577,0,0,1,5.182-19.709A43.536,43.536,0,0,0,26.561,288.3,71.148,71.148,0,0,1,30.074,267.7c2.317-6.054,9.482-5.155,11.973-.285,13.156,27,42.593,49.438,74.517,59.858H24.544A5.58,5.58,0,0,1,19.056,320.842Z" style="fill:#2b2b2b"/></svg>