<svg id="icons" xmlns="http://www.w3.org/2000/svg" viewBox="0 0 340 340"><title>36_celery</title><path d="M313.763,67.009a24.836,24.836,0,0,0-5.472-4.481,28.513,28.513,0,0,0,8.5-4.764c7.514-6.031,4.6-17.327-4.428-16.977-10.335.4-16.443,4.374-16.443,4.374a37.433,37.433,0,0,0,4.475-7.123c3.877-7.933-2.8-15.475-10.982-12.391a44.587,44.587,0,0,0-13.4,7.936c.992-6.995-6.8-10.681-12.385-5.5a74.322,74.322,0,0,0-9.828,11.47l0,.016a100.484,100.484,0,0,0-14.519,31.92L224.043,92.9l1.43,4.429c27.774,7.134,57.794,5.353,80.519-7.762H306q2.112-1.22,4.138-2.57C317.319,82.206,319,72.506,313.763,67.009Z" style="fill:#3e6a51"/><path d="M222.385,139.638l45.2-29.544s47.386,2.413,35.34,32.032c0,0,14.234,2.721,13.391,17.208-.375,6.439-7.386,11.091-12.287,11.644,0,0-.461,12.219-14.981,11.335l-63.075-29.171Z" style="fill:#3e6a51"/><path d="M196.98,90.99l19.94-34.136s-.981-25.36-19.471-42.711c-7.7-7.223-19.4-.578-16.834,9.259a26.765,26.765,0,0,0-12.11-11.744c-11.5-5.216-21.326,7.454-13.753,17.673a41.772,41.772,0,0,0,3.67,4.271s-14.864,5.564-1.643,25.63C156.779,59.232,180.983,92.791,196.98,90.99Z" style="fill:#3e6a51"/><path d="M181.386,62.825c-3.5.039-7.166,2.16-10.657,7.911,0,0-4.956-13.066-15.868-17.611-10.09-4.2-20.025,6.853-14.62,16.352A30.028,30.028,0,0,0,144.3,74.9s-21.906,6.975,7.342,27.413c0,0-13.7,2.321-2.089,16.8,0,0,16.435,8.379,35.482-13.419S181.386,62.825,181.386,62.825Z" style="fill:#80b297"/><path d="M191.913,110.8a145.069,145.069,0,0,0,12.471-16.929l-5.507-16.277S190.76,62.74,181.386,62.843a24.839,24.839,0,0,0,3.279,16.8c9.37,18.521-13.258,39.955-35.112,39.459.313.391.633.785.984,1.193,13.339,15.543,10.525,22.273,10.525,22.273A175.348,175.348,0,0,0,191.913,110.8Z" style="fill:#3e6a51"/><path d="M253.892,152.263a94.4,94.4,0,0,1,28.359,4.679c7.29,2.491,8.474,12.552,1.881,16.5a31.627,31.627,0,0,1,13.731,10.481c5.961,9.025-4.056,18.851-13.177,13.365,3.334,7.33-3.782,15.232-11.5,12.821a40.443,40.443,0,0,1-3.942-1.443C233.159,185.685,232.854,156.325,253.892,152.263Z" style="fill:#80b297"/><path d="M238.648,92.129l-27.071,4.3L69.606,232.824,58.453,262.1l16.73,1.394S155.814,217.718,238.648,92.129Z" style="fill:#5b723d"/><path d="M240.855,82.487S161.388,214.932,58.453,262.1L47.532,301.834l25.56-7.9s124.992-95.1,167.174-171.512Z" style="fill:#719b56"/><path d="M174.264,126.568a3.462,3.462,0,0,1-1.24-3.4c4.066-20.115-11.552-35.064-11.71-35.212a3.462,3.462,0,0,1,4.724-5.062c.763.71,18.62,17.669,13.773,41.646A3.483,3.483,0,0,1,174.264,126.568Z" style="fill:#3e6a51"/><path d="M256.488,181.522c7.242-13.342-8.958-19.822-8.958-19.822l6.362-9.433a133.033,133.033,0,0,0-29.692,2.647l-9.942,16.307,32.724,19.415c7.926,10.072,15.883,15.308,22.266,18.024C276.541,192.633,256.488,181.522,256.488,181.522Z" style="fill:#3e6a51"/><path d="M225.456,142.084C198.392,176.222,136,247.2,52.972,293.105c0,0,4.919-5.831,8.415-16.645a132,132,0,0,1,13.522-29.547c15.778-25.194,45.567-64.4,93.132-100.505A187.1,187.1,0,0,0,185.9,131.857c9.389-12.261,10.877-21.591,5.82-28.492-7.939,8.087-17.637,16.943-27.851,23.925-4.529,3.1-9.024,6.24-13.367,9.593C121.316,159.411,29.881,234.919,26.9,298.946L22.4,302.5a9.359,9.359,0,0,0-.822,13.964l10.29,10.289a9.357,9.357,0,0,0,13.234,0c2.565-2.609,5.532-5.751,8.83-7.387,18.049-9.656,113.6-64.274,188.8-175.754C239.16,138.9,233.384,138.428,225.456,142.084Z" style="fill:#a9db89"/><path d="M194.169,114.575l.044,1.105c.093-.476.157-.94.215-1.4Z" style="fill:#719b56"/><path d="M261.058,114.539l-20.792,7.883s-5.164,7.494-14.81,19.662a33.558,33.558,0,0,1,17.273,1.524Q252.133,129.669,261.058,114.539Z" style="fill:#719b56"/><path d="M185.9,131.857c12.624-11.558,28.217-28.807,33.589-47.307L211.4,81.081a272.853,272.853,0,0,1-19.676,22.283A47.523,47.523,0,0,1,185.9,131.857Z" style="fill:#719b56"/><path d="M239.413,180.288c6.011.087,7.8-8.222,2.388-10.838-31.581-14.092-51.944,12.463-78.018,40.024,0,0,12.274-8.608,33.194,2.56a12.04,12.04,0,0,0,16.542-5.322S237,234.255,242.91,209.855c0,0,12.755,6.1,15.343-7.949s-19.877-21.726-19.877-21.726A5.02,5.02,0,0,0,239.413,180.288Z" style="fill:#80b297"/><path d="M195.985,82.342a71.326,71.326,0,0,0-4.223-7.922c-4.245-7.123,1.038-15.071,9-15.4,0,0-13.8-5.079-9.814-14.586,4.039-9.627,15.36-2.79,15.36-2.79-3.055-7.807-4.253-15.034.968-20.258,6.5-6.188,15.529-2.178,17.042,6.985,0,0,5.981-9.695,16.316-4.047,10.028,5.479,1.535,22.126,1.535,22.126s17.7,7.608,9.079,26.9C233.823,95.431,207.805,107.561,195.985,82.342Z" style="fill:#80b297"/><path d="M228.781,191.171c.111-4.63,7-4.582,7.046.049C235.716,195.851,228.827,195.8,228.781,191.171Z" style="fill:#3e6a51"/><path d="M194.192,123.794c3.5-2.125,6.785-4.192,9.908-6.215,26.522-33.078,24.894-58.941,24.805-60.087a3.462,3.462,0,0,0-6.905.521c.018.252,1.33,23.805-22.391,54.081A30.61,30.61,0,0,1,194.192,123.794Z" style="fill:#3e6a51"/><path d="M248.833,175.884a3.486,3.486,0,0,1,2.619-5.907c12.692.627,24.755,6.5,25.262,6.755a3.462,3.462,0,0,1-3.057,6.213h0c-.112-.055-11.318-5.5-22.547-6.052A3.451,3.451,0,0,1,248.833,175.884Z" style="fill:#3e6a51"/><path d="M159.621,213.726l2.455-5.9a20.271,20.271,0,0,1,7.606-9.241c20.33-13.213,38.993-13.525,47-12.85a3.549,3.549,0,0,1-.425,7.084C207.748,192.5,181.89,193.4,159.621,213.726Z" style="fill:#3e6a51"/><path d="M52.972,293.105l-9.715,5.949a2.283,2.283,0,0,1-3.27-2.9c2.825-6.156,9.286-15.6,23.631-22.027C63.618,274.13,60.57,286.811,52.972,293.105Z" style="fill:#719b56"/><path d="M251.241,73.346c-7.976,3.1-18.752,7.932-27.9,14.3-8.973,6.214-21.189,4.516-27.354-5.3l0,0c11.623,25.725-1.788,41.447-1.788,41.447C230.4,101.816,245.891,85.329,251.241,73.346Z" style="fill:#3e6a51"/><path d="M238.813,130.643a43.75,43.75,0,0,1,5.916,1.963c7.037,2.707,11.458-1.934,14.212-8.29,0,0,19.725,23.365,31.077,4.222,0,0,8.917,8,17.1-1.494,3.417-3.964,2.023-8.251-.761-11.9,0,0,9.384-5.456,3.708-14.624-2.329-3.763-7.656-5.969-12.722-6.646a8.312,8.312,0,0,1-6.806-5.655c-1.055-3.193-4.541-6.671-14.418-7.456-15.16-1.206-26.206-.752-41.468,10.408C228.15,97.986,203.471,120.058,238.813,130.643Z" style="fill:#80b297"/><path d="M282.447,104.451a3.463,3.463,0,0,0-2.525-4.2c-.46-.114-11.435-2.758-27.217.71-13.294,2.92-32.541,10.907-51.226,32.069a72.825,72.825,0,0,0-3.322,9.48,46.9,46.9,0,0,1,11.565-8.23c20.941-23.027,50.534-31.275,68.536-27.307A3.463,3.463,0,0,0,282.447,104.451Z" style="fill:#3e6a51"/><path d="M238.808,130.66c-19.56-11.9-15.423-30.523-4.15-39.484a115.733,115.733,0,0,0-9.753,8.066,96.546,96.546,0,0,0-26.748,43.272S215.162,124.685,238.808,130.66Z" style="fill:#3e6a51"/><path d="M300.8,196.789a12.861,12.861,0,0,0,.415-14.07,15.4,15.4,0,0,0,5.831-8.853c15.6-4.571,17.154-23.722,3.562-32.278-3.966-2.239-1.792-7.163-2.392-10.7,3.35-3.374,6.411-7.325,2.751-14.977,7.348-6.5,4.918-18.392-4.3-22.76,1.854-1.033,3.661-2.12,5.392-3.274,9.088-5.628,11.335-19.719,2.842-26.613,6.825-3.464,11.726-11.216,8.842-18.472-3.1-8.595-12.49-8.179-19.735-6.38a12.08,12.08,0,0,0-15.818-16,49.613,49.613,0,0,0-9.811,5.039c-3.174-6.321-12.15-6.86-17.131-1.887a81.619,81.619,0,0,0-14.045,17.863c2.615-7.511,3.455-17.571-4.91-22.14-6.962-3.8-12.748-2.122-16.623.7A12.977,12.977,0,0,0,205.739,18.1a58.928,58.928,0,0,0-5.921-6.483c-6.234-6.211-17.479-4.9-21.488,2.838-17.4-18.359-39.247,1.109-25.208,18.413-4.4,3.579-6.289,9.981-4.793,16.03A15.241,15.241,0,0,0,138.9,73.768c-10.572,7.623-6.192,18.342,6.079,27.9-9.846,8.856,2.747,19.587,8.7,28.538C113.09,158.388,23.188,243.227,23.53,297.192l-3.28,2.588a12.9,12.9,0,0,0-1.125,19.13l10.29,10.29a12.835,12.835,0,0,0,18.13,0c2.288-2.318,5.086-5.339,8.015-6.784C72.241,313.493,131.146,279.361,191.9,213.4c7.4,4.385,15.5,5.355,22-1.2,7.952,8.54,24.88,19.057,31.29,2.037,5.134,1.5,12.479-.741,14.868-6.618a47.529,47.529,0,0,0,12.121,5.805c7.557,2.576,16.235-3.276,16.753-11.174A12.5,12.5,0,0,0,300.8,196.789Zm.524-62.027c-1.91,14.156,12.371,10.811,11.536,24.37-.26,4.457-5.721,8.011-9.219,8.405-5.476,1.374-.684,5.454-6.927,9.852a36.1,36.1,0,0,0-6.7-4.952c4.4-6.464.887-16.44-6.632-18.768-13.769-4.758-28.591-5.325-40.109-4.677,3.143-4.52,6.194-9.042,8.372-12.569a13.008,13.008,0,0,0,8.081-6.331c7.544,7.542,22.149,15.035,31.213,3.2C293.344,134.674,297.853,135.765,301.324,134.762Zm5.8-32.42c3.13,4.429-.171,8.458-2.5,9.809a3.483,3.483,0,0,0-1.013,5.093c3.47,4.548,1.729,6.568.892,7.539-1.835,2.128-3.8,3.281-5.855,3.428a9.872,9.872,0,0,1-6.314-2.25,3.484,3.484,0,0,0-5.29.811c-2.171,3.66-4.67,5.56-7.641,5.811-6.82.575-15.172-7.385-17.812-10.5a3.484,3.484,0,0,0-5.777.757c-7.566,18.457-17.141-8.268-49.389,9.367,14.467-28.335,49.822-60.335,79.718-44.65a4.45,4.45,0,0,1,1.114,1.749C290.911,100.265,302.193,95.157,307.124,102.342Zm-81.971,60.071a43.506,43.506,0,0,0-14.566,2.976c11.879-13.72,20.627-24.91,25.777-31.749a42.307,42.307,0,0,1,7.386,2.292C237.836,145,228.313,158.1,225.153,162.413Zm-56.294,19.3c3.07-3.364-1.877-8-5.051-4.735-28.592,30.5-57.232,54.22-85.284,70.694,13.479-21.311,42.784-61.437,91.552-98.463a197.23,197.23,0,0,0,26.352-22.748q4.5-2.988,8.65-5.9a101,101,0,0,0-10.009,20.26c-3.454,4.313-6.972,8.6-10.467,12.744a3.462,3.462,0,1,0,5.293,4.464c3.625-4.3,7.274-8.743,10.852-13.217,1.156-1.175,11.876-11.616,27.5-11.937A662.435,662.435,0,0,1,185,183.357l-23.669,23.669a3.387,3.387,0,0,0-.519.691c-27.106,25.951-60.5,53.525-98.484,76.036,3.158-7.926,5.833-17.146,9.7-24.509C103.885,242.394,136.421,216.306,168.859,181.715ZM266,30.6c2.529-2.259,5.97-2.025,6.5,1.008.054,1.931-.1,4.194,2.013,5.1a3.469,3.469,0,0,0,3.844-.579,41.664,41.664,0,0,1,12.27-7.237c5.139-2.107,9.239,2.778,6.65,7.631a33.952,33.952,0,0,1-4.055,6.464c-2.453,2.971,1.337,7.2,4.563,5.091.055-.034,5.568-3.473,14.7-3.826a4.489,4.489,0,0,1,4.763,2.968c2.267,5.63-5.222,10.438-10.107,12.043a3.492,3.492,0,0,0-.525,6.308,22.283,22.283,0,0,1,4.628,3.831c4.064,4.255,1.77,11.7-3.037,14.719a74.8,74.8,0,0,1-11.231,6.138,4.839,4.839,0,0,1-3.162-3.121c-2.842-10.824-24.182-11.275-35.5-9.331,14.431-9.582,24.065-11.67,24.263-11.711a3.462,3.462,0,0,0-1.34-6.793c-.636.125-11.655,2.415-27.9,13.469,3.781-7.987,3.636-17.255-1.607-23.342A76.434,76.434,0,0,1,266,30.6Zm-48.363-7.589a9.819,9.819,0,0,1,3.286,6.046,3.492,3.492,0,0,0,6.327,1.153c.731-1.146,4.731-6.668,11.722-2.848,6.838,3.745.178,17.383.111,17.515a3.5,3.5,0,0,0,1.832,4.8c18.361,9.986,6.144,32.31-38.095,64.016,2.514-9.283,2.729-23.409-8.11-41.081a6.461,6.461,0,0,1-.5-5.817c1.1-2.975,4.058-4.049,7.016-4.344,3.5-.357,4.057-5.584.735-6.681-2.388-.812-10.339-5.152-7.817-10a4.282,4.282,0,0,1,2.624-2.789c2.635-.869,6.587.931,7.753,1.623a3.462,3.462,0,0,0,5.014-4.225c-3.224-8.239-3.166-13.188.193-16.548A6.029,6.029,0,0,1,217.641,23.008Zm-58,13.837a3.463,3.463,0,0,0,2.165-2.487c.639-3.026-3.061-4.874-4.267-7.089-3.092-4.172-2.058-8.293-.231-10.553,7.534-8.744,19.256,5.245,20.177,8.156a3.465,3.465,0,0,0,4.181,1.831c2.587-.792,2.6-3.431,2.14-5.631a5.689,5.689,0,0,1,3.28-5.837c5.705-3.027,11.048,4.315,14.365,8.664-1.639,3.881-1.469,8.1-.55,12.137-13.009-2.437-19.441,14.324-8.4,22.207a13.093,13.093,0,0,0-3.367,3.426c-6.312-3.818-12.762-2.833-17.795,2.521-2.742-4.712-7.967-11.5-15.567-14.419C152.436,40.294,158.405,37.338,159.636,36.845Zm-6.472,81.2c-5.206-6.067-5-8.894-4.674-9.828,1.574-3.258,5.843-1.607,6.526-5.148a3.461,3.461,0,0,0-1.395-3.6c-13.164-9.2-13.965-14.424-13.7-16.242.486-3.316,5.391-5.023,5.423-5.034a3.462,3.462,0,0,0,1.5-5.643,26.837,26.837,0,0,1-3.594-4.788,7.827,7.827,0,0,1,1.031-9.248c10.263-10.676,23.181,11.676,23.211,13.447a3.486,3.486,0,0,0,6.2.568c3.907-6.2,7.456-8.211,13.16-4.07a13.346,13.346,0,0,0,1.962,7.768A58.4,58.4,0,0,1,196.2,93.6c-8.721,9.644-22.808,23.43-36.858,32.605A76.491,76.491,0,0,0,153.164,118.045ZM52.294,316.311a27.261,27.261,0,0,0-6.423,4.77L42.649,324.3a5.9,5.9,0,0,1-8.338,0l-10.29-10.289a5.922,5.922,0,0,1,.518-8.8l2.087-1.646,9.819,9.82a3.462,3.462,0,1,0,4.9-4.9L30.458,297.61C34.74,235.235,124.9,161.019,152.621,139.624c4.472-3.452,9.185-6.727,13.206-9.475,11.942-8.164,23.143-18.823,31.47-27.576.086,11.465-5.089,18.175-5.7,18.928a193.268,193.268,0,0,1-25.523,22.059c-58.028,45.861-94.023,91.422-107.981,131.834-3.212,9.943-7.727,15.431-7.765,15.478-2.443,2.8,1.011,7.156,4.321,5.262,43.529-24.07,81.55-55.18,111.749-84.187,1.98-1.052,8.332-3.691,18.405-1.074C123.893,276.316,63.869,310.118,52.294,316.311ZM251.527,207.139c-2.429,1.254-5.977.125-7.124-.408a3.484,3.484,0,0,0-4.858,2.308c-.725,2.99-2.146,6.687-4.8,7.321-5.287,1.265-14.809-7.466-18.592-11.894a3.458,3.458,0,0,0-3.063-1.19,3.522,3.522,0,0,0-2.8,2.142,8.615,8.615,0,0,1-11.687,3.562c-9.22-4.922-16.956-6.272-22.924-6.126q7.433-7.418,14.124-14.508c20.475-22.348,42.228-20.77,50.487-15.777,2.193,1.016,1.442,4.558-1.115,4.242-4.323-1.172-6.123,5.184-1.928,6.644.2.068,19.579,7.061,17.6,17.824C254.287,204.319,253.17,206.291,251.527,207.139Zm37.483-11.911a14.414,14.414,0,0,1-2.8-1.051,3.512,3.512,0,0,0-4.528,4.9,5.778,5.778,0,0,1-1.272,6.072c-4.492,5.025-13.774-1.577-18.509-4.675.557-9.908-8.43-16.671-15.2-20.332,3.362-4.525,1.826-11.474-3.4-13.813a39.732,39.732,0,0,0-10.046-3.285c1.374-1.891,3.043-4.2,4.84-6.722,11.328-1.1,27.969-1.312,43.019,3.888,4.5,1.362,5.3,8.123,1.09,10.345a3.49,3.49,0,0,0,.77,6.145c.244-.3,17.781,8.488,12.1,16.177A5.557,5.557,0,0,1,289.01,195.228Z" style="fill:#2b2b2b"/></svg>