<svg id="icons" xmlns="http://www.w3.org/2000/svg" viewBox="0 0 340 340"><title>57_lime</title><path d="M96.442,54.691S79.069,129.328,10.194,119.3c0,0-2.7-41.962,34.93-57.35C78.483,48.306,96.442,54.691,96.442,54.691Z" style="fill:#80b297"/><path d="M215.15,117.237s-33.653-.977-60.48,20.642l38.637,87.938H296.965C309.584,133.451,241.6,116.338,215.15,117.237Z" style="fill:#84994a"/><path d="M90.546,117.228l3.172-10.044a13.863,13.863,0,0,1,5.95-7.593,35.783,35.783,0,0,0,4.491-3.266,15.356,15.356,0,0,0,5.2-11.659V58.809A15.82,15.82,0,0,1,117.5,44.977l3.325-1.847a2.049,2.049,0,0,1,3.045,1.791V91.775a10.821,10.821,0,0,0,3.158,7.584,15.537,15.537,0,0,1,4.636,12.763Z" style="fill:#3e6a51"/><path d="M122.04,109.47s-88.09-2.624-94.462,93.338c-2.924,62.748,33.5,84.245,68.871,93.449,46.606,4.4,77.348-19.8,91.621-73.694,17.469-63.2-2.779-94.695-42.361-109.937A91.645,91.645,0,0,0,122.04,109.47Z" style="fill:#aecc76"/><path d="M206.382,190.812c-3.356-53.7-36.915-71.982-60.673-78.185.019.01,22.5,10.822,32.965,48.884,4.244,15.433-4.14,30.311-20.146,30.311H120.494a7.811,7.811,0,0,0-7.8,8.23c.494,9.411,3.263,26.163,14.862,46.417,12.734,22.116-5.659,50.108-31.105,49.78C159.99,306.81,210.925,276.055,206.382,190.812Z" style="fill:#84994a"/><path d="M237.805,298.491a92.1,92.1,0,0,0,92.1-92.1H312.454c-49.183,11.779-99.039,9.95-149.3,0H145.708A92.1,92.1,0,0,0,237.805,298.491Z" style="fill:#f1fcd4"/><path d="M237.805,281.042a74.649,74.649,0,0,0,74.649-74.649H247.2a22.677,22.677,0,0,1-18.676,0H163.156A74.648,74.648,0,0,0,237.805,281.042Z" style="fill:#d3d35f"/><path d="M139.851,149.731a3.478,3.478,0,0,0,1.951-6.324,6.51,6.51,0,0,1-2.948-3.836,3.462,3.462,0,0,0-4.114-2.654c-5.394,1.646-1.906,8.746,3.166,12.214A3.444,3.444,0,0,0,139.851,149.731Z" style="fill:#84994a"/><path d="M156.74,175.785a3.478,3.478,0,0,0,1.951-6.325,6.5,6.5,0,0,1-2.948-3.836,3.463,3.463,0,0,0-4.115-2.653c-5.394,1.646-1.9,8.749,3.168,12.214A3.443,3.443,0,0,0,156.74,175.785Z" style="fill:#84994a"/><path d="M132.135,172.493a3.478,3.478,0,0,0,1.951-6.325,6.5,6.5,0,0,1-2.948-3.837,3.465,3.465,0,0,0-4.114-2.654c-5.393,1.647-1.907,8.748,3.166,12.216A3.444,3.444,0,0,0,132.135,172.493Z" style="fill:#84994a"/><path d="M251.159,152.715c-4.152-.523-7.674-5.317-8.2-6.731a3.462,3.462,0,1,1,6.259-2.96,6.777,6.777,0,0,0,3.416,3.094A3.473,3.473,0,0,1,251.159,152.715Z" style="fill:#657230"/><path d="M271.94,175.785c-4.555-.634-8.07-5.849-8.494-7.411a3.462,3.462,0,0,1,6.454-2.51,6.5,6.5,0,0,0,3.515,3.324A3.473,3.473,0,0,1,271.94,175.785Z" style="fill:#657230"/><path d="M247.124,176.408c-4.555-.634-8.071-5.849-8.5-7.411a3.462,3.462,0,0,1,6.454-2.51,6.5,6.5,0,0,0,3.516,3.324A3.473,3.473,0,0,1,247.124,176.408Z" style="fill:#657230"/><path d="M173.486,244.271q1.764,2.99,3.794,5.793l47.964-33.01a2.41,2.41,0,0,1,3.651,2.755L210.068,275.7q3.2,1.282,6.541,2.275l19.956-59.238a7.3,7.3,0,0,1,11.017-3.712l51.046,34.623q2.007-2.817,3.754-5.821L247.2,206.393H228.521Z" style="fill:#f1fcd4"/><path d="M249.333,225.739a3.462,3.462,0,0,0-6.489,2.413l19.4,53.123a3.462,3.462,0,0,0,6.49-2.413Z" style="fill:#f1fcd4"/><path d="M237.805,244.725a3.462,3.462,0,0,0-3.462,3.462v2.71a3.462,3.462,0,1,0,6.924,0v-2.71A3.462,3.462,0,0,0,237.805,244.725Z" style="fill:#f1fcd4"/><path d="M211.591,246.337l1.7-1.907a3.462,3.462,0,0,0-5.165-4.612l-1.7,1.907C203.454,245.168,208.5,249.681,211.591,246.337Z" style="fill:#f1fcd4"/><path d="M194.169,222.293a16.32,16.32,0,0,0,3.391-.918,3.463,3.463,0,0,0-2.126-6.591l-2.327.751A3.47,3.47,0,0,0,194.169,222.293Z" style="fill:#f1fcd4"/><path d="M266.2,238.145c-3.176-3.26-8.106,1.377-5.044,4.745l1.81,1.924a3.463,3.463,0,0,0,5.044-4.745Z" style="fill:#f1fcd4"/><path d="M277.709,221.342a27.433,27.433,0,0,0,3.831.925,3.47,3.47,0,0,0,.917-6.8l-2.911-.8A3.463,3.463,0,0,0,277.709,221.342Z" style="fill:#f1fcd4"/><path d="M79.944,163c-2.746,7.334-9.039,11.758-14.055,9.88-11.8-5.056-2.273-30.5,9.942-26.562C80.848,148.2,82.689,155.665,79.944,163Z" style="fill:#f1fcd4"/><path d="M125.628,38.454a3.461,3.461,0,0,0-3.438-.043l-6.15,3.418a212.309,212.309,0,0,0-20.031,9.145c-5.246-1.291-23.181-4.1-52.195,7.77A60.228,60.228,0,0,0,33.783,64C14.278,75.52,5.547,102.677,6.74,119.52a3.461,3.461,0,0,0,2.955,3.2C58.2,130.657,89.354,93.545,99.4,57.1c2.633-1.353,5.065-2.549,7.253-3.589-1.435,3.144-.5,27.341-.752,31.152a11.877,11.877,0,0,1-4,9.045c-9.015,6.484-10.053,6.891-13.231,17.98-32.247,12.4-58.936,32.112-64.545,90.894-3.248,46.041,18.183,79.3,60.3,93.946,30.733,10.381,70.333,6.406,94.641-14.809,61.065,48.886,155.008,3.563,154.3-75.323a3.462,3.462,0,0,0-3.462-3.461H301.676c-.147-77.963-69.033-103.986-126.79-80.916-11.362-8.3-29.053-13.828-40-15.1A19.627,19.627,0,0,0,129.5,96.93a7.336,7.336,0,0,1-2.163-5.156V41.438A3.462,3.462,0,0,0,125.628,38.454ZM85.413,56.705c-3.849,2.19-7.921,4.628-12.14,7.321-1.409.459-7.223,1.994-17.489.087-1.69-.314-3.276-.555-4.768-.742C66.354,57.71,77.944,56.554,85.413,56.705ZM48.86,97.831c-.215,10.443-6.044,15.363-7.3,16.3a70.272,70.272,0,0,1-27.948,2.112c.139-8.215,2.416-32.027,23.12-45.944,1.523-.33,7.441-1.305,17.791.618a63.775,63.775,0,0,0,7.164.931,235.918,235.918,0,0,0-29.672,24.98,3.486,3.486,0,0,0,2.449,5.911,3.45,3.45,0,0,0,2.448-1.015c4.18-4.179,8.481-8.1,12.819-11.778A46.853,46.853,0,0,0,48.86,97.831Zm27.38-8.969a71.336,71.336,0,0,1-22.712,20.3,30.715,30.715,0,0,0,2.255-11.185,45.906,45.906,0,0,1,3.381-15.6A268.618,268.618,0,0,1,90.59,61.822,106.269,106.269,0,0,1,76.24,88.862ZM326.373,209.856c-7.884,112.787-169.293,112.7-177.136,0h10.545c7.366,98.856,148.715,98.782,156.046,0Zm-17.465,0c-6.662,89.553-135.575,89.488-142.207,0ZM215.049,120.7c42.284.059,80.626,27.745,79.7,82.234H210.209c1.357-32.459-11.885-62.872-28.944-75.976A102.128,102.128,0,0,1,215.049,120.7Zm-12.123,70.332c.254,4.055.369,8.042.358,11.9H145.708a3.463,3.463,0,0,0-3.463,3.463,95.338,95.338,0,0,0,31.448,70.8c-51.366,39.513-149.642,13.851-142.661-74.156,2.548-38.37,18.519-65.173,47.47-79.666C136,96.335,199.944,123.464,202.926,191.029ZM127.46,106.15c-10.068-.05-10.871-1.11-30.789,3.18,1.138-5.589,6-7.094,9.75-10.384a18.791,18.791,0,0,0,6.4-14.287V58.816a12.691,12.691,0,0,1,7.588-11.493V91.774a14.215,14.215,0,0,0,4.152,10.013A13.474,13.474,0,0,1,127.46,106.15Z" style="fill:#2b2b2b"/></svg>