<svg id="icons" xmlns="http://www.w3.org/2000/svg" viewBox="0 0 340 340"><title>58_rose apple</title><path d="M195.661,11.122a7.657,7.657,0,0,1,10.859,2c6.951,10.574,19.9,38.2,13.622,73.567H203.759s7.865-50.59-14.287-69.05Z" style="fill:#719b56"/><path d="M215.566,80.828c-1.153-.052-1.8-.012-1.8-.012s-8.009-.5-17.907,4.3l-49.16,104.1c-9.236,27.888-19.758,53.453-30.8,68.769-14.055,19.771-12.1,48.671,12.313,60.983,28.175,7.965,87.839-6.982,153.326-17.578L259.516,174.407C258.583,121.771,246.081,87.218,215.566,80.828Z" style="fill:#f7616c"/><path d="M195.86,85.116c-11.225,5.45-24.88,17.728-32.04,45.319-4.917,18.947-10.71,39.423-17.121,58.783,17.592-8.9,28.939-23.619,36.223-39.459-.088,2.6-.152,5.285-.179,8.107,0,0,1.4,24.156-8.508,46.763a93.935,93.935,0,0,0-4.023,11.161c-1.363,4.631,4.886,7.484,7.557,3.463C201.429,187.833,198.505,118.151,195.86,85.116Z" style="fill:#b73d49"/><path d="M311.636,257.988c-18.711-25.949-35.923-81.313-47.923-127.553-11.681-45.017-40.651-49.271-48.147-49.607,6.9,2.23,22.665,12.374,20.126,59.261,0,0-5.741,50.312,18.6,100.668,4.1,8.41,14.1,36.195-.558,52.2-6.607,7.789-18.556,14.682-39.972,11.447-26.145-3.95-38.287-21.749-43.8-35.22a4,4,0,0,0-7.673,1.243,68.293,68.293,0,0,0,1.734,21.6,20.984,20.984,0,0,1-13.992,25c-5.414,1.713-12.384,2.7-21.254,2.2a53.454,53.454,0,0,0,26.363,4.828c8.35-.512,22.08-1.8,32.336-5.009,9.643,10.467,43.08,10.37,52.576,0,10.243,3.2,23.952,4.494,32.305,5.007a54.9,54.9,0,0,0,21.681-2.871C323.238,310.669,326.776,279.705,311.636,257.988Z" style="fill:#b73d49"/><path d="M193.989,17.44s-6.22,11.708-5.122,39.148c1.074,26.862-5.214,145.232-159.241,159.133a5.338,5.338,0,0,1-5.119-7.95c7.239-12.745,20.814-37.546,30.819-61.18C80.57,86.955,121.547,41.222,193.989,17.44Z" style="fill:#a9db89"/><path d="M174.162,242.66c-.165,6.51-9.707,6.508-9.871,0C164.456,236.15,174,236.151,174.162,242.66Z" style="fill:#b73d49"/><path d="M217.835,264.922c0,8.388-5.458,15.189-12.192,15.189-16.139-.69-16.134-29.693,0-30.378C212.377,249.733,217.835,256.533,217.835,264.922Z" style="fill:#ffe9e9"/><path d="M127.71,280.486c-1.568-12.031,7.924-27.056,16.508-42.035,1.6-2.8,6.045-.943,5,2.105-2.672,7.777-5.095,11.59-5.352,22.223-.265,10.972.456,17.023-2.122,21.955C138.437,291.056,128.852,289.251,127.71,280.486Z" style="fill:#ffe9e9"/><path d="M105.4,296.732c10.38,35.255,51.037,34.144,81.222,26.181,11.354,9.895,43.014,9.844,54.284,0,10,2.817,22.39,4.056,31.27,4.6,41.613,3.471,66.556-37.03,42.264-71.551-18.824-26.106-36.155-83.144-47.378-126.4-9.57-33.074-23.3-44.47-42.314-50.722,3.436-31.879-7.078-53.5-13.742-63.643a11.171,11.171,0,0,0-15.767-2.915l-2.855,2.044C76.122,52.026,63.959,132.793,16.5,214.7a3.485,3.485,0,0,0,2.97,5.234c53.809-3.811,94.66-16.172,129.658-49.84-12.45,41.09-24.555,69.943-36.038,85.87C104.293,268.163,101.491,283.023,105.4,296.732ZM260.363,131.3c11.372,43.826,29.011,101.731,48.464,128.708,14.836,19.825,9,50.024-15.909,57.9A51.169,51.169,0,0,1,272.6,320.6a175.493,175.493,0,0,1-25.506-3.279c22.87-21.028,20.93-57.246,10.317-78.073-35.908-81.1-4.986-107.013-24.436-149.613C242.837,95.364,254.092,107.142,260.363,131.3ZM196.754,19.719c1.572-1.072,3.65-3.1,5.746-2.522,8.136,4,18.688,34.158,15.427,60.35a37.277,37.277,0,0,0-9.4.123c1.45-14.249,1.875-41.079-12.476-56.1C196.336,20.75,196.578,20.135,196.754,19.719ZM192.326,56.45a118.3,118.3,0,0,1,1.6-26.6c10.111,14.411,8.834,38,7.464,49.389a48.867,48.867,0,0,0-10.649,4.707A155.824,155.824,0,0,0,192.326,56.45Zm-13.52-29.793a251.628,251.628,0,0,0-23.991,29.029c-13.619.575-27.533,4.591-38.04,8.465C134.505,48.564,155.061,36.176,178.806,26.657ZM102.862,77.641c3.236-1.619,25.115-12.232,46.867-14.627-15.961,22.821-28.948,54.527-45.536,76.027-1.408,1.538-9.547,9.5-30.124,13.528a61.758,61.758,0,0,0-21.526,8.764C65.4,130.41,81.656,99.459,102.862,77.641ZM25.745,212.574c4.163-7.249,11.713-20.716,19.451-36.1a57.369,57.369,0,0,1,30.2-17.114,92.025,92.025,0,0,0,16.608-4.794c-20.8,24.656-38.673,37.123-38.951,37.314-2.8,1.782-1.3,6.448,1.964,6.317,4.034-.83,46.671-31.851,78.665-94.1a123.571,123.571,0,0,0,2.41,20.685,65.965,65.965,0,0,1,.435,23.973c-.724,4.465,5.929,5.706,6.818,1.212a72.977,72.977,0,0,0-.455-26.5c-4.561-23.529-1.132-33.815.2-36.676,17.469-30.207,34.266-49.023,44.1-58.647a124.381,124.381,0,0,0-1.783,28.578C188.567,137.754,129.153,207.517,25.745,212.574Zm133.968-53.908a3.45,3.45,0,0,0,.106-.587c15.12-18.292,25.829-45.34,29.292-64.615,32-21.6,46.71-5.681,43.287,44.641-.319,2.866-5.537,53.859,18.815,104.226.227.444,22.249,44.733-13.3,74-.648.605-6.3,6.977-24.145,7.147-17.269,0-23.651-6.674-23.682-6.7a72.843,72.843,0,0,1-15.13-18.56,3.462,3.462,0,0,0-6.064,3.344,74.663,74.663,0,0,0,11.778,15.716,174.52,174.52,0,0,1-25.736,3.333c-18.253,1.447-38.348-7.642-42.87-25.771-3.327-11.657-.905-24.348,6.644-34.819C131.864,241.765,145.66,207.667,159.713,158.666Z" style="fill:#2b2b2b"/></svg>