<svg id="icons" xmlns="http://www.w3.org/2000/svg" viewBox="0 0 340 340"><title>63_quince</title><path d="M115.386,41.36C125.5,25.776,181.874-8.762,212.1,51.629a54.077,54.077,0,0,0,12.1,14.309,1.493,1.493,0,0,1,.01,2.32c-6.692,5.487-35.589,26.994-62.471,13.439C139.5,70.556,142.159,48.121,115.386,41.36Z" style="fill:#a9db89"/><path d="M260.345,150.62c26.261.073,81.728,22.085,65.113,99.824-16.766,41.48-76.135,52.6-81.124,15.057Z" style="fill:#ffd066"/><path d="M275.33,309.2a67.34,67.34,0,0,1,17.641-14.246c10.634-5.817,26.094-18.447,32.434-44.306.1,1.2-20.947,33.089-81.071,14.857l-7.868,56.454C255.89,325.749,268.416,316.89,275.33,309.2Z" style="fill:#ed9d3e"/><path d="M118.785,34.556a8.3,8.3,0,0,1,.308,11.88c-5.328,5.476-12.986,18.649-7.392,46.87l-15.365,5.6S83.6,60.219,105.193,35.287A9.456,9.456,0,0,1,118.785,34.556Z" style="fill:#6d5046"/><path d="M156.676,112.588s-13.918-10.277-24.139-21.91a17.458,17.458,0,0,0-16.155-5.825,21.057,21.057,0,0,0-9.724,4.229,5.471,5.471,0,0,1-6.96,0,21.056,21.056,0,0,0-9.725-4.229,17.459,17.459,0,0,0-16.155,5.825c-10.22,11.633-24.139,21.91-24.139,21.91-32.3,22.523-60.832,82.006-12.011,132.505,32.066,25.73,66.018,27.494,102.273,0,31.421-33.982,49.149-70.373,37.139-112A97.988,97.988,0,0,0,156.676,112.588Z" style="fill:#ffd066"/><path d="M177.078,133.1c-14.337,5.916-49.3,26.341-54.962,86.222C115.66,262.4,72.771,264.584,37.672,245.09h0c8.077,9.119,15.362,12.52,21.272,21.962,6.042,9.677,13.5,16.213,22.073,16.213,10.269,0,12.04-4.78,12.04-4.78a48.029,48.029,0,0,0,20.242,0s1.77,4.78,12.039,4.78c8.525,0,15.951-6.466,21.976-16.057a46.861,46.861,0,0,1,9.674-11C191.377,228.77,211.648,178.543,177.078,133.1Z" style="fill:#ed9d3e"/><path d="M241.15,158.057c-3-.64-5.313-3.228-7.317-6.665-35.719-24.934-87.123,21.045-86.973,63.458-.972,21.854,9.3,43.06,16.253,54.761a51.522,51.522,0,0,1,6.685,17.878c.978,5.935,3.47,13.885,9.693,20.269,0,0,16.329,16.813,39.819,2.717,3.326,4.986,8.548,11.718,17.156,11.48,3.835-.017,8.442-.541,11.676-2.544,6.377-3.95,15.283-11.165,23.563-23.785A70.124,70.124,0,0,1,284.729,280.8c8.765-7.5,22.437-23.354,25.592-51.023,4.733-41.5-14.206-66.551-35.719-75.866C253.033,144.571,241.15,158.057,241.15,158.057Z" style="fill:#ffeac5"/><path d="M217.788,272.055c-2.152-25.808.277-48.338,12.033-71.365a1.81,1.81,0,0,1,3.424.68c.926,13.447,1.54,46.761-12.071,71.42A1.813,1.813,0,0,1,217.788,272.055Z" style="fill:#ebb699"/><path d="M197.469,215.043c3.059,3.233,2.627,7.128,2.326,11.378-1.979,3.435-1.864,6.973.392,10.618a60.326,60.326,0,0,0,1.06,6.436,10.282,10.282,0,0,1-8.268,12.394c-6.43,1.268-10.172-3.483-13.425-9.016l-1.373-24.222a25.084,25.084,0,0,1,5.642-8.1A9.413,9.413,0,0,1,197.469,215.043Z" style="fill:#db6767"/><path d="M256.443,221.7c-3.579,2.533-3.977,6.4-4.482,10.566,2.736,5.214.995,9.137-3.119,12.376-.489,1.391-1.041,2.8-1.661,4.2a10.131,10.131,0,0,0,3.36,12.463c6.362,4.713,12.739.653,17.439-5.136l6.331-20.346a24.728,24.728,0,0,0-4.384-11.965A9.413,9.413,0,0,0,256.443,221.7Z" style="fill:#db6767"/><path d="M216.614,286.593C212.345,298,199.8,324.326,179.5,307.754a33.932,33.932,0,0,0,14.478,8.668s14.415,3.882,25.337-5.948c0,0-3.4-7.921-1.736-23.643A.5.5,0,0,0,216.614,286.593Z" style="fill:#ed9d3e"/><path d="M58.017,145.139a3.349,3.349,0,0,1-2.082-5.926,9.036,9.036,0,0,0,2.509-3.589,3.328,3.328,0,0,1,6.306,2.127C64.9,137.747,61.611,145.224,58.017,145.139Z" style="fill:#ed9d3e"/><path d="M41.84,167.877a3.349,3.349,0,0,1-2.081-5.926,9.026,9.026,0,0,0,2.508-3.588,3.328,3.328,0,0,1,6.306,2.127C48.726,160.486,45.435,167.962,41.84,167.877Z" style="fill:#ed9d3e"/><path d="M62.523,165.321a3.349,3.349,0,0,1-2.081-5.926,9.019,9.019,0,0,0,2.508-3.589,3.328,3.328,0,0,1,6.307,2.126C69.409,157.93,66.119,165.406,62.523,165.321Z" style="fill:#ed9d3e"/><path d="M233.83,151.4a36.992,36.992,0,0,0-2.863,24.33,1.757,1.757,0,0,0,3.45-.054,51.956,51.956,0,0,1,6.733-17.616A37.4,37.4,0,0,0,233.83,151.4Z" style="fill:#ebb699"/><path d="M200.189,237.039a74.591,74.591,0,0,1-.4-10.527,23.244,23.244,0,0,1-12.876,1.288,13.957,13.957,0,0,1-8.73-5.166c-3.335,6.64-2.131,18.549,1.374,24.215C185.079,237.375,195.463,236.769,200.189,237.039Z" style="fill:#993636"/><path d="M251.96,232.268a73.294,73.294,0,0,1-3.121,12.375c4.97.283,14.742,2.086,19.134,11.526,3.782-4.2,7.184-13.74,6.335-20.341C265.678,238.588,256.061,234.418,251.96,232.268Z" style="fill:#993636"/><path d="M118.553,130.63c3.353,5.806,10.356,8.039,15.642,4.987,12.389-7.82.822-27.846-12.14-21.026C116.769,117.643,115.2,124.824,118.553,130.63Z" style="fill:#fff7e1"/><path d="M47.234,258.758a43.463,43.463,0,0,1,8.99,10.219c9.108,14.454,19.968,20.394,32.852,16.448a11.914,11.914,0,0,1-4.035,2.844,3.328,3.328,0,0,0,2.717,6.076A16.916,16.916,0,0,0,97.839,282.6q1,.105,2.011.17v10.775a3.328,3.328,0,1,0,6.655,0V283.93c.55,2.531,6.915,13.084,11.276,7.832a3.327,3.327,0,0,0-.906-4.619,10.222,10.222,0,0,1-3.31-3.552c12.552,7.475,27.288.99,36.566-14.613a42.524,42.524,0,0,1,5.213-6.665c4.522,8.848,9.907,16.325,11.17,25.718,1.012,6.139,3.671,14.948,10.589,22.046,10.591,10.638,26.849,14.671,41.544,5.149,3.894,5.682,10.3,10.155,17.5,10.051,16.838,3.919,33.819-4.174,41.656-13.857a64.075,64.075,0,0,1,16.763-13.551c43.721-19.531,54.865-115.031.232-141.316-20.24-9.766-40.611-13.289-53.439-3.141-7.924-8.622-29-19.163-52.082-6.84-23.092-40.041-28.426-29.274-54.241-58.091a20.919,20.919,0,0,0-21.621-6.361c-1.661-21.374,4.064-28.944,9.075-34.579a38.9,38.9,0,0,1,15.421,14.728c24.516,43.564,70.181,25.506,89.978,7.233a3.352,3.352,0,0,0,.98-3.292,3.488,3.488,0,0,0-1.273-1.877c-7.284-5.229-12.071-13.418-12.543-14.243-27.262-52.411-72.05-38.319-94.746-18.611-5.05-4.3-13.4-3.455-17.631,1.629C89.908,47.85,88.323,66.845,89.655,81.447a20.943,20.943,0,0,0-18.337,7.035c-9.592,10.919-22.756,20.789-23.576,21.4C.639,144.129-9.846,212.563,47.234,258.758ZM172.55,81.947c-13.881-11.107-14.94-28.011-14.738-34.836a3.327,3.327,0,0,0-6.652-.2c-.171,5.746.453,17.73,7.2,28.829-5.466-3.921-10.4-9.565-14.713-16.861a45.982,45.982,0,0,0-15.037-15.5c10.548-4.283,32.954-10.846,49.564,1.815.746,2.035,2.767,8.446,2.812,18.322.041,9.306,3.761,15.051,8.123,18.389A42.814,42.814,0,0,1,172.55,81.947Zm45.071-12.881a84.831,84.831,0,0,1-18.739,10.069c-2.764-.48-11.189-2.979-11.245-15.649a73.357,73.357,0,0,0-.855-11.031C199.888,62.891,210.735,67.252,217.621,69.066ZM201.078,40c6.1,7.41,6.084,11.764,13.681,21.211-7.3-2.057-21.721-11.342-33.1-21.724C186.871,37.967,194.574,36.777,201.078,40ZM181.96,24.3a49.683,49.683,0,0,1,10.823,7.026,45.8,45.8,0,0,0-18.576,3.749,44.288,44.288,0,0,0-12.751-3.606A21.092,21.092,0,0,1,181.96,24.3Zm-17.608-3.635a30.293,30.293,0,0,0-10.881,10.382c-12.024.238-22.966,4.163-29.059,6.829-.074-.3-.159-.608-.257-.907C131.758,30.08,145.6,20.632,164.352,20.667Zm38.892,291.978c4.143-2.961,7.562-7.329,10.274-11.824a42.073,42.073,0,0,0,1.667,8.135A32.962,32.962,0,0,1,203.244,312.645ZM324.851,219.9c1.793,45.846-20.2,64.871-33.477,72.132a70.7,70.7,0,0,0-18.52,14.941,37.407,37.407,0,0,1-16.95,11.047,85.355,85.355,0,0,0,18.583-20.568,66.726,66.726,0,0,1,12.406-14.124c30.93-23.851,38.331-89.479,8.257-118.938C313.858,175.641,323.85,194.294,324.851,219.9Zm-126.261-70c20.018-7.208,33.486,3.541,38.146,8.225-2.754,3.725-7.085,11.583-6.392,23.575a3.328,3.328,0,1,0,6.644-.385c-.468-17.916,8.411-27.189,23.573-27.363,54.548,5.469,61.394,92.369,22,124.316a73.422,73.422,0,0,0-13.644,15.53c-8.06,12.286-16.7,19.171-22.533,22.782-2.127,1.318-5.565,2.026-9.938,2.046-6.756.344-11.5-5.632-14.236-9.8-.606-1.25-4.477-11.22-.71-26.421,19.877-30.093,17.336-88.664,11.84-86.6a3.33,3.33,0,0,0-3.536,1.614c-13.958,24.42-18.407,49.487-14.854,83.738-3.391,11.408-15.8,39.437-33.228,24.112-5.6-5.838-7.8-13.176-8.646-18.327a54.641,54.641,0,0,0-7.107-19.037C139.32,226.682,145.252,170.606,198.59,149.9Zm31.617,61.334c.471,14.217-.361,38.75-9.49,58.755C219.389,246.9,222.307,228.724,230.207,211.236Zm-122.5-173.77c4.635-5.455,14.04.649,9,6.649C111.887,49.069,104.3,60.908,107,84.8a20.5,20.5,0,0,0-3.825,2.961,21.313,21.313,0,0,0-6.632-4.393C94.936,69.822,95.718,51.308,107.708,37.466ZM51.563,115.331c.745-.545,14.3-10.587,24.755-22.456,6.2-7.716,19.489-5.609,24.038,1.94a3.351,3.351,0,0,0,5.643,0c2.2-3.525,5.9-5.774,10.991-6.69a14.2,14.2,0,0,1,13.047,4.75c25.961,29.044,31.418,18.76,53.335,56.765-37.943,21.2-49.573,68.612-31.029,106.254-10.162,9.467-15.321,28.16-32.777,23.279a25.9,25.9,0,0,0,4.247-3.388c3.071-3.107-1.462-7.766-4.65-4.761a17.121,17.121,0,0,1-6.747,4.242c-7.8,1.687-20.132,1.752-25.522-4.242-3.168-3-7.734,1.65-4.65,4.761A24.683,24.683,0,0,0,86.7,279.2c-10.509,3.588-19.711-5.126-24.844-13.765A50.139,50.139,0,0,0,51.5,253.649C-2.794,209.6,8.7,147.14,51.563,115.331Z" style="fill:#2b2b2b"/><path d="M182.439,256.01c9.407,8.823,25.119-.8,22.055-13.26a68.307,68.307,0,0,1-1.164-19.814,13.473,13.473,0,0,0-3.376-10.105h0C179.673,194.964,161.071,236.779,182.439,256.01Zm3.7-39.093c4.187-4.194,11.212-.207,10.562,5.457A75.081,75.081,0,0,0,198,244.2c1.654,6.122-6.337,11.3-11.008,6.955C178.827,244.284,175.756,226.2,186.137,216.917Z" style="fill:#2b2b2b"/><path d="M248.655,264.052c11.29,8.157,24.761-3.827,28.411-19.833a28.068,28.068,0,0,0-4.4-22.249c-6.8-9.952-22.325-5.476-23.512,6.328a68.278,68.278,0,0,1-5.014,19.2A13.452,13.452,0,0,0,248.655,264.052Zm1.57-13.861a75.06,75.06,0,0,0,5.54-21.149c.465-5.67,8.143-8.226,11.425-3.287,8.37,11.127,1.812,28.283-7.529,33.41C254.23,262.509,247.407,255.878,250.225,250.191Z" style="fill:#2b2b2b"/></svg>