<svg id="icons" xmlns="http://www.w3.org/2000/svg" viewBox="0 0 340 340"><title>64_durian</title><path d="M145.8,13.808l8.478,5.285S134.06,33.968,141.444,63.921l-17.932,8.558s-7.35-33.977,8.516-56.006A10.281,10.281,0,0,1,145.8,13.808Z" style="fill:#6d5046"/><path d="M129.479,62.745,105.605,49.638A70.557,70.557,0,0,0,92.5,70.7s-12.53-3.114-22.586-2.742l-2.234,22.9L44.96,95.335l1.676,24.02-21.228,8.38,7.262,19.738L13.863,162.966l16.573,24.727-18.807,17.69,19.179,13.593s-9.124,12.1-12.662,21.227c0,0,9.5,7.449,20.855,10.428,0,0-2.979,16.572-1.862,26.814h22.9l67.578,26.827,47.443-15.48c29.225-69.849,70.293-156.641,59.193-168.8l-6.443-1.757,2.421-28.3s-13.779-5.4-25.883-4.842c0,0-3.537-16.758-9.868-29.793,0,0-18.063,5.959-26.628,7.076L152.773,46.921Z" style="fill:#aecc76"/><path d="M234.257,120l-6.542,11.789S208.8,137.95,212.094,157.85c0,0-35.949,13.453-26.139,53.531,0,0-25.785,12.052-16.371,40.8l-18.23,36.892-14.877-6.1-24.434,9.139L97.382,277.75l-37.34-.305L60.6,302.21H89.649l9.869,23.648,28.117-14.71,18.249,16.572,41.9-34.448,68.71-167.213Z" style="fill:#84994a"/><polygon points="169.584 308.233 267.081 93.699 274.937 114.125 299.448 112.24 299.448 137.379 320.817 144.293 311.704 170.375 328.359 190.802 311.704 210.285 323.942 234.796 299.762 244.852 305.733 270.935 280.908 272.192 278.394 296.389 251.368 296.075 247.283 316.501 224.657 305.816 207.688 320.9 190.719 303.616 169.584 308.233" style="fill:#aecc76"/><path d="M296.363,188.876c-1.919-38.641-28.036-61.366-40.656-70.151L182.29,280.275C242.674,299.657,299.437,245.364,296.363,188.876Z" style="fill:#fff7e1"/><path d="M207.055,265.8c-5.411-1.451-21.238-4.9-18.5-24.238,0,0,3.794-16.836,17.693-21.006-10.576-16.679,2.51-51.717,23.859-52.583-4.845-13.217,8.019-29.417,24.019-26.718,17.422,7.062,15.171,36.7,4.439,76.063C244.512,241.733,230.573,266.442,207.055,265.8Z" style="fill:#ffd066"/><path d="M62.172,221.662a3.29,3.29,0,0,1-2.262-.9L42.171,204.038a3.32,3.32,0,0,1-.136-4.665l15.1-16.006-10.872-20.2a3.3,3.3,0,0,1,1.273-4.43l17.045-9.713-3.528-20.686a3.3,3.3,0,0,1,2.1-3.648l18.606-6.918,2.948-16.354A3.3,3.3,0,0,1,87.953,98.7h17.738a3.3,3.3,0,0,1,0,6.6H90.711L87.919,120.79a3.3,3.3,0,0,1-2.1,2.507l-17.807,6.621,3.457,20.271a3.3,3.3,0,0,1-1.62,3.422L53.6,162.872,64.07,182.336a3.3,3.3,0,0,1-.506,3.827L49.1,201.5l15.337,14.462A3.321,3.321,0,0,1,62.172,221.662Z" style="fill:#84994a"/><path d="M124.318,255.479a3.288,3.288,0,0,1-1.888-.6L103.8,241.856a3.3,3.3,0,0,1-1.359-3.277l3.2-18.151L90.653,207.681a3.3,3.3,0,0,1-.661-4.261l9.726-15.583-12.809-12.4a3.3,3.3,0,0,1-.415-4.254l12.461-17.936c2.53-3.516,7.835.157,5.419,3.765L93.513,172.649l12.711,12.3a3.3,3.3,0,0,1,.5,4.119L97.1,204.5l14.257,12.126a3.3,3.3,0,0,1,1.112,3.086l-3.16,17.942,16.906,11.823A3.315,3.315,0,0,1,124.318,255.479Z" style="fill:#84994a"/><path d="M98.077,287.849a3.3,3.3,0,0,1-2.81-1.566L84.337,268.6l-13.31-2.13a3.3,3.3,0,0,1-2.769-3.5l1.31-17.762a3.3,3.3,0,0,1,6.58.487l-1.087,14.739,11.81,1.89a3.306,3.306,0,0,1,2.286,1.523l22.886,28.27c.957,1.55-10.684-5.714-12.235-4.756A3.29,3.29,0,0,1,98.077,287.849Z" style="fill:#84994a"/><path d="M223.053,153.107a3.3,3.3,0,0,1-.945-.139l-25.94-7.75a3.3,3.3,0,0,1-2.348-3.368l1.431-22.909-20.357-2.4a3.3,3.3,0,0,1-2.913-3.277V97a3.3,3.3,0,0,1,6.6,0v13.333l20.545,2.421a3.3,3.3,0,0,1,2.907,3.483l-1.462,23.409,23.427,7A3.307,3.307,0,0,1,223.053,153.107Z" style="fill:#84994a"/><path d="M119.776,104.357c-3.046-3.195,1.629-7.8,4.781-4.715C127.6,102.837,122.927,107.447,119.776,104.357Z" style="fill:#84994a"/><path d="M274.81,161.716c-4.071-11.744-10.167-18.419-20.688-20.459,3.524,2.863,8.959,8.941,7.381,18.394a11.7,11.7,0,0,1-11.621,9.643,65.148,65.148,0,0,0-7.183.414,2.581,2.581,0,0,0-1.285,4.626c10.24,7.36,18.614,21.466,12.149,35.219-3.234,7.721-9.966,14.1-18.385,15.563a41.183,41.183,0,0,1-16.6-.57,2.587,2.587,0,0,0-2.663,4.071,24.9,24.9,0,0,0,7.883,6.709c14.812,9.677.324,28.572-16.743,30.466,25.322,5.42,38.8-22.306,38.8-22.306,24.157-5.736,35.033-40.1,21.543-57.448C279.212,178.162,274.81,161.716,274.81,161.716Z" style="fill:#ed9d3e"/><path d="M219.557,214.722c-10.781-.314-10.778-14.533,0-14.845C230.337,200.191,230.335,214.41,219.557,214.722Z" style="fill:#fff7e1"/><path d="M205.815,253.981c-7.375-.177-7.373-10,0-10.177C213.19,243.981,213.189,253.805,205.815,253.981Z" style="fill:#fff7e1"/><path d="M15.07,239.01a3.3,3.3,0,0,0,1.04,3.79,69.955,69.955,0,0,0,19.166,10.168c-.815,5.332-2.3,16.781-1.417,24.834a3.3,3.3,0,0,0,3.28,2.942H56.816l.486,21.541a3.3,3.3,0,0,0,3.3,3.225h26.85l9.022,21.619a3.32,3.32,0,0,0,4.575,1.653l26.075-13.643,16.542,15.024a3.3,3.3,0,0,0,4.314.106l23.086-18.983,18.576-4.057,15.693,15.982a3.3,3.3,0,0,0,4.546.155l15.34-13.635,20.655,9.754a3.3,3.3,0,0,0,4.643-2.337l3.548-17.743,24.289.284a3.3,3.3,0,0,0,3.321-2.959l2.221-21.386,22-1.114a3.322,3.322,0,0,0,3.05-4.032l-5.35-23.369,21.608-8.986a3.319,3.319,0,0,0,1.686-4.52l-11.262-22.556,15.235-17.821a3.3,3.3,0,0,0,.049-4.229l-15.488-19,8.5-24.34a3.318,3.318,0,0,0-2.1-4.227l-19.085-6.175V112.24a3.3,3.3,0,0,0-3.553-3.29l-22.061,1.7L270.16,92.514a3.3,3.3,0,0,0-2.982-2.113,3.368,3.368,0,0,0-3.1,1.933l-13.09,28.8-19.649-5.359,2.186-25.563a3.3,3.3,0,0,0-2.084-3.352c-.547-.215-12.617-4.89-24.464-5.1-1.277-5.324-4.532-17.624-9.523-27.9a3.3,3.3,0,0,0-4-1.692c-.167.055-15.76,5.182-24.417,6.69l-13.9-14.24a3.3,3.3,0,0,0-4.215-.425l-7.759,5.27c.684-18.219,12.539-27.31,13.076-27.712a3.321,3.321,0,0,0-.21-5.457l-8.477-5.285C124.9-.456,118.254,39.841,118.523,52.966l-11.33-6.221a3.3,3.3,0,0,0-4.065.712A74.569,74.569,0,0,0,90.511,66.875c-4.377-.921-13.138-2.486-20.721-2.211a3.3,3.3,0,0,0-3.163,2.978l-2,20.46L44.322,92.1a3.3,3.3,0,0,0-2.654,3.468l1.508,21.608L24.2,124.665a3.3,3.3,0,0,0-1.886,4.208l6.454,17.542-17,14a3.3,3.3,0,0,0-.643,4.384l15.014,22.4L9.368,202.979a3.322,3.322,0,0,0,.354,5.1L26.18,219.74C23.214,223.942,17.724,232.165,15.07,239.01ZM266.827,102.231l5.03,13.079a3.276,3.276,0,0,0,3.333,2.1l20.959-1.612v21.577a3.3,3.3,0,0,0,2.284,3.139l18.156,5.875-8,22.894a3.3,3.3,0,0,0,.557,3.173l14.914,18.292L309.2,208.141a3.3,3.3,0,0,0-.445,3.618l10.659,21.348-20.914,8.7a3.3,3.3,0,0,0-1.95,3.783l5.094,22.25-20.9,1.059a3.3,3.3,0,0,0-3.116,2.954l-2.2,21.2-24.016-.28a3.3,3.3,0,0,0-3.274,2.652l-3.257,16.288-18.81-8.882a3.3,3.3,0,0,0-3.6.517l-14.622,13L193.072,301.3a3.286,3.286,0,0,0-3.058-.911l-14.7,3.211,8.767-19.293c26.5,7.9,51.61,2.207,75.685-14.831,57.3-40.728,48.381-119.488.067-151.857Zm-9.79,21.543c44.508,30.858,51.429,103-1.118,140.342-22.633,16.22-45.868,20.969-69.087,14.141l6.672-14.682c25.007,16.422,46.773-2.738,54.58-17.283,23.132-6.174,36.087-39.353,23.768-59.56,18.118-20.022-1.009-49.679-21.142-49.036Zm14.6,38.859c.306,1.222,3.339,14.385-6.072,20.66a3.336,3.336,0,0,0-.688,4.878c12.024,15.486,1.726,47.181-19.74,52.093a3.306,3.306,0,0,0-2.25,1.775c-2.919,6.718-19.049,28.931-41.577,18.446-.747-.289-11.806-4.516-9.529-18.258.23-.945,3.409-13.263,13.239-17.7,1.862,2.307,6.957,7.683,12.918,9.152a3.311,3.311,0,0,0,1.341-6.315,23.052,23.052,0,0,1-10.257-8.586c-.3-.472-7.206-11.777.027-28.909,7.925-18.452,20.358-18.591,21.16-18.6.5-.015,12.5-.24,19.257,10.032,2.443,3.592,7.838.023,5.512-3.625-6.742-10.254-17.371-12.441-22.317-12.892C230.13,142.426,262.845,133.888,271.64,162.633ZM134.706,18.4a6.988,6.988,0,0,1,9.352-1.793l4.789,2.985c-4.928,5.133-13.205,16.516-12.243,34.323L129.3,58.88,125.15,56.6C124.855,45.509,126.306,30.063,134.706,18.4ZM16.828,205.023,32.7,190.1a3.3,3.3,0,0,0,.48-4.241L18.269,163.612l16.5-13.593a3.3,3.3,0,0,0,1-3.686l-6.15-16.713,18.231-7.2a3.3,3.3,0,0,0,2.079-3.3L48.454,98.01,68.314,94.1a3.3,3.3,0,0,0,2.647-2.917l1.945-19.939a102.828,102.828,0,0,1,18.8,2.659,3.3,3.3,0,0,0,3.87-2.005,65.438,65.438,0,0,1,10.8-18.079l21.52,11.816a3.3,3.3,0,0,0,3.442-.163L152.341,51.2,165.5,64.68a3.3,3.3,0,0,0,2.788.968c6.8-.886,18.947-4.577,24.434-6.313a156.423,156.423,0,0,1,8.407,26.44,3.291,3.291,0,0,0,3.381,2.614c8.421-.378,17.944,2.377,22.225,3.8l-2.2,25.765a3.3,3.3,0,0,0,2.42,3.464l21.273,5.8c-.027.075-5.317,11.673-5.329,11.741-10.71,3-18.822,15.833-16.834,26.244-19.972,3.864-32.588,35.6-24.34,53.572-12.649,6.1-16.225,21.351-16.383,22.052-1.408,7.46.388,13.374,3.271,17.571L166.9,306.172l-20.906,17.189-16.137-14.656a3.3,3.3,0,0,0-3.748-.481l-24.929,13.042L92.7,300.94a3.3,3.3,0,0,0-3.046-2.029H63.827l-.486-21.541a3.3,3.3,0,0,0-3.3-3.225H40.217c-.327-9.645,2.006-22.785,2.032-22.931a3.3,3.3,0,0,0-2.411-3.775,60.7,60.7,0,0,1-17.618-8.374C36.242,211.3,41.77,223.805,16.828,205.023Z" style="fill:#2b2b2b"/></svg>