<svg id="icons" xmlns="http://www.w3.org/2000/svg" viewBox="0 0 340 340"><title>65_lychee</title><path d="M129.9,50.754c19.828-47.147,96.769-43.813,107.838,8.627a22.411,22.411,0,0,0-17.646,2.548c-8.627,5.49-31.083,18.656-61.126-5.693C158.964,56.236,145.584,45.656,129.9,50.754Z" style="fill:#80b297"/><path d="M27.032,218.24s-1.093-4.623-2.58-6.475c-3.621-4.6-8.232-8.735-6.847-15.209.59-4.042,2.82-10.519,1.1-14.445l-2.286-6.423a11.891,11.891,0,0,1,.729-9.619c1.418-3.065,6.425-10.61,6.531-13.991l1.074-9.926a11.894,11.894,0,0,1,5.876-9.018l7.915-4.572a11.893,11.893,0,0,0,4.975-5.593l3.064-7.112a11.889,11.889,0,0,1,7.192-6.587L60.656,107a11.893,11.893,0,0,0,6.984-6.13,11.891,11.891,0,0,1,12.6-6.581c2.011.21,16.771,3.038,18.558,2.581l40.91,24.01L159.518,151,149.478,235.6l-34.137,17.939L55.233,247.25,30.065,226.9Z" style="fill:#db6767"/><path d="M190.244,157.328l-5.737-16.791a11.891,11.891,0,0,0-4.462-5.917l-11.131-7.745a11.892,11.892,0,0,1-4.167-5.145l-4.414-10.478a11.893,11.893,0,0,0-9.076-7.126l-11.715-1.879a11.9,11.9,0,0,1-5.328-2.286l-8.308-6.336A11.894,11.894,0,0,0,114.933,91.8c-1.7.467-14.572,5.146-16.139,5.057l-1.252,15.329-18.811,4.46a2.769,2.769,0,0,0-.562,5.194c6.542,3.066,19.089,6.726,40.366,5.286,4.73-.419,9.707.348,14.359,1.213a12.2,12.2,0,0,1,10.237,11c-.153,5.262,2.784,8.384,7.355,10.421a7.939,7.939,0,0,1,3.072,12.236c-6.088,8.067-14.218,24.962-12.493,56.406a11.936,11.936,0,0,1-8.14,12.056,23.734,23.734,0,0,0-11.013,7.447,12.163,12.163,0,0,1-10.705,4.25,25.264,25.264,0,0,0-14.717,2.93,15.4,15.4,0,0,1-14.163-.137,27.177,27.177,0,0,0-13.895-3.057,13.434,13.434,0,0,1-11.7-5.921c-2.729-3.983-7.966-8.334-18-9.81a13.234,13.234,0,0,1-11.7-7.915l.715,8.71A11.894,11.894,0,0,0,33,235.869l7.177,4.792c3.018,1.627,6.641,8.959,8.58,11.692a11.89,11.89,0,0,0,7.86,5.355c3.668.895,11.132,1.354,14.048,3.931l7.056,5.369a11.891,11.891,0,0,0,8.993,2.293c3.565-.363,10.636-2.307,14.085-.961l9.765,2.984a11.893,11.893,0,0,0,11.8-2.882l4.8-4.708a11.888,11.888,0,0,1,7.7-3.384l9.281-.489a11.893,11.893,0,0,0,9.02-4.918c1.238-2.015,11.46-15.088,11.833-17.252l25.224-72.616A11.9,11.9,0,0,0,190.244,157.328Z" style="fill:#993636"/><path d="M170.153,252.114a98.187,98.187,0,0,1-8.129-31.835c-4.153-60.771,77.724-102.659,119.189-24.123C239.2,222.762,191.337,258.689,170.153,252.114Z" style="fill:#fec"/><path d="M238.092,212.7c-16.6,12.676-43.083,30.907-67.934,39.416a106.532,106.532,0,0,0,10.989,19.731c64.015-21.435,109.343-75.582,109.343-75.582-16.981-32.209-41.244-44.921-70.095-43.579h0C249.833,156.546,263.053,192.513,238.092,212.7Z" style="fill:#e5c49c"/><path d="M285.894,298.212s4.875,13.65,21.143,22.966a9.15,9.15,0,0,0,12.513-3.389l4.7-8.262s-17.951-5.565-26.3-21.888Z" style="fill:#80b297"/><path d="M279.625,199.338c-38.8,36.409-85.168,60.438-103.122,69.007-8.72,3.911-7.979,17.534.814,20.87l4.4,1.759c9.095,3.519,5.678,15.8,16.765,17.6l5.752.89a10.969,10.969,0,0,1,6.826,3.911s4.719,8.4,21.264-1.318l17.887,1.906,44.715-23.672,19.679-59.5-18.334-31.453Z" style="fill:#db6767"/><path d="M119.152,17.788l5.308,7.686a9.543,9.543,0,0,1-.525,11.578c-8.564,10.118-24.607,35.628-18.606,80a2.751,2.751,0,0,1-2.727,3.115H97.775a5.978,5.978,0,0,1-5.94-5.237C89.964,99.818,87.674,54.873,119.152,17.788Z" style="fill:#e89e85"/><path d="M64.838,250.142a3.432,3.432,0,0,1-2.01-.48l-7.939-4.737a15.52,15.52,0,0,1-7.511-12.1c-.277-3.12-.1-7.344-2.5-9.719l-3.8-4.281a15.442,15.442,0,0,1-2.323-17.094,8.559,8.559,0,0,0,.128-7.688l-.963-2a15.531,15.531,0,0,1,2.972-17.63,8.558,8.558,0,0,0,2.322-7.72c-1.856-6.43.071-13.6,5.615-17.579l6.815-5a3.462,3.462,0,0,1,4.1,5.581l-6.816,5c-3.52,2.6-4.062,6.652-2.923,10.64a15.474,15.474,0,0,1-4.2,13.958c-3.361,3.465-2.983,7.83-.681,11.757a15.411,15.411,0,0,1-.049,13.522,8.567,8.567,0,0,0,1.182,9.665l3.8,4.281a15.586,15.586,0,0,1,3.855,9.075c.3,4.382.152,8.856,4.521,11.393l7.939,4.737A3.479,3.479,0,0,1,64.838,250.142Z" style="fill:#993636"/><path d="M263.346,312.059c-8.185-.367-12.653-3.507-16.266-10.253a10.917,10.917,0,0,0-4-4.559c-2.311-1.9-7.185-1.643-9.982-1.955a15.021,15.021,0,0,1-12.822-9.307,8.164,8.164,0,0,0-5.908-4.9l-2.335-.482a3.463,3.463,0,0,1,1.4-6.782c5.813.748,11.021,3.938,13.247,9.522,2.335,5.619,7.7,5.054,12.732,5.478a15.114,15.114,0,0,1,7.111,2.412,17.837,17.837,0,0,1,6.76,7.5,11.233,11.233,0,0,0,4.023,4.741c3.2,1.972,7.094,2.192,11.564.649a3.459,3.459,0,0,1,4.4,2.143C274.826,311.626,266.3,311.877,263.346,312.059Z" style="fill:#993636"/><path d="M313.772,286.317l1.785-10.118c.272-3.235,5.045-8.719,6.715-11.4a10.97,10.97,0,0,0,1.284-10.119c-3.428-8.674-3.36-8.871-.323-17.622a10.965,10.965,0,0,0-.58-8.269l-2.959-6.011c-1.628-2.8-1.073-8.6-1.253-11.71a10.97,10.97,0,0,0-3.886-8.18l-7.775-6.572a10.971,10.971,0,0,1-2.252-2.613A10.96,10.96,0,0,0,287.4,191.76q-3.827,3.873-7.781,7.577h0l4.872,4.689a11.648,11.648,0,0,1,3.546,7.691c.035,3.225.551,6.627,2.722,9.142,3.544,3.794,5.431,8.364,3.528,13.46a11.891,11.891,0,0,0,1.282,12.243c3.511,4.043,11.469,19.825-4.706,27.578a27.566,27.566,0,0,0-14.113,15.611,10.721,10.721,0,0,1-7.81,6.856,26.766,26.766,0,0,0-14.785,8.249,13.887,13.887,0,0,1-13.477,4.308c-5.32-1.151-12.036-1.2-17.45,3.312a10.586,10.586,0,0,1-12.176.9c5.979,8.264,11.358,5.694,19.806,4.143a10.975,10.975,0,0,1,6.39.68l7.576,3.234a10.971,10.971,0,0,0,9.348-.347l9.078-4.7a10.956,10.956,0,0,1,4.925-1.227l9.3-.1a10.969,10.969,0,0,0,8.825-4.617l6.487-9.132C298.366,293.425,311.217,298.525,313.772,286.317Z" style="fill:#993636"/><path d="M90.654,250.188c-.413-5.677-4.1-10.287-9.01-12.916a8.592,8.592,0,0,1-3.762-9.148,15.469,15.469,0,0,0-3.818-14.066C71,211.3,69.3,207.52,70.919,203.482l3.139-7.851a3.463,3.463,0,0,0-6.43-2.57l-3.139,7.852c-2.6,6.311-.447,13.409,4.531,17.889a8.558,8.558,0,0,1,2.112,7.78,15.53,15.53,0,0,0,6.8,16.535c7.928,4.266,4.217,8.167,8.037,14.32l8.183-1.189A8.537,8.537,0,0,1,90.654,250.188Z" style="fill:#993636"/><path d="M199.923,203.859c0,7.387-5.169,13.376-11.545,13.376-15.288-.625-15.283-26.13,0-26.751C194.754,190.484,199.923,196.472,199.923,203.859Z" style="fill:#fff"/><path d="M92.412,170.1c-3,5.99-9.362,8.877-14.221,6.447-11.4-6.317-1.044-27.021,10.845-21.692C93.9,157.286,95.406,164.111,92.412,170.1Z" style="fill:#fcdede"/><path d="M127.308,23.506,122,15.82a3.462,3.462,0,0,0-5.488-.272C94.5,41.477,88.474,70.815,87.5,91.943l-6.713-1.077a15.458,15.458,0,0,0-16.266,8.5c-1.684,4.3-8.072,5.2-11.834,6.62-7.591,2.378-9.557,9.071-12.349,15.616a8.5,8.5,0,0,1-3.527,3.965c-7.036,4.135-14.509,6.89-15.5,16.215-.5,2.543-.629,10.9-2.031,13.01-6.714,12.847-9.737,13.992-3.837,28.483,1.361,2.871-.87,9.659-1.235,12.634-1.573,7.719,3.037,12.561,7.548,18.025a8.417,8.417,0,0,1,1.829,4.592c.677,7.712.078,15.408,7.493,20.226l7.177,4.792a8.39,8.39,0,0,1,2.456,2.522c4.011,6.117,7.045,13.721,15.264,15.048,2.648.678,10.517,1.361,12.594,3.283,12.158,9.539,12.145,9.567,27.485,6.986,2.894-.634,10.7,2.606,13.5,3.255a15.354,15.354,0,0,0,15.236-3.721c2.649-2.436,6.243-7.234,10.262-7.107l9.281-.489a15.283,15.283,0,0,0,11.645-6.348l8.01-11.1a119.909,119.909,0,0,0,9.391,20.283c-9.82,6.032-8.161,22.24,2.656,26.279,2.986,1.234,7.206,2.286,8.455,5.648,4.4,11.089,7.405,13.513,19.216,14.809a7.5,7.5,0,0,1,4.671,2.677c3.423,5.029,9.283,8.133,15.4,6.855l7.748-1.5a7.459,7.459,0,0,1,4.374.464c3.416,1.3,9.492,4.694,13.244,4.4,4.65.366,11.658-4.459,15.708-6.32a7.542,7.542,0,0,1,3.371-.839c8.678-.184,16.277,1.305,21.717-7.316a56.363,56.363,0,0,0,15.382,12.876A12.67,12.67,0,0,0,322.56,319.5l4.7-8.262a3.488,3.488,0,0,0-1.977-5.016,48.685,48.685,0,0,1-15.49-9.092c7.964-4.056,7.621-12.748,9.175-20.33a7.558,7.558,0,0,1,1.239-3c7.328-10.091,10.022-13.238,4.689-25.438a7.532,7.532,0,0,1-.1-4.968c3.911-10.633,3.047-12.342-2-22.145-1.222-2.075-.72-7.92-.9-10.244.093-8.37-7.452-12.467-12.886-17.333a7.529,7.529,0,0,1-1.542-1.791,14.506,14.506,0,0,0-18.554-5.414c-19.572-33.332-61.6-47.626-95.163-29.469-.075-.266-.147-.533-.237-.8l-5.738-16.789a15.253,15.253,0,0,0-5.759-7.64l-11.132-7.745a8.429,8.429,0,0,1-2.954-3.647c-7.418-18.954-8.127-18.7-27.848-21.558a8.436,8.436,0,0,1-3.776-1.621c-9.8-7.48-13.85-12.6-26.812-7.246,2.355-12.51,8.065-28.1,21.788-36.01,13.529-4.189,25.415,4.913,25.5,4.974,20.673,17.5,45.424,19.625,65.164,5.925a18.785,18.785,0,0,1,14.714-2.178,3.486,3.486,0,0,0,4.493-3.832C229.224,2.811,148.629-.366,127.2,48.326a44.6,44.6,0,0,0-12.642,11.425,75.4,75.4,0,0,1,12.025-20.463A13.02,13.02,0,0,0,127.308,23.506Zm33.8,30.014a39.836,39.836,0,0,0-12.425-6.136c7.524-.993,15.9-5.791,20.757,5.53a39.316,39.316,0,0,0,5.387,9.411A68.665,68.665,0,0,1,161.111,53.52Zm56.356-21.111A48.532,48.532,0,0,1,233.09,55.165a25.249,25.249,0,0,0-14.859,3.843,54.2,54.2,0,0,1-9.969,5.2c-5-3.224-6.568-9.541-6.6-9.7-1.084-4.412-7.677-2.916-6.753,1.534a25.868,25.868,0,0,0,5.4,10.337,39.091,39.091,0,0,1-11.538.178c-2.311-1.77-9.617-7.842-12.87-16.17a21.057,21.057,0,0,0-3.116-5.492c12.559.1,27.413,1.942,37.185,5.914,4.186,1.768,6.934-4.422,2.8-6.333a41.92,41.92,0,0,0-4.248-1.562A24.129,24.129,0,0,0,217.467,32.409ZM188.178,21.233a57.6,57.6,0,0,1,23.456,7.185,17.832,17.832,0,0,1-15.492,11.605c-3.983-.691-8.387-1.258-13.049-1.62,2.353-2.244,10.337-8.443,5.477-11.979a3.459,3.459,0,0,0-4.788,1.022C179.155,34.583,171.494,37.425,169.74,38c-10.541.2-21.431,1.659-31.36,5.175C145.7,33.136,161.175,18.531,188.178,21.233ZM319.265,311.289l-2.724,4.788a5.715,5.715,0,0,1-7.783,2.1A49.187,49.187,0,0,1,294.1,305.437l1.506-2.12c1.416-2.259,4.371-3.024,6.78-3.68A55.045,55.045,0,0,0,319.265,311.289Zm-29.4-117.1a7.443,7.443,0,0,1,6.178-2.18c4.283.224,5.652,4.536,8.5,6.952l7.776,6.572a7.5,7.5,0,0,1,2.659,5.6c.183,3.926-.384,9.669,1.609,13.175,1.4,3.25,4.922,7.948,3.356,11.67-7.106,16.056,4.539,18.235-.51,26.839-2.209,3.432-6.826,8.612-7.286,12.777l-1.785,10.118c-1.756,9.254-14.759,4.843-20.4,13.592l-6.487,9.132a7.53,7.53,0,0,1-6.039,3.16l-9.3.1c-4.572-.295-11.574,4.474-15.557,6.314a7.482,7.482,0,0,1-6.4.238c-4.568-1.854-10.882-5.514-15.983-4.129-6.841,1.04-11.679,4.149-16.464-2.931-3.572-4.721-9.314-5.3-14.732-6.036-8.756-1.537-5.3-13.317-16.01-17.395L178.6,286c-6.013-2.249-6.621-11.883-.608-14.53h0C198.212,261.82,249.584,234.974,289.868,194.193Zm-46.711-35.672c16.648,4.927,30.191,15.8,40.3,32.281-36.549,36.441-81.933,61.364-103.9,72.209-5.124-8.732-12.8-24.6-14.079-42.973C161.556,178.831,204.065,146.01,243.157,158.521ZM116.028,95.084a8.42,8.42,0,0,1,7.778,1.294c4.023,2.806,10.091,8.836,15.186,9.288l11.716,1.879a8.379,8.379,0,0,1,6.434,5.051l4.414,10.478a15.332,15.332,0,0,0,5.381,6.643l11.13,7.745a8.384,8.384,0,0,1,3.164,4.2c.334,1.34,6.567,18.17,6.168,19.206-25.119,16.464-34.483,48.845-25.875,76.991.2-.969-11.123,15.07-11.165,15.064a8.4,8.4,0,0,1-6.394,3.486l-9.282.488c-11.771.276-13.167,13.861-23.11,11.121-4.456-1.142-11.96-4.5-16.565-3.478-13.727,2.144-11.243,2.8-22.249-5.651-3.441-3.054-11.19-3.608-15.5-4.578a8.451,8.451,0,0,1-5.573-3.8c-2.424-3.521-5.791-10.552-9.588-12.729l-7.178-4.792a8.384,8.384,0,0,1-3.722-6.324c-1.014-12.626-.107-12.7-8.485-22.6a8.419,8.419,0,0,1-1.706-6.863l1.572-8.221c2.154-7.331-5.971-14.738-2.384-21.276l5.183-9.641c2.169-3.512,2.213-11.564,2.815-15.544a8.465,8.465,0,0,1,4.166-6.393c4.848-2.922,12.286-5.992,14.337-11.792,4.679-10.9,3.319-10.413,15.047-14.055a15.438,15.438,0,0,0,9.017-7.915,8.485,8.485,0,0,1,8.93-4.665l7.659,1.228a130.444,130.444,0,0,0,1.242,18.007,19.1,19.1,0,0,1-4.3-1.3c-4.025-2.05-7.224,3.88-3.267,6.105.591.32,5.514,2.818,14.988,2.818,11.749-.279,26.149-2.943,22.217-9.385a3.425,3.425,0,0,0-4.805-.778,17.617,17.617,0,0,1-4.712,1.738c-.881-7.636-1.212-8.463-.325-18.51Zm5.264-60.269C111.4,46.5,96.018,72.457,101.79,116.7H95.576c-1.65-11.377-5.751-55.852,23.348-93.149C121.377,27.036,124.646,30.663,121.292,34.815Z" style="fill:#2b2b2b"/></svg>