<svg id="icons" xmlns="http://www.w3.org/2000/svg" viewBox="0 0 340 340"><title>67_dragon fruit</title><path d="M67.227,121.734a5.983,5.983,0,0,0-11-1.868c-4.525,6.952-4.493,22.066.325,33.981,8.821,6.27,22.519-9.092,20.049-15.687C72.718,135.249,68.914,130.265,67.227,121.734Z" style="fill:#aecc76"/><path d="M53.969,191.436a13.068,13.068,0,0,0,1.108-1.61Z" style="fill:#719b56"/><path d="M76.606,138.156A29.724,29.724,0,0,1,56.544,153.85c5.991,20.368.945,31.975-1.467,35.976L87.81,142.249A20.234,20.234,0,0,1,76.606,138.156Z" style="fill:#719b56"/><path d="M57.809,24.175C68.8,39.844,96.131,75.855,127.577,95l4.448-41.557S103.723,7.3,62.034,14.168A6.418,6.418,0,0,0,57.809,24.175Z" style="fill:#719b56"/><path d="M134.149,18.516a5.367,5.367,0,0,0-8.07,4.973c.341,5.756.217,14.793-1.428,28.5-.853,7.109-1.435,13.7-1.609,19.9,1.47,27.632,36.138,19.253,41.842-1.612C159.754,51.164,150.455,28.392,134.149,18.516Z" style="fill:#aecc76"/><path d="M170.673,100.986a205.463,205.463,0,0,0-5.789-30.7,49.693,49.693,0,0,0-16.734,9.471A14.388,14.388,0,0,1,127.9,78.248a65.82,65.82,0,0,1-4.849-6.354c-.55,19.676,3.008,35.416,15.08,51.213Z" style="fill:#719b56"/><path d="M85.1,75.856a5.253,5.253,0,0,1,4.211-8.926c8.176.684,18.892,4.667,29.233,17.783a110.532,110.532,0,0,0,15.9,16.623l19.192,37.79L87.81,136.07C93.822,127.254,102.437,91.765,85.1,75.856Z" style="fill:#aecc76"/><path d="M192.287,178.155s8.931-20.03,31.073-26.034c6.632-1.8,11.86,5.854,7.606,11.249-8.336,10.572-16.447,29.072-12.209,59.5Z" style="fill:#719b56"/><path d="M14.906,182.81a34.47,34.47,0,0,1,14.454,26.2c.436,6.911,1.851,18.654,6.406,28.269l16.9-49.107s-10.485-26.463-36.512-16.285A6.228,6.228,0,0,0,14.906,182.81Z" style="fill:#719b56"/><path d="M153.637,139.126l7.12-25.172s-10.836.258-26.307-12.624a93.925,93.925,0,0,0-2.425,28.651,57.6,57.6,0,0,1,.048,8.144Z" style="fill:#719b56"/><path d="M144.477,135.72l-12.691-11.972c-17.521-9.074-33.991-6.631-55.089,28.49C53.3,183.121,24.057,205.906,40.2,269.619c44.986,55.175,109.343,51.77,140.6,8.425,23.57-51.321,17.748-98.254-20.029-140.415A56.255,56.255,0,0,0,144.477,135.72Z" style="fill:#f7616c"/><path d="M211.057,193.273c-12.654-28.087-27.342-49.324-50.283-55.631l-16.811,1.035-6.226,9.884c5.011-.32,10-.057,13.626,3.7,11.3,11.143,28.708,36.453,27.879,80.4,0,0-25.844-.474-34.365,27.316A27.169,27.169,0,0,1,162.293,256c5.741.538,9.4,8.435,4.132,15.147C151.58,290.382,100.078,302.97,78,289.875c-3.807-9.034-12-14.219-12-14.219L47.25,265.01l-7.044,4.608c10.591,36.8,38.752,51.291,70.6,55.463h0c14.4,2.521,83.324,9.629,105.894-63.346C216.7,261.735,225.62,225.6,211.057,193.273Z" style="fill:#b73d49"/><path d="M136.593,148.6l7.884-12.885a41.856,41.856,0,0,0-12.692-11.97c-.009,6.623,1.46,15.251-.51,20.81C129.867,148.861,134.134,151.234,136.593,148.6Z" style="fill:#b73d49"/><path d="M63.876,214.392s-1.106,8.143,5.285,10.892a3.576,3.576,0,0,0,4.792-2.067c1.034-2.887,3.563-6.633,9.617-4.984,9.419,2.566,9.593,17.1,33.239,13.922,0,0-19.17-10.715-27.188-30.6C89.621,201.556,67.559,197.674,63.876,214.392Z" style="fill:#b73d49"/><path d="M194.611,57.785c.34-6.514,9.3-8.029,11.811-2.009,8.756,20.3-10.658,48.455-27.4,80.951-12.89,1.876-25.812,3.683-36.652,9.942a64,64,0,0,0-6.449,2.751,2.54,2.54,0,0,1-3.43-3.327,76.266,76.266,0,0,0,4.957-15.568A54.34,54.34,0,0,1,162.186,95.43C170.062,89.693,191.608,86.077,194.611,57.785Z" style="fill:#aecc76"/><path d="M64.76,214.825c8.166-9.869,23.778-9.02,31.02,1.562a29.97,29.97,0,0,0,21.03,15.768.554.554,0,0,0,.426-1c-16.166-10.942-10.841-31.525-16.022-48.728a12.778,12.778,0,0,0-21.893-4.33c-5.152,6-11.58,16.94-15.445,36.3A.508.508,0,0,0,64.76,214.825Z" style="fill:#aecc76"/><path d="M144.877,259.98s1.789-26.393,25.722-32.656c10.171-2.661,15.413-.394,18.079,3.093,4.686,6.128.674,15.046-6.96,16.159a46.185,46.185,0,0,1-13.937-.451,18.43,18.43,0,0,0-13.246,2.745A30.744,30.744,0,0,0,144.877,259.98Z" style="fill:#aecc76"/><path d="M42.494,243.464a59.132,59.132,0,0,1,31.865,32.861c-13.9-4.146-26.862-5.174-38.251-.947-9.716-.128-21-5.343-19.427-18.2C18.536,243.937,31.6,238.849,42.494,243.464Z" style="fill:#aecc76"/><path d="M165.467,295.43c82.769,78.469,206.966-22.984,146.195-119.863L297.714,187a636.9,636.9,0,0,1-120.473,98.774Z" style="fill:#f7616c"/><path d="M297.625,186.9,177.152,285.669C246.117,348.135,348.306,267.537,297.625,186.9Z" style="fill:#f2f2f2"/><path d="M224.653,272.533a3.462,3.462,0,0,1-3.4-2.844l-.428-2.351a3.462,3.462,0,0,1,6.813-1.238l.427,2.351A3.473,3.473,0,0,1,224.653,272.533Z" style="fill:#2b2b2b"/><path d="M252,257.651c-2.117.21-3.663-2.617-4.843-3.972a3.463,3.463,0,0,1,5.408-4.326l2.137,2.673A3.486,3.486,0,0,1,252,257.651Z" style="fill:#2b2b2b"/><path d="M247.988,269.7a3.461,3.461,0,0,1-2.961-1.664l-1.5-2.457a3.462,3.462,0,0,1,5.915-3.6l1.5,2.458A3.485,3.485,0,0,1,247.988,269.7Z" style="fill:#2b2b2b"/><path d="M237.169,279.641c-3.315-.137-3.454-3.021-3.93-5.588a3.462,3.462,0,1,1,6.8-1.308l.534,2.779A3.474,3.474,0,0,1,237.169,279.641Z" style="fill:#2b2b2b"/><path d="M225.47,292.992a3.463,3.463,0,0,1-3.463-3.462v-3.5a3.463,3.463,0,0,1,6.925,0v3.5A3.463,3.463,0,0,1,225.47,292.992Z" style="fill:#2b2b2b"/><path d="M210.5,288.617a3.463,3.463,0,0,1-3.462-3.463v-3.206a3.463,3.463,0,0,1,6.925,0v3.206A3.463,3.463,0,0,1,210.5,288.617Z" style="fill:#2b2b2b"/><path d="M240.2,298.008a3.463,3.463,0,0,1-3.408-2.877l-.481-2.806a3.462,3.462,0,0,1,6.825-1.171l.481,2.806A3.473,3.473,0,0,1,240.2,298.008Z" style="fill:#2b2b2b"/><path d="M250.427,287.4c-2.609.053-3.367-2.481-4.268-4.445a3.462,3.462,0,0,1,6.288-2.9l1.122,2.432A3.482,3.482,0,0,1,250.427,287.4Z" style="fill:#2b2b2b"/><path d="M264.8,290.366c-1.815.149-3.1-1.754-4.116-3.009a3.462,3.462,0,1,1,5.342-4.405l1.443,1.749A3.485,3.485,0,0,1,264.8,290.366Z" style="fill:#2b2b2b"/><path d="M264.477,272.88c-1.5.149-2.968-1.485-4.026-2.366a3.462,3.462,0,1,1,4.527-5.239l1.764,1.523A3.485,3.485,0,0,1,264.477,272.88Z" style="fill:#2b2b2b"/><path d="M282.349,273.761c-1.271.125-2.822-1.233-3.84-1.863a3.462,3.462,0,1,1,3.84-5.762l1.923,1.282A3.478,3.478,0,0,1,282.349,273.761Z" style="fill:#2b2b2b"/><path d="M268.242,258.774c-1.173.11-2.668-1.078-3.641-1.629a3.462,3.462,0,0,1,3.6-5.914l1.843,1.123A3.478,3.478,0,0,1,268.242,258.774Z" style="fill:#2b2b2b"/><path d="M264.635,242.944c-1.165.113-2.823-1.154-3.811-1.667a3.462,3.462,0,0,1,3.461-6l2.084,1.2A3.478,3.478,0,0,1,264.635,242.944Z" style="fill:#2b2b2b"/><path d="M289.644,260.7c-1,.094-2.793-1-3.7-1.366a3.462,3.462,0,1,1,2.918-6.28l2.244,1.043A3.472,3.472,0,0,1,289.644,260.7Z" style="fill:#2b2b2b"/><path d="M281.831,245.88c-.831.073-2.577-.773-3.367-1.019a3.462,3.462,0,0,1,2.406-6.493l2.164.8A3.471,3.471,0,0,1,281.831,245.88Z" style="fill:#2b2b2b"/><path d="M279.665,230.143c-.962.092-2.891-1-3.779-1.327a3.463,3.463,0,0,1,2.753-6.355l2.4,1.042A3.472,3.472,0,0,1,279.665,230.143Z" style="fill:#2b2b2b"/><path d="M296.678,237.728c-.824.081-3.078-.934-3.876-1.159a3.462,3.462,0,0,1,2.3-6.53l2.725.961A3.471,3.471,0,0,1,296.678,237.728Z" style="fill:#2b2b2b"/><path d="M292.773,217.015c-.774.07-2.748-.778-3.5-.981a3.463,3.463,0,0,1,2.191-6.569l2.4.8A3.471,3.471,0,0,1,292.773,217.015Z" style="fill:#2b2b2b"/><path d="M78,289.875a66.732,66.732,0,0,0-3.645-13.548,14.659,14.659,0,0,0-10.3-9.046c-15.365-3.543-27.942,8.1-27.942,8.1C68.41,275.264,78,289.875,78,289.875Z" style="fill:#719b56"/><path d="M149.488,192.476c1,7.091-2.842,13.491-8.571,14.3-13.813,1.343-17.249-23.173-3.6-25.68C143.041,180.288,148.492,185.384,149.488,192.476Z" style="fill:#ffe9e9"/><path d="M208.887,67.319a34.618,34.618,0,0,1-13.374,22.145c-14.8,11.347-20.844,26.943-23.269,36.559a13.7,13.7,0,0,1-10.083,9.9,44.6,44.6,0,0,0-19.794,10.744v0c30.552-11.046,47.968,11.284,47.968,11.284s-11.2-21.082,10.757-62.3C207.158,84.26,209.161,74.9,208.887,67.319Z" style="fill:#719b56"/><path d="M66.429,218.348C73.339,207.8,89.57,209.8,94.753,221.2c8.1,13.6,24.374,14.875,25.063,14.922,3.887.3,5.119-5.368,1.42-6.707-16.682-7.842-11.534-31.567-16.722-48.032a15.948,15.948,0,0,0-12.167-10.913c-17.277-3.612-27.378,20.969-32.294,45.477C59.343,219.644,64.5,221.592,66.429,218.348Zm24.538-41.1a9.107,9.107,0,0,1,6.95,6.231c1.455,4.563,2.384,11.035,3.106,21.639a44.435,44.435,0,0,0,4.959,18.465,21.345,21.345,0,0,1-5.28-5.936c-5.686-11.4-20.11-16.782-31.528-10.714C73.347,192.508,80.9,174.724,90.967,177.252Z" style="fill:#2b2b2b"/><path d="M144.877,263.442a3.461,3.461,0,0,0,3.039-1.805c11.135-18.961,18.516-9.488,34.3-11.634,19.935-4.356,14.394-33.964-12.5-26.028-26.04,6.814-28.28,35.482-28.3,35.771A3.477,3.477,0,0,0,144.877,263.442Zm26.6-32.769c5.064-1.322,11.411-2.083,14.453,1.847a6.256,6.256,0,0,1,.789,6.3c-2.878,6.562-11.522,4.585-18.382,3.886a21.825,21.825,0,0,0-15.665,3.244A29.136,29.136,0,0,1,171.475,230.673Z" style="fill:#2b2b2b"/><path d="M13.251,256.7c-2.282,15.422,12.691,23.2,26.46,22.2,16.932,48.985,93.877,67.244,144.035,34.8,89.969,50.363,187.262-53.668,130.8-140.052a3.483,3.483,0,0,0-5.077-.759l-13.239,10.855c-1.058.339-72.716,59.62-73.632,60.189A131.189,131.189,0,0,0,222.2,222.8c-4.3-26.546,3.777-48.7,11.484-57.284a10.357,10.357,0,0,0,.5-12.3c-8.49-12.929-30.464,4.377-35.553,10.01-1.752-2.548-3.529-4.916-5.345-7.13-1.059-2.448-8.531-22.407,10.86-58.818,8.685-16.31,10.526-30.721,5.471-42.835a9.61,9.61,0,0,0-18.466,3.163c-.914,17.489-14.437,26.21-19.13,28.722C168,64.177,158.264,29.074,135.943,15.555a8.709,8.709,0,0,0-9.033.009,8.86,8.86,0,0,0-4.287,8.13,114.08,114.08,0,0,1-.032,12.282C109.938,22.587,88.456,6.3,61.471,10.752c-6.989.928-10.727,9.759-6.5,15.41A356.876,356.876,0,0,0,85.639,64.046C80,66.079,78.2,74.079,82.633,78.281c6.181,6.3,9.315,14.6,9.315,24.69-.749,22.382-5.556,29.234-9.639,34.506-4.556-1.923-9.695-6.35-11.685-16.416a9.345,9.345,0,0,0-7.658-7.436C48.427,111.76,46.888,136.574,52.075,151.2a63.241,63.241,0,0,1,3.83,21.337c-1.6,1.979-3.2,4.05-4.784,6.228-5.62-7.424-17.284-17.5-36.228-10.1a9.637,9.637,0,0,0-6.069,7.85c-.94,7.144,5.253,9.206,9.226,13.659a31.322,31.322,0,0,1,7.855,19.056c.5,7.874,2.024,19.183,6.419,28.838,0,.11.007.219.009.329A20.9,20.9,0,0,0,13.251,256.7Zm297.584-75.978c52.889,91.2-61.229,184.659-140.15,114.907l6.5-5.329c70.17,60.046,173.119-18.738,125.154-102.613Zm-13.964,11.269c42.3,73.7-47.8,148.358-114.347,93.751Zm-72.6-36.529a3.685,3.685,0,0,1,3.981,5.765c-5.392,6.837-11.056,17.333-13.205,32.532a207.732,207.732,0,0,0-12.528-24.529A45.087,45.087,0,0,1,224.266,155.462Zm-26.2-97.493a2.678,2.678,0,0,1,5.161-.857c11.143,27.313-23.566,52.017-18.892,91.027-12.172-8.865-31.317-10.817-47.74-2.861a83.332,83.332,0,0,0,4.234-14.03C151.673,84.85,192.22,104.217,198.068,57.969ZM128.088,52.4c1.41-11.746,1.9-21.544,1.447-29.12a1.917,1.917,0,0,1,.952-1.79,1.736,1.736,0,0,1,1.869-.016c21.336,12.922,30.182,50.635,33.2,68.064a59.768,59.768,0,0,0-19.695,15.66A81.013,81.013,0,0,1,127.4,89.784C125.991,79.7,126.1,68.784,128.088,52.4ZM60.644,22.187a2.926,2.926,0,0,1,1.953-4.6c27.218-4.481,48.623,15.3,59.265,27.978-1.405,11.973-2.8,26.068-2.242,35-8.353-9.822-16.91-14.219-23.93-16.04A342.8,342.8,0,0,1,60.644,22.187ZM87.574,73.43a1.779,1.779,0,0,1,1.452-3.05c9.813.821,18.831,6.365,26.8,16.476,8.387,10.637,17.112,18.684,25.973,23.98a58.651,58.651,0,0,0-5.642,11.64c-11.981-7.927-25.161-9.98-39.55.227C101.115,104.825,99.315,84.492,87.574,73.43Zm-28.365,48.2a2.506,2.506,0,0,1,4.621.776c2.446,12.362,9.046,18.132,14.432,20.819a124.794,124.794,0,0,1-15.875,21.609,77.906,77.906,0,0,0-3.764-15.885C54.861,138.02,56.071,126.933,59.209,121.629ZM79.68,154c20.795-34.786,37.323-36.793,54.427-24.4-3.274,15.7-9.06,22.329-9,22.161-2.856,2.889.952,7.573,4.359,5.328,49.325-29.329,65.71,11.652,78.433,37.6,7.809,16.254,9.219,40.363,7.214,55.372l-40.158,32.926a3.393,3.393,0,0,0-.622.69l-11.063,9.07a3.485,3.485,0,0,0-.248,5.132,99.592,99.592,0,0,0,14.222,11.753C127.112,338.321,61.7,317.66,47.47,279.509c20.739,2.629,27.572,12.179,27.633,12.266a3.462,3.462,0,0,0,6.312-2.454c-4.967-30.634-25.653-43.87-37.542-49.033h0a24.285,24.285,0,0,0-4.6-1.467C38.171,194.587,62.437,178.754,79.68,154Zm-56.5,31.527a37.522,37.522,0,0,0-6.292-5.554,2.749,2.749,0,0,1-1.188-2.637,2.668,2.668,0,0,1,1.716-2.218c15.894-6.214,25.163,3.01,29.545,9.76a91.05,91.05,0,0,0-13.145,33.116C32.364,204.923,32.206,195.457,23.18,185.525Zm2.843,62.231C39.57,238.2,65.5,258.828,72.117,280.31c-6.693-4.153-18.562-8.51-36.022-8.395-8.3.185-17.69-5.219-15.984-14.268A13.469,13.469,0,0,1,26.023,247.756Z" style="fill:#2b2b2b"/></svg>