<svg id="icons" xmlns="http://www.w3.org/2000/svg" viewBox="0 0 340 340"><title>75_walnut</title><path d="M172.333,125.547c5.214-19.309-1.323-30.428-7.134-36.13a30.191,30.191,0,0,1-8.272-14.825c-5.228-22.861-24.174-28.52-24.174-28.52C129.219,33.9,122.127,28.353,117.3,25.905a18.358,18.358,0,0,1-7.617-7.035c-6.621-11.333-20.753-11.333-27.374,0A18.358,18.358,0,0,1,74.7,25.905C69.873,28.353,62.781,33.9,59.247,46.072c0,0-18.93,5.655-24.167,28.491a30.252,30.252,0,0,1-8.275,14.85c-5.812,5.7-12.352,16.821-7.138,36.134,0,0-16.9,16.142-7.981,39.387a36.649,36.649,0,0,1,2.249,16.981c-6.262,43.758,67.618,59.153,113.085,48.508,48.178-10.017,52.448-35.168,51.045-48.508a36.65,36.65,0,0,1,2.25-16.981C189.233,141.689,172.333,125.547,172.333,125.547Z" style="fill:#c96c5d"/><path d="M52.461,49.393C61.1,75.239,46.81,72.74,48.1,96.249a31.065,31.065,0,0,1-4.792,18.26c-2.942,4.752-6.154,12.8-4.754,24.175a3.462,3.462,0,1,0,6.873-.847c-.927-7.524.341-14.147,3.768-19.684A37.935,37.935,0,0,0,55.007,95.83a34.771,34.771,0,0,1,4.18-18.948c5.286-9.582,2.9-22.659.06-30.81A30.222,30.222,0,0,0,52.461,49.393Z" style="fill:#843734"/><path d="M147.436,144.444c6.1.078,11.255-5.726,9.776-11.8-.97-4.788-3.57-9.249-4.587-14.22a3.463,3.463,0,0,0-6.736,1.612,57.245,57.245,0,0,0,2.919,8.945c.983,2.673,3.166,7.013-.034,8.242a2.89,2.89,0,0,1-3.615-.958c-11.474-16.387-6.067-35.8-5.926-36.463,2.871-14.05,2.049-34.94.845-50.06a27.631,27.631,0,0,0-7.325-3.666c1.322,14.817,2.644,37.766-.281,52.228-.574,2.122-5.963,23.752,7.051,41.983A9.661,9.661,0,0,0,147.436,144.444Z" style="fill:#843734"/><path d="M39.478,158.3c-3.2-3.352,1.71-8.189,5.017-4.947C47.691,156.705,42.785,161.542,39.478,158.3Z" style="fill:#843734"/><path d="M161.156,151.058c-5.4,3.042-9.267,12.559-11.936,22.543A56.414,56.414,0,0,1,101.661,214.9c-28.395,2.844-68.461-.585-87.639-39.64l0,.006c-.748,19.729-1.813,43.02,50.96,55.163,45.474,10.651,119.377-4.782,113.084-48.511a36.659,36.659,0,0,1,2.251-16.98c8.918-23.245-7.982-39.387-7.982-39.387S173.945,143.85,161.156,151.058Z" style="fill:#843734"/><path d="M53.143,208.638a36.122,36.122,0,0,0-4.659-19.453c-3.63-6.322-3.357-14.384-3.354-14.464a3.463,3.463,0,0,0-6.919-.294c-.017.408-.383,10.106,4.268,18.206a29.2,29.2,0,0,1,3.745,15.733,57.887,57.887,0,0,0,.386,8.992,59.036,59.036,0,0,0,7.495,2.8A48.621,48.621,0,0,1,53.143,208.638Z" style="fill:#843734"/><path d="M77.709,201.041a24.5,24.5,0,0,0-3.947-18.026c-5.43-7.714-4.283-15.706-2.364-21.052a24.159,24.159,0,0,0-.046-16.48,23.16,23.16,0,0,1,3.067-21.636c2.8-3.549-2.436-7.851-5.374-4.366a30.142,30.142,0,0,0-4.191,28.4,17.218,17.218,0,0,1,.026,11.747c-2.473,6.89-3.921,17.232,3.219,27.376a17.532,17.532,0,0,1,2.78,12.9,60.008,60.008,0,0,0,1.445,23.56q3.463.29,7.327.389A54.243,54.243,0,0,1,77.709,201.041Z" style="fill:#843734"/><path d="M116.082,220.341a84.052,84.052,0,0,0,.313-20.381,34.558,34.558,0,0,1,.833-14.3,47.65,47.65,0,0,0,1.111-19.562c-2.171-16.851,8.657-20.862.989-40.846a32.036,32.036,0,0,1-1.772-18.271c1.823-8.425-.392-17.355-2.573-23.364a31.6,31.6,0,0,1-1.834-14.048c1.955-18.109-9.569-31.281-10.06-31.833-3.066-3.31-8.152,1.113-5.17,4.606.1.112,9.975,11.4,8.346,26.484a38.541,38.541,0,0,0,2.209,17.153c1.87,5.153,3.788,12.725,2.314,19.537a38.9,38.9,0,0,0,2.081,22.229c2.714,7.034,3.031,13.437.94,19.031a42.02,42.02,0,0,0-2.332,20.246,40.819,40.819,0,0,1-.905,16.728,41.409,41.409,0,0,0-1.036,17.156,79.474,79.474,0,0,1-.624,20.842Q112.616,221.116,116.082,220.341Z" style="fill:#843734"/><path d="M140.674,168.309a3.463,3.463,0,0,0-2.951,3.9c.016.115,1.525,11.541-3.045,19.726-4.641,7.877-1.861,14.833-3.373,24.116,2.568-.884,4.985-1.8,7.255-2.732.871-7.238-1.221-12.018,2.163-18.009,5.723-10.248,3.937-23.5,3.857-24.062A3.468,3.468,0,0,0,140.674,168.309Z" style="fill:#843734"/><path d="M326.385,209.842a112.858,112.858,0,0,1-2.322-12.42c-2.706-21.114-10.965-32.7-16.334-38.181a84.347,84.347,0,0,1-9.106-11.093c-21.021-30.407-55.542-26.291-55.542-26.291s-34.521-4.116-55.542,26.291c-11.644,16.144-20.9,18.689-25.44,49.274-3.1,20.272-11.791,43.513-3.164,69.706a64.917,64.917,0,0,1,3.237,11.511,60.134,60.134,0,0,0,31.058,42.945,68.168,68.168,0,0,0,32.538,8.034h34.626c35.312.515,60.224-26.152,63.595-50.98a64.937,64.937,0,0,1,3.239-11.51C334.292,248.2,329.315,221.84,326.385,209.842Z" style="fill:#c96c5d"/><path d="M226.787,299.75c8.88,7.98,24.764,7.076,33.3,0V205.1H226.076Z" style="fill:#843734"/><path d="M243.081,148.863c-11.09,0-17,8.7-17,8.7l1.185,47.586c5.563,16.637,28.513,16.409,31.694-2.17l1.132-45.416S254.172,148.863,243.081,148.863Z" style="fill:#ffdb94"/><path d="M241.645,210.338a20.847,20.847,0,0,1-14.384-5.192l.293,11.756c5.176,11.51,15.527,10.742,15.527,10.742s10.352.768,15.527-10.742l.38-15.214C254.987,206.239,249.272,210.338,241.645,210.338Z" style="fill:#eaa75e"/><path d="M182.021,189.611a274.258,274.258,0,0,0-4.874,47.412c-.234,25.138.588,55.643,37.765,67.311l-2.693-105.691Z" style="fill:#843734"/><path d="M214.968,150.507a12.645,12.645,0,0,1,16.171,12.12v124.69c-1.54,6.171-4.706,10.653-11.2,11.682-9.872-.779-13.716-8.136-14.289-17.8-.354-5.969-5.527-14.336-5.456-21.433.09-8.94-3.488-18.847-2.618-28.426.715-7.88,4.7-14.508,5.9-22.1,0,0-11.983-10.409-11.983-19.629,0-15.762,8.236-18.391,17.017-23.108C208.678,158.215,210.58,152.512,214.968,150.507Z" style="fill:#ffdb94"/><path d="M304.142,189.611a274.2,274.2,0,0,1,4.873,47.412c.234,25.138-1.593,55.643-38.771,67.311l3.7-105.691Z" style="fill:#843734"/><path d="M223.627,294.1c-10.65,3.933-15.893-4.424-14.677-12.288.708-6.693-.124-11.683-3.208-16.889-6.912-10.207,4.545-20.207,8.3-8.456.817,2.561-.142,5.241-1.518,7.662a3.463,3.463,0,1,0,5.928,3.583c4.273-6.975,2.98-16.129-1.585-22.466a11.147,11.147,0,0,0-7.356-3.942,7.8,7.8,0,0,1-7.181-7c-.688-7.25,5.369-7.551,6.71-15.031,2.252,2.6,2.386,7.965,6.609,6.944a3.12,3.12,0,0,0,1.965-4.049,42.881,42.881,0,0,0-3.856-7.66,6.213,6.213,0,0,1,1.239-8.136c3.2-2.658,4.879-6.817,5.734-9.954a3.342,3.342,0,0,0-2.306-4.156,3.265,3.265,0,0,0-3.968,2.387c-2.767,10.99-12.981,7.169-12.981,7.169-3.745-2.072-7.035-6.33-6.355-15,.83-14.643,12.052-19.683,19.34-13.425a8.778,8.778,0,0,1,1.75,2.367,1.282,1.282,0,0,0,2.419-.4,16.689,16.689,0,0,0-3.713-13.165c-3.834-4.676-2.161-8.888.056-11.693-6.11,2.193-9.289,7.528-8.767,15.219-11.787-2.562-17.759,7.416-17.759,7.416s-8.493,11.258-6.192,23.842c1.418,7.762,6.646,10.273,10.444,11.058a7.929,7.929,0,0,1,6.479,7.82c-.112,3.675-2.754,6.6-10.335,6.688,0,0-15.881.223-12.565,15.942,2.424,11.492,20.937,11.141,20.937,11.141-6.737,8.338-3.737,15.4-.493,19.556a16.143,16.143,0,0,1,3.533,10.128c-.166,11.241,4.466,18.31,10.191,22.753a12.818,12.818,0,0,0,20.7-10.1v-4.655A14.5,14.5,0,0,1,223.627,294.1Z" style="fill:#eaa75e"/><path d="M271.2,150.507a12.645,12.645,0,0,0-16.171,12.12v124.69c1.54,6.171,4.7,10.653,11.195,11.682,9.872-.779,13.716-8.136,14.289-17.8.354-5.969,5.527-14.336,5.455-21.433-.089-8.94,3.489-18.847,2.619-28.426-.716-7.88-4.7-14.508-5.9-22.1,0,0,11.983-10.409,11.982-19.629,0-15.762-8.236-18.391-17.016-23.108C277.484,158.215,275.582,152.512,271.2,150.507Z" style="fill:#ffdb94"/><path d="M262.535,294.1c10.651,3.933,15.894-4.424,14.678-12.288-.708-6.693.123-11.683,3.207-16.889,6.912-10.207-4.544-20.207-8.3-8.456-.818,2.561.142,5.241,1.518,7.662a3.463,3.463,0,1,1-5.928,3.583c-4.273-6.975-2.98-16.129,1.584-22.466a11.15,11.15,0,0,1,7.357-3.942,7.8,7.8,0,0,0,7.18-7c.688-7.25-5.368-7.551-6.709-15.031-2.252,2.6-2.387,7.965-6.61,6.944a3.121,3.121,0,0,1-1.965-4.049,42.949,42.949,0,0,1,3.857-7.66,6.215,6.215,0,0,0-1.24-8.136c-3.2-2.658-4.879-6.817-5.733-9.954a3.342,3.342,0,0,1,2.306-4.156,3.266,3.266,0,0,1,3.968,2.387c2.767,10.99,12.981,7.169,12.981,7.169,3.744-2.072,7.034-6.33,6.354-15-.83-14.643-12.051-19.683-19.34-13.425a8.755,8.755,0,0,0-1.749,2.367,1.283,1.283,0,0,1-2.42-.4A16.687,16.687,0,0,1,271.25,162.2c3.833-4.676,2.161-8.888-.056-11.693,6.11,2.193,9.289,7.528,8.767,15.219,11.786-2.562,17.759,7.416,17.759,7.416s8.493,11.258,6.192,23.842c-1.419,7.762-6.646,10.273-10.445,11.058a7.927,7.927,0,0,0-6.478,7.82c.112,3.675,2.754,6.6,10.335,6.688,0,0,15.88.223,12.565,15.942-2.424,11.492-20.938,11.141-20.938,11.141,6.737,8.338,3.738,15.4.494,19.556a16.15,16.15,0,0,0-3.534,10.128c.167,11.241-4.466,18.31-10.19,22.753a12.818,12.818,0,0,1-20.7-10.1v-4.655A14.5,14.5,0,0,0,262.535,294.1Z" style="fill:#eaa75e"/><path d="M330.471,268.338c8.888-25.92.434-50.29-2.973-71.357-4.3-30.294-13.893-34.542-26.027-50.8-20.957-30.314-54.119-28.209-58.39-27.8-4.2-.4-36.307-2.412-57.3,26.309a42.734,42.734,0,0,0-9.624-20.113c4.675-19.517-1.987-31.206-8.531-37.626A26.668,26.668,0,0,1,160.3,73.82c-4.7-20.538-19.531-28.278-24.748-30.406-3.959-11.988-11.191-17.808-16.682-20.6a14.91,14.91,0,0,1-6.2-5.695c-3.736-6.4-9.97-10.214-16.675-10.214S83.061,10.726,79.323,17.123a14.9,14.9,0,0,1-6.194,5.7c-5.492,2.788-12.723,8.608-16.682,20.6-5.215,2.127-20.036,9.859-24.741,30.375a26.729,26.729,0,0,1-7.325,13.152c-6.545,6.42-13.21,18.108-8.537,37.626C11.647,129.373.327,145,8.454,166.173a33.4,33.4,0,0,1,2.038,15.38c-3.534,61.263,101.222,64.626,142.723,44-1.9,13.4-2.433,29.631,2.476,42.785a61.236,61.236,0,0,1,3.071,10.9,63.257,63.257,0,0,0,32.817,45.391,71.806,71.806,0,0,0,34.189,8.454H260.4c36.77.653,63.624-27.6,67.005-53.846A61.371,61.371,0,0,1,330.471,268.338ZM154.665,216.984C115.54,240.906,11.938,233.315,17.378,182.276a40.324,40.324,0,0,0-2.46-18.583c-7.95-20.721,6.528-35.05,7.14-35.643a3.465,3.465,0,0,0,.951-3.406c-4.7-17.419.787-27.429,6.221-32.759a33.655,33.655,0,0,0,9.225-16.549c4.7-20.472,21.1-25.736,21.784-25.946a3.461,3.461,0,0,0,2.333-2.352c3.123-10.755,9.169-15.75,13.692-18.045A21.8,21.8,0,0,0,85.3,20.616c4.937-8.959,16.459-8.973,21.4,0a21.8,21.8,0,0,0,9.04,8.377c4.522,2.3,10.568,7.29,13.69,18.045a3.49,3.49,0,0,0,2.322,2.348c.7.214,17.115,5.483,21.8,25.977a33.575,33.575,0,0,0,9.223,16.524c5.432,5.33,10.92,15.34,6.217,32.757a3.482,3.482,0,0,0,.943,3.4c.084-.11,10.281,10.535,9.508,24.939C160,172.51,161.537,185.682,154.665,216.984Zm165.914,61.059c-3.069,23.572-27.143,48.71-60.185,48.112H225.768a64.869,64.869,0,0,1-30.886-7.616,56.446,56.446,0,0,1-29.3-40.5,68.144,68.144,0,0,0-3.4-12.126c-8.347-26.238.582-48.426,3.355-68.054,4.781-30.6,13.338-31.406,24.853-47.746,17.934-24.291,39.165-25.281,52.284-24.823,2.8-.167,32.59-3.792,53.105,24.822,11.522,16.321,20.073,17.159,24.854,47.745,2.818,19.583,11.687,41.863,3.353,68.056A68.278,68.278,0,0,0,320.579,278.043Z" style="fill:#2b2b2b"/><path d="M312.179,227.258c-2.836-31.433-3.368-64.214-28.792-65.4-.9-13.046-15.577-20.081-25.816-11.759-7.919-6.2-21.109-6.154-28.976,0-10.244-8.33-24.923-1.287-25.82,11.756-25.431,1.183-25.966,33.989-28.8,65.535-2.006,3.665-2.18,9.619-.308,14.3-.205,27.693,5.49,55.238,40.208,65.945a16.325,16.325,0,0,0,14.264-2.69c8.224,5.307,21.7,5.086,30.031.157a15.968,15.968,0,0,0,18.956.235c30.595-11.538,35.37-39.427,35.348-63.6,1.9-4.695,1.724-10.69-.3-14.373C312.173,227.332,312.181,227.3,312.179,227.258Zm-129.33-20.953a16.631,16.631,0,0,0,9.127,5.127,4.51,4.51,0,0,1,3.737,4.329c-.213,4.649-7.816,2.046-14.372,5.017C181.754,215.479,182.3,210.57,182.849,206.305Zm-2.122,43a31.509,31.509,0,0,0,10.567,3.351c-2.856,6.433-1.825,13.191,3.1,19.172a11.389,11.389,0,0,1,2.4,7.438,34.543,34.543,0,0,0,2.276,13.38C184.616,281.754,181.358,265.417,180.727,249.3Zm46.949,42.668a9.158,9.158,0,0,1-5.228,8.387c-11.185,4.864-19.431-10.72-18.734-20.991a18.309,18.309,0,0,0-3.975-11.942c-3.942-4.789-4.158-9.554-.65-14.53a15.935,15.935,0,0,0,8.069-3.766,3.09,3.09,0,0,1,2.36-.832,2.355,2.355,0,0,1,1.72.989c2.975,4.165,4.1,10.282,1.222,14.948-2.22,3.907,3.619,7.418,5.988,3.48,4.273-6.973,2.979-16.13-1.585-22.466-3.217-4.715-10.376-5.115-14.418-1.191a9.787,9.787,0,0,1-5.367,2.118c-1.141,0-15.7-.273-17.416-8.394-.758-3.59-.38-6.373,1.123-8.273,2.633-3.325,8.065-3.492,8.095-3.493,18.965-.133,16.406-18.82,4.5-21.363-4.285-.89-6.885-3.678-7.727-8.287-1.99-10.884,5.479-21.04,5.55-21.136.373-.539,4.845-7.986,14.143-6.135.946.335,7.092,2.819,8.717,11.235.956,4.487,7.59,3.138,6.8-1.312a21.541,21.541,0,0,0-11.247-15.575c.1-12.721,17.073-13.591,18.058-.816Zm25.539-136.464a16.047,16.047,0,0,0-1.654,7.119v55.611a13.015,13.015,0,0,1-16.96,0V162.627a16.05,16.05,0,0,0-1.654-7.119C238.216,151.375,247.928,151.357,253.215,155.508ZM232.733,299.577a16.276,16.276,0,0,0,1.868-7.605V226.384c6.561,2.647,10.793,2.487,16.96,0v65.6a16.307,16.307,0,0,0,1.93,7.714C248.1,302.661,237.943,302.745,232.733,299.577ZM303.314,206.3c.554,4.266,1.095,9.176,1.508,14.474-6.538-2.967-14.168-.369-14.372-5.017a4.51,4.51,0,0,1,3.735-4.329A16.622,16.622,0,0,0,303.314,206.3ZM287.369,291.8a34.813,34.813,0,0,0,2-12.532,11.389,11.389,0,0,1,2.395-7.439c4.925-5.98,5.958-12.739,3.1-19.172a31.6,31.6,0,0,0,10.491-3.311C304.536,265.628,300.82,281.172,287.369,291.8ZM306.5,237.782c-1.869,8.426-17.013,8.378-17.849,8.4a9.857,9.857,0,0,1-5.4-2.119c-4.042-3.929-11.2-3.523-14.418,1.19-4.567,6.339-5.858,15.488-1.586,22.465,2.366,3.916,8.2.463,5.987-3.478-2.881-4.668-1.754-10.78,1.224-14.949a2.354,2.354,0,0,1,1.72-.989,3.078,3.078,0,0,1,2.36.833,16.149,16.149,0,0,0,8.594,3.846c3.449,4.948,3.217,9.686-.7,14.45a18.313,18.313,0,0,0-3.974,11.941c.83,10.054-7.839,26.133-18.724,21.065a9.42,9.42,0,0,1-5.239-8.443V162.627c.933-12.662,17.782-11.93,18.044.586a21.5,21.5,0,0,0-11.7,15.805c-.787,4.468,5.845,5.782,6.8,1.312,1.529-7.926,7.107-10.6,8.539-11.165,9.13-2.294,14.609,5.451,14.792,6.066.076.1,7.555,10.172,5.55,21.134-.842,4.61-3.442,7.4-7.728,8.288-11.893,2.536-14.467,21.228,4.5,21.363C301.98,226.181,308.714,228.974,306.5,237.782Z" style="fill:#2b2b2b"/></svg>