<svg id="icons" xmlns="http://www.w3.org/2000/svg" viewBox="0 0 340 340"><title>77_almond</title><path d="M62.666,154.751s27.171-17.043,64.473-21.666c3.959,1.566,12.294.689,22.242-1.088a131.665,131.665,0,0,1,24.469,2.973c2.623,2.458,6.674,3.58,12.2,3.326q2.325.762,4.657,1.628a13.779,13.779,0,0,1,8.637,15.5,135.778,135.778,0,0,1-5.731,20.958c-13.616,29.381-41.632,53.38-78.426,63.635Z" style="fill:#c96c5d"/><path d="M64.484,157.7l50.7,82.311a134.742,134.742,0,0,0,26.736-10.605c-20.453-48.42-70.7-77.376-68.97-75.815C72.5,153.831,64.484,157.7,64.484,157.7Z" style="fill:#843734"/><path d="M193.612,176.379a102.034,102.034,0,0,1-7.481,9.707c-7.886,8.174-16.043,16.686-39.532,30.319-4.282,2.745-12.908,7.882-19.117,11.006-5,2.515-9,5.953-14.751,8.615l9.385,15.237C165.235,233.285,184.78,200.852,193.612,176.379Z" style="fill:#843734"/><path d="M122.117,56.516s32.508,58.3,119.43,65.437,87.83-65.437,87.83-65.437Z" style="fill:#c17e61"/><path d="M122.117,56.516s11.559,4.128,30.126,13.013a11.823,11.823,0,0,1,6.989,3.409c35.287,19.1,102.716,45.438,158.723,4.365A30.648,30.648,0,0,0,325,37.241c-6.235-9.994-18.074-19.792-40.443-23.228-2.227,1.614-5.088.771-8.169-.926-16.321-1.629-42.261,2.015-59.843,5.5-1.481,1.814-3.958,2.287-7.373,1.5C144.159,33.936,122.117,56.516,122.117,56.516Z" style="fill:#f4c8a6"/><path d="M9.373,232.617S27.357,291.374,120.286,258.6a14.1,14.1,0,0,0,9.431-13.841,106.846,106.846,0,0,0-2.235-17.346Z" style="fill:#c17e61"/><path d="M72.168,149.758c8.46,8.068,24.413,24.284,37.574,43.435a7.472,7.472,0,0,0,3.826,5.784,127.685,127.685,0,0,1,13.914,28.434S64.628,272.627,15.311,238.55C1.761,228.9,3.847,213.275,9.566,198.5c2.011-1.788,3.174-4.9,4.021-8.5,7.454-13.5,21.026-28.5,45.381-41.919A11.253,11.253,0,0,1,72.168,149.758Z" style="fill:#f4c8a6"/><path d="M148,294.45a10.8,10.8,0,0,1-2.7-16.006,154.455,154.455,0,0,1,17.086-17.921c5.966-2.677,10.36-5.686,11.6-9.359a131.972,131.972,0,0,1,21.183-12.585c5.928-.788,10.062-2.533,12.638-5.108,28.283-10.875,71.845-5.953,93.585,7.477.775,2.347,3.6,3.816,7.686,4.739a92.815,92.815,0,0,1,8.678,6.717c.436,2.572,2.31,4.579,6.087,5.841a83.6,83.6,0,0,1,6.7,7.989L323.517,281.3c-52.473,45.049-106.872,44.724-162.269,20.851C156.091,299.33,151.606,296.676,148,294.45Z" style="fill:#c96c5d"/><path d="M16.218,206.073c3.711,2.615,7.715-2.85,4.076-5.6A18.564,18.564,0,0,1,13.593,190a73.727,73.727,0,0,0-4.023,8.5A23.362,23.362,0,0,0,16.218,206.073Z" style="fill:#c17e61"/><path d="M104.6,204.793a3.45,3.45,0,0,0,2.061-.683l6.905-5.129q-1.863-2.931-3.825-5.784l-7.209,5.354A3.479,3.479,0,0,0,104.6,204.793Z" style="fill:#c17e61"/><path d="M127.14,133.089c-10.322,4.353-20.8,9.51-28.231,14.97a3.462,3.462,0,0,0,4.1,5.58c11.717-8.608,32.247-16.68,46.372-21.637A146.852,146.852,0,0,0,127.14,133.089Z" style="fill:#843734"/><path d="M173.848,134.979a205.485,205.485,0,0,0-44.75,23.536c-3.646,2.73.33,8.215,4.054,5.614.267-.193,25.177-18.009,52.9-25.823A125.8,125.8,0,0,0,173.848,134.979Z" style="fill:#843734"/><path d="M126.524,213.36a3.478,3.478,0,0,1-1.81-6.416c8.383-5.13,29.36-18.694,43.05-33.807a1.9,1.9,0,0,0-1.807-3.143c-5.949,1.368-11.691,5.087-17.066,11.054a3.462,3.462,0,0,1-5.145-4.635c6.346-7.044,13.3-11.474,20.66-13.167,8.231-2.052,14.308,8.369,8.49,14.539-13.779,15.212-33.838,28.5-44.569,35.065A3.442,3.442,0,0,1,126.524,213.36Z" style="fill:#843734"/><path d="M232.144,243.834a3.463,3.463,0,0,0-2.634-4.128c-6.7-1.365-14.28-4.043-21.7-6.219a120.025,120.025,0,0,0-12.638,5.1c7.115.114,12.454,2.007,16.771,3.408,5.773,1.886,11.18,3.39,16.07,4.47A3.469,3.469,0,0,0,232.144,243.834Z" style="fill:#843734"/><path d="M278.513,252.347a3.463,3.463,0,0,0-.364-4.851c-.394-.343-9.833-8.36-26.951-5.08a19.8,19.8,0,0,1-2.366.3,3.462,3.462,0,0,0,.486,6.907,26.831,26.831,0,0,0,3.186-.406c8.073-1.547,13.885-.117,17.341,1.357-11.5,6.583-40.777,3.568-69.911.592a120.91,120.91,0,0,0-25.942,0,147.285,147.285,0,0,0-11.6,9.357c12.422-3.7,26.162-3.559,36.847-2.473C236.551,261.884,267.97,265.118,278.513,252.347Z" style="fill:#843734"/><path d="M291.682,254.572a3.45,3.45,0,0,0,2.284-.86c2.62-2.3,8.961-6.762,15.107-8.017-2.376-1.626-4.936-3.214-7.686-4.737a50.559,50.559,0,0,0-12,7.556A3.484,3.484,0,0,0,291.682,254.572Z" style="fill:#843734"/><path d="M317.752,252.409c-7,2-14.268,6.573-21.4,13.622a56.684,56.684,0,0,1-43.181,16.23,93.261,93.261,0,0,1-30.593-6.8,48.376,48.376,0,0,0-36.714-.729c-6.421,2.837-10.342,4.16-8.144,8.444a3.467,3.467,0,0,0,4.809.9,32.9,32.9,0,0,1,5.872-2.9,41.48,41.48,0,0,1,31.484.666c6.639,3.036,22.434,7.456,36.664,7.448,41.248-.935,43.072-27.388,67.289-31.038C322.044,256.354,320.019,254.39,317.752,252.409Z" style="fill:#843734"/><path d="M333.43,281.508c2.915-5.3.8-10.884-2.89-15.272a33.978,33.978,0,0,0-15.985,11.1c-38.263,44.488-130.143,31.652-153.3,24.807,52.024,29.732,109.113,36.985,150.906-2.209a49.46,49.46,0,0,1,9.823-7.333C328.206,289.147,331.59,284.987,333.43,281.508Z" style="fill:#843734"/><path d="M181.614,52.741a3.463,3.463,0,0,1-3.051-1.822l-1.614-3a3.462,3.462,0,1,1,6.1-3.282l1.614,3A3.484,3.484,0,0,1,181.614,52.741Z" style="fill:#c17e61"/><path d="M162.726,62.744a3.462,3.462,0,0,0-4.785,1.036,17.6,17.6,0,0,1-5.7,5.75q3.346,1.6,6.988,3.409C162.225,69.781,166.745,65.889,162.726,62.744Z" style="fill:#c17e61"/><path d="M213.621,26.561c2.654,3.714,8.218-.136,5.708-3.92l-2.781-4.048q-3.775.727-7.373,1.5Z" style="fill:#c17e61"/><path d="M279.593,22.7a3.462,3.462,0,0,0,6.922.168,22.261,22.261,0,0,0-1.958-8.849q-3.869-.6-8.167-.925C277.982,15.914,279.666,19.691,279.593,22.7Z" style="fill:#c17e61"/><path d="M281.175,52.741a3.47,3.47,0,0,1-1.089-6.75l4.521-1.5a3.463,3.463,0,0,1,2.179,6.573C285.979,51.273,281.954,52.833,281.175,52.741Z" style="fill:#c17e61"/><path d="M227.5,78.339c-22.7-.262-31.974-7.816-32.311-8.126a3.462,3.462,0,0,1,4.45-5.3c.19.15,8.092,6.251,27.905,6.506A3.463,3.463,0,0,1,227.5,78.339Z" style="fill:#c17e61"/><path d="M48.424,188.983c3.389,3.157-1.22,8.277-4.715,5.237C40.32,191.063,44.93,185.943,48.424,188.983Z" style="fill:#c17e61"/><path d="M75.31,172.137c3.39,3.157-1.22,8.277-4.714,5.237C67.207,174.217,71.816,169.1,75.31,172.137Z" style="fill:#c17e61"/><path d="M83.546,203.141c3.389,3.157-1.221,8.277-4.715,5.237C75.442,205.221,80.052,200.1,83.546,203.141Z" style="fill:#c17e61"/><path d="M54.722,230.516c3.389,3.156-1.221,8.277-4.715,5.237C46.618,232.6,51.228,227.476,54.722,230.516Z" style="fill:#c17e61"/><path d="M117.544,169.744c3.389,3.157-1.22,8.277-4.714,5.238C109.44,171.825,114.05,166.705,117.544,169.744Z" style="fill:#843734"/><path d="M240.072,41.09c3.39,3.156-1.22,8.277-4.714,5.237C231.969,43.17,236.578,38.05,240.072,41.09Z" style="fill:#c17e61"/><path d="M245.687,71.272c3.39,3.156-1.22,8.277-4.714,5.237C237.584,73.352,242.193,68.232,245.687,71.272Z" style="fill:#c17e61"/><path d="M305.817,61.913c3.39,3.157-1.22,8.277-4.714,5.237C297.714,63.993,302.324,58.873,305.817,61.913Z" style="fill:#c17e61"/><path d="M309.9,106.918c24.982-23.659,27.241-58.7,18.043-71.509-38.105-62.037-203.282,3.877-208.3,18.689a3.507,3.507,0,0,0-.967,2.776C140.519,104.077,254.221,155.059,309.9,106.918ZM242.466,17.9c40.1-5.334,67.626,1.988,79.6,21.176A27.164,27.164,0,0,1,315.79,74.6c-47.572,38.122-118.932,14.161-142.415,1.712a468.825,468.825,0,0,0-44.494-20.905C139.812,47.257,172.877,27.156,242.466,17.9ZM131.648,64.043c8.683,3.66,22.144,9.724,38.484,18.387,33.642,18.765,109.922,33.112,150.385-2.761-24.428,66.506-137.988,34.286-168.831,4.415A132.247,132.247,0,0,1,131.648,64.043Z" style="fill:#2b2b2b"/><path d="M34.169,264.311c27.478,13,55.86,8.129,87.268-2.448a17.5,17.5,0,0,0,11.033-11.535c52.378-26.18,66.6-74.611,70.277-94.27a17.194,17.194,0,0,0-10.833-19.379c-50.471-18.765-99.471-.5-119.408,8.946a14.66,14.66,0,0,0-15.209-.584C10.512,170.41-7.511,212.506,6.244,234.176,7.384,237.44,14.059,254.163,34.169,264.311Zm84.965-8.979C77.676,269.15,45.855,270.605,22,246.532c32.117,17.349,76.43,3.85,103.027-13.351C126.127,241.306,128.821,251.762,119.134,255.332ZM189.5,143.169a10.288,10.288,0,0,1,6.441,11.614c-3.405,18.175-16.3,62.276-62.919,87.451-.882-35.519-38.143-74.524-54.941-91.561C98.605,141.394,143.548,126.085,189.5,143.169ZM8.6,217.062c1.334-14.656,9.868-42.715,52.04-65.956a7.761,7.761,0,0,1,9.139,1.157h0c12.589,12.006,42.494,42.777,53.57,73.752-11.17,7.238-64.288,38.556-106.069,9.685A20.419,20.419,0,0,1,8.6,217.062Z" style="fill:#2b2b2b"/><path d="M244.594,223.949c-53.847,0-89.261,36.587-101.987,52.318a14.265,14.265,0,0,0,3.575,21.129c20.163,12.449,59.425,33.336,95.829,33.336,47.633-1.321,62.194-21.7,81.648-35.1,10.3-5.569,19.026-16.986,12.132-27.9C327.226,254.567,301.194,223.949,244.594,223.949Zm85.775,55.941c-3.94,8.086-14.123,10.727-20.587,17.529C262.3,342.439,196.429,321.194,149.82,291.5h0a7.38,7.38,0,0,1-1.829-10.881c42.988-59.1,141.122-69.4,182-9.112A8.283,8.283,0,0,1,330.369,279.89Z" style="fill:#2b2b2b"/></svg>