<svg id="icons" xmlns="http://www.w3.org/2000/svg" viewBox="0 0 340 340"><title>92_cinnamon</title><path d="M29.65,48.468S10,54.023,14.728,82.851a66.162,66.162,0,0,0,9.057,23.788,14.778,14.778,0,0,0,13.947,6.877c10.178-.991,29.468-3.188,55-7.543A609.941,609.941,0,0,1,249.564,99.38l7.047-28.691S64.167,47.192,29.65,48.468Z" style="fill:#995042"/><path d="M42.2,95.011s-12.9.419-14.78-18.65A6.735,6.735,0,0,1,34.057,69a111.782,111.782,0,0,0,22.294-2.661S59.412,88.18,42.2,95.011Z" style="fill:#66342d"/><path d="M29.65,48.468C50.434,47.305,56.372,86.907,42.2,95.011c0,0,85.1-12.387,173.26-13.726,26.571-1.116,44.514-8.272,55.27-20.46C267.337,48.994,259.6,33.537,244.084,36.87c-21.57,4.774-74.181,15.144-115.392,12.921C75.531,46.924,47.738,44.277,29.65,48.468Z" style="fill:#ce7c63"/><path d="M272.511,82.217a55.938,55.938,0,0,0-1.781-21.392c-17.607,10.146-43.883,17.545-55.269,20.463C234.614,81,253.911,81.225,272.511,82.217Z" style="fill:#995042"/><path d="M42.2,128.579s-12.772,0-16.313,16.755c-2.5,11.835-2.16,52.988,31.268,47.971a36.162,36.162,0,0,0,6.139-3.247l31.432-27.447S68.032,130.407,42.2,128.579Z" style="fill:#66342d"/><path d="M77.089,303.392H314.445a1.739,1.739,0,0,0,.446-3.419c-48.153-10.722-47.241-26.575-86.319-60.319a54.352,54.352,0,0,0-70.877,2.06c-3.711,3.372-7.523,7.016-11.315,10.9-16.514,16.91-55.286,39.258-70.14,47.524A1.737,1.737,0,0,0,77.089,303.392Z" style="fill:#ce7c63"/><path d="M42.2,128.579c5.91,1.963,17.215,11.7,13.274,29.048a8.714,8.714,0,0,0,8.565,10.429h51.292c78.7-22.6,156-44.9,183.4-56.576,0,0,3.9-28.7-17.631-40.913a8.2,8.2,0,0,0-7.193-.38C253.531,78.674,146.242,121.553,42.2,128.579Z" style="fill:#ce7c63"/><path d="M208.5,249.254c3.39,3.157-1.22,8.277-4.714,5.237C200.4,251.334,205.008,246.214,208.5,249.254Z" style="fill:#995042"/><path d="M195.428,264.694c3.389,3.157-1.22,8.277-4.715,5.237C187.324,266.774,191.934,261.654,195.428,264.694Z" style="fill:#995042"/><path d="M220.206,267.033c3.39,3.157-1.22,8.277-4.714,5.237C212.1,269.113,216.712,263.993,220.206,267.033Z" style="fill:#995042"/><path d="M115.332,168.056c31.334-9,62.44-17.946,90.268-26.2a12.3,12.3,0,0,0-11.233-16.508c-50.444-1.454-98.06,3.377-119.817,6.049a11.084,11.084,0,0,0-9.573,12.959c1.286,7.114,2.056,16.311-.336,23.7Z" style="fill:#995042"/><path d="M57.156,193.305S76.24,179.3,73.228,149.1a8.739,8.739,0,0,1,7.4-9.514c23.31-3.492,88.279-12.692,130.749-13.5,52.521-1,87.354-14.608,87.354-14.608S153.207,177.4,57.156,193.305Z" style="fill:#ce7c63"/><path d="M22.5,144.618c-3.578,16.148.735,53.294,29.2,52.576,93.309-12.03,247.56-82.481,248.456-82.559,4,.147,6.32-37.454-21.459-49.1a3.78,3.78,0,0,0-3.317.268c-2.4-14.151-12.113-36.8-32.049-32.317-20.771,4.6-73.5,15.057-114.457,12.845-8.8-.474-16.9-.943-24.381-1.375-38.79-2.231-60.047-3.5-75.707.163-.381.081-22.578,6.7-17.478,38.289a69.369,69.369,0,0,0,9.541,25.071,18.175,18.175,0,0,0,17.215,8.48c31.515-2.875,95.932-15.523,134.725-15.9-39.25,10.969-85.453,20.989-130.78,24.055C36.561,125.213,25.724,129.367,22.5,144.618ZM66.841,188.04c5.527-7.526,11.711-20.442,9.832-39.285a5.273,5.273,0,0,1,4.468-5.746c25.25-3.782,88.491-12.666,130.3-13.459a320.712,320.712,0,0,0,46.014-4.172C210.079,144.93,129.545,175.845,66.841,188.04ZM104.1,51.871c7.487.433,15.6.9,24.408,1.378,41.81,2.256,95.279-8.341,116.327-13,15.552-3.818,22.738,18.818,23.976,28.28-5.378,2.181-13.616,5.429-24.107,9.288C164.62,76.652,78.222,86.822,50.669,90.381c5.238-9.323,2.537-32.959-7.392-40.286C57.389,49.172,76.705,50.287,104.1,51.871ZM41.324,91.49c-2.457-.323-9.173-2.408-10.458-15.469a3.18,3.18,0,0,1,.816-2.458,3.253,3.253,0,0,1,2.412-1.1A104.956,104.956,0,0,0,46,71.615C47.817,85.3,43.02,90.212,41.324,91.49ZM92.15,102.56c-25.9,4.418-45.423,6.6-54.753,7.511A11.285,11.285,0,0,1,26.716,104.8C13.744,84.457,14.237,57.587,30.243,51.92c1.907.03,10.52.825,14.325,12.9a97.32,97.32,0,0,1-10.545.721A10.264,10.264,0,0,0,23.975,76.7c2.079,21,16.65,21.744,18.223,21.774,2.034-.161,92.259-13.169,183.209-13.8-8.326,2.859-17.469,5.872-27.272,8.916A642.583,642.583,0,0,0,92.15,102.56ZM199.3,100.47a3.392,3.392,0,0,0,1.183-.368c25.213-7.687,59.89-20.343,76.835-27.6,18.341,8.687,18.579,29.77,18.162,36.465-8.021,2.783-39.874,12.816-84.172,13.657-42.217.8-105.814,9.732-131.2,13.534a12.193,12.193,0,0,0-10.334,13.282,56.2,56.2,0,0,1-.455,15.15H64.04a5.283,5.283,0,0,1-5.174-6.268c2.4-9.844-.492-21.488-6.618-27.058C104.839,126.61,157.819,113.306,199.3,100.47Zm-146.6,48.393a30.884,30.884,0,0,1-.621,8.066c-1.692,7.285,4.492,14.783,11.957,14.589h3.578A41.479,41.479,0,0,1,55.748,190c-8.034,1.016-14.174-.846-18.737-5.688-12.188-13.617-12.487-50.422,4.628-52.217A19.187,19.187,0,0,1,52.705,148.863Z" style="fill:#2b2b2b"/><path d="M327.16,300.136c-28.2-9.658-41.936-5.976-71.421-39.038C223,220.855,181.724,207.56,143.9,250.2c-20.033,20.511-74.679,49.847-75.229,50.142a3.461,3.461,0,0,0,1.626,6.514c23.787-.083,200.246.5,252.844.083,3.583-.043,5.745-.07,6.252-2.938A3.469,3.469,0,0,0,327.16,300.136Zm-243.511-.183c17.552-9.971,50.111-29.462,65.208-44.92,3.547-3.631,7.342-7.286,11.281-10.86a51.11,51.11,0,0,1,66.246-1.836c30.429,25.624,40.066,48.748,75.5,57.777C255.524,300.21,151.853,300.077,83.649,299.953Z" style="fill:#2b2b2b"/></svg>