<svg id="icons" xmlns="http://www.w3.org/2000/svg" viewBox="0 0 340 340"><title>94_sugar cane</title><path d="M242.916,320.716h75.907a8.663,8.663,0,0,0,7.068-13.676c-14.75-20.752-44.658-60.363-74.257-84.853a31.078,31.078,0,0,0-41.3,1.466,113.876,113.876,0,0,0-17.442,21.681c-1.935,3.064-3.95,5.961-6.01,8.695C171.648,290.509,196.356,318.632,242.916,320.716Z" style="fill:#e8caa6"/><path d="M220.951,242.036c3.389,3.157-1.22,8.277-4.714,5.237C212.847,244.116,217.457,239,220.951,242.036Z" style="fill:#cc9972"/><path d="M208.431,258.915c3.389,3.157-1.221,8.277-4.715,5.237C200.327,261,204.937,255.875,208.431,258.915Z" style="fill:#cc9972"/><path d="M227.443,258.915c3.389,3.157-1.22,8.277-4.714,5.237C219.34,261,223.949,255.875,227.443,258.915Z" style="fill:#cc9972"/><path d="M186.882,254.024l-.007,0c-18.712,24.832-41.139,36.186-41.139,36.186l25.528,30.5h71.652C185.107,309.391,186.882,254.024,186.882,254.024Z" style="fill:#c6906b"/><path d="M102.386,278.31h42.406v42.406H102.386a7.967,7.967,0,0,1-7.967-7.968V286.277A7.967,7.967,0,0,1,102.386,278.31Z" style="fill:#c6906b"/><rect x="115.622" y="235.904" width="42.406" height="42.406" rx="7.967" style="fill:#e8caa6"/><rect x="136.825" y="278.31" width="42.406" height="42.406" rx="7.967" style="fill:#e8caa6"/><path d="M71.7,153.5s22.222,1.006,50.625-13.712a32.77,32.77,0,0,1,14.334-3.689,89.667,89.667,0,0,0,44.8-13.518,27.138,27.138,0,0,1,13.891-4.121c9.32-.148,25.9-1.9,41.271-11.134l40.661,37.351s-44.46,1.81-72.07,17.3a29.6,29.6,0,0,1-12.277,3.613c-10.843.817-32.262,3.673-49.595,13.648a36.442,36.442,0,0,1-15.691,4.676c-12.42.858-34.91,3.465-51.286,11.357-15.306,6.082-21.644-15.38-18.481-32.836Z" style="fill:#aecc76"/><path d="M16.83,164.185c7.944-4.754,22.024-12.318,31.143-27.359a27.76,27.76,0,0,1,10.849-10.333C73.865,118.664,108.273,98.5,127.147,69.4a23.3,23.3,0,0,1,10.541-8.9c8.707-3.634,27.43-13.081,45.544-32.741l41.761,9.429-192.6,155.9c-13.528-.49-19.154-16.754-19.154-16.754C11.842,171.865,12.306,166.919,16.83,164.185Z" style="fill:#aecc76"/><path d="M124.19,180.888a3.464,3.464,0,0,1-3.182-2.094c-5.487-12.75-3.342-23.286-3.248-23.729a3.462,3.462,0,1,1,6.773,1.44,36.145,36.145,0,0,0,2.836,19.551A3.482,3.482,0,0,1,124.19,180.888Z" style="fill:#84994a"/><path d="M224.993,37.191c-16.132,7.615-44.181,23.475-67.238,50.091a42.292,42.292,0,0,1-5.63,5.4,5.15,5.15,0,0,1-7.4-.971A42.675,42.675,0,0,1,138.6,79.591a3.462,3.462,0,0,0-6.685,1.8,48.982,48.982,0,0,0,9.772,17.636c-15.282,8.238-43.936,25.7-68.154,51.9a5.128,5.128,0,0,1-8.3-1.056,27.274,27.274,0,0,1-2.639-6.863,3.463,3.463,0,0,0-6.816,1.225,36.81,36.81,0,0,0,7.985,15.785,112.844,112.844,0,0,0-29.8,23.352,10.649,10.649,0,0,1-15.725.228,31.163,31.163,0,0,1-5-7.264c3.086,13.521,16.763,28.587,25.916,19.583,10.812-11.15,24.584-20.623,32.186-25.483a48.152,48.152,0,0,0,9.873-8.3c26.392-29.286,62.5-51.361,75.61-58.874a39.218,39.218,0,0,0,8.949-7.09c32.259-34.024,77.139-54.931,77.139-54.931Z" style="fill:#84994a"/><path d="M184.323,26.069a8.847,8.847,0,0,0,1.285,12.6C188.647,41,193.989,43,203.3,43.444c0,0,20.849,2.1,37.45-1.466,8.829-1.9,9.871-14.14,1.435-17.36a79.813,79.813,0,0,0-24.7-5.16C197.716,18.522,189.152,20.207,184.323,26.069Z" style="fill:#e5efbd"/><path d="M265.351,133.722c-26.784-.511-53.381,11.758-63.553,17.041a25.954,25.954,0,0,1-9.571,2.76,165.013,165.013,0,0,0-55.365,15.46,25.99,25.99,0,0,1-8.828,2.524c-10.027,1.012-33.555,4.167-47.951,12.414-10.856,6.219-16.863,5.207-20,3.27,2.715,6.91,9.039,11.44,16.277,8.087,16.377-7.893,38.87-10.5,51.29-11.357a38.287,38.287,0,0,0,16.19-4.963c17.243-9.743,38.353-12.552,49.092-13.362a29.579,29.579,0,0,0,12.277-3.612c27.61-15.493,72.07-17.3,72.07-17.3Z" style="fill:#84994a"/><path d="M197.466,160.9a3.464,3.464,0,0,1-3.055-1.827c-4.186-7.742-5.58-17.5-4.182-28.325.356-5.478,8.141-4.161,6.812,1.352-1.12,9.338.048,17.313,3.473,23.7A3.484,3.484,0,0,1,197.466,160.9Zm-7.059-29.119v0Zm0,0v0Z" style="fill:#84994a"/><path d="M236.621,107.33s-6.467,8.386,5.051,20.618a52.961,52.961,0,0,0,35.74,16.735,10.333,10.333,0,0,0,7.113-17.814C274.159,117,251.265,98.054,236.621,107.33Z" style="fill:#e5efbd"/><path d="M253.841,219.52a34.562,34.562,0,0,0-45.9,1.63,117.91,117.91,0,0,0-17.978,22.336,141.013,141.013,0,0,1-26.832,31.362h-2.568c1.792-2.324.613-27.82.929-30.977a11.444,11.444,0,0,0-11.43-11.43H123.59a11.444,11.444,0,0,0-11.431,11.43c.314,3.276-.874,28.517.93,30.977h-10.7a11.442,11.442,0,0,0-11.429,11.429v26.471a11.443,11.443,0,0,0,11.429,11.43H318.824c9.578.241,15.678-11.44,9.889-19.144C313.524,283.666,283.6,244.142,253.841,219.52ZM119.084,243.871a4.51,4.51,0,0,1,4.506-4.5h26.471a4.51,4.51,0,0,1,4.5,4.5v26.471a4.51,4.51,0,0,1-4.5,4.506H123.59a4.511,4.511,0,0,1-4.506-4.506Zm-16.7,73.383a4.51,4.51,0,0,1-4.5-4.506V286.277a4.51,4.51,0,0,1,4.5-4.5h31.905a11.378,11.378,0,0,0-.928,4.5c.331,3.3-.887,28.507.929,30.977Zm73.383-4.506a4.51,4.51,0,0,1-4.5,4.506H144.793a4.511,4.511,0,0,1-4.506-4.506V286.277a4.51,4.51,0,0,1,4.506-4.5h26.471a4.51,4.51,0,0,1,4.5,4.5Zm147.68,1.687a5.121,5.121,0,0,1-4.625,2.819H181.765c1.8-2.337.605-27.811.929-30.977a11.439,11.439,0,0,0-9.452-11.246,153.461,153.461,0,0,0,22.574-27.847,110.966,110.966,0,0,1,16.908-21.028,27.637,27.637,0,0,1,36.7-1.3c29.149,24.117,58.652,63.1,73.643,84.191A5.108,5.108,0,0,1,323.449,314.435Z" style="fill:#2b2b2b"/><path d="M41.645,198.328a145.019,145.019,0,0,1,14.14-12.6c3.106,10.031,11.549,17.466,22.081,12.671,15.946-7.685,38.185-10.2,50.022-11.022a40.136,40.136,0,0,0,17.179-5.13c16.648-9.58,37.3-12.379,48.128-13.2A32.806,32.806,0,0,0,206.906,165c26.013-14.6,68.319-16.76,70.431-16.859a13.5,13.5,0,0,0,12.85-8.624,13.741,13.741,0,0,0-3.275-15.16c-12.458-11.86-35.767-30.206-52.052-20.009C219.964,113.3,203.668,114.874,195.3,115a30.645,30.645,0,0,0-15.663,4.643,86.519,86.519,0,0,1-43.048,13,36.449,36.449,0,0,0-15.849,4.076,130.067,130.067,0,0,1-15.143,6.663,360.645,360.645,0,0,1,52.949-37.114,43.171,43.171,0,0,0,9.8-7.774c30.68-32.331,73.549-52.94,75.925-54.066a12.337,12.337,0,0,0,7.13-10.435,12.236,12.236,0,0,0-7.981-12.608A83.09,83.09,0,0,0,217.653,16c-22.664-.731-30.907.428-37.248,9.715-17.349,18.723-35.028,27.827-44.049,31.592a26.7,26.7,0,0,0-12.113,10.212c-18.577,28.642-53.058,48.637-67.02,55.9a31.27,31.27,0,0,0-12.211,11.609c-8.824,14.241-20.655,20.588-29.96,26.183a12.539,12.539,0,0,0-5.815,12.975C12.55,192.514,28.708,209.95,41.645,198.328ZM239.12,109.873c13.254-7.266,36.207,13.021,43.018,19.5a6.859,6.859,0,0,1-4.712,11.844v.019c-.045,0-.09-.008-.135-.008v-.013a50.21,50.21,0,0,1-33.1-15.645C236.351,117.246,238.279,111.523,239.12,109.873Zm-115.2,32.992a29.5,29.5,0,0,1,12.819-3.3,93.535,93.535,0,0,0,46.545-14.038,23.7,23.7,0,0,1,12.119-3.6,91.372,91.372,0,0,0,35.93-7.913c-.533,11.489,15.684,25.068,25.736,29.154-15.606,2.165-37.247,6.647-53.553,15.8a25.964,25.964,0,0,1-10.843,3.179c-11.416.861-33.228,3.836-51.062,14.1a33.181,33.181,0,0,1-14.2,4.224c-12.334.851-35.562,3.5-52.552,11.691-7.332,3.393-11.714-4.723-13.178-10.912,4.482-3.278,8.54-5.984,11.5-7.876,8.3-5.081,13.586-12.764,20.543-19.2A130.54,130.54,0,0,0,123.922,142.865Zm63.072-114.6c3.976-4.823,11.905-6.224,30.332-5.354a76.223,76.223,0,0,1,23.624,4.936,5.391,5.391,0,0,1,3.545,5.612,5.524,5.524,0,0,1-4.472,5.129C224.164,42,203.85,40.018,203.647,40,192.482,39.415,182.016,36.373,186.994,28.27ZM16.049,172.944c-.639-3.272,1.636-5.586,4.369-6.862,8.083-4.777,21.61-12.771,30.516-27.461a24.344,24.344,0,0,1,9.487-9.057c14.449-7.52,50.158-28.253,69.631-58.278a19.809,19.809,0,0,1,8.971-7.59,134.275,134.275,0,0,0,40.66-27.356c3.686,8.064,12.425,9.7,23.363,10.558a182.575,182.575,0,0,0,20.866.5c-16.175,9.312-40.6,25.258-60.591,46.325a36.145,36.145,0,0,1-8.222,6.533c-14.164,8.117-49.969,30.169-76.452,59.555a44.947,44.947,0,0,1-9.2,7.723c-7.467,4.776-21.654,14.5-32.776,25.97C29.971,200.306,17.563,184.726,16.049,172.944Z" style="fill:#2b2b2b"/></svg>